  0
SECTION
  2
HEADER
  9
$ACADVER
  1
AC1014
  9
$HANDSEED
  5
FFFF
  9
$MEASUREMENT
 70
     1
  0
ENDSEC
  0
SECTION
  2
TABLES
  0
TABLE
  2
VPORT
  5
8
330
0
100
AcDbSymbolTable
 70
     4
  0
VPORT
  5
2E
330
8
100
AcDbSymbolTableRecord
100
AcDbViewportTableRecord
  2
*ACTIVE
 70
     0
 10
0.0
 20
0.0
 11
1.0
 21
1.0
 12
210.0
 22
148.5
 13
0.0
 23
0.0
 14
10.0
 24
10.0
 15
10.0
 25
10.0
 16
0.0
 26
0.0
 36
1.0
 17
0.0
 27
0.0
 37
0.0
 40
341.0
 41
1.24
 42
50.0
 43
0.0
 44
0.0
 50
0.0
 51
0.0
 71
     0
 72
   100
 73
     1
 74
     3
 75
     0
 76
     0
 77
     0
 78
     0
  0
ENDTAB
  0
TABLE
  2
LTYPE
  5
5
330
0
100
AcDbSymbolTable
 70
     1
  0
LTYPE
  5
14
330
5
100
AcDbSymbolTableRecord
100
AcDbLinetypeTableRecord
  2
BYBLOCK
 70
     0
  3

 72
    65
 73
     0
 40
0.0
  0
LTYPE
  5
15
330
5
100
AcDbSymbolTableRecord
100
AcDbLinetypeTableRecord
  2
BYLAYER
 70
     0
  3

 72
    65
 73
     0
 40
0.0
  0
LTYPE
  5
16
330
5
100
AcDbSymbolTableRecord
100
AcDbLinetypeTableRecord
  2
CONTINUOUS
 70
     0
  3
Solid line
 72
    65
 73
     0
 40
0.0
  0
ENDTAB
  0
TABLE
  2
LAYER
  5
2
100
AcDbSymbolTable
 70
1
  0
LAYER
  5
50
100
AcDbSymbolTableRecord
100
AcDbLayerTableRecord
  2
0
 70
0
  6
CONTINUOUS
  0
ENDTAB
  0
TABLE
  2
STYLE
  5
3
330
0
100
AcDbSymbolTable
 70
     1
  0
STYLE
  5
11
330
3
100
AcDbSymbolTableRecord
100
AcDbTextStyleTableRecord
  2
STANDARD
 70
     0
 40
0.0
 41
1.0
 50
0.0
 71
     0
 42
2.5
  3
txt
  4

  0
ENDTAB
  0
TABLE
  2
VIEW
  5
6
330
0
100
AcDbSymbolTable
 70
     0
  0
ENDTAB
  0
TABLE
  2
UCS
  5
7
330
0
100
AcDbSymbolTable
 70
     0
  0
ENDTAB
  0
TABLE
  2
APPID
  5
9
330
0
100
AcDbSymbolTable
 70
     2
  0
APPID
  5
12
330
9
100
AcDbSymbolTableRecord
100
AcDbRegAppTableRecord
  2
ACAD
 70
     0
  0
ENDTAB
  0
TABLE
  2
DIMSTYLE
  5
A
330
0
100
AcDbSymbolTable
 70
     1
  0
DIMSTYLE
105
27
330
A
100
AcDbSymbolTableRecord
100
AcDbDimStyleTableRecord
  2
ISO-25
 70
     0
  3

  4

  5

  6

  7

 40
1.0
 41
2.5
 42
0.625
 43
3.75
 44
1.25
 45
0.0
 46
0.0
 47
0.0
 48
0.0
140
2.5
141
2.5
142
0.0
143
0.03937007874016
144
1.0
145
0.0
146
1.0
147
0.625
 71
     0
 72
     0
 73
     0
 74
     0
 75
     0
 76
     0
 77
     1
 78
     8
170
     0
171
     3
172
     1
173
     0
174
     0
175
     0
176
     0
177
     0
178
     0
270
     2
271
     2
272
     2
273
     2
274
     3
340
11
275
     0
280
     0
281
     0
282
     0
283
     0
284
     8
285
     0
286
     0
287
     3
288
     0
  0
ENDTAB
  0
TABLE
  2
BLOCK_RECORD
  5
1
330
0
100
AcDbSymbolTable
 70
     1
  0
BLOCK_RECORD
  5
1F
330
1
100
AcDbSymbolTableRecord
100
AcDbBlockTableRecord
  2
*MODEL_SPACE
  0
BLOCK_RECORD
  5
1B
330
1
100
AcDbSymbolTableRecord
100
AcDbBlockTableRecord
  2
*PAPER_SPACE
  0
ENDTAB
  0
ENDSEC
  0
SECTION
  2
BLOCKS
  0
BLOCK
  5
20
330
1F
100
AcDbEntity
  8
0
100
AcDbBlockBegin
  2
*MODEL_SPACE
 70
     0
 10
0.0
 20
0.0
 30
0.0
  3
*MODEL_SPACE
  1

  0
ENDBLK
  5
21
330
1F
100
AcDbEntity
  8
0
100
AcDbBlockEnd
  0
BLOCK
  5
1C
330
1B
100
AcDbEntity
 67
     1
  8
0
100
AcDbBlockBegin
  2
*PAPER_SPACE
  1

  0
ENDBLK
  5
1D
330
1B
100
AcDbEntity
 67
     1
  8
0
100
AcDbBlockEnd
  0
ENDSEC
  0
SECTION
  2
ENTITIES
  0
LINE
  5
100
100
AcDbEntity
  8
0
 62
1
100
AcDbLine
 10
39.980881
 20
79.503199
 30
0.0
 11
38.236641
 21
79.484509
 31
0.0
  0
LINE
  5
101
100
AcDbEntity
  8
0
 62
1
100
AcDbLine
 10
38.236641
 20
79.484509
 30
0.0
 11
36.539913
 21
79.384975
 31
0.0
  0
LINE
  5
102
100
AcDbEntity
  8
0
 62
1
100
AcDbLine
 10
36.539913
 20
79.384975
 30
0.0
 11
33.916326
 21
79.073900
 31
0.0
  0
LINE
  5
103
100
AcDbEntity
  8
0
 62
1
100
AcDbLine
 10
33.916326
 20
79.073900
 30
0.0
 11
31.972582
 21
78.719915
 31
0.0
  0
LINE
  5
104
100
AcDbEntity
  8
0
 62
1
100
AcDbLine
 10
31.972582
 20
78.719915
 30
0.0
 11
29.292178
 21
78.056616
 31
0.0
  0
LINE
  5
105
100
AcDbEntity
  8
0
 62
1
100
AcDbLine
 10
29.292178
 20
78.056616
 30
0.0
 11
28.245911
 21
77.741421
 31
0.0
  0
LINE
  5
106
100
AcDbEntity
  8
0
 62
1
100
AcDbLine
 10
28.245911
 20
77.741421
 30
0.0
 11
26.960892
 21
77.309916
 31
0.0
  0
LINE
  5
107
100
AcDbEntity
  8
0
 62
1
100
AcDbLine
 10
26.960892
 20
77.309916
 30
0.0
 11
24.956215
 21
76.536113
 31
0.0
  0
LINE
  5
108
100
AcDbEntity
  8
0
 62
1
100
AcDbLine
 10
24.956215
 20
76.536113
 30
0.0
 11
23.232031
 21
75.768270
 31
0.0
  0
LINE
  5
109
100
AcDbEntity
  8
0
 62
1
100
AcDbLine
 10
23.232031
 20
75.768270
 30
0.0
 11
21.090454
 21
74.674549
 31
0.0
  0
LINE
  5
10a
100
AcDbEntity
  8
0
 62
1
100
AcDbLine
 10
21.090454
 20
74.674549
 30
0.0
 11
19.345211
 21
73.660009
 31
0.0
  0
LINE
  5
10b
100
AcDbEntity
  8
0
 62
1
100
AcDbLine
 10
19.345211
 20
73.660009
 30
0.0
 11
16.894103
 21
72.028605
 31
0.0
  0
LINE
  5
10c
100
AcDbEntity
  8
0
 62
1
100
AcDbLine
 10
16.894103
 20
72.028605
 30
0.0
 11
14.204391
 21
69.919743
 31
0.0
  0
LINE
  5
10d
100
AcDbEntity
  8
0
 62
1
100
AcDbLine
 10
14.204391
 20
69.919743
 30
0.0
 11
12.379335
 21
68.263087
 31
0.0
  0
LINE
  5
10e
100
AcDbEntity
  8
0
 62
1
100
AcDbLine
 10
12.379335
 20
68.263087
 30
0.0
 11
10.142251
 21
65.923874
 31
0.0
  0
LINE
  5
10f
100
AcDbEntity
  8
0
 62
1
100
AcDbLine
 10
10.142251
 20
65.923874
 30
0.0
 11
8.203361
 21
63.544473
 31
0.0
  0
LINE
  5
110
100
AcDbEntity
  8
0
 62
1
100
AcDbLine
 10
8.203361
 20
63.544473
 30
0.0
 11
6.396132
 21
60.921799
 31
0.0
  0
LINE
  5
111
100
AcDbEntity
  8
0
 62
1
100
AcDbLine
 10
6.396132
 20
60.921799
 30
0.0
 11
5.055003
 21
58.613715
 31
0.0
  0
LINE
  5
112
100
AcDbEntity
  8
0
 62
1
100
AcDbLine
 10
5.055003
 20
58.613715
 30
0.0
 11
3.861575
 21
56.166983
 31
0.0
  0
LINE
  5
113
100
AcDbEntity
  8
0
 62
1
100
AcDbLine
 10
3.861575
 20
56.166983
 30
0.0
 11
3.312318
 21
54.857055
 31
0.0
  0
LINE
  5
114
100
AcDbEntity
  8
0
 62
1
100
AcDbLine
 10
3.312318
 20
54.857055
 30
0.0
 11
2.085823
 21
51.498214
 31
0.0
  0
LINE
  5
115
100
AcDbEntity
  8
0
 62
1
100
AcDbLine
 10
2.085823
 20
51.498214
 30
0.0
 11
0.987505
 21
46.981199
 31
0.0
  0
LINE
  5
116
100
AcDbEntity
  8
0
 62
1
100
AcDbLine
 10
0.987505
 20
46.981199
 30
0.0
 11
0.517954
 21
43.380752
 31
0.0
  0
LINE
  5
117
100
AcDbEntity
  8
0
 62
1
100
AcDbLine
 10
0.517954
 20
43.380752
 30
0.0
 11
0.400504
 21
38.888167
 31
0.0
  0
LINE
  5
118
100
AcDbEntity
  8
0
 62
1
100
AcDbLine
 10
0.400504
 20
38.888167
 30
0.0
 11
0.914181
 21
33.569701
 31
0.0
  0
LINE
  5
119
100
AcDbEntity
  8
0
 62
1
100
AcDbLine
 10
0.914181
 20
33.569701
 30
0.0
 11
1.864596
 21
29.245542
 31
0.0
  0
LINE
  5
11a
100
AcDbEntity
  8
0
 62
1
100
AcDbLine
 10
1.864596
 20
29.245542
 30
0.0
 11
3.603681
 21
24.265639
 31
0.0
  0
LINE
  5
11b
100
AcDbEntity
  8
0
 62
1
100
AcDbLine
 10
3.603681
 20
24.265639
 30
0.0
 11
5.544456
 21
20.322687
 31
0.0
  0
LINE
  5
11c
100
AcDbEntity
  8
0
 62
1
100
AcDbLine
 10
5.544456
 20
20.322687
 30
0.0
 11
7.456434
 21
17.276676
 31
0.0
  0
LINE
  5
11d
100
AcDbEntity
  8
0
 62
1
100
AcDbLine
 10
7.456434
 20
17.276676
 30
0.0
 11
10.282526
 21
13.703779
 31
0.0
  0
LINE
  5
11e
100
AcDbEntity
  8
0
 62
1
100
AcDbLine
 10
10.282526
 20
13.703779
 30
0.0
 11
11.658565
 21
12.253113
 31
0.0
  0
LINE
  5
11f
100
AcDbEntity
  8
0
 62
1
100
AcDbLine
 10
11.658565
 20
12.253113
 30
0.0
 11
13.879867
 21
10.109714
 31
0.0
  0
LINE
  5
120
100
AcDbEntity
  8
0
 62
1
100
AcDbLine
 10
13.879867
 20
10.109714
 30
0.0
 11
16.762858
 21
7.801067
 31
0.0
  0
LINE
  5
121
100
AcDbEntity
  8
0
 62
1
100
AcDbLine
 10
16.762858
 20
7.801067
 30
0.0
 11
20.182854
 21
5.596844
 31
0.0
  0
LINE
  5
122
100
AcDbEntity
  8
0
 62
1
100
AcDbLine
 10
20.182854
 20
5.596844
 30
0.0
 11
24.033607
 21
3.665225
 31
0.0
  0
LINE
  5
123
100
AcDbEntity
  8
0
 62
1
100
AcDbLine
 10
24.033607
 20
3.665225
 30
0.0
 11
28.470849
 21
2.036024
 31
0.0
  0
LINE
  5
124
100
AcDbEntity
  8
0
 62
1
100
AcDbLine
 10
28.470849
 20
2.036024
 30
0.0
 11
32.511686
 21
1.037063
 31
0.0
  0
LINE
  5
125
100
AcDbEntity
  8
0
 62
1
100
AcDbLine
 10
32.511686
 20
1.037063
 30
0.0
 11
37.124165
 21
0.415262
 31
0.0
  0
LINE
  5
126
100
AcDbEntity
  8
0
 62
1
100
AcDbLine
 10
37.124165
 20
0.415262
 30
0.0
 11
43.018671
 21
0.400054
 31
0.0
  0
LINE
  5
127
100
AcDbEntity
  8
0
 62
1
100
AcDbLine
 10
43.018671
 20
0.400054
 30
0.0
 11
45.777957
 21
0.699246
 31
0.0
  0
LINE
  5
128
100
AcDbEntity
  8
0
 62
1
100
AcDbLine
 10
45.777957
 20
0.699246
 30
0.0
 11
49.105780
 21
1.335390
 31
0.0
  0
LINE
  5
129
100
AcDbEntity
  8
0
 62
1
100
AcDbLine
 10
49.105780
 20
1.335390
 30
0.0
 11
50.842682
 21
1.794386
 31
0.0
  0
LINE
  5
12a
100
AcDbEntity
  8
0
 62
1
100
AcDbLine
 10
50.842682
 20
1.794386
 30
0.0
 11
53.582881
 21
2.710072
 31
0.0
  0
LINE
  5
12b
100
AcDbEntity
  8
0
 62
1
100
AcDbLine
 10
53.582881
 20
2.710072
 30
0.0
 11
56.861050
 21
4.054920
 31
0.0
  0
LINE
  5
12c
100
AcDbEntity
  8
0
 62
1
100
AcDbLine
 10
56.861050
 20
4.054920
 30
0.0
 11
60.782338
 21
6.184643
 31
0.0
  0
LINE
  5
12d
100
AcDbEntity
  8
0
 62
1
100
AcDbLine
 10
60.782338
 20
6.184643
 30
0.0
 11
64.579344
 21
8.876384
 31
0.0
  0
LINE
  5
12e
100
AcDbEntity
  8
0
 62
1
100
AcDbLine
 10
64.579344
 20
8.876384
 30
0.0
 11
67.129982
 21
11.107195
 31
0.0
  0
LINE
  5
12f
100
AcDbEntity
  8
0
 62
1
100
AcDbLine
 10
67.129982
 20
11.107195
 30
0.0
 11
69.504258
 21
13.566606
 31
0.0
  0
LINE
  5
130
100
AcDbEntity
  8
0
 62
1
100
AcDbLine
 10
69.504258
 20
13.566606
 30
0.0
 11
71.625704
 21
16.164347
 31
0.0
  0
LINE
  5
131
100
AcDbEntity
  8
0
 62
1
100
AcDbLine
 10
71.625704
 20
16.164347
 30
0.0
 11
73.512901
 21
18.903343
 31
0.0
  0
LINE
  5
132
100
AcDbEntity
  8
0
 62
1
100
AcDbLine
 10
73.512901
 20
18.903343
 30
0.0
 11
75.221140
 21
21.883288
 31
0.0
  0
LINE
  5
133
100
AcDbEntity
  8
0
 62
1
100
AcDbLine
 10
75.221140
 20
21.883288
 30
0.0
 11
76.602525
 21
24.835903
 31
0.0
  0
LINE
  5
134
100
AcDbEntity
  8
0
 62
1
100
AcDbLine
 10
76.602525
 20
24.835903
 30
0.0
 11
77.861115
 21
28.282154
 31
0.0
  0
LINE
  5
135
100
AcDbEntity
  8
0
 62
1
100
AcDbLine
 10
77.861115
 20
28.282154
 30
0.0
 11
78.768715
 21
31.744209
 31
0.0
  0
LINE
  5
136
100
AcDbEntity
  8
0
 62
1
100
AcDbLine
 10
78.768715
 20
31.744209
 30
0.0
 11
79.411597
 21
35.942643
 31
0.0
  0
LINE
  5
137
100
AcDbEntity
  8
0
 62
1
100
AcDbLine
 10
79.411597
 20
35.942643
 30
0.0
 11
79.567923
 21
38.882707
 31
0.0
  0
LINE
  5
138
100
AcDbEntity
  8
0
 62
1
100
AcDbLine
 10
79.567923
 20
38.882707
 30
0.0
 11
79.520747
 21
42.610475
 31
0.0
  0
LINE
  5
139
100
AcDbEntity
  8
0
 62
1
100
AcDbLine
 10
79.520747
 20
42.610475
 30
0.0
 11
79.092979
 21
46.322298
 31
0.0
  0
LINE
  5
13a
100
AcDbEntity
  8
0
 62
1
100
AcDbLine
 10
79.092979
 20
46.322298
 30
0.0
 11
78.522387
 21
49.105532
 31
0.0
  0
LINE
  5
13b
100
AcDbEntity
  8
0
 62
1
100
AcDbLine
 10
78.522387
 20
49.105532
 30
0.0
 11
77.570522
 21
52.377217
 31
0.0
  0
LINE
  5
13c
100
AcDbEntity
  8
0
 62
1
100
AcDbLine
 10
77.570522
 20
52.377217
 30
0.0
 11
76.207758
 21
55.854660
 31
0.0
  0
LINE
  5
13d
100
AcDbEntity
  8
0
 62
1
100
AcDbLine
 10
76.207758
 20
55.854660
 30
0.0
 11
75.014166
 21
58.302271
 31
0.0
  0
LINE
  5
13e
100
AcDbEntity
  8
0
 62
1
100
AcDbLine
 10
75.014166
 20
58.302271
 30
0.0
 11
73.357258
 21
61.146021
 31
0.0
  0
LINE
  5
13f
100
AcDbEntity
  8
0
 62
1
100
AcDbLine
 10
73.357258
 20
61.146021
 30
0.0
 11
71.260449
 21
64.130938
 31
0.0
  0
LINE
  5
140
100
AcDbEntity
  8
0
 62
1
100
AcDbLine
 10
71.260449
 20
64.130938
 30
0.0
 11
69.605361
 21
66.140516
 31
0.0
  0
LINE
  5
141
100
AcDbEntity
  8
0
 62
1
100
AcDbLine
 10
69.605361
 20
66.140516
 30
0.0
 11
66.926206
 21
68.909707
 31
0.0
  0
LINE
  5
142
100
AcDbEntity
  8
0
 62
1
100
AcDbLine
 10
66.926206
 20
68.909707
 30
0.0
 11
65.955206
 21
69.754808
 31
0.0
  0
LINE
  5
143
100
AcDbEntity
  8
0
 62
1
100
AcDbLine
 10
65.955206
 20
69.754808
 30
0.0
 11
64.688599
 21
70.857190
 31
0.0
  0
LINE
  5
144
100
AcDbEntity
  8
0
 62
1
100
AcDbLine
 10
64.688599
 20
70.857190
 30
0.0
 11
61.641734
 21
73.076388
 31
0.0
  0
LINE
  5
145
100
AcDbEntity
  8
0
 62
1
100
AcDbLine
 10
61.641734
 20
73.076388
 30
0.0
 11
59.570745
 21
74.340101
 31
0.0
  0
LINE
  5
146
100
AcDbEntity
  8
0
 62
1
100
AcDbLine
 10
59.570745
 20
74.340101
 30
0.0
 11
58.176861
 21
75.090687
 31
0.0
  0
LINE
  5
147
100
AcDbEntity
  8
0
 62
1
100
AcDbLine
 10
58.176861
 20
75.090687
 30
0.0
 11
56.262914
 21
75.999580
 31
0.0
  0
LINE
  5
148
100
AcDbEntity
  8
0
 62
1
100
AcDbLine
 10
56.262914
 20
75.999580
 30
0.0
 11
54.613966
 21
76.702542
 31
0.0
  0
LINE
  5
149
100
AcDbEntity
  8
0
 62
1
100
AcDbLine
 10
54.613966
 20
76.702542
 30
0.0
 11
52.234350
 21
77.563826
 31
0.0
  0
LINE
  5
14a
100
AcDbEntity
  8
0
 62
1
100
AcDbLine
 10
52.234350
 20
77.563826
 30
0.0
 11
50.267367
 21
78.148104
 31
0.0
  0
LINE
  5
14b
100
AcDbEntity
  8
0
 62
1
100
AcDbLine
 10
50.267367
 20
78.148104
 30
0.0
 11
47.719961
 21
78.743297
 31
0.0
  0
LINE
  5
14c
100
AcDbEntity
  8
0
 62
1
100
AcDbLine
 10
47.719961
 20
78.743297
 30
0.0
 11
44.890595
 21
79.200546
 31
0.0
  0
LINE
  5
14d
100
AcDbEntity
  8
0
 62
1
100
AcDbLine
 10
44.890595
 20
79.200546
 30
0.0
 11
43.393313
 21
79.358263
 31
0.0
  0
LINE
  5
14e
100
AcDbEntity
  8
0
 62
1
100
AcDbLine
 10
43.393313
 20
79.358263
 30
0.0
 11
39.980881
 21
79.503199
 31
0.0
  0
LINE
  5
14f
100
AcDbEntity
  8
0
 62
1
100
AcDbLine
 10
39.980881
 20
71.503199
 30
0.0
 11
44.934204
 21
71.157431
 31
0.0
  0
LINE
  5
150
100
AcDbEntity
  8
0
 62
1
100
AcDbLine
 10
44.934204
 20
71.157431
 30
0.0
 11
49.541875
 21
70.049323
 31
0.0
  0
LINE
  5
151
100
AcDbEntity
  8
0
 62
1
100
AcDbLine
 10
49.541875
 20
70.049323
 30
0.0
 11
53.850619
 21
68.282729
 31
0.0
  0
LINE
  5
152
100
AcDbEntity
  8
0
 62
1
100
AcDbLine
 10
53.850619
 20
68.282729
 30
0.0
 11
57.898707
 21
65.881897
 31
0.0
  0
LINE
  5
153
100
AcDbEntity
  8
0
 62
1
100
AcDbLine
 10
57.898707
 20
65.881897
 30
0.0
 11
61.535893
 21
62.951183
 31
0.0
  0
LINE
  5
154
100
AcDbEntity
  8
0
 62
1
100
AcDbLine
 10
61.535893
 20
62.951183
 30
0.0
 11
65.061765
 21
59.103594
 31
0.0
  0
LINE
  5
155
100
AcDbEntity
  8
0
 62
1
100
AcDbLine
 10
65.061765
 20
59.103594
 30
0.0
 11
66.666933
 21
56.688851
 31
0.0
  0
LINE
  5
156
100
AcDbEntity
  8
0
 62
1
100
AcDbLine
 10
66.666933
 20
56.688851
 30
0.0
 11
67.666413
 21
55.185277
 31
0.0
  0
LINE
  5
157
100
AcDbEntity
  8
0
 62
1
100
AcDbLine
 10
67.666413
 20
55.185277
 30
0.0
 11
69.839818
 21
50.356399
 31
0.0
  0
LINE
  5
158
100
AcDbEntity
  8
0
 62
1
100
AcDbLine
 10
69.839818
 20
50.356399
 30
0.0
 11
70.770264
 21
47.030867
 31
0.0
  0
LINE
  5
159
100
AcDbEntity
  8
0
 62
1
100
AcDbLine
 10
70.770264
 20
47.030867
 30
0.0
 11
71.363592
 21
43.917251
 31
0.0
  0
LINE
  5
15a
100
AcDbEntity
  8
0
 62
1
100
AcDbLine
 10
71.363592
 20
43.917251
 30
0.0
 11
71.618998
 21
40.377351
 31
0.0
  0
LINE
  5
15b
100
AcDbEntity
  8
0
 62
1
100
AcDbLine
 10
71.618998
 20
40.377351
 30
0.0
 11
70.981717
 21
33.787221
 31
0.0
  0
LINE
  5
15c
100
AcDbEntity
  8
0
 62
1
100
AcDbLine
 10
70.981717
 20
33.787221
 30
0.0
 11
69.195932
 21
27.953623
 31
0.0
  0
LINE
  5
15d
100
AcDbEntity
  8
0
 62
1
100
AcDbLine
 10
69.195932
 20
27.953623
 30
0.0
 11
66.159821
 21
22.251465
 31
0.0
  0
LINE
  5
15e
100
AcDbEntity
  8
0
 62
1
100
AcDbLine
 10
66.159821
 20
22.251465
 30
0.0
 11
62.620761
 21
17.843995
 31
0.0
  0
LINE
  5
15f
100
AcDbEntity
  8
0
 62
1
100
AcDbLine
 10
62.620761
 20
17.843995
 30
0.0
 11
59.784044
 21
15.244162
 31
0.0
  0
LINE
  5
160
100
AcDbEntity
  8
0
 62
1
100
AcDbLine
 10
59.784044
 20
15.244162
 30
0.0
 11
55.030823
 21
12.122827
 31
0.0
  0
LINE
  5
161
100
AcDbEntity
  8
0
 62
1
100
AcDbLine
 10
55.030823
 20
12.122827
 30
0.0
 11
51.501554
 21
10.439475
 31
0.0
  0
LINE
  5
162
100
AcDbEntity
  8
0
 62
1
100
AcDbLine
 10
51.501554
 20
10.439475
 30
0.0
 11
49.498814
 21
9.729770
 31
0.0
  0
LINE
  5
163
100
AcDbEntity
  8
0
 62
1
100
AcDbLine
 10
49.498814
 20
9.729770
 30
0.0
 11
42.685309
 21
8.417345
 31
0.0
  0
LINE
  5
164
100
AcDbEntity
  8
0
 62
1
100
AcDbLine
 10
42.685309
 20
8.417345
 30
0.0
 11
39.347802
 21
8.328765
 31
0.0
  0
LINE
  5
165
100
AcDbEntity
  8
0
 62
1
100
AcDbLine
 10
39.347802
 20
8.328765
 30
0.0
 11
35.056370
 21
8.721383
 31
0.0
  0
LINE
  5
166
100
AcDbEntity
  8
0
 62
1
100
AcDbLine
 10
35.056370
 20
8.721383
 30
0.0
 11
32.351855
 21
9.267063
 31
0.0
  0
LINE
  5
167
100
AcDbEntity
  8
0
 62
1
100
AcDbLine
 10
32.351855
 20
9.267063
 30
0.0
 11
28.535845
 21
10.458868
 31
0.0
  0
LINE
  5
168
100
AcDbEntity
  8
0
 62
1
100
AcDbLine
 10
28.535845
 20
10.458868
 30
0.0
 11
23.825526
 21
12.719295
 31
0.0
  0
LINE
  5
169
100
AcDbEntity
  8
0
 62
1
100
AcDbLine
 10
23.825526
 20
12.719295
 30
0.0
 11
19.873009
 21
15.492919
 31
0.0
  0
LINE
  5
16a
100
AcDbEntity
  8
0
 62
1
100
AcDbLine
 10
19.873009
 20
15.492919
 30
0.0
 11
17.116866
 21
18.111975
 31
0.0
  0
LINE
  5
16b
100
AcDbEntity
  8
0
 62
1
100
AcDbLine
 10
17.116866
 20
18.111975
 30
0.0
 11
13.633580
 21
21.927948
 31
0.0
  0
LINE
  5
16c
100
AcDbEntity
  8
0
 62
1
100
AcDbLine
 10
13.633580
 20
21.927948
 30
0.0
 11
11.199489
 21
25.932421
 31
0.0
  0
LINE
  5
16d
100
AcDbEntity
  8
0
 62
1
100
AcDbLine
 10
11.199489
 20
25.932421
 30
0.0
 11
9.809389
 21
29.930007
 31
0.0
  0
LINE
  5
16e
100
AcDbEntity
  8
0
 62
1
100
AcDbLine
 10
9.809389
 20
29.930007
 30
0.0
 11
9.345237
 21
32.252351
 31
0.0
  0
LINE
  5
16f
100
AcDbEntity
  8
0
 62
1
100
AcDbLine
 10
9.345237
 20
32.252351
 30
0.0
 11
8.794656
 21
35.007140
 31
0.0
  0
LINE
  5
170
100
AcDbEntity
  8
0
 62
1
100
AcDbLine
 10
8.794656
 20
35.007140
 30
0.0
 11
8.411949
 21
40.559075
 31
0.0
  0
LINE
  5
171
100
AcDbEntity
  8
0
 62
1
100
AcDbLine
 10
8.411949
 20
40.559075
 30
0.0
 11
8.508537
 21
42.591903
 31
0.0
  0
LINE
  5
172
100
AcDbEntity
  8
0
 62
1
100
AcDbLine
 10
8.508537
 20
42.591903
 30
0.0
 11
9.387731
 21
47.914675
 31
0.0
  0
LINE
  5
173
100
AcDbEntity
  8
0
 62
1
100
AcDbLine
 10
9.387731
 20
47.914675
 30
0.0
 11
10.551729
 21
51.522227
 31
0.0
  0
LINE
  5
174
100
AcDbEntity
  8
0
 62
1
100
AcDbLine
 10
10.551729
 20
51.522227
 30
0.0
 11
13.366183
 21
56.922801
 31
0.0
  0
LINE
  5
175
100
AcDbEntity
  8
0
 62
1
100
AcDbLine
 10
13.366183
 20
56.922801
 30
0.0
 11
16.193258
 21
60.702650
 31
0.0
  0
LINE
  5
176
100
AcDbEntity
  8
0
 62
1
100
AcDbLine
 10
16.193258
 20
60.702650
 30
0.0
 11
21.027157
 21
65.167939
 31
0.0
  0
LINE
  5
177
100
AcDbEntity
  8
0
 62
1
100
AcDbLine
 10
21.027157
 20
65.167939
 30
0.0
 11
26.716417
 21
68.571338
 31
0.0
  0
LINE
  5
178
100
AcDbEntity
  8
0
 62
1
100
AcDbLine
 10
26.716417
 20
68.571338
 30
0.0
 11
31.709312
 21
70.409719
 31
0.0
  0
LINE
  5
179
100
AcDbEntity
  8
0
 62
1
100
AcDbLine
 10
31.709312
 20
70.409719
 30
0.0
 11
39.980881
 21
71.503199
 31
0.0
  0
LINE
  5
17a
100
AcDbEntity
  8
0
 62
5
100
AcDbLine
 10
44.589233
 20
57.957454
 30
0.0
 11
40.718014
 21
56.456299
 31
0.0
  0
LINE
  5
17b
100
AcDbEntity
  8
0
 62
5
100
AcDbLine
 10
40.718014
 20
56.456299
 30
0.0
 11
36.560585
 21
54.178423
 31
0.0
  0
LINE
  5
17c
100
AcDbEntity
  8
0
 62
5
100
AcDbLine
 10
36.560585
 20
54.178423
 30
0.0
 11
33.251450
 21
51.633677
 31
0.0
  0
LINE
  5
17d
100
AcDbEntity
  8
0
 62
5
100
AcDbLine
 10
33.251450
 20
51.633677
 30
0.0
 11
30.357991
 21
48.465885
 31
0.0
  0
LINE
  5
17e
100
AcDbEntity
  8
0
 62
5
100
AcDbLine
 10
30.357991
 20
48.465885
 30
0.0
 11
28.573942
 21
45.609796
 31
0.0
  0
LINE
  5
17f
100
AcDbEntity
  8
0
 62
5
100
AcDbLine
 10
28.573942
 20
45.609796
 30
0.0
 11
26.697510
 21
41.082766
 31
0.0
  0
LINE
  5
180
100
AcDbEntity
  8
0
 62
5
100
AcDbLine
 10
26.697510
 20
41.082766
 30
0.0
 11
25.467188
 21
36.097224
 31
0.0
  0
LINE
  5
181
100
AcDbEntity
  8
0
 62
5
100
AcDbLine
 10
25.467188
 20
36.097224
 30
0.0
 11
24.840103
 21
31.373782
 31
0.0
  0
LINE
  5
182
100
AcDbEntity
  8
0
 62
5
100
AcDbLine
 10
24.840103
 20
31.373782
 30
0.0
 11
24.592440
 21
27.815518
 31
0.0
  0
LINE
  5
183
100
AcDbEntity
  8
0
 62
5
100
AcDbLine
 10
24.592440
 20
27.815518
 30
0.0
 11
24.466869
 21
24.526712
 31
0.0
  0
LINE
  5
184
100
AcDbEntity
  8
0
 62
5
100
AcDbLine
 10
24.466869
 20
24.526712
 30
0.0
 11
24.393757
 21
21.557703
 31
0.0
  0
LINE
  5
185
100
AcDbEntity
  8
0
 62
5
100
AcDbLine
 10
24.393757
 20
21.557703
 30
0.0
 11
24.303708
 21
18.465453
 31
0.0
  0
LINE
  5
186
100
AcDbEntity
  8
0
 62
5
100
AcDbLine
 10
24.303708
 20
18.465453
 30
0.0
 11
25.452444
 21
17.793524
 31
0.0
  0
LINE
  5
187
100
AcDbEntity
  8
0
 62
5
100
AcDbLine
 10
25.452444
 20
17.793524
 30
0.0
 11
27.156050
 21
17.793524
 31
0.0
  0
LINE
  5
188
100
AcDbEntity
  8
0
 62
5
100
AcDbLine
 10
27.156050
 20
17.793524
 30
0.0
 11
29.517445
 21
17.793524
 31
0.0
  0
LINE
  5
189
100
AcDbEntity
  8
0
 62
5
100
AcDbLine
 10
29.517445
 20
17.793524
 30
0.0
 11
30.918846
 21
17.793524
 31
0.0
  0
LINE
  5
18a
100
AcDbEntity
  8
0
 62
5
100
AcDbLine
 10
30.918846
 20
17.793524
 30
0.0
 11
30.955991
 21
20.863750
 31
0.0
  0
LINE
  5
18b
100
AcDbEntity
  8
0
 62
5
100
AcDbLine
 10
30.955991
 20
20.863750
 30
0.0
 11
31.031210
 21
24.800319
 31
0.0
  0
LINE
  5
18c
100
AcDbEntity
  8
0
 62
5
100
AcDbLine
 10
31.031210
 20
24.800319
 30
0.0
 11
31.316065
 21
29.902882
 31
0.0
  0
LINE
  5
18d
100
AcDbEntity
  8
0
 62
5
100
AcDbLine
 10
31.316065
 20
29.902882
 30
0.0
 11
31.628250
 21
32.682261
 31
0.0
  0
LINE
  5
18e
100
AcDbEntity
  8
0
 62
5
100
AcDbLine
 10
31.628250
 20
32.682261
 30
0.0
 11
32.208385
 21
35.987304
 31
0.0
  0
LINE
  5
18f
100
AcDbEntity
  8
0
 62
5
100
AcDbLine
 10
32.208385
 20
35.987304
 30
0.0
 11
32.832394
 21
38.465671
 31
0.0
  0
LINE
  5
190
100
AcDbEntity
  8
0
 62
5
100
AcDbLine
 10
32.832394
 20
38.465671
 30
0.0
 11
33.264288
 21
39.846301
 31
0.0
  0
LINE
  5
191
100
AcDbEntity
  8
0
 62
5
100
AcDbLine
 10
33.264288
 20
39.846301
 30
0.0
 11
34.546540
 21
42.742995
 31
0.0
  0
LINE
  5
192
100
AcDbEntity
  8
0
 62
5
100
AcDbLine
 10
34.546540
 20
42.742995
 30
0.0
 11
37.187772
 21
46.250580
 31
0.0
  0
LINE
  5
193
100
AcDbEntity
  8
0
 62
5
100
AcDbLine
 10
37.187772
 20
46.250580
 30
0.0
 11
40.472796
 21
48.903255
 31
0.0
  0
LINE
  5
194
100
AcDbEntity
  8
0
 62
5
100
AcDbLine
 10
40.472796
 20
48.903255
 30
0.0
 11
42.673116
 21
50.082479
 31
0.0
  0
LINE
  5
195
100
AcDbEntity
  8
0
 62
5
100
AcDbLine
 10
42.673116
 20
50.082479
 30
0.0
 11
44.090155
 21
50.722122
 31
0.0
  0
LINE
  5
196
100
AcDbEntity
  8
0
 62
5
100
AcDbLine
 10
44.090155
 20
50.722122
 30
0.0
 11
45.266001
 21
51.274751
 31
0.0
  0
LINE
  5
197
100
AcDbEntity
  8
0
 62
5
100
AcDbLine
 10
45.266001
 20
51.274751
 30
0.0
 11
46.188574
 21
50.644541
 31
0.0
  0
LINE
  5
198
100
AcDbEntity
  8
0
 62
5
100
AcDbLine
 10
46.188574
 20
50.644541
 30
0.0
 11
46.596707
 21
48.779214
 31
0.0
  0
LINE
  5
199
100
AcDbEntity
  8
0
 62
5
100
AcDbLine
 10
46.596707
 20
48.779214
 30
0.0
 11
47.026719
 21
46.813937
 31
0.0
  0
LINE
  5
19a
100
AcDbEntity
  8
0
 62
5
100
AcDbLine
 10
47.026719
 20
46.813937
 30
0.0
 11
51.138713
 21
50.522593
 31
0.0
  0
LINE
  5
19b
100
AcDbEntity
  8
0
 62
5
100
AcDbLine
 10
51.138713
 20
50.522593
 30
0.0
 11
56.602981
 21
55.450884
 31
0.0
  0
LINE
  5
19c
100
AcDbEntity
  8
0
 62
5
100
AcDbLine
 10
56.602981
 20
55.450884
 30
0.0
 11
59.587862
 21
58.142982
 31
0.0
  0
LINE
  5
19d
100
AcDbEntity
  8
0
 62
5
100
AcDbLine
 10
59.587862
 20
58.142982
 30
0.0
 11
56.603008
 21
59.091933
 31
0.0
  0
LINE
  5
19e
100
AcDbEntity
  8
0
 62
5
100
AcDbLine
 10
56.603008
 20
59.091933
 30
0.0
 11
51.505829
 21
60.712436
 31
0.0
  0
LINE
  5
19f
100
AcDbEntity
  8
0
 62
5
100
AcDbLine
 10
51.505829
 20
60.712436
 30
0.0
 11
46.281923
 21
62.373229
 31
0.0
  0
LINE
  5
1a0
100
AcDbEntity
  8
0
 62
5
100
AcDbLine
 10
46.281923
 20
62.373229
 30
0.0
 11
43.426429
 21
63.281054
 31
0.0
  0
LINE
  5
1a1
100
AcDbEntity
  8
0
 62
5
100
AcDbLine
 10
43.426429
 20
63.281054
 30
0.0
 11
43.991678
 21
60.693208
 31
0.0
  0
LINE
  5
1a2
100
AcDbEntity
  8
0
 62
5
100
AcDbLine
 10
43.991678
 20
60.693208
 30
0.0
 11
44.589233
 21
57.957454
 31
0.0
  0
ENDSEC
  0
SECTION
  2
OBJECTS
  0
DICTIONARY
  5
C
330
0
100
AcDbDictionary
  3
ACAD_GROUP
350
D
  3
ACAD_MLINESTYLE
350
17
  0
DICTIONARY
  5
D
330
C
100
AcDbDictionary
  0
DICTIONARY
  5
1A
330
C
100
AcDbDictionary
  0
DICTIONARY
  5
17
330
C
100
AcDbDictionary
  3
STANDARD
350
18
  0
DICTIONARY
  5
19
330
C
100
AcDbDictionary
  0
ENDSEC
  0
EOF
