<svg height='100px' width='100px'  fill="#000000" xmlns="http://www.w3.org/2000/svg" xmlns:xlink="http://www.w3.org/1999/xlink" version="1.1" x="0px" y="0px" viewBox="0 0 299.985 203.881" style="enable-background:new 0 0 299.985 203.881;" xml:space="preserve"><g><path d="M5.25,203.881h289.486c2.887,0,5.25-2.362,5.25-5.25c0-2.887-2.362-5.25-5.25-5.25H5.25c-2.887,0-5.25,2.362-5.25,5.25   C0,201.519,2.362,203.881,5.25,203.881z"></path><ellipse transform="matrix(0.0169 -0.9999 0.9999 0.0169 141.1999 321.7724)" cx="234.231" cy="89.082" rx="22.5" ry="22.5"></ellipse><path d="M51.387,185.902c16.317,1.471,30.662,2.069,43.218,2.069c48.009,0,69.725-8.75,74.356-10.912   c1.118-0.354,2.276-0.787,3.486-1.325c19.683-10.618,29.603-19.346,42.23-36.488c9.11-12.521,5.813-25.318-0.826-31.092   c-4.555-3.962-11.594-3.435-17.666-0.111l8.368,0.948c5.588,0.633,9.62,5.694,8.987,11.283c-0.584,5.161-4.938,9.053-10.125,9.053   c-0.383,0-0.768-0.021-1.158-0.065l-25.215-2.856c-7.973,8.02-17.222,16.35-27.214,21.518c-7.292,4.487-9.535,7.693-8.997,11.245   c-0.679,0.128-1.372,0.255-2.093,0.381c0.617-3.746-0.495-7.617-3.11-10.471l-29.665-32.386   c-2.427-5.488-4.232-11.465-5.643-17.486L73.09,77.81c-2.142-1.683-3.501-4.1-3.826-6.805s0.424-5.375,2.107-7.517   c1.946-2.478,4.871-3.899,8.025-3.899c2.305,0,4.482,0.754,6.297,2.181l9.623,7.561c-0.975-10.041-8.345-19.46-16.869-18.617   c-8.756,0.864-18.852,9.391-18.673,24.874c0.372,21.287,3.408,34.146,13.311,54.199c6.195,10.459,13.811,11.982,20.837,10.772   l7.806,8.522l-38.069,6.545c-3.577,0.615-6.524,2.701-8.356,5.523c-0.558-0.049-1.109-0.095-1.672-0.145   c-6.863-0.613-12.952,4.452-13.572,11.327C39.44,179.206,44.511,185.282,51.387,185.902z"></path><path d="M147.345,114.007c0.282,2.352-0.249,4.676-1.498,6.652l56.657,6.416c0.306,0.035,0.609,0.051,0.91,0.051   c4.015,0,7.477-3.016,7.939-7.1c0.497-4.39-2.659-8.353-7.049-8.85l-65.112-7.374l4.327,3.399   C145.661,108.885,147.02,111.302,147.345,114.007z"></path><path d="M84.334,63.499c-3.474-2.73-8.504-2.126-11.233,1.348c-2.73,3.474-2.126,8.503,1.348,11.233l57.826,45.433   c1.465,1.151,3.208,1.71,4.937,1.71c2.371,0,4.718-1.049,6.296-3.058c2.73-3.474,2.126-8.503-1.348-11.233L84.334,63.499z"></path><path d="M62.259,27.786c0.422,0,0.837-0.028,1.246-0.073c0.189,0.788,0.418,1.575,0.697,2.356   c4.177,11.704,17.051,17.805,28.754,13.628c11.705-4.177,17.805-17.05,13.628-28.754C102.407,3.24,89.535-2.862,77.83,1.315   c-3.603,1.286-6.672,3.398-9.077,6.045c-1.836-1.301-4.073-2.074-6.494-2.074c-6.213,0-11.25,5.037-11.25,11.25   S56.046,27.786,62.259,27.786z"></path></g></svg>