  0
SECTION
  2
HEADER
  9
$ACADVER
  1
AC1014
  9
$HANDSEED
  5
FFFF
  9
$MEASUREMENT
 70
     1
  0
ENDSEC
  0
SECTION
  2
TABLES
  0
TABLE
  2
VPORT
  5
8
330
0
100
AcDbSymbolTable
 70
     4
  0
VPORT
  5
2E
330
8
100
AcDbSymbolTableRecord
100
AcDbViewportTableRecord
  2
*ACTIVE
 70
     0
 10
0.0
 20
0.0
 11
1.0
 21
1.0
 12
210.0
 22
148.5
 13
0.0
 23
0.0
 14
10.0
 24
10.0
 15
10.0
 25
10.0
 16
0.0
 26
0.0
 36
1.0
 17
0.0
 27
0.0
 37
0.0
 40
341.0
 41
1.24
 42
50.0
 43
0.0
 44
0.0
 50
0.0
 51
0.0
 71
     0
 72
   100
 73
     1
 74
     3
 75
     0
 76
     0
 77
     0
 78
     0
  0
ENDTAB
  0
TABLE
  2
LTYPE
  5
5
330
0
100
AcDbSymbolTable
 70
     1
  0
LTYPE
  5
14
330
5
100
AcDbSymbolTableRecord
100
AcDbLinetypeTableRecord
  2
BYBLOCK
 70
     0
  3

 72
    65
 73
     0
 40
0.0
  0
LTYPE
  5
15
330
5
100
AcDbSymbolTableRecord
100
AcDbLinetypeTableRecord
  2
BYLAYER
 70
     0
  3

 72
    65
 73
     0
 40
0.0
  0
LTYPE
  5
16
330
5
100
AcDbSymbolTableRecord
100
AcDbLinetypeTableRecord
  2
CONTINUOUS
 70
     0
  3
Solid line
 72
    65
 73
     0
 40
0.0
  0
ENDTAB
  0
TABLE
  2
LAYER
  5
2
100
AcDbSymbolTable
 70
1
  0
LAYER
  5
50
100
AcDbSymbolTableRecord
100
AcDbLayerTableRecord
  2
0
 70
0
  6
CONTINUOUS
  0
ENDTAB
  0
TABLE
  2
STYLE
  5
3
330
0
100
AcDbSymbolTable
 70
     1
  0
STYLE
  5
11
330
3
100
AcDbSymbolTableRecord
100
AcDbTextStyleTableRecord
  2
STANDARD
 70
     0
 40
0.0
 41
1.0
 50
0.0
 71
     0
 42
2.5
  3
txt
  4

  0
ENDTAB
  0
TABLE
  2
VIEW
  5
6
330
0
100
AcDbSymbolTable
 70
     0
  0
ENDTAB
  0
TABLE
  2
UCS
  5
7
330
0
100
AcDbSymbolTable
 70
     0
  0
ENDTAB
  0
TABLE
  2
APPID
  5
9
330
0
100
AcDbSymbolTable
 70
     2
  0
APPID
  5
12
330
9
100
AcDbSymbolTableRecord
100
AcDbRegAppTableRecord
  2
ACAD
 70
     0
  0
ENDTAB
  0
TABLE
  2
DIMSTYLE
  5
A
330
0
100
AcDbSymbolTable
 70
     1
  0
DIMSTYLE
105
27
330
A
100
AcDbSymbolTableRecord
100
AcDbDimStyleTableRecord
  2
ISO-25
 70
     0
  3

  4

  5

  6

  7

 40
1.0
 41
2.5
 42
0.625
 43
3.75
 44
1.25
 45
0.0
 46
0.0
 47
0.0
 48
0.0
140
2.5
141
2.5
142
0.0
143
0.03937007874016
144
1.0
145
0.0
146
1.0
147
0.625
 71
     0
 72
     0
 73
     0
 74
     0
 75
     0
 76
     0
 77
     1
 78
     8
170
     0
171
     3
172
     1
173
     0
174
     0
175
     0
176
     0
177
     0
178
     0
270
     2
271
     2
272
     2
273
     2
274
     3
340
11
275
     0
280
     0
281
     0
282
     0
283
     0
284
     8
285
     0
286
     0
287
     3
288
     0
  0
ENDTAB
  0
TABLE
  2
BLOCK_RECORD
  5
1
330
0
100
AcDbSymbolTable
 70
     1
  0
BLOCK_RECORD
  5
1F
330
1
100
AcDbSymbolTableRecord
100
AcDbBlockTableRecord
  2
*MODEL_SPACE
  0
BLOCK_RECORD
  5
1B
330
1
100
AcDbSymbolTableRecord
100
AcDbBlockTableRecord
  2
*PAPER_SPACE
  0
ENDTAB
  0
ENDSEC
  0
SECTION
  2
BLOCKS
  0
BLOCK
  5
20
330
1F
100
AcDbEntity
  8
0
100
AcDbBlockBegin
  2
*MODEL_SPACE
 70
     0
 10
0.0
 20
0.0
 30
0.0
  3
*MODEL_SPACE
  1

  0
ENDBLK
  5
21
330
1F
100
AcDbEntity
  8
0
100
AcDbBlockEnd
  0
BLOCK
  5
1C
330
1B
100
AcDbEntity
 67
     1
  8
0
100
AcDbBlockBegin
  2
*PAPER_SPACE
  1

  0
ENDBLK
  5
1D
330
1B
100
AcDbEntity
 67
     1
  8
0
100
AcDbBlockEnd
  0
ENDSEC
  0
SECTION
  2
ENTITIES
  0
LWPOLYLINE
  5
100
100
AcDbEntity
  8
0
 62
7
100
AcDbPolyline
 90
33
 70
1
 10
19.921875
 20
38.085938
 30
0.0
 10
20.100060
 20
36.311989
 30
0.0
 10
20.611267
 20
34.660950
 30
0.0
 10
21.420479
 20
33.167839
 30
0.0
 10
22.492676
 20
31.867676
 30
0.0
 10
23.792839
 20
30.795479
 30
0.0
 10
25.285950
 20
29.986267
 30
0.0
 10
26.936989
 20
29.475060
 30
0.0
 10
28.710938
 20
29.296875
 30
0.0
 10
30.484886
 20
29.475060
 30
0.0
 10
32.135925
 20
29.986267
 30
0.0
 10
33.629036
 20
30.795479
 30
0.0
 10
34.929199
 20
31.867676
 30
0.0
 10
36.001396
 20
33.167839
 30
0.0
 10
36.810608
 20
34.660950
 30
0.0
 10
37.321815
 20
36.311989
 30
0.0
 10
37.500000
 20
38.085938
 30
0.0
 10
37.321815
 20
39.859886
 30
0.0
 10
36.810608
 20
41.510925
 30
0.0
 10
36.001396
 20
43.004036
 30
0.0
 10
34.929199
 20
44.304199
 30
0.0
 10
33.629036
 20
45.376396
 30
0.0
 10
32.135925
 20
46.185608
 30
0.0
 10
30.484886
 20
46.696815
 30
0.0
 10
28.710938
 20
46.875000
 30
0.0
 10
26.936989
 20
46.696815
 30
0.0
 10
25.285950
 20
46.185608
 30
0.0
 10
23.792839
 20
45.376396
 30
0.0
 10
22.492676
 20
44.304199
 30
0.0
 10
21.420479
 20
43.004036
 30
0.0
 10
20.611267
 20
41.510925
 30
0.0
 10
20.100060
 20
39.859886
 30
0.0
 10
19.921875
 20
38.085938
 30
0.0
  0
LWPOLYLINE
  5
101
100
AcDbEntity
  8
0
 62
7
100
AcDbPolyline
 90
17
 70
1
 10
33.984375
 20
38.085938
 30
0.0
 10
33.572388
 20
36.026001
 30
0.0
 10
32.446289
 20
34.350586
 30
0.0
 10
30.770874
 20
33.224487
 30
0.0
 10
28.710938
 20
32.812500
 30
0.0
 10
26.651001
 20
33.224487
 30
0.0
 10
24.975586
 20
34.350586
 30
0.0
 10
23.849487
 20
36.026001
 30
0.0
 10
23.437500
 20
38.085938
 30
0.0
 10
23.849487
 20
40.145874
 30
0.0
 10
24.975586
 20
41.821289
 30
0.0
 10
26.651001
 20
42.947388
 30
0.0
 10
28.710938
 20
43.359375
 30
0.0
 10
30.770874
 20
42.947388
 30
0.0
 10
32.446289
 20
41.821289
 30
0.0
 10
33.572388
 20
40.145874
 30
0.0
 10
33.984375
 20
38.085938
 30
0.0
  0
LWPOLYLINE
  5
102
100
AcDbEntity
  8
0
 62
7
100
AcDbPolyline
 90
33
 70
1
 10
52.734375
 20
5.859375
 30
0.0
 10
52.912560
 20
4.085426
 30
0.0
 10
53.423767
 20
2.434387
 30
0.0
 10
54.232979
 20
0.941276
 30
0.0
 10
55.305176
 20
-0.358887
 30
0.0
 10
56.605339
 20
-1.431082
 30
0.0
 10
58.098449
 20
-2.240297
 30
0.0
 10
59.749488
 20
-2.751504
 30
0.0
 10
61.523438
 20
-2.929688
 30
0.0
 10
63.297387
 20
-2.751504
 30
0.0
 10
64.948424
 20
-2.240297
 30
0.0
 10
66.441533
 20
-1.431082
 30
0.0
 10
67.741699
 20
-0.358887
 30
0.0
 10
68.813895
 20
0.941276
 30
0.0
 10
69.623109
 20
2.434387
 30
0.0
 10
70.134316
 20
4.085426
 30
0.0
 10
70.312500
 20
5.859375
 30
0.0
 10
70.134316
 20
7.633324
 30
0.0
 10
69.623109
 20
9.284363
 30
0.0
 10
68.813895
 20
10.777474
 30
0.0
 10
67.741699
 20
12.077637
 30
0.0
 10
66.441533
 20
13.149834
 30
0.0
 10
64.948424
 20
13.959045
 30
0.0
 10
63.297387
 20
14.470253
 30
0.0
 10
61.523438
 20
14.648438
 30
0.0
 10
59.749488
 20
14.470253
 30
0.0
 10
58.098449
 20
13.959045
 30
0.0
 10
56.605339
 20
13.149834
 30
0.0
 10
55.305176
 20
12.077637
 30
0.0
 10
54.232979
 20
10.777474
 30
0.0
 10
53.423767
 20
9.284363
 30
0.0
 10
52.912560
 20
7.633324
 30
0.0
 10
52.734375
 20
5.859375
 30
0.0
  0
LWPOLYLINE
  5
103
100
AcDbEntity
  8
0
 62
7
100
AcDbPolyline
 90
17
 70
1
 10
66.796875
 20
5.859375
 30
0.0
 10
66.384891
 20
3.799438
 30
0.0
 10
65.258789
 20
2.124023
 30
0.0
 10
63.583377
 20
0.997925
 30
0.0
 10
61.523438
 20
0.585938
 30
0.0
 10
59.463504
 20
0.997925
 30
0.0
 10
57.788086
 20
2.124023
 30
0.0
 10
56.661987
 20
3.799438
 30
0.0
 10
56.250000
 20
5.859375
 30
0.0
 10
56.661987
 20
7.919312
 30
0.0
 10
57.788086
 20
9.594727
 30
0.0
 10
59.463504
 20
10.720825
 30
0.0
 10
61.523438
 20
11.132812
 30
0.0
 10
63.583377
 20
10.720825
 30
0.0
 10
65.258789
 20
9.594727
 30
0.0
 10
66.384891
 20
7.919312
 30
0.0
 10
66.796875
 20
5.859375
 30
0.0
  0
LWPOLYLINE
  5
104
100
AcDbEntity
  8
0
 62
7
100
AcDbPolyline
 90
96
 70
1
 10
74.414062
 20
-10.371094
 30
0.0
 10
74.002078
 20
-8.363344
 30
0.0
 10
72.875977
 20
-6.745605
 30
0.0
 10
71.200564
 20
-5.666197
 30
0.0
 10
69.140625
 20
-5.273438
 30
0.0
 10
69.082031
 20
-5.273438
 30
0.0
 10
56.777344
 20
-5.214844
 30
0.0
 10
49.101562
 20
2.519531
 30
0.0
 10
47.024231
 20
4.195862
 30
0.0
 10
44.699707
 20
5.427246
 30
0.0
 10
42.188416
 20
6.186218
 30
0.0
 10
39.550781
 20
6.445312
 30
0.0
 10
5.449219
 20
6.445312
 30
0.0
 10
14.121094
 20
23.789062
 30
0.0
 10
15.273742
 20
25.239258
 30
0.0
 10
16.838379
 20
26.118164
 30
0.0
 10
18.611756
 20
26.359863
 30
0.0
 10
20.390625
 20
25.898438
 30
0.0
 10
21.855469
 20
24.785156
 30
0.0
 10
21.914062
 20
24.667969
 30
0.0
 10
37.851562
 20
8.730469
 30
0.0
 10
38.442077
 20
8.334961
 30
0.0
 10
39.104004
 20
8.203125
 30
0.0
 10
39.754944
 20
8.334961
 30
0.0
 10
40.312500
 20
8.730469
 30
0.0
 10
40.708008
 20
9.320984
 30
0.0
 10
40.839844
 20
9.982910
 30
0.0
 10
40.708008
 20
10.633850
 30
0.0
 10
40.312500
 20
11.191406
 30
0.0
 10
24.492188
 20
27.128906
 30
0.0
 10
23.349609
 20
28.227539
 30
0.0
 10
22.031250
 20
29.062500
 30
0.0
 10
20.481262
 20
29.658509
 30
0.0
 10
18.892822
 20
29.919434
 30
0.0
 10
17.309875
 20
29.861755
 30
0.0
 10
15.776367
 20
29.501953
 30
0.0
 10
14.336243
 20
28.856507
 30
0.0
 10
13.033447
 20
27.941895
 30
0.0
 10
11.911926
 20
26.774597
 30
0.0
 10
11.015625
 20
25.371094
 30
0.0
 10
1.054688
 20
5.507812
 30
0.0
 10
0.864258
 20
4.658203
 30
0.0
 10
1.113281
 20
3.808594
 30
0.0
 10
1.743164
 20
3.171387
 30
0.0
 10
2.636719
 20
2.929688
 30
0.0
 10
39.550781
 20
2.929688
 30
0.0
 10
41.498108
 20
2.735596
 30
0.0
 10
43.352051
 20
2.167969
 30
0.0
 10
45.063172
 20
1.248779
 30
0.0
 10
46.582031
 20
0.000000
 30
0.0
 10
54.843750
 20
-8.261719
 30
0.0
 10
55.415039
 20
-8.657227
 30
0.0
 10
56.074219
 20
-8.789062
 30
0.0
 10
69.140625
 20
-8.789062
 30
0.0
 10
69.140625
 20
-8.789062
 30
0.0
 10
70.393066
 20
-9.228516
 30
0.0
 10
70.763854
 20
-9.728396
 30
0.0
 10
70.898438
 20
-10.371094
 30
0.0
 10
70.755615
 20
-11.093443
 30
0.0
 10
70.371094
 20
-11.711426
 30
0.0
 10
69.810791
 20
-12.142641
 30
0.0
 10
69.140625
 20
-12.304688
 30
0.0
 10
54.667969
 20
-12.304688
 30
0.0
 10
54.375000
 20
-12.304688
 30
0.0
 10
54.316406
 20
-12.304688
 30
0.0
 10
53.789062
 20
-12.128906
 30
0.0
 10
53.320312
 20
-11.718750
 30
0.0
 10
53.203125
 20
-11.601562
 30
0.0
 10
47.402344
 20
-5.800781
 30
0.0
 10
46.230469
 20
-4.834898
 30
0.0
 10
44.926758
 20
-4.138184
 30
0.0
 10
43.513184
 20
-3.716127
 30
0.0
 10
42.011719
 20
-3.574219
 30
0.0
 10
15.410156
 20
-3.574219
 30
0.0
 10
14.715271
 20
-3.708803
 30
0.0
 10
14.157715
 20
-4.079590
 30
0.0
 10
13.786927
 20
-4.637145
 30
0.0
 10
13.652344
 20
-5.332031
 30
0.0
 10
13.786927
 20
-6.026918
 30
0.0
 10
14.157715
 20
-6.584473
 30
0.0
 10
14.715271
 20
-6.955260
 30
0.0
 10
15.410156
 20
-7.089844
 30
0.0
 10
42.011719
 20
-7.089844
 30
0.0
 10
43.586426
 20
-7.390137
 30
0.0
 10
44.941406
 20
-8.261719
 30
0.0
 10
50.683594
 20
-14.003906
 30
0.0
 10
52.089844
 20
-15.175781
 30
0.0
 10
53.671875
 20
-15.761719
 30
0.0
 10
53.730469
 20
-15.761719
 30
0.0
 10
54.667969
 20
-15.878906
 30
0.0
 10
54.726562
 20
-15.878906
 30
0.0
 10
69.257812
 20
-15.878906
 30
0.0
 10
71.250000
 20
-15.405580
 30
0.0
 10
72.890625
 20
-14.201660
 30
0.0
 10
74.003906
 20
-12.459410
 30
0.0
 10
74.414062
 20
-10.371094
 30
0.0
  0
LWPOLYLINE
  5
105
100
AcDbEntity
  8
0
 62
7
100
AcDbPolyline
 90
23
 70
1
 10
22.031250
 20
17.871094
 30
0.0
 10
21.269531
 20
17.050781
 30
0.0
 10
18.925781
 20
12.363281
 30
0.0
 10
18.756408
 20
11.683960
 30
0.0
 10
18.845215
 20
11.015625
 30
0.0
 10
19.164734
 20
10.435181
 30
0.0
 10
19.687500
 20
10.019531
 30
0.0
 10
20.366821
 20
9.850158
 30
0.0
 10
21.035156
 20
9.938965
 30
0.0
 10
21.615601
 20
10.258484
 30
0.0
 10
22.031250
 20
10.781250
 30
0.0
 10
23.320313
 20
13.359375
 30
0.0
 10
27.949219
 20
8.730469
 30
0.0
 10
28.542480
 20
8.334961
 30
0.0
 10
29.179688
 20
8.203125
 30
0.0
 10
29.897461
 20
8.342285
 30
0.0
 10
30.527344
 20
8.789062
 30
0.0
 10
30.922852
 20
10.041504
 30
0.0
 10
30.758057
 20
10.692444
 30
0.0
 10
30.351562
 20
11.250000
 30
0.0
 10
24.082031
 20
17.519531
 30
0.0
 10
23.122559
 20
18.024902
 30
0.0
 10
22.031250
 20
17.871094
 30
0.0
  0
LWPOLYLINE
  5
106
100
AcDbEntity
  8
0
 62
7
100
AcDbPolyline
 90
17
 70
1
 10
8.378906
 20
-5.273438
 30
0.0
 10
8.245101
 20
-5.946123
 30
0.0
 10
7.864055
 20
-6.516399
 30
0.0
 10
7.293779
 20
-6.897444
 30
0.0
 10
6.621094
 20
-7.031250
 30
0.0
 10
5.936874
 20
-6.893112
 30
0.0
 10
5.378133
 20
-6.516399
 30
0.0
 10
5.001419
 20
-5.957657
 30
0.0
 10
4.863281
 20
-5.273438
 30
0.0
 10
5.001419
 20
-4.589218
 30
0.0
 10
5.378133
 20
-4.030476
 30
0.0
 10
5.936874
 20
-3.653763
 30
0.0
 10
6.621094
 20
-3.515625
 30
0.0
 10
7.293779
 20
-3.649431
 30
0.0
 10
7.864055
 20
-4.030476
 30
0.0
 10
8.245101
 20
-4.600752
 30
0.0
 10
8.378906
 20
-5.273438
 30
0.0
  0
ENDSEC
  0
SECTION
  2
OBJECTS
  0
DICTIONARY
  5
C
330
0
100
AcDbDictionary
  3
ACAD_GROUP
350
D
  3
ACAD_MLINESTYLE
350
17
  0
DICTIONARY
  5
D
330
C
100
AcDbDictionary
  0
DICTIONARY
  5
1A
330
C
100
AcDbDictionary
  0
DICTIONARY
  5
17
330
C
100
AcDbDictionary
  3
STANDARD
350
18
  0
DICTIONARY
  5
19
330
C
100
AcDbDictionary
  0
ENDSEC
  0
EOF
