  0
SECTION
  2
HEADER
  9
$ACADVER
  1
AC1014
  9
$HANDSEED
  5
FFFF
  9
$MEASUREMENT
 70
     1
  0
ENDSEC
  0
SECTION
  2
TABLES
  0
TABLE
  2
VPORT
  5
8
330
0
100
AcDbSymbolTable
 70
     4
  0
VPORT
  5
2E
330
8
100
AcDbSymbolTableRecord
100
AcDbViewportTableRecord
  2
*ACTIVE
 70
     0
 10
0.0
 20
0.0
 11
1.0
 21
1.0
 12
210.0
 22
148.5
 13
0.0
 23
0.0
 14
10.0
 24
10.0
 15
10.0
 25
10.0
 16
0.0
 26
0.0
 36
1.0
 17
0.0
 27
0.0
 37
0.0
 40
341.0
 41
1.24
 42
50.0
 43
0.0
 44
0.0
 50
0.0
 51
0.0
 71
     0
 72
   100
 73
     1
 74
     3
 75
     0
 76
     0
 77
     0
 78
     0
  0
ENDTAB
  0
TABLE
  2
LTYPE
  5
5
330
0
100
AcDbSymbolTable
 70
     1
  0
LTYPE
  5
14
330
5
100
AcDbSymbolTableRecord
100
AcDbLinetypeTableRecord
  2
BYBLOCK
 70
     0
  3

 72
    65
 73
     0
 40
0.0
  0
LTYPE
  5
15
330
5
100
AcDbSymbolTableRecord
100
AcDbLinetypeTableRecord
  2
BYLAYER
 70
     0
  3

 72
    65
 73
     0
 40
0.0
  0
LTYPE
  5
16
330
5
100
AcDbSymbolTableRecord
100
AcDbLinetypeTableRecord
  2
CONTINUOUS
 70
     0
  3
Solid line
 72
    65
 73
     0
 40
0.0
  0
ENDTAB
  0
TABLE
  2
LAYER
  5
2
100
AcDbSymbolTable
 70
1
  0
LAYER
  5
50
100
AcDbSymbolTableRecord
100
AcDbLayerTableRecord
  2
0
 70
0
  6
CONTINUOUS
  0
ENDTAB
  0
TABLE
  2
STYLE
  5
3
330
0
100
AcDbSymbolTable
 70
     1
  0
STYLE
  5
11
330
3
100
AcDbSymbolTableRecord
100
AcDbTextStyleTableRecord
  2
STANDARD
 70
     0
 40
0.0
 41
1.0
 50
0.0
 71
     0
 42
2.5
  3
txt
  4

  0
ENDTAB
  0
TABLE
  2
VIEW
  5
6
330
0
100
AcDbSymbolTable
 70
     0
  0
ENDTAB
  0
TABLE
  2
UCS
  5
7
330
0
100
AcDbSymbolTable
 70
     0
  0
ENDTAB
  0
TABLE
  2
APPID
  5
9
330
0
100
AcDbSymbolTable
 70
     2
  0
APPID
  5
12
330
9
100
AcDbSymbolTableRecord
100
AcDbRegAppTableRecord
  2
ACAD
 70
     0
  0
ENDTAB
  0
TABLE
  2
DIMSTYLE
  5
A
330
0
100
AcDbSymbolTable
 70
     1
  0
DIMSTYLE
105
27
330
A
100
AcDbSymbolTableRecord
100
AcDbDimStyleTableRecord
  2
ISO-25
 70
     0
  3

  4

  5

  6

  7

 40
1.0
 41
2.5
 42
0.625
 43
3.75
 44
1.25
 45
0.0
 46
0.0
 47
0.0
 48
0.0
140
2.5
141
2.5
142
0.0
143
0.03937007874016
144
1.0
145
0.0
146
1.0
147
0.625
 71
     0
 72
     0
 73
     0
 74
     0
 75
     0
 76
     0
 77
     1
 78
     8
170
     0
171
     3
172
     1
173
     0
174
     0
175
     0
176
     0
177
     0
178
     0
270
     2
271
     2
272
     2
273
     2
274
     3
340
11
275
     0
280
     0
281
     0
282
     0
283
     0
284
     8
285
     0
286
     0
287
     3
288
     0
  0
ENDTAB
  0
TABLE
  2
BLOCK_RECORD
  5
1
330
0
100
AcDbSymbolTable
 70
     1
  0
BLOCK_RECORD
  5
1F
330
1
100
AcDbSymbolTableRecord
100
AcDbBlockTableRecord
  2
*MODEL_SPACE
  0
BLOCK_RECORD
  5
1B
330
1
100
AcDbSymbolTableRecord
100
AcDbBlockTableRecord
  2
*PAPER_SPACE
  0
ENDTAB
  0
ENDSEC
  0
SECTION
  2
BLOCKS
  0
BLOCK
  5
20
330
1F
100
AcDbEntity
  8
0
100
AcDbBlockBegin
  2
*MODEL_SPACE
 70
     0
 10
0.0
 20
0.0
 30
0.0
  3
*MODEL_SPACE
  1

  0
ENDBLK
  5
21
330
1F
100
AcDbEntity
  8
0
100
AcDbBlockEnd
  0
BLOCK
  5
1C
330
1B
100
AcDbEntity
 67
     1
  8
0
100
AcDbBlockBegin
  2
*PAPER_SPACE
  1

  0
ENDBLK
  5
1D
330
1B
100
AcDbEntity
 67
     1
  8
0
100
AcDbBlockEnd
  0
ENDSEC
  0
SECTION
  2
ENTITIES
  0
LWPOLYLINE
  5
100
100
AcDbEntity
  8
0
 62
7
100
AcDbPolyline
 90
60
 70
1
 10
13.929199
 20
65.348144
 30
0.0
 10
12.036984
 20
64.987179
 30
0.0
 10
10.322116
 20
64.111990
 30
0.0
 10
8.882767
 20
62.820816
 30
0.0
 10
7.817111
 20
61.211893
 30
0.0
 10
7.223322
 20
59.383461
 30
0.0
 10
7.199572
 20
57.433755
 30
0.0
 10
7.844034
 20
55.461015
 30
0.0
 10
9.254883
 20
53.563477
 30
0.0
 10
21.804199
 20
41.014160
 30
0.0
 10
20.580275
 20
40.125924
 30
0.0
 10
19.540998
 20
38.939109
 30
0.0
 10
18.777487
 20
37.475123
 30
0.0
 10
18.380859
 20
35.755371
 30
0.0
 10
16.317740
 20
35.242657
 30
0.0
 10
14.651993
 20
34.229881
 30
0.0
 10
13.405531
 20
32.832626
 30
0.0
 10
12.600269
 20
31.166473
 30
0.0
 10
12.258120
 20
29.347003
 30
0.0
 10
12.400999
 20
27.489799
 30
0.0
 10
13.050818
 20
25.710441
 30
0.0
 10
14.229492
 20
24.124512
 30
0.0
 10
27.076172
 20
11.276367
 30
0.0
 10
29.960889
 20
8.796089
 30
0.0
 10
33.031732
 20
6.890214
 30
0.0
 10
36.237332
 20
5.535905
 30
0.0
 10
39.526318
 20
4.710324
 30
0.0
 10
42.847321
 20
4.390631
 30
0.0
 10
46.148972
 20
4.553990
 30
0.0
 10
49.379901
 20
5.177561
 30
0.0
 10
52.488739
 20
6.238507
 30
0.0
 10
55.424115
 20
7.713988
 30
0.0
 10
58.134661
 20
9.581168
 30
0.0
 10
60.569007
 20
11.817207
 30
0.0
 10
62.675784
 20
14.399267
 30
0.0
 10
64.403621
 20
17.304511
 30
0.0
 10
65.701150
 20
20.510099
 30
0.0
 10
66.517001
 20
23.993194
 30
0.0
 10
66.799804
 20
27.730957
 30
0.0
 10
66.801269
 20
36.612305
 30
0.0
 10
66.628890
 20
38.316402
 30
0.0
 10
66.134646
 20
39.904783
 30
0.0
 10
64.317920
 20
42.596936
 30
0.0
 10
61.625803
 20
44.413838
 30
0.0
 10
60.037320
 20
44.908157
 30
0.0
 10
58.333008
 20
45.080567
 30
0.0
 10
49.305176
 20
45.080567
 30
0.0
 10
42.244629
 20
52.141113
 30
0.0
 10
40.964626
 20
53.149481
 30
0.0
 10
39.541444
 20
53.804587
 30
0.0
 10
38.037163
 20
54.112905
 30
0.0
 10
36.513867
 20
54.080906
 30
0.0
 10
35.033638
 20
53.715064
 30
0.0
 10
33.658557
 20
53.021850
 30
0.0
 10
32.450706
 20
52.007738
 30
0.0
 10
31.472168
 20
50.679199
 30
0.0
 10
18.921387
 20
63.228516
 30
0.0
 10
16.717841
 20
64.788910
 30
0.0
 10
14.434570
 20
65.345215
 30
0.0
 10
13.929199
 20
65.348144
 30
0.0
  0
LWPOLYLINE
  5
101
100
AcDbEntity
  8
0
 62
7
100
AcDbPolyline
 90
10
 70
1
 10
13.995117
 20
60.253418
 30
0.0
 10
14.691857
 20
60.138503
 30
0.0
 10
15.370606
 20
59.680664
 30
0.0
 10
32.888672
 20
42.166992
 30
0.0
 10
30.317871
 20
39.599121
 30
0.0
 10
12.804199
 20
57.114258
 30
0.0
 10
12.249499
 20
58.142519
 30
0.0
 10
12.398351
 20
59.143774
 30
0.0
 10
13.047857
 20
59.915061
 30
0.0
 10
13.995117
 20
60.253418
 30
0.0
  0
LWPOLYLINE
  5
102
100
AcDbEntity
  8
0
 62
7
100
AcDbPolyline
 90
11
 70
1
 10
37.335938
 20
49.146973
 30
0.0
 10
38.026040
 20
49.038562
 30
0.0
 10
38.695312
 20
48.590332
 30
0.0
 10
43.665527
 20
43.618652
 30
0.0
 10
42.278209
 20
42.435574
 30
0.0
 10
41.173828
 20
40.981933
 30
0.0
 10
36.127442
 20
46.025391
 30
0.0
 10
35.587101
 20
47.039599
 30
0.0
 10
35.743632
 20
48.033264
 30
0.0
 10
36.394192
 20
48.803388
 30
0.0
 10
37.335938
 20
49.146973
 30
0.0
  0
LWPOLYLINE
  5
103
100
AcDbEntity
  8
0
 62
7
100
AcDbPolyline
 90
77
 70
1
 10
48.414551
 20
40.060547
 30
0.0
 10
58.334473
 20
40.060547
 30
0.0
 10
59.675350
 20
39.789122
 30
0.0
 10
60.771563
 20
39.049394
 30
0.0
 10
61.511290
 20
37.953182
 30
0.0
 10
61.782715
 20
36.612305
 30
0.0
 10
61.779785
 20
27.730957
 30
0.0
 10
61.557500
 20
24.800488
 30
0.0
 10
60.917472
 20
22.069582
 30
0.0
 10
59.899941
 20
19.556149
 30
0.0
 10
58.545146
 20
17.278096
 30
0.0
 10
56.893328
 20
15.253332
 30
0.0
 10
54.984726
 20
13.499766
 30
0.0
 10
52.859581
 20
12.035305
 30
0.0
 10
50.558133
 20
10.877859
 30
0.0
 10
48.120621
 20
10.045336
 30
0.0
 10
45.587286
 20
9.555644
 30
0.0
 10
42.998367
 20
9.426692
 30
0.0
 10
40.394104
 20
9.676388
 30
0.0
 10
37.814738
 20
10.322641
 30
0.0
 10
35.300509
 20
11.383359
 30
0.0
 10
32.891655
 20
12.876451
 30
0.0
 10
30.628418
 20
14.819824
 30
0.0
 10
30.625488
 20
14.825683
 30
0.0
 10
26.891602
 20
18.561035
 30
0.0
 10
28.609020
 20
19.939559
 30
0.0
 10
29.906250
 20
22.082519
 30
0.0
 10
32.360481
 20
21.890864
 30
0.0
 10
34.498608
 20
22.484494
 30
0.0
 10
36.243748
 20
23.702674
 30
0.0
 10
37.519020
 20
25.384670
 30
0.0
 10
38.247541
 20
27.369748
 30
0.0
 10
38.352432
 20
29.497174
 30
0.0
 10
37.756808
 20
31.606214
 30
0.0
 10
36.383789
 20
33.536133
 30
0.0
 10
33.868652
 20
36.051269
 30
0.0
 10
36.436523
 20
38.617676
 30
0.0
 10
39.946289
 20
35.112305
 30
0.0
 10
39.946289
 20
24.751465
 30
0.0
 10
40.141766
 20
23.777835
 30
0.0
 10
40.675201
 20
22.982139
 30
0.0
 10
41.467105
 20
22.443786
 30
0.0
 10
42.437988
 20
22.242188
 30
0.0
 10
44.000519
 20
19.291658
 30
0.0
 10
46.117676
 20
16.697754
 30
0.0
 10
46.982505
 20
16.137852
 30
0.0
 10
47.927774
 20
15.996500
 30
0.0
 10
49.658191
 20
16.705711
 30
0.0
 10
50.242619
 20
17.424403
 30
0.0
 10
50.506046
 20
18.297906
 30
0.0
 10
50.348112
 20
19.260285
 30
0.0
 10
49.668457
 20
20.245606
 30
0.0
 10
48.079102
 20
22.252442
 30
0.0
 10
51.080962
 20
22.916854
 30
0.0
 10
53.527166
 20
24.581285
 30
0.0
 10
55.173777
 20
27.009029
 30
0.0
 10
55.776856
 20
29.963379
 30
0.0
 10
55.778320
 20
35.179688
 30
0.0
 10
55.562679
 20
36.288586
 30
0.0
 10
54.994171
 20
37.080656
 30
0.0
 10
54.190418
 20
37.555898
 30
0.0
 10
53.269043
 20
37.714312
 30
0.0
 10
52.347668
 20
37.555898
 30
0.0
 10
51.543915
 20
37.080656
 30
0.0
 10
50.975407
 20
36.288586
 30
0.0
 10
50.759766
 20
35.179688
 30
0.0
 10
50.758301
 20
29.964844
 30
0.0
 10
50.530555
 20
28.913294
 30
0.0
 10
49.909646
 20
28.053498
 30
0.0
 10
48.989066
 20
27.472983
 30
0.0
 10
47.862305
 20
27.259277
 30
0.0
 10
44.966308
 20
27.260742
 30
0.0
 10
44.966308
 20
36.612305
 30
0.0
 10
45.237522
 20
37.953182
 30
0.0
 10
45.976898
 20
39.049395
 30
0.0
 10
47.073040
 20
39.789122
 30
0.0
 10
48.414551
 20
40.060547
 30
0.0
  0
LWPOLYLINE
  5
104
100
AcDbEntity
  8
0
 62
7
100
AcDbPolyline
 90
15
 70
1
 10
25.104492
 20
36.914062
 30
0.0
 10
25.793323
 20
36.805648
 30
0.0
 10
26.460938
 20
36.357422
 30
0.0
 10
32.833008
 20
29.988281
 30
0.0
 10
33.276964
 20
29.323867
 30
0.0
 10
33.382983
 20
28.636621
 30
0.0
 10
32.819871
 20
27.435855
 30
0.0
 10
31.620994
 20
26.870434
 30
0.0
 10
30.932306
 20
26.977367
 30
0.0
 10
30.263672
 20
27.424805
 30
0.0
 10
23.894531
 20
33.791016
 30
0.0
 10
23.354202
 20
34.805378
 30
0.0
 10
23.511296
 20
35.799424
 30
0.0
 10
24.162498
 20
36.570027
 30
0.0
 10
25.104492
 20
36.914062
 30
0.0
  0
LWPOLYLINE
  5
105
100
AcDbEntity
  8
0
 62
7
100
AcDbPolyline
 90
15
 70
1
 10
18.987305
 20
30.796875
 30
0.0
 10
19.676833
 20
30.689237
 30
0.0
 10
20.345215
 20
30.241699
 30
0.0
 10
24.802734
 20
25.784180
 30
0.0
 10
25.250600
 20
25.115579
 30
0.0
 10
25.358546
 20
24.426155
 30
0.0
 10
24.795282
 20
23.225226
 30
0.0
 10
23.594142
 20
22.662173
 30
0.0
 10
22.904744
 20
22.770092
 30
0.0
 10
22.236328
 20
23.217773
 30
0.0
 10
17.778809
 20
27.675293
 30
0.0
 10
17.237974
 20
28.688903
 30
0.0
 10
17.394524
 20
29.682415
 30
0.0
 10
18.045341
 20
30.452761
 30
0.0
 10
18.987305
 20
30.796875
 30
0.0
  0
ENDSEC
  0
SECTION
  2
OBJECTS
  0
DICTIONARY
  5
C
330
0
100
AcDbDictionary
  3
ACAD_GROUP
350
D
  3
ACAD_MLINESTYLE
350
17
  0
DICTIONARY
  5
D
330
C
100
AcDbDictionary
  0
DICTIONARY
  5
1A
330
C
100
AcDbDictionary
  0
DICTIONARY
  5
17
330
C
100
AcDbDictionary
  3
STANDARD
350
18
  0
DICTIONARY
  5
19
330
C
100
AcDbDictionary
  0
ENDSEC
  0
EOF
