  0
SECTION
  2
HEADER
  9
$ACADVER
  1
AC1014
  9
$HANDSEED
  5
FFFF
  9
$MEASUREMENT
 70
     1
  0
ENDSEC
  0
SECTION
  2
TABLES
  0
TABLE
  2
VPORT
  5
8
330
0
100
AcDbSymbolTable
 70
     4
  0
VPORT
  5
2E
330
8
100
AcDbSymbolTableRecord
100
AcDbViewportTableRecord
  2
*ACTIVE
 70
     0
 10
0.0
 20
0.0
 11
1.0
 21
1.0
 12
210.0
 22
148.5
 13
0.0
 23
0.0
 14
10.0
 24
10.0
 15
10.0
 25
10.0
 16
0.0
 26
0.0
 36
1.0
 17
0.0
 27
0.0
 37
0.0
 40
341.0
 41
1.24
 42
50.0
 43
0.0
 44
0.0
 50
0.0
 51
0.0
 71
     0
 72
   100
 73
     1
 74
     3
 75
     0
 76
     0
 77
     0
 78
     0
  0
ENDTAB
  0
TABLE
  2
LTYPE
  5
5
330
0
100
AcDbSymbolTable
 70
     1
  0
LTYPE
  5
14
330
5
100
AcDbSymbolTableRecord
100
AcDbLinetypeTableRecord
  2
BYBLOCK
 70
     0
  3

 72
    65
 73
     0
 40
0.0
  0
LTYPE
  5
15
330
5
100
AcDbSymbolTableRecord
100
AcDbLinetypeTableRecord
  2
BYLAYER
 70
     0
  3

 72
    65
 73
     0
 40
0.0
  0
LTYPE
  5
16
330
5
100
AcDbSymbolTableRecord
100
AcDbLinetypeTableRecord
  2
CONTINUOUS
 70
     0
  3
Solid line
 72
    65
 73
     0
 40
0.0
  0
ENDTAB
  0
TABLE
  2
LAYER
  5
2
100
AcDbSymbolTable
 70
1
  0
LAYER
  5
50
100
AcDbSymbolTableRecord
100
AcDbLayerTableRecord
  2
0
 70
0
  6
CONTINUOUS
  0
ENDTAB
  0
TABLE
  2
STYLE
  5
3
330
0
100
AcDbSymbolTable
 70
     1
  0
STYLE
  5
11
330
3
100
AcDbSymbolTableRecord
100
AcDbTextStyleTableRecord
  2
STANDARD
 70
     0
 40
0.0
 41
1.0
 50
0.0
 71
     0
 42
2.5
  3
txt
  4

  0
ENDTAB
  0
TABLE
  2
VIEW
  5
6
330
0
100
AcDbSymbolTable
 70
     0
  0
ENDTAB
  0
TABLE
  2
UCS
  5
7
330
0
100
AcDbSymbolTable
 70
     0
  0
ENDTAB
  0
TABLE
  2
APPID
  5
9
330
0
100
AcDbSymbolTable
 70
     2
  0
APPID
  5
12
330
9
100
AcDbSymbolTableRecord
100
AcDbRegAppTableRecord
  2
ACAD
 70
     0
  0
ENDTAB
  0
TABLE
  2
DIMSTYLE
  5
A
330
0
100
AcDbSymbolTable
 70
     1
  0
DIMSTYLE
105
27
330
A
100
AcDbSymbolTableRecord
100
AcDbDimStyleTableRecord
  2
ISO-25
 70
     0
  3

  4

  5

  6

  7

 40
1.0
 41
2.5
 42
0.625
 43
3.75
 44
1.25
 45
0.0
 46
0.0
 47
0.0
 48
0.0
140
2.5
141
2.5
142
0.0
143
0.03937007874016
144
1.0
145
0.0
146
1.0
147
0.625
 71
     0
 72
     0
 73
     0
 74
     0
 75
     0
 76
     0
 77
     1
 78
     8
170
     0
171
     3
172
     1
173
     0
174
     0
175
     0
176
     0
177
     0
178
     0
270
     2
271
     2
272
     2
273
     2
274
     3
340
11
275
     0
280
     0
281
     0
282
     0
283
     0
284
     8
285
     0
286
     0
287
     3
288
     0
  0
ENDTAB
  0
TABLE
  2
BLOCK_RECORD
  5
1
330
0
100
AcDbSymbolTable
 70
     1
  0
BLOCK_RECORD
  5
1F
330
1
100
AcDbSymbolTableRecord
100
AcDbBlockTableRecord
  2
*MODEL_SPACE
  0
BLOCK_RECORD
  5
1B
330
1
100
AcDbSymbolTableRecord
100
AcDbBlockTableRecord
  2
*PAPER_SPACE
  0
ENDTAB
  0
ENDSEC
  0
SECTION
  2
BLOCKS
  0
BLOCK
  5
20
330
1F
100
AcDbEntity
  8
0
100
AcDbBlockBegin
  2
*MODEL_SPACE
 70
     0
 10
0.0
 20
0.0
 30
0.0
  3
*MODEL_SPACE
  1

  0
ENDBLK
  5
21
330
1F
100
AcDbEntity
  8
0
100
AcDbBlockEnd
  0
BLOCK
  5
1C
330
1B
100
AcDbEntity
 67
     1
  8
0
100
AcDbBlockBegin
  2
*PAPER_SPACE
  1

  0
ENDBLK
  5
1D
330
1B
100
AcDbEntity
 67
     1
  8
0
100
AcDbBlockEnd
  0
ENDSEC
  0
SECTION
  2
ENTITIES
  0
LINE
  5
100
100
AcDbEntity
  8
0
 62
7
100
AcDbLine
 10
1.429173
 20
5.104271
 30
0.0
 11
0.985542
 21
5.014502
 31
0.0
  0
LINE
  5
101
100
AcDbEntity
  8
0
 62
7
100
AcDbLine
 10
0.985542
 20
5.014502
 30
0.0
 11
0.622900
 21
4.769873
 31
0.0
  0
LINE
  5
102
100
AcDbEntity
  8
0
 62
7
100
AcDbLine
 10
0.622900
 20
4.769873
 30
0.0
 11
0.378209
 21
4.407398
 31
0.0
  0
LINE
  5
103
100
AcDbEntity
  8
0
 62
7
100
AcDbLine
 10
0.378209
 20
4.407398
 30
0.0
 11
0.288431
 21
3.964093
 31
0.0
  0
LINE
  5
104
100
AcDbEntity
  8
0
 62
7
100
AcDbLine
 10
0.288431
 20
3.964093
 30
0.0
 11
0.378248
 21
3.519928
 31
0.0
  0
LINE
  5
105
100
AcDbEntity
  8
0
 62
7
100
AcDbLine
 10
0.378248
 20
3.519928
 30
0.0
 11
0.623006
 21
3.156938
 31
0.0
  0
LINE
  5
106
100
AcDbEntity
  8
0
 62
7
100
AcDbLine
 10
0.623006
 20
3.156938
 30
0.0
 11
0.985661
 21
2.912057
 31
0.0
  0
LINE
  5
107
100
AcDbEntity
  8
0
 62
7
100
AcDbLine
 10
0.985661
 20
2.912057
 30
0.0
 11
1.429173
 21
2.822222
 31
0.0
  0
LINE
  5
108
100
AcDbEntity
  8
0
 62
7
100
AcDbLine
 10
1.429173
 20
2.822222
 30
0.0
 11
1.872805
 21
2.912057
 31
0.0
  0
LINE
  5
109
100
AcDbEntity
  8
0
 62
7
100
AcDbLine
 10
1.872805
 20
2.912057
 30
0.0
 11
2.235447
 21
3.156938
 31
0.0
  0
LINE
  5
10a
100
AcDbEntity
  8
0
 62
7
100
AcDbLine
 10
2.235447
 20
3.156938
 30
0.0
 11
2.480138
 21
3.519928
 31
0.0
  0
LINE
  5
10b
100
AcDbEntity
  8
0
 62
7
100
AcDbLine
 10
2.480138
 20
3.519928
 30
0.0
 11
2.569916
 21
3.964093
 31
0.0
  0
LINE
  5
10c
100
AcDbEntity
  8
0
 62
7
100
AcDbLine
 10
2.569916
 20
3.964093
 30
0.0
 11
2.480178
 21
4.407398
 31
0.0
  0
LINE
  5
10d
100
AcDbEntity
  8
0
 62
7
100
AcDbLine
 10
2.480178
 20
4.407398
 30
0.0
 11
2.235553
 21
4.769873
 31
0.0
  0
LINE
  5
10e
100
AcDbEntity
  8
0
 62
7
100
AcDbLine
 10
2.235553
 20
4.769873
 30
0.0
 11
1.872924
 21
5.014502
 31
0.0
  0
LINE
  5
10f
100
AcDbEntity
  8
0
 62
7
100
AcDbLine
 10
1.872924
 20
5.014502
 30
0.0
 11
1.429173
 21
5.104271
 31
0.0
  0
LINE
  5
110
100
AcDbEntity
  8
0
 62
7
100
AcDbLine
 10
3.729284
 20
9.057922
 30
0.0
 11
3.069021
 21
8.924224
 31
0.0
  0
LINE
  5
111
100
AcDbEntity
  8
0
 62
7
100
AcDbLine
 10
3.069021
 20
8.924224
 30
0.0
 11
2.529170
 21
8.559835
 31
0.0
  0
LINE
  5
112
100
AcDbEntity
  8
0
 62
7
100
AcDbLine
 10
2.529170
 20
8.559835
 30
0.0
 11
2.164843
 21
8.019816
 31
0.0
  0
LINE
  5
113
100
AcDbEntity
  8
0
 62
7
100
AcDbLine
 10
2.164843
 20
8.019816
 30
0.0
 11
2.031153
 21
7.359227
 31
0.0
  0
LINE
  5
114
100
AcDbEntity
  8
0
 62
7
100
AcDbLine
 10
2.031153
 20
7.359227
 30
0.0
 11
2.164803
 21
6.698681
 31
0.0
  0
LINE
  5
115
100
AcDbEntity
  8
0
 62
7
100
AcDbLine
 10
2.164803
 20
6.698681
 30
0.0
 11
2.529064
 21
6.158759
 31
0.0
  0
LINE
  5
116
100
AcDbEntity
  8
0
 62
7
100
AcDbLine
 10
2.529064
 20
6.158759
 30
0.0
 11
3.068902
 21
5.794468
 31
0.0
  0
LINE
  5
117
100
AcDbEntity
  8
0
 62
7
100
AcDbLine
 10
3.068902
 20
5.794468
 30
0.0
 11
3.729284
 21
5.660813
 31
0.0
  0
LINE
  5
118
100
AcDbEntity
  8
0
 62
7
100
AcDbLine
 10
3.729284
 20
5.660813
 30
0.0
 11
4.390081
 21
5.794428
 31
0.0
  0
LINE
  5
119
100
AcDbEntity
  8
0
 62
7
100
AcDbLine
 10
4.390081
 20
5.794428
 30
0.0
 11
4.930281
 21
6.158653
 31
0.0
  0
LINE
  5
11a
100
AcDbEntity
  8
0
 62
7
100
AcDbLine
 10
4.930281
 20
6.158653
 30
0.0
 11
5.294798
 21
6.698562
 31
0.0
  0
LINE
  5
11b
100
AcDbEntity
  8
0
 62
7
100
AcDbLine
 10
5.294798
 20
6.698562
 30
0.0
 11
5.428544
 21
7.359227
 31
0.0
  0
LINE
  5
11c
100
AcDbEntity
  8
0
 62
7
100
AcDbLine
 10
5.428544
 20
7.359227
 30
0.0
 11
5.294798
 21
8.019816
 31
0.0
  0
LINE
  5
11d
100
AcDbEntity
  8
0
 62
7
100
AcDbLine
 10
5.294798
 20
8.019816
 30
0.0
 11
4.930281
 21
8.559835
 31
0.0
  0
LINE
  5
11e
100
AcDbEntity
  8
0
 62
7
100
AcDbLine
 10
4.930281
 20
8.559835
 30
0.0
 11
4.390081
 21
8.924224
 31
0.0
  0
LINE
  5
11f
100
AcDbEntity
  8
0
 62
7
100
AcDbLine
 10
4.390081
 20
8.924224
 30
0.0
 11
3.729284
 21
9.057922
 31
0.0
  0
LINE
  5
120
100
AcDbEntity
  8
0
 62
7
100
AcDbLine
 10
21.177673
 20
15.825047
 30
0.0
 11
21.153261
 21
15.813936
 31
0.0
  0
LINE
  5
121
100
AcDbEntity
  8
0
 62
7
100
AcDbLine
 10
21.153261
 20
15.813936
 30
0.0
 11
21.128849
 21
15.802824
 31
0.0
  0
LINE
  5
122
100
AcDbEntity
  8
0
 62
7
100
AcDbLine
 10
21.128849
 20
15.802824
 30
0.0
 11
21.104437
 21
15.791713
 31
0.0
  0
LINE
  5
123
100
AcDbEntity
  8
0
 62
7
100
AcDbLine
 10
21.104437
 20
15.791713
 30
0.0
 11
21.080024
 21
15.780602
 31
0.0
  0
LINE
  5
124
100
AcDbEntity
  8
0
 62
7
100
AcDbLine
 10
21.080024
 20
15.780602
 30
0.0
 11
21.055612
 21
15.769491
 31
0.0
  0
LINE
  5
125
100
AcDbEntity
  8
0
 62
7
100
AcDbLine
 10
21.055612
 20
15.769491
 30
0.0
 11
21.031200
 21
15.758380
 31
0.0
  0
LINE
  5
126
100
AcDbEntity
  8
0
 62
7
100
AcDbLine
 10
21.031200
 20
15.758380
 30
0.0
 11
21.006788
 21
15.747269
 31
0.0
  0
LINE
  5
127
100
AcDbEntity
  8
0
 62
7
100
AcDbLine
 10
21.006788
 20
15.747269
 30
0.0
 11
20.982376
 21
15.736158
 31
0.0
  0
LINE
  5
128
100
AcDbEntity
  8
0
 62
7
100
AcDbLine
 10
20.982376
 20
15.736158
 30
0.0
 11
20.994229
 21
15.712062
 31
0.0
  0
LINE
  5
129
100
AcDbEntity
  8
0
 62
7
100
AcDbLine
 10
20.994229
 20
15.712062
 30
0.0
 11
21.006082
 21
15.687969
 31
0.0
  0
LINE
  5
12a
100
AcDbEntity
  8
0
 62
7
100
AcDbLine
 10
21.006082
 20
15.687969
 30
0.0
 11
21.017936
 21
15.663875
 31
0.0
  0
LINE
  5
12b
100
AcDbEntity
  8
0
 62
7
100
AcDbLine
 10
21.017936
 20
15.663875
 30
0.0
 11
21.029789
 21
15.639782
 31
0.0
  0
LINE
  5
12c
100
AcDbEntity
  8
0
 62
7
100
AcDbLine
 10
21.029789
 20
15.639782
 30
0.0
 11
21.041642
 21
15.615689
 31
0.0
  0
LINE
  5
12d
100
AcDbEntity
  8
0
 62
7
100
AcDbLine
 10
21.041642
 20
15.615689
 30
0.0
 11
21.053496
 21
15.591595
 31
0.0
  0
LINE
  5
12e
100
AcDbEntity
  8
0
 62
7
100
AcDbLine
 10
21.053496
 20
15.591595
 30
0.0
 11
21.065349
 21
15.567502
 31
0.0
  0
LINE
  5
12f
100
AcDbEntity
  8
0
 62
7
100
AcDbLine
 10
21.065349
 20
15.567502
 30
0.0
 11
21.077202
 21
15.543409
 31
0.0
  0
LINE
  5
130
100
AcDbEntity
  8
0
 62
7
100
AcDbLine
 10
21.077202
 20
15.543409
 30
0.0
 11
21.144440
 21
15.397394
 31
0.0
  0
LINE
  5
131
100
AcDbEntity
  8
0
 62
7
100
AcDbLine
 10
21.144440
 20
15.397394
 30
0.0
 11
21.202831
 21
15.249209
 31
0.0
  0
LINE
  5
132
100
AcDbEntity
  8
0
 62
7
100
AcDbLine
 10
21.202831
 20
15.249209
 30
0.0
 11
21.252338
 21
15.098988
 31
0.0
  0
LINE
  5
133
100
AcDbEntity
  8
0
 62
7
100
AcDbLine
 10
21.252338
 20
15.098988
 30
0.0
 11
21.292926
 21
14.946861
 31
0.0
  0
LINE
  5
134
100
AcDbEntity
  8
0
 62
7
100
AcDbLine
 10
21.292926
 20
14.946861
 30
0.0
 11
21.324557
 21
14.792962
 31
0.0
  0
LINE
  5
135
100
AcDbEntity
  8
0
 62
7
100
AcDbLine
 10
21.324557
 20
14.792962
 30
0.0
 11
21.347197
 21
14.637422
 31
0.0
  0
LINE
  5
136
100
AcDbEntity
  8
0
 62
7
100
AcDbLine
 10
21.347197
 20
14.637422
 30
0.0
 11
21.360806
 21
14.480375
 31
0.0
  0
LINE
  5
137
100
AcDbEntity
  8
0
 62
7
100
AcDbLine
 10
21.360806
 20
14.480375
 30
0.0
 11
21.365350
 21
14.321951
 31
0.0
  0
LINE
  5
138
100
AcDbEntity
  8
0
 62
7
100
AcDbLine
 10
21.365350
 20
14.321951
 30
0.0
 11
21.309101
 21
13.765708
 31
0.0
  0
LINE
  5
139
100
AcDbEntity
  8
0
 62
7
100
AcDbLine
 10
21.309101
 20
13.765708
 30
0.0
 11
21.147822
 21
13.247244
 31
0.0
  0
LINE
  5
13a
100
AcDbEntity
  8
0
 62
7
100
AcDbLine
 10
21.147822
 20
13.247244
 30
0.0
 11
20.892716
 21
12.777775
 31
0.0
  0
LINE
  5
13b
100
AcDbEntity
  8
0
 62
7
100
AcDbLine
 10
20.892716
 20
12.777775
 30
0.0
 11
20.554984
 21
12.368514
 31
0.0
  0
LINE
  5
13c
100
AcDbEntity
  8
0
 62
7
100
AcDbLine
 10
20.554984
 20
12.368514
 30
0.0
 11
20.145827
 21
12.030678
 31
0.0
  0
LINE
  5
13d
100
AcDbEntity
  8
0
 62
7
100
AcDbLine
 10
20.145827
 20
12.030678
 30
0.0
 11
19.676448
 21
11.775482
 31
0.0
  0
LINE
  5
13e
100
AcDbEntity
  8
0
 62
7
100
AcDbLine
 10
19.676448
 20
11.775482
 30
0.0
 11
19.158048
 21
11.614140
 31
0.0
  0
LINE
  5
13f
100
AcDbEntity
  8
0
 62
7
100
AcDbLine
 10
19.158048
 20
11.614140
 30
0.0
 11
18.601831
 21
11.557847
 31
0.0
  0
LINE
  5
140
100
AcDbEntity
  8
0
 62
7
100
AcDbLine
 10
18.601831
 20
11.557847
 30
0.0
 11
18.433909
 21
11.562790
 31
0.0
  0
LINE
  5
141
100
AcDbEntity
  8
0
 62
7
100
AcDbLine
 10
18.433909
 20
11.562790
 30
0.0
 11
18.268051
 21
11.577598
 31
0.0
  0
LINE
  5
142
100
AcDbEntity
  8
0
 62
7
100
AcDbLine
 10
18.268051
 20
11.577598
 30
0.0
 11
18.104388
 21
11.602242
 31
0.0
  0
LINE
  5
143
100
AcDbEntity
  8
0
 62
7
100
AcDbLine
 10
18.104388
 20
11.602242
 30
0.0
 11
17.943054
 21
11.636692
 31
0.0
  0
LINE
  5
144
100
AcDbEntity
  8
0
 62
7
100
AcDbLine
 10
17.943054
 20
11.636692
 30
0.0
 11
17.784181
 21
11.680919
 31
0.0
  0
LINE
  5
145
100
AcDbEntity
  8
0
 62
7
100
AcDbLine
 10
17.784181
 20
11.680919
 30
0.0
 11
17.627900
 21
11.734893
 31
0.0
  0
LINE
  5
146
100
AcDbEntity
  8
0
 62
7
100
AcDbLine
 10
17.627900
 20
11.734893
 30
0.0
 11
17.474345
 21
11.798583
 31
0.0
  0
LINE
  5
147
100
AcDbEntity
  8
0
 62
7
100
AcDbLine
 10
17.474345
 20
11.798583
 30
0.0
 11
17.323647
 21
11.871960
 31
0.0
  0
LINE
  5
148
100
AcDbEntity
  8
0
 62
7
100
AcDbLine
 10
17.323647
 20
11.871960
 30
0.0
 11
17.297118
 21
11.885930
 31
0.0
  0
LINE
  5
149
100
AcDbEntity
  8
0
 62
7
100
AcDbLine
 10
17.297118
 20
11.885930
 30
0.0
 11
17.270589
 21
11.899900
 31
0.0
  0
LINE
  5
14a
100
AcDbEntity
  8
0
 62
7
100
AcDbLine
 10
17.270589
 20
11.899900
 30
0.0
 11
17.244060
 21
11.913870
 31
0.0
  0
LINE
  5
14b
100
AcDbEntity
  8
0
 62
7
100
AcDbLine
 10
17.244060
 20
11.913870
 30
0.0
 11
17.217531
 21
11.927840
 31
0.0
  0
LINE
  5
14c
100
AcDbEntity
  8
0
 62
7
100
AcDbLine
 10
17.217531
 20
11.927840
 30
0.0
 11
17.191002
 21
11.941810
 31
0.0
  0
LINE
  5
14d
100
AcDbEntity
  8
0
 62
7
100
AcDbLine
 10
17.191002
 20
11.941810
 30
0.0
 11
17.164473
 21
11.955780
 31
0.0
  0
LINE
  5
14e
100
AcDbEntity
  8
0
 62
7
100
AcDbLine
 10
17.164473
 20
11.955780
 30
0.0
 11
17.137944
 21
11.969750
 31
0.0
  0
LINE
  5
14f
100
AcDbEntity
  8
0
 62
7
100
AcDbLine
 10
17.137944
 20
11.969750
 30
0.0
 11
17.111416
 21
11.983720
 31
0.0
  0
LINE
  5
150
100
AcDbEntity
  8
0
 62
7
100
AcDbLine
 10
17.111416
 20
11.983720
 30
0.0
 11
17.101360
 21
11.955498
 31
0.0
  0
LINE
  5
151
100
AcDbEntity
  8
0
 62
7
100
AcDbLine
 10
17.101360
 20
11.955498
 30
0.0
 11
17.091307
 21
11.927276
 31
0.0
  0
LINE
  5
152
100
AcDbEntity
  8
0
 62
7
100
AcDbLine
 10
17.091307
 20
11.927276
 30
0.0
 11
17.081254
 21
11.899053
 31
0.0
  0
LINE
  5
153
100
AcDbEntity
  8
0
 62
7
100
AcDbLine
 10
17.081254
 20
11.899053
 30
0.0
 11
17.071199
 21
11.870831
 31
0.0
  0
LINE
  5
154
100
AcDbEntity
  8
0
 62
7
100
AcDbLine
 10
17.071199
 20
11.870831
 30
0.0
 11
17.061146
 21
11.842609
 31
0.0
  0
LINE
  5
155
100
AcDbEntity
  8
0
 62
7
100
AcDbLine
 10
17.061146
 20
11.842609
 30
0.0
 11
17.051093
 21
11.814387
 31
0.0
  0
LINE
  5
156
100
AcDbEntity
  8
0
 62
7
100
AcDbLine
 10
17.051093
 20
11.814387
 30
0.0
 11
17.041041
 21
11.786164
 31
0.0
  0
LINE
  5
157
100
AcDbEntity
  8
0
 62
7
100
AcDbLine
 10
17.041041
 20
11.786164
 30
0.0
 11
17.030985
 21
11.757942
 31
0.0
  0
LINE
  5
158
100
AcDbEntity
  8
0
 62
7
100
AcDbLine
 10
17.030985
 20
11.757942
 30
0.0
 11
16.748022
 21
11.125222
 31
0.0
  0
LINE
  5
159
100
AcDbEntity
  8
0
 62
7
100
AcDbLine
 10
16.748022
 20
11.125222
 30
0.0
 11
16.376794
 21
10.553859
 31
0.0
  0
LINE
  5
15a
100
AcDbEntity
  8
0
 62
7
100
AcDbLine
 10
16.376794
 20
10.553859
 30
0.0
 11
15.927355
 21
10.050943
 31
0.0
  0
LINE
  5
15b
100
AcDbEntity
  8
0
 62
7
100
AcDbLine
 10
15.927355
 20
10.050943
 30
0.0
 11
15.409759
 21
9.623566
 31
0.0
  0
LINE
  5
15c
100
AcDbEntity
  8
0
 62
7
100
AcDbLine
 10
15.409759
 20
9.623566
 30
0.0
 11
14.834061
 21
9.278818
 31
0.0
  0
LINE
  5
15d
100
AcDbEntity
  8
0
 62
7
100
AcDbLine
 10
14.834061
 20
9.278818
 30
0.0
 11
14.210312
 21
9.023791
 31
0.0
  0
LINE
  5
15e
100
AcDbEntity
  8
0
 62
7
100
AcDbLine
 10
14.210312
 20
9.023791
 30
0.0
 11
13.548572
 21
8.865575
 31
0.0
  0
LINE
  5
15f
100
AcDbEntity
  8
0
 62
7
100
AcDbLine
 10
13.548572
 20
8.865575
 30
0.0
 11
12.858891
 21
8.811260
 31
0.0
  0
LINE
  5
160
100
AcDbEntity
  8
0
 62
7
100
AcDbLine
 10
12.858891
 20
8.811260
 30
0.0
 11
12.299281
 21
8.846391
 31
0.0
  0
LINE
  5
161
100
AcDbEntity
  8
0
 62
7
100
AcDbLine
 10
12.299281
 20
8.846391
 30
0.0
 11
11.755980
 21
8.949853
 31
0.0
  0
LINE
  5
162
100
AcDbEntity
  8
0
 62
7
100
AcDbLine
 10
11.755980
 20
8.949853
 30
0.0
 11
11.234288
 21
9.118754
 31
0.0
  0
LINE
  5
163
100
AcDbEntity
  8
0
 62
7
100
AcDbLine
 10
11.234288
 20
9.118754
 30
0.0
 11
10.739508
 21
9.350199
 31
0.0
  0
LINE
  5
164
100
AcDbEntity
  8
0
 62
7
100
AcDbLine
 10
10.739508
 20
9.350199
 30
0.0
 11
10.276941
 21
9.641294
 31
0.0
  0
LINE
  5
165
100
AcDbEntity
  8
0
 62
7
100
AcDbLine
 10
10.276941
 20
9.641294
 30
0.0
 11
9.851888
 21
9.989145
 31
0.0
  0
LINE
  5
166
100
AcDbEntity
  8
0
 62
7
100
AcDbLine
 10
9.851888
 20
9.989145
 30
0.0
 11
9.469652
 21
10.390859
 31
0.0
  0
LINE
  5
167
100
AcDbEntity
  8
0
 62
7
100
AcDbLine
 10
9.469652
 20
10.390859
 30
0.0
 11
9.135533
 21
10.843542
 31
0.0
  0
LINE
  5
168
100
AcDbEntity
  8
0
 62
7
100
AcDbLine
 10
9.135533
 20
10.843542
 30
0.0
 11
9.118036
 21
10.870706
 31
0.0
  0
LINE
  5
169
100
AcDbEntity
  8
0
 62
7
100
AcDbLine
 10
9.118036
 20
10.870706
 30
0.0
 11
9.100538
 21
10.897870
 31
0.0
  0
LINE
  5
16a
100
AcDbEntity
  8
0
 62
7
100
AcDbLine
 10
9.100538
 20
10.897870
 30
0.0
 11
9.083040
 21
10.925034
 31
0.0
  0
LINE
  5
16b
100
AcDbEntity
  8
0
 62
7
100
AcDbLine
 10
9.083040
 20
10.925034
 30
0.0
 11
9.065542
 21
10.952198
 31
0.0
  0
LINE
  5
16c
100
AcDbEntity
  8
0
 62
7
100
AcDbLine
 10
9.065542
 20
10.952198
 30
0.0
 11
9.048044
 21
10.979362
 31
0.0
  0
LINE
  5
16d
100
AcDbEntity
  8
0
 62
7
100
AcDbLine
 10
9.048044
 20
10.979362
 30
0.0
 11
9.030547
 21
11.006526
 31
0.0
  0
LINE
  5
16e
100
AcDbEntity
  8
0
 62
7
100
AcDbLine
 10
9.030547
 20
11.006526
 30
0.0
 11
9.013049
 21
11.033689
 31
0.0
  0
LINE
  5
16f
100
AcDbEntity
  8
0
 62
7
100
AcDbLine
 10
9.013049
 20
11.033689
 30
0.0
 11
8.995551
 21
11.060853
 31
0.0
  0
LINE
  5
170
100
AcDbEntity
  8
0
 62
7
100
AcDbLine
 10
8.995551
 20
11.060853
 30
0.0
 11
8.972762
 21
11.037993
 31
0.0
  0
LINE
  5
171
100
AcDbEntity
  8
0
 62
7
100
AcDbLine
 10
8.972762
 20
11.037993
 30
0.0
 11
8.949972
 21
11.015133
 31
0.0
  0
LINE
  5
172
100
AcDbEntity
  8
0
 62
7
100
AcDbLine
 10
8.949972
 20
11.015133
 30
0.0
 11
8.927183
 21
10.992273
 31
0.0
  0
LINE
  5
173
100
AcDbEntity
  8
0
 62
7
100
AcDbLine
 10
8.927183
 20
10.992273
 30
0.0
 11
8.904393
 21
10.969413
 31
0.0
  0
LINE
  5
174
100
AcDbEntity
  8
0
 62
7
100
AcDbLine
 10
8.904393
 20
10.969413
 30
0.0
 11
8.881604
 21
10.946553
 31
0.0
  0
LINE
  5
175
100
AcDbEntity
  8
0
 62
7
100
AcDbLine
 10
8.881604
 20
10.946553
 30
0.0
 11
8.858814
 21
10.923693
 31
0.0
  0
LINE
  5
176
100
AcDbEntity
  8
0
 62
7
100
AcDbLine
 10
8.858814
 20
10.923693
 30
0.0
 11
8.836025
 21
10.900833
 31
0.0
  0
LINE
  5
177
100
AcDbEntity
  8
0
 62
7
100
AcDbLine
 10
8.836025
 20
10.900833
 30
0.0
 11
8.813236
 21
10.877973
 31
0.0
  0
LINE
  5
178
100
AcDbEntity
  8
0
 62
7
100
AcDbLine
 10
8.813236
 20
10.877973
 30
0.0
 11
8.609677
 21
10.692554
 31
0.0
  0
LINE
  5
179
100
AcDbEntity
  8
0
 62
7
100
AcDbLine
 10
8.609677
 20
10.692554
 30
0.0
 11
8.391375
 21
10.529786
 31
0.0
  0
LINE
  5
17a
100
AcDbEntity
  8
0
 62
7
100
AcDbLine
 10
8.391375
 20
10.529786
 30
0.0
 11
8.159830
 21
10.390308
 31
0.0
  0
LINE
  5
17b
100
AcDbEntity
  8
0
 62
7
100
AcDbLine
 10
8.159830
 20
10.390308
 30
0.0
 11
7.916545
 21
10.274759
 31
0.0
  0
LINE
  5
17c
100
AcDbEntity
  8
0
 62
7
100
AcDbLine
 10
7.916545
 20
10.274759
 30
0.0
 11
7.663020
 21
10.183776
 31
0.0
  0
LINE
  5
17d
100
AcDbEntity
  8
0
 62
7
100
AcDbLine
 10
7.663020
 20
10.183776
 30
0.0
 11
7.400757
 21
10.117997
 31
0.0
  0
LINE
  5
17e
100
AcDbEntity
  8
0
 62
7
100
AcDbLine
 10
7.400757
 20
10.117997
 30
0.0
 11
7.131258
 21
10.078062
 31
0.0
  0
LINE
  5
17f
100
AcDbEntity
  8
0
 62
7
100
AcDbLine
 10
7.131258
 20
10.078062
 30
0.0
 11
6.856024
 21
10.064609
 31
0.0
  0
LINE
  5
180
100
AcDbEntity
  8
0
 62
7
100
AcDbLine
 10
6.856024
 20
10.064609
 30
0.0
 11
6.299806
 21
10.120870
 31
0.0
  0
LINE
  5
181
100
AcDbEntity
  8
0
 62
7
100
AcDbLine
 10
6.299806
 20
10.120870
 30
0.0
 11
5.781406
 21
10.282184
 31
0.0
  0
LINE
  5
182
100
AcDbEntity
  8
0
 62
7
100
AcDbLine
 10
5.781406
 20
10.282184
 30
0.0
 11
5.312027
 21
10.537347
 31
0.0
  0
LINE
  5
183
100
AcDbEntity
  8
0
 62
7
100
AcDbLine
 10
5.312027
 20
10.537347
 30
0.0
 11
4.902870
 21
10.875151
 31
0.0
  0
LINE
  5
184
100
AcDbEntity
  8
0
 62
7
100
AcDbLine
 10
4.902870
 20
10.875151
 30
0.0
 11
4.565138
 21
11.284393
 31
0.0
  0
LINE
  5
185
100
AcDbEntity
  8
0
 62
7
100
AcDbLine
 10
4.565138
 20
11.284393
 30
0.0
 11
4.310032
 21
11.753867
 31
0.0
  0
LINE
  5
186
100
AcDbEntity
  8
0
 62
7
100
AcDbLine
 10
4.310032
 20
11.753867
 30
0.0
 11
4.148753
 21
12.272369
 31
0.0
  0
LINE
  5
187
100
AcDbEntity
  8
0
 62
7
100
AcDbLine
 10
4.148753
 20
12.272369
 30
0.0
 11
4.092504
 21
12.828693
 31
0.0
  0
LINE
  5
188
100
AcDbEntity
  8
0
 62
7
100
AcDbLine
 10
4.092504
 20
12.828693
 30
0.0
 11
4.092668
 21
12.845215
 31
0.0
  0
LINE
  5
189
100
AcDbEntity
  8
0
 62
7
100
AcDbLine
 10
4.092668
 20
12.845215
 30
0.0
 11
4.093120
 21
12.861750
 31
0.0
  0
LINE
  5
18a
100
AcDbEntity
  8
0
 62
7
100
AcDbLine
 10
4.093120
 20
12.861750
 30
0.0
 11
4.093825
 21
12.878285
 31
0.0
  0
LINE
  5
18b
100
AcDbEntity
  8
0
 62
7
100
AcDbLine
 10
4.093825
 20
12.878285
 30
0.0
 11
4.094728
 21
12.894807
 31
0.0
  0
LINE
  5
18c
100
AcDbEntity
  8
0
 62
7
100
AcDbLine
 10
4.094728
 20
12.894807
 30
0.0
 11
4.095773
 21
12.911300
 31
0.0
  0
LINE
  5
18d
100
AcDbEntity
  8
0
 62
7
100
AcDbLine
 10
4.095773
 20
12.911300
 30
0.0
 11
4.096901
 21
12.927756
 31
0.0
  0
LINE
  5
18e
100
AcDbEntity
  8
0
 62
7
100
AcDbLine
 10
4.096901
 20
12.927756
 30
0.0
 11
4.098087
 21
12.944159
 31
0.0
  0
LINE
  5
18f
100
AcDbEntity
  8
0
 62
7
100
AcDbLine
 10
4.098087
 20
12.944159
 30
0.0
 11
4.099278
 21
12.960491
 31
0.0
  0
LINE
  5
190
100
AcDbEntity
  8
0
 62
7
100
AcDbLine
 10
4.099278
 20
12.960491
 30
0.0
 11
4.101253
 21
12.988749
 31
0.0
  0
LINE
  5
191
100
AcDbEntity
  8
0
 62
7
100
AcDbLine
 10
4.101253
 20
12.988749
 30
0.0
 11
4.103229
 21
13.017006
 31
0.0
  0
LINE
  5
192
100
AcDbEntity
  8
0
 62
7
100
AcDbLine
 10
4.103229
 20
13.017006
 30
0.0
 11
4.105204
 21
13.045264
 31
0.0
  0
LINE
  5
193
100
AcDbEntity
  8
0
 62
7
100
AcDbLine
 10
4.105204
 20
13.045264
 30
0.0
 11
4.107180
 21
13.073521
 31
0.0
  0
LINE
  5
194
100
AcDbEntity
  8
0
 62
7
100
AcDbLine
 10
4.107180
 20
13.073521
 30
0.0
 11
4.109156
 21
13.101779
 31
0.0
  0
LINE
  5
195
100
AcDbEntity
  8
0
 62
7
100
AcDbLine
 10
4.109156
 20
13.101779
 30
0.0
 11
4.111131
 21
13.130036
 31
0.0
  0
LINE
  5
196
100
AcDbEntity
  8
0
 62
7
100
AcDbLine
 10
4.111131
 20
13.130036
 30
0.0
 11
4.113107
 21
13.158294
 31
0.0
  0
LINE
  5
197
100
AcDbEntity
  8
0
 62
7
100
AcDbLine
 10
4.113107
 20
13.158294
 30
0.0
 11
4.115082
 21
13.186551
 31
0.0
  0
LINE
  5
198
100
AcDbEntity
  8
0
 62
7
100
AcDbLine
 10
4.115082
 20
13.186551
 30
0.0
 11
4.092328
 21
13.190855
 31
0.0
  0
LINE
  5
199
100
AcDbEntity
  8
0
 62
7
100
AcDbLine
 10
4.092328
 20
13.190855
 30
0.0
 11
4.069574
 21
13.195159
 31
0.0
  0
LINE
  5
19a
100
AcDbEntity
  8
0
 62
7
100
AcDbLine
 10
4.069574
 20
13.195159
 30
0.0
 11
4.046820
 21
13.199463
 31
0.0
  0
LINE
  5
19b
100
AcDbEntity
  8
0
 62
7
100
AcDbLine
 10
4.046820
 20
13.199463
 30
0.0
 11
4.024066
 21
13.203767
 31
0.0
  0
LINE
  5
19c
100
AcDbEntity
  8
0
 62
7
100
AcDbLine
 10
4.024066
 20
13.203767
 30
0.0
 11
4.001311
 21
13.208071
 31
0.0
  0
LINE
  5
19d
100
AcDbEntity
  8
0
 62
7
100
AcDbLine
 10
4.001311
 20
13.208071
 30
0.0
 11
3.978557
 21
13.212374
 31
0.0
  0
LINE
  5
19e
100
AcDbEntity
  8
0
 62
7
100
AcDbLine
 10
3.978557
 20
13.212374
 30
0.0
 11
3.955803
 21
13.216678
 31
0.0
  0
LINE
  5
19f
100
AcDbEntity
  8
0
 62
7
100
AcDbLine
 10
3.955803
 20
13.216678
 30
0.0
 11
3.933049
 21
13.220982
 31
0.0
  0
LINE
  5
1a0
100
AcDbEntity
  8
0
 62
7
100
AcDbLine
 10
3.933049
 20
13.220982
 30
0.0
 11
3.197028
 21
13.428365
 31
0.0
  0
LINE
  5
1a1
100
AcDbEntity
  8
0
 62
7
100
AcDbLine
 10
3.197028
 20
13.428365
 30
0.0
 11
2.524174
 21
13.753976
 31
0.0
  0
LINE
  5
1a2
100
AcDbEntity
  8
0
 62
7
100
AcDbLine
 10
2.524174
 20
13.753976
 30
0.0
 11
1.925263
 21
14.184813
 31
0.0
  0
LINE
  5
1a3
100
AcDbEntity
  8
0
 62
7
100
AcDbLine
 10
1.925263
 20
14.184813
 30
0.0
 11
1.411076
 21
14.707870
 31
0.0
  0
LINE
  5
1a4
100
AcDbEntity
  8
0
 62
7
100
AcDbLine
 10
1.411076
 20
14.707870
 30
0.0
 11
0.992390
 21
15.310143
 31
0.0
  0
LINE
  5
1a5
100
AcDbEntity
  8
0
 62
7
100
AcDbLine
 10
0.992390
 20
15.310143
 30
0.0
 11
0.679984
 21
15.978628
 31
0.0
  0
LINE
  5
1a6
100
AcDbEntity
  8
0
 62
7
100
AcDbLine
 10
0.679984
 20
15.978628
 30
0.0
 11
0.484636
 21
16.700321
 31
0.0
  0
LINE
  5
1a7
100
AcDbEntity
  8
0
 62
7
100
AcDbLine
 10
0.484636
 20
16.700321
 30
0.0
 11
0.417124
 21
17.462218
 31
0.0
  0
LINE
  5
1a8
100
AcDbEntity
  8
0
 62
7
100
AcDbLine
 10
0.417124
 20
17.462218
 30
0.0
 11
0.463942
 21
18.096878
 31
0.0
  0
LINE
  5
1a9
100
AcDbEntity
  8
0
 62
7
100
AcDbLine
 10
0.463942
 20
18.096878
 30
0.0
 11
0.600798
 21
18.708017
 31
0.0
  0
LINE
  5
1aa
100
AcDbEntity
  8
0
 62
7
100
AcDbLine
 10
0.600798
 20
18.708017
 30
0.0
 11
0.822294
 21
19.287406
 31
0.0
  0
LINE
  5
1ab
100
AcDbEntity
  8
0
 62
7
100
AcDbLine
 10
0.822294
 20
19.287406
 30
0.0
 11
1.123033
 21
19.826817
 31
0.0
  0
LINE
  5
1ac
100
AcDbEntity
  8
0
 62
7
100
AcDbLine
 10
1.123033
 20
19.826817
 30
0.0
 11
1.497617
 21
20.318020
 31
0.0
  0
LINE
  5
1ad
100
AcDbEntity
  8
0
 62
7
100
AcDbLine
 10
1.497617
 20
20.318020
 30
0.0
 11
1.940648
 21
20.752788
 31
0.0
  0
LINE
  5
1ae
100
AcDbEntity
  8
0
 62
7
100
AcDbLine
 10
1.940648
 20
20.752788
 30
0.0
 11
2.446730
 21
21.122891
 31
0.0
  0
LINE
  5
1af
100
AcDbEntity
  8
0
 62
7
100
AcDbLine
 10
2.446730
 20
21.122891
 30
0.0
 11
3.010464
 21
21.420102
 31
0.0
  0
LINE
  5
1b0
100
AcDbEntity
  8
0
 62
7
100
AcDbLine
 10
3.010464
 20
21.420102
 30
0.0
 11
3.030324
 21
21.428781
 31
0.0
  0
LINE
  5
1b1
100
AcDbEntity
  8
0
 62
7
100
AcDbLine
 10
3.030324
 20
21.428781
 30
0.0
 11
3.050187
 21
21.437459
 31
0.0
  0
LINE
  5
1b2
100
AcDbEntity
  8
0
 62
7
100
AcDbLine
 10
3.050187
 20
21.437459
 30
0.0
 11
3.070047
 21
21.446137
 31
0.0
  0
LINE
  5
1b3
100
AcDbEntity
  8
0
 62
7
100
AcDbLine
 10
3.070047
 20
21.446137
 30
0.0
 11
3.089910
 21
21.454816
 31
0.0
  0
LINE
  5
1b4
100
AcDbEntity
  8
0
 62
7
100
AcDbLine
 10
3.089910
 20
21.454816
 30
0.0
 11
3.109770
 21
21.463494
 31
0.0
  0
LINE
  5
1b5
100
AcDbEntity
  8
0
 62
7
100
AcDbLine
 10
3.109770
 20
21.463494
 30
0.0
 11
3.129633
 21
21.472172
 31
0.0
  0
LINE
  5
1b6
100
AcDbEntity
  8
0
 62
7
100
AcDbLine
 10
3.129633
 20
21.472172
 30
0.0
 11
3.149493
 21
21.480851
 31
0.0
  0
LINE
  5
1b7
100
AcDbEntity
  8
0
 62
7
100
AcDbLine
 10
3.149493
 20
21.480851
 30
0.0
 11
3.169356
 21
21.489529
 31
0.0
  0
LINE
  5
1b8
100
AcDbEntity
  8
0
 62
7
100
AcDbLine
 10
3.169356
 20
21.489529
 30
0.0
 11
3.164417
 21
21.510625
 31
0.0
  0
LINE
  5
1b9
100
AcDbEntity
  8
0
 62
7
100
AcDbLine
 10
3.164417
 20
21.510625
 30
0.0
 11
3.159478
 21
21.531721
 31
0.0
  0
LINE
  5
1ba
100
AcDbEntity
  8
0
 62
7
100
AcDbLine
 10
3.159478
 20
21.531721
 30
0.0
 11
3.154539
 21
21.552817
 31
0.0
  0
LINE
  5
1bb
100
AcDbEntity
  8
0
 62
7
100
AcDbLine
 10
3.154539
 20
21.552817
 30
0.0
 11
3.149600
 21
21.573913
 31
0.0
  0
LINE
  5
1bc
100
AcDbEntity
  8
0
 62
7
100
AcDbLine
 10
3.149600
 20
21.573913
 30
0.0
 11
3.144661
 21
21.595009
 31
0.0
  0
LINE
  5
1bd
100
AcDbEntity
  8
0
 62
7
100
AcDbLine
 10
3.144661
 20
21.595009
 30
0.0
 11
3.139722
 21
21.616106
 31
0.0
  0
LINE
  5
1be
100
AcDbEntity
  8
0
 62
7
100
AcDbLine
 10
3.139722
 20
21.616106
 30
0.0
 11
3.134783
 21
21.637202
 31
0.0
  0
LINE
  5
1bf
100
AcDbEntity
  8
0
 62
7
100
AcDbLine
 10
3.134783
 20
21.637202
 30
0.0
 11
3.129844
 21
21.658298
 31
0.0
  0
LINE
  5
1c0
100
AcDbEntity
  8
0
 62
7
100
AcDbLine
 10
3.129844
 20
21.658298
 30
0.0
 11
3.100662
 21
21.790954
 31
0.0
  0
LINE
  5
1c1
100
AcDbEntity
  8
0
 62
7
100
AcDbLine
 10
3.100662
 20
21.790954
 30
0.0
 11
3.075350
 21
21.923203
 31
0.0
  0
LINE
  5
1c2
100
AcDbEntity
  8
0
 62
7
100
AcDbLine
 10
3.075350
 20
21.923203
 30
0.0
 11
3.053912
 21
22.054930
 31
0.0
  0
LINE
  5
1c3
100
AcDbEntity
  8
0
 62
7
100
AcDbLine
 10
3.053912
 20
22.054930
 30
0.0
 11
3.036358
 21
22.186018
 31
0.0
  0
LINE
  5
1c4
100
AcDbEntity
  8
0
 62
7
100
AcDbLine
 10
3.036358
 20
22.186018
 30
0.0
 11
3.022693
 21
22.316352
 31
0.0
  0
LINE
  5
1c5
100
AcDbEntity
  8
0
 62
7
100
AcDbLine
 10
3.022693
 20
22.316352
 30
0.0
 11
3.012925
 21
22.445817
 31
0.0
  0
LINE
  5
1c6
100
AcDbEntity
  8
0
 62
7
100
AcDbLine
 10
3.012925
 20
22.445817
 30
0.0
 11
3.007057
 21
22.574296
 31
0.0
  0
LINE
  5
1c7
100
AcDbEntity
  8
0
 62
7
100
AcDbLine
 10
3.007057
 20
22.574296
 30
0.0
 11
3.005102
 21
22.701673
 31
0.0
  0
LINE
  5
1c8
100
AcDbEntity
  8
0
 62
7
100
AcDbLine
 10
3.005102
 20
22.701673
 30
0.0
 11
3.097152
 21
23.611973
 31
0.0
  0
LINE
  5
1c9
100
AcDbEntity
  8
0
 62
7
100
AcDbLine
 10
3.097152
 20
23.611973
 30
0.0
 11
3.361086
 21
24.460368
 31
0.0
  0
LINE
  5
1ca
100
AcDbEntity
  8
0
 62
7
100
AcDbLine
 10
3.361086
 20
24.460368
 30
0.0
 11
3.778577
 21
25.228527
 31
0.0
  0
LINE
  5
1cb
100
AcDbEntity
  8
0
 62
7
100
AcDbLine
 10
3.778577
 20
25.228527
 30
0.0
 11
4.331300
 21
25.898122
 31
0.0
  0
LINE
  5
1cc
100
AcDbEntity
  8
0
 62
7
100
AcDbLine
 10
4.331300
 20
25.898122
 30
0.0
 11
5.000929
 21
26.450825
 31
0.0
  0
LINE
  5
1cd
100
AcDbEntity
  8
0
 62
7
100
AcDbLine
 10
5.000929
 20
26.450825
 30
0.0
 11
5.769138
 21
26.868305
 31
0.0
  0
LINE
  5
1ce
100
AcDbEntity
  8
0
 62
7
100
AcDbLine
 10
5.769138
 20
26.868305
 30
0.0
 11
6.617602
 21
27.132235
 31
0.0
  0
LINE
  5
1cf
100
AcDbEntity
  8
0
 62
7
100
AcDbLine
 10
6.617602
 20
27.132235
 30
0.0
 11
7.527996
 21
27.224284
 31
0.0
  0
LINE
  5
1d0
100
AcDbEntity
  8
0
 62
7
100
AcDbLine
 10
7.527996
 20
27.224284
 30
0.0
 11
7.982997
 21
27.201809
 31
0.0
  0
LINE
  5
1d1
100
AcDbEntity
  8
0
 62
7
100
AcDbLine
 10
7.982997
 20
27.201809
 30
0.0
 11
8.428350
 21
27.135076
 31
0.0
  0
LINE
  5
1d2
100
AcDbEntity
  8
0
 62
7
100
AcDbLine
 10
8.428350
 20
27.135076
 30
0.0
 11
8.861580
 21
27.025123
 31
0.0
  0
LINE
  5
1d3
100
AcDbEntity
  8
0
 62
7
100
AcDbLine
 10
8.861580
 20
27.025123
 30
0.0
 11
9.280207
 21
26.872988
 31
0.0
  0
LINE
  5
1d4
100
AcDbEntity
  8
0
 62
7
100
AcDbLine
 10
9.280207
 20
26.872988
 30
0.0
 11
9.681756
 21
26.679711
 31
0.0
  0
LINE
  5
1d5
100
AcDbEntity
  8
0
 62
7
100
AcDbLine
 10
9.681756
 20
26.679711
 30
0.0
 11
10.063749
 21
26.446330
 31
0.0
  0
LINE
  5
1d6
100
AcDbEntity
  8
0
 62
7
100
AcDbLine
 10
10.063749
 20
26.446330
 30
0.0
 11
10.423708
 21
26.173883
 31
0.0
  0
LINE
  5
1d7
100
AcDbEntity
  8
0
 62
7
100
AcDbLine
 10
10.423708
 20
26.173883
 30
0.0
 11
10.759158
 21
25.863409
 31
0.0
  0
LINE
  5
1d8
100
AcDbEntity
  8
0
 62
7
100
AcDbLine
 10
10.759158
 20
25.863409
 30
0.0
 11
10.782018
 21
25.840021
 31
0.0
  0
LINE
  5
1d9
100
AcDbEntity
  8
0
 62
7
100
AcDbLine
 10
10.782018
 20
25.840021
 30
0.0
 11
10.804878
 21
25.816633
 31
0.0
  0
LINE
  5
1da
100
AcDbEntity
  8
0
 62
7
100
AcDbLine
 10
10.804878
 20
25.816633
 30
0.0
 11
10.827738
 21
25.793246
 31
0.0
  0
LINE
  5
1db
100
AcDbEntity
  8
0
 62
7
100
AcDbLine
 10
10.827738
 20
25.793246
 30
0.0
 11
10.850598
 21
25.769855
 31
0.0
  0
LINE
  5
1dc
100
AcDbEntity
  8
0
 62
7
100
AcDbLine
 10
10.850598
 20
25.769855
 30
0.0
 11
10.873458
 21
25.746467
 31
0.0
  0
LINE
  5
1dd
100
AcDbEntity
  8
0
 62
7
100
AcDbLine
 10
10.873458
 20
25.746467
 30
0.0
 11
10.896318
 21
25.723080
 31
0.0
  0
LINE
  5
1de
100
AcDbEntity
  8
0
 62
7
100
AcDbLine
 10
10.896318
 20
25.723080
 30
0.0
 11
10.919178
 21
25.699692
 31
0.0
  0
LINE
  5
1df
100
AcDbEntity
  8
0
 62
7
100
AcDbLine
 10
10.919178
 20
25.699692
 30
0.0
 11
10.942038
 21
25.676301
 31
0.0
  0
LINE
  5
1e0
100
AcDbEntity
  8
0
 62
7
100
AcDbLine
 10
10.942038
 20
25.676301
 30
0.0
 11
10.959677
 21
25.703888
 31
0.0
  0
LINE
  5
1e1
100
AcDbEntity
  8
0
 62
7
100
AcDbLine
 10
10.959677
 20
25.703888
 30
0.0
 11
10.977316
 21
25.731470
 31
0.0
  0
LINE
  5
1e2
100
AcDbEntity
  8
0
 62
7
100
AcDbLine
 10
10.977316
 20
25.731470
 30
0.0
 11
10.994954
 21
25.759057
 31
0.0
  0
LINE
  5
1e3
100
AcDbEntity
  8
0
 62
7
100
AcDbLine
 10
10.994954
 20
25.759057
 30
0.0
 11
11.012593
 21
25.786644
 31
0.0
  0
LINE
  5
1e4
100
AcDbEntity
  8
0
 62
7
100
AcDbLine
 10
11.012593
 20
25.786644
 30
0.0
 11
11.030232
 21
25.814232
 31
0.0
  0
LINE
  5
1e5
100
AcDbEntity
  8
0
 62
7
100
AcDbLine
 10
11.030232
 20
25.814232
 30
0.0
 11
11.047871
 21
25.841819
 31
0.0
  0
LINE
  5
1e6
100
AcDbEntity
  8
0
 62
7
100
AcDbLine
 10
11.047871
 20
25.841819
 30
0.0
 11
11.065510
 21
25.869406
 31
0.0
  0
LINE
  5
1e7
100
AcDbEntity
  8
0
 62
7
100
AcDbLine
 10
11.065510
 20
25.869406
 30
0.0
 11
11.083149
 21
25.896993
 31
0.0
  0
LINE
  5
1e8
100
AcDbEntity
  8
0
 62
7
100
AcDbLine
 10
11.083149
 20
25.896993
 30
0.0
 11
11.393922
 21
26.322361
 31
0.0
  0
LINE
  5
1e9
100
AcDbEntity
  8
0
 62
7
100
AcDbLine
 10
11.393922
 20
26.322361
 30
0.0
 11
11.749952
 21
26.699823
 31
0.0
  0
LINE
  5
1ea
100
AcDbEntity
  8
0
 62
7
100
AcDbLine
 10
11.749952
 20
26.699823
 30
0.0
 11
12.146278
 21
27.026663
 31
0.0
  0
LINE
  5
1eb
100
AcDbEntity
  8
0
 62
7
100
AcDbLine
 10
12.146278
 20
27.026663
 30
0.0
 11
12.577939
 21
27.300167
 31
0.0
  0
LINE
  5
1ec
100
AcDbEntity
  8
0
 62
7
100
AcDbLine
 10
12.577939
 20
27.300167
 30
0.0
 11
13.039974
 21
27.517619
 31
0.0
  0
LINE
  5
1ed
100
AcDbEntity
  8
0
 62
7
100
AcDbLine
 10
13.039974
 20
27.517619
 30
0.0
 11
13.527423
 21
27.676303
 31
0.0
  0
LINE
  5
1ee
100
AcDbEntity
  8
0
 62
7
100
AcDbLine
 10
13.527423
 20
27.676303
 30
0.0
 11
14.035323
 21
27.773505
 31
0.0
  0
LINE
  5
1ef
100
AcDbEntity
  8
0
 62
7
100
AcDbLine
 10
14.035323
 20
27.773505
 30
0.0
 11
14.558716
 21
27.806509
 31
0.0
  0
LINE
  5
1f0
100
AcDbEntity
  8
0
 62
7
100
AcDbLine
 10
14.558716
 20
27.806509
 30
0.0
 11
15.289723
 21
27.741678
 31
0.0
  0
LINE
  5
1f1
100
AcDbEntity
  8
0
 62
7
100
AcDbLine
 10
15.289723
 20
27.741678
 30
0.0
 11
15.981565
 21
27.554088
 31
0.0
  0
LINE
  5
1f2
100
AcDbEntity
  8
0
 62
7
100
AcDbLine
 10
15.981565
 20
27.554088
 30
0.0
 11
16.621801
 21
27.254089
 31
0.0
  0
LINE
  5
1f3
100
AcDbEntity
  8
0
 62
7
100
AcDbLine
 10
16.621801
 20
27.254089
 30
0.0
 11
17.197987
 21
26.852033
 31
0.0
  0
LINE
  5
1f4
100
AcDbEntity
  8
0
 62
7
100
AcDbLine
 10
17.197987
 20
26.852033
 30
0.0
 11
17.697683
 21
26.358273
 31
0.0
  0
LINE
  5
1f5
100
AcDbEntity
  8
0
 62
7
100
AcDbLine
 10
17.697683
 20
26.358273
 30
0.0
 11
18.108445
 21
25.783161
 31
0.0
  0
LINE
  5
1f6
100
AcDbEntity
  8
0
 62
7
100
AcDbLine
 10
18.108445
 20
25.783161
 30
0.0
 11
18.417832
 21
25.137047
 31
0.0
  0
LINE
  5
1f7
100
AcDbEntity
  8
0
 62
7
100
AcDbLine
 10
18.417832
 20
25.137047
 30
0.0
 11
18.613402
 21
24.430284
 31
0.0
  0
LINE
  5
1f8
100
AcDbEntity
  8
0
 62
7
100
AcDbLine
 10
18.613402
 20
24.430284
 30
0.0
 11
18.617777
 21
24.406403
 31
0.0
  0
LINE
  5
1f9
100
AcDbEntity
  8
0
 62
7
100
AcDbLine
 10
18.617777
 20
24.406403
 30
0.0
 11
18.622151
 21
24.382518
 31
0.0
  0
LINE
  5
1fa
100
AcDbEntity
  8
0
 62
7
100
AcDbLine
 10
18.622151
 20
24.382518
 30
0.0
 11
18.626526
 21
24.358637
 31
0.0
  0
LINE
  5
1fb
100
AcDbEntity
  8
0
 62
7
100
AcDbLine
 10
18.626526
 20
24.358637
 30
0.0
 11
18.630900
 21
24.334755
 31
0.0
  0
LINE
  5
1fc
100
AcDbEntity
  8
0
 62
7
100
AcDbLine
 10
18.630900
 20
24.334755
 30
0.0
 11
18.635274
 21
24.310873
 31
0.0
  0
LINE
  5
1fd
100
AcDbEntity
  8
0
 62
7
100
AcDbLine
 10
18.635274
 20
24.310873
 30
0.0
 11
18.639649
 21
24.286989
 31
0.0
  0
LINE
  5
1fe
100
AcDbEntity
  8
0
 62
7
100
AcDbLine
 10
18.639649
 20
24.286989
 30
0.0
 11
18.644023
 21
24.263107
 31
0.0
  0
LINE
  5
1ff
100
AcDbEntity
  8
0
 62
7
100
AcDbLine
 10
18.644023
 20
24.263107
 30
0.0
 11
18.648398
 21
24.239226
 31
0.0
  0
LINE
  5
200
100
AcDbEntity
  8
0
 62
7
100
AcDbLine
 10
18.648398
 20
24.239226
 30
0.0
 11
18.672562
 21
24.241935
 31
0.0
  0
LINE
  5
201
100
AcDbEntity
  8
0
 62
7
100
AcDbLine
 10
18.672562
 20
24.241935
 30
0.0
 11
18.696728
 21
24.244644
 31
0.0
  0
LINE
  5
202
100
AcDbEntity
  8
0
 62
7
100
AcDbLine
 10
18.696728
 20
24.244644
 30
0.0
 11
18.720892
 21
24.247354
 31
0.0
  0
LINE
  5
203
100
AcDbEntity
  8
0
 62
7
100
AcDbLine
 10
18.720892
 20
24.247354
 30
0.0
 11
18.745059
 21
24.250063
 31
0.0
  0
LINE
  5
204
100
AcDbEntity
  8
0
 62
7
100
AcDbLine
 10
18.745059
 20
24.250063
 30
0.0
 11
18.769223
 21
24.252772
 31
0.0
  0
LINE
  5
205
100
AcDbEntity
  8
0
 62
7
100
AcDbLine
 10
18.769223
 20
24.252772
 30
0.0
 11
18.793389
 21
24.255482
 31
0.0
  0
LINE
  5
206
100
AcDbEntity
  8
0
 62
7
100
AcDbLine
 10
18.793389
 20
24.255482
 30
0.0
 11
18.817553
 21
24.258191
 31
0.0
  0
LINE
  5
207
100
AcDbEntity
  8
0
 62
7
100
AcDbLine
 10
18.817553
 20
24.258191
 30
0.0
 11
18.841720
 21
24.260900
 31
0.0
  0
LINE
  5
208
100
AcDbEntity
  8
0
 62
7
100
AcDbLine
 10
18.841720
 20
24.260900
 30
0.0
 11
18.909352
 21
24.268125
 31
0.0
  0
LINE
  5
209
100
AcDbEntity
  8
0
 62
7
100
AcDbLine
 10
18.909352
 20
24.268125
 30
0.0
 11
18.975370
 21
24.274354
 31
0.0
  0
LINE
  5
20a
100
AcDbEntity
  8
0
 62
7
100
AcDbLine
 10
18.975370
 20
24.274354
 30
0.0
 11
19.039880
 21
24.279598
 31
0.0
  0
LINE
  5
20b
100
AcDbEntity
  8
0
 62
7
100
AcDbLine
 10
19.039880
 20
24.279598
 30
0.0
 11
19.102987
 21
24.283865
 31
0.0
  0
LINE
  5
20c
100
AcDbEntity
  8
0
 62
7
100
AcDbLine
 10
19.102987
 20
24.283865
 30
0.0
 11
19.164798
 21
24.287167
 31
0.0
  0
LINE
  5
20d
100
AcDbEntity
  8
0
 62
7
100
AcDbLine
 10
19.164798
 20
24.287167
 30
0.0
 11
19.225419
 21
24.289509
 31
0.0
  0
LINE
  5
20e
100
AcDbEntity
  8
0
 62
7
100
AcDbLine
 10
19.225419
 20
24.289509
 30
0.0
 11
19.284955
 21
24.290920
 31
0.0
  0
LINE
  5
20f
100
AcDbEntity
  8
0
 62
7
100
AcDbLine
 10
19.284955
 20
24.290920
 30
0.0
 11
19.343511
 21
24.291372
 31
0.0
  0
LINE
  5
210
100
AcDbEntity
  8
0
 62
7
100
AcDbLine
 10
19.343511
 20
24.291372
 30
0.0
 11
20.235998
 21
24.201141
 31
0.0
  0
LINE
  5
211
100
AcDbEntity
  8
0
 62
7
100
AcDbLine
 10
20.235998
 20
24.201141
 30
0.0
 11
21.067805
 21
23.942426
 31
0.0
  0
LINE
  5
212
100
AcDbEntity
  8
0
 62
7
100
AcDbLine
 10
21.067805
 20
23.942426
 30
0.0
 11
21.820959
 21
23.533197
 31
0.0
  0
LINE
  5
213
100
AcDbEntity
  8
0
 62
7
100
AcDbLine
 10
21.820959
 20
23.533197
 30
0.0
 11
22.477483
 21
22.991421
 31
0.0
  0
LINE
  5
214
100
AcDbEntity
  8
0
 62
7
100
AcDbLine
 10
22.477483
 20
22.991421
 30
0.0
 11
23.019403
 21
22.335068
 31
0.0
  0
LINE
  5
215
100
AcDbEntity
  8
0
 62
7
100
AcDbLine
 10
23.019403
 20
22.335068
 30
0.0
 11
23.428744
 21
21.582105
 31
0.0
  0
LINE
  5
216
100
AcDbEntity
  8
0
 62
7
100
AcDbLine
 10
23.428744
 20
21.582105
 30
0.0
 11
23.687530
 21
20.750501
 31
0.0
  0
LINE
  5
217
100
AcDbEntity
  8
0
 62
7
100
AcDbLine
 10
23.687530
 20
20.750501
 30
0.0
 11
23.777787
 21
19.858284
 31
0.0
  0
LINE
  5
218
100
AcDbEntity
  8
0
 62
7
100
AcDbLine
 10
23.777787
 20
19.858284
 30
0.0
 11
23.730735
 21
19.217353
 31
0.0
  0
LINE
  5
219
100
AcDbEntity
  8
0
 62
7
100
AcDbLine
 10
23.730735
 20
19.217353
 30
0.0
 11
23.593412
 21
18.598727
 31
0.0
  0
LINE
  5
21a
100
AcDbEntity
  8
0
 62
7
100
AcDbLine
 10
23.593412
 20
18.598727
 30
0.0
 11
23.371243
 21
18.010792
 31
0.0
  0
LINE
  5
21b
100
AcDbEntity
  8
0
 62
7
100
AcDbLine
 10
23.371243
 20
18.010792
 30
0.0
 11
23.069656
 21
17.461936
 31
0.0
  0
LINE
  5
21c
100
AcDbEntity
  8
0
 62
7
100
AcDbLine
 10
23.069656
 20
17.461936
 30
0.0
 11
22.694078
 21
16.960546
 31
0.0
  0
LINE
  5
21d
100
AcDbEntity
  8
0
 62
7
100
AcDbLine
 10
22.694078
 20
16.960546
 30
0.0
 11
22.249937
 21
16.515009
 31
0.0
  0
LINE
  5
21e
100
AcDbEntity
  8
0
 62
7
100
AcDbLine
 10
22.249937
 20
16.515009
 30
0.0
 11
21.742660
 21
16.133714
 31
0.0
  0
LINE
  5
21f
100
AcDbEntity
  8
0
 62
7
100
AcDbLine
 10
21.742660
 20
16.133714
 30
0.0
 11
21.177673
 21
15.825047
 31
0.0
  0
ENDSEC
  0
SECTION
  2
OBJECTS
  0
DICTIONARY
  5
C
330
0
100
AcDbDictionary
  3
ACAD_GROUP
350
D
  3
ACAD_MLINESTYLE
350
17
  0
DICTIONARY
  5
D
330
C
100
AcDbDictionary
  0
DICTIONARY
  5
1A
330
C
100
AcDbDictionary
  0
DICTIONARY
  5
17
330
C
100
AcDbDictionary
  3
STANDARD
350
18
  0
DICTIONARY
  5
19
330
C
100
AcDbDictionary
  0
ENDSEC
  0
EOF
