  0
SECTION
  2
HEADER
  9
$ACADVER
  1
AC1014
  9
$HANDSEED
  5
FFFF
  9
$MEASUREMENT
 70
     1
  0
ENDSEC
  0
SECTION
  2
TABLES
  0
TABLE
  2
VPORT
  5
8
330
0
100
AcDbSymbolTable
 70
     4
  0
VPORT
  5
2E
330
8
100
AcDbSymbolTableRecord
100
AcDbViewportTableRecord
  2
*ACTIVE
 70
     0
 10
0.0
 20
0.0
 11
1.0
 21
1.0
 12
210.0
 22
148.5
 13
0.0
 23
0.0
 14
10.0
 24
10.0
 15
10.0
 25
10.0
 16
0.0
 26
0.0
 36
1.0
 17
0.0
 27
0.0
 37
0.0
 40
341.0
 41
1.24
 42
50.0
 43
0.0
 44
0.0
 50
0.0
 51
0.0
 71
     0
 72
   100
 73
     1
 74
     3
 75
     0
 76
     0
 77
     0
 78
     0
  0
ENDTAB
  0
TABLE
  2
LTYPE
  5
5
330
0
100
AcDbSymbolTable
 70
     1
  0
LTYPE
  5
14
330
5
100
AcDbSymbolTableRecord
100
AcDbLinetypeTableRecord
  2
BYBLOCK
 70
     0
  3

 72
    65
 73
     0
 40
0.0
  0
LTYPE
  5
15
330
5
100
AcDbSymbolTableRecord
100
AcDbLinetypeTableRecord
  2
BYLAYER
 70
     0
  3

 72
    65
 73
     0
 40
0.0
  0
LTYPE
  5
16
330
5
100
AcDbSymbolTableRecord
100
AcDbLinetypeTableRecord
  2
CONTINUOUS
 70
     0
  3
Solid line
 72
    65
 73
     0
 40
0.0
  0
ENDTAB
  0
TABLE
  2
LAYER
  5
2
100
AcDbSymbolTable
 70
1
  0
LAYER
  5
50
100
AcDbSymbolTableRecord
100
AcDbLayerTableRecord
  2
0
 70
0
  6
CONTINUOUS
  0
ENDTAB
  0
TABLE
  2
STYLE
  5
3
330
0
100
AcDbSymbolTable
 70
     1
  0
STYLE
  5
11
330
3
100
AcDbSymbolTableRecord
100
AcDbTextStyleTableRecord
  2
STANDARD
 70
     0
 40
0.0
 41
1.0
 50
0.0
 71
     0
 42
2.5
  3
txt
  4

  0
ENDTAB
  0
TABLE
  2
VIEW
  5
6
330
0
100
AcDbSymbolTable
 70
     0
  0
ENDTAB
  0
TABLE
  2
UCS
  5
7
330
0
100
AcDbSymbolTable
 70
     0
  0
ENDTAB
  0
TABLE
  2
APPID
  5
9
330
0
100
AcDbSymbolTable
 70
     2
  0
APPID
  5
12
330
9
100
AcDbSymbolTableRecord
100
AcDbRegAppTableRecord
  2
ACAD
 70
     0
  0
ENDTAB
  0
TABLE
  2
DIMSTYLE
  5
A
330
0
100
AcDbSymbolTable
 70
     1
  0
DIMSTYLE
105
27
330
A
100
AcDbSymbolTableRecord
100
AcDbDimStyleTableRecord
  2
ISO-25
 70
     0
  3

  4

  5

  6

  7

 40
1.0
 41
2.5
 42
0.625
 43
3.75
 44
1.25
 45
0.0
 46
0.0
 47
0.0
 48
0.0
140
2.5
141
2.5
142
0.0
143
0.03937007874016
144
1.0
145
0.0
146
1.0
147
0.625
 71
     0
 72
     0
 73
     0
 74
     0
 75
     0
 76
     0
 77
     1
 78
     8
170
     0
171
     3
172
     1
173
     0
174
     0
175
     0
176
     0
177
     0
178
     0
270
     2
271
     2
272
     2
273
     2
274
     3
340
11
275
     0
280
     0
281
     0
282
     0
283
     0
284
     8
285
     0
286
     0
287
     3
288
     0
  0
ENDTAB
  0
TABLE
  2
BLOCK_RECORD
  5
1
330
0
100
AcDbSymbolTable
 70
     1
  0
BLOCK_RECORD
  5
1F
330
1
100
AcDbSymbolTableRecord
100
AcDbBlockTableRecord
  2
*MODEL_SPACE
  0
BLOCK_RECORD
  5
1B
330
1
100
AcDbSymbolTableRecord
100
AcDbBlockTableRecord
  2
*PAPER_SPACE
  0
ENDTAB
  0
ENDSEC
  0
SECTION
  2
BLOCKS
  0
BLOCK
  5
20
330
1F
100
AcDbEntity
  8
0
100
AcDbBlockBegin
  2
*MODEL_SPACE
 70
     0
 10
0.0
 20
0.0
 30
0.0
  3
*MODEL_SPACE
  1

  0
ENDBLK
  5
21
330
1F
100
AcDbEntity
  8
0
100
AcDbBlockEnd
  0
BLOCK
  5
1C
330
1B
100
AcDbEntity
 67
     1
  8
0
100
AcDbBlockBegin
  2
*PAPER_SPACE
  1

  0
ENDBLK
  5
1D
330
1B
100
AcDbEntity
 67
     1
  8
0
100
AcDbBlockEnd
  0
ENDSEC
  0
SECTION
  2
ENTITIES
  0
LINE
  5
100
100
AcDbEntity
  8
0
 62
7
100
AcDbLine
 10
10.625102
 20
25.180713
 30
0.0
 11
10.221643
 21
25.090761
 31
0.0
  0
LINE
  5
101
100
AcDbEntity
  8
0
 62
7
100
AcDbLine
 10
10.221643
 20
25.090761
 30
0.0
 11
9.984360
 21
24.858619
 31
0.0
  0
LINE
  5
102
100
AcDbEntity
  8
0
 62
7
100
AcDbLine
 10
9.984360
 20
24.858619
 30
0.0
 11
9.895457
 21
24.543183
 31
0.0
  0
LINE
  5
103
100
AcDbEntity
  8
0
 62
7
100
AcDbLine
 10
9.895457
 20
24.543183
 30
0.0
 11
9.937141
 21
24.203344
 31
0.0
  0
LINE
  5
104
100
AcDbEntity
  8
0
 62
7
100
AcDbLine
 10
9.937141
 20
24.203344
 30
0.0
 11
10.091617
 21
23.897997
 31
0.0
  0
LINE
  5
105
100
AcDbEntity
  8
0
 62
7
100
AcDbLine
 10
10.091617
 20
23.897997
 30
0.0
 11
10.341089
 21
23.686034
 31
0.0
  0
LINE
  5
106
100
AcDbEntity
  8
0
 62
7
100
AcDbLine
 10
10.341089
 20
23.686034
 30
0.0
 11
10.667764
 21
23.626348
 31
0.0
  0
LINE
  5
107
100
AcDbEntity
  8
0
 62
7
100
AcDbLine
 10
10.667764
 20
23.626348
 30
0.0
 11
11.053846
 21
23.777834
 31
0.0
  0
LINE
  5
108
100
AcDbEntity
  8
0
 62
7
100
AcDbLine
 10
11.053846
 20
23.777834
 30
0.0
 11
11.245502
 21
23.953442
 31
0.0
  0
LINE
  5
109
100
AcDbEntity
  8
0
 62
7
100
AcDbLine
 10
11.245502
 20
23.953442
 30
0.0
 11
11.355164
 21
24.167983
 31
0.0
  0
LINE
  5
10a
100
AcDbEntity
  8
0
 62
7
100
AcDbLine
 10
11.355164
 20
24.167983
 30
0.0
 11
11.388795
 21
24.401955
 31
0.0
  0
LINE
  5
10b
100
AcDbEntity
  8
0
 62
7
100
AcDbLine
 10
11.388795
 20
24.401955
 30
0.0
 11
11.352354
 21
24.635857
 31
0.0
  0
LINE
  5
10c
100
AcDbEntity
  8
0
 62
7
100
AcDbLine
 10
11.352354
 20
24.635857
 30
0.0
 11
11.251804
 21
24.850186
 31
0.0
  0
LINE
  5
10d
100
AcDbEntity
  8
0
 62
7
100
AcDbLine
 10
11.251804
 20
24.850186
 30
0.0
 11
11.093104
 21
25.025439
 31
0.0
  0
LINE
  5
10e
100
AcDbEntity
  8
0
 62
7
100
AcDbLine
 10
11.093104
 20
25.025439
 30
0.0
 11
10.882217
 21
25.142116
 31
0.0
  0
LINE
  5
10f
100
AcDbEntity
  8
0
 62
7
100
AcDbLine
 10
10.882217
 20
25.142116
 30
0.0
 11
10.625102
 21
25.180713
 31
0.0
  0
LINE
  5
110
100
AcDbEntity
  8
0
 62
7
100
AcDbLine
 10
10.625102
 20
28.222222
 30
0.0
 11
9.483667
 21
28.129254
 31
0.0
  0
LINE
  5
111
100
AcDbEntity
  8
0
 62
7
100
AcDbLine
 10
9.483667
 20
28.129254
 30
0.0
 11
8.392715
 21
27.813916
 31
0.0
  0
LINE
  5
112
100
AcDbEntity
  8
0
 62
7
100
AcDbLine
 10
8.392715
 20
27.813916
 30
0.0
 11
7.379791
 21
27.301157
 31
0.0
  0
LINE
  5
113
100
AcDbEntity
  8
0
 62
7
100
AcDbLine
 10
7.379791
 20
27.301157
 30
0.0
 11
6.472440
 21
26.615922
 31
0.0
  0
LINE
  5
114
100
AcDbEntity
  8
0
 62
7
100
AcDbLine
 10
6.472440
 20
26.615922
 30
0.0
 11
5.698207
 21
25.783159
 31
0.0
  0
LINE
  5
115
100
AcDbEntity
  8
0
 62
7
100
AcDbLine
 10
5.698207
 20
25.783159
 30
0.0
 11
5.084639
 21
24.827814
 31
0.0
  0
LINE
  5
116
100
AcDbEntity
  8
0
 62
7
100
AcDbLine
 10
5.084639
 20
24.827814
 30
0.0
 11
4.659278
 21
23.774835
 31
0.0
  0
LINE
  5
117
100
AcDbEntity
  8
0
 62
7
100
AcDbLine
 10
4.659278
 20
23.774835
 30
0.0
 11
4.449671
 21
22.649167
 31
0.0
  0
LINE
  5
118
100
AcDbEntity
  8
0
 62
7
100
AcDbLine
 10
4.449671
 20
22.649167
 30
0.0
 11
4.393424
 21
22.365270
 31
0.0
  0
LINE
  5
119
100
AcDbEntity
  8
0
 62
7
100
AcDbLine
 10
4.393424
 20
22.365270
 30
0.0
 11
4.377194
 21
22.109867
 31
0.0
  0
LINE
  5
11a
100
AcDbEntity
  8
0
 62
7
100
AcDbLine
 10
4.377194
 20
22.109867
 30
0.0
 11
4.404107
 21
21.889205
 31
0.0
  0
LINE
  5
11b
100
AcDbEntity
  8
0
 62
7
100
AcDbLine
 10
4.404107
 20
21.889205
 30
0.0
 11
4.477291
 21
21.709532
 31
0.0
  0
LINE
  5
11c
100
AcDbEntity
  8
0
 62
7
100
AcDbLine
 10
4.477291
 20
21.709532
 30
0.0
 11
4.599872
 21
21.577093
 31
0.0
  0
LINE
  5
11d
100
AcDbEntity
  8
0
 62
7
100
AcDbLine
 10
4.599872
 20
21.577093
 30
0.0
 11
4.774977
 21
21.498136
 31
0.0
  0
LINE
  5
11e
100
AcDbEntity
  8
0
 62
7
100
AcDbLine
 10
4.774977
 20
21.498136
 30
0.0
 11
5.005731
 21
21.478908
 31
0.0
  0
LINE
  5
11f
100
AcDbEntity
  8
0
 62
7
100
AcDbLine
 10
5.005731
 20
21.478908
 30
0.0
 11
5.295262
 21
21.525654
 31
0.0
  0
LINE
  5
120
100
AcDbEntity
  8
0
 62
7
100
AcDbLine
 10
5.295262
 20
21.525654
 30
0.0
 11
6.734357
 21
21.525654
 31
0.0
  0
LINE
  5
121
100
AcDbEntity
  8
0
 62
7
100
AcDbLine
 10
6.734357
 20
21.525654
 30
0.0
 11
8.173452
 21
21.525654
 31
0.0
  0
LINE
  5
122
100
AcDbEntity
  8
0
 62
7
100
AcDbLine
 10
8.173452
 20
21.525654
 30
0.0
 11
9.612548
 21
21.525654
 31
0.0
  0
LINE
  5
123
100
AcDbEntity
  8
0
 62
7
100
AcDbLine
 10
9.612548
 20
21.525654
 30
0.0
 11
11.051643
 21
21.525654
 31
0.0
  0
LINE
  5
124
100
AcDbEntity
  8
0
 62
7
100
AcDbLine
 10
11.051643
 20
21.525654
 30
0.0
 11
12.490738
 21
21.525654
 31
0.0
  0
LINE
  5
125
100
AcDbEntity
  8
0
 62
7
100
AcDbLine
 10
12.490738
 20
21.525654
 30
0.0
 11
13.929834
 21
21.525654
 31
0.0
  0
LINE
  5
126
100
AcDbEntity
  8
0
 62
7
100
AcDbLine
 10
13.929834
 20
21.525654
 30
0.0
 11
15.368929
 21
21.525654
 31
0.0
  0
LINE
  5
127
100
AcDbEntity
  8
0
 62
7
100
AcDbLine
 10
15.368929
 20
21.525654
 30
0.0
 11
16.808024
 21
21.525654
 31
0.0
  0
LINE
  5
128
100
AcDbEntity
  8
0
 62
7
100
AcDbLine
 10
16.808024
 20
21.525654
 30
0.0
 11
16.808871
 21
22.673685
 31
0.0
  0
LINE
  5
129
100
AcDbEntity
  8
0
 62
7
100
AcDbLine
 10
16.808871
 20
22.673685
 30
0.0
 11
16.581142
 21
23.788397
 31
0.0
  0
LINE
  5
12a
100
AcDbEntity
  8
0
 62
7
100
AcDbLine
 10
16.581142
 20
23.788397
 30
0.0
 11
16.148215
 21
24.840296
 31
0.0
  0
LINE
  5
12b
100
AcDbEntity
  8
0
 62
7
100
AcDbLine
 10
16.148215
 20
24.840296
 30
0.0
 11
15.533467
 21
25.799888
 31
0.0
  0
LINE
  5
12c
100
AcDbEntity
  8
0
 62
7
100
AcDbLine
 10
15.533467
 20
25.799888
 30
0.0
 11
14.760271
 21
26.637676
 31
0.0
  0
LINE
  5
12d
100
AcDbEntity
  8
0
 62
7
100
AcDbLine
 10
14.760271
 20
26.637676
 30
0.0
 11
13.852003
 21
27.324165
 31
0.0
  0
LINE
  5
12e
100
AcDbEntity
  8
0
 62
7
100
AcDbLine
 10
13.852003
 20
27.324165
 30
0.0
 11
12.832040
 21
27.829859
 31
0.0
  0
LINE
  5
12f
100
AcDbEntity
  8
0
 62
7
100
AcDbLine
 10
12.832040
 20
27.829859
 30
0.0
 11
11.723754
 21
28.125263
 31
0.0
  0
LINE
  5
130
100
AcDbEntity
  8
0
 62
7
100
AcDbLine
 10
11.723754
 20
28.125263
 30
0.0
 11
11.587601
 21
28.148028
 31
0.0
  0
LINE
  5
131
100
AcDbEntity
  8
0
 62
7
100
AcDbLine
 10
11.587601
 20
28.148028
 30
0.0
 11
11.450974
 21
28.167745
 31
0.0
  0
LINE
  5
132
100
AcDbEntity
  8
0
 62
7
100
AcDbLine
 10
11.450974
 20
28.167745
 30
0.0
 11
11.313943
 21
28.184416
 31
0.0
  0
LINE
  5
133
100
AcDbEntity
  8
0
 62
7
100
AcDbLine
 10
11.313943
 20
28.184416
 30
0.0
 11
11.176576
 21
28.198046
 31
0.0
  0
LINE
  5
134
100
AcDbEntity
  8
0
 62
7
100
AcDbLine
 10
11.176576
 20
28.198046
 30
0.0
 11
11.038941
 21
28.208638
 31
0.0
  0
LINE
  5
135
100
AcDbEntity
  8
0
 62
7
100
AcDbLine
 10
11.038941
 20
28.208638
 30
0.0
 11
10.901105
 21
28.216196
 31
0.0
  0
LINE
  5
136
100
AcDbEntity
  8
0
 62
7
100
AcDbLine
 10
10.901105
 20
28.216196
 30
0.0
 11
10.763136
 21
28.220723
 31
0.0
  0
LINE
  5
137
100
AcDbEntity
  8
0
 62
7
100
AcDbLine
 10
10.763136
 20
28.220723
 30
0.0
 11
10.625102
 21
28.222222
 31
0.0
  0
LINE
  5
138
100
AcDbEntity
  8
0
 62
7
100
AcDbLine
 10
11.846560
 20
23.430089
 30
0.0
 11
11.757929
 21
23.293981
 31
0.0
  0
LINE
  5
139
100
AcDbEntity
  8
0
 62
7
100
AcDbLine
 10
11.757929
 20
23.293981
 30
0.0
 11
11.633855
 21
23.214543
 31
0.0
  0
LINE
  5
13a
100
AcDbEntity
  8
0
 62
7
100
AcDbLine
 10
11.633855
 20
23.214543
 30
0.0
 11
11.482850
 21
23.178594
 31
0.0
  0
LINE
  5
13b
100
AcDbEntity
  8
0
 62
7
100
AcDbLine
 10
11.482850
 20
23.178594
 30
0.0
 11
11.313426
 21
23.172955
 31
0.0
  0
LINE
  5
13c
100
AcDbEntity
  8
0
 62
7
100
AcDbLine
 10
11.313426
 20
23.172955
 30
0.0
 11
11.134095
 21
23.184447
 31
0.0
  0
LINE
  5
13d
100
AcDbEntity
  8
0
 62
7
100
AcDbLine
 10
11.134095
 20
23.184447
 30
0.0
 11
10.953368
 21
23.199890
 31
0.0
  0
LINE
  5
13e
100
AcDbEntity
  8
0
 62
7
100
AcDbLine
 10
10.953368
 20
23.199890
 30
0.0
 11
10.779758
 21
23.206107
 31
0.0
  0
LINE
  5
13f
100
AcDbEntity
  8
0
 62
7
100
AcDbLine
 10
10.779758
 20
23.206107
 30
0.0
 11
10.621776
 21
23.189916
 31
0.0
  0
LINE
  5
140
100
AcDbEntity
  8
0
 62
7
100
AcDbLine
 10
10.621776
 20
23.189916
 30
0.0
 11
10.464779
 21
23.206023
 31
0.0
  0
LINE
  5
141
100
AcDbEntity
  8
0
 62
7
100
AcDbLine
 10
10.464779
 20
23.206023
 30
0.0
 11
10.292214
 21
23.199805
 31
0.0
  0
LINE
  5
142
100
AcDbEntity
  8
0
 62
7
100
AcDbLine
 10
10.292214
 20
23.199805
 30
0.0
 11
10.112571
 21
23.184416
 31
0.0
  0
LINE
  5
143
100
AcDbEntity
  8
0
 62
7
100
AcDbLine
 10
10.112571
 20
23.184416
 30
0.0
 11
9.934340
 21
23.173003
 31
0.0
  0
LINE
  5
144
100
AcDbEntity
  8
0
 62
7
100
AcDbLine
 10
9.934340
 20
23.173003
 30
0.0
 11
9.766011
 21
23.178712
 31
0.0
  0
LINE
  5
145
100
AcDbEntity
  8
0
 62
7
100
AcDbLine
 10
9.766011
 20
23.178712
 30
0.0
 11
9.616075
 21
23.214697
 31
0.0
  0
LINE
  5
146
100
AcDbEntity
  8
0
 62
7
100
AcDbLine
 10
9.616075
 20
23.214697
 30
0.0
 11
9.493020
 21
23.294106
 31
0.0
  0
LINE
  5
147
100
AcDbEntity
  8
0
 62
7
100
AcDbLine
 10
9.493020
 20
23.294106
 30
0.0
 11
9.405338
 21
23.430089
 31
0.0
  0
LINE
  5
148
100
AcDbEntity
  8
0
 62
7
100
AcDbLine
 10
9.405338
 20
23.430089
 30
0.0
 11
9.407906
 21
23.686865
 31
0.0
  0
LINE
  5
149
100
AcDbEntity
  8
0
 62
7
100
AcDbLine
 10
9.407906
 20
23.686865
 30
0.0
 11
9.407342
 21
23.943952
 31
0.0
  0
LINE
  5
14a
100
AcDbEntity
  8
0
 62
7
100
AcDbLine
 10
9.407342
 20
23.943952
 30
0.0
 11
9.405197
 21
24.201197
 31
0.0
  0
LINE
  5
14b
100
AcDbEntity
  8
0
 62
7
100
AcDbLine
 10
9.405197
 20
24.201197
 30
0.0
 11
9.402995
 21
24.458447
 31
0.0
  0
LINE
  5
14c
100
AcDbEntity
  8
0
 62
7
100
AcDbLine
 10
9.402995
 20
24.458447
 30
0.0
 11
9.402262
 21
24.715551
 31
0.0
  0
LINE
  5
14d
100
AcDbEntity
  8
0
 62
7
100
AcDbLine
 10
9.402262
 20
24.715551
 30
0.0
 11
9.404548
 21
24.972355
 31
0.0
  0
LINE
  5
14e
100
AcDbEntity
  8
0
 62
7
100
AcDbLine
 10
9.404548
 20
24.972355
 30
0.0
 11
9.411346
 21
25.228707
 31
0.0
  0
LINE
  5
14f
100
AcDbEntity
  8
0
 62
7
100
AcDbLine
 10
9.411346
 20
25.228707
 30
0.0
 11
9.424193
 21
25.484455
 31
0.0
  0
LINE
  5
150
100
AcDbEntity
  8
0
 62
7
100
AcDbLine
 10
9.424193
 20
25.484455
 30
0.0
 11
9.553926
 21
25.573221
 31
0.0
  0
LINE
  5
151
100
AcDbEntity
  8
0
 62
7
100
AcDbLine
 10
9.553926
 20
25.573221
 30
0.0
 11
9.699943
 21
25.623249
 31
0.0
  0
LINE
  5
152
100
AcDbEntity
  8
0
 62
7
100
AcDbLine
 10
9.699943
 20
25.623249
 30
0.0
 11
9.858270
 21
25.643848
 31
0.0
  0
LINE
  5
153
100
AcDbEntity
  8
0
 62
7
100
AcDbLine
 10
9.858270
 20
25.643848
 30
0.0
 11
10.024931
 21
25.644325
 31
0.0
  0
LINE
  5
154
100
AcDbEntity
  8
0
 62
7
100
AcDbLine
 10
10.024931
 20
25.644325
 30
0.0
 11
10.195954
 21
25.633985
 31
0.0
  0
LINE
  5
155
100
AcDbEntity
  8
0
 62
7
100
AcDbLine
 10
10.195954
 20
25.633985
 30
0.0
 11
10.367363
 21
25.622137
 31
0.0
  0
LINE
  5
156
100
AcDbEntity
  8
0
 62
7
100
AcDbLine
 10
10.367363
 20
25.622137
 30
0.0
 11
10.535184
 21
25.618086
 31
0.0
  0
LINE
  5
157
100
AcDbEntity
  8
0
 62
7
100
AcDbLine
 10
10.535184
 20
25.618086
 30
0.0
 11
10.695443
 21
25.631141
 31
0.0
  0
LINE
  5
158
100
AcDbEntity
  8
0
 62
7
100
AcDbLine
 10
10.695443
 20
25.631141
 30
0.0
 11
10.849149
 21
25.616217
 31
0.0
  0
LINE
  5
159
100
AcDbEntity
  8
0
 62
7
100
AcDbLine
 10
10.849149
 20
25.616217
 30
0.0
 11
11.023345
 21
25.623519
 31
0.0
  0
LINE
  5
15a
100
AcDbEntity
  8
0
 62
7
100
AcDbLine
 10
11.023345
 20
25.623519
 30
0.0
 11
11.206384
 21
25.638604
 31
0.0
  0
LINE
  5
15b
100
AcDbEntity
  8
0
 62
7
100
AcDbLine
 10
11.206384
 20
25.638604
 30
0.0
 11
11.386617
 21
25.647032
 31
0.0
  0
LINE
  5
15c
100
AcDbEntity
  8
0
 62
7
100
AcDbLine
 10
11.386617
 20
25.647032
 30
0.0
 11
11.552396
 21
25.634361
 31
0.0
  0
LINE
  5
15d
100
AcDbEntity
  8
0
 62
7
100
AcDbLine
 10
11.552396
 20
25.634361
 30
0.0
 11
11.692076
 21
25.586151
 31
0.0
  0
LINE
  5
15e
100
AcDbEntity
  8
0
 62
7
100
AcDbLine
 10
11.692076
 20
25.586151
 30
0.0
 11
11.794007
 21
25.487960
 31
0.0
  0
LINE
  5
15f
100
AcDbEntity
  8
0
 62
7
100
AcDbLine
 10
11.794007
 20
25.487960
 30
0.0
 11
11.846542
 21
25.325348
 31
0.0
  0
LINE
  5
160
100
AcDbEntity
  8
0
 62
7
100
AcDbLine
 10
11.846542
 20
25.325348
 30
0.0
 11
11.846542
 21
25.088441
 31
0.0
  0
LINE
  5
161
100
AcDbEntity
  8
0
 62
7
100
AcDbLine
 10
11.846542
 20
25.088441
 30
0.0
 11
11.846542
 21
24.851534
 31
0.0
  0
LINE
  5
162
100
AcDbEntity
  8
0
 62
7
100
AcDbLine
 10
11.846542
 20
24.851534
 30
0.0
 11
11.846542
 21
24.614626
 31
0.0
  0
LINE
  5
163
100
AcDbEntity
  8
0
 62
7
100
AcDbLine
 10
11.846542
 20
24.614626
 30
0.0
 11
11.846542
 21
24.377719
 31
0.0
  0
LINE
  5
164
100
AcDbEntity
  8
0
 62
7
100
AcDbLine
 10
11.846542
 20
24.377719
 30
0.0
 11
11.846542
 21
24.140812
 31
0.0
  0
LINE
  5
165
100
AcDbEntity
  8
0
 62
7
100
AcDbLine
 10
11.846542
 20
24.140812
 30
0.0
 11
11.846542
 21
23.903904
 31
0.0
  0
LINE
  5
166
100
AcDbEntity
  8
0
 62
7
100
AcDbLine
 10
11.846542
 20
23.903904
 30
0.0
 11
11.846543
 21
23.666997
 31
0.0
  0
LINE
  5
167
100
AcDbEntity
  8
0
 62
7
100
AcDbLine
 10
11.846543
 20
23.666997
 30
0.0
 11
11.846560
 21
23.430089
 31
0.0
  0
LINE
  5
168
100
AcDbEntity
  8
0
 62
7
100
AcDbLine
 10
14.293991
 20
22.517947
 30
0.0
 11
13.890503
 21
22.607830
 31
0.0
  0
LINE
  5
169
100
AcDbEntity
  8
0
 62
7
100
AcDbLine
 10
13.890503
 20
22.607830
 30
0.0
 11
13.653220
 21
22.839944
 31
0.0
  0
LINE
  5
16a
100
AcDbEntity
  8
0
 62
7
100
AcDbLine
 10
13.653220
 20
22.839944
 30
0.0
 11
13.564337
 21
23.155384
 31
0.0
  0
LINE
  5
16b
100
AcDbEntity
  8
0
 62
7
100
AcDbLine
 10
13.564337
 20
23.155384
 30
0.0
 11
13.606048
 21
23.495242
 31
0.0
  0
LINE
  5
16c
100
AcDbEntity
  8
0
 62
7
100
AcDbLine
 10
13.606048
 20
23.495242
 30
0.0
 11
13.760548
 21
23.800613
 31
0.0
  0
LINE
  5
16d
100
AcDbEntity
  8
0
 62
7
100
AcDbLine
 10
13.760548
 20
23.800613
 30
0.0
 11
14.010033
 21
24.012590
 31
0.0
  0
LINE
  5
16e
100
AcDbEntity
  8
0
 62
7
100
AcDbLine
 10
14.010033
 20
24.012590
 30
0.0
 11
14.336697
 21
24.072267
 31
0.0
  0
LINE
  5
16f
100
AcDbEntity
  8
0
 62
7
100
AcDbLine
 10
14.336697
 20
24.072267
 30
0.0
 11
14.722735
 21
23.920737
 31
0.0
  0
LINE
  5
170
100
AcDbEntity
  8
0
 62
7
100
AcDbLine
 10
14.722735
 20
23.920737
 30
0.0
 11
14.914459
 21
23.747956
 31
0.0
  0
LINE
  5
171
100
AcDbEntity
  8
0
 62
7
100
AcDbLine
 10
14.914459
 20
23.747956
 30
0.0
 11
15.023725
 21
23.533949
 31
0.0
  0
LINE
  5
172
100
AcDbEntity
  8
0
 62
7
100
AcDbLine
 10
15.023725
 20
23.533949
 30
0.0
 11
15.056719
 21
23.298961
 31
0.0
  0
LINE
  5
173
100
AcDbEntity
  8
0
 62
7
100
AcDbLine
 10
15.056719
 20
23.298961
 30
0.0
 11
15.019622
 21
23.063239
 31
0.0
  0
LINE
  5
174
100
AcDbEntity
  8
0
 62
7
100
AcDbLine
 10
15.019622
 20
23.063239
 30
0.0
 11
14.918617
 21
22.847030
 31
0.0
  0
LINE
  5
175
100
AcDbEntity
  8
0
 62
7
100
AcDbLine
 10
14.918617
 20
22.847030
 30
0.0
 11
14.759889
 21
22.670580
 31
0.0
  0
LINE
  5
176
100
AcDbEntity
  8
0
 62
7
100
AcDbLine
 10
14.759889
 20
22.670580
 30
0.0
 11
14.549619
 21
22.554137
 31
0.0
  0
LINE
  5
177
100
AcDbEntity
  8
0
 62
7
100
AcDbLine
 10
14.549619
 20
22.554137
 30
0.0
 11
14.293991
 21
22.517947
 31
0.0
  0
LINE
  5
178
100
AcDbEntity
  8
0
 62
7
100
AcDbLine
 10
16.832862
 20
20.362616
 30
0.0
 11
16.758947
 21
20.587005
 31
0.0
  0
LINE
  5
179
100
AcDbEntity
  8
0
 62
7
100
AcDbLine
 10
16.758947
 20
20.587005
 30
0.0
 11
16.628488
 21
20.732190
 31
0.0
  0
LINE
  5
17a
100
AcDbEntity
  8
0
 62
7
100
AcDbLine
 10
16.628488
 20
20.732190
 30
0.0
 11
16.454132
 21
20.814333
 31
0.0
  0
LINE
  5
17b
100
AcDbEntity
  8
0
 62
7
100
AcDbLine
 10
16.454132
 20
20.814333
 30
0.0
 11
16.248524
 21
20.849601
 31
0.0
  0
LINE
  5
17c
100
AcDbEntity
  8
0
 62
7
100
AcDbLine
 10
16.248524
 20
20.849601
 30
0.0
 11
16.024310
 21
20.854159
 31
0.0
  0
LINE
  5
17d
100
AcDbEntity
  8
0
 62
7
100
AcDbLine
 10
16.024310
 20
20.854159
 30
0.0
 11
15.794137
 21
20.844171
 31
0.0
  0
LINE
  5
17e
100
AcDbEntity
  8
0
 62
7
100
AcDbLine
 10
15.794137
 20
20.844171
 30
0.0
 11
15.570650
 21
20.835803
 31
0.0
  0
LINE
  5
17f
100
AcDbEntity
  8
0
 62
7
100
AcDbLine
 10
15.570650
 20
20.835803
 30
0.0
 11
15.366496
 21
20.845218
 31
0.0
  0
LINE
  5
180
100
AcDbEntity
  8
0
 62
7
100
AcDbLine
 10
15.366496
 20
20.845218
 30
0.0
 11
14.058248
 21
20.845218
 31
0.0
  0
LINE
  5
181
100
AcDbEntity
  8
0
 62
7
100
AcDbLine
 10
14.058248
 20
20.845218
 30
0.0
 11
12.749999
 21
20.845218
 31
0.0
  0
LINE
  5
182
100
AcDbEntity
  8
0
 62
7
100
AcDbLine
 10
12.749999
 20
20.845218
 30
0.0
 11
11.441750
 21
20.845218
 31
0.0
  0
LINE
  5
183
100
AcDbEntity
  8
0
 62
7
100
AcDbLine
 10
11.441750
 20
20.845218
 30
0.0
 11
10.133502
 21
20.845218
 31
0.0
  0
LINE
  5
184
100
AcDbEntity
  8
0
 62
7
100
AcDbLine
 10
10.133502
 20
20.845218
 30
0.0
 11
8.825253
 21
20.845218
 31
0.0
  0
LINE
  5
185
100
AcDbEntity
  8
0
 62
7
100
AcDbLine
 10
8.825253
 20
20.845218
 30
0.0
 11
7.517004
 21
20.845218
 31
0.0
  0
LINE
  5
186
100
AcDbEntity
  8
0
 62
7
100
AcDbLine
 10
7.517004
 20
20.845218
 30
0.0
 11
6.208755
 21
20.845218
 31
0.0
  0
LINE
  5
187
100
AcDbEntity
  8
0
 62
7
100
AcDbLine
 10
6.208755
 20
20.845218
 30
0.0
 11
4.900507
 21
20.845218
 31
0.0
  0
LINE
  5
188
100
AcDbEntity
  8
0
 62
7
100
AcDbLine
 10
4.900507
 20
20.845218
 30
0.0
 11
4.675994
 21
20.771340
 31
0.0
  0
LINE
  5
189
100
AcDbEntity
  8
0
 62
7
100
AcDbLine
 10
4.675994
 20
20.771340
 30
0.0
 11
4.530733
 21
20.640861
 31
0.0
  0
LINE
  5
18a
100
AcDbEntity
  8
0
 62
7
100
AcDbLine
 10
4.530733
 20
20.640861
 30
0.0
 11
4.448552
 21
20.466441
 31
0.0
  0
LINE
  5
18b
100
AcDbEntity
  8
0
 62
7
100
AcDbLine
 10
4.448552
 20
20.466441
 30
0.0
 11
4.413277
 21
20.260738
 31
0.0
  0
LINE
  5
18c
100
AcDbEntity
  8
0
 62
7
100
AcDbLine
 10
4.413277
 20
20.260738
 30
0.0
 11
4.408736
 21
20.036412
 31
0.0
  0
LINE
  5
18d
100
AcDbEntity
  8
0
 62
7
100
AcDbLine
 10
4.408736
 20
20.036412
 30
0.0
 11
4.418755
 21
19.806122
 31
0.0
  0
LINE
  5
18e
100
AcDbEntity
  8
0
 62
7
100
AcDbLine
 10
4.418755
 20
19.806122
 30
0.0
 11
4.427160
 21
19.582527
 31
0.0
  0
LINE
  5
18f
100
AcDbEntity
  8
0
 62
7
100
AcDbLine
 10
4.427160
 20
19.582527
 30
0.0
 11
4.417779
 21
19.378287
 31
0.0
  0
LINE
  5
190
100
AcDbEntity
  8
0
 62
7
100
AcDbLine
 10
4.417779
 20
19.378287
 30
0.0
 11
4.418002
 21
17.948930
 31
0.0
  0
LINE
  5
191
100
AcDbEntity
  8
0
 62
7
100
AcDbLine
 10
4.418002
 20
17.948930
 30
0.0
 11
4.418228
 21
16.519573
 31
0.0
  0
LINE
  5
192
100
AcDbEntity
  8
0
 62
7
100
AcDbLine
 10
4.418228
 20
16.519573
 30
0.0
 11
4.418454
 21
15.090215
 31
0.0
  0
LINE
  5
193
100
AcDbEntity
  8
0
 62
7
100
AcDbLine
 10
4.418454
 20
15.090215
 30
0.0
 11
4.418682
 21
13.660858
 31
0.0
  0
LINE
  5
194
100
AcDbEntity
  8
0
 62
7
100
AcDbLine
 10
4.418682
 20
13.660858
 30
0.0
 11
4.418909
 21
12.231501
 31
0.0
  0
LINE
  5
195
100
AcDbEntity
  8
0
 62
7
100
AcDbLine
 10
4.418909
 20
12.231501
 30
0.0
 11
4.419136
 21
10.802144
 31
0.0
  0
LINE
  5
196
100
AcDbEntity
  8
0
 62
7
100
AcDbLine
 10
4.419136
 20
10.802144
 30
0.0
 11
4.419362
 21
9.372786
 31
0.0
  0
LINE
  5
197
100
AcDbEntity
  8
0
 62
7
100
AcDbLine
 10
4.419362
 20
9.372786
 30
0.0
 11
4.419585
 21
7.943429
 31
0.0
  0
LINE
  5
198
100
AcDbEntity
  8
0
 62
7
100
AcDbLine
 10
4.419585
 20
7.943429
 30
0.0
 11
4.541595
 21
7.693233
 31
0.0
  0
LINE
  5
199
100
AcDbEntity
  8
0
 62
7
100
AcDbLine
 10
4.541595
 20
7.693233
 30
0.0
 11
4.651534
 21
7.420685
 31
0.0
  0
LINE
  5
19a
100
AcDbEntity
  8
0
 62
7
100
AcDbLine
 10
4.651534
 20
7.420685
 30
0.0
 11
4.762105
 21
7.142928
 31
0.0
  0
LINE
  5
19b
100
AcDbEntity
  8
0
 62
7
100
AcDbLine
 10
4.762105
 20
7.142928
 30
0.0
 11
4.886011
 21
6.877108
 31
0.0
  0
LINE
  5
19c
100
AcDbEntity
  8
0
 62
7
100
AcDbLine
 10
4.886011
 20
6.877108
 30
0.0
 11
5.035955
 21
6.640366
 31
0.0
  0
LINE
  5
19d
100
AcDbEntity
  8
0
 62
7
100
AcDbLine
 10
5.035955
 20
6.640366
 30
0.0
 11
5.224638
 21
6.449849
 31
0.0
  0
LINE
  5
19e
100
AcDbEntity
  8
0
 62
7
100
AcDbLine
 10
5.224638
 20
6.449849
 30
0.0
 11
5.464764
 21
6.322699
 31
0.0
  0
LINE
  5
19f
100
AcDbEntity
  8
0
 62
7
100
AcDbLine
 10
5.464764
 20
6.322699
 30
0.0
 11
5.769036
 21
6.276060
 31
0.0
  0
LINE
  5
1a0
100
AcDbEntity
  8
0
 62
7
100
AcDbLine
 10
5.769036
 20
6.276060
 30
0.0
 11
6.191293
 21
6.276060
 31
0.0
  0
LINE
  5
1a1
100
AcDbEntity
  8
0
 62
7
100
AcDbLine
 10
6.191293
 20
6.276060
 30
0.0
 11
6.613549
 21
6.276060
 31
0.0
  0
LINE
  5
1a2
100
AcDbEntity
  8
0
 62
7
100
AcDbLine
 10
6.613549
 20
6.276060
 30
0.0
 11
7.035806
 21
6.276060
 31
0.0
  0
LINE
  5
1a3
100
AcDbEntity
  8
0
 62
7
100
AcDbLine
 10
7.035806
 20
6.276060
 30
0.0
 11
7.458063
 21
6.276060
 31
0.0
  0
LINE
  5
1a4
100
AcDbEntity
  8
0
 62
7
100
AcDbLine
 10
7.458063
 20
6.276060
 30
0.0
 11
7.880320
 21
6.276060
 31
0.0
  0
LINE
  5
1a5
100
AcDbEntity
  8
0
 62
7
100
AcDbLine
 10
7.880320
 20
6.276060
 30
0.0
 11
8.302576
 21
6.276060
 31
0.0
  0
LINE
  5
1a6
100
AcDbEntity
  8
0
 62
7
100
AcDbLine
 10
8.302576
 20
6.276060
 30
0.0
 11
8.724833
 21
6.276060
 31
0.0
  0
LINE
  5
1a7
100
AcDbEntity
  8
0
 62
7
100
AcDbLine
 10
8.724833
 20
6.276060
 30
0.0
 11
9.147089
 21
6.276060
 31
0.0
  0
LINE
  5
1a8
100
AcDbEntity
  8
0
 62
7
100
AcDbLine
 10
9.147089
 20
6.276060
 30
0.0
 11
9.099993
 21
5.897922
 31
0.0
  0
LINE
  5
1a9
100
AcDbEntity
  8
0
 62
7
100
AcDbLine
 10
9.099993
 20
5.897922
 30
0.0
 11
8.974349
 21
5.471602
 31
0.0
  0
LINE
  5
1aa
100
AcDbEntity
  8
0
 62
7
100
AcDbLine
 10
8.974349
 20
5.471602
 30
0.0
 11
8.814865
 21
5.021820
 31
0.0
  0
LINE
  5
1ab
100
AcDbEntity
  8
0
 62
7
100
AcDbLine
 10
8.814865
 20
5.021820
 30
0.0
 11
8.666252
 21
4.573297
 31
0.0
  0
LINE
  5
1ac
100
AcDbEntity
  8
0
 62
7
100
AcDbLine
 10
8.666252
 20
4.573297
 30
0.0
 11
8.573220
 21
4.150752
 31
0.0
  0
LINE
  5
1ad
100
AcDbEntity
  8
0
 62
7
100
AcDbLine
 10
8.573220
 20
4.150752
 30
0.0
 11
8.580479
 21
3.778908
 31
0.0
  0
LINE
  5
1ae
100
AcDbEntity
  8
0
 62
7
100
AcDbLine
 10
8.580479
 20
3.778908
 30
0.0
 11
8.732737
 21
3.482483
 31
0.0
  0
LINE
  5
1af
100
AcDbEntity
  8
0
 62
7
100
AcDbLine
 10
8.732737
 20
3.482483
 30
0.0
 11
9.074705
 21
3.286198
 31
0.0
  0
LINE
  5
1b0
100
AcDbEntity
  8
0
 62
7
100
AcDbLine
 10
9.074705
 20
3.286198
 30
0.0
 11
9.500226
 21
3.290902
 31
0.0
  0
LINE
  5
1b1
100
AcDbEntity
  8
0
 62
7
100
AcDbLine
 10
9.500226
 20
3.290902
 30
0.0
 11
9.926212
 21
3.289774
 31
0.0
  0
LINE
  5
1b2
100
AcDbEntity
  8
0
 62
7
100
AcDbLine
 10
9.926212
 20
3.289774
 30
0.0
 11
10.352430
 21
3.285715
 31
0.0
  0
LINE
  5
1b3
100
AcDbEntity
  8
0
 62
7
100
AcDbLine
 10
10.352430
 20
3.285715
 30
0.0
 11
10.778648
 21
3.281671
 31
0.0
  0
LINE
  5
1b4
100
AcDbEntity
  8
0
 62
7
100
AcDbLine
 10
10.778648
 20
3.281671
 30
0.0
 11
11.204631
 21
3.280570
 31
0.0
  0
LINE
  5
1b5
100
AcDbEntity
  8
0
 62
7
100
AcDbLine
 10
11.204631
 20
3.280570
 30
0.0
 11
11.630146
 21
3.285343
 31
0.0
  0
LINE
  5
1b6
100
AcDbEntity
  8
0
 62
7
100
AcDbLine
 10
11.630146
 20
3.285343
 30
0.0
 11
12.054959
 21
3.298920
 31
0.0
  0
LINE
  5
1b7
100
AcDbEntity
  8
0
 62
7
100
AcDbLine
 10
12.054959
 20
3.298920
 30
0.0
 11
12.478838
 21
3.324233
 31
0.0
  0
LINE
  5
1b8
100
AcDbEntity
  8
0
 62
7
100
AcDbLine
 10
12.478838
 20
3.324233
 30
0.0
 11
12.649794
 21
3.645281
 31
0.0
  0
LINE
  5
1b9
100
AcDbEntity
  8
0
 62
7
100
AcDbLine
 10
12.649794
 20
3.645281
 30
0.0
 11
12.680344
 21
4.016035
 31
0.0
  0
LINE
  5
1ba
100
AcDbEntity
  8
0
 62
7
100
AcDbLine
 10
12.680344
 20
4.016035
 30
0.0
 11
12.611949
 21
4.418490
 31
0.0
  0
LINE
  5
1bb
100
AcDbEntity
  8
0
 62
7
100
AcDbLine
 10
12.611949
 20
4.418490
 30
0.0
 11
12.486068
 21
4.834639
 31
0.0
  0
LINE
  5
1bc
100
AcDbEntity
  8
0
 62
7
100
AcDbLine
 10
12.486068
 20
4.834639
 30
0.0
 11
12.344160
 21
5.246478
 31
0.0
  0
LINE
  5
1bd
100
AcDbEntity
  8
0
 62
7
100
AcDbLine
 10
12.344160
 20
5.246478
 30
0.0
 11
12.227685
 21
5.636000
 31
0.0
  0
LINE
  5
1be
100
AcDbEntity
  8
0
 62
7
100
AcDbLine
 10
12.227685
 20
5.636000
 30
0.0
 11
12.178101
 21
5.985199
 31
0.0
  0
LINE
  5
1bf
100
AcDbEntity
  8
0
 62
7
100
AcDbLine
 10
12.178101
 20
5.985199
 30
0.0
 11
12.236870
 21
6.276070
 31
0.0
  0
LINE
  5
1c0
100
AcDbEntity
  8
0
 62
7
100
AcDbLine
 10
12.236870
 20
6.276070
 30
0.0
 11
12.683263
 21
6.280786
 31
0.0
  0
LINE
  5
1c1
100
AcDbEntity
  8
0
 62
7
100
AcDbLine
 10
12.683263
 20
6.280786
 30
0.0
 11
13.130080
 21
6.279685
 31
0.0
  0
LINE
  5
1c2
100
AcDbEntity
  8
0
 62
7
100
AcDbLine
 10
13.130080
 20
6.279685
 30
0.0
 11
13.577109
 21
6.275669
 31
0.0
  0
LINE
  5
1c3
100
AcDbEntity
  8
0
 62
7
100
AcDbLine
 10
13.577109
 20
6.275669
 30
0.0
 11
14.024137
 21
6.271656
 31
0.0
  0
LINE
  5
1c4
100
AcDbEntity
  8
0
 62
7
100
AcDbLine
 10
14.024137
 20
6.271656
 30
0.0
 11
14.470953
 21
6.270556
 31
0.0
  0
LINE
  5
1c5
100
AcDbEntity
  8
0
 62
7
100
AcDbLine
 10
14.470953
 20
6.270556
 30
0.0
 11
14.917346
 21
6.275280
 31
0.0
  0
LINE
  5
1c6
100
AcDbEntity
  8
0
 62
7
100
AcDbLine
 10
14.917346
 20
6.275280
 30
0.0
 11
15.363104
 21
6.288742
 31
0.0
  0
LINE
  5
1c7
100
AcDbEntity
  8
0
 62
7
100
AcDbLine
 10
15.363104
 20
6.288742
 30
0.0
 11
15.808015
 21
6.313851
 31
0.0
  0
LINE
  5
1c8
100
AcDbEntity
  8
0
 62
7
100
AcDbLine
 10
15.808015
 20
6.313851
 30
0.0
 11
16.021611
 21
6.445348
 31
0.0
  0
LINE
  5
1c9
100
AcDbEntity
  8
0
 62
7
100
AcDbLine
 10
16.021611
 20
6.445348
 30
0.0
 11
16.192168
 21
6.613886
 31
0.0
  0
LINE
  5
1ca
100
AcDbEntity
  8
0
 62
7
100
AcDbLine
 10
16.192168
 20
6.613886
 30
0.0
 11
16.329003
 21
6.811259
 31
0.0
  0
LINE
  5
1cb
100
AcDbEntity
  8
0
 62
7
100
AcDbLine
 10
16.329003
 20
6.811259
 30
0.0
 11
16.441431
 21
7.029261
 31
0.0
  0
LINE
  5
1cc
100
AcDbEntity
  8
0
 62
7
100
AcDbLine
 10
16.441431
 20
7.029261
 30
0.0
 11
16.538769
 21
7.259687
 31
0.0
  0
LINE
  5
1cd
100
AcDbEntity
  8
0
 62
7
100
AcDbLine
 10
16.538769
 20
7.259687
 30
0.0
 11
16.630335
 21
7.494330
 31
0.0
  0
LINE
  5
1ce
100
AcDbEntity
  8
0
 62
7
100
AcDbLine
 10
16.630335
 20
7.494330
 30
0.0
 11
16.725444
 21
7.724984
 31
0.0
  0
LINE
  5
1cf
100
AcDbEntity
  8
0
 62
7
100
AcDbLine
 10
16.725444
 20
7.724984
 30
0.0
 11
16.833412
 21
7.943442
 31
0.0
  0
LINE
  5
1d0
100
AcDbEntity
  8
0
 62
7
100
AcDbLine
 10
16.833412
 20
7.943442
 30
0.0
 11
16.833337
 21
9.495833
 31
0.0
  0
LINE
  5
1d1
100
AcDbEntity
  8
0
 62
7
100
AcDbLine
 10
16.833337
 20
9.495833
 30
0.0
 11
16.833356
 21
11.048319
 31
0.0
  0
LINE
  5
1d2
100
AcDbEntity
  8
0
 62
7
100
AcDbLine
 10
16.833356
 20
11.048319
 30
0.0
 11
16.833422
 21
12.600853
 31
0.0
  0
LINE
  5
1d3
100
AcDbEntity
  8
0
 62
7
100
AcDbLine
 10
16.833422
 20
12.600853
 30
0.0
 11
16.833490
 21
14.153389
 31
0.0
  0
LINE
  5
1d4
100
AcDbEntity
  8
0
 62
7
100
AcDbLine
 10
16.833490
 20
14.153389
 30
0.0
 11
16.833512
 21
15.705882
 31
0.0
  0
LINE
  5
1d5
100
AcDbEntity
  8
0
 62
7
100
AcDbLine
 10
16.833512
 20
15.705882
 30
0.0
 11
16.833444
 21
17.258284
 31
0.0
  0
LINE
  5
1d6
100
AcDbEntity
  8
0
 62
7
100
AcDbLine
 10
16.833444
 20
17.258284
 30
0.0
 11
16.833238
 21
18.810549
 31
0.0
  0
LINE
  5
1d7
100
AcDbEntity
  8
0
 62
7
100
AcDbLine
 10
16.833238
 20
18.810549
 30
0.0
 11
16.832843
 21
20.362631
 31
0.0
  0
LINE
  5
1d8
100
AcDbEntity
  8
0
 62
7
100
AcDbLine
 10
16.832843
 20
20.362631
 30
0.0
 11
16.832844
 21
20.362631
 31
0.0
  0
LINE
  5
1d9
100
AcDbEntity
  8
0
 62
7
100
AcDbLine
 10
16.832844
 20
20.362631
 30
0.0
 11
16.832846
 21
20.362631
 31
0.0
  0
LINE
  5
1da
100
AcDbEntity
  8
0
 62
7
100
AcDbLine
 10
16.832846
 20
20.362631
 30
0.0
 11
16.832848
 21
20.362631
 31
0.0
  0
LINE
  5
1db
100
AcDbEntity
  8
0
 62
7
100
AcDbLine
 10
16.832848
 20
20.362631
 30
0.0
 11
16.832849
 21
20.362631
 31
0.0
  0
LINE
  5
1dc
100
AcDbEntity
  8
0
 62
7
100
AcDbLine
 10
16.832849
 20
20.362631
 30
0.0
 11
16.832851
 21
20.362631
 31
0.0
  0
LINE
  5
1dd
100
AcDbEntity
  8
0
 62
7
100
AcDbLine
 10
16.832851
 20
20.362631
 30
0.0
 11
16.832852
 21
20.362631
 31
0.0
  0
LINE
  5
1de
100
AcDbEntity
  8
0
 62
7
100
AcDbLine
 10
16.832852
 20
20.362631
 30
0.0
 11
16.832854
 21
20.362631
 31
0.0
  0
LINE
  5
1df
100
AcDbEntity
  8
0
 62
7
100
AcDbLine
 10
16.832854
 20
20.362631
 30
0.0
 11
16.832862
 21
20.362616
 31
0.0
  0
LINE
  5
1e0
100
AcDbEntity
  8
0
 62
7
100
AcDbLine
 10
13.777242
 20
16.638129
 30
0.0
 11
13.689553
 21
16.496844
 31
0.0
  0
LINE
  5
1e1
100
AcDbEntity
  8
0
 62
7
100
AcDbLine
 10
13.689553
 20
16.496844
 30
0.0
 11
13.565206
 21
16.413811
 31
0.0
  0
LINE
  5
1e2
100
AcDbEntity
  8
0
 62
7
100
AcDbLine
 10
13.565206
 20
16.413811
 30
0.0
 11
13.412964
 21
16.375578
 31
0.0
  0
LINE
  5
1e3
100
AcDbEntity
  8
0
 62
7
100
AcDbLine
 10
13.412964
 20
16.375578
 30
0.0
 11
13.241590
 21
16.368691
 31
0.0
  0
LINE
  5
1e4
100
AcDbEntity
  8
0
 62
7
100
AcDbLine
 10
13.241590
 20
16.368691
 30
0.0
 11
13.059847
 21
16.379698
 31
0.0
  0
LINE
  5
1e5
100
AcDbEntity
  8
0
 62
7
100
AcDbLine
 10
13.059847
 20
16.379698
 30
0.0
 11
12.876500
 21
16.395144
 31
0.0
  0
LINE
  5
1e6
100
AcDbEntity
  8
0
 62
7
100
AcDbLine
 10
12.876500
 20
16.395144
 30
0.0
 11
12.700310
 21
16.401576
 31
0.0
  0
LINE
  5
1e7
100
AcDbEntity
  8
0
 62
7
100
AcDbLine
 10
12.700310
 20
16.401576
 30
0.0
 11
12.540041
 21
16.385543
 31
0.0
  0
LINE
  5
1e8
100
AcDbEntity
  8
0
 62
7
100
AcDbLine
 10
12.540041
 20
16.385543
 30
0.0
 11
11.925973
 21
16.388309
 31
0.0
  0
LINE
  5
1e9
100
AcDbEntity
  8
0
 62
7
100
AcDbLine
 10
11.925973
 20
16.388309
 30
0.0
 11
11.311571
 21
16.387716
 31
0.0
  0
LINE
  5
1ea
100
AcDbEntity
  8
0
 62
7
100
AcDbLine
 10
11.311571
 20
16.387716
 30
0.0
 11
10.696997
 21
16.385430
 31
0.0
  0
LINE
  5
1eb
100
AcDbEntity
  8
0
 62
7
100
AcDbLine
 10
10.696997
 20
16.385430
 30
0.0
 11
10.082416
 21
16.383059
 31
0.0
  0
LINE
  5
1ec
100
AcDbEntity
  8
0
 62
7
100
AcDbLine
 10
10.082416
 20
16.383059
 30
0.0
 11
9.467989
 21
16.382241
 31
0.0
  0
LINE
  5
1ed
100
AcDbEntity
  8
0
 62
7
100
AcDbLine
 10
9.467989
 20
16.382241
 30
0.0
 11
8.853880
 21
16.384583
 31
0.0
  0
LINE
  5
1ee
100
AcDbEntity
  8
0
 62
7
100
AcDbLine
 10
8.853880
 20
16.384583
 30
0.0
 11
8.240252
 21
16.391752
 31
0.0
  0
LINE
  5
1ef
100
AcDbEntity
  8
0
 62
7
100
AcDbLine
 10
8.240252
 20
16.391752
 30
0.0
 11
7.627267
 21
16.405369
 31
0.0
  0
LINE
  5
1f0
100
AcDbEntity
  8
0
 62
7
100
AcDbLine
 10
7.627267
 20
16.405369
 30
0.0
 11
7.495843
 21
16.568899
 31
0.0
  0
LINE
  5
1f1
100
AcDbEntity
  8
0
 62
7
100
AcDbLine
 10
7.495843
 20
16.568899
 30
0.0
 11
7.454559
 21
16.722615
 31
0.0
  0
LINE
  5
1f2
100
AcDbEntity
  8
0
 62
7
100
AcDbLine
 10
7.454559
 20
16.722615
 30
0.0
 11
7.488249
 21
16.860309
 31
0.0
  0
LINE
  5
1f3
100
AcDbEntity
  8
0
 62
7
100
AcDbLine
 10
7.488249
 20
16.860309
 30
0.0
 11
7.581748
 21
16.975771
 31
0.0
  0
LINE
  5
1f4
100
AcDbEntity
  8
0
 62
7
100
AcDbLine
 10
7.581748
 20
16.975771
 30
0.0
 11
7.719890
 21
17.062791
 31
0.0
  0
LINE
  5
1f5
100
AcDbEntity
  8
0
 62
7
100
AcDbLine
 10
7.719890
 20
17.062791
 30
0.0
 11
7.887511
 21
17.115159
 31
0.0
  0
LINE
  5
1f6
100
AcDbEntity
  8
0
 62
7
100
AcDbLine
 10
7.887511
 20
17.115159
 30
0.0
 11
8.069445
 21
17.126665
 31
0.0
  0
LINE
  5
1f7
100
AcDbEntity
  8
0
 62
7
100
AcDbLine
 10
8.069445
 20
17.126665
 30
0.0
 11
8.250527
 21
17.091102
 31
0.0
  0
LINE
  5
1f8
100
AcDbEntity
  8
0
 62
7
100
AcDbLine
 10
8.250527
 20
17.091102
 30
0.0
 11
8.922035
 21
17.088336
 31
0.0
  0
LINE
  5
1f9
100
AcDbEntity
  8
0
 62
7
100
AcDbLine
 10
8.922035
 20
17.088336
 30
0.0
 11
9.593875
 21
17.088929
 31
0.0
  0
LINE
  5
1fa
100
AcDbEntity
  8
0
 62
7
100
AcDbLine
 10
9.593875
 20
17.088929
 30
0.0
 11
10.265885
 21
17.091215
 31
0.0
  0
LINE
  5
1fb
100
AcDbEntity
  8
0
 62
7
100
AcDbLine
 10
10.265885
 20
17.091215
 30
0.0
 11
10.937903
 21
17.093585
 31
0.0
  0
LINE
  5
1fc
100
AcDbEntity
  8
0
 62
7
100
AcDbLine
 10
10.937903
 20
17.093585
 30
0.0
 11
11.609767
 21
17.094404
 31
0.0
  0
LINE
  5
1fd
100
AcDbEntity
  8
0
 62
7
100
AcDbLine
 10
11.609767
 20
17.094404
 30
0.0
 11
12.281316
 21
17.092061
 31
0.0
  0
LINE
  5
1fe
100
AcDbEntity
  8
0
 62
7
100
AcDbLine
 10
12.281316
 20
17.092061
 30
0.0
 11
12.952387
 21
17.084910
 31
0.0
  0
LINE
  5
1ff
100
AcDbEntity
  8
0
 62
7
100
AcDbLine
 10
12.952387
 20
17.084910
 30
0.0
 11
13.622818
 21
17.071326
 31
0.0
  0
LINE
  5
200
100
AcDbEntity
  8
0
 62
7
100
AcDbLine
 10
13.622818
 20
17.071326
 30
0.0
 11
13.682461
 21
17.038763
 31
0.0
  0
LINE
  5
201
100
AcDbEntity
  8
0
 62
7
100
AcDbLine
 10
13.682461
 20
17.038763
 30
0.0
 11
13.724779
 21
16.995686
 31
0.0
  0
LINE
  5
202
100
AcDbEntity
  8
0
 62
7
100
AcDbLine
 10
13.724779
 20
16.995686
 30
0.0
 11
13.752671
 21
16.944269
 31
0.0
  0
LINE
  5
203
100
AcDbEntity
  8
0
 62
7
100
AcDbLine
 10
13.752671
 20
16.944269
 30
0.0
 11
13.769037
 21
16.886685
 31
0.0
  0
LINE
  5
204
100
AcDbEntity
  8
0
 62
7
100
AcDbLine
 10
13.769037
 20
16.886685
 30
0.0
 11
13.776778
 21
16.825108
 31
0.0
  0
LINE
  5
205
100
AcDbEntity
  8
0
 62
7
100
AcDbLine
 10
13.776778
 20
16.825108
 30
0.0
 11
13.778782
 21
16.761709
 31
0.0
  0
LINE
  5
206
100
AcDbEntity
  8
0
 62
7
100
AcDbLine
 10
13.778782
 20
16.761709
 30
0.0
 11
13.777963
 21
16.698661
 31
0.0
  0
LINE
  5
207
100
AcDbEntity
  8
0
 62
7
100
AcDbLine
 10
13.777963
 20
16.698661
 30
0.0
 11
13.777242
 21
16.638129
 31
0.0
  0
LINE
  5
208
100
AcDbEntity
  8
0
 62
7
100
AcDbLine
 10
13.777242
 20
18.137011
 30
0.0
 11
13.689450
 21
17.995858
 31
0.0
  0
LINE
  5
209
100
AcDbEntity
  8
0
 62
7
100
AcDbLine
 10
13.689450
 20
17.995858
 30
0.0
 11
13.565054
 21
17.912910
 31
0.0
  0
LINE
  5
20a
100
AcDbEntity
  8
0
 62
7
100
AcDbLine
 10
13.565054
 20
17.912910
 30
0.0
 11
13.412804
 21
17.874726
 31
0.0
  0
LINE
  5
20b
100
AcDbEntity
  8
0
 62
7
100
AcDbLine
 10
13.412804
 20
17.874726
 30
0.0
 11
13.241451
 21
17.867859
 31
0.0
  0
LINE
  5
20c
100
AcDbEntity
  8
0
 62
7
100
AcDbLine
 10
13.241451
 20
17.867859
 30
0.0
 11
13.059748
 21
17.878869
 31
0.0
  0
LINE
  5
20d
100
AcDbEntity
  8
0
 62
7
100
AcDbLine
 10
13.059748
 20
17.878869
 30
0.0
 11
12.876444
 21
17.894309
 31
0.0
  0
LINE
  5
20e
100
AcDbEntity
  8
0
 62
7
100
AcDbLine
 10
12.876444
 20
17.894309
 30
0.0
 11
12.700292
 21
17.900736
 31
0.0
  0
LINE
  5
20f
100
AcDbEntity
  8
0
 62
7
100
AcDbLine
 10
12.700292
 20
17.900736
 30
0.0
 11
12.540041
 21
17.884705
 31
0.0
  0
LINE
  5
210
100
AcDbEntity
  8
0
 62
7
100
AcDbLine
 10
12.540041
 20
17.884705
 30
0.0
 11
11.925973
 21
17.887471
 31
0.0
  0
LINE
  5
211
100
AcDbEntity
  8
0
 62
7
100
AcDbLine
 10
11.925973
 20
17.887471
 30
0.0
 11
11.311571
 21
17.886878
 31
0.0
  0
LINE
  5
212
100
AcDbEntity
  8
0
 62
7
100
AcDbLine
 10
11.311571
 20
17.886878
 30
0.0
 11
10.696998
 21
17.884592
 31
0.0
  0
LINE
  5
213
100
AcDbEntity
  8
0
 62
7
100
AcDbLine
 10
10.696998
 20
17.884592
 30
0.0
 11
10.082417
 21
17.882222
 31
0.0
  0
LINE
  5
214
100
AcDbEntity
  8
0
 62
7
100
AcDbLine
 10
10.082417
 20
17.882222
 30
0.0
 11
9.467990
 21
17.881403
 31
0.0
  0
LINE
  5
215
100
AcDbEntity
  8
0
 62
7
100
AcDbLine
 10
9.467990
 20
17.881403
 30
0.0
 11
8.853881
 21
17.883746
 31
0.0
  0
LINE
  5
216
100
AcDbEntity
  8
0
 62
7
100
AcDbLine
 10
8.853881
 20
17.883746
 30
0.0
 11
8.240252
 21
17.890914
 31
0.0
  0
LINE
  5
217
100
AcDbEntity
  8
0
 62
7
100
AcDbLine
 10
8.240252
 20
17.890914
 30
0.0
 11
7.627267
 21
17.904531
 31
0.0
  0
LINE
  5
218
100
AcDbEntity
  8
0
 62
7
100
AcDbLine
 10
7.627267
 20
17.904531
 30
0.0
 11
7.495857
 21
18.067998
 31
0.0
  0
LINE
  5
219
100
AcDbEntity
  8
0
 62
7
100
AcDbLine
 10
7.495857
 20
18.067998
 30
0.0
 11
7.454583
 21
18.221691
 31
0.0
  0
LINE
  5
21a
100
AcDbEntity
  8
0
 62
7
100
AcDbLine
 10
7.454583
 20
18.221691
 30
0.0
 11
7.488280
 21
18.359391
 31
0.0
  0
LINE
  5
21b
100
AcDbEntity
  8
0
 62
7
100
AcDbLine
 10
7.488280
 20
18.359391
 30
0.0
 11
7.581782
 21
18.474877
 31
0.0
  0
LINE
  5
21c
100
AcDbEntity
  8
0
 62
7
100
AcDbLine
 10
7.581782
 20
18.474877
 30
0.0
 11
7.719923
 21
18.561928
 31
0.0
  0
LINE
  5
21d
100
AcDbEntity
  8
0
 62
7
100
AcDbLine
 10
7.719923
 20
18.561928
 30
0.0
 11
7.887538
 21
18.614324
 31
0.0
  0
LINE
  5
21e
100
AcDbEntity
  8
0
 62
7
100
AcDbLine
 10
7.887538
 20
18.614324
 30
0.0
 11
8.069461
 21
18.625844
 31
0.0
  0
LINE
  5
21f
100
AcDbEntity
  8
0
 62
7
100
AcDbLine
 10
8.069461
 20
18.625844
 30
0.0
 11
8.250527
 21
18.590269
 31
0.0
  0
LINE
  5
220
100
AcDbEntity
  8
0
 62
7
100
AcDbLine
 10
8.250527
 20
18.590269
 30
0.0
 11
8.922035
 21
18.587503
 31
0.0
  0
LINE
  5
221
100
AcDbEntity
  8
0
 62
7
100
AcDbLine
 10
8.922035
 20
18.587503
 30
0.0
 11
9.593876
 21
18.588096
 31
0.0
  0
LINE
  5
222
100
AcDbEntity
  8
0
 62
7
100
AcDbLine
 10
9.593876
 20
18.588096
 30
0.0
 11
10.265888
 21
18.590382
 31
0.0
  0
LINE
  5
223
100
AcDbEntity
  8
0
 62
7
100
AcDbLine
 10
10.265888
 20
18.590382
 30
0.0
 11
10.937909
 21
18.592753
 31
0.0
  0
LINE
  5
224
100
AcDbEntity
  8
0
 62
7
100
AcDbLine
 10
10.937909
 20
18.592753
 30
0.0
 11
11.609774
 21
18.593571
 31
0.0
  0
LINE
  5
225
100
AcDbEntity
  8
0
 62
7
100
AcDbLine
 10
11.609774
 20
18.593571
 30
0.0
 11
12.281323
 21
18.591229
 31
0.0
  0
LINE
  5
226
100
AcDbEntity
  8
0
 62
7
100
AcDbLine
 10
12.281323
 20
18.591229
 30
0.0
 11
12.952392
 21
18.584060
 31
0.0
  0
LINE
  5
227
100
AcDbEntity
  8
0
 62
7
100
AcDbLine
 10
12.952392
 20
18.584060
 30
0.0
 11
13.622818
 21
18.570446
 31
0.0
  0
LINE
  5
228
100
AcDbEntity
  8
0
 62
7
100
AcDbLine
 10
13.622818
 20
18.570446
 30
0.0
 11
13.682445
 21
18.537825
 31
0.0
  0
LINE
  5
229
100
AcDbEntity
  8
0
 62
7
100
AcDbLine
 10
13.682445
 20
18.537825
 30
0.0
 11
13.724757
 21
18.494706
 31
0.0
  0
LINE
  5
22a
100
AcDbEntity
  8
0
 62
7
100
AcDbLine
 10
13.724757
 20
18.494706
 30
0.0
 11
13.752649
 21
18.443258
 31
0.0
  0
LINE
  5
22b
100
AcDbEntity
  8
0
 62
7
100
AcDbLine
 10
13.752649
 20
18.443258
 30
0.0
 11
13.769020
 21
18.385650
 31
0.0
  0
LINE
  5
22c
100
AcDbEntity
  8
0
 62
7
100
AcDbLine
 10
13.769020
 20
18.385650
 30
0.0
 11
13.776770
 21
18.324052
 31
0.0
  0
LINE
  5
22d
100
AcDbEntity
  8
0
 62
7
100
AcDbLine
 10
13.776770
 20
18.324052
 30
0.0
 11
13.778802
 21
18.260634
 31
0.0
  0
LINE
  5
22e
100
AcDbEntity
  8
0
 62
7
100
AcDbLine
 10
13.778802
 20
18.260634
 30
0.0
 11
13.777984
 21
18.197566
 31
0.0
  0
LINE
  5
22f
100
AcDbEntity
  8
0
 62
7
100
AcDbLine
 10
13.777984
 20
18.197566
 30
0.0
 11
13.777242
 21
18.137011
 31
0.0
  0
LINE
  5
230
100
AcDbEntity
  8
0
 62
7
100
AcDbLine
 10
13.777242
 20
19.636176
 30
0.0
 11
13.689450
 21
19.495022
 31
0.0
  0
LINE
  5
231
100
AcDbEntity
  8
0
 62
7
100
AcDbLine
 10
13.689450
 20
19.495022
 30
0.0
 11
13.565054
 21
19.412075
 31
0.0
  0
LINE
  5
232
100
AcDbEntity
  8
0
 62
7
100
AcDbLine
 10
13.565054
 20
19.412075
 30
0.0
 11
13.412804
 21
19.373890
 31
0.0
  0
LINE
  5
233
100
AcDbEntity
  8
0
 62
7
100
AcDbLine
 10
13.412804
 20
19.373890
 30
0.0
 11
13.241451
 21
19.367024
 31
0.0
  0
LINE
  5
234
100
AcDbEntity
  8
0
 62
7
100
AcDbLine
 10
13.241451
 20
19.367024
 30
0.0
 11
13.059748
 21
19.378033
 31
0.0
  0
LINE
  5
235
100
AcDbEntity
  8
0
 62
7
100
AcDbLine
 10
13.059748
 20
19.378033
 30
0.0
 11
12.876444
 21
19.393474
 31
0.0
  0
LINE
  5
236
100
AcDbEntity
  8
0
 62
7
100
AcDbLine
 10
12.876444
 20
19.393474
 30
0.0
 11
12.700292
 21
19.399900
 31
0.0
  0
LINE
  5
237
100
AcDbEntity
  8
0
 62
7
100
AcDbLine
 10
12.700292
 20
19.399900
 30
0.0
 11
12.540041
 21
19.383870
 31
0.0
  0
LINE
  5
238
100
AcDbEntity
  8
0
 62
7
100
AcDbLine
 10
12.540041
 20
19.383870
 30
0.0
 11
11.925973
 21
19.386636
 31
0.0
  0
LINE
  5
239
100
AcDbEntity
  8
0
 62
7
100
AcDbLine
 10
11.925973
 20
19.386636
 30
0.0
 11
11.311571
 21
19.386043
 31
0.0
  0
LINE
  5
23a
100
AcDbEntity
  8
0
 62
7
100
AcDbLine
 10
11.311571
 20
19.386043
 30
0.0
 11
10.696998
 21
19.383757
 31
0.0
  0
LINE
  5
23b
100
AcDbEntity
  8
0
 62
7
100
AcDbLine
 10
10.696998
 20
19.383757
 30
0.0
 11
10.082417
 21
19.381386
 31
0.0
  0
LINE
  5
23c
100
AcDbEntity
  8
0
 62
7
100
AcDbLine
 10
10.082417
 20
19.381386
 30
0.0
 11
9.467990
 21
19.380568
 31
0.0
  0
LINE
  5
23d
100
AcDbEntity
  8
0
 62
7
100
AcDbLine
 10
9.467990
 20
19.380568
 30
0.0
 11
8.853881
 21
19.382910
 31
0.0
  0
LINE
  5
23e
100
AcDbEntity
  8
0
 62
7
100
AcDbLine
 10
8.853881
 20
19.382910
 30
0.0
 11
8.240252
 21
19.390079
 31
0.0
  0
LINE
  5
23f
100
AcDbEntity
  8
0
 62
7
100
AcDbLine
 10
8.240252
 20
19.390079
 30
0.0
 11
7.627267
 21
19.403693
 31
0.0
  0
LINE
  5
240
100
AcDbEntity
  8
0
 62
7
100
AcDbLine
 10
7.627267
 20
19.403693
 30
0.0
 11
7.495859
 21
19.567180
 31
0.0
  0
LINE
  5
241
100
AcDbEntity
  8
0
 62
7
100
AcDbLine
 10
7.495859
 20
19.567180
 30
0.0
 11
7.454570
 21
19.720918
 31
0.0
  0
LINE
  5
242
100
AcDbEntity
  8
0
 62
7
100
AcDbLine
 10
7.454570
 20
19.720918
 30
0.0
 11
7.488241
 21
19.858676
 31
0.0
  0
LINE
  5
243
100
AcDbEntity
  8
0
 62
7
100
AcDbLine
 10
7.488241
 20
19.858676
 30
0.0
 11
7.581718
 21
19.974224
 31
0.0
  0
LINE
  5
244
100
AcDbEntity
  8
0
 62
7
100
AcDbLine
 10
7.581718
 20
19.974224
 30
0.0
 11
7.719841
 21
20.061332
 31
0.0
  0
LINE
  5
245
100
AcDbEntity
  8
0
 62
7
100
AcDbLine
 10
7.719841
 20
20.061332
 30
0.0
 11
7.887456
 21
20.113769
 31
0.0
  0
LINE
  5
246
100
AcDbEntity
  8
0
 62
7
100
AcDbLine
 10
7.887456
 20
20.113769
 30
0.0
 11
8.069403
 21
20.125307
 31
0.0
  0
LINE
  5
247
100
AcDbEntity
  8
0
 62
7
100
AcDbLine
 10
8.069403
 20
20.125307
 30
0.0
 11
8.250527
 21
20.089713
 31
0.0
  0
LINE
  5
248
100
AcDbEntity
  8
0
 62
7
100
AcDbLine
 10
8.250527
 20
20.089713
 30
0.0
 11
8.922035
 21
20.086948
 31
0.0
  0
LINE
  5
249
100
AcDbEntity
  8
0
 62
7
100
AcDbLine
 10
8.922035
 20
20.086948
 30
0.0
 11
9.593876
 21
20.087540
 31
0.0
  0
LINE
  5
24a
100
AcDbEntity
  8
0
 62
7
100
AcDbLine
 10
9.593876
 20
20.087540
 30
0.0
 11
10.265888
 21
20.089826
 31
0.0
  0
LINE
  5
24b
100
AcDbEntity
  8
0
 62
7
100
AcDbLine
 10
10.265888
 20
20.089826
 30
0.0
 11
10.937909
 21
20.092197
 31
0.0
  0
LINE
  5
24c
100
AcDbEntity
  8
0
 62
7
100
AcDbLine
 10
10.937909
 20
20.092197
 30
0.0
 11
11.609774
 21
20.093015
 31
0.0
  0
LINE
  5
24d
100
AcDbEntity
  8
0
 62
7
100
AcDbLine
 10
11.609774
 20
20.093015
 30
0.0
 11
12.281323
 21
20.090673
 31
0.0
  0
LINE
  5
24e
100
AcDbEntity
  8
0
 62
7
100
AcDbLine
 10
12.281323
 20
20.090673
 30
0.0
 11
12.952392
 21
20.083505
 31
0.0
  0
LINE
  5
24f
100
AcDbEntity
  8
0
 62
7
100
AcDbLine
 10
12.952392
 20
20.083505
 30
0.0
 11
13.622818
 21
20.069890
 31
0.0
  0
LINE
  5
250
100
AcDbEntity
  8
0
 62
7
100
AcDbLine
 10
13.622818
 20
20.069890
 30
0.0
 11
13.682476
 21
20.037246
 31
0.0
  0
LINE
  5
251
100
AcDbEntity
  8
0
 62
7
100
AcDbLine
 10
13.682476
 20
20.037246
 30
0.0
 11
13.724799
 21
19.994094
 31
0.0
  0
LINE
  5
252
100
AcDbEntity
  8
0
 62
7
100
AcDbLine
 10
13.724799
 20
19.994094
 30
0.0
 11
13.752688
 21
19.942608
 31
0.0
  0
LINE
  5
253
100
AcDbEntity
  8
0
 62
7
100
AcDbLine
 10
13.752688
 20
19.942608
 30
0.0
 11
13.769048
 21
19.884960
 31
0.0
  0
LINE
  5
254
100
AcDbEntity
  8
0
 62
7
100
AcDbLine
 10
13.769048
 20
19.884960
 30
0.0
 11
13.776781
 21
19.823320
 31
0.0
  0
LINE
  5
255
100
AcDbEntity
  8
0
 62
7
100
AcDbLine
 10
13.776781
 20
19.823320
 30
0.0
 11
13.778785
 21
19.759863
 31
0.0
  0
LINE
  5
256
100
AcDbEntity
  8
0
 62
7
100
AcDbLine
 10
13.778785
 20
19.759863
 30
0.0
 11
13.777966
 21
19.696758
 31
0.0
  0
LINE
  5
257
100
AcDbEntity
  8
0
 62
7
100
AcDbLine
 10
13.777966
 20
19.696758
 30
0.0
 11
13.777242
 21
19.636176
 31
0.0
  0
LINE
  5
258
100
AcDbEntity
  8
0
 62
7
100
AcDbLine
 10
0.681849
 20
6.690078
 30
0.0
 11
0.834827
 21
6.867580
 31
0.0
  0
LINE
  5
259
100
AcDbEntity
  8
0
 62
7
100
AcDbLine
 10
0.834827
 20
6.867580
 30
0.0
 11
0.978580
 21
7.028479
 31
0.0
  0
LINE
  5
25a
100
AcDbEntity
  8
0
 62
7
100
AcDbLine
 10
0.978580
 20
7.028479
 30
0.0
 11
1.107051
 21
7.182430
 31
0.0
  0
LINE
  5
25b
100
AcDbEntity
  8
0
 62
7
100
AcDbLine
 10
1.107051
 20
7.182430
 30
0.0
 11
1.214180
 21
7.339089
 31
0.0
  0
LINE
  5
25c
100
AcDbEntity
  8
0
 62
7
100
AcDbLine
 10
1.214180
 20
7.339089
 30
0.0
 11
1.293908
 21
7.508113
 31
0.0
  0
LINE
  5
25d
100
AcDbEntity
  8
0
 62
7
100
AcDbLine
 10
1.293908
 20
7.508113
 30
0.0
 11
1.340177
 21
7.699157
 31
0.0
  0
LINE
  5
25e
100
AcDbEntity
  8
0
 62
7
100
AcDbLine
 10
1.340177
 20
7.699157
 30
0.0
 11
1.346927
 21
7.921878
 31
0.0
  0
LINE
  5
25f
100
AcDbEntity
  8
0
 62
7
100
AcDbLine
 10
1.346927
 20
7.921878
 30
0.0
 11
1.308100
 21
8.185931
 31
0.0
  0
LINE
  5
260
100
AcDbEntity
  8
0
 62
7
100
AcDbLine
 10
1.308100
 20
8.185931
 30
0.0
 11
1.308100
 21
9.708016
 31
0.0
  0
LINE
  5
261
100
AcDbEntity
  8
0
 62
7
100
AcDbLine
 10
1.308100
 20
9.708016
 30
0.0
 11
1.308100
 21
11.230102
 31
0.0
  0
LINE
  5
262
100
AcDbEntity
  8
0
 62
7
100
AcDbLine
 10
1.308100
 20
11.230102
 30
0.0
 11
1.308100
 21
12.752188
 31
0.0
  0
LINE
  5
263
100
AcDbEntity
  8
0
 62
7
100
AcDbLine
 10
1.308100
 20
12.752188
 30
0.0
 11
1.308100
 21
14.274273
 31
0.0
  0
LINE
  5
264
100
AcDbEntity
  8
0
 62
7
100
AcDbLine
 10
1.308100
 20
14.274273
 30
0.0
 11
1.308100
 21
15.796359
 31
0.0
  0
LINE
  5
265
100
AcDbEntity
  8
0
 62
7
100
AcDbLine
 10
1.308100
 20
15.796359
 30
0.0
 11
1.308100
 21
17.318444
 31
0.0
  0
LINE
  5
266
100
AcDbEntity
  8
0
 62
7
100
AcDbLine
 10
1.308100
 20
17.318444
 30
0.0
 11
1.308100
 21
18.840530
 31
0.0
  0
LINE
  5
267
100
AcDbEntity
  8
0
 62
7
100
AcDbLine
 10
1.308100
 20
18.840530
 30
0.0
 11
1.308100
 21
20.362616
 31
0.0
  0
LINE
  5
268
100
AcDbEntity
  8
0
 62
7
100
AcDbLine
 10
1.308100
 20
20.362616
 30
0.0
 11
1.382201
 21
20.586988
 31
0.0
  0
LINE
  5
269
100
AcDbEntity
  8
0
 62
7
100
AcDbLine
 10
1.382201
 20
20.586988
 30
0.0
 11
1.512806
 21
20.732165
 31
0.0
  0
LINE
  5
26a
100
AcDbEntity
  8
0
 62
7
100
AcDbLine
 10
1.512806
 20
20.732165
 30
0.0
 11
1.687277
 21
20.814310
 31
0.0
  0
LINE
  5
26b
100
AcDbEntity
  8
0
 62
7
100
AcDbLine
 10
1.687277
 20
20.814310
 30
0.0
 11
1.892978
 21
20.849585
 31
0.0
  0
LINE
  5
26c
100
AcDbEntity
  8
0
 62
7
100
AcDbLine
 10
1.892978
 20
20.849585
 30
0.0
 11
2.117269
 21
20.854151
 31
0.0
  0
LINE
  5
26d
100
AcDbEntity
  8
0
 62
7
100
AcDbLine
 10
2.117269
 20
20.854151
 30
0.0
 11
2.347514
 21
20.844172
 31
0.0
  0
LINE
  5
26e
100
AcDbEntity
  8
0
 62
7
100
AcDbLine
 10
2.347514
 20
20.844172
 30
0.0
 11
2.571075
 21
20.835807
 31
0.0
  0
LINE
  5
26f
100
AcDbEntity
  8
0
 62
7
100
AcDbLine
 10
2.571075
 20
20.835807
 30
0.0
 11
2.775313
 21
20.845219
 31
0.0
  0
LINE
  5
270
100
AcDbEntity
  8
0
 62
7
100
AcDbLine
 10
2.775313
 20
20.845219
 30
0.0
 11
3.000217
 21
20.871649
 31
0.0
  0
LINE
  5
271
100
AcDbEntity
  8
0
 62
7
100
AcDbLine
 10
3.000217
 20
20.871649
 30
0.0
 11
3.219582
 21
20.858441
 31
0.0
  0
LINE
  5
272
100
AcDbEntity
  8
0
 62
7
100
AcDbLine
 10
3.219582
 20
20.858441
 30
0.0
 11
3.423188
 21
20.805989
 31
0.0
  0
LINE
  5
273
100
AcDbEntity
  8
0
 62
7
100
AcDbLine
 10
3.423188
 20
20.805989
 30
0.0
 11
3.600814
 21
20.714687
 31
0.0
  0
LINE
  5
274
100
AcDbEntity
  8
0
 62
7
100
AcDbLine
 10
3.600814
 20
20.714687
 30
0.0
 11
3.742241
 21
20.584932
 31
0.0
  0
LINE
  5
275
100
AcDbEntity
  8
0
 62
7
100
AcDbLine
 10
3.742241
 20
20.584932
 30
0.0
 11
3.837248
 21
20.417117
 31
0.0
  0
LINE
  5
276
100
AcDbEntity
  8
0
 62
7
100
AcDbLine
 10
3.837248
 20
20.417117
 30
0.0
 11
3.875616
 21
20.211637
 31
0.0
  0
LINE
  5
277
100
AcDbEntity
  8
0
 62
7
100
AcDbLine
 10
3.875616
 20
20.211637
 30
0.0
 11
3.847125
 21
19.968888
 31
0.0
  0
LINE
  5
278
100
AcDbEntity
  8
0
 62
7
100
AcDbLine
 10
3.847125
 20
19.968888
 30
0.0
 11
3.846476
 21
17.955871
 31
0.0
  0
LINE
  5
279
100
AcDbEntity
  8
0
 62
7
100
AcDbLine
 10
3.846476
 20
17.955871
 30
0.0
 11
3.845827
 21
15.942855
 31
0.0
  0
LINE
  5
27a
100
AcDbEntity
  8
0
 62
7
100
AcDbLine
 10
3.845827
 20
15.942855
 30
0.0
 11
3.845178
 21
13.929838
 31
0.0
  0
LINE
  5
27b
100
AcDbEntity
  8
0
 62
7
100
AcDbLine
 10
3.845178
 20
13.929838
 30
0.0
 11
3.844529
 21
11.916822
 31
0.0
  0
LINE
  5
27c
100
AcDbEntity
  8
0
 62
7
100
AcDbLine
 10
3.844529
 20
11.916822
 30
0.0
 11
3.843880
 21
9.903805
 31
0.0
  0
LINE
  5
27d
100
AcDbEntity
  8
0
 62
7
100
AcDbLine
 10
3.843880
 20
9.903805
 30
0.0
 11
3.843231
 21
7.890789
 31
0.0
  0
LINE
  5
27e
100
AcDbEntity
  8
0
 62
7
100
AcDbLine
 10
3.843231
 20
7.890789
 30
0.0
 11
3.842582
 21
5.877772
 31
0.0
  0
LINE
  5
27f
100
AcDbEntity
  8
0
 62
7
100
AcDbLine
 10
3.842582
 20
5.877772
 30
0.0
 11
3.841933
 21
3.864756
 31
0.0
  0
LINE
  5
280
100
AcDbEntity
  8
0
 62
7
100
AcDbLine
 10
3.841933
 20
3.864756
 30
0.0
 11
3.771898
 21
3.611289
 31
0.0
  0
LINE
  5
281
100
AcDbEntity
  8
0
 62
7
100
AcDbLine
 10
3.771898
 20
3.611289
 30
0.0
 11
3.638222
 21
3.442259
 31
0.0
  0
LINE
  5
282
100
AcDbEntity
  8
0
 62
7
100
AcDbLine
 10
3.638222
 20
3.442259
 30
0.0
 11
3.454826
 21
3.341320
 31
0.0
  0
LINE
  5
283
100
AcDbEntity
  8
0
 62
7
100
AcDbLine
 10
3.454826
 20
3.341320
 30
0.0
 11
3.235632
 21
3.292127
 31
0.0
  0
LINE
  5
284
100
AcDbEntity
  8
0
 62
7
100
AcDbLine
 10
3.235632
 20
3.292127
 30
0.0
 11
2.994564
 21
3.278335
 31
0.0
  0
LINE
  5
285
100
AcDbEntity
  8
0
 62
7
100
AcDbLine
 10
2.994564
 20
3.278335
 30
0.0
 11
2.745542
 21
3.283598
 31
0.0
  0
LINE
  5
286
100
AcDbEntity
  8
0
 62
7
100
AcDbLine
 10
2.745542
 20
3.283598
 30
0.0
 11
2.502490
 21
3.291574
 31
0.0
  0
LINE
  5
287
100
AcDbEntity
  8
0
 62
7
100
AcDbLine
 10
2.502490
 20
3.291574
 30
0.0
 11
2.279329
 21
3.285915
 31
0.0
  0
LINE
  5
288
100
AcDbEntity
  8
0
 62
7
100
AcDbLine
 10
2.279329
 20
3.285915
 30
0.0
 11
2.032488
 21
3.290640
 31
0.0
  0
LINE
  5
289
100
AcDbEntity
  8
0
 62
7
100
AcDbLine
 10
2.032488
 20
3.290640
 30
0.0
 11
1.784964
 21
3.289341
 31
0.0
  0
LINE
  5
28a
100
AcDbEntity
  8
0
 62
7
100
AcDbLine
 10
1.784964
 20
3.289341
 30
0.0
 11
1.537113
 21
3.285159
 31
0.0
  0
LINE
  5
28b
100
AcDbEntity
  8
0
 62
7
100
AcDbLine
 10
1.537113
 20
3.285159
 30
0.0
 11
1.289287
 21
3.281264
 31
0.0
  0
LINE
  5
28c
100
AcDbEntity
  8
0
 62
7
100
AcDbLine
 10
1.289287
 20
3.281264
 30
0.0
 11
1.041841
 21
3.280813
 31
0.0
  0
LINE
  5
28d
100
AcDbEntity
  8
0
 62
7
100
AcDbLine
 10
1.041841
 20
3.280813
 30
0.0
 11
0.795086
 21
3.286978
 31
0.0
  0
LINE
  5
28e
100
AcDbEntity
  8
0
 62
7
100
AcDbLine
 10
0.795086
 20
3.286978
 30
0.0
 11
0.549461
 21
3.302918
 31
0.0
  0
LINE
  5
28f
100
AcDbEntity
  8
0
 62
7
100
AcDbLine
 10
0.549461
 20
3.302918
 30
0.0
 11
0.305276
 21
3.331792
 31
0.0
  0
LINE
  5
290
100
AcDbEntity
  8
0
 62
7
100
AcDbLine
 10
0.305276
 20
3.331792
 30
0.0
 11
0.131849
 21
3.488460
 31
0.0
  0
LINE
  5
291
100
AcDbEntity
  8
0
 62
7
100
AcDbLine
 10
0.131849
 20
3.488460
 30
0.0
 11
0.042045
 21
3.669625
 31
0.0
  0
LINE
  5
292
100
AcDbEntity
  8
0
 62
7
100
AcDbLine
 10
0.042045
 20
3.669625
 30
0.0
 11
0.018051
 21
3.869545
 31
0.0
  0
LINE
  5
293
100
AcDbEntity
  8
0
 62
7
100
AcDbLine
 10
0.018051
 20
3.869545
 30
0.0
 11
0.042053
 21
4.082477
 31
0.0
  0
LINE
  5
294
100
AcDbEntity
  8
0
 62
7
100
AcDbLine
 10
0.042053
 20
4.082477
 30
0.0
 11
0.096236
 21
4.302678
 31
0.0
  0
LINE
  5
295
100
AcDbEntity
  8
0
 62
7
100
AcDbLine
 10
0.096236
 20
4.302678
 30
0.0
 11
0.162787
 21
4.524405
 31
0.0
  0
LINE
  5
296
100
AcDbEntity
  8
0
 62
7
100
AcDbLine
 10
0.162787
 20
4.524405
 30
0.0
 11
0.223893
 21
4.741916
 31
0.0
  0
LINE
  5
297
100
AcDbEntity
  8
0
 62
7
100
AcDbLine
 10
0.223893
 20
4.741916
 30
0.0
 11
0.261738
 21
4.949469
 31
0.0
  0
LINE
  5
298
100
AcDbEntity
  8
0
 62
7
100
AcDbLine
 10
0.261738
 20
4.949469
 30
0.0
 11
0.314252
 21
5.167045
 31
0.0
  0
LINE
  5
299
100
AcDbEntity
  8
0
 62
7
100
AcDbLine
 10
0.314252
 20
5.167045
 30
0.0
 11
0.366766
 21
5.384621
 31
0.0
  0
LINE
  5
29a
100
AcDbEntity
  8
0
 62
7
100
AcDbLine
 10
0.366766
 20
5.384621
 30
0.0
 11
0.419279
 21
5.602197
 31
0.0
  0
LINE
  5
29b
100
AcDbEntity
  8
0
 62
7
100
AcDbLine
 10
0.419279
 20
5.602197
 30
0.0
 11
0.471793
 21
5.819773
 31
0.0
  0
LINE
  5
29c
100
AcDbEntity
  8
0
 62
7
100
AcDbLine
 10
0.471793
 20
5.819773
 30
0.0
 11
0.524307
 21
6.037349
 31
0.0
  0
LINE
  5
29d
100
AcDbEntity
  8
0
 62
7
100
AcDbLine
 10
0.524307
 20
6.037349
 30
0.0
 11
0.576821
 21
6.254926
 31
0.0
  0
LINE
  5
29e
100
AcDbEntity
  8
0
 62
7
100
AcDbLine
 10
0.576821
 20
6.254926
 30
0.0
 11
0.629335
 21
6.472502
 31
0.0
  0
LINE
  5
29f
100
AcDbEntity
  8
0
 62
7
100
AcDbLine
 10
0.629335
 20
6.472502
 30
0.0
 11
0.681849
 21
6.690078
 31
0.0
  0
LINE
  5
2a0
100
AcDbEntity
  8
0
 62
7
100
AcDbLine
 10
20.642580
 20
6.690078
 30
0.0
 11
20.489675
 21
6.867580
 31
0.0
  0
LINE
  5
2a1
100
AcDbEntity
  8
0
 62
7
100
AcDbLine
 10
20.489675
 20
6.867580
 30
0.0
 11
20.345984
 21
7.028490
 31
0.0
  0
LINE
  5
2a2
100
AcDbEntity
  8
0
 62
7
100
AcDbLine
 10
20.345984
 20
7.028490
 30
0.0
 11
20.217568
 21
7.182457
 31
0.0
  0
LINE
  5
2a3
100
AcDbEntity
  8
0
 62
7
100
AcDbLine
 10
20.217568
 20
7.182457
 30
0.0
 11
20.110482
 21
7.339132
 31
0.0
  0
LINE
  5
2a4
100
AcDbEntity
  8
0
 62
7
100
AcDbLine
 10
20.110482
 20
7.339132
 30
0.0
 11
20.030786
 21
7.508166
 31
0.0
  0
LINE
  5
2a5
100
AcDbEntity
  8
0
 62
7
100
AcDbLine
 10
20.030786
 20
7.508166
 30
0.0
 11
19.984537
 21
7.699210
 31
0.0
  0
LINE
  5
2a6
100
AcDbEntity
  8
0
 62
7
100
AcDbLine
 10
19.984537
 20
7.699210
 30
0.0
 11
19.977792
 21
7.921915
 31
0.0
  0
LINE
  5
2a7
100
AcDbEntity
  8
0
 62
7
100
AcDbLine
 10
19.977792
 20
7.921915
 30
0.0
 11
20.016610
 21
8.185931
 31
0.0
  0
LINE
  5
2a8
100
AcDbEntity
  8
0
 62
7
100
AcDbLine
 10
20.016610
 20
8.185931
 30
0.0
 11
20.016610
 21
9.708016
 31
0.0
  0
LINE
  5
2a9
100
AcDbEntity
  8
0
 62
7
100
AcDbLine
 10
20.016610
 20
9.708016
 30
0.0
 11
20.016610
 21
11.230102
 31
0.0
  0
LINE
  5
2aa
100
AcDbEntity
  8
0
 62
7
100
AcDbLine
 10
20.016610
 20
11.230102
 30
0.0
 11
20.016610
 21
12.752188
 31
0.0
  0
LINE
  5
2ab
100
AcDbEntity
  8
0
 62
7
100
AcDbLine
 10
20.016610
 20
12.752188
 30
0.0
 11
20.016610
 21
14.274273
 31
0.0
  0
LINE
  5
2ac
100
AcDbEntity
  8
0
 62
7
100
AcDbLine
 10
20.016610
 20
14.274273
 30
0.0
 11
20.016610
 21
15.796359
 31
0.0
  0
LINE
  5
2ad
100
AcDbEntity
  8
0
 62
7
100
AcDbLine
 10
20.016610
 20
15.796359
 30
0.0
 11
20.016610
 21
17.318444
 31
0.0
  0
LINE
  5
2ae
100
AcDbEntity
  8
0
 62
7
100
AcDbLine
 10
20.016610
 20
17.318444
 30
0.0
 11
20.016610
 21
18.840530
 31
0.0
  0
LINE
  5
2af
100
AcDbEntity
  8
0
 62
7
100
AcDbLine
 10
20.016610
 20
18.840530
 30
0.0
 11
20.016610
 21
20.362616
 31
0.0
  0
LINE
  5
2b0
100
AcDbEntity
  8
0
 62
7
100
AcDbLine
 10
20.016610
 20
20.362616
 30
0.0
 11
19.942403
 21
20.586966
 31
0.0
  0
LINE
  5
2b1
100
AcDbEntity
  8
0
 62
7
100
AcDbLine
 10
19.942403
 20
20.586966
 30
0.0
 11
19.811730
 21
20.732137
 31
0.0
  0
LINE
  5
2b2
100
AcDbEntity
  8
0
 62
7
100
AcDbLine
 10
19.811730
 20
20.732137
 30
0.0
 11
19.637219
 21
20.814286
 31
0.0
  0
LINE
  5
2b3
100
AcDbEntity
  8
0
 62
7
100
AcDbLine
 10
19.637219
 20
20.814286
 30
0.0
 11
19.431500
 21
20.849570
 31
0.0
  0
LINE
  5
2b4
100
AcDbEntity
  8
0
 62
7
100
AcDbLine
 10
19.431500
 20
20.849570
 30
0.0
 11
19.207201
 21
20.854148
 31
0.0
  0
LINE
  5
2b5
100
AcDbEntity
  8
0
 62
7
100
AcDbLine
 10
19.207201
 20
20.854148
 30
0.0
 11
18.976952
 21
20.844177
 31
0.0
  0
LINE
  5
2b6
100
AcDbEntity
  8
0
 62
7
100
AcDbLine
 10
18.976952
 20
20.844177
 30
0.0
 11
18.753380
 21
20.835814
 31
0.0
  0
LINE
  5
2b7
100
AcDbEntity
  8
0
 62
7
100
AcDbLine
 10
18.753380
 20
20.835814
 30
0.0
 11
18.549115
 21
20.845218
 31
0.0
  0
LINE
  5
2b8
100
AcDbEntity
  8
0
 62
7
100
AcDbLine
 10
18.549115
 20
20.845218
 30
0.0
 11
18.324186
 21
20.871645
 31
0.0
  0
LINE
  5
2b9
100
AcDbEntity
  8
0
 62
7
100
AcDbLine
 10
18.324186
 20
20.871645
 30
0.0
 11
18.104805
 21
20.858443
 31
0.0
  0
LINE
  5
2ba
100
AcDbEntity
  8
0
 62
7
100
AcDbLine
 10
18.104805
 20
20.858443
 30
0.0
 11
17.901191
 21
20.806005
 31
0.0
  0
LINE
  5
2bb
100
AcDbEntity
  8
0
 62
7
100
AcDbLine
 10
17.901191
 20
20.806005
 30
0.0
 11
17.723564
 21
20.714719
 31
0.0
  0
LINE
  5
2bc
100
AcDbEntity
  8
0
 62
7
100
AcDbLine
 10
17.723564
 20
20.714719
 30
0.0
 11
17.582142
 21
20.584974
 31
0.0
  0
LINE
  5
2bd
100
AcDbEntity
  8
0
 62
7
100
AcDbLine
 10
17.582142
 20
20.584974
 30
0.0
 11
17.487145
 21
20.417161
 31
0.0
  0
LINE
  5
2be
100
AcDbEntity
  8
0
 62
7
100
AcDbLine
 10
17.487145
 20
20.417161
 30
0.0
 11
17.448792
 21
20.211668
 31
0.0
  0
LINE
  5
2bf
100
AcDbEntity
  8
0
 62
7
100
AcDbLine
 10
17.448792
 20
20.211668
 30
0.0
 11
17.477303
 21
19.968886
 31
0.0
  0
LINE
  5
2c0
100
AcDbEntity
  8
0
 62
7
100
AcDbLine
 10
17.477303
 20
19.968886
 30
0.0
 11
17.477952
 21
17.955869
 31
0.0
  0
LINE
  5
2c1
100
AcDbEntity
  8
0
 62
7
100
AcDbLine
 10
17.477952
 20
17.955869
 30
0.0
 11
17.478601
 21
15.942852
 31
0.0
  0
LINE
  5
2c2
100
AcDbEntity
  8
0
 62
7
100
AcDbLine
 10
17.478601
 20
15.942852
 30
0.0
 11
17.479250
 21
13.929836
 31
0.0
  0
LINE
  5
2c3
100
AcDbEntity
  8
0
 62
7
100
AcDbLine
 10
17.479250
 20
13.929836
 30
0.0
 11
17.479899
 21
11.916820
 31
0.0
  0
LINE
  5
2c4
100
AcDbEntity
  8
0
 62
7
100
AcDbLine
 10
17.479899
 20
11.916820
 30
0.0
 11
17.480548
 21
9.903803
 31
0.0
  0
LINE
  5
2c5
100
AcDbEntity
  8
0
 62
7
100
AcDbLine
 10
17.480548
 20
9.903803
 30
0.0
 11
17.481197
 21
7.890787
 31
0.0
  0
LINE
  5
2c6
100
AcDbEntity
  8
0
 62
7
100
AcDbLine
 10
17.481197
 20
7.890787
 30
0.0
 11
17.481846
 21
5.877770
 31
0.0
  0
LINE
  5
2c7
100
AcDbEntity
  8
0
 62
7
100
AcDbLine
 10
17.481846
 20
5.877770
 30
0.0
 11
17.482495
 21
3.864753
 31
0.0
  0
LINE
  5
2c8
100
AcDbEntity
  8
0
 62
7
100
AcDbLine
 10
17.482495
 20
3.864753
 30
0.0
 11
17.552600
 21
3.611295
 31
0.0
  0
LINE
  5
2c9
100
AcDbEntity
  8
0
 62
7
100
AcDbLine
 10
17.552600
 20
3.611295
 30
0.0
 11
17.686328
 21
3.442268
 31
0.0
  0
LINE
  5
2ca
100
AcDbEntity
  8
0
 62
7
100
AcDbLine
 10
17.686328
 20
3.442268
 30
0.0
 11
17.869764
 21
3.341329
 31
0.0
  0
LINE
  5
2cb
100
AcDbEntity
  8
0
 62
7
100
AcDbLine
 10
17.869764
 20
3.341329
 30
0.0
 11
18.088986
 21
3.292132
 31
0.0
  0
LINE
  5
2cc
100
AcDbEntity
  8
0
 62
7
100
AcDbLine
 10
18.088986
 20
3.292132
 30
0.0
 11
18.330078
 21
3.278337
 31
0.0
  0
LINE
  5
2cd
100
AcDbEntity
  8
0
 62
7
100
AcDbLine
 10
18.330078
 20
3.278337
 30
0.0
 11
18.579120
 21
3.283598
 31
0.0
  0
LINE
  5
2ce
100
AcDbEntity
  8
0
 62
7
100
AcDbLine
 10
18.579120
 20
3.283598
 30
0.0
 11
18.822194
 21
3.291574
 31
0.0
  0
LINE
  5
2cf
100
AcDbEntity
  8
0
 62
7
100
AcDbLine
 10
18.822194
 20
3.291574
 30
0.0
 11
19.045381
 21
3.285918
 31
0.0
  0
LINE
  5
2d0
100
AcDbEntity
  8
0
 62
7
100
AcDbLine
 10
19.045381
 20
3.285918
 30
0.0
 11
19.292222
 21
3.290628
 31
0.0
  0
LINE
  5
2d1
100
AcDbEntity
  8
0
 62
7
100
AcDbLine
 10
19.292222
 20
3.290628
 30
0.0
 11
19.539741
 21
3.289330
 31
0.0
  0
LINE
  5
2d2
100
AcDbEntity
  8
0
 62
7
100
AcDbLine
 10
19.539741
 20
3.289330
 30
0.0
 11
19.787587
 21
3.285161
 31
0.0
  0
LINE
  5
2d3
100
AcDbEntity
  8
0
 62
7
100
AcDbLine
 10
19.787587
 20
3.285161
 30
0.0
 11
20.035408
 21
3.281281
 31
0.0
  0
LINE
  5
2d4
100
AcDbEntity
  8
0
 62
7
100
AcDbLine
 10
20.035408
 20
3.281281
 30
0.0
 11
20.282851
 21
3.280829
 31
0.0
  0
LINE
  5
2d5
100
AcDbEntity
  8
0
 62
7
100
AcDbLine
 10
20.282851
 20
3.280829
 30
0.0
 11
20.529564
 21
3.286973
 31
0.0
  0
LINE
  5
2d6
100
AcDbEntity
  8
0
 62
7
100
AcDbLine
 10
20.529564
 20
3.286973
 30
0.0
 11
20.775195
 21
3.302857
 31
0.0
  0
LINE
  5
2d7
100
AcDbEntity
  8
0
 62
7
100
AcDbLine
 10
20.775195
 20
3.302857
 30
0.0
 11
21.019392
 21
3.331631
 31
0.0
  0
LINE
  5
2d8
100
AcDbEntity
  8
0
 62
7
100
AcDbLine
 10
21.019392
 20
3.331631
 30
0.0
 11
21.192829
 21
3.488265
 31
0.0
  0
LINE
  5
2d9
100
AcDbEntity
  8
0
 62
7
100
AcDbLine
 10
21.192829
 20
3.488265
 30
0.0
 11
21.282630
 21
3.669406
 31
0.0
  0
LINE
  5
2da
100
AcDbEntity
  8
0
 62
7
100
AcDbLine
 10
21.282630
 20
3.669406
 30
0.0
 11
21.306613
 21
3.869308
 31
0.0
  0
LINE
  5
2db
100
AcDbEntity
  8
0
 62
7
100
AcDbLine
 10
21.306613
 20
3.869308
 30
0.0
 11
21.282596
 21
4.082228
 31
0.0
  0
LINE
  5
2dc
100
AcDbEntity
  8
0
 62
7
100
AcDbLine
 10
21.282596
 20
4.082228
 30
0.0
 11
21.228439
 21
4.302417
 31
0.0
  0
LINE
  5
2dd
100
AcDbEntity
  8
0
 62
7
100
AcDbLine
 10
21.228439
 20
4.302417
 30
0.0
 11
21.161869
 21
4.524134
 31
0.0
  0
LINE
  5
2de
100
AcDbEntity
  8
0
 62
7
100
AcDbLine
 10
21.161869
 20
4.524134
 30
0.0
 11
21.100750
 21
4.741632
 31
0.0
  0
LINE
  5
2df
100
AcDbEntity
  8
0
 62
7
100
AcDbLine
 10
21.100750
 20
4.741632
 30
0.0
 11
21.062896
 21
4.949168
 31
0.0
  0
LINE
  5
2e0
100
AcDbEntity
  8
0
 62
7
100
AcDbLine
 10
21.062896
 20
4.949168
 30
0.0
 11
21.010357
 21
5.166781
 31
0.0
  0
LINE
  5
2e1
100
AcDbEntity
  8
0
 62
7
100
AcDbLine
 10
21.010357
 20
5.166781
 30
0.0
 11
20.957817
 21
5.384395
 31
0.0
  0
LINE
  5
2e2
100
AcDbEntity
  8
0
 62
7
100
AcDbLine
 10
20.957817
 20
5.384395
 30
0.0
 11
20.905278
 21
5.602009
 31
0.0
  0
LINE
  5
2e3
100
AcDbEntity
  8
0
 62
7
100
AcDbLine
 10
20.905278
 20
5.602009
 30
0.0
 11
20.852738
 21
5.819623
 31
0.0
  0
LINE
  5
2e4
100
AcDbEntity
  8
0
 62
7
100
AcDbLine
 10
20.852738
 20
5.819623
 30
0.0
 11
20.800199
 21
6.037237
 31
0.0
  0
LINE
  5
2e5
100
AcDbEntity
  8
0
 62
7
100
AcDbLine
 10
20.800199
 20
6.037237
 30
0.0
 11
20.747659
 21
6.254850
 31
0.0
  0
LINE
  5
2e6
100
AcDbEntity
  8
0
 62
7
100
AcDbLine
 10
20.747659
 20
6.254850
 30
0.0
 11
20.695120
 21
6.472464
 31
0.0
  0
LINE
  5
2e7
100
AcDbEntity
  8
0
 62
7
100
AcDbLine
 10
20.695120
 20
6.472464
 30
0.0
 11
20.642580
 21
6.690078
 31
0.0
  0
ENDSEC
  0
SECTION
  2
OBJECTS
  0
DICTIONARY
  5
C
330
0
100
AcDbDictionary
  3
ACAD_GROUP
350
D
  3
ACAD_MLINESTYLE
350
17
  0
DICTIONARY
  5
D
330
C
100
AcDbDictionary
  0
DICTIONARY
  5
1A
330
C
100
AcDbDictionary
  0
DICTIONARY
  5
17
330
C
100
AcDbDictionary
  3
STANDARD
350
18
  0
DICTIONARY
  5
19
330
C
100
AcDbDictionary
  0
ENDSEC
  0
EOF
