  0
SECTION
  2
HEADER
  9
$ACADVER
  1
AC1014
  9
$HANDSEED
  5
FFFF
  9
$MEASUREMENT
 70
     1
  0
ENDSEC
  0
SECTION
  2
TABLES
  0
TABLE
  2
VPORT
  5
8
330
0
100
AcDbSymbolTable
 70
     4
  0
VPORT
  5
2E
330
8
100
AcDbSymbolTableRecord
100
AcDbViewportTableRecord
  2
*ACTIVE
 70
     0
 10
0.0
 20
0.0
 11
1.0
 21
1.0
 12
210.0
 22
148.5
 13
0.0
 23
0.0
 14
10.0
 24
10.0
 15
10.0
 25
10.0
 16
0.0
 26
0.0
 36
1.0
 17
0.0
 27
0.0
 37
0.0
 40
341.0
 41
1.24
 42
50.0
 43
0.0
 44
0.0
 50
0.0
 51
0.0
 71
     0
 72
   100
 73
     1
 74
     3
 75
     0
 76
     0
 77
     0
 78
     0
  0
ENDTAB
  0
TABLE
  2
LTYPE
  5
5
330
0
100
AcDbSymbolTable
 70
     1
  0
LTYPE
  5
14
330
5
100
AcDbSymbolTableRecord
100
AcDbLinetypeTableRecord
  2
BYBLOCK
 70
     0
  3

 72
    65
 73
     0
 40
0.0
  0
LTYPE
  5
15
330
5
100
AcDbSymbolTableRecord
100
AcDbLinetypeTableRecord
  2
BYLAYER
 70
     0
  3

 72
    65
 73
     0
 40
0.0
  0
LTYPE
  5
16
330
5
100
AcDbSymbolTableRecord
100
AcDbLinetypeTableRecord
  2
CONTINUOUS
 70
     0
  3
Solid line
 72
    65
 73
     0
 40
0.0
  0
ENDTAB
  0
TABLE
  2
LAYER
  5
2
100
AcDbSymbolTable
 70
1
  0
LAYER
  5
50
100
AcDbSymbolTableRecord
100
AcDbLayerTableRecord
  2
0
 70
0
  6
CONTINUOUS
  0
ENDTAB
  0
TABLE
  2
STYLE
  5
3
330
0
100
AcDbSymbolTable
 70
     1
  0
STYLE
  5
11
330
3
100
AcDbSymbolTableRecord
100
AcDbTextStyleTableRecord
  2
STANDARD
 70
     0
 40
0.0
 41
1.0
 50
0.0
 71
     0
 42
2.5
  3
txt
  4

  0
ENDTAB
  0
TABLE
  2
VIEW
  5
6
330
0
100
AcDbSymbolTable
 70
     0
  0
ENDTAB
  0
TABLE
  2
UCS
  5
7
330
0
100
AcDbSymbolTable
 70
     0
  0
ENDTAB
  0
TABLE
  2
APPID
  5
9
330
0
100
AcDbSymbolTable
 70
     2
  0
APPID
  5
12
330
9
100
AcDbSymbolTableRecord
100
AcDbRegAppTableRecord
  2
ACAD
 70
     0
  0
ENDTAB
  0
TABLE
  2
DIMSTYLE
  5
A
330
0
100
AcDbSymbolTable
 70
     1
  0
DIMSTYLE
105
27
330
A
100
AcDbSymbolTableRecord
100
AcDbDimStyleTableRecord
  2
ISO-25
 70
     0
  3

  4

  5

  6

  7

 40
1.0
 41
2.5
 42
0.625
 43
3.75
 44
1.25
 45
0.0
 46
0.0
 47
0.0
 48
0.0
140
2.5
141
2.5
142
0.0
143
0.03937007874016
144
1.0
145
0.0
146
1.0
147
0.625
 71
     0
 72
     0
 73
     0
 74
     0
 75
     0
 76
     0
 77
     1
 78
     8
170
     0
171
     3
172
     1
173
     0
174
     0
175
     0
176
     0
177
     0
178
     0
270
     2
271
     2
272
     2
273
     2
274
     3
340
11
275
     0
280
     0
281
     0
282
     0
283
     0
284
     8
285
     0
286
     0
287
     3
288
     0
  0
ENDTAB
  0
TABLE
  2
BLOCK_RECORD
  5
1
330
0
100
AcDbSymbolTable
 70
     1
  0
BLOCK_RECORD
  5
1F
330
1
100
AcDbSymbolTableRecord
100
AcDbBlockTableRecord
  2
*MODEL_SPACE
  0
BLOCK_RECORD
  5
1B
330
1
100
AcDbSymbolTableRecord
100
AcDbBlockTableRecord
  2
*PAPER_SPACE
  0
ENDTAB
  0
ENDSEC
  0
SECTION
  2
BLOCKS
  0
BLOCK
  5
20
330
1F
100
AcDbEntity
  8
0
100
AcDbBlockBegin
  2
*MODEL_SPACE
 70
     0
 10
0.0
 20
0.0
 30
0.0
  3
*MODEL_SPACE
  1

  0
ENDBLK
  5
21
330
1F
100
AcDbEntity
  8
0
100
AcDbBlockEnd
  0
BLOCK
  5
1C
330
1B
100
AcDbEntity
 67
     1
  8
0
100
AcDbBlockBegin
  2
*PAPER_SPACE
  1

  0
ENDBLK
  5
1D
330
1B
100
AcDbEntity
 67
     1
  8
0
100
AcDbBlockEnd
  0
ENDSEC
  0
SECTION
  2
ENTITIES
  0
LINE
  5
100
100
AcDbEntity
  8
0
 62
7
100
AcDbLine
 10
2.713849
 20
28.083869
 30
0.0
 11
2.773374
 21
28.108003
 31
0.0
  0
LINE
  5
101
100
AcDbEntity
  8
0
 62
7
100
AcDbLine
 10
2.773374
 20
28.108003
 30
0.0
 11
2.834027
 21
28.129990
 31
0.0
  0
LINE
  5
102
100
AcDbEntity
  8
0
 62
7
100
AcDbLine
 10
2.834027
 20
28.129990
 30
0.0
 11
2.895771
 21
28.149775
 31
0.0
  0
LINE
  5
103
100
AcDbEntity
  8
0
 62
7
100
AcDbLine
 10
2.895771
 20
28.149775
 30
0.0
 11
2.958571
 21
28.167301
 31
0.0
  0
LINE
  5
104
100
AcDbEntity
  8
0
 62
7
100
AcDbLine
 10
2.958571
 20
28.167301
 30
0.0
 11
3.022389
 21
28.182512
 31
0.0
  0
LINE
  5
105
100
AcDbEntity
  8
0
 62
7
100
AcDbLine
 10
3.022389
 20
28.182512
 30
0.0
 11
3.087189
 21
28.195351
 31
0.0
  0
LINE
  5
106
100
AcDbEntity
  8
0
 62
7
100
AcDbLine
 10
3.087189
 20
28.195351
 30
0.0
 11
3.152935
 21
28.205763
 31
0.0
  0
LINE
  5
107
100
AcDbEntity
  8
0
 62
7
100
AcDbLine
 10
3.152935
 20
28.205763
 30
0.0
 11
3.219591
 21
28.213691
 31
0.0
  0
LINE
  5
108
100
AcDbEntity
  8
0
 62
7
100
AcDbLine
 10
3.219591
 20
28.213691
 30
0.0
 11
3.396026
 21
28.222215
 31
0.0
  0
LINE
  5
109
100
AcDbEntity
  8
0
 62
7
100
AcDbLine
 10
3.396026
 20
28.222215
 30
0.0
 11
3.569098
 21
28.212962
 31
0.0
  0
LINE
  5
10a
100
AcDbEntity
  8
0
 62
7
100
AcDbLine
 10
3.569098
 20
28.212962
 30
0.0
 11
3.737859
 21
28.186713
 31
0.0
  0
LINE
  5
10b
100
AcDbEntity
  8
0
 62
7
100
AcDbLine
 10
3.737859
 20
28.186713
 30
0.0
 11
3.901361
 21
28.144251
 31
0.0
  0
LINE
  5
10c
100
AcDbEntity
  8
0
 62
7
100
AcDbLine
 10
3.901361
 20
28.144251
 30
0.0
 11
4.058654
 21
28.086359
 31
0.0
  0
LINE
  5
10d
100
AcDbEntity
  8
0
 62
7
100
AcDbLine
 10
4.058654
 20
28.086359
 30
0.0
 11
4.208792
 21
28.013820
 31
0.0
  0
LINE
  5
10e
100
AcDbEntity
  8
0
 62
7
100
AcDbLine
 10
4.208792
 20
28.013820
 30
0.0
 11
4.350825
 21
27.927415
 31
0.0
  0
LINE
  5
10f
100
AcDbEntity
  8
0
 62
7
100
AcDbLine
 10
4.350825
 20
27.927415
 30
0.0
 11
4.483806
 21
27.827928
 31
0.0
  0
LINE
  5
110
100
AcDbEntity
  8
0
 62
7
100
AcDbLine
 10
4.483806
 20
27.827928
 30
0.0
 11
4.606784
 21
27.716142
 31
0.0
  0
LINE
  5
111
100
AcDbEntity
  8
0
 62
7
100
AcDbLine
 10
4.606784
 20
27.716142
 30
0.0
 11
4.718814
 21
27.592838
 31
0.0
  0
LINE
  5
112
100
AcDbEntity
  8
0
 62
7
100
AcDbLine
 10
4.718814
 20
27.592838
 30
0.0
 11
4.818945
 21
27.458799
 31
0.0
  0
LINE
  5
113
100
AcDbEntity
  8
0
 62
7
100
AcDbLine
 10
4.818945
 20
27.458799
 30
0.0
 11
4.906230
 21
27.314809
 31
0.0
  0
LINE
  5
114
100
AcDbEntity
  8
0
 62
7
100
AcDbLine
 10
4.906230
 20
27.314809
 30
0.0
 11
4.979721
 21
27.161649
 31
0.0
  0
LINE
  5
115
100
AcDbEntity
  8
0
 62
7
100
AcDbLine
 10
4.979721
 20
27.161649
 30
0.0
 11
5.038468
 21
27.000102
 31
0.0
  0
LINE
  5
116
100
AcDbEntity
  8
0
 62
7
100
AcDbLine
 10
5.038468
 20
27.000102
 30
0.0
 11
5.081524
 21
26.830951
 31
0.0
  0
LINE
  5
117
100
AcDbEntity
  8
0
 62
7
100
AcDbLine
 10
5.081524
 20
26.830951
 30
0.0
 11
5.107940
 21
26.654978
 31
0.0
  0
LINE
  5
118
100
AcDbEntity
  8
0
 62
7
100
AcDbLine
 10
5.107940
 20
26.654978
 30
0.0
 11
5.107678
 21
26.302889
 31
0.0
  0
LINE
  5
119
100
AcDbEntity
  8
0
 62
7
100
AcDbLine
 10
5.107678
 20
26.302889
 30
0.0
 11
5.039907
 21
25.968216
 31
0.0
  0
LINE
  5
11a
100
AcDbEntity
  8
0
 62
7
100
AcDbLine
 10
5.039907
 20
25.968216
 30
0.0
 11
4.910832
 21
25.658613
 31
0.0
  0
LINE
  5
11b
100
AcDbEntity
  8
0
 62
7
100
AcDbLine
 10
4.910832
 20
25.658613
 30
0.0
 11
4.726658
 21
25.381732
 31
0.0
  0
LINE
  5
11c
100
AcDbEntity
  8
0
 62
7
100
AcDbLine
 10
4.726658
 20
25.381732
 30
0.0
 11
4.493589
 21
25.145226
 31
0.0
  0
LINE
  5
11d
100
AcDbEntity
  8
0
 62
7
100
AcDbLine
 10
4.493589
 20
25.145226
 30
0.0
 11
4.217829
 21
24.956749
 31
0.0
  0
LINE
  5
11e
100
AcDbEntity
  8
0
 62
7
100
AcDbLine
 10
4.217829
 20
24.956749
 30
0.0
 11
3.905583
 21
24.823954
 31
0.0
  0
LINE
  5
11f
100
AcDbEntity
  8
0
 62
7
100
AcDbLine
 10
3.905583
 20
24.823954
 30
0.0
 11
3.563056
 21
24.754493
 31
0.0
  0
LINE
  5
120
100
AcDbEntity
  8
0
 62
7
100
AcDbLine
 10
3.563056
 20
24.754493
 30
0.0
 11
3.339630
 21
24.746800
 31
0.0
  0
LINE
  5
121
100
AcDbEntity
  8
0
 62
7
100
AcDbLine
 10
3.339630
 20
24.746800
 30
0.0
 11
3.122119
 21
24.767515
 31
0.0
  0
LINE
  5
122
100
AcDbEntity
  8
0
 62
7
100
AcDbLine
 10
3.122119
 20
24.767515
 30
0.0
 11
2.912439
 21
24.815012
 31
0.0
  0
LINE
  5
123
100
AcDbEntity
  8
0
 62
7
100
AcDbLine
 10
2.912439
 20
24.815012
 30
0.0
 11
2.712508
 21
24.887667
 31
0.0
  0
LINE
  5
124
100
AcDbEntity
  8
0
 62
7
100
AcDbLine
 10
2.712508
 20
24.887667
 30
0.0
 11
2.524246
 21
24.983857
 31
0.0
  0
LINE
  5
125
100
AcDbEntity
  8
0
 62
7
100
AcDbLine
 10
2.524246
 20
24.983857
 30
0.0
 11
2.349571
 21
25.101957
 31
0.0
  0
LINE
  5
126
100
AcDbEntity
  8
0
 62
7
100
AcDbLine
 10
2.349571
 20
25.101957
 30
0.0
 11
2.190399
 21
25.240345
 31
0.0
  0
LINE
  5
127
100
AcDbEntity
  8
0
 62
7
100
AcDbLine
 10
2.190399
 20
25.240345
 30
0.0
 11
2.048651
 21
25.397395
 31
0.0
  0
LINE
  5
128
100
AcDbEntity
  8
0
 62
7
100
AcDbLine
 10
2.048651
 20
25.397395
 30
0.0
 11
1.862451
 21
25.211419
 31
0.0
  0
LINE
  5
129
100
AcDbEntity
  8
0
 62
7
100
AcDbLine
 10
1.862451
 20
25.211419
 30
0.0
 11
1.661517
 21
24.986811
 31
0.0
  0
LINE
  5
12a
100
AcDbEntity
  8
0
 62
7
100
AcDbLine
 10
1.661517
 20
24.986811
 30
0.0
 11
1.443233
 21
24.770477
 31
0.0
  0
LINE
  5
12b
100
AcDbEntity
  8
0
 62
7
100
AcDbLine
 10
1.443233
 20
24.770477
 30
0.0
 11
1.204983
 21
24.609325
 31
0.0
  0
LINE
  5
12c
100
AcDbEntity
  8
0
 62
7
100
AcDbLine
 10
1.204983
 20
24.609325
 30
0.0
 11
0.944151
 21
24.550263
 31
0.0
  0
LINE
  5
12d
100
AcDbEntity
  8
0
 62
7
100
AcDbLine
 10
0.944151
 20
24.550263
 30
0.0
 11
0.658120
 21
24.640198
 31
0.0
  0
LINE
  5
12e
100
AcDbEntity
  8
0
 62
7
100
AcDbLine
 10
0.658120
 20
24.640198
 30
0.0
 11
0.344275
 21
24.926036
 31
0.0
  0
LINE
  5
12f
100
AcDbEntity
  8
0
 62
7
100
AcDbLine
 10
0.344275
 20
24.926036
 30
0.0
 11
0.000000
 21
25.454687
 31
0.0
  0
LINE
  5
130
100
AcDbEntity
  8
0
 62
7
100
AcDbLine
 10
0.000000
 20
25.454687
 30
0.0
 11
0.406358
 21
25.263373
 31
0.0
  0
LINE
  5
131
100
AcDbEntity
  8
0
 62
7
100
AcDbLine
 10
0.406358
 20
25.263373
 30
0.0
 11
0.726894
 21
25.375633
 31
0.0
  0
LINE
  5
132
100
AcDbEntity
  8
0
 62
7
100
AcDbLine
 10
0.726894
 20
25.375633
 30
0.0
 11
0.994931
 21
25.713960
 31
0.0
  0
LINE
  5
133
100
AcDbEntity
  8
0
 62
7
100
AcDbLine
 10
0.994931
 20
25.713960
 30
0.0
 11
1.243789
 21
26.200847
 31
0.0
  0
LINE
  5
134
100
AcDbEntity
  8
0
 62
7
100
AcDbLine
 10
1.243789
 20
26.200847
 30
0.0
 11
1.506788
 21
26.758787
 31
0.0
  0
LINE
  5
135
100
AcDbEntity
  8
0
 62
7
100
AcDbLine
 10
1.506788
 20
26.758787
 30
0.0
 11
1.817251
 21
27.310276
 31
0.0
  0
LINE
  5
136
100
AcDbEntity
  8
0
 62
7
100
AcDbLine
 10
1.817251
 20
27.310276
 30
0.0
 11
2.208497
 21
27.777805
 31
0.0
  0
LINE
  5
137
100
AcDbEntity
  8
0
 62
7
100
AcDbLine
 10
2.208497
 20
27.777805
 30
0.0
 11
2.713849
 21
28.083869
 31
0.0
  0
LINE
  5
138
100
AcDbEntity
  8
0
 62
7
100
AcDbLine
 10
24.927278
 20
26.486491
 30
0.0
 11
24.893512
 21
26.149036
 31
0.0
  0
LINE
  5
139
100
AcDbEntity
  8
0
 62
7
100
AcDbLine
 10
24.893512
 20
26.149036
 30
0.0
 11
24.796670
 21
25.834729
 31
0.0
  0
LINE
  5
13a
100
AcDbEntity
  8
0
 62
7
100
AcDbLine
 10
24.796670
 20
25.834729
 30
0.0
 11
24.643434
 21
25.550304
 31
0.0
  0
LINE
  5
13b
100
AcDbEntity
  8
0
 62
7
100
AcDbLine
 10
24.643434
 20
25.550304
 30
0.0
 11
24.440488
 21
25.302494
 31
0.0
  0
LINE
  5
13c
100
AcDbEntity
  8
0
 62
7
100
AcDbLine
 10
24.440488
 20
25.302494
 30
0.0
 11
24.194515
 21
25.098032
 31
0.0
  0
LINE
  5
13d
100
AcDbEntity
  8
0
 62
7
100
AcDbLine
 10
24.194515
 20
25.098032
 30
0.0
 11
23.912200
 21
24.943651
 31
0.0
  0
LINE
  5
13e
100
AcDbEntity
  8
0
 62
7
100
AcDbLine
 10
23.912200
 20
24.943651
 30
0.0
 11
23.600224
 21
24.846085
 31
0.0
  0
LINE
  5
13f
100
AcDbEntity
  8
0
 62
7
100
AcDbLine
 10
23.600224
 20
24.846085
 30
0.0
 11
23.265272
 21
24.812066
 31
0.0
  0
LINE
  5
140
100
AcDbEntity
  8
0
 62
7
100
AcDbLine
 10
23.265272
 20
24.812066
 30
0.0
 11
22.930319
 21
24.846085
 31
0.0
  0
LINE
  5
141
100
AcDbEntity
  8
0
 62
7
100
AcDbLine
 10
22.930319
 20
24.846085
 30
0.0
 11
22.618344
 21
24.943651
 31
0.0
  0
LINE
  5
142
100
AcDbEntity
  8
0
 62
7
100
AcDbLine
 10
22.618344
 20
24.943651
 30
0.0
 11
22.336028
 21
25.098032
 31
0.0
  0
LINE
  5
143
100
AcDbEntity
  8
0
 62
7
100
AcDbLine
 10
22.336028
 20
25.098032
 30
0.0
 11
22.090055
 21
25.302494
 31
0.0
  0
LINE
  5
144
100
AcDbEntity
  8
0
 62
7
100
AcDbLine
 10
22.090055
 20
25.302494
 30
0.0
 11
21.887110
 21
25.550304
 31
0.0
  0
LINE
  5
145
100
AcDbEntity
  8
0
 62
7
100
AcDbLine
 10
21.887110
 20
25.550304
 30
0.0
 11
21.733874
 21
25.834729
 31
0.0
  0
LINE
  5
146
100
AcDbEntity
  8
0
 62
7
100
AcDbLine
 10
21.733874
 20
25.834729
 30
0.0
 11
21.637031
 21
26.149036
 31
0.0
  0
LINE
  5
147
100
AcDbEntity
  8
0
 62
7
100
AcDbLine
 10
21.637031
 20
26.149036
 30
0.0
 11
21.603265
 21
26.486491
 31
0.0
  0
LINE
  5
148
100
AcDbEntity
  8
0
 62
7
100
AcDbLine
 10
21.603265
 20
26.486491
 30
0.0
 11
21.637031
 21
26.823946
 31
0.0
  0
LINE
  5
149
100
AcDbEntity
  8
0
 62
7
100
AcDbLine
 10
21.637031
 20
26.823946
 30
0.0
 11
21.733874
 21
27.138253
 31
0.0
  0
LINE
  5
14a
100
AcDbEntity
  8
0
 62
7
100
AcDbLine
 10
21.733874
 20
27.138253
 30
0.0
 11
21.887110
 21
27.422678
 31
0.0
  0
LINE
  5
14b
100
AcDbEntity
  8
0
 62
7
100
AcDbLine
 10
21.887110
 20
27.422678
 30
0.0
 11
22.090055
 21
27.670488
 31
0.0
  0
LINE
  5
14c
100
AcDbEntity
  8
0
 62
7
100
AcDbLine
 10
22.090055
 20
27.670488
 30
0.0
 11
22.336028
 21
27.874950
 31
0.0
  0
LINE
  5
14d
100
AcDbEntity
  8
0
 62
7
100
AcDbLine
 10
22.336028
 20
27.874950
 30
0.0
 11
22.618344
 21
28.029331
 31
0.0
  0
LINE
  5
14e
100
AcDbEntity
  8
0
 62
7
100
AcDbLine
 10
22.618344
 20
28.029331
 30
0.0
 11
22.930319
 21
28.126897
 31
0.0
  0
LINE
  5
14f
100
AcDbEntity
  8
0
 62
7
100
AcDbLine
 10
22.930319
 20
28.126897
 30
0.0
 11
23.265272
 21
28.160915
 31
0.0
  0
LINE
  5
150
100
AcDbEntity
  8
0
 62
7
100
AcDbLine
 10
23.265272
 20
28.160915
 30
0.0
 11
23.600224
 21
28.126897
 31
0.0
  0
LINE
  5
151
100
AcDbEntity
  8
0
 62
7
100
AcDbLine
 10
23.600224
 20
28.126897
 30
0.0
 11
23.912200
 21
28.029331
 31
0.0
  0
LINE
  5
152
100
AcDbEntity
  8
0
 62
7
100
AcDbLine
 10
23.912200
 20
28.029331
 30
0.0
 11
24.194515
 21
27.874950
 31
0.0
  0
LINE
  5
153
100
AcDbEntity
  8
0
 62
7
100
AcDbLine
 10
24.194515
 20
27.874950
 30
0.0
 11
24.440488
 21
27.670488
 31
0.0
  0
LINE
  5
154
100
AcDbEntity
  8
0
 62
7
100
AcDbLine
 10
24.440488
 20
27.670488
 30
0.0
 11
24.643434
 21
27.422678
 31
0.0
  0
LINE
  5
155
100
AcDbEntity
  8
0
 62
7
100
AcDbLine
 10
24.643434
 20
27.422678
 30
0.0
 11
24.796670
 21
27.138253
 31
0.0
  0
LINE
  5
156
100
AcDbEntity
  8
0
 62
7
100
AcDbLine
 10
24.796670
 20
27.138253
 30
0.0
 11
24.893512
 21
26.823946
 31
0.0
  0
LINE
  5
157
100
AcDbEntity
  8
0
 62
7
100
AcDbLine
 10
24.893512
 20
26.823946
 30
0.0
 11
24.927278
 21
26.486491
 31
0.0
  0
LINE
  5
158
100
AcDbEntity
  8
0
 62
7
100
AcDbLine
 10
14.757400
 20
23.319675
 30
0.0
 11
16.311880
 21
25.258824
 31
0.0
  0
LINE
  5
159
100
AcDbEntity
  8
0
 62
7
100
AcDbLine
 10
16.311880
 20
25.258824
 30
0.0
 11
16.771338
 21
24.169446
 31
0.0
  0
LINE
  5
15a
100
AcDbEntity
  8
0
 62
7
100
AcDbLine
 10
16.771338
 20
24.169446
 30
0.0
 11
14.757400
 21
23.319675
 31
0.0
  0
LINE
  5
15b
100
AcDbEntity
  8
0
 62
7
100
AcDbLine
 10
20.229124
 20
20.962273
 30
0.0
 11
22.296120
 21
24.062484
 31
0.0
  0
LINE
  5
15c
100
AcDbEntity
  8
0
 62
7
100
AcDbLine
 10
22.296120
 20
24.062484
 30
0.0
 11
25.201316
 21
24.142353
 31
0.0
  0
LINE
  5
15d
100
AcDbEntity
  8
0
 62
7
100
AcDbLine
 10
25.201316
 20
24.142353
 30
0.0
 11
25.209500
 21
15.316135
 31
0.0
  0
LINE
  5
15e
100
AcDbEntity
  8
0
 62
7
100
AcDbLine
 10
25.209500
 20
15.316135
 30
0.0
 11
19.165993
 21
15.033913
 31
0.0
  0
LINE
  5
15f
100
AcDbEntity
  8
0
 62
7
100
AcDbLine
 10
19.165993
 20
15.033913
 30
0.0
 11
18.915944
 21
9.951091
 31
0.0
  0
LINE
  5
160
100
AcDbEntity
  8
0
 62
7
100
AcDbLine
 10
18.915944
 20
9.951091
 30
0.0
 11
17.370778
 21
9.951091
 31
0.0
  0
LINE
  5
161
100
AcDbEntity
  8
0
 62
7
100
AcDbLine
 10
17.370778
 20
9.951091
 30
0.0
 11
17.132018
 21
16.751800
 31
0.0
  0
LINE
  5
162
100
AcDbEntity
  8
0
 62
7
100
AcDbLine
 10
17.132018
 20
16.751800
 30
0.0
 11
22.087840
 21
17.871375
 31
0.0
  0
LINE
  5
163
100
AcDbEntity
  8
0
 62
7
100
AcDbLine
 10
22.087840
 20
17.871375
 30
0.0
 11
22.342404
 21
20.866318
 31
0.0
  0
LINE
  5
164
100
AcDbEntity
  8
0
 62
7
100
AcDbLine
 10
22.342404
 20
20.866318
 30
0.0
 11
21.342209
 21
19.610711
 31
0.0
  0
LINE
  5
165
100
AcDbEntity
  8
0
 62
7
100
AcDbLine
 10
21.342209
 20
19.610711
 30
0.0
 11
16.317524
 21
19.610711
 31
0.0
  0
LINE
  5
166
100
AcDbEntity
  8
0
 62
7
100
AcDbLine
 10
16.317524
 20
19.610711
 30
0.0
 11
16.317524
 21
19.616920
 31
0.0
  0
LINE
  5
167
100
AcDbEntity
  8
0
 62
7
100
AcDbLine
 10
16.317524
 20
19.616920
 30
0.0
 11
16.302284
 21
19.610711
 31
0.0
  0
LINE
  5
168
100
AcDbEntity
  8
0
 62
7
100
AcDbLine
 10
16.302284
 20
19.610711
 30
0.0
 11
14.831624
 21
23.096155
 31
0.0
  0
LINE
  5
169
100
AcDbEntity
  8
0
 62
7
100
AcDbLine
 10
14.831624
 20
23.096155
 30
0.0
 11
17.688278
 21
24.301809
 31
0.0
  0
LINE
  5
16a
100
AcDbEntity
  8
0
 62
7
100
AcDbLine
 10
17.688278
 20
24.301809
 30
0.0
 11
19.170791
 21
20.795198
 31
0.0
  0
LINE
  5
16b
100
AcDbEntity
  8
0
 62
7
100
AcDbLine
 10
19.170791
 20
20.795198
 30
0.0
 11
20.229124
 21
20.962273
 31
0.0
  0
LINE
  5
16c
100
AcDbEntity
  8
0
 62
7
100
AcDbLine
 10
19.879451
 20
14.469469
 30
0.0
 11
19.879451
 21
9.951091
 31
0.0
  0
LINE
  5
16d
100
AcDbEntity
  8
0
 62
7
100
AcDbLine
 10
19.879451
 20
9.951091
 30
0.0
 11
25.209500
 21
9.951091
 31
0.0
  0
LINE
  5
16e
100
AcDbEntity
  8
0
 62
7
100
AcDbLine
 10
25.209500
 20
9.951091
 30
0.0
 11
25.209500
 21
14.706253
 31
0.0
  0
LINE
  5
16f
100
AcDbEntity
  8
0
 62
7
100
AcDbLine
 10
25.209500
 20
14.706253
 30
0.0
 11
19.879451
 21
14.469469
 31
0.0
  0
LINE
  5
170
100
AcDbEntity
  8
0
 62
7
100
AcDbLine
 10
12.330571
 20
23.319675
 30
0.0
 11
10.776091
 21
25.258824
 31
0.0
  0
LINE
  5
171
100
AcDbEntity
  8
0
 62
7
100
AcDbLine
 10
10.776091
 20
25.258824
 30
0.0
 11
10.316633
 21
24.169446
 31
0.0
  0
LINE
  5
172
100
AcDbEntity
  8
0
 62
7
100
AcDbLine
 10
10.316633
 20
24.169446
 30
0.0
 11
12.330571
 21
23.319675
 31
0.0
  0
LINE
  5
173
100
AcDbEntity
  8
0
 62
7
100
AcDbLine
 10
6.858847
 20
20.962273
 30
0.0
 11
4.791851
 21
24.062484
 31
0.0
  0
LINE
  5
174
100
AcDbEntity
  8
0
 62
7
100
AcDbLine
 10
4.791851
 20
24.062484
 30
0.0
 11
1.886656
 21
24.142353
 31
0.0
  0
LINE
  5
175
100
AcDbEntity
  8
0
 62
7
100
AcDbLine
 10
1.886656
 20
24.142353
 30
0.0
 11
1.878471
 21
15.316135
 31
0.0
  0
LINE
  5
176
100
AcDbEntity
  8
0
 62
7
100
AcDbLine
 10
1.878471
 20
15.316135
 30
0.0
 11
7.921978
 21
15.033913
 31
0.0
  0
LINE
  5
177
100
AcDbEntity
  8
0
 62
7
100
AcDbLine
 10
7.921978
 20
15.033913
 30
0.0
 11
8.172027
 21
9.951091
 31
0.0
  0
LINE
  5
178
100
AcDbEntity
  8
0
 62
7
100
AcDbLine
 10
8.172027
 20
9.951091
 30
0.0
 11
9.717193
 21
9.951091
 31
0.0
  0
LINE
  5
179
100
AcDbEntity
  8
0
 62
7
100
AcDbLine
 10
9.717193
 20
9.951091
 30
0.0
 11
9.858022
 21
14.470033
 31
0.0
  0
LINE
  5
17a
100
AcDbEntity
  8
0
 62
7
100
AcDbLine
 10
9.858022
 20
14.470033
 30
0.0
 11
10.286718
 21
14.470033
 31
0.0
  0
LINE
  5
17b
100
AcDbEntity
  8
0
 62
7
100
AcDbLine
 10
10.286718
 20
14.470033
 30
0.0
 11
10.033847
 21
16.735713
 31
0.0
  0
LINE
  5
17c
100
AcDbEntity
  8
0
 62
7
100
AcDbLine
 10
10.033847
 20
16.735713
 30
0.0
 11
5.000131
 21
17.871375
 31
0.0
  0
LINE
  5
17d
100
AcDbEntity
  8
0
 62
7
100
AcDbLine
 10
5.000131
 20
17.871375
 30
0.0
 11
4.745567
 21
20.866318
 31
0.0
  0
LINE
  5
17e
100
AcDbEntity
  8
0
 62
7
100
AcDbLine
 10
4.745567
 20
20.866318
 30
0.0
 11
5.746044
 21
19.610711
 31
0.0
  0
LINE
  5
17f
100
AcDbEntity
  8
0
 62
7
100
AcDbLine
 10
5.746044
 20
19.610711
 30
0.0
 11
10.770447
 21
19.610711
 31
0.0
  0
LINE
  5
180
100
AcDbEntity
  8
0
 62
7
100
AcDbLine
 10
10.770447
 20
19.610711
 30
0.0
 11
10.770447
 21
19.616920
 31
0.0
  0
LINE
  5
181
100
AcDbEntity
  8
0
 62
7
100
AcDbLine
 10
10.770447
 20
19.616920
 30
0.0
 11
10.785687
 21
19.610711
 31
0.0
  0
LINE
  5
182
100
AcDbEntity
  8
0
 62
7
100
AcDbLine
 10
10.785687
 20
19.610711
 30
0.0
 11
12.256347
 21
23.096155
 31
0.0
  0
LINE
  5
183
100
AcDbEntity
  8
0
 62
7
100
AcDbLine
 10
12.256347
 20
23.096155
 30
0.0
 11
9.399693
 21
24.301809
 31
0.0
  0
LINE
  5
184
100
AcDbEntity
  8
0
 62
7
100
AcDbLine
 10
9.399693
 20
24.301809
 30
0.0
 11
7.917180
 21
20.795198
 31
0.0
  0
LINE
  5
185
100
AcDbEntity
  8
0
 62
7
100
AcDbLine
 10
7.917180
 20
20.795198
 30
0.0
 11
6.858847
 21
20.962273
 31
0.0
  0
LINE
  5
186
100
AcDbEntity
  8
0
 62
7
100
AcDbLine
 10
7.208520
 20
14.469469
 30
0.0
 11
7.208520
 21
9.951091
 31
0.0
  0
LINE
  5
187
100
AcDbEntity
  8
0
 62
7
100
AcDbLine
 10
7.208520
 20
9.951091
 30
0.0
 11
1.878471
 21
9.951091
 31
0.0
  0
LINE
  5
188
100
AcDbEntity
  8
0
 62
7
100
AcDbLine
 10
1.878471
 20
9.951091
 30
0.0
 11
1.878471
 21
14.706253
 31
0.0
  0
LINE
  5
189
100
AcDbEntity
  8
0
 62
7
100
AcDbLine
 10
1.878471
 20
14.706253
 30
0.0
 11
7.208520
 21
14.469469
 31
0.0
  0
ENDSEC
  0
SECTION
  2
OBJECTS
  0
DICTIONARY
  5
C
330
0
100
AcDbDictionary
  3
ACAD_GROUP
350
D
  3
ACAD_MLINESTYLE
350
17
  0
DICTIONARY
  5
D
330
C
100
AcDbDictionary
  0
DICTIONARY
  5
1A
330
C
100
AcDbDictionary
  0
DICTIONARY
  5
17
330
C
100
AcDbDictionary
  3
STANDARD
350
18
  0
DICTIONARY
  5
19
330
C
100
AcDbDictionary
  0
ENDSEC
  0
EOF
