<svg xmlns="http://www.w3.org/2000/svg" xmlns:xlink="http://www.w3.org/1999/xlink" version="1.1" x="0px" y="0px" viewBox="0 0 100 125" enable-background="new 0 0 100 100" xml:space="preserve"><g><path d="M30.895,39.457l-1.032-9.755c-0.214-1.717-1.673-3.006-3.403-3.008L9.557,26.676c-1.777-0.002-3.262,1.352-3.423,3.122   c-0.002-1.17-0.638,9.43-0.939,19.15c-0.004,0.136,0.001,0.27,0.022,0.405c0.523,3.45,1.867,7.884,8.898,10.142   c4.204,1.35,5.099-1.982,3.485-3.968c-1.583-1.948-2.998-3.492-3.951-4.886c-0.89-1.302-0.719-5.009-0.689-5.461   c1.233-0.72,3.359-1.597,4.306-1.978C21.268,41.594,25.891,40.355,30.895,39.457z"/><path d="M94.301,54.976c-0.597,1.032-1.387,2.032-2.443,2.95c-0.379,3.287-4.56,6.804-11.354,9.5   c-8.172,3.243-19.099,5.029-30.767,5.029c-11.668,0-22.594-1.786-30.766-5.029c-6.918-2.745-11.13-6.341-11.373-9.68   c-1.021-0.929-1.78-1.936-2.352-2.972c-0.273,0.725,1.446,26.66,1.446,26.66h5.339l-0.143-14.345   c4.683,2.888,11.403,5.203,19.358,6.629l1.226,17.472h5.271l1.351-16.401c3.414,0.329,6.975,0.507,10.644,0.507   c3.538,0,6.976-0.167,10.278-0.474l1.139,16.367h5.271l1.436-17.406c8.119-1.42,14.975-3.764,19.731-6.698l-0.126,14.104h5.339   C92.806,81.189,94.53,55.635,94.301,54.976z"/><path d="M68.768,39.457l1.032-9.755c0.214-1.717,1.673-3.006,3.403-3.008l16.902-0.018c1.777-0.002,3.262,1.352,3.423,3.122   c0.002-1.17,0.638,9.43,0.939,19.15c0.004,0.136-0.001,0.27-0.022,0.405c-0.523,3.45-1.867,7.884-8.898,10.142   c-4.204,1.35-5.099-1.982-3.485-3.968c1.583-1.948,2.998-3.492,3.951-4.886c0.89-1.302,0.719-5.009,0.689-5.461   c-1.233-0.72-3.359-1.597-4.306-1.978C78.395,41.594,73.772,40.355,68.768,39.457z"/><path d="M63.847,15.714c0,0-9.024,2.42-10.97,5.552c-1.168,1.877-1.317,3.089-1.301,4.207l0.018-0.031   c0.227,0.5,0.86,1.116,1.745,1.611c0.885,0.495,1.741,0.711,2.285,0.643l-0.04,0.071c1.061-0.698,2.269-1.475,2.782-3.808   C60,18.226,63.847,15.714,63.847,15.714z"/><path d="M50.847,36.237l3.634-6.498c-0.544,0.068-1.4-0.148-2.285-0.643c-0.885-0.495-1.519-1.112-1.745-1.611l-5.259,9.402   C47.226,36.361,49.204,36.243,50.847,36.237z"/><path d="M35.191,55.942c-1.16,2.94-1.588,4.975-0.982,5.314c0.468,0.262,1.48-0.538,2.793-2.082   C36.239,58.174,35.629,57.089,35.191,55.942z"/><path d="M64.611,51.055c-1.18-1.499-1.6-1.423-3.545-1.947c-2.236-0.541-4.62-0.185-4.636-2.876   c-0.015-2.703,4.118-2.846,4.558-4.752c0.324-1.404-0.756-3.888-9.067-4.094c-0.907-0.022-1.828-0.004-2.749,0.053   c-0.393,0.021-0.781,0.055-1.165,0.105c-3.048,0.344-6.032,1.322-8.434,3.723c-2.019,2.019-3.297,4.478-3.838,7.019   c-0.008,0.039-0.013,0.078-0.021,0.117c-0.077,0.375-0.141,0.751-0.184,1.128c-0.02,0.162-0.027,0.326-0.04,0.49   c-0.022,0.276-0.041,0.552-0.045,0.828c-0.002,0.069-0.01,0.136-0.01,0.205c0,0.114,0.015,0.224,0.018,0.337   c0.007,0.265,0.019,0.528,0.043,0.791c0.016,0.186,0.037,0.37,0.061,0.553c0.031,0.243,0.072,0.484,0.117,0.724   c0.04,0.205,0.081,0.409,0.129,0.61c0.045,0.181,0.095,0.359,0.148,0.538c0.08,0.276,0.165,0.55,0.261,0.819   c0.015,0.037,0.029,0.073,0.043,0.109c1.984,5.337,7.391,9.173,13.768,9.173C58.08,64.711,69.273,56.984,64.611,51.055z    M41.584,56.506c-1.297,0-2.35-0.902-2.35-2.015c0-1.113,1.053-2.014,2.35-2.014c1.298,0,2.351,0.902,2.351,2.014   C43.935,55.604,42.883,56.506,41.584,56.506z M42.311,48.001c-1.298,0-2.35-0.902-2.35-2.015c0-1.113,1.052-2.014,2.35-2.014   s2.35,0.902,2.35,2.014C44.661,47.099,43.609,48.001,42.311,48.001z M49.837,61.305c-1.298,0-2.35-0.902-2.35-2.015   c0-1.113,1.052-2.014,2.35-2.014s2.351,0.902,2.351,2.014C52.188,60.403,51.135,61.305,49.837,61.305z M50.572,43.322   c-1.298,0-2.351-0.902-2.351-2.014c0-1.113,1.053-2.015,2.351-2.015c1.297,0,2.35,0.902,2.35,2.015   C52.922,42.42,51.869,43.322,50.572,43.322z M59.047,56.506c-1.298,0-2.351-0.902-2.351-2.015c0-1.113,1.053-2.014,2.351-2.014   c1.297,0,2.35,0.902,2.35,2.014C61.397,55.604,60.344,56.506,59.047,56.506z"/><path d="M36.569,40.388c-8.506,1.046-15.939,3.062-21.457,5.728v2.267c1.134-0.586,2.375-1.149,3.719-1.682   c5.037-1.999,11.105-3.447,17.737-4.276V40.388z"/><path d="M63.414,40.412v2.037c6.559,0.833,12.56,2.272,17.55,4.251c1.418,0.563,2.723,1.158,3.907,1.778v-2.271   C79.374,43.517,71.938,41.477,63.414,40.412z"/><circle cx="18.044" cy="17.4" r="6.882"/><circle cx="81.618" cy="17.4" r="6.882"/></g><text x="0" y="115" fill="#000000" font-size="5px" font-weight="bold" font-family="'Helvetica Neue', Helvetica, Arial-Unicode, Arial, Sans-serif">Created by Gerald Wildmoser</text><text x="0" y="120" fill="#000000" font-size="5px" font-weight="bold" font-family="'Helvetica Neue', Helvetica, Arial-Unicode, Arial, Sans-serif">from the Noun Project</text></svg>