  0
SECTION
  2
HEADER
  9
$ACADVER
  1
AC1014
  9
$HANDSEED
  5
FFFF
  9
$MEASUREMENT
 70
     1
  0
ENDSEC
  0
SECTION
  2
TABLES
  0
TABLE
  2
VPORT
  5
8
330
0
100
AcDbSymbolTable
 70
     4
  0
VPORT
  5
2E
330
8
100
AcDbSymbolTableRecord
100
AcDbViewportTableRecord
  2
*ACTIVE
 70
     0
 10
0.0
 20
0.0
 11
1.0
 21
1.0
 12
210.0
 22
148.5
 13
0.0
 23
0.0
 14
10.0
 24
10.0
 15
10.0
 25
10.0
 16
0.0
 26
0.0
 36
1.0
 17
0.0
 27
0.0
 37
0.0
 40
341.0
 41
1.24
 42
50.0
 43
0.0
 44
0.0
 50
0.0
 51
0.0
 71
     0
 72
   100
 73
     1
 74
     3
 75
     0
 76
     0
 77
     0
 78
     0
  0
ENDTAB
  0
TABLE
  2
LTYPE
  5
5
330
0
100
AcDbSymbolTable
 70
     1
  0
LTYPE
  5
14
330
5
100
AcDbSymbolTableRecord
100
AcDbLinetypeTableRecord
  2
BYBLOCK
 70
     0
  3

 72
    65
 73
     0
 40
0.0
  0
LTYPE
  5
15
330
5
100
AcDbSymbolTableRecord
100
AcDbLinetypeTableRecord
  2
BYLAYER
 70
     0
  3

 72
    65
 73
     0
 40
0.0
  0
LTYPE
  5
16
330
5
100
AcDbSymbolTableRecord
100
AcDbLinetypeTableRecord
  2
CONTINUOUS
 70
     0
  3
Solid line
 72
    65
 73
     0
 40
0.0
  0
ENDTAB
  0
TABLE
  2
LAYER
  5
2
100
AcDbSymbolTable
 70
1
  0
LAYER
  5
50
100
AcDbSymbolTableRecord
100
AcDbLayerTableRecord
  2
0
 70
0
  6
CONTINUOUS
  0
ENDTAB
  0
TABLE
  2
STYLE
  5
3
330
0
100
AcDbSymbolTable
 70
     1
  0
STYLE
  5
11
330
3
100
AcDbSymbolTableRecord
100
AcDbTextStyleTableRecord
  2
STANDARD
 70
     0
 40
0.0
 41
1.0
 50
0.0
 71
     0
 42
2.5
  3
txt
  4

  0
ENDTAB
  0
TABLE
  2
VIEW
  5
6
330
0
100
AcDbSymbolTable
 70
     0
  0
ENDTAB
  0
TABLE
  2
UCS
  5
7
330
0
100
AcDbSymbolTable
 70
     0
  0
ENDTAB
  0
TABLE
  2
APPID
  5
9
330
0
100
AcDbSymbolTable
 70
     2
  0
APPID
  5
12
330
9
100
AcDbSymbolTableRecord
100
AcDbRegAppTableRecord
  2
ACAD
 70
     0
  0
ENDTAB
  0
TABLE
  2
DIMSTYLE
  5
A
330
0
100
AcDbSymbolTable
 70
     1
  0
DIMSTYLE
105
27
330
A
100
AcDbSymbolTableRecord
100
AcDbDimStyleTableRecord
  2
ISO-25
 70
     0
  3

  4

  5

  6

  7

 40
1.0
 41
2.5
 42
0.625
 43
3.75
 44
1.25
 45
0.0
 46
0.0
 47
0.0
 48
0.0
140
2.5
141
2.5
142
0.0
143
0.03937007874016
144
1.0
145
0.0
146
1.0
147
0.625
 71
     0
 72
     0
 73
     0
 74
     0
 75
     0
 76
     0
 77
     1
 78
     8
170
     0
171
     3
172
     1
173
     0
174
     0
175
     0
176
     0
177
     0
178
     0
270
     2
271
     2
272
     2
273
     2
274
     3
340
11
275
     0
280
     0
281
     0
282
     0
283
     0
284
     8
285
     0
286
     0
287
     3
288
     0
  0
ENDTAB
  0
TABLE
  2
BLOCK_RECORD
  5
1
330
0
100
AcDbSymbolTable
 70
     1
  0
BLOCK_RECORD
  5
1F
330
1
100
AcDbSymbolTableRecord
100
AcDbBlockTableRecord
  2
*MODEL_SPACE
  0
BLOCK_RECORD
  5
1B
330
1
100
AcDbSymbolTableRecord
100
AcDbBlockTableRecord
  2
*PAPER_SPACE
  0
ENDTAB
  0
ENDSEC
  0
SECTION
  2
BLOCKS
  0
BLOCK
  5
20
330
1F
100
AcDbEntity
  8
0
100
AcDbBlockBegin
  2
*MODEL_SPACE
 70
     0
 10
0.0
 20
0.0
 30
0.0
  3
*MODEL_SPACE
  1

  0
ENDBLK
  5
21
330
1F
100
AcDbEntity
  8
0
100
AcDbBlockEnd
  0
BLOCK
  5
1C
330
1B
100
AcDbEntity
 67
     1
  8
0
100
AcDbBlockBegin
  2
*PAPER_SPACE
  1

  0
ENDBLK
  5
1D
330
1B
100
AcDbEntity
 67
     1
  8
0
100
AcDbBlockEnd
  0
ENDSEC
  0
SECTION
  2
ENTITIES
  0
LINE
  5
100
100
AcDbEntity
  8
0
 62
7
100
AcDbLine
 10
12.107333
 20
21.156964
 30
0.0
 11
11.422944
 21
21.156964
 31
0.0
  0
LINE
  5
101
100
AcDbEntity
  8
0
 62
7
100
AcDbLine
 10
11.422944
 20
21.156964
 30
0.0
 11
10.738556
 21
21.156964
 31
0.0
  0
LINE
  5
102
100
AcDbEntity
  8
0
 62
7
100
AcDbLine
 10
10.738556
 20
21.156964
 30
0.0
 11
10.054167
 21
21.156964
 31
0.0
  0
LINE
  5
103
100
AcDbEntity
  8
0
 62
7
100
AcDbLine
 10
10.054167
 20
21.156964
 30
0.0
 11
9.369778
 21
21.156964
 31
0.0
  0
LINE
  5
104
100
AcDbEntity
  8
0
 62
7
100
AcDbLine
 10
9.369778
 20
21.156964
 30
0.0
 11
8.685389
 21
21.156964
 31
0.0
  0
LINE
  5
105
100
AcDbEntity
  8
0
 62
7
100
AcDbLine
 10
8.685389
 20
21.156964
 30
0.0
 11
8.001000
 21
21.156964
 31
0.0
  0
LINE
  5
106
100
AcDbEntity
  8
0
 62
7
100
AcDbLine
 10
8.001000
 20
21.156964
 30
0.0
 11
7.316611
 21
21.156964
 31
0.0
  0
LINE
  5
107
100
AcDbEntity
  8
0
 62
7
100
AcDbLine
 10
7.316611
 20
21.156964
 30
0.0
 11
6.632222
 21
21.156964
 31
0.0
  0
LINE
  5
108
100
AcDbEntity
  8
0
 62
7
100
AcDbLine
 10
6.632222
 20
21.156964
 30
0.0
 11
5.947833
 21
21.156964
 31
0.0
  0
LINE
  5
109
100
AcDbEntity
  8
0
 62
7
100
AcDbLine
 10
5.947833
 20
21.156964
 30
0.0
 11
5.263444
 21
21.156964
 31
0.0
  0
LINE
  5
10a
100
AcDbEntity
  8
0
 62
7
100
AcDbLine
 10
5.263444
 20
21.156964
 30
0.0
 11
4.579056
 21
21.156964
 31
0.0
  0
LINE
  5
10b
100
AcDbEntity
  8
0
 62
7
100
AcDbLine
 10
4.579056
 20
21.156964
 30
0.0
 11
3.894667
 21
21.156964
 31
0.0
  0
LINE
  5
10c
100
AcDbEntity
  8
0
 62
7
100
AcDbLine
 10
3.894667
 20
21.156964
 30
0.0
 11
3.210278
 21
21.156964
 31
0.0
  0
LINE
  5
10d
100
AcDbEntity
  8
0
 62
7
100
AcDbLine
 10
3.210278
 20
21.156964
 30
0.0
 11
2.525889
 21
21.156964
 31
0.0
  0
LINE
  5
10e
100
AcDbEntity
  8
0
 62
7
100
AcDbLine
 10
2.525889
 20
21.156964
 30
0.0
 11
1.841500
 21
21.156964
 31
0.0
  0
LINE
  5
10f
100
AcDbEntity
  8
0
 62
7
100
AcDbLine
 10
1.841500
 20
21.156964
 30
0.0
 11
1.157111
 21
21.156964
 31
0.0
  0
LINE
  5
110
100
AcDbEntity
  8
0
 62
7
100
AcDbLine
 10
1.157111
 20
21.156964
 30
0.0
 11
1.052683
 21
21.162173
 31
0.0
  0
LINE
  5
111
100
AcDbEntity
  8
0
 62
7
100
AcDbLine
 10
1.052683
 20
21.162173
 30
0.0
 11
0.951398
 21
21.177470
 31
0.0
  0
LINE
  5
112
100
AcDbEntity
  8
0
 62
7
100
AcDbLine
 10
0.951398
 20
21.177470
 30
0.0
 11
0.853750
 21
21.202356
 31
0.0
  0
LINE
  5
113
100
AcDbEntity
  8
0
 62
7
100
AcDbLine
 10
0.853750
 20
21.202356
 30
0.0
 11
0.760236
 21
21.236339
 31
0.0
  0
LINE
  5
114
100
AcDbEntity
  8
0
 62
7
100
AcDbLine
 10
0.760236
 20
21.236339
 30
0.0
 11
0.671353
 21
21.278920
 31
0.0
  0
LINE
  5
115
100
AcDbEntity
  8
0
 62
7
100
AcDbLine
 10
0.671353
 20
21.278920
 30
0.0
 11
0.587595
 21
21.329604
 31
0.0
  0
LINE
  5
116
100
AcDbEntity
  8
0
 62
7
100
AcDbLine
 10
0.587595
 20
21.329604
 30
0.0
 11
0.509461
 21
21.387895
 31
0.0
  0
LINE
  5
117
100
AcDbEntity
  8
0
 62
7
100
AcDbLine
 10
0.509461
 20
21.387895
 30
0.0
 11
0.437444
 21
21.453297
 31
0.0
  0
LINE
  5
118
100
AcDbEntity
  8
0
 62
7
100
AcDbLine
 10
0.437444
 20
21.453297
 30
0.0
 11
0.372043
 21
21.525313
 31
0.0
  0
LINE
  5
119
100
AcDbEntity
  8
0
 62
7
100
AcDbLine
 10
0.372043
 20
21.525313
 30
0.0
 11
0.313752
 21
21.603448
 31
0.0
  0
LINE
  5
11a
100
AcDbEntity
  8
0
 62
7
100
AcDbLine
 10
0.313752
 20
21.603448
 30
0.0
 11
0.263067
 21
21.687205
 31
0.0
  0
LINE
  5
11b
100
AcDbEntity
  8
0
 62
7
100
AcDbLine
 10
0.263067
 20
21.687205
 30
0.0
 11
0.220486
 21
21.776089
 31
0.0
  0
LINE
  5
11c
100
AcDbEntity
  8
0
 62
7
100
AcDbLine
 10
0.220486
 20
21.776089
 30
0.0
 11
0.186504
 21
21.869602
 31
0.0
  0
LINE
  5
11d
100
AcDbEntity
  8
0
 62
7
100
AcDbLine
 10
0.186504
 20
21.869602
 30
0.0
 11
0.161616
 21
21.967250
 31
0.0
  0
LINE
  5
11e
100
AcDbEntity
  8
0
 62
7
100
AcDbLine
 10
0.161616
 20
21.967250
 30
0.0
 11
0.146320
 21
22.068536
 31
0.0
  0
LINE
  5
11f
100
AcDbEntity
  8
0
 62
7
100
AcDbLine
 10
0.146320
 20
22.068536
 30
0.0
 11
0.141111
 21
22.172964
 31
0.0
  0
LINE
  5
120
100
AcDbEntity
  8
0
 62
7
100
AcDbLine
 10
0.141111
 20
22.172964
 30
0.0
 11
0.141111
 21
22.172964
 31
0.0
  0
LINE
  5
121
100
AcDbEntity
  8
0
 62
7
100
AcDbLine
 10
0.141111
 20
22.172964
 30
0.0
 11
0.141111
 21
22.172964
 31
0.0
  0
LINE
  5
122
100
AcDbEntity
  8
0
 62
7
100
AcDbLine
 10
0.141111
 20
22.172964
 30
0.0
 11
0.141111
 21
22.172964
 31
0.0
  0
LINE
  5
123
100
AcDbEntity
  8
0
 62
7
100
AcDbLine
 10
0.141111
 20
22.172964
 30
0.0
 11
0.141111
 21
22.172964
 31
0.0
  0
LINE
  5
124
100
AcDbEntity
  8
0
 62
7
100
AcDbLine
 10
0.141111
 20
22.172964
 30
0.0
 11
0.141111
 21
22.172964
 31
0.0
  0
LINE
  5
125
100
AcDbEntity
  8
0
 62
7
100
AcDbLine
 10
0.141111
 20
22.172964
 30
0.0
 11
0.141111
 21
22.172964
 31
0.0
  0
LINE
  5
126
100
AcDbEntity
  8
0
 62
7
100
AcDbLine
 10
0.141111
 20
22.172964
 30
0.0
 11
0.141111
 21
22.172964
 31
0.0
  0
LINE
  5
127
100
AcDbEntity
  8
0
 62
7
100
AcDbLine
 10
0.141111
 20
22.172964
 30
0.0
 11
0.141111
 21
22.172964
 31
0.0
  0
LINE
  5
128
100
AcDbEntity
  8
0
 62
7
100
AcDbLine
 10
0.141111
 20
22.172964
 30
0.0
 11
0.141111
 21
22.172964
 31
0.0
  0
LINE
  5
129
100
AcDbEntity
  8
0
 62
7
100
AcDbLine
 10
0.141111
 20
22.172964
 30
0.0
 11
0.141111
 21
22.172964
 31
0.0
  0
LINE
  5
12a
100
AcDbEntity
  8
0
 62
7
100
AcDbLine
 10
0.141111
 20
22.172964
 30
0.0
 11
0.141111
 21
22.172964
 31
0.0
  0
LINE
  5
12b
100
AcDbEntity
  8
0
 62
7
100
AcDbLine
 10
0.141111
 20
22.172964
 30
0.0
 11
0.141111
 21
22.172964
 31
0.0
  0
LINE
  5
12c
100
AcDbEntity
  8
0
 62
7
100
AcDbLine
 10
0.141111
 20
22.172964
 30
0.0
 11
0.141111
 21
22.172964
 31
0.0
  0
LINE
  5
12d
100
AcDbEntity
  8
0
 62
7
100
AcDbLine
 10
0.141111
 20
22.172964
 30
0.0
 11
0.141111
 21
22.172964
 31
0.0
  0
LINE
  5
12e
100
AcDbEntity
  8
0
 62
7
100
AcDbLine
 10
0.141111
 20
22.172964
 30
0.0
 11
0.141111
 21
22.172964
 31
0.0
  0
LINE
  5
12f
100
AcDbEntity
  8
0
 62
7
100
AcDbLine
 10
0.141111
 20
22.172964
 30
0.0
 11
0.141111
 21
22.172964
 31
0.0
  0
LINE
  5
130
100
AcDbEntity
  8
0
 62
7
100
AcDbLine
 10
0.141111
 20
22.172964
 30
0.0
 11
0.146320
 21
22.277391
 31
0.0
  0
LINE
  5
131
100
AcDbEntity
  8
0
 62
7
100
AcDbLine
 10
0.146320
 20
22.277391
 30
0.0
 11
0.161616
 21
22.378677
 31
0.0
  0
LINE
  5
132
100
AcDbEntity
  8
0
 62
7
100
AcDbLine
 10
0.161616
 20
22.378677
 30
0.0
 11
0.186504
 21
22.476325
 31
0.0
  0
LINE
  5
133
100
AcDbEntity
  8
0
 62
7
100
AcDbLine
 10
0.186504
 20
22.476325
 30
0.0
 11
0.220486
 21
22.569839
 31
0.0
  0
LINE
  5
134
100
AcDbEntity
  8
0
 62
7
100
AcDbLine
 10
0.220486
 20
22.569839
 30
0.0
 11
0.263067
 21
22.658722
 31
0.0
  0
LINE
  5
135
100
AcDbEntity
  8
0
 62
7
100
AcDbLine
 10
0.263067
 20
22.658722
 30
0.0
 11
0.313752
 21
22.742479
 31
0.0
  0
LINE
  5
136
100
AcDbEntity
  8
0
 62
7
100
AcDbLine
 10
0.313752
 20
22.742479
 30
0.0
 11
0.372043
 21
22.820614
 31
0.0
  0
LINE
  5
137
100
AcDbEntity
  8
0
 62
7
100
AcDbLine
 10
0.372043
 20
22.820614
 30
0.0
 11
0.437444
 21
22.892630
 31
0.0
  0
LINE
  5
138
100
AcDbEntity
  8
0
 62
7
100
AcDbLine
 10
0.437444
 20
22.892630
 30
0.0
 11
0.509461
 21
22.958032
 31
0.0
  0
LINE
  5
139
100
AcDbEntity
  8
0
 62
7
100
AcDbLine
 10
0.509461
 20
22.958032
 30
0.0
 11
0.587595
 21
23.016323
 31
0.0
  0
LINE
  5
13a
100
AcDbEntity
  8
0
 62
7
100
AcDbLine
 10
0.587595
 20
23.016323
 30
0.0
 11
0.671353
 21
23.067007
 31
0.0
  0
LINE
  5
13b
100
AcDbEntity
  8
0
 62
7
100
AcDbLine
 10
0.671353
 20
23.067007
 30
0.0
 11
0.760236
 21
23.109589
 31
0.0
  0
LINE
  5
13c
100
AcDbEntity
  8
0
 62
7
100
AcDbLine
 10
0.760236
 20
23.109589
 30
0.0
 11
0.853750
 21
23.143571
 31
0.0
  0
LINE
  5
13d
100
AcDbEntity
  8
0
 62
7
100
AcDbLine
 10
0.853750
 20
23.143571
 30
0.0
 11
0.951398
 21
23.168457
 31
0.0
  0
LINE
  5
13e
100
AcDbEntity
  8
0
 62
7
100
AcDbLine
 10
0.951398
 20
23.168457
 30
0.0
 11
1.052683
 21
23.183754
 31
0.0
  0
LINE
  5
13f
100
AcDbEntity
  8
0
 62
7
100
AcDbLine
 10
1.052683
 20
23.183754
 30
0.0
 11
1.157111
 21
23.188964
 31
0.0
  0
LINE
  5
140
100
AcDbEntity
  8
0
 62
7
100
AcDbLine
 10
1.157111
 20
23.188964
 30
0.0
 11
1.843264
 21
23.188964
 31
0.0
  0
LINE
  5
141
100
AcDbEntity
  8
0
 62
7
100
AcDbLine
 10
1.843264
 20
23.188964
 30
0.0
 11
2.529417
 21
23.188964
 31
0.0
  0
LINE
  5
142
100
AcDbEntity
  8
0
 62
7
100
AcDbLine
 10
2.529417
 20
23.188964
 30
0.0
 11
3.215569
 21
23.188964
 31
0.0
  0
LINE
  5
143
100
AcDbEntity
  8
0
 62
7
100
AcDbLine
 10
3.215569
 20
23.188964
 30
0.0
 11
3.901722
 21
23.188964
 31
0.0
  0
LINE
  5
144
100
AcDbEntity
  8
0
 62
7
100
AcDbLine
 10
3.901722
 20
23.188964
 30
0.0
 11
4.587875
 21
23.188964
 31
0.0
  0
LINE
  5
145
100
AcDbEntity
  8
0
 62
7
100
AcDbLine
 10
4.587875
 20
23.188964
 30
0.0
 11
5.274028
 21
23.188964
 31
0.0
  0
LINE
  5
146
100
AcDbEntity
  8
0
 62
7
100
AcDbLine
 10
5.274028
 20
23.188964
 30
0.0
 11
5.960181
 21
23.188964
 31
0.0
  0
LINE
  5
147
100
AcDbEntity
  8
0
 62
7
100
AcDbLine
 10
5.960181
 20
23.188964
 30
0.0
 11
6.646333
 21
23.188964
 31
0.0
  0
LINE
  5
148
100
AcDbEntity
  8
0
 62
7
100
AcDbLine
 10
6.646333
 20
23.188964
 30
0.0
 11
7.332486
 21
23.188964
 31
0.0
  0
LINE
  5
149
100
AcDbEntity
  8
0
 62
7
100
AcDbLine
 10
7.332486
 20
23.188964
 30
0.0
 11
8.018639
 21
23.188964
 31
0.0
  0
LINE
  5
14a
100
AcDbEntity
  8
0
 62
7
100
AcDbLine
 10
8.018639
 20
23.188964
 30
0.0
 11
8.704792
 21
23.188964
 31
0.0
  0
LINE
  5
14b
100
AcDbEntity
  8
0
 62
7
100
AcDbLine
 10
8.704792
 20
23.188964
 30
0.0
 11
9.390944
 21
23.188964
 31
0.0
  0
LINE
  5
14c
100
AcDbEntity
  8
0
 62
7
100
AcDbLine
 10
9.390944
 20
23.188964
 30
0.0
 11
10.077097
 21
23.188964
 31
0.0
  0
LINE
  5
14d
100
AcDbEntity
  8
0
 62
7
100
AcDbLine
 10
10.077097
 20
23.188964
 30
0.0
 11
10.763250
 21
23.188964
 31
0.0
  0
LINE
  5
14e
100
AcDbEntity
  8
0
 62
7
100
AcDbLine
 10
10.763250
 20
23.188964
 30
0.0
 11
11.449403
 21
23.188964
 31
0.0
  0
LINE
  5
14f
100
AcDbEntity
  8
0
 62
7
100
AcDbLine
 10
11.449403
 20
23.188964
 30
0.0
 11
12.135556
 21
23.188964
 31
0.0
  0
LINE
  5
150
100
AcDbEntity
  8
0
 62
7
100
AcDbLine
 10
12.135556
 20
23.188964
 30
0.0
 11
12.239983
 21
23.183754
 31
0.0
  0
LINE
  5
151
100
AcDbEntity
  8
0
 62
7
100
AcDbLine
 10
12.239983
 20
23.183754
 30
0.0
 11
12.341269
 21
23.168457
 31
0.0
  0
LINE
  5
152
100
AcDbEntity
  8
0
 62
7
100
AcDbLine
 10
12.341269
 20
23.168457
 30
0.0
 11
12.438917
 21
23.143571
 31
0.0
  0
LINE
  5
153
100
AcDbEntity
  8
0
 62
7
100
AcDbLine
 10
12.438917
 20
23.143571
 30
0.0
 11
12.532431
 21
23.109589
 31
0.0
  0
LINE
  5
154
100
AcDbEntity
  8
0
 62
7
100
AcDbLine
 10
12.532431
 20
23.109589
 30
0.0
 11
12.621314
 21
23.067007
 31
0.0
  0
LINE
  5
155
100
AcDbEntity
  8
0
 62
7
100
AcDbLine
 10
12.621314
 20
23.067007
 30
0.0
 11
12.705071
 21
23.016323
 31
0.0
  0
LINE
  5
156
100
AcDbEntity
  8
0
 62
7
100
AcDbLine
 10
12.705071
 20
23.016323
 30
0.0
 11
12.783206
 21
22.958032
 31
0.0
  0
LINE
  5
157
100
AcDbEntity
  8
0
 62
7
100
AcDbLine
 10
12.783206
 20
22.958032
 30
0.0
 11
12.855222
 21
22.892630
 31
0.0
  0
LINE
  5
158
100
AcDbEntity
  8
0
 62
7
100
AcDbLine
 10
12.855222
 20
22.892630
 30
0.0
 11
12.920624
 21
22.820614
 31
0.0
  0
LINE
  5
159
100
AcDbEntity
  8
0
 62
7
100
AcDbLine
 10
12.920624
 20
22.820614
 30
0.0
 11
12.978915
 21
22.742479
 31
0.0
  0
LINE
  5
15a
100
AcDbEntity
  8
0
 62
7
100
AcDbLine
 10
12.978915
 20
22.742479
 30
0.0
 11
13.029599
 21
22.658722
 31
0.0
  0
LINE
  5
15b
100
AcDbEntity
  8
0
 62
7
100
AcDbLine
 10
13.029599
 20
22.658722
 30
0.0
 11
13.072181
 21
22.569839
 31
0.0
  0
LINE
  5
15c
100
AcDbEntity
  8
0
 62
7
100
AcDbLine
 10
13.072181
 20
22.569839
 30
0.0
 11
13.106163
 21
22.476325
 31
0.0
  0
LINE
  5
15d
100
AcDbEntity
  8
0
 62
7
100
AcDbLine
 10
13.106163
 20
22.476325
 30
0.0
 11
13.131049
 21
22.378677
 31
0.0
  0
LINE
  5
15e
100
AcDbEntity
  8
0
 62
7
100
AcDbLine
 10
13.131049
 20
22.378677
 30
0.0
 11
13.146346
 21
22.277391
 31
0.0
  0
LINE
  5
15f
100
AcDbEntity
  8
0
 62
7
100
AcDbLine
 10
13.146346
 20
22.277391
 30
0.0
 11
13.151556
 21
22.172964
 31
0.0
  0
LINE
  5
160
100
AcDbEntity
  8
0
 62
7
100
AcDbLine
 10
13.151556
 20
22.172964
 30
0.0
 11
13.151556
 21
22.172964
 31
0.0
  0
LINE
  5
161
100
AcDbEntity
  8
0
 62
7
100
AcDbLine
 10
13.151556
 20
22.172964
 30
0.0
 11
13.151556
 21
22.172964
 31
0.0
  0
LINE
  5
162
100
AcDbEntity
  8
0
 62
7
100
AcDbLine
 10
13.151556
 20
22.172964
 30
0.0
 11
13.151556
 21
22.172964
 31
0.0
  0
LINE
  5
163
100
AcDbEntity
  8
0
 62
7
100
AcDbLine
 10
13.151556
 20
22.172964
 30
0.0
 11
13.151556
 21
22.172964
 31
0.0
  0
LINE
  5
164
100
AcDbEntity
  8
0
 62
7
100
AcDbLine
 10
13.151556
 20
22.172964
 30
0.0
 11
13.151556
 21
22.172964
 31
0.0
  0
LINE
  5
165
100
AcDbEntity
  8
0
 62
7
100
AcDbLine
 10
13.151556
 20
22.172964
 30
0.0
 11
13.151556
 21
22.172964
 31
0.0
  0
LINE
  5
166
100
AcDbEntity
  8
0
 62
7
100
AcDbLine
 10
13.151556
 20
22.172964
 30
0.0
 11
13.151556
 21
22.172964
 31
0.0
  0
LINE
  5
167
100
AcDbEntity
  8
0
 62
7
100
AcDbLine
 10
13.151556
 20
22.172964
 30
0.0
 11
13.151556
 21
22.172964
 31
0.0
  0
LINE
  5
168
100
AcDbEntity
  8
0
 62
7
100
AcDbLine
 10
13.151556
 20
22.172964
 30
0.0
 11
13.151556
 21
22.172964
 31
0.0
  0
LINE
  5
169
100
AcDbEntity
  8
0
 62
7
100
AcDbLine
 10
13.151556
 20
22.172964
 30
0.0
 11
13.151556
 21
22.172964
 31
0.0
  0
LINE
  5
16a
100
AcDbEntity
  8
0
 62
7
100
AcDbLine
 10
13.151556
 20
22.172964
 30
0.0
 11
13.151556
 21
22.172964
 31
0.0
  0
LINE
  5
16b
100
AcDbEntity
  8
0
 62
7
100
AcDbLine
 10
13.151556
 20
22.172964
 30
0.0
 11
13.151556
 21
22.172964
 31
0.0
  0
LINE
  5
16c
100
AcDbEntity
  8
0
 62
7
100
AcDbLine
 10
13.151556
 20
22.172964
 30
0.0
 11
13.151556
 21
22.172964
 31
0.0
  0
LINE
  5
16d
100
AcDbEntity
  8
0
 62
7
100
AcDbLine
 10
13.151556
 20
22.172964
 30
0.0
 11
13.151556
 21
22.172964
 31
0.0
  0
LINE
  5
16e
100
AcDbEntity
  8
0
 62
7
100
AcDbLine
 10
13.151556
 20
22.172964
 30
0.0
 11
13.151556
 21
22.172964
 31
0.0
  0
LINE
  5
16f
100
AcDbEntity
  8
0
 62
7
100
AcDbLine
 10
13.151556
 20
22.172964
 30
0.0
 11
13.151556
 21
22.172964
 31
0.0
  0
LINE
  5
170
100
AcDbEntity
  8
0
 62
7
100
AcDbLine
 10
13.151556
 20
22.172964
 30
0.0
 11
13.141379
 21
22.068536
 31
0.0
  0
LINE
  5
171
100
AcDbEntity
  8
0
 62
7
100
AcDbLine
 10
13.141379
 20
22.068536
 30
0.0
 11
13.121736
 21
21.967250
 31
0.0
  0
LINE
  5
172
100
AcDbEntity
  8
0
 62
7
100
AcDbLine
 10
13.121736
 20
21.967250
 30
0.0
 11
13.093080
 21
21.869602
 31
0.0
  0
LINE
  5
173
100
AcDbEntity
  8
0
 62
7
100
AcDbLine
 10
13.093080
 20
21.869602
 30
0.0
 11
13.055866
 21
21.776089
 31
0.0
  0
LINE
  5
174
100
AcDbEntity
  8
0
 62
7
100
AcDbLine
 10
13.055866
 20
21.776089
 30
0.0
 11
13.010549
 21
21.687205
 31
0.0
  0
LINE
  5
175
100
AcDbEntity
  8
0
 62
7
100
AcDbLine
 10
13.010549
 20
21.687205
 30
0.0
 11
12.957584
 21
21.603448
 31
0.0
  0
LINE
  5
176
100
AcDbEntity
  8
0
 62
7
100
AcDbLine
 10
12.957584
 20
21.603448
 30
0.0
 11
12.897426
 21
21.525313
 31
0.0
  0
LINE
  5
177
100
AcDbEntity
  8
0
 62
7
100
AcDbLine
 10
12.897426
 20
21.525313
 30
0.0
 11
12.830529
 21
21.453297
 31
0.0
  0
LINE
  5
178
100
AcDbEntity
  8
0
 62
7
100
AcDbLine
 10
12.830529
 20
21.453297
 30
0.0
 11
12.757348
 21
21.387895
 31
0.0
  0
LINE
  5
179
100
AcDbEntity
  8
0
 62
7
100
AcDbLine
 10
12.757348
 20
21.387895
 30
0.0
 11
12.678338
 21
21.329604
 31
0.0
  0
LINE
  5
17a
100
AcDbEntity
  8
0
 62
7
100
AcDbLine
 10
12.678338
 20
21.329604
 30
0.0
 11
12.593954
 21
21.278920
 31
0.0
  0
LINE
  5
17b
100
AcDbEntity
  8
0
 62
7
100
AcDbLine
 10
12.593954
 20
21.278920
 30
0.0
 11
12.504651
 21
21.236339
 31
0.0
  0
LINE
  5
17c
100
AcDbEntity
  8
0
 62
7
100
AcDbLine
 10
12.504651
 20
21.236339
 30
0.0
 11
12.410882
 21
21.202356
 31
0.0
  0
LINE
  5
17d
100
AcDbEntity
  8
0
 62
7
100
AcDbLine
 10
12.410882
 20
21.202356
 30
0.0
 11
12.313103
 21
21.177470
 31
0.0
  0
LINE
  5
17e
100
AcDbEntity
  8
0
 62
7
100
AcDbLine
 10
12.313103
 20
21.177470
 30
0.0
 11
12.211769
 21
21.162173
 31
0.0
  0
LINE
  5
17f
100
AcDbEntity
  8
0
 62
7
100
AcDbLine
 10
12.211769
 20
21.162173
 30
0.0
 11
12.107333
 21
21.156964
 31
0.0
  0
LINE
  5
180
100
AcDbEntity
  8
0
 62
1
100
AcDbLine
 10
12.465943
 20
18.824223
 30
0.0
 11
11.755095
 21
18.824223
 31
0.0
  0
LINE
  5
181
100
AcDbEntity
  8
0
 62
1
100
AcDbLine
 10
11.755095
 20
18.824223
 30
0.0
 11
11.044248
 21
18.824223
 31
0.0
  0
LINE
  5
182
100
AcDbEntity
  8
0
 62
1
100
AcDbLine
 10
11.044248
 20
18.824223
 30
0.0
 11
10.333401
 21
18.824223
 31
0.0
  0
LINE
  5
183
100
AcDbEntity
  8
0
 62
1
100
AcDbLine
 10
10.333401
 20
18.824223
 30
0.0
 11
9.622554
 21
18.824223
 31
0.0
  0
LINE
  5
184
100
AcDbEntity
  8
0
 62
1
100
AcDbLine
 10
9.622554
 20
18.824223
 30
0.0
 11
8.911707
 21
18.824223
 31
0.0
  0
LINE
  5
185
100
AcDbEntity
  8
0
 62
1
100
AcDbLine
 10
8.911707
 20
18.824223
 30
0.0
 11
8.200859
 21
18.824223
 31
0.0
  0
LINE
  5
186
100
AcDbEntity
  8
0
 62
1
100
AcDbLine
 10
8.200859
 20
18.824223
 30
0.0
 11
7.490012
 21
18.824223
 31
0.0
  0
LINE
  5
187
100
AcDbEntity
  8
0
 62
1
100
AcDbLine
 10
7.490012
 20
18.824223
 30
0.0
 11
6.779165
 21
18.824223
 31
0.0
  0
LINE
  5
188
100
AcDbEntity
  8
0
 62
1
100
AcDbLine
 10
6.779165
 20
18.824223
 30
0.0
 11
6.068318
 21
18.824223
 31
0.0
  0
LINE
  5
189
100
AcDbEntity
  8
0
 62
1
100
AcDbLine
 10
6.068318
 20
18.824223
 30
0.0
 11
5.357470
 21
18.824223
 31
0.0
  0
LINE
  5
18a
100
AcDbEntity
  8
0
 62
1
100
AcDbLine
 10
5.357470
 20
18.824223
 30
0.0
 11
4.646623
 21
18.824223
 31
0.0
  0
LINE
  5
18b
100
AcDbEntity
  8
0
 62
1
100
AcDbLine
 10
4.646623
 20
18.824223
 30
0.0
 11
3.935776
 21
18.824223
 31
0.0
  0
LINE
  5
18c
100
AcDbEntity
  8
0
 62
1
100
AcDbLine
 10
3.935776
 20
18.824223
 30
0.0
 11
3.224929
 21
18.824223
 31
0.0
  0
LINE
  5
18d
100
AcDbEntity
  8
0
 62
1
100
AcDbLine
 10
3.224929
 20
18.824223
 30
0.0
 11
2.514082
 21
18.824223
 31
0.0
  0
LINE
  5
18e
100
AcDbEntity
  8
0
 62
1
100
AcDbLine
 10
2.514082
 20
18.824223
 30
0.0
 11
1.803234
 21
18.824223
 31
0.0
  0
LINE
  5
18f
100
AcDbEntity
  8
0
 62
1
100
AcDbLine
 10
1.803234
 20
18.824223
 30
0.0
 11
1.092387
 21
18.824223
 31
0.0
  0
LINE
  5
190
100
AcDbEntity
  8
0
 62
1
100
AcDbLine
 10
1.092387
 20
18.824223
 30
0.0
 11
1.092387
 21
18.824223
 31
0.0
  0
LINE
  5
191
100
AcDbEntity
  8
0
 62
1
100
AcDbLine
 10
1.092387
 20
18.824223
 30
0.0
 11
1.092387
 21
18.824223
 31
0.0
  0
LINE
  5
192
100
AcDbEntity
  8
0
 62
1
100
AcDbLine
 10
1.092387
 20
18.824223
 30
0.0
 11
1.092387
 21
18.824223
 31
0.0
  0
LINE
  5
193
100
AcDbEntity
  8
0
 62
1
100
AcDbLine
 10
1.092387
 20
18.824223
 30
0.0
 11
1.092387
 21
18.824223
 31
0.0
  0
LINE
  5
194
100
AcDbEntity
  8
0
 62
1
100
AcDbLine
 10
1.092387
 20
18.824223
 30
0.0
 11
1.092387
 21
18.824223
 31
0.0
  0
LINE
  5
195
100
AcDbEntity
  8
0
 62
1
100
AcDbLine
 10
1.092387
 20
18.824223
 30
0.0
 11
1.092387
 21
18.824223
 31
0.0
  0
LINE
  5
196
100
AcDbEntity
  8
0
 62
1
100
AcDbLine
 10
1.092387
 20
18.824223
 30
0.0
 11
1.092387
 21
18.824223
 31
0.0
  0
LINE
  5
197
100
AcDbEntity
  8
0
 62
1
100
AcDbLine
 10
1.092387
 20
18.824223
 30
0.0
 11
1.092387
 21
18.824223
 31
0.0
  0
LINE
  5
198
100
AcDbEntity
  8
0
 62
1
100
AcDbLine
 10
1.092387
 20
18.824223
 30
0.0
 11
1.092387
 21
18.824223
 31
0.0
  0
LINE
  5
199
100
AcDbEntity
  8
0
 62
1
100
AcDbLine
 10
1.092387
 20
18.824223
 30
0.0
 11
1.092387
 21
18.824223
 31
0.0
  0
LINE
  5
19a
100
AcDbEntity
  8
0
 62
1
100
AcDbLine
 10
1.092387
 20
18.824223
 30
0.0
 11
1.092387
 21
18.824223
 31
0.0
  0
LINE
  5
19b
100
AcDbEntity
  8
0
 62
1
100
AcDbLine
 10
1.092387
 20
18.824223
 30
0.0
 11
1.092387
 21
18.824223
 31
0.0
  0
LINE
  5
19c
100
AcDbEntity
  8
0
 62
1
100
AcDbLine
 10
1.092387
 20
18.824223
 30
0.0
 11
1.092387
 21
18.824223
 31
0.0
  0
LINE
  5
19d
100
AcDbEntity
  8
0
 62
1
100
AcDbLine
 10
1.092387
 20
18.824223
 30
0.0
 11
1.092387
 21
18.824223
 31
0.0
  0
LINE
  5
19e
100
AcDbEntity
  8
0
 62
1
100
AcDbLine
 10
1.092387
 20
18.824223
 30
0.0
 11
1.092387
 21
18.824223
 31
0.0
  0
LINE
  5
19f
100
AcDbEntity
  8
0
 62
1
100
AcDbLine
 10
1.092387
 20
18.824223
 30
0.0
 11
1.092387
 21
18.824223
 31
0.0
  0
LINE
  5
1a0
100
AcDbEntity
  8
0
 62
1
100
AcDbLine
 10
1.092387
 20
18.824223
 30
0.0
 11
1.104748
 21
18.579008
 31
0.0
  0
LINE
  5
1a1
100
AcDbEntity
  8
0
 62
1
100
AcDbLine
 10
1.104748
 20
18.579008
 30
0.0
 11
1.141004
 21
18.341523
 31
0.0
  0
LINE
  5
1a2
100
AcDbEntity
  8
0
 62
1
100
AcDbLine
 10
1.141004
 20
18.341523
 30
0.0
 11
1.199916
 21
18.112886
 31
0.0
  0
LINE
  5
1a3
100
AcDbEntity
  8
0
 62
1
100
AcDbLine
 10
1.199916
 20
18.112886
 30
0.0
 11
1.280241
 21
17.894212
 31
0.0
  0
LINE
  5
1a4
100
AcDbEntity
  8
0
 62
1
100
AcDbLine
 10
1.280241
 20
17.894212
 30
0.0
 11
1.380742
 21
17.686618
 31
0.0
  0
LINE
  5
1a5
100
AcDbEntity
  8
0
 62
1
100
AcDbLine
 10
1.380742
 20
17.686618
 30
0.0
 11
1.500176
 21
17.491219
 31
0.0
  0
LINE
  5
1a6
100
AcDbEntity
  8
0
 62
1
100
AcDbLine
 10
1.500176
 20
17.491219
 30
0.0
 11
1.637305
 21
17.309131
 31
0.0
  0
LINE
  5
1a7
100
AcDbEntity
  8
0
 62
1
100
AcDbLine
 10
1.637305
 20
17.309131
 30
0.0
 11
1.790887
 21
17.141473
 31
0.0
  0
LINE
  5
1a8
100
AcDbEntity
  8
0
 62
1
100
AcDbLine
 10
1.790887
 20
17.141473
 30
0.0
 11
1.959683
 21
16.989358
 31
0.0
  0
LINE
  5
1a9
100
AcDbEntity
  8
0
 62
1
100
AcDbLine
 10
1.959683
 20
16.989358
 30
0.0
 11
2.142452
 21
16.853904
 31
0.0
  0
LINE
  5
1aa
100
AcDbEntity
  8
0
 62
1
100
AcDbLine
 10
2.142452
 20
16.853904
 30
0.0
 11
2.337954
 21
16.736226
 31
0.0
  0
LINE
  5
1ab
100
AcDbEntity
  8
0
 62
1
100
AcDbLine
 10
2.337954
 20
16.736226
 30
0.0
 11
2.544950
 21
16.637441
 31
0.0
  0
LINE
  5
1ac
100
AcDbEntity
  8
0
 62
1
100
AcDbLine
 10
2.544950
 20
16.637441
 30
0.0
 11
2.762197
 21
16.558666
 31
0.0
  0
LINE
  5
1ad
100
AcDbEntity
  8
0
 62
1
100
AcDbLine
 10
2.762197
 20
16.558666
 30
0.0
 11
2.988457
 21
16.501016
 31
0.0
  0
LINE
  5
1ae
100
AcDbEntity
  8
0
 62
1
100
AcDbLine
 10
2.988457
 20
16.501016
 30
0.0
 11
3.222490
 21
16.465607
 31
0.0
  0
LINE
  5
1af
100
AcDbEntity
  8
0
 62
1
100
AcDbLine
 10
3.222490
 20
16.465607
 30
0.0
 11
3.463054
 21
16.453556
 31
0.0
  0
LINE
  5
1b0
100
AcDbEntity
  8
0
 62
1
100
AcDbLine
 10
3.463054
 20
16.453556
 30
0.0
 11
3.875804
 21
16.453556
 31
0.0
  0
LINE
  5
1b1
100
AcDbEntity
  8
0
 62
1
100
AcDbLine
 10
3.875804
 20
16.453556
 30
0.0
 11
4.288554
 21
16.453556
 31
0.0
  0
LINE
  5
1b2
100
AcDbEntity
  8
0
 62
1
100
AcDbLine
 10
4.288554
 20
16.453556
 30
0.0
 11
4.701304
 21
16.453556
 31
0.0
  0
LINE
  5
1b3
100
AcDbEntity
  8
0
 62
1
100
AcDbLine
 10
4.701304
 20
16.453556
 30
0.0
 11
5.114054
 21
16.453556
 31
0.0
  0
LINE
  5
1b4
100
AcDbEntity
  8
0
 62
1
100
AcDbLine
 10
5.114054
 20
16.453556
 30
0.0
 11
5.526804
 21
16.453556
 31
0.0
  0
LINE
  5
1b5
100
AcDbEntity
  8
0
 62
1
100
AcDbLine
 10
5.526804
 20
16.453556
 30
0.0
 11
5.939554
 21
16.453556
 31
0.0
  0
LINE
  5
1b6
100
AcDbEntity
  8
0
 62
1
100
AcDbLine
 10
5.939554
 20
16.453556
 30
0.0
 11
6.352304
 21
16.453556
 31
0.0
  0
LINE
  5
1b7
100
AcDbEntity
  8
0
 62
1
100
AcDbLine
 10
6.352304
 20
16.453556
 30
0.0
 11
6.765054
 21
16.453556
 31
0.0
  0
LINE
  5
1b8
100
AcDbEntity
  8
0
 62
1
100
AcDbLine
 10
6.765054
 20
16.453556
 30
0.0
 11
7.177804
 21
16.453556
 31
0.0
  0
LINE
  5
1b9
100
AcDbEntity
  8
0
 62
1
100
AcDbLine
 10
7.177804
 20
16.453556
 30
0.0
 11
7.590554
 21
16.453556
 31
0.0
  0
LINE
  5
1ba
100
AcDbEntity
  8
0
 62
1
100
AcDbLine
 10
7.590554
 20
16.453556
 30
0.0
 11
8.003304
 21
16.453556
 31
0.0
  0
LINE
  5
1bb
100
AcDbEntity
  8
0
 62
1
100
AcDbLine
 10
8.003304
 20
16.453556
 30
0.0
 11
8.416054
 21
16.453556
 31
0.0
  0
LINE
  5
1bc
100
AcDbEntity
  8
0
 62
1
100
AcDbLine
 10
8.416054
 20
16.453556
 30
0.0
 11
8.828804
 21
16.453556
 31
0.0
  0
LINE
  5
1bd
100
AcDbEntity
  8
0
 62
1
100
AcDbLine
 10
8.828804
 20
16.453556
 30
0.0
 11
9.241554
 21
16.453556
 31
0.0
  0
LINE
  5
1be
100
AcDbEntity
  8
0
 62
1
100
AcDbLine
 10
9.241554
 20
16.453556
 30
0.0
 11
9.654304
 21
16.453556
 31
0.0
  0
LINE
  5
1bf
100
AcDbEntity
  8
0
 62
1
100
AcDbLine
 10
9.654304
 20
16.453556
 30
0.0
 11
10.067054
 21
16.453556
 31
0.0
  0
LINE
  5
1c0
100
AcDbEntity
  8
0
 62
1
100
AcDbLine
 10
10.067054
 20
16.453556
 30
0.0
 11
10.317237
 21
16.465917
 31
0.0
  0
LINE
  5
1c1
100
AcDbEntity
  8
0
 62
1
100
AcDbLine
 10
10.317237
 20
16.465917
 30
0.0
 11
10.559068
 21
16.502173
 31
0.0
  0
LINE
  5
1c2
100
AcDbEntity
  8
0
 62
1
100
AcDbLine
 10
10.559068
 20
16.502173
 30
0.0
 11
10.791475
 21
16.561085
 31
0.0
  0
LINE
  5
1c3
100
AcDbEntity
  8
0
 62
1
100
AcDbLine
 10
10.791475
 20
16.561085
 30
0.0
 11
11.013380
 21
16.641410
 31
0.0
  0
LINE
  5
1c4
100
AcDbEntity
  8
0
 62
1
100
AcDbLine
 10
11.013380
 20
16.641410
 30
0.0
 11
11.223710
 21
16.741911
 31
0.0
  0
LINE
  5
1c5
100
AcDbEntity
  8
0
 62
1
100
AcDbLine
 10
11.223710
 20
16.741911
 30
0.0
 11
11.421390
 21
16.861345
 31
0.0
  0
LINE
  5
1c6
100
AcDbEntity
  8
0
 62
1
100
AcDbLine
 10
11.421390
 20
16.861345
 30
0.0
 11
11.605344
 21
16.998474
 31
0.0
  0
LINE
  5
1c7
100
AcDbEntity
  8
0
 62
1
100
AcDbLine
 10
11.605344
 20
16.998474
 30
0.0
 11
11.774498
 21
17.152056
 31
0.0
  0
LINE
  5
1c8
100
AcDbEntity
  8
0
 62
1
100
AcDbLine
 10
11.774498
 20
17.152056
 30
0.0
 11
11.927777
 21
17.320852
 31
0.0
  0
LINE
  5
1c9
100
AcDbEntity
  8
0
 62
1
100
AcDbLine
 10
11.927777
 20
17.320852
 30
0.0
 11
12.064107
 21
17.503621
 31
0.0
  0
LINE
  5
1ca
100
AcDbEntity
  8
0
 62
1
100
AcDbLine
 10
12.064107
 20
17.503621
 30
0.0
 11
12.182411
 21
17.699123
 31
0.0
  0
LINE
  5
1cb
100
AcDbEntity
  8
0
 62
1
100
AcDbLine
 10
12.182411
 20
17.699123
 30
0.0
 11
12.281616
 21
17.906118
 31
0.0
  0
LINE
  5
1cc
100
AcDbEntity
  8
0
 62
1
100
AcDbLine
 10
12.281616
 20
17.906118
 30
0.0
 11
12.360647
 21
18.123366
 31
0.0
  0
LINE
  5
1cd
100
AcDbEntity
  8
0
 62
1
100
AcDbLine
 10
12.360647
 20
18.123366
 30
0.0
 11
12.418428
 21
18.349626
 31
0.0
  0
LINE
  5
1ce
100
AcDbEntity
  8
0
 62
1
100
AcDbLine
 10
12.418428
 20
18.349626
 30
0.0
 11
12.453885
 21
18.583658
 31
0.0
  0
LINE
  5
1cf
100
AcDbEntity
  8
0
 62
1
100
AcDbLine
 10
12.453885
 20
18.583658
 30
0.0
 11
12.465943
 21
18.824223
 31
0.0
  0
LINE
  5
1d0
100
AcDbEntity
  8
0
 62
1
100
AcDbLine
 10
12.465943
 20
18.824223
 30
0.0
 11
12.465943
 21
18.824223
 31
0.0
  0
LINE
  5
1d1
100
AcDbEntity
  8
0
 62
1
100
AcDbLine
 10
12.465943
 20
18.824223
 30
0.0
 11
12.465943
 21
18.824223
 31
0.0
  0
LINE
  5
1d2
100
AcDbEntity
  8
0
 62
1
100
AcDbLine
 10
12.465943
 20
18.824223
 30
0.0
 11
12.465943
 21
18.824223
 31
0.0
  0
LINE
  5
1d3
100
AcDbEntity
  8
0
 62
1
100
AcDbLine
 10
12.465943
 20
18.824223
 30
0.0
 11
12.465943
 21
18.824223
 31
0.0
  0
LINE
  5
1d4
100
AcDbEntity
  8
0
 62
1
100
AcDbLine
 10
12.465943
 20
18.824223
 30
0.0
 11
12.465943
 21
18.824223
 31
0.0
  0
LINE
  5
1d5
100
AcDbEntity
  8
0
 62
1
100
AcDbLine
 10
12.465943
 20
18.824223
 30
0.0
 11
12.465943
 21
18.824223
 31
0.0
  0
LINE
  5
1d6
100
AcDbEntity
  8
0
 62
1
100
AcDbLine
 10
12.465943
 20
18.824223
 30
0.0
 11
12.465943
 21
18.824223
 31
0.0
  0
LINE
  5
1d7
100
AcDbEntity
  8
0
 62
1
100
AcDbLine
 10
12.465943
 20
18.824223
 30
0.0
 11
12.465943
 21
18.824223
 31
0.0
  0
LINE
  5
1d8
100
AcDbEntity
  8
0
 62
1
100
AcDbLine
 10
12.465943
 20
18.824223
 30
0.0
 11
12.465943
 21
18.824223
 31
0.0
  0
LINE
  5
1d9
100
AcDbEntity
  8
0
 62
1
100
AcDbLine
 10
12.465943
 20
18.824223
 30
0.0
 11
12.465943
 21
18.824223
 31
0.0
  0
LINE
  5
1da
100
AcDbEntity
  8
0
 62
1
100
AcDbLine
 10
12.465943
 20
18.824223
 30
0.0
 11
12.465943
 21
18.824223
 31
0.0
  0
LINE
  5
1db
100
AcDbEntity
  8
0
 62
1
100
AcDbLine
 10
12.465943
 20
18.824223
 30
0.0
 11
12.465943
 21
18.824223
 31
0.0
  0
LINE
  5
1dc
100
AcDbEntity
  8
0
 62
1
100
AcDbLine
 10
12.465943
 20
18.824223
 30
0.0
 11
12.465943
 21
18.824223
 31
0.0
  0
LINE
  5
1dd
100
AcDbEntity
  8
0
 62
1
100
AcDbLine
 10
12.465943
 20
18.824223
 30
0.0
 11
12.465943
 21
18.824223
 31
0.0
  0
LINE
  5
1de
100
AcDbEntity
  8
0
 62
1
100
AcDbLine
 10
13.086832
 20
20.207111
 30
0.0
 11
13.056625
 21
20.252091
 31
0.0
  0
LINE
  5
1df
100
AcDbEntity
  8
0
 62
1
100
AcDbLine
 10
13.056625
 20
20.252091
 30
0.0
 11
13.026419
 21
20.297070
 31
0.0
  0
LINE
  5
1e0
100
AcDbEntity
  8
0
 62
1
100
AcDbLine
 10
13.026419
 20
20.297070
 30
0.0
 11
12.996212
 21
20.342049
 31
0.0
  0
LINE
  5
1e1
100
AcDbEntity
  8
0
 62
1
100
AcDbLine
 10
12.996212
 20
20.342049
 30
0.0
 11
12.966005
 21
20.387028
 31
0.0
  0
LINE
  5
1e2
100
AcDbEntity
  8
0
 62
1
100
AcDbLine
 10
12.966005
 20
20.387028
 30
0.0
 11
12.929184
 21
20.426716
 31
0.0
  0
LINE
  5
1e3
100
AcDbEntity
  8
0
 62
1
100
AcDbLine
 10
12.929184
 20
20.426716
 30
0.0
 11
12.892363
 21
20.466403
 31
0.0
  0
LINE
  5
1e4
100
AcDbEntity
  8
0
 62
1
100
AcDbLine
 10
12.892363
 20
20.466403
 30
0.0
 11
12.855542
 21
20.506091
 31
0.0
  0
LINE
  5
1e5
100
AcDbEntity
  8
0
 62
1
100
AcDbLine
 10
12.855542
 20
20.506091
 30
0.0
 11
12.818720
 21
20.545778
 31
0.0
  0
LINE
  5
1e6
100
AcDbEntity
  8
0
 62
1
100
AcDbLine
 10
12.818720
 20
20.545778
 30
0.0
 11
12.776608
 21
20.580174
 31
0.0
  0
LINE
  5
1e7
100
AcDbEntity
  8
0
 62
1
100
AcDbLine
 10
12.776608
 20
20.580174
 30
0.0
 11
12.734495
 21
20.614570
 31
0.0
  0
LINE
  5
1e8
100
AcDbEntity
  8
0
 62
1
100
AcDbLine
 10
12.734495
 20
20.614570
 30
0.0
 11
12.692382
 21
20.648966
 31
0.0
  0
LINE
  5
1e9
100
AcDbEntity
  8
0
 62
1
100
AcDbLine
 10
12.692382
 20
20.648966
 30
0.0
 11
12.650269
 21
20.683361
 31
0.0
  0
LINE
  5
1ea
100
AcDbEntity
  8
0
 62
1
100
AcDbLine
 10
12.650269
 20
20.683361
 30
0.0
 11
12.517114
 21
20.771241
 31
0.0
  0
LINE
  5
1eb
100
AcDbEntity
  8
0
 62
1
100
AcDbLine
 10
12.517114
 20
20.771241
 30
0.0
 11
12.391929
 21
20.801498
 31
0.0
  0
LINE
  5
1ec
100
AcDbEntity
  8
0
 62
1
100
AcDbLine
 10
12.391929
 20
20.801498
 30
0.0
 11
12.266930
 21
20.787680
 31
0.0
  0
LINE
  5
1ed
100
AcDbEntity
  8
0
 62
1
100
AcDbLine
 10
12.266930
 20
20.787680
 30
0.0
 11
12.134332
 21
20.743334
 31
0.0
  0
LINE
  5
1ee
100
AcDbEntity
  8
0
 62
1
100
AcDbLine
 10
12.134332
 20
20.743334
 30
0.0
 11
12.106550
 21
20.732971
 31
0.0
  0
LINE
  5
1ef
100
AcDbEntity
  8
0
 62
1
100
AcDbLine
 10
12.106550
 20
20.732971
 30
0.0
 11
12.078768
 21
20.722607
 31
0.0
  0
LINE
  5
1f0
100
AcDbEntity
  8
0
 62
1
100
AcDbLine
 10
12.078768
 20
20.722607
 30
0.0
 11
12.050986
 21
20.712244
 31
0.0
  0
LINE
  5
1f1
100
AcDbEntity
  8
0
 62
1
100
AcDbLine
 10
12.050986
 20
20.712244
 30
0.0
 11
12.023204
 21
20.701881
 31
0.0
  0
LINE
  5
1f2
100
AcDbEntity
  8
0
 62
1
100
AcDbLine
 10
12.023204
 20
20.701881
 30
0.0
 11
11.992777
 21
20.698133
 31
0.0
  0
LINE
  5
1f3
100
AcDbEntity
  8
0
 62
1
100
AcDbLine
 10
11.992777
 20
20.698133
 30
0.0
 11
11.962350
 21
20.694385
 31
0.0
  0
LINE
  5
1f4
100
AcDbEntity
  8
0
 62
1
100
AcDbLine
 10
11.962350
 20
20.694385
 30
0.0
 11
11.931923
 21
20.690637
 31
0.0
  0
LINE
  5
1f5
100
AcDbEntity
  8
0
 62
1
100
AcDbLine
 10
11.931923
 20
20.690637
 30
0.0
 11
11.901498
 21
20.686889
 31
0.0
  0
LINE
  5
1f6
100
AcDbEntity
  8
0
 62
1
100
AcDbLine
 10
11.901498
 20
20.686889
 30
0.0
 11
11.285901
 21
20.686889
 31
0.0
  0
LINE
  5
1f7
100
AcDbEntity
  8
0
 62
1
100
AcDbLine
 10
11.285901
 20
20.686889
 30
0.0
 11
10.670304
 21
20.686889
 31
0.0
  0
LINE
  5
1f8
100
AcDbEntity
  8
0
 62
1
100
AcDbLine
 10
10.670304
 20
20.686889
 30
0.0
 11
10.054707
 21
20.686889
 31
0.0
  0
LINE
  5
1f9
100
AcDbEntity
  8
0
 62
1
100
AcDbLine
 10
10.054707
 20
20.686889
 30
0.0
 11
9.439109
 21
20.686889
 31
0.0
  0
LINE
  5
1fa
100
AcDbEntity
  8
0
 62
1
100
AcDbLine
 10
9.439109
 20
20.686889
 30
0.0
 11
8.823512
 21
20.686889
 31
0.0
  0
LINE
  5
1fb
100
AcDbEntity
  8
0
 62
1
100
AcDbLine
 10
8.823512
 20
20.686889
 30
0.0
 11
8.207915
 21
20.686889
 31
0.0
  0
LINE
  5
1fc
100
AcDbEntity
  8
0
 62
1
100
AcDbLine
 10
8.207915
 20
20.686889
 30
0.0
 11
7.592318
 21
20.686889
 31
0.0
  0
LINE
  5
1fd
100
AcDbEntity
  8
0
 62
1
100
AcDbLine
 10
7.592318
 20
20.686889
 30
0.0
 11
6.976720
 21
20.686889
 31
0.0
  0
LINE
  5
1fe
100
AcDbEntity
  8
0
 62
1
100
AcDbLine
 10
6.976720
 20
20.686889
 30
0.0
 11
6.361123
 21
20.686889
 31
0.0
  0
LINE
  5
1ff
100
AcDbEntity
  8
0
 62
1
100
AcDbLine
 10
6.361123
 20
20.686889
 30
0.0
 11
5.745526
 21
20.686889
 31
0.0
  0
LINE
  5
200
100
AcDbEntity
  8
0
 62
1
100
AcDbLine
 10
5.745526
 20
20.686889
 30
0.0
 11
5.129929
 21
20.686889
 31
0.0
  0
LINE
  5
201
100
AcDbEntity
  8
0
 62
1
100
AcDbLine
 10
5.129929
 20
20.686889
 30
0.0
 11
4.514332
 21
20.686889
 31
0.0
  0
LINE
  5
202
100
AcDbEntity
  8
0
 62
1
100
AcDbLine
 10
4.514332
 20
20.686889
 30
0.0
 11
3.843076
 21
20.661549
 31
0.0
  0
LINE
  5
203
100
AcDbEntity
  8
0
 62
1
100
AcDbLine
 10
3.843076
 20
20.661549
 30
0.0
 11
3.149366
 21
20.716017
 31
0.0
  0
LINE
  5
204
100
AcDbEntity
  8
0
 62
1
100
AcDbLine
 10
3.149366
 20
20.716017
 30
0.0
 11
2.464223
 21
20.731005
 31
0.0
  0
LINE
  5
205
100
AcDbEntity
  8
0
 62
1
100
AcDbLine
 10
2.464223
 20
20.731005
 30
0.0
 11
1.818668
 21
20.587230
 31
0.0
  0
LINE
  5
206
100
AcDbEntity
  8
0
 62
1
100
AcDbLine
 10
1.818668
 20
20.587230
 30
0.0
 11
1.759688
 21
20.566283
 31
0.0
  0
LINE
  5
207
100
AcDbEntity
  8
0
 62
1
100
AcDbLine
 10
1.759688
 20
20.566283
 30
0.0
 11
1.700708
 21
20.545337
 31
0.0
  0
LINE
  5
208
100
AcDbEntity
  8
0
 62
1
100
AcDbLine
 10
1.700708
 20
20.545337
 30
0.0
 11
1.641728
 21
20.524390
 31
0.0
  0
LINE
  5
209
100
AcDbEntity
  8
0
 62
1
100
AcDbLine
 10
1.641728
 20
20.524390
 30
0.0
 11
1.582748
 21
20.503445
 31
0.0
  0
LINE
  5
20a
100
AcDbEntity
  8
0
 62
1
100
AcDbLine
 10
1.582748
 20
20.503445
 30
0.0
 11
1.522445
 21
20.487790
 31
0.0
  0
LINE
  5
20b
100
AcDbEntity
  8
0
 62
1
100
AcDbLine
 10
1.522445
 20
20.487790
 30
0.0
 11
1.462142
 21
20.472135
 31
0.0
  0
LINE
  5
20c
100
AcDbEntity
  8
0
 62
1
100
AcDbLine
 10
1.462142
 20
20.472135
 30
0.0
 11
1.401839
 21
20.456480
 31
0.0
  0
LINE
  5
20d
100
AcDbEntity
  8
0
 62
1
100
AcDbLine
 10
1.401839
 20
20.456480
 30
0.0
 11
1.341536
 21
20.440825
 31
0.0
  0
LINE
  5
20e
100
AcDbEntity
  8
0
 62
1
100
AcDbLine
 10
1.341536
 20
20.440825
 30
0.0
 11
1.279249
 21
20.431786
 31
0.0
  0
LINE
  5
20f
100
AcDbEntity
  8
0
 62
1
100
AcDbLine
 10
1.279249
 20
20.431786
 30
0.0
 11
1.216962
 21
20.422746
 31
0.0
  0
LINE
  5
210
100
AcDbEntity
  8
0
 62
1
100
AcDbLine
 10
1.216962
 20
20.422746
 30
0.0
 11
1.154674
 21
20.413707
 31
0.0
  0
LINE
  5
211
100
AcDbEntity
  8
0
 62
1
100
AcDbLine
 10
1.154674
 20
20.413707
 30
0.0
 11
1.092387
 21
20.404667
 31
0.0
  0
LINE
  5
212
100
AcDbEntity
  8
0
 62
1
100
AcDbLine
 10
1.092387
 20
20.404667
 30
0.0
 11
1.026462
 21
20.395297
 31
0.0
  0
LINE
  5
213
100
AcDbEntity
  8
0
 62
1
100
AcDbLine
 10
1.026462
 20
20.395297
 30
0.0
 11
0.960536
 21
20.385927
 31
0.0
  0
LINE
  5
214
100
AcDbEntity
  8
0
 62
1
100
AcDbLine
 10
0.960536
 20
20.385927
 30
0.0
 11
0.894611
 21
20.376558
 31
0.0
  0
LINE
  5
215
100
AcDbEntity
  8
0
 62
1
100
AcDbLine
 10
0.894611
 20
20.376558
 30
0.0
 11
0.828686
 21
20.367188
 31
0.0
  0
LINE
  5
216
100
AcDbEntity
  8
0
 62
1
100
AcDbLine
 10
0.828686
 20
20.367188
 30
0.0
 11
0.764083
 21
20.354511
 31
0.0
  0
LINE
  5
217
100
AcDbEntity
  8
0
 62
1
100
AcDbLine
 10
0.764083
 20
20.354511
 30
0.0
 11
0.699481
 21
20.341833
 31
0.0
  0
LINE
  5
218
100
AcDbEntity
  8
0
 62
1
100
AcDbLine
 10
0.699481
 20
20.341833
 30
0.0
 11
0.634878
 21
20.329156
 31
0.0
  0
LINE
  5
219
100
AcDbEntity
  8
0
 62
1
100
AcDbLine
 10
0.634878
 20
20.329156
 30
0.0
 11
0.570276
 21
20.316473
 31
0.0
  0
LINE
  5
21a
100
AcDbEntity
  8
0
 62
1
100
AcDbLine
 10
0.570276
 20
20.316473
 30
0.0
 11
0.516257
 21
20.291888
 31
0.0
  0
LINE
  5
21b
100
AcDbEntity
  8
0
 62
1
100
AcDbLine
 10
0.516257
 20
20.291888
 30
0.0
 11
0.462238
 21
20.267304
 31
0.0
  0
LINE
  5
21c
100
AcDbEntity
  8
0
 62
1
100
AcDbLine
 10
0.462238
 20
20.267304
 30
0.0
 11
0.408219
 21
20.242720
 31
0.0
  0
LINE
  5
21d
100
AcDbEntity
  8
0
 62
1
100
AcDbLine
 10
0.408219
 20
20.242720
 30
0.0
 11
0.354200
 21
20.218136
 31
0.0
  0
LINE
  5
21e
100
AcDbEntity
  8
0
 62
1
100
AcDbLine
 10
0.354200
 20
20.218136
 30
0.0
 11
0.320024
 21
20.173046
 31
0.0
  0
LINE
  5
21f
100
AcDbEntity
  8
0
 62
1
100
AcDbLine
 10
0.320024
 20
20.173046
 30
0.0
 11
0.285849
 21
20.127957
 31
0.0
  0
LINE
  5
220
100
AcDbEntity
  8
0
 62
1
100
AcDbLine
 10
0.285849
 20
20.127957
 30
0.0
 11
0.251674
 21
20.082868
 31
0.0
  0
LINE
  5
221
100
AcDbEntity
  8
0
 62
1
100
AcDbLine
 10
0.251674
 20
20.082868
 30
0.0
 11
0.217498
 21
20.037778
 31
0.0
  0
LINE
  5
222
100
AcDbEntity
  8
0
 62
1
100
AcDbLine
 10
0.217498
 20
20.037778
 30
0.0
 11
0.210332
 21
19.997650
 31
0.0
  0
LINE
  5
223
100
AcDbEntity
  8
0
 62
1
100
AcDbLine
 10
0.210332
 20
19.997650
 30
0.0
 11
0.203166
 21
19.957521
 31
0.0
  0
LINE
  5
224
100
AcDbEntity
  8
0
 62
1
100
AcDbLine
 10
0.203166
 20
19.957521
 30
0.0
 11
0.196001
 21
19.917393
 31
0.0
  0
LINE
  5
225
100
AcDbEntity
  8
0
 62
1
100
AcDbLine
 10
0.196001
 20
19.917393
 30
0.0
 11
0.188835
 21
19.877264
 31
0.0
  0
LINE
  5
226
100
AcDbEntity
  8
0
 62
1
100
AcDbLine
 10
0.188835
 20
19.877264
 30
0.0
 11
0.196882
 21
19.834490
 31
0.0
  0
LINE
  5
227
100
AcDbEntity
  8
0
 62
1
100
AcDbLine
 10
0.196882
 20
19.834490
 30
0.0
 11
0.204930
 21
19.791716
 31
0.0
  0
LINE
  5
228
100
AcDbEntity
  8
0
 62
1
100
AcDbLine
 10
0.204930
 20
19.791716
 30
0.0
 11
0.212978
 21
19.748941
 31
0.0
  0
LINE
  5
229
100
AcDbEntity
  8
0
 62
1
100
AcDbLine
 10
0.212978
 20
19.748941
 30
0.0
 11
0.221026
 21
19.706167
 31
0.0
  0
LINE
  5
22a
100
AcDbEntity
  8
0
 62
1
100
AcDbLine
 10
0.221026
 20
19.706167
 30
0.0
 11
0.240980
 21
19.666038
 31
0.0
  0
LINE
  5
22b
100
AcDbEntity
  8
0
 62
1
100
AcDbLine
 10
0.240980
 20
19.666038
 30
0.0
 11
0.260934
 21
19.625910
 31
0.0
  0
LINE
  5
22c
100
AcDbEntity
  8
0
 62
1
100
AcDbLine
 10
0.260934
 20
19.625910
 30
0.0
 11
0.280888
 21
19.585782
 31
0.0
  0
LINE
  5
22d
100
AcDbEntity
  8
0
 62
1
100
AcDbLine
 10
0.280888
 20
19.585782
 30
0.0
 11
0.300842
 21
19.545653
 31
0.0
  0
LINE
  5
22e
100
AcDbEntity
  8
0
 62
1
100
AcDbLine
 10
0.300842
 20
19.545653
 30
0.0
 11
0.329395
 21
19.513462
 31
0.0
  0
LINE
  5
22f
100
AcDbEntity
  8
0
 62
1
100
AcDbLine
 10
0.329395
 20
19.513462
 30
0.0
 11
0.357948
 21
19.481271
 31
0.0
  0
LINE
  5
230
100
AcDbEntity
  8
0
 62
1
100
AcDbLine
 10
0.357948
 20
19.481271
 30
0.0
 11
0.386501
 21
19.449080
 31
0.0
  0
LINE
  5
231
100
AcDbEntity
  8
0
 62
1
100
AcDbLine
 10
0.386501
 20
19.449080
 30
0.0
 11
0.415054
 21
19.416889
 31
0.0
  0
LINE
  5
232
100
AcDbEntity
  8
0
 62
1
100
AcDbLine
 10
0.415054
 20
19.416889
 30
0.0
 11
0.453308
 21
19.395392
 31
0.0
  0
LINE
  5
233
100
AcDbEntity
  8
0
 62
1
100
AcDbLine
 10
0.453308
 20
19.395392
 30
0.0
 11
0.491562
 21
19.373896
 31
0.0
  0
LINE
  5
234
100
AcDbEntity
  8
0
 62
1
100
AcDbLine
 10
0.491562
 20
19.373896
 30
0.0
 11
0.529817
 21
19.352399
 31
0.0
  0
LINE
  5
235
100
AcDbEntity
  8
0
 62
1
100
AcDbLine
 10
0.529817
 20
19.352399
 30
0.0
 11
0.568071
 21
19.330902
 31
0.0
  0
LINE
  5
236
100
AcDbEntity
  8
0
 62
1
100
AcDbLine
 10
0.568071
 20
19.330902
 30
0.0
 11
0.608310
 21
19.318004
 31
0.0
  0
LINE
  5
237
100
AcDbEntity
  8
0
 62
1
100
AcDbLine
 10
0.608310
 20
19.318004
 30
0.0
 11
0.648549
 21
19.305107
 31
0.0
  0
LINE
  5
238
100
AcDbEntity
  8
0
 62
1
100
AcDbLine
 10
0.648549
 20
19.305107
 30
0.0
 11
0.688787
 21
19.292209
 31
0.0
  0
LINE
  5
239
100
AcDbEntity
  8
0
 62
1
100
AcDbLine
 10
0.688787
 20
19.292209
 30
0.0
 11
0.729026
 21
19.279312
 31
0.0
  0
LINE
  5
23a
100
AcDbEntity
  8
0
 62
1
100
AcDbLine
 10
0.729026
 20
19.279312
 30
0.0
 11
0.770588
 21
19.273026
 31
0.0
  0
LINE
  5
23b
100
AcDbEntity
  8
0
 62
1
100
AcDbLine
 10
0.770588
 20
19.273026
 30
0.0
 11
0.812149
 21
19.266744
 31
0.0
  0
LINE
  5
23c
100
AcDbEntity
  8
0
 62
1
100
AcDbLine
 10
0.812149
 20
19.266744
 30
0.0
 11
0.853711
 21
19.260459
 31
0.0
  0
LINE
  5
23d
100
AcDbEntity
  8
0
 62
1
100
AcDbLine
 10
0.853711
 20
19.260459
 30
0.0
 11
0.895273
 21
19.254174
 31
0.0
  0
LINE
  5
23e
100
AcDbEntity
  8
0
 62
1
100
AcDbLine
 10
0.895273
 20
19.254174
 30
0.0
 11
0.937496
 21
19.252509
 31
0.0
  0
LINE
  5
23f
100
AcDbEntity
  8
0
 62
1
100
AcDbLine
 10
0.937496
 20
19.252509
 30
0.0
 11
0.979719
 21
19.250844
 31
0.0
  0
LINE
  5
240
100
AcDbEntity
  8
0
 62
1
100
AcDbLine
 10
0.979719
 20
19.250844
 30
0.0
 11
1.021942
 21
19.249179
 31
0.0
  0
LINE
  5
241
100
AcDbEntity
  8
0
 62
1
100
AcDbLine
 10
1.021942
 20
19.249179
 30
0.0
 11
1.064165
 21
19.247556
 31
0.0
  0
LINE
  5
242
100
AcDbEntity
  8
0
 62
1
100
AcDbLine
 10
1.064165
 20
19.247556
 30
0.0
 11
1.112892
 21
19.248995
 31
0.0
  0
LINE
  5
243
100
AcDbEntity
  8
0
 62
1
100
AcDbLine
 10
1.112892
 20
19.248995
 30
0.0
 11
1.161620
 21
19.250435
 31
0.0
  0
LINE
  5
244
100
AcDbEntity
  8
0
 62
1
100
AcDbLine
 10
1.161620
 20
19.250435
 30
0.0
 11
1.210347
 21
19.251874
 31
0.0
  0
LINE
  5
245
100
AcDbEntity
  8
0
 62
1
100
AcDbLine
 10
1.210347
 20
19.251874
 30
0.0
 11
1.259075
 21
19.253313
 31
0.0
  0
LINE
  5
246
100
AcDbEntity
  8
0
 62
1
100
AcDbLine
 10
1.259075
 20
19.253313
 30
0.0
 11
1.309125
 21
19.258055
 31
0.0
  0
LINE
  5
247
100
AcDbEntity
  8
0
 62
1
100
AcDbLine
 10
1.309125
 20
19.258055
 30
0.0
 11
1.359175
 21
19.262796
 31
0.0
  0
LINE
  5
248
100
AcDbEntity
  8
0
 62
1
100
AcDbLine
 10
1.359175
 20
19.262796
 30
0.0
 11
1.409226
 21
19.267537
 31
0.0
  0
LINE
  5
249
100
AcDbEntity
  8
0
 62
1
100
AcDbLine
 10
1.409226
 20
19.267537
 30
0.0
 11
1.459276
 21
19.272250
 31
0.0
  0
LINE
  5
24a
100
AcDbEntity
  8
0
 62
1
100
AcDbLine
 10
1.459276
 20
19.272250
 30
0.0
 11
1.509326
 21
19.280960
 31
0.0
  0
LINE
  5
24b
100
AcDbEntity
  8
0
 62
1
100
AcDbLine
 10
1.509326
 20
19.280960
 30
0.0
 11
1.559377
 21
19.289669
 31
0.0
  0
LINE
  5
24c
100
AcDbEntity
  8
0
 62
1
100
AcDbLine
 10
1.559377
 20
19.289669
 30
0.0
 11
1.609427
 21
19.298379
 31
0.0
  0
LINE
  5
24d
100
AcDbEntity
  8
0
 62
1
100
AcDbLine
 10
1.609427
 20
19.298379
 30
0.0
 11
1.659477
 21
19.307088
 31
0.0
  0
LINE
  5
24e
100
AcDbEntity
  8
0
 62
1
100
AcDbLine
 10
1.659477
 20
19.307088
 30
0.0
 11
1.708205
 21
19.320429
 31
0.0
  0
LINE
  5
24f
100
AcDbEntity
  8
0
 62
1
100
AcDbLine
 10
1.708205
 20
19.320429
 30
0.0
 11
1.756932
 21
19.333769
 31
0.0
  0
LINE
  5
250
100
AcDbEntity
  8
0
 62
1
100
AcDbLine
 10
1.756932
 20
19.333769
 30
0.0
 11
1.805660
 21
19.347110
 31
0.0
  0
LINE
  5
251
100
AcDbEntity
  8
0
 62
1
100
AcDbLine
 10
1.805660
 20
19.347110
 30
0.0
 11
1.854387
 21
19.360445
 31
0.0
  0
LINE
  5
252
100
AcDbEntity
  8
0
 62
1
100
AcDbLine
 10
1.854387
 20
19.360445
 30
0.0
 11
1.920864
 21
19.391533
 31
0.0
  0
LINE
  5
253
100
AcDbEntity
  8
0
 62
1
100
AcDbLine
 10
1.920864
 20
19.391533
 30
0.0
 11
1.987340
 21
19.422622
 31
0.0
  0
LINE
  5
254
100
AcDbEntity
  8
0
 62
1
100
AcDbLine
 10
1.987340
 20
19.422622
 30
0.0
 11
2.053817
 21
19.453711
 31
0.0
  0
LINE
  5
255
100
AcDbEntity
  8
0
 62
1
100
AcDbLine
 10
2.053817
 20
19.453711
 30
0.0
 11
2.120293
 21
19.484799
 31
0.0
  0
LINE
  5
256
100
AcDbEntity
  8
0
 62
1
100
AcDbLine
 10
2.120293
 20
19.484799
 30
0.0
 11
2.183463
 21
19.522502
 31
0.0
  0
LINE
  5
257
100
AcDbEntity
  8
0
 62
1
100
AcDbLine
 10
2.183463
 20
19.522502
 30
0.0
 11
2.246632
 21
19.560205
 31
0.0
  0
LINE
  5
258
100
AcDbEntity
  8
0
 62
1
100
AcDbLine
 10
2.246632
 20
19.560205
 30
0.0
 11
2.309801
 21
19.597908
 31
0.0
  0
LINE
  5
259
100
AcDbEntity
  8
0
 62
1
100
AcDbLine
 10
2.309801
 20
19.597908
 30
0.0
 11
2.372970
 21
19.635611
 31
0.0
  0
LINE
  5
25a
100
AcDbEntity
  8
0
 62
1
100
AcDbLine
 10
2.372970
 20
19.635611
 30
0.0
 11
2.434817
 21
19.675961
 31
0.0
  0
LINE
  5
25b
100
AcDbEntity
  8
0
 62
1
100
AcDbLine
 10
2.434817
 20
19.675961
 30
0.0
 11
2.496663
 21
19.716310
 31
0.0
  0
LINE
  5
25c
100
AcDbEntity
  8
0
 62
1
100
AcDbLine
 10
2.496663
 20
19.716310
 30
0.0
 11
2.558510
 21
19.756658
 31
0.0
  0
LINE
  5
25d
100
AcDbEntity
  8
0
 62
1
100
AcDbLine
 10
2.558510
 20
19.756658
 30
0.0
 11
2.620356
 21
19.797007
 31
0.0
  0
LINE
  5
25e
100
AcDbEntity
  8
0
 62
1
100
AcDbLine
 10
2.620356
 20
19.797007
 30
0.0
 11
2.682864
 21
19.836033
 31
0.0
  0
LINE
  5
25f
100
AcDbEntity
  8
0
 62
1
100
AcDbLine
 10
2.682864
 20
19.836033
 30
0.0
 11
2.745371
 21
19.875060
 31
0.0
  0
LINE
  5
260
100
AcDbEntity
  8
0
 62
1
100
AcDbLine
 10
2.745371
 20
19.875060
 30
0.0
 11
2.807879
 21
19.914086
 31
0.0
  0
LINE
  5
261
100
AcDbEntity
  8
0
 62
1
100
AcDbLine
 10
2.807879
 20
19.914086
 30
0.0
 11
2.870387
 21
19.953111
 31
0.0
  0
LINE
  5
262
100
AcDbEntity
  8
0
 62
1
100
AcDbLine
 10
2.870387
 20
19.953111
 30
0.0
 11
2.937194
 21
19.984310
 31
0.0
  0
LINE
  5
263
100
AcDbEntity
  8
0
 62
1
100
AcDbLine
 10
2.937194
 20
19.984310
 30
0.0
 11
3.004002
 21
20.015509
 31
0.0
  0
LINE
  5
264
100
AcDbEntity
  8
0
 62
1
100
AcDbLine
 10
3.004002
 20
20.015509
 30
0.0
 11
3.070809
 21
20.046708
 31
0.0
  0
LINE
  5
265
100
AcDbEntity
  8
0
 62
1
100
AcDbLine
 10
3.070809
 20
20.046708
 30
0.0
 11
3.137616
 21
20.077907
 31
0.0
  0
LINE
  5
266
100
AcDbEntity
  8
0
 62
1
100
AcDbLine
 10
3.137616
 20
20.077907
 30
0.0
 11
3.208392
 21
20.095215
 31
0.0
  0
LINE
  5
267
100
AcDbEntity
  8
0
 62
1
100
AcDbLine
 10
3.208392
 20
20.095215
 30
0.0
 11
3.279169
 21
20.112524
 31
0.0
  0
LINE
  5
268
100
AcDbEntity
  8
0
 62
1
100
AcDbLine
 10
3.279169
 20
20.112524
 30
0.0
 11
3.349944
 21
20.129833
 31
0.0
  0
LINE
  5
269
100
AcDbEntity
  8
0
 62
1
100
AcDbLine
 10
3.349944
 20
20.129833
 30
0.0
 11
3.420720
 21
20.147142
 31
0.0
  0
LINE
  5
26a
100
AcDbEntity
  8
0
 62
1
100
AcDbLine
 10
3.420720
 20
20.147142
 30
0.0
 11
3.491496
 21
20.147252
 31
0.0
  0
LINE
  5
26b
100
AcDbEntity
  8
0
 62
1
100
AcDbLine
 10
3.491496
 20
20.147252
 30
0.0
 11
3.562273
 21
20.147362
 31
0.0
  0
LINE
  5
26c
100
AcDbEntity
  8
0
 62
1
100
AcDbLine
 10
3.562273
 20
20.147362
 30
0.0
 11
3.633049
 21
20.147472
 31
0.0
  0
LINE
  5
26d
100
AcDbEntity
  8
0
 62
1
100
AcDbLine
 10
3.633049
 20
20.147472
 30
0.0
 11
3.703825
 21
20.147582
 31
0.0
  0
LINE
  5
26e
100
AcDbEntity
  8
0
 62
1
100
AcDbLine
 10
3.703825
 20
20.147582
 30
0.0
 11
3.770632
 21
20.127186
 31
0.0
  0
LINE
  5
26f
100
AcDbEntity
  8
0
 62
1
100
AcDbLine
 10
3.770632
 20
20.127186
 30
0.0
 11
3.837439
 21
20.106793
 31
0.0
  0
LINE
  5
270
100
AcDbEntity
  8
0
 62
1
100
AcDbLine
 10
3.837439
 20
20.106793
 30
0.0
 11
3.904246
 21
20.086397
 31
0.0
  0
LINE
  5
271
100
AcDbEntity
  8
0
 62
1
100
AcDbLine
 10
3.904246
 20
20.086397
 30
0.0
 11
3.971054
 21
20.066000
 31
0.0
  0
LINE
  5
272
100
AcDbEntity
  8
0
 62
1
100
AcDbLine
 10
3.971054
 20
20.066000
 30
0.0
 11
4.005891
 21
20.041416
 31
0.0
  0
LINE
  5
273
100
AcDbEntity
  8
0
 62
1
100
AcDbLine
 10
4.005891
 20
20.041416
 30
0.0
 11
4.040727
 21
20.016832
 31
0.0
  0
LINE
  5
274
100
AcDbEntity
  8
0
 62
1
100
AcDbLine
 10
4.040727
 20
20.016832
 30
0.0
 11
4.075564
 21
19.992247
 31
0.0
  0
LINE
  5
275
100
AcDbEntity
  8
0
 62
1
100
AcDbLine
 10
4.075564
 20
19.992247
 30
0.0
 11
4.110401
 21
19.967663
 31
0.0
  0
LINE
  5
276
100
AcDbEntity
  8
0
 62
1
100
AcDbLine
 10
4.110401
 20
19.967663
 30
0.0
 11
4.142592
 21
19.938448
 31
0.0
  0
LINE
  5
277
100
AcDbEntity
  8
0
 62
1
100
AcDbLine
 10
4.142592
 20
19.938448
 30
0.0
 11
4.174783
 21
19.909234
 31
0.0
  0
LINE
  5
278
100
AcDbEntity
  8
0
 62
1
100
AcDbLine
 10
4.174783
 20
19.909234
 30
0.0
 11
4.206974
 21
19.880020
 31
0.0
  0
LINE
  5
279
100
AcDbEntity
  8
0
 62
1
100
AcDbLine
 10
4.206974
 20
19.880020
 30
0.0
 11
4.239165
 21
19.850805
 31
0.0
  0
LINE
  5
27a
100
AcDbEntity
  8
0
 62
1
100
AcDbLine
 10
4.239165
 20
19.850805
 30
0.0
 11
4.271356
 21
19.820268
 31
0.0
  0
LINE
  5
27b
100
AcDbEntity
  8
0
 62
1
100
AcDbLine
 10
4.271356
 20
19.820268
 30
0.0
 11
4.303547
 21
19.789730
 31
0.0
  0
LINE
  5
27c
100
AcDbEntity
  8
0
 62
1
100
AcDbLine
 10
4.303547
 20
19.789730
 30
0.0
 11
4.335738
 21
19.759193
 31
0.0
  0
LINE
  5
27d
100
AcDbEntity
  8
0
 62
1
100
AcDbLine
 10
4.335738
 20
19.759193
 30
0.0
 11
4.367929
 21
19.728656
 31
0.0
  0
LINE
  5
27e
100
AcDbEntity
  8
0
 62
1
100
AcDbLine
 10
4.367929
 20
19.728656
 30
0.0
 11
4.402766
 21
19.700103
 31
0.0
  0
LINE
  5
27f
100
AcDbEntity
  8
0
 62
1
100
AcDbLine
 10
4.402766
 20
19.700103
 30
0.0
 11
4.437602
 21
19.671550
 31
0.0
  0
LINE
  5
280
100
AcDbEntity
  8
0
 62
1
100
AcDbLine
 10
4.437602
 20
19.671550
 30
0.0
 11
4.472439
 21
19.642997
 31
0.0
  0
LINE
  5
281
100
AcDbEntity
  8
0
 62
1
100
AcDbLine
 10
4.472439
 20
19.642997
 30
0.0
 11
4.507276
 21
19.614445
 31
0.0
  0
LINE
  5
282
100
AcDbEntity
  8
0
 62
1
100
AcDbLine
 10
4.507276
 20
19.614445
 30
0.0
 11
4.563720
 21
19.584789
 31
0.0
  0
LINE
  5
283
100
AcDbEntity
  8
0
 62
1
100
AcDbLine
 10
4.563720
 20
19.584789
 30
0.0
 11
4.620165
 21
19.555134
 31
0.0
  0
LINE
  5
284
100
AcDbEntity
  8
0
 62
1
100
AcDbLine
 10
4.620165
 20
19.555134
 30
0.0
 11
4.676609
 21
19.525478
 31
0.0
  0
LINE
  5
285
100
AcDbEntity
  8
0
 62
1
100
AcDbLine
 10
4.676609
 20
19.525478
 30
0.0
 11
4.733054
 21
19.495823
 31
0.0
  0
LINE
  5
286
100
AcDbEntity
  8
0
 62
1
100
AcDbLine
 10
4.733054
 20
19.495823
 30
0.0
 11
4.794790
 21
19.478735
 31
0.0
  0
LINE
  5
287
100
AcDbEntity
  8
0
 62
1
100
AcDbLine
 10
4.794790
 20
19.478735
 30
0.0
 11
4.856526
 21
19.461646
 31
0.0
  0
LINE
  5
288
100
AcDbEntity
  8
0
 62
1
100
AcDbLine
 10
4.856526
 20
19.461646
 30
0.0
 11
4.918262
 21
19.444557
 31
0.0
  0
LINE
  5
289
100
AcDbEntity
  8
0
 62
1
100
AcDbLine
 10
4.918262
 20
19.444557
 30
0.0
 11
4.979998
 21
19.427469
 31
0.0
  0
LINE
  5
28a
100
AcDbEntity
  8
0
 62
1
100
AcDbLine
 10
4.979998
 20
19.427469
 30
0.0
 11
5.044380
 21
19.419643
 31
0.0
  0
LINE
  5
28b
100
AcDbEntity
  8
0
 62
1
100
AcDbLine
 10
5.044380
 20
19.419643
 30
0.0
 11
5.108762
 21
19.411817
 31
0.0
  0
LINE
  5
28c
100
AcDbEntity
  8
0
 62
1
100
AcDbLine
 10
5.108762
 20
19.411817
 30
0.0
 11
5.173144
 21
19.403991
 31
0.0
  0
LINE
  5
28d
100
AcDbEntity
  8
0
 62
1
100
AcDbLine
 10
5.173144
 20
19.403991
 30
0.0
 11
5.237526
 21
19.396165
 31
0.0
  0
LINE
  5
28e
100
AcDbEntity
  8
0
 62
1
100
AcDbLine
 10
5.237526
 20
19.396165
 30
0.0
 11
5.301908
 21
19.394302
 31
0.0
  0
LINE
  5
28f
100
AcDbEntity
  8
0
 62
1
100
AcDbLine
 10
5.301908
 20
19.394302
 30
0.0
 11
5.366290
 21
19.392439
 31
0.0
  0
LINE
  5
290
100
AcDbEntity
  8
0
 62
1
100
AcDbLine
 10
5.366290
 20
19.392439
 30
0.0
 11
5.430672
 21
19.390577
 31
0.0
  0
LINE
  5
291
100
AcDbEntity
  8
0
 62
1
100
AcDbLine
 10
5.430672
 20
19.390577
 30
0.0
 11
5.495054
 21
19.388667
 31
0.0
  0
LINE
  5
292
100
AcDbEntity
  8
0
 62
1
100
AcDbLine
 10
5.495054
 20
19.388667
 30
0.0
 11
5.537277
 21
19.388018
 31
0.0
  0
LINE
  5
293
100
AcDbEntity
  8
0
 62
1
100
AcDbLine
 10
5.537277
 20
19.388018
 30
0.0
 11
5.579500
 21
19.387369
 31
0.0
  0
LINE
  5
294
100
AcDbEntity
  8
0
 62
1
100
AcDbLine
 10
5.579500
 20
19.387369
 30
0.0
 11
5.621723
 21
19.386720
 31
0.0
  0
LINE
  5
295
100
AcDbEntity
  8
0
 62
1
100
AcDbLine
 10
5.621723
 20
19.386720
 30
0.0
 11
5.663946
 21
19.386071
 31
0.0
  0
LINE
  5
296
100
AcDbEntity
  8
0
 62
1
100
AcDbLine
 10
5.663946
 20
19.386071
 30
0.0
 11
5.705508
 21
19.386720
 31
0.0
  0
LINE
  5
297
100
AcDbEntity
  8
0
 62
1
100
AcDbLine
 10
5.705508
 20
19.386720
 30
0.0
 11
5.747069
 21
19.387369
 31
0.0
  0
LINE
  5
298
100
AcDbEntity
  8
0
 62
1
100
AcDbLine
 10
5.747069
 20
19.387369
 30
0.0
 11
5.788631
 21
19.388018
 31
0.0
  0
LINE
  5
299
100
AcDbEntity
  8
0
 62
1
100
AcDbLine
 10
5.788631
 20
19.388018
 30
0.0
 11
5.830193
 21
19.388667
 31
0.0
  0
LINE
  5
29a
100
AcDbEntity
  8
0
 62
1
100
AcDbLine
 10
5.830193
 20
19.388667
 30
0.0
 11
5.870431
 21
19.394619
 31
0.0
  0
LINE
  5
29b
100
AcDbEntity
  8
0
 62
1
100
AcDbLine
 10
5.870431
 20
19.394619
 30
0.0
 11
5.910670
 21
19.400571
 31
0.0
  0
LINE
  5
29c
100
AcDbEntity
  8
0
 62
1
100
AcDbLine
 10
5.910670
 20
19.400571
 30
0.0
 11
5.950909
 21
19.406523
 31
0.0
  0
LINE
  5
29d
100
AcDbEntity
  8
0
 62
1
100
AcDbLine
 10
5.950909
 20
19.406523
 30
0.0
 11
5.991147
 21
19.412475
 31
0.0
  0
LINE
  5
29e
100
AcDbEntity
  8
0
 62
1
100
AcDbLine
 10
5.991147
 20
19.412475
 30
0.0
 11
6.029402
 21
19.427690
 31
0.0
  0
LINE
  5
29f
100
AcDbEntity
  8
0
 62
1
100
AcDbLine
 10
6.029402
 20
19.427690
 30
0.0
 11
6.067656
 21
19.442905
 31
0.0
  0
LINE
  5
2a0
100
AcDbEntity
  8
0
 62
1
100
AcDbLine
 10
6.067656
 20
19.442905
 30
0.0
 11
6.105911
 21
19.458119
 31
0.0
  0
LINE
  5
2a1
100
AcDbEntity
  8
0
 62
1
100
AcDbLine
 10
6.105911
 20
19.458119
 30
0.0
 11
6.144165
 21
19.473334
 31
0.0
  0
LINE
  5
2a2
100
AcDbEntity
  8
0
 62
1
100
AcDbLine
 10
6.144165
 20
19.473334
 30
0.0
 11
6.165332
 21
19.485021
 31
0.0
  0
LINE
  5
2a3
100
AcDbEntity
  8
0
 62
1
100
AcDbLine
 10
6.165332
 20
19.485021
 30
0.0
 11
6.186498
 21
19.496707
 31
0.0
  0
LINE
  5
2a4
100
AcDbEntity
  8
0
 62
1
100
AcDbLine
 10
6.186498
 20
19.496707
 30
0.0
 11
6.207665
 21
19.508394
 31
0.0
  0
LINE
  5
2a5
100
AcDbEntity
  8
0
 62
1
100
AcDbLine
 10
6.207665
 20
19.508394
 30
0.0
 11
6.228832
 21
19.520081
 31
0.0
  0
LINE
  5
2a6
100
AcDbEntity
  8
0
 62
1
100
AcDbLine
 10
6.228832
 20
19.520081
 30
0.0
 11
6.249998
 21
19.533089
 31
0.0
  0
LINE
  5
2a7
100
AcDbEntity
  8
0
 62
1
100
AcDbLine
 10
6.249998
 20
19.533089
 30
0.0
 11
6.271165
 21
19.546096
 31
0.0
  0
LINE
  5
2a8
100
AcDbEntity
  8
0
 62
1
100
AcDbLine
 10
6.271165
 20
19.546096
 30
0.0
 11
6.292332
 21
19.559104
 31
0.0
  0
LINE
  5
2a9
100
AcDbEntity
  8
0
 62
1
100
AcDbLine
 10
6.292332
 20
19.559104
 30
0.0
 11
6.313498
 21
19.572111
 31
0.0
  0
LINE
  5
2aa
100
AcDbEntity
  8
0
 62
1
100
AcDbLine
 10
6.313498
 20
19.572111
 30
0.0
 11
6.334665
 21
19.585119
 31
0.0
  0
LINE
  5
2ab
100
AcDbEntity
  8
0
 62
1
100
AcDbLine
 10
6.334665
 20
19.585119
 30
0.0
 11
6.355832
 21
19.598127
 31
0.0
  0
LINE
  5
2ac
100
AcDbEntity
  8
0
 62
1
100
AcDbLine
 10
6.355832
 20
19.598127
 30
0.0
 11
6.376998
 21
19.611134
 31
0.0
  0
LINE
  5
2ad
100
AcDbEntity
  8
0
 62
1
100
AcDbLine
 10
6.376998
 20
19.611134
 30
0.0
 11
6.398165
 21
19.624142
 31
0.0
  0
LINE
  5
2ae
100
AcDbEntity
  8
0
 62
1
100
AcDbLine
 10
6.398165
 20
19.624142
 30
0.0
 11
6.419332
 21
19.635829
 31
0.0
  0
LINE
  5
2af
100
AcDbEntity
  8
0
 62
1
100
AcDbLine
 10
6.419332
 20
19.635829
 30
0.0
 11
6.440498
 21
19.647516
 31
0.0
  0
LINE
  5
2b0
100
AcDbEntity
  8
0
 62
1
100
AcDbLine
 10
6.440498
 20
19.647516
 30
0.0
 11
6.461665
 21
19.659202
 31
0.0
  0
LINE
  5
2b1
100
AcDbEntity
  8
0
 62
1
100
AcDbLine
 10
6.461665
 20
19.659202
 30
0.0
 11
6.482832
 21
19.670889
 31
0.0
  0
LINE
  5
2b2
100
AcDbEntity
  8
0
 62
1
100
AcDbLine
 10
6.482832
 20
19.670889
 30
0.0
 11
6.543355
 21
19.695033
 31
0.0
  0
LINE
  5
2b3
100
AcDbEntity
  8
0
 62
1
100
AcDbLine
 10
6.543355
 20
19.695033
 30
0.0
 11
6.603878
 21
19.719177
 31
0.0
  0
LINE
  5
2b4
100
AcDbEntity
  8
0
 62
1
100
AcDbLine
 10
6.603878
 20
19.719177
 30
0.0
 11
6.664402
 21
19.743322
 31
0.0
  0
LINE
  5
2b5
100
AcDbEntity
  8
0
 62
1
100
AcDbLine
 10
6.664402
 20
19.743322
 30
0.0
 11
6.724925
 21
19.767466
 31
0.0
  0
LINE
  5
2b6
100
AcDbEntity
  8
0
 62
1
100
AcDbLine
 10
6.724925
 20
19.767466
 30
0.0
 11
6.788756
 21
19.777719
 31
0.0
  0
LINE
  5
2b7
100
AcDbEntity
  8
0
 62
1
100
AcDbLine
 10
6.788756
 20
19.777719
 30
0.0
 11
6.852587
 21
19.787972
 31
0.0
  0
LINE
  5
2b8
100
AcDbEntity
  8
0
 62
1
100
AcDbLine
 10
6.852587
 20
19.787972
 30
0.0
 11
6.916417
 21
19.798225
 31
0.0
  0
LINE
  5
2b9
100
AcDbEntity
  8
0
 62
1
100
AcDbLine
 10
6.916417
 20
19.798225
 30
0.0
 11
6.980248
 21
19.808478
 31
0.0
  0
LINE
  5
2ba
100
AcDbEntity
  8
0
 62
1
100
AcDbLine
 10
6.980248
 20
19.808478
 30
0.0
 11
7.045402
 21
19.806813
 31
0.0
  0
LINE
  5
2bb
100
AcDbEntity
  8
0
 62
1
100
AcDbLine
 10
7.045402
 20
19.806813
 30
0.0
 11
7.110556
 21
19.805148
 31
0.0
  0
LINE
  5
2bc
100
AcDbEntity
  8
0
 62
1
100
AcDbLine
 10
7.110556
 20
19.805148
 30
0.0
 11
7.175709
 21
19.803483
 31
0.0
  0
LINE
  5
2bd
100
AcDbEntity
  8
0
 62
1
100
AcDbLine
 10
7.175709
 20
19.803483
 30
0.0
 11
7.240863
 21
19.801818
 31
0.0
  0
LINE
  5
2be
100
AcDbEntity
  8
0
 62
1
100
AcDbLine
 10
7.240863
 20
19.801818
 30
0.0
 11
7.305355
 21
19.790241
 31
0.0
  0
LINE
  5
2bf
100
AcDbEntity
  8
0
 62
1
100
AcDbLine
 10
7.305355
 20
19.790241
 30
0.0
 11
7.369847
 21
19.778664
 31
0.0
  0
LINE
  5
2c0
100
AcDbEntity
  8
0
 62
1
100
AcDbLine
 10
7.369847
 20
19.778664
 30
0.0
 11
7.434340
 21
19.767088
 31
0.0
  0
LINE
  5
2c1
100
AcDbEntity
  8
0
 62
1
100
AcDbLine
 10
7.434340
 20
19.767088
 30
0.0
 11
7.498832
 21
19.755556
 31
0.0
  0
LINE
  5
2c2
100
AcDbEntity
  8
0
 62
1
100
AcDbLine
 10
7.498832
 20
19.755556
 30
0.0
 11
7.562332
 21
19.741665
 31
0.0
  0
LINE
  5
2c3
100
AcDbEntity
  8
0
 62
1
100
AcDbLine
 10
7.562332
 20
19.741665
 30
0.0
 11
7.625832
 21
19.727774
 31
0.0
  0
LINE
  5
2c4
100
AcDbEntity
  8
0
 62
1
100
AcDbLine
 10
7.625832
 20
19.727774
 30
0.0
 11
7.689332
 21
19.713883
 31
0.0
  0
LINE
  5
2c5
100
AcDbEntity
  8
0
 62
1
100
AcDbLine
 10
7.689332
 20
19.713883
 30
0.0
 11
7.752832
 21
19.699992
 31
0.0
  0
LINE
  5
2c6
100
AcDbEntity
  8
0
 62
1
100
AcDbLine
 10
7.752832
 20
19.699992
 30
0.0
 11
7.816332
 21
19.682133
 31
0.0
  0
LINE
  5
2c7
100
AcDbEntity
  8
0
 62
1
100
AcDbLine
 10
7.816332
 20
19.682133
 30
0.0
 11
7.879832
 21
19.664274
 31
0.0
  0
LINE
  5
2c8
100
AcDbEntity
  8
0
 62
1
100
AcDbLine
 10
7.879832
 20
19.664274
 30
0.0
 11
7.943332
 21
19.646415
 31
0.0
  0
LINE
  5
2c9
100
AcDbEntity
  8
0
 62
1
100
AcDbLine
 10
7.943332
 20
19.646415
 30
0.0
 11
8.006832
 21
19.628556
 31
0.0
  0
LINE
  5
2ca
100
AcDbEntity
  8
0
 62
1
100
AcDbLine
 10
8.006832
 20
19.628556
 30
0.0
 11
8.070332
 21
19.610697
 31
0.0
  0
LINE
  5
2cb
100
AcDbEntity
  8
0
 62
1
100
AcDbLine
 10
8.070332
 20
19.610697
 30
0.0
 11
8.133832
 21
19.592838
 31
0.0
  0
LINE
  5
2cc
100
AcDbEntity
  8
0
 62
1
100
AcDbLine
 10
8.133832
 20
19.592838
 30
0.0
 11
8.197332
 21
19.574979
 31
0.0
  0
LINE
  5
2cd
100
AcDbEntity
  8
0
 62
1
100
AcDbLine
 10
8.197332
 20
19.574979
 30
0.0
 11
8.260832
 21
19.557120
 31
0.0
  0
LINE
  5
2ce
100
AcDbEntity
  8
0
 62
1
100
AcDbLine
 10
8.260832
 20
19.557120
 30
0.0
 11
8.324332
 21
19.543229
 31
0.0
  0
LINE
  5
2cf
100
AcDbEntity
  8
0
 62
1
100
AcDbLine
 10
8.324332
 20
19.543229
 30
0.0
 11
8.387832
 21
19.529338
 31
0.0
  0
LINE
  5
2d0
100
AcDbEntity
  8
0
 62
1
100
AcDbLine
 10
8.387832
 20
19.529338
 30
0.0
 11
8.451332
 21
19.515447
 31
0.0
  0
LINE
  5
2d1
100
AcDbEntity
  8
0
 62
1
100
AcDbLine
 10
8.451332
 20
19.515447
 30
0.0
 11
8.514832
 21
19.501556
 31
0.0
  0
LINE
  5
2d2
100
AcDbEntity
  8
0
 62
1
100
AcDbLine
 10
8.514832
 20
19.501556
 30
0.0
 11
8.572930
 21
19.493397
 31
0.0
  0
LINE
  5
2d3
100
AcDbEntity
  8
0
 62
1
100
AcDbLine
 10
8.572930
 20
19.493397
 30
0.0
 11
8.631028
 21
19.485238
 31
0.0
  0
LINE
  5
2d4
100
AcDbEntity
  8
0
 62
1
100
AcDbLine
 10
8.631028
 20
19.485238
 30
0.0
 11
8.689126
 21
19.477079
 31
0.0
  0
LINE
  5
2d5
100
AcDbEntity
  8
0
 62
1
100
AcDbLine
 10
8.689126
 20
19.477079
 30
0.0
 11
8.747224
 21
19.468920
 31
0.0
  0
LINE
  5
2d6
100
AcDbEntity
  8
0
 62
1
100
AcDbLine
 10
8.747224
 20
19.468920
 30
0.0
 11
8.804661
 21
19.464732
 31
0.0
  0
LINE
  5
2d7
100
AcDbEntity
  8
0
 62
1
100
AcDbLine
 10
8.804661
 20
19.464732
 30
0.0
 11
8.862097
 21
19.460543
 31
0.0
  0
LINE
  5
2d8
100
AcDbEntity
  8
0
 62
1
100
AcDbLine
 10
8.862097
 20
19.460543
 30
0.0
 11
8.919534
 21
19.456355
 31
0.0
  0
LINE
  5
2d9
100
AcDbEntity
  8
0
 62
1
100
AcDbLine
 10
8.919534
 20
19.456355
 30
0.0
 11
8.976970
 21
19.452167
 31
0.0
  0
LINE
  5
2da
100
AcDbEntity
  8
0
 62
1
100
AcDbLine
 10
8.976970
 20
19.452167
 30
0.0
 11
9.033084
 21
19.450615
 31
0.0
  0
LINE
  5
2db
100
AcDbEntity
  8
0
 62
1
100
AcDbLine
 10
9.033084
 20
19.450615
 30
0.0
 11
9.089198
 21
19.449063
 31
0.0
  0
LINE
  5
2dc
100
AcDbEntity
  8
0
 62
1
100
AcDbLine
 10
9.089198
 20
19.449063
 30
0.0
 11
9.145311
 21
19.447510
 31
0.0
  0
LINE
  5
2dd
100
AcDbEntity
  8
0
 62
1
100
AcDbLine
 10
9.145311
 20
19.447510
 30
0.0
 11
9.201425
 21
19.445958
 31
0.0
  0
LINE
  5
2de
100
AcDbEntity
  8
0
 62
1
100
AcDbLine
 10
9.201425
 20
19.445958
 30
0.0
 11
9.255555
 21
19.445738
 31
0.0
  0
LINE
  5
2df
100
AcDbEntity
  8
0
 62
1
100
AcDbLine
 10
9.255555
 20
19.445738
 30
0.0
 11
9.309684
 21
19.445517
 31
0.0
  0
LINE
  5
2e0
100
AcDbEntity
  8
0
 62
1
100
AcDbLine
 10
9.309684
 20
19.445517
 30
0.0
 11
9.363813
 21
19.445297
 31
0.0
  0
LINE
  5
2e1
100
AcDbEntity
  8
0
 62
1
100
AcDbLine
 10
9.363813
 20
19.445297
 30
0.0
 11
9.417943
 21
19.445111
 31
0.0
  0
LINE
  5
2e2
100
AcDbEntity
  8
0
 62
1
100
AcDbLine
 10
9.417943
 20
19.445111
 30
0.0
 11
9.445504
 21
19.445332
 31
0.0
  0
LINE
  5
2e3
100
AcDbEntity
  8
0
 62
1
100
AcDbLine
 10
9.445504
 20
19.445332
 30
0.0
 11
9.473066
 21
19.445552
 31
0.0
  0
LINE
  5
2e4
100
AcDbEntity
  8
0
 62
1
100
AcDbLine
 10
9.473066
 20
19.445552
 30
0.0
 11
9.500628
 21
19.445773
 31
0.0
  0
LINE
  5
2e5
100
AcDbEntity
  8
0
 62
1
100
AcDbLine
 10
9.500628
 20
19.445773
 30
0.0
 11
9.528190
 21
19.445993
 31
0.0
  0
LINE
  5
2e6
100
AcDbEntity
  8
0
 62
1
100
AcDbLine
 10
9.528190
 20
19.445993
 30
0.0
 11
9.557074
 21
19.447546
 31
0.0
  0
LINE
  5
2e7
100
AcDbEntity
  8
0
 62
1
100
AcDbLine
 10
9.557074
 20
19.447546
 30
0.0
 11
9.585957
 21
19.449098
 31
0.0
  0
LINE
  5
2e8
100
AcDbEntity
  8
0
 62
1
100
AcDbLine
 10
9.585957
 20
19.449098
 30
0.0
 11
9.614841
 21
19.450650
 31
0.0
  0
LINE
  5
2e9
100
AcDbEntity
  8
0
 62
1
100
AcDbLine
 10
9.614841
 20
19.450650
 30
0.0
 11
9.643720
 21
19.452167
 31
0.0
  0
LINE
  5
2ea
100
AcDbEntity
  8
0
 62
1
100
AcDbLine
 10
9.643720
 20
19.452167
 30
0.0
 11
9.672604
 21
19.456355
 31
0.0
  0
LINE
  5
2eb
100
AcDbEntity
  8
0
 62
1
100
AcDbLine
 10
9.672604
 20
19.456355
 30
0.0
 11
9.701488
 21
19.460543
 31
0.0
  0
LINE
  5
2ec
100
AcDbEntity
  8
0
 62
1
100
AcDbLine
 10
9.701488
 20
19.460543
 30
0.0
 11
9.730371
 21
19.464732
 31
0.0
  0
LINE
  5
2ed
100
AcDbEntity
  8
0
 62
1
100
AcDbLine
 10
9.730371
 20
19.464732
 30
0.0
 11
9.759255
 21
19.468920
 31
0.0
  0
LINE
  5
2ee
100
AcDbEntity
  8
0
 62
1
100
AcDbLine
 10
9.759255
 20
19.468920
 30
0.0
 11
9.786817
 21
19.477079
 31
0.0
  0
LINE
  5
2ef
100
AcDbEntity
  8
0
 62
1
100
AcDbLine
 10
9.786817
 20
19.477079
 30
0.0
 11
9.814379
 21
19.485238
 31
0.0
  0
LINE
  5
2f0
100
AcDbEntity
  8
0
 62
1
100
AcDbLine
 10
9.814379
 20
19.485238
 30
0.0
 11
9.841941
 21
19.493397
 31
0.0
  0
LINE
  5
2f1
100
AcDbEntity
  8
0
 62
1
100
AcDbLine
 10
9.841941
 20
19.493397
 30
0.0
 11
9.869498
 21
19.501556
 31
0.0
  0
LINE
  5
2f2
100
AcDbEntity
  8
0
 62
1
100
AcDbLine
 10
9.869498
 20
19.501556
 30
0.0
 11
9.921313
 21
19.525367
 31
0.0
  0
LINE
  5
2f3
100
AcDbEntity
  8
0
 62
1
100
AcDbLine
 10
9.921313
 20
19.525367
 30
0.0
 11
9.973127
 21
19.549181
 31
0.0
  0
LINE
  5
2f4
100
AcDbEntity
  8
0
 62
1
100
AcDbLine
 10
9.973127
 20
19.549181
 30
0.0
 11
10.024941
 21
19.572995
 31
0.0
  0
LINE
  5
2f5
100
AcDbEntity
  8
0
 62
1
100
AcDbLine
 10
10.024941
 20
19.572995
 30
0.0
 11
10.076755
 21
19.596809
 31
0.0
  0
LINE
  5
2f6
100
AcDbEntity
  8
0
 62
1
100
AcDbLine
 10
10.076755
 20
19.596809
 30
0.0
 11
10.127246
 21
19.625913
 31
0.0
  0
LINE
  5
2f7
100
AcDbEntity
  8
0
 62
1
100
AcDbLine
 10
10.127246
 20
19.625913
 30
0.0
 11
10.177738
 21
19.655017
 31
0.0
  0
LINE
  5
2f8
100
AcDbEntity
  8
0
 62
1
100
AcDbLine
 10
10.177738
 20
19.655017
 30
0.0
 11
10.228229
 21
19.684121
 31
0.0
  0
LINE
  5
2f9
100
AcDbEntity
  8
0
 62
1
100
AcDbLine
 10
10.228229
 20
19.684121
 30
0.0
 11
10.278720
 21
19.713223
 31
0.0
  0
LINE
  5
2fa
100
AcDbEntity
  8
0
 62
1
100
AcDbLine
 10
10.278720
 20
19.713223
 30
0.0
 11
10.329212
 21
19.731742
 31
0.0
  0
LINE
  5
2fb
100
AcDbEntity
  8
0
 62
1
100
AcDbLine
 10
10.329212
 20
19.731742
 30
0.0
 11
10.379703
 21
19.750261
 31
0.0
  0
LINE
  5
2fc
100
AcDbEntity
  8
0
 62
1
100
AcDbLine
 10
10.379703
 20
19.750261
 30
0.0
 11
10.430194
 21
19.768784
 31
0.0
  0
LINE
  5
2fd
100
AcDbEntity
  8
0
 62
1
100
AcDbLine
 10
10.430194
 20
19.768784
 30
0.0
 11
10.480686
 21
19.787303
 31
0.0
  0
LINE
  5
2fe
100
AcDbEntity
  8
0
 62
1
100
AcDbLine
 10
10.480686
 20
19.787303
 30
0.0
 11
10.532500
 21
19.779367
 31
0.0
  0
LINE
  5
2ff
100
AcDbEntity
  8
0
 62
1
100
AcDbLine
 10
10.532500
 20
19.779367
 30
0.0
 11
10.584314
 21
19.771428
 31
0.0
  0
LINE
  5
300
100
AcDbEntity
  8
0
 62
1
100
AcDbLine
 10
10.584314
 20
19.771428
 30
0.0
 11
10.636128
 21
19.763489
 31
0.0
  0
LINE
  5
301
100
AcDbEntity
  8
0
 62
1
100
AcDbLine
 10
10.636128
 20
19.763489
 30
0.0
 11
10.687943
 21
19.755556
 31
0.0
  0
LINE
  5
302
100
AcDbEntity
  8
0
 62
1
100
AcDbLine
 10
10.687943
 20
19.755556
 30
0.0
 11
10.706795
 21
19.746847
 31
0.0
  0
LINE
  5
303
100
AcDbEntity
  8
0
 62
1
100
AcDbLine
 10
10.706795
 20
19.746847
 30
0.0
 11
10.725648
 21
19.738137
 31
0.0
  0
LINE
  5
304
100
AcDbEntity
  8
0
 62
1
100
AcDbLine
 10
10.725648
 20
19.738137
 30
0.0
 11
10.744500
 21
19.729428
 31
0.0
  0
LINE
  5
305
100
AcDbEntity
  8
0
 62
1
100
AcDbLine
 10
10.744500
 20
19.729428
 30
0.0
 11
10.763352
 21
19.720718
 31
0.0
  0
LINE
  5
306
100
AcDbEntity
  8
0
 62
1
100
AcDbLine
 10
10.763352
 20
19.720718
 30
0.0
 11
10.778897
 21
19.707378
 31
0.0
  0
LINE
  5
307
100
AcDbEntity
  8
0
 62
1
100
AcDbLine
 10
10.778897
 20
19.707378
 30
0.0
 11
10.794442
 21
19.694037
 31
0.0
  0
LINE
  5
308
100
AcDbEntity
  8
0
 62
1
100
AcDbLine
 10
10.794442
 20
19.694037
 30
0.0
 11
10.809987
 21
19.680699
 31
0.0
  0
LINE
  5
309
100
AcDbEntity
  8
0
 62
1
100
AcDbLine
 10
10.809987
 20
19.680699
 30
0.0
 11
10.825532
 21
19.667359
 31
0.0
  0
LINE
  5
30a
100
AcDbEntity
  8
0
 62
1
100
AcDbLine
 10
10.825532
 20
19.667359
 30
0.0
 11
10.839753
 21
19.652697
 31
0.0
  0
LINE
  5
30b
100
AcDbEntity
  8
0
 62
1
100
AcDbLine
 10
10.839753
 20
19.652697
 30
0.0
 11
10.853974
 21
19.638036
 31
0.0
  0
LINE
  5
30c
100
AcDbEntity
  8
0
 62
1
100
AcDbLine
 10
10.853974
 20
19.638036
 30
0.0
 11
10.868195
 21
19.623374
 31
0.0
  0
LINE
  5
30d
100
AcDbEntity
  8
0
 62
1
100
AcDbLine
 10
10.868195
 20
19.623374
 30
0.0
 11
10.882416
 21
19.608713
 31
0.0
  0
LINE
  5
30e
100
AcDbEntity
  8
0
 62
1
100
AcDbLine
 10
10.882416
 20
19.608713
 30
0.0
 11
10.897298
 21
19.596035
 31
0.0
  0
LINE
  5
30f
100
AcDbEntity
  8
0
 62
1
100
AcDbLine
 10
10.897298
 20
19.596035
 30
0.0
 11
10.912180
 21
19.583358
 31
0.0
  0
LINE
  5
310
100
AcDbEntity
  8
0
 62
1
100
AcDbLine
 10
10.912180
 20
19.583358
 30
0.0
 11
10.927061
 21
19.570681
 31
0.0
  0
LINE
  5
311
100
AcDbEntity
  8
0
 62
1
100
AcDbLine
 10
10.927061
 20
19.570681
 30
0.0
 11
10.941943
 21
19.558000
 31
0.0
  0
LINE
  5
312
100
AcDbEntity
  8
0
 62
1
100
AcDbLine
 10
10.941943
 20
19.558000
 30
0.0
 11
11.013601
 21
19.513132
 31
0.0
  0
LINE
  5
313
100
AcDbEntity
  8
0
 62
1
100
AcDbLine
 10
11.013601
 20
19.513132
 30
0.0
 11
11.085259
 21
19.468262
 31
0.0
  0
LINE
  5
314
100
AcDbEntity
  8
0
 62
1
100
AcDbLine
 10
11.085259
 20
19.468262
 30
0.0
 11
11.156917
 21
19.423393
 31
0.0
  0
LINE
  5
315
100
AcDbEntity
  8
0
 62
1
100
AcDbLine
 10
11.156917
 20
19.423393
 30
0.0
 11
11.228575
 21
19.378525
 31
0.0
  0
LINE
  5
316
100
AcDbEntity
  8
0
 62
1
100
AcDbLine
 10
11.228575
 20
19.378525
 30
0.0
 11
11.312139
 21
19.355484
 31
0.0
  0
LINE
  5
317
100
AcDbEntity
  8
0
 62
1
100
AcDbLine
 10
11.312139
 20
19.355484
 30
0.0
 11
11.395703
 21
19.332443
 31
0.0
  0
LINE
  5
318
100
AcDbEntity
  8
0
 62
1
100
AcDbLine
 10
11.395703
 20
19.332443
 30
0.0
 11
11.479267
 21
19.309403
 31
0.0
  0
LINE
  5
319
100
AcDbEntity
  8
0
 62
1
100
AcDbLine
 10
11.479267
 20
19.309403
 30
0.0
 11
11.562832
 21
19.286362
 31
0.0
  0
LINE
  5
31a
100
AcDbEntity
  8
0
 62
1
100
AcDbLine
 10
11.562832
 20
19.286362
 30
0.0
 11
11.651688
 21
19.277873
 31
0.0
  0
LINE
  5
31b
100
AcDbEntity
  8
0
 62
1
100
AcDbLine
 10
11.651688
 20
19.277873
 30
0.0
 11
11.740543
 21
19.269384
 31
0.0
  0
LINE
  5
31c
100
AcDbEntity
  8
0
 62
1
100
AcDbLine
 10
11.740543
 20
19.269384
 30
0.0
 11
11.829399
 21
19.260894
 31
0.0
  0
LINE
  5
31d
100
AcDbEntity
  8
0
 62
1
100
AcDbLine
 10
11.829399
 20
19.260894
 30
0.0
 11
11.918255
 21
19.252405
 31
0.0
  0
LINE
  5
31e
100
AcDbEntity
  8
0
 62
1
100
AcDbLine
 10
11.918255
 20
19.252405
 30
0.0
 11
12.005788
 21
19.251192
 31
0.0
  0
LINE
  5
31f
100
AcDbEntity
  8
0
 62
1
100
AcDbLine
 10
12.005788
 20
19.251192
 30
0.0
 11
12.093321
 21
19.249978
 31
0.0
  0
LINE
  5
320
100
AcDbEntity
  8
0
 62
1
100
AcDbLine
 10
12.093321
 20
19.249978
 30
0.0
 11
12.180854
 21
19.248764
 31
0.0
  0
LINE
  5
321
100
AcDbEntity
  8
0
 62
1
100
AcDbLine
 10
12.180854
 20
19.248764
 30
0.0
 11
12.268387
 21
19.247556
 31
0.0
  0
LINE
  5
322
100
AcDbEntity
  8
0
 62
1
100
AcDbLine
 10
12.268387
 20
19.247556
 30
0.0
 11
12.315792
 21
19.249334
 31
0.0
  0
LINE
  5
323
100
AcDbEntity
  8
0
 62
1
100
AcDbLine
 10
12.315792
 20
19.249334
 30
0.0
 11
12.363196
 21
19.251112
 31
0.0
  0
LINE
  5
324
100
AcDbEntity
  8
0
 62
1
100
AcDbLine
 10
12.363196
 20
19.251112
 30
0.0
 11
12.410601
 21
19.252890
 31
0.0
  0
LINE
  5
325
100
AcDbEntity
  8
0
 62
1
100
AcDbLine
 10
12.410601
 20
19.252890
 30
0.0
 11
12.458005
 21
19.254668
 31
0.0
  0
LINE
  5
326
100
AcDbEntity
  8
0
 62
1
100
AcDbLine
 10
12.458005
 20
19.254668
 30
0.0
 11
12.504087
 21
19.261723
 31
0.0
  0
LINE
  5
327
100
AcDbEntity
  8
0
 62
1
100
AcDbLine
 10
12.504087
 20
19.261723
 30
0.0
 11
12.550169
 21
19.268779
 31
0.0
  0
LINE
  5
328
100
AcDbEntity
  8
0
 62
1
100
AcDbLine
 10
12.550169
 20
19.268779
 30
0.0
 11
12.596250
 21
19.275835
 31
0.0
  0
LINE
  5
329
100
AcDbEntity
  8
0
 62
1
100
AcDbLine
 10
12.596250
 20
19.275835
 30
0.0
 11
12.642332
 21
19.282890
 31
0.0
  0
LINE
  5
32a
100
AcDbEntity
  8
0
 62
1
100
AcDbLine
 10
12.642332
 20
19.282890
 30
0.0
 11
12.685767
 21
19.297885
 31
0.0
  0
LINE
  5
32b
100
AcDbEntity
  8
0
 62
1
100
AcDbLine
 10
12.685767
 20
19.297885
 30
0.0
 11
12.729203
 21
19.312879
 31
0.0
  0
LINE
  5
32c
100
AcDbEntity
  8
0
 62
1
100
AcDbLine
 10
12.729203
 20
19.312879
 30
0.0
 11
12.772639
 21
19.327874
 31
0.0
  0
LINE
  5
32d
100
AcDbEntity
  8
0
 62
1
100
AcDbLine
 10
12.772639
 20
19.327874
 30
0.0
 11
12.816075
 21
19.342868
 31
0.0
  0
LINE
  5
32e
100
AcDbEntity
  8
0
 62
1
100
AcDbLine
 10
12.816075
 20
19.342868
 30
0.0
 11
12.855542
 21
19.368443
 31
0.0
  0
LINE
  5
32f
100
AcDbEntity
  8
0
 62
1
100
AcDbLine
 10
12.855542
 20
19.368443
 30
0.0
 11
12.895009
 21
19.394021
 31
0.0
  0
LINE
  5
330
100
AcDbEntity
  8
0
 62
1
100
AcDbLine
 10
12.895009
 20
19.394021
 30
0.0
 11
12.934476
 21
19.419596
 31
0.0
  0
LINE
  5
331
100
AcDbEntity
  8
0
 62
1
100
AcDbLine
 10
12.934476
 20
19.419596
 30
0.0
 11
12.973943
 21
19.445111
 31
0.0
  0
LINE
  5
332
100
AcDbEntity
  8
0
 62
1
100
AcDbLine
 10
12.973943
 20
19.445111
 30
0.0
 11
13.007126
 21
19.480830
 31
0.0
  0
LINE
  5
333
100
AcDbEntity
  8
0
 62
1
100
AcDbLine
 10
13.007126
 20
19.480830
 30
0.0
 11
13.040309
 21
19.516549
 31
0.0
  0
LINE
  5
334
100
AcDbEntity
  8
0
 62
1
100
AcDbLine
 10
13.040309
 20
19.516549
 30
0.0
 11
13.073492
 21
19.552268
 31
0.0
  0
LINE
  5
335
100
AcDbEntity
  8
0
 62
1
100
AcDbLine
 10
13.073492
 20
19.552268
 30
0.0
 11
13.106675
 21
19.587986
 31
0.0
  0
LINE
  5
336
100
AcDbEntity
  8
0
 62
1
100
AcDbLine
 10
13.106675
 20
19.587986
 30
0.0
 11
13.122000
 21
19.636935
 31
0.0
  0
LINE
  5
337
100
AcDbEntity
  8
0
 62
1
100
AcDbLine
 10
13.122000
 20
19.636935
 30
0.0
 11
13.137325
 21
19.685882
 31
0.0
  0
LINE
  5
338
100
AcDbEntity
  8
0
 62
1
100
AcDbLine
 10
13.137325
 20
19.685882
 30
0.0
 11
13.152649
 21
19.734830
 31
0.0
  0
LINE
  5
339
100
AcDbEntity
  8
0
 62
1
100
AcDbLine
 10
13.152649
 20
19.734830
 30
0.0
 11
13.167974
 21
19.783778
 31
0.0
  0
LINE
  5
33a
100
AcDbEntity
  8
0
 62
1
100
AcDbLine
 10
13.167974
 20
19.783778
 30
0.0
 11
13.166111
 21
19.838018
 31
0.0
  0
LINE
  5
33b
100
AcDbEntity
  8
0
 62
1
100
AcDbLine
 10
13.166111
 20
19.838018
 30
0.0
 11
13.164249
 21
19.892257
 31
0.0
  0
LINE
  5
33c
100
AcDbEntity
  8
0
 62
1
100
AcDbLine
 10
13.164249
 20
19.892257
 30
0.0
 11
13.162386
 21
19.946497
 31
0.0
  0
LINE
  5
33d
100
AcDbEntity
  8
0
 62
1
100
AcDbLine
 10
13.162386
 20
19.946497
 30
0.0
 11
13.160523
 21
20.000736
 31
0.0
  0
LINE
  5
33e
100
AcDbEntity
  8
0
 62
1
100
AcDbLine
 10
13.160523
 20
20.000736
 30
0.0
 11
13.142114
 21
20.052330
 31
0.0
  0
LINE
  5
33f
100
AcDbEntity
  8
0
 62
1
100
AcDbLine
 10
13.142114
 20
20.052330
 30
0.0
 11
13.123705
 21
20.103924
 31
0.0
  0
LINE
  5
340
100
AcDbEntity
  8
0
 62
1
100
AcDbLine
 10
13.123705
 20
20.103924
 30
0.0
 11
13.105293
 21
20.155518
 31
0.0
  0
LINE
  5
341
100
AcDbEntity
  8
0
 62
1
100
AcDbLine
 10
13.105293
 20
20.155518
 30
0.0
 11
13.086832
 21
20.207111
 31
0.0
  0
LINE
  5
342
100
AcDbEntity
  8
0
 62
7
100
AcDbLine
 10
8.599498
 20
28.081111
 30
0.0
 11
8.373720
 21
28.081111
 31
0.0
  0
LINE
  5
343
100
AcDbEntity
  8
0
 62
7
100
AcDbLine
 10
8.373720
 20
28.081111
 30
0.0
 11
8.147943
 21
28.081111
 31
0.0
  0
LINE
  5
344
100
AcDbEntity
  8
0
 62
7
100
AcDbLine
 10
8.147943
 20
28.081111
 30
0.0
 11
7.922165
 21
28.081111
 31
0.0
  0
LINE
  5
345
100
AcDbEntity
  8
0
 62
7
100
AcDbLine
 10
7.922165
 20
28.081111
 30
0.0
 11
7.696387
 21
28.081111
 31
0.0
  0
LINE
  5
346
100
AcDbEntity
  8
0
 62
7
100
AcDbLine
 10
7.696387
 20
28.081111
 30
0.0
 11
7.470609
 21
28.081111
 31
0.0
  0
LINE
  5
347
100
AcDbEntity
  8
0
 62
7
100
AcDbLine
 10
7.470609
 20
28.081111
 30
0.0
 11
7.244832
 21
28.081111
 31
0.0
  0
LINE
  5
348
100
AcDbEntity
  8
0
 62
7
100
AcDbLine
 10
7.244832
 20
28.081111
 30
0.0
 11
7.019054
 21
28.081111
 31
0.0
  0
LINE
  5
349
100
AcDbEntity
  8
0
 62
7
100
AcDbLine
 10
7.019054
 20
28.081111
 30
0.0
 11
6.793276
 21
28.081111
 31
0.0
  0
LINE
  5
34a
100
AcDbEntity
  8
0
 62
7
100
AcDbLine
 10
6.793276
 20
28.081111
 30
0.0
 11
6.567498
 21
28.081111
 31
0.0
  0
LINE
  5
34b
100
AcDbEntity
  8
0
 62
7
100
AcDbLine
 10
6.567498
 20
28.081111
 30
0.0
 11
6.341720
 21
28.081111
 31
0.0
  0
LINE
  5
34c
100
AcDbEntity
  8
0
 62
7
100
AcDbLine
 10
6.341720
 20
28.081111
 30
0.0
 11
6.115943
 21
28.081111
 31
0.0
  0
LINE
  5
34d
100
AcDbEntity
  8
0
 62
7
100
AcDbLine
 10
6.115943
 20
28.081111
 30
0.0
 11
5.890165
 21
28.081111
 31
0.0
  0
LINE
  5
34e
100
AcDbEntity
  8
0
 62
7
100
AcDbLine
 10
5.890165
 20
28.081111
 30
0.0
 11
5.664387
 21
28.081111
 31
0.0
  0
LINE
  5
34f
100
AcDbEntity
  8
0
 62
7
100
AcDbLine
 10
5.664387
 20
28.081111
 30
0.0
 11
5.438609
 21
28.081111
 31
0.0
  0
LINE
  5
350
100
AcDbEntity
  8
0
 62
7
100
AcDbLine
 10
5.438609
 20
28.081111
 30
0.0
 11
5.212832
 21
28.081111
 31
0.0
  0
LINE
  5
351
100
AcDbEntity
  8
0
 62
7
100
AcDbLine
 10
5.212832
 20
28.081111
 30
0.0
 11
4.987054
 21
28.081111
 31
0.0
  0
LINE
  5
352
100
AcDbEntity
  8
0
 62
7
100
AcDbLine
 10
4.987054
 20
28.081111
 30
0.0
 11
4.589848
 21
28.060937
 31
0.0
  0
LINE
  5
353
100
AcDbEntity
  8
0
 62
7
100
AcDbLine
 10
4.589848
 20
28.060937
 30
0.0
 11
4.203887
 21
28.001736
 31
0.0
  0
LINE
  5
354
100
AcDbEntity
  8
0
 62
7
100
AcDbLine
 10
4.203887
 20
28.001736
 30
0.0
 11
3.831155
 21
27.905494
 31
0.0
  0
LINE
  5
355
100
AcDbEntity
  8
0
 62
7
100
AcDbLine
 10
3.831155
 20
27.905494
 30
0.0
 11
3.473637
 21
27.774195
 31
0.0
  0
LINE
  5
356
100
AcDbEntity
  8
0
 62
7
100
AcDbLine
 10
3.473637
 20
27.774195
 30
0.0
 11
3.133317
 21
27.609822
 31
0.0
  0
LINE
  5
357
100
AcDbEntity
  8
0
 62
7
100
AcDbLine
 10
3.133317
 20
27.609822
 30
0.0
 11
2.812179
 21
27.414361
 31
0.0
  0
LINE
  5
358
100
AcDbEntity
  8
0
 62
7
100
AcDbLine
 10
2.812179
 20
27.414361
 30
0.0
 11
2.512207
 21
27.189796
 31
0.0
  0
LINE
  5
359
100
AcDbEntity
  8
0
 62
7
100
AcDbLine
 10
2.512207
 20
27.189796
 30
0.0
 11
2.235387
 21
26.938111
 31
0.0
  0
LINE
  5
35a
100
AcDbEntity
  8
0
 62
7
100
AcDbLine
 10
2.235387
 20
26.938111
 30
0.0
 11
1.983702
 21
26.661291
 31
0.0
  0
LINE
  5
35b
100
AcDbEntity
  8
0
 62
7
100
AcDbLine
 10
1.983702
 20
26.661291
 30
0.0
 11
1.759137
 21
26.361320
 31
0.0
  0
LINE
  5
35c
100
AcDbEntity
  8
0
 62
7
100
AcDbLine
 10
1.759137
 20
26.361320
 30
0.0
 11
1.563676
 21
26.040182
 31
0.0
  0
LINE
  5
35d
100
AcDbEntity
  8
0
 62
7
100
AcDbLine
 10
1.563676
 20
26.040182
 30
0.0
 11
1.399304
 21
25.699861
 31
0.0
  0
LINE
  5
35e
100
AcDbEntity
  8
0
 62
7
100
AcDbLine
 10
1.399304
 20
25.699861
 30
0.0
 11
1.268004
 21
25.342343
 31
0.0
  0
LINE
  5
35f
100
AcDbEntity
  8
0
 62
7
100
AcDbLine
 10
1.268004
 20
25.342343
 30
0.0
 11
1.171762
 21
24.969611
 31
0.0
  0
LINE
  5
360
100
AcDbEntity
  8
0
 62
7
100
AcDbLine
 10
1.171762
 20
24.969611
 30
0.0
 11
1.112562
 21
24.583651
 31
0.0
  0
LINE
  5
361
100
AcDbEntity
  8
0
 62
7
100
AcDbLine
 10
1.112562
 20
24.583651
 30
0.0
 11
1.092387
 21
24.186445
 31
0.0
  0
LINE
  5
362
100
AcDbEntity
  8
0
 62
7
100
AcDbLine
 10
1.092387
 20
24.186445
 30
0.0
 11
1.095315
 21
24.128946
 31
0.0
  0
LINE
  5
363
100
AcDbEntity
  8
0
 62
7
100
AcDbLine
 10
1.095315
 20
24.128946
 30
0.0
 11
1.103907
 21
24.073060
 31
0.0
  0
LINE
  5
364
100
AcDbEntity
  8
0
 62
7
100
AcDbLine
 10
1.103907
 20
24.073060
 30
0.0
 11
1.117874
 21
24.019075
 31
0.0
  0
LINE
  5
365
100
AcDbEntity
  8
0
 62
7
100
AcDbLine
 10
1.117874
 20
24.019075
 30
0.0
 11
1.136925
 21
23.967281
 31
0.0
  0
LINE
  5
366
100
AcDbEntity
  8
0
 62
7
100
AcDbLine
 10
1.136925
 20
23.967281
 30
0.0
 11
1.160772
 21
23.917969
 31
0.0
  0
LINE
  5
367
100
AcDbEntity
  8
0
 62
7
100
AcDbLine
 10
1.160772
 20
23.917969
 30
0.0
 11
1.189125
 21
23.871425
 31
0.0
  0
LINE
  5
368
100
AcDbEntity
  8
0
 62
7
100
AcDbLine
 10
1.189125
 20
23.871425
 30
0.0
 11
1.221695
 21
23.827941
 31
0.0
  0
LINE
  5
369
100
AcDbEntity
  8
0
 62
7
100
AcDbLine
 10
1.221695
 20
23.827941
 30
0.0
 11
1.258193
 21
23.787806
 31
0.0
  0
LINE
  5
36a
100
AcDbEntity
  8
0
 62
7
100
AcDbLine
 10
1.258193
 20
23.787806
 30
0.0
 11
1.298328
 21
23.751309
 31
0.0
  0
LINE
  5
36b
100
AcDbEntity
  8
0
 62
7
100
AcDbLine
 10
1.298328
 20
23.751309
 30
0.0
 11
1.341812
 21
23.718739
 31
0.0
  0
LINE
  5
36c
100
AcDbEntity
  8
0
 62
7
100
AcDbLine
 10
1.341812
 20
23.718739
 30
0.0
 11
1.388355
 21
23.690386
 31
0.0
  0
LINE
  5
36d
100
AcDbEntity
  8
0
 62
7
100
AcDbLine
 10
1.388355
 20
23.690386
 30
0.0
 11
1.437668
 21
23.666538
 31
0.0
  0
LINE
  5
36e
100
AcDbEntity
  8
0
 62
7
100
AcDbLine
 10
1.437668
 20
23.666538
 30
0.0
 11
1.489462
 21
23.647485
 31
0.0
  0
LINE
  5
36f
100
AcDbEntity
  8
0
 62
7
100
AcDbLine
 10
1.489462
 20
23.647485
 30
0.0
 11
1.543446
 21
23.633518
 31
0.0
  0
LINE
  5
370
100
AcDbEntity
  8
0
 62
7
100
AcDbLine
 10
1.543446
 20
23.633518
 30
0.0
 11
1.599333
 21
23.624927
 31
0.0
  0
LINE
  5
371
100
AcDbEntity
  8
0
 62
7
100
AcDbLine
 10
1.599333
 20
23.624927
 30
0.0
 11
1.656832
 21
23.622000
 31
0.0
  0
LINE
  5
372
100
AcDbEntity
  8
0
 62
7
100
AcDbLine
 10
1.656832
 20
23.622000
 30
0.0
 11
2.297123
 21
23.622000
 31
0.0
  0
LINE
  5
373
100
AcDbEntity
  8
0
 62
7
100
AcDbLine
 10
2.297123
 20
23.622000
 30
0.0
 11
2.937415
 21
23.622000
 31
0.0
  0
LINE
  5
374
100
AcDbEntity
  8
0
 62
7
100
AcDbLine
 10
2.937415
 20
23.622000
 30
0.0
 11
3.577707
 21
23.622000
 31
0.0
  0
LINE
  5
375
100
AcDbEntity
  8
0
 62
7
100
AcDbLine
 10
3.577707
 20
23.622000
 30
0.0
 11
4.217998
 21
23.622000
 31
0.0
  0
LINE
  5
376
100
AcDbEntity
  8
0
 62
7
100
AcDbLine
 10
4.217998
 20
23.622000
 30
0.0
 11
4.858290
 21
23.622000
 31
0.0
  0
LINE
  5
377
100
AcDbEntity
  8
0
 62
7
100
AcDbLine
 10
4.858290
 20
23.622000
 30
0.0
 11
5.498582
 21
23.622000
 31
0.0
  0
LINE
  5
378
100
AcDbEntity
  8
0
 62
7
100
AcDbLine
 10
5.498582
 20
23.622000
 30
0.0
 11
6.138873
 21
23.622000
 31
0.0
  0
LINE
  5
379
100
AcDbEntity
  8
0
 62
7
100
AcDbLine
 10
6.138873
 20
23.622000
 30
0.0
 11
6.779165
 21
23.622000
 31
0.0
  0
LINE
  5
37a
100
AcDbEntity
  8
0
 62
7
100
AcDbLine
 10
6.779165
 20
23.622000
 30
0.0
 11
7.419457
 21
23.622000
 31
0.0
  0
LINE
  5
37b
100
AcDbEntity
  8
0
 62
7
100
AcDbLine
 10
7.419457
 20
23.622000
 30
0.0
 11
8.059748
 21
23.622000
 31
0.0
  0
LINE
  5
37c
100
AcDbEntity
  8
0
 62
7
100
AcDbLine
 10
8.059748
 20
23.622000
 30
0.0
 11
8.700040
 21
23.622000
 31
0.0
  0
LINE
  5
37d
100
AcDbEntity
  8
0
 62
7
100
AcDbLine
 10
8.700040
 20
23.622000
 30
0.0
 11
9.340332
 21
23.622000
 31
0.0
  0
LINE
  5
37e
100
AcDbEntity
  8
0
 62
7
100
AcDbLine
 10
9.340332
 20
23.622000
 30
0.0
 11
9.980623
 21
23.622000
 31
0.0
  0
LINE
  5
37f
100
AcDbEntity
  8
0
 62
7
100
AcDbLine
 10
9.980623
 20
23.622000
 30
0.0
 11
10.620915
 21
23.622000
 31
0.0
  0
LINE
  5
380
100
AcDbEntity
  8
0
 62
7
100
AcDbLine
 10
10.620915
 20
23.622000
 30
0.0
 11
11.261207
 21
23.622000
 31
0.0
  0
LINE
  5
381
100
AcDbEntity
  8
0
 62
7
100
AcDbLine
 10
11.261207
 20
23.622000
 30
0.0
 11
11.901498
 21
23.622000
 31
0.0
  0
LINE
  5
382
100
AcDbEntity
  8
0
 62
7
100
AcDbLine
 10
11.901498
 20
23.622000
 30
0.0
 11
11.958997
 21
23.624930
 31
0.0
  0
LINE
  5
383
100
AcDbEntity
  8
0
 62
7
100
AcDbLine
 10
11.958997
 20
23.624930
 30
0.0
 11
12.014883
 21
23.633521
 31
0.0
  0
LINE
  5
384
100
AcDbEntity
  8
0
 62
7
100
AcDbLine
 10
12.014883
 20
23.633521
 30
0.0
 11
12.068868
 21
23.647488
 31
0.0
  0
LINE
  5
385
100
AcDbEntity
  8
0
 62
7
100
AcDbLine
 10
12.068868
 20
23.647488
 30
0.0
 11
12.120662
 21
23.666541
 31
0.0
  0
LINE
  5
386
100
AcDbEntity
  8
0
 62
7
100
AcDbLine
 10
12.120662
 20
23.666541
 30
0.0
 11
12.169975
 21
23.690388
 31
0.0
  0
LINE
  5
387
100
AcDbEntity
  8
0
 62
7
100
AcDbLine
 10
12.169975
 20
23.690388
 30
0.0
 11
12.216518
 21
23.718741
 31
0.0
  0
LINE
  5
388
100
AcDbEntity
  8
0
 62
7
100
AcDbLine
 10
12.216518
 20
23.718741
 30
0.0
 11
12.260002
 21
23.751311
 31
0.0
  0
LINE
  5
389
100
AcDbEntity
  8
0
 62
7
100
AcDbLine
 10
12.260002
 20
23.751311
 30
0.0
 11
12.300137
 21
23.787809
 31
0.0
  0
LINE
  5
38a
100
AcDbEntity
  8
0
 62
7
100
AcDbLine
 10
12.300137
 20
23.787809
 30
0.0
 11
12.336634
 21
23.827944
 31
0.0
  0
LINE
  5
38b
100
AcDbEntity
  8
0
 62
7
100
AcDbLine
 10
12.336634
 20
23.827944
 30
0.0
 11
12.369205
 21
23.871428
 31
0.0
  0
LINE
  5
38c
100
AcDbEntity
  8
0
 62
7
100
AcDbLine
 10
12.369205
 20
23.871428
 30
0.0
 11
12.397557
 21
23.917971
 31
0.0
  0
LINE
  5
38d
100
AcDbEntity
  8
0
 62
7
100
AcDbLine
 10
12.397557
 20
23.917971
 30
0.0
 11
12.421405
 21
23.967285
 31
0.0
  0
LINE
  5
38e
100
AcDbEntity
  8
0
 62
7
100
AcDbLine
 10
12.421405
 20
23.967285
 30
0.0
 11
12.440455
 21
24.019078
 31
0.0
  0
LINE
  5
38f
100
AcDbEntity
  8
0
 62
7
100
AcDbLine
 10
12.440455
 20
24.019078
 30
0.0
 11
12.454422
 21
24.073063
 31
0.0
  0
LINE
  5
390
100
AcDbEntity
  8
0
 62
7
100
AcDbLine
 10
12.454422
 20
24.073063
 30
0.0
 11
12.463013
 21
24.128949
 31
0.0
  0
LINE
  5
391
100
AcDbEntity
  8
0
 62
7
100
AcDbLine
 10
12.463013
 20
24.128949
 30
0.0
 11
12.465943
 21
24.186445
 31
0.0
  0
LINE
  5
392
100
AcDbEntity
  8
0
 62
7
100
AcDbLine
 10
12.465943
 20
24.186445
 30
0.0
 11
12.446085
 21
24.588301
 31
0.0
  0
LINE
  5
393
100
AcDbEntity
  8
0
 62
7
100
AcDbLine
 10
12.446085
 20
24.588301
 30
0.0
 11
12.387780
 21
24.977714
 31
0.0
  0
LINE
  5
394
100
AcDbEntity
  8
0
 62
7
100
AcDbLine
 10
12.387780
 20
24.977714
 30
0.0
 11
12.292930
 21
25.352823
 31
0.0
  0
LINE
  5
395
100
AcDbEntity
  8
0
 62
7
100
AcDbLine
 10
12.292930
 20
25.352823
 30
0.0
 11
12.163436
 21
25.711768
 31
0.0
  0
LINE
  5
396
100
AcDbEntity
  8
0
 62
7
100
AcDbLine
 10
12.163436
 20
25.711768
 30
0.0
 11
12.001199
 21
26.052688
 31
0.0
  0
LINE
  5
397
100
AcDbEntity
  8
0
 62
7
100
AcDbLine
 10
12.001199
 20
26.052688
 30
0.0
 11
11.808122
 21
26.373722
 31
0.0
  0
LINE
  5
398
100
AcDbEntity
  8
0
 62
7
100
AcDbLine
 10
11.808122
 20
26.373722
 30
0.0
 11
11.586107
 21
26.673011
 31
0.0
  0
LINE
  5
399
100
AcDbEntity
  8
0
 62
7
100
AcDbLine
 10
11.586107
 20
26.673011
 30
0.0
 11
11.337054
 21
26.948695
 31
0.0
  0
LINE
  5
39a
100
AcDbEntity
  8
0
 62
7
100
AcDbLine
 10
11.337054
 20
26.948695
 30
0.0
 11
11.062866
 21
27.198912
 31
0.0
  0
LINE
  5
39b
100
AcDbEntity
  8
0
 62
7
100
AcDbLine
 10
11.062866
 20
27.198912
 30
0.0
 11
10.765443
 21
27.421803
 31
0.0
  0
LINE
  5
39c
100
AcDbEntity
  8
0
 62
7
100
AcDbLine
 10
10.765443
 20
27.421803
 30
0.0
 11
10.446690
 21
27.615507
 31
0.0
  0
LINE
  5
39d
100
AcDbEntity
  8
0
 62
7
100
AcDbLine
 10
10.446690
 20
27.615507
 30
0.0
 11
10.108505
 21
27.778164
 31
0.0
  0
LINE
  5
39e
100
AcDbEntity
  8
0
 62
7
100
AcDbLine
 10
10.108505
 20
27.778164
 30
0.0
 11
9.752792
 21
27.907913
 31
0.0
  0
LINE
  5
39f
100
AcDbEntity
  8
0
 62
7
100
AcDbLine
 10
9.752792
 20
27.907913
 30
0.0
 11
9.381452
 21
28.002894
 31
0.0
  0
LINE
  5
3a0
100
AcDbEntity
  8
0
 62
7
100
AcDbLine
 10
9.381452
 20
28.002894
 30
0.0
 11
8.996387
 21
28.061247
 31
0.0
  0
LINE
  5
3a1
100
AcDbEntity
  8
0
 62
7
100
AcDbLine
 10
8.996387
 20
28.061247
 30
0.0
 11
8.599498
 21
28.081111
 31
0.0
  0
LINE
  5
3a2
100
AcDbEntity
  8
0
 62
7
100
AcDbLine
 10
3.378387
 20
24.242889
 30
0.0
 11
3.305351
 21
24.246472
 31
0.0
  0
LINE
  5
3a3
100
AcDbEntity
  8
0
 62
7
100
AcDbLine
 10
3.305351
 20
24.246472
 30
0.0
 11
3.234630
 21
24.257000
 31
0.0
  0
LINE
  5
3a4
100
AcDbEntity
  8
0
 62
7
100
AcDbLine
 10
3.234630
 20
24.257000
 30
0.0
 11
3.166555
 21
24.274143
 31
0.0
  0
LINE
  5
3a5
100
AcDbEntity
  8
0
 62
7
100
AcDbLine
 10
3.166555
 20
24.274143
 30
0.0
 11
3.101457
 21
24.297570
 31
0.0
  0
LINE
  5
3a6
100
AcDbEntity
  8
0
 62
7
100
AcDbLine
 10
3.101457
 20
24.297570
 30
0.0
 11
3.039665
 21
24.326950
 31
0.0
  0
LINE
  5
3a7
100
AcDbEntity
  8
0
 62
7
100
AcDbLine
 10
3.039665
 20
24.326950
 30
0.0
 11
2.981512
 21
24.361952
 31
0.0
  0
LINE
  5
3a8
100
AcDbEntity
  8
0
 62
7
100
AcDbLine
 10
2.981512
 20
24.361952
 30
0.0
 11
2.927328
 21
24.402245
 31
0.0
  0
LINE
  5
3a9
100
AcDbEntity
  8
0
 62
7
100
AcDbLine
 10
2.927328
 20
24.402245
 30
0.0
 11
2.877443
 21
24.447500
 31
0.0
  0
LINE
  5
3aa
100
AcDbEntity
  8
0
 62
7
100
AcDbLine
 10
2.877443
 20
24.447500
 30
0.0
 11
2.832188
 21
24.497385
 31
0.0
  0
LINE
  5
3ab
100
AcDbEntity
  8
0
 62
7
100
AcDbLine
 10
2.832188
 20
24.497385
 30
0.0
 11
2.791894
 21
24.551570
 31
0.0
  0
LINE
  5
3ac
100
AcDbEntity
  8
0
 62
7
100
AcDbLine
 10
2.791894
 20
24.551570
 30
0.0
 11
2.756892
 21
24.609723
 31
0.0
  0
LINE
  5
3ad
100
AcDbEntity
  8
0
 62
7
100
AcDbLine
 10
2.756892
 20
24.609723
 30
0.0
 11
2.727512
 21
24.671514
 31
0.0
  0
LINE
  5
3ae
100
AcDbEntity
  8
0
 62
7
100
AcDbLine
 10
2.727512
 20
24.671514
 30
0.0
 11
2.704085
 21
24.736613
 31
0.0
  0
LINE
  5
3af
100
AcDbEntity
  8
0
 62
7
100
AcDbLine
 10
2.704085
 20
24.736613
 30
0.0
 11
2.686943
 21
24.804688
 31
0.0
  0
LINE
  5
3b0
100
AcDbEntity
  8
0
 62
7
100
AcDbLine
 10
2.686943
 20
24.804688
 30
0.0
 11
2.676414
 21
24.875409
 31
0.0
  0
LINE
  5
3b1
100
AcDbEntity
  8
0
 62
7
100
AcDbLine
 10
2.676414
 20
24.875409
 30
0.0
 11
2.672832
 21
24.948445
 31
0.0
  0
LINE
  5
3b2
100
AcDbEntity
  8
0
 62
7
100
AcDbLine
 10
2.672832
 20
24.948445
 30
0.0
 11
2.676414
 21
25.021481
 31
0.0
  0
LINE
  5
3b3
100
AcDbEntity
  8
0
 62
7
100
AcDbLine
 10
2.676414
 20
25.021481
 30
0.0
 11
2.686943
 21
25.092202
 31
0.0
  0
LINE
  5
3b4
100
AcDbEntity
  8
0
 62
7
100
AcDbLine
 10
2.686943
 20
25.092202
 30
0.0
 11
2.704085
 21
25.160277
 31
0.0
  0
LINE
  5
3b5
100
AcDbEntity
  8
0
 62
7
100
AcDbLine
 10
2.704085
 20
25.160277
 30
0.0
 11
2.727512
 21
25.225375
 31
0.0
  0
LINE
  5
3b6
100
AcDbEntity
  8
0
 62
7
100
AcDbLine
 10
2.727512
 20
25.225375
 30
0.0
 11
2.756892
 21
25.287167
 31
0.0
  0
LINE
  5
3b7
100
AcDbEntity
  8
0
 62
7
100
AcDbLine
 10
2.756892
 20
25.287167
 30
0.0
 11
2.791894
 21
25.345320
 31
0.0
  0
LINE
  5
3b8
100
AcDbEntity
  8
0
 62
7
100
AcDbLine
 10
2.791894
 20
25.345320
 30
0.0
 11
2.832188
 21
25.399504
 31
0.0
  0
LINE
  5
3b9
100
AcDbEntity
  8
0
 62
7
100
AcDbLine
 10
2.832188
 20
25.399504
 30
0.0
 11
2.877443
 21
25.449389
 31
0.0
  0
LINE
  5
3ba
100
AcDbEntity
  8
0
 62
7
100
AcDbLine
 10
2.877443
 20
25.449389
 30
0.0
 11
2.927328
 21
25.494644
 31
0.0
  0
LINE
  5
3bb
100
AcDbEntity
  8
0
 62
7
100
AcDbLine
 10
2.927328
 20
25.494644
 30
0.0
 11
2.981512
 21
25.534938
 31
0.0
  0
LINE
  5
3bc
100
AcDbEntity
  8
0
 62
7
100
AcDbLine
 10
2.981512
 20
25.534938
 30
0.0
 11
3.039665
 21
25.569940
 31
0.0
  0
LINE
  5
3bd
100
AcDbEntity
  8
0
 62
7
100
AcDbLine
 10
3.039665
 20
25.569940
 30
0.0
 11
3.101457
 21
25.599320
 31
0.0
  0
LINE
  5
3be
100
AcDbEntity
  8
0
 62
7
100
AcDbLine
 10
3.101457
 20
25.599320
 30
0.0
 11
3.166555
 21
25.622747
 31
0.0
  0
LINE
  5
3bf
100
AcDbEntity
  8
0
 62
7
100
AcDbLine
 10
3.166555
 20
25.622747
 30
0.0
 11
3.234630
 21
25.639889
 31
0.0
  0
LINE
  5
3c0
100
AcDbEntity
  8
0
 62
7
100
AcDbLine
 10
3.234630
 20
25.639889
 30
0.0
 11
3.305351
 21
25.650418
 31
0.0
  0
LINE
  5
3c1
100
AcDbEntity
  8
0
 62
7
100
AcDbLine
 10
3.305351
 20
25.650418
 30
0.0
 11
3.378387
 21
25.654000
 31
0.0
  0
LINE
  5
3c2
100
AcDbEntity
  8
0
 62
7
100
AcDbLine
 10
3.378387
 20
25.654000
 30
0.0
 11
3.451423
 21
25.650416
 31
0.0
  0
LINE
  5
3c3
100
AcDbEntity
  8
0
 62
7
100
AcDbLine
 10
3.451423
 20
25.650416
 30
0.0
 11
3.522144
 21
25.639889
 31
0.0
  0
LINE
  5
3c4
100
AcDbEntity
  8
0
 62
7
100
AcDbLine
 10
3.522144
 20
25.639889
 30
0.0
 11
3.590219
 21
25.622747
 31
0.0
  0
LINE
  5
3c5
100
AcDbEntity
  8
0
 62
7
100
AcDbLine
 10
3.590219
 20
25.622747
 30
0.0
 11
3.655318
 21
25.599320
 31
0.0
  0
LINE
  5
3c6
100
AcDbEntity
  8
0
 62
7
100
AcDbLine
 10
3.655318
 20
25.599320
 30
0.0
 11
3.717109
 21
25.569940
 31
0.0
  0
LINE
  5
3c7
100
AcDbEntity
  8
0
 62
7
100
AcDbLine
 10
3.717109
 20
25.569940
 30
0.0
 11
3.775262
 21
25.534938
 31
0.0
  0
LINE
  5
3c8
100
AcDbEntity
  8
0
 62
7
100
AcDbLine
 10
3.775262
 20
25.534938
 30
0.0
 11
3.829447
 21
25.494644
 31
0.0
  0
LINE
  5
3c9
100
AcDbEntity
  8
0
 62
7
100
AcDbLine
 10
3.829447
 20
25.494644
 30
0.0
 11
3.879332
 21
25.449389
 31
0.0
  0
LINE
  5
3ca
100
AcDbEntity
  8
0
 62
7
100
AcDbLine
 10
3.879332
 20
25.449389
 30
0.0
 11
3.924586
 21
25.399504
 31
0.0
  0
LINE
  5
3cb
100
AcDbEntity
  8
0
 62
7
100
AcDbLine
 10
3.924586
 20
25.399504
 30
0.0
 11
3.964880
 21
25.345320
 31
0.0
  0
LINE
  5
3cc
100
AcDbEntity
  8
0
 62
7
100
AcDbLine
 10
3.964880
 20
25.345320
 30
0.0
 11
3.999882
 21
25.287167
 31
0.0
  0
LINE
  5
3cd
100
AcDbEntity
  8
0
 62
7
100
AcDbLine
 10
3.999882
 20
25.287167
 30
0.0
 11
4.029262
 21
25.225375
 31
0.0
  0
LINE
  5
3ce
100
AcDbEntity
  8
0
 62
7
100
AcDbLine
 10
4.029262
 20
25.225375
 30
0.0
 11
4.052689
 21
25.160277
 31
0.0
  0
LINE
  5
3cf
100
AcDbEntity
  8
0
 62
7
100
AcDbLine
 10
4.052689
 20
25.160277
 30
0.0
 11
4.069832
 21
25.092202
 31
0.0
  0
LINE
  5
3d0
100
AcDbEntity
  8
0
 62
7
100
AcDbLine
 10
4.069832
 20
25.092202
 30
0.0
 11
4.080358
 21
25.021481
 31
0.0
  0
LINE
  5
3d1
100
AcDbEntity
  8
0
 62
7
100
AcDbLine
 10
4.080358
 20
25.021481
 30
0.0
 11
4.083943
 21
24.948445
 31
0.0
  0
LINE
  5
3d2
100
AcDbEntity
  8
0
 62
7
100
AcDbLine
 10
4.083943
 20
24.948445
 30
0.0
 11
4.085015
 21
24.880060
 31
0.0
  0
LINE
  5
3d3
100
AcDbEntity
  8
0
 62
7
100
AcDbLine
 10
4.085015
 20
24.880060
 30
0.0
 11
4.077940
 21
24.812791
 31
0.0
  0
LINE
  5
3d4
100
AcDbEntity
  8
0
 62
7
100
AcDbLine
 10
4.077940
 20
24.812791
 30
0.0
 11
4.063174
 21
24.747093
 31
0.0
  0
LINE
  5
3d5
100
AcDbEntity
  8
0
 62
7
100
AcDbLine
 10
4.063174
 20
24.747093
 30
0.0
 11
4.041175
 21
24.683420
 31
0.0
  0
LINE
  5
3d6
100
AcDbEntity
  8
0
 62
7
100
AcDbLine
 10
4.041175
 20
24.683420
 30
0.0
 11
4.012394
 21
24.622229
 31
0.0
  0
LINE
  5
3d7
100
AcDbEntity
  8
0
 62
7
100
AcDbLine
 10
4.012394
 20
24.622229
 30
0.0
 11
3.977289
 21
24.563972
 31
0.0
  0
LINE
  5
3d8
100
AcDbEntity
  8
0
 62
7
100
AcDbLine
 10
3.977289
 20
24.563972
 30
0.0
 11
3.936313
 21
24.509106
 31
0.0
  0
LINE
  5
3d9
100
AcDbEntity
  8
0
 62
7
100
AcDbLine
 10
3.936313
 20
24.509106
 30
0.0
 11
3.889921
 21
24.458084
 31
0.0
  0
LINE
  5
3da
100
AcDbEntity
  8
0
 62
7
100
AcDbLine
 10
3.889921
 20
24.458084
 30
0.0
 11
3.838569
 21
24.411361
 31
0.0
  0
LINE
  5
3db
100
AcDbEntity
  8
0
 62
7
100
AcDbLine
 10
3.838569
 20
24.411361
 30
0.0
 11
3.782710
 21
24.369393
 31
0.0
  0
LINE
  5
3dc
100
AcDbEntity
  8
0
 62
7
100
AcDbLine
 10
3.782710
 20
24.369393
 30
0.0
 11
3.722800
 21
24.332634
 31
0.0
  0
LINE
  5
3dd
100
AcDbEntity
  8
0
 62
7
100
AcDbLine
 10
3.722800
 20
24.332634
 30
0.0
 11
3.659293
 21
24.301538
 31
0.0
  0
LINE
  5
3de
100
AcDbEntity
  8
0
 62
7
100
AcDbLine
 10
3.659293
 20
24.301538
 30
0.0
 11
3.592644
 21
24.276562
 31
0.0
  0
LINE
  5
3df
100
AcDbEntity
  8
0
 62
7
100
AcDbLine
 10
3.592644
 20
24.276562
 30
0.0
 11
3.523308
 21
24.258158
 31
0.0
  0
LINE
  5
3e0
100
AcDbEntity
  8
0
 62
7
100
AcDbLine
 10
3.523308
 20
24.258158
 30
0.0
 11
3.451739
 21
24.246782
 31
0.0
  0
LINE
  5
3e1
100
AcDbEntity
  8
0
 62
7
100
AcDbLine
 10
3.451739
 20
24.246782
 30
0.0
 11
3.378387
 21
24.242889
 31
0.0
  0
LINE
  5
3e2
100
AcDbEntity
  8
0
 62
7
100
AcDbLine
 10
6.708609
 20
25.964445
 30
0.0
 11
6.640858
 21
25.967704
 31
0.0
  0
LINE
  5
3e3
100
AcDbEntity
  8
0
 62
7
100
AcDbLine
 10
6.640858
 20
25.967704
 30
0.0
 11
6.575381
 21
25.977289
 31
0.0
  0
LINE
  5
3e4
100
AcDbEntity
  8
0
 62
7
100
AcDbLine
 10
6.575381
 20
25.977289
 30
0.0
 11
6.512466
 21
25.992910
 31
0.0
  0
LINE
  5
3e5
100
AcDbEntity
  8
0
 62
7
100
AcDbLine
 10
6.512466
 20
25.992910
 30
0.0
 11
6.452404
 21
26.014277
 31
0.0
  0
LINE
  5
3e6
100
AcDbEntity
  8
0
 62
7
100
AcDbLine
 10
6.452404
 20
26.014277
 30
0.0
 11
6.395485
 21
26.041099
 31
0.0
  0
LINE
  5
3e7
100
AcDbEntity
  8
0
 62
7
100
AcDbLine
 10
6.395485
 20
26.041099
 30
0.0
 11
6.341996
 21
26.073090
 31
0.0
  0
LINE
  5
3e8
100
AcDbEntity
  8
0
 62
7
100
AcDbLine
 10
6.341996
 20
26.073090
 30
0.0
 11
6.292228
 21
26.109960
 31
0.0
  0
LINE
  5
3e9
100
AcDbEntity
  8
0
 62
7
100
AcDbLine
 10
6.292228
 20
26.109960
 30
0.0
 11
6.246470
 21
26.151417
 31
0.0
  0
LINE
  5
3ea
100
AcDbEntity
  8
0
 62
7
100
AcDbLine
 10
6.246470
 20
26.151417
 30
0.0
 11
6.205012
 21
26.197175
 31
0.0
  0
LINE
  5
3eb
100
AcDbEntity
  8
0
 62
7
100
AcDbLine
 10
6.205012
 20
26.197175
 30
0.0
 11
6.168143
 21
26.246943
 31
0.0
  0
LINE
  5
3ec
100
AcDbEntity
  8
0
 62
7
100
AcDbLine
 10
6.168143
 20
26.246943
 30
0.0
 11
6.136151
 21
26.300431
 31
0.0
  0
LINE
  5
3ed
100
AcDbEntity
  8
0
 62
7
100
AcDbLine
 10
6.136151
 20
26.300431
 30
0.0
 11
6.109328
 21
26.357351
 31
0.0
  0
LINE
  5
3ee
100
AcDbEntity
  8
0
 62
7
100
AcDbLine
 10
6.109328
 20
26.357351
 30
0.0
 11
6.087961
 21
26.417413
 31
0.0
  0
LINE
  5
3ef
100
AcDbEntity
  8
0
 62
7
100
AcDbLine
 10
6.087961
 20
26.417413
 30
0.0
 11
6.072342
 21
26.480327
 31
0.0
  0
LINE
  5
3f0
100
AcDbEntity
  8
0
 62
7
100
AcDbLine
 10
6.072342
 20
26.480327
 30
0.0
 11
6.062757
 21
26.545805
 31
0.0
  0
LINE
  5
3f1
100
AcDbEntity
  8
0
 62
7
100
AcDbLine
 10
6.062757
 20
26.545805
 30
0.0
 11
6.059498
 21
26.613556
 31
0.0
  0
LINE
  5
3f2
100
AcDbEntity
  8
0
 62
7
100
AcDbLine
 10
6.059498
 20
26.613556
 30
0.0
 11
6.062758
 21
26.681307
 31
0.0
  0
LINE
  5
3f3
100
AcDbEntity
  8
0
 62
7
100
AcDbLine
 10
6.062758
 20
26.681307
 30
0.0
 11
6.072342
 21
26.746785
 31
0.0
  0
LINE
  5
3f4
100
AcDbEntity
  8
0
 62
7
100
AcDbLine
 10
6.072342
 20
26.746785
 30
0.0
 11
6.087963
 21
26.809699
 31
0.0
  0
LINE
  5
3f5
100
AcDbEntity
  8
0
 62
7
100
AcDbLine
 10
6.087963
 20
26.809699
 30
0.0
 11
6.109330
 21
26.869761
 31
0.0
  0
LINE
  5
3f6
100
AcDbEntity
  8
0
 62
7
100
AcDbLine
 10
6.109330
 20
26.869761
 30
0.0
 11
6.136153
 21
26.926681
 31
0.0
  0
LINE
  5
3f7
100
AcDbEntity
  8
0
 62
7
100
AcDbLine
 10
6.136153
 20
26.926681
 30
0.0
 11
6.168144
 21
26.980169
 31
0.0
  0
LINE
  5
3f8
100
AcDbEntity
  8
0
 62
7
100
AcDbLine
 10
6.168144
 20
26.980169
 30
0.0
 11
6.205013
 21
27.029937
 31
0.0
  0
LINE
  5
3f9
100
AcDbEntity
  8
0
 62
7
100
AcDbLine
 10
6.205013
 20
27.029937
 30
0.0
 11
6.246470
 21
27.075695
 31
0.0
  0
LINE
  5
3fa
100
AcDbEntity
  8
0
 62
7
100
AcDbLine
 10
6.246470
 20
27.075695
 30
0.0
 11
6.292228
 21
27.117153
 31
0.0
  0
LINE
  5
3fb
100
AcDbEntity
  8
0
 62
7
100
AcDbLine
 10
6.292228
 20
27.117153
 30
0.0
 11
6.341996
 21
27.154023
 31
0.0
  0
LINE
  5
3fc
100
AcDbEntity
  8
0
 62
7
100
AcDbLine
 10
6.341996
 20
27.154023
 30
0.0
 11
6.395485
 21
27.186014
 31
0.0
  0
LINE
  5
3fd
100
AcDbEntity
  8
0
 62
7
100
AcDbLine
 10
6.395485
 20
27.186014
 30
0.0
 11
6.452404
 21
27.212837
 31
0.0
  0
LINE
  5
3fe
100
AcDbEntity
  8
0
 62
7
100
AcDbLine
 10
6.452404
 20
27.212837
 30
0.0
 11
6.512466
 21
27.234204
 31
0.0
  0
LINE
  5
3ff
100
AcDbEntity
  8
0
 62
7
100
AcDbLine
 10
6.512466
 20
27.234204
 30
0.0
 11
6.575381
 21
27.249824
 31
0.0
  0
LINE
  5
400
100
AcDbEntity
  8
0
 62
7
100
AcDbLine
 10
6.575381
 20
27.249824
 30
0.0
 11
6.640858
 21
27.259408
 31
0.0
  0
LINE
  5
401
100
AcDbEntity
  8
0
 62
7
100
AcDbLine
 10
6.640858
 20
27.259408
 30
0.0
 11
6.708609
 21
27.262667
 31
0.0
  0
LINE
  5
402
100
AcDbEntity
  8
0
 62
7
100
AcDbLine
 10
6.708609
 20
27.262667
 30
0.0
 11
6.776360
 21
27.259408
 31
0.0
  0
LINE
  5
403
100
AcDbEntity
  8
0
 62
7
100
AcDbLine
 10
6.776360
 20
27.259408
 30
0.0
 11
6.841838
 21
27.249824
 31
0.0
  0
LINE
  5
404
100
AcDbEntity
  8
0
 62
7
100
AcDbLine
 10
6.841838
 20
27.249824
 30
0.0
 11
6.904752
 21
27.234204
 31
0.0
  0
LINE
  5
405
100
AcDbEntity
  8
0
 62
7
100
AcDbLine
 10
6.904752
 20
27.234204
 30
0.0
 11
6.964814
 21
27.212837
 31
0.0
  0
LINE
  5
406
100
AcDbEntity
  8
0
 62
7
100
AcDbLine
 10
6.964814
 20
27.212837
 30
0.0
 11
7.021734
 21
27.186014
 31
0.0
  0
LINE
  5
407
100
AcDbEntity
  8
0
 62
7
100
AcDbLine
 10
7.021734
 20
27.186014
 30
0.0
 11
7.075222
 21
27.154022
 31
0.0
  0
LINE
  5
408
100
AcDbEntity
  8
0
 62
7
100
AcDbLine
 10
7.075222
 20
27.154022
 30
0.0
 11
7.124990
 21
27.117153
 31
0.0
  0
LINE
  5
409
100
AcDbEntity
  8
0
 62
7
100
AcDbLine
 10
7.124990
 20
27.117153
 30
0.0
 11
7.170748
 21
27.075695
 31
0.0
  0
LINE
  5
40a
100
AcDbEntity
  8
0
 62
7
100
AcDbLine
 10
7.170748
 20
27.075695
 30
0.0
 11
7.212206
 21
27.029937
 31
0.0
  0
LINE
  5
40b
100
AcDbEntity
  8
0
 62
7
100
AcDbLine
 10
7.212206
 20
27.029937
 30
0.0
 11
7.249076
 21
26.980169
 31
0.0
  0
LINE
  5
40c
100
AcDbEntity
  8
0
 62
7
100
AcDbLine
 10
7.249076
 20
26.980169
 30
0.0
 11
7.281067
 21
26.926680
 31
0.0
  0
LINE
  5
40d
100
AcDbEntity
  8
0
 62
7
100
AcDbLine
 10
7.281067
 20
26.926680
 30
0.0
 11
7.307890
 21
26.869761
 31
0.0
  0
LINE
  5
40e
100
AcDbEntity
  8
0
 62
7
100
AcDbLine
 10
7.307890
 20
26.869761
 30
0.0
 11
7.329257
 21
26.809699
 31
0.0
  0
LINE
  5
40f
100
AcDbEntity
  8
0
 62
7
100
AcDbLine
 10
7.329257
 20
26.809699
 30
0.0
 11
7.344878
 21
26.746784
 31
0.0
  0
LINE
  5
410
100
AcDbEntity
  8
0
 62
7
100
AcDbLine
 10
7.344878
 20
26.746784
 30
0.0
 11
7.354462
 21
26.681307
 31
0.0
  0
LINE
  5
411
100
AcDbEntity
  8
0
 62
7
100
AcDbLine
 10
7.354462
 20
26.681307
 30
0.0
 11
7.357720
 21
26.613556
 31
0.0
  0
LINE
  5
412
100
AcDbEntity
  8
0
 62
7
100
AcDbLine
 10
7.357720
 20
26.613556
 30
0.0
 11
7.354461
 21
26.545805
 31
0.0
  0
LINE
  5
413
100
AcDbEntity
  8
0
 62
7
100
AcDbLine
 10
7.354461
 20
26.545805
 30
0.0
 11
7.344877
 21
26.480327
 31
0.0
  0
LINE
  5
414
100
AcDbEntity
  8
0
 62
7
100
AcDbLine
 10
7.344877
 20
26.480327
 30
0.0
 11
7.329256
 21
26.417413
 31
0.0
  0
LINE
  5
415
100
AcDbEntity
  8
0
 62
7
100
AcDbLine
 10
7.329256
 20
26.417413
 30
0.0
 11
7.307888
 21
26.357351
 31
0.0
  0
LINE
  5
416
100
AcDbEntity
  8
0
 62
7
100
AcDbLine
 10
7.307888
 20
26.357351
 30
0.0
 11
7.281066
 21
26.300431
 31
0.0
  0
LINE
  5
417
100
AcDbEntity
  8
0
 62
7
100
AcDbLine
 10
7.281066
 20
26.300431
 30
0.0
 11
7.249075
 21
26.246943
 31
0.0
  0
LINE
  5
418
100
AcDbEntity
  8
0
 62
7
100
AcDbLine
 10
7.249075
 20
26.246943
 30
0.0
 11
7.212205
 21
26.197175
 31
0.0
  0
LINE
  5
419
100
AcDbEntity
  8
0
 62
7
100
AcDbLine
 10
7.212205
 20
26.197175
 30
0.0
 11
7.170747
 21
26.151417
 31
0.0
  0
LINE
  5
41a
100
AcDbEntity
  8
0
 62
7
100
AcDbLine
 10
7.170747
 20
26.151417
 30
0.0
 11
7.124989
 21
26.109959
 31
0.0
  0
LINE
  5
41b
100
AcDbEntity
  8
0
 62
7
100
AcDbLine
 10
7.124989
 20
26.109959
 30
0.0
 11
7.075221
 21
26.073089
 31
0.0
  0
LINE
  5
41c
100
AcDbEntity
  8
0
 62
7
100
AcDbLine
 10
7.075221
 20
26.073089
 30
0.0
 11
7.021733
 21
26.041098
 31
0.0
  0
LINE
  5
41d
100
AcDbEntity
  8
0
 62
7
100
AcDbLine
 10
7.021733
 20
26.041098
 30
0.0
 11
6.964813
 21
26.014276
 31
0.0
  0
LINE
  5
41e
100
AcDbEntity
  8
0
 62
7
100
AcDbLine
 10
6.964813
 20
26.014276
 30
0.0
 11
6.904751
 21
25.992909
 31
0.0
  0
LINE
  5
41f
100
AcDbEntity
  8
0
 62
7
100
AcDbLine
 10
6.904751
 20
25.992909
 30
0.0
 11
6.841837
 21
25.977288
 31
0.0
  0
LINE
  5
420
100
AcDbEntity
  8
0
 62
7
100
AcDbLine
 10
6.841837
 20
25.977288
 30
0.0
 11
6.776359
 21
25.967703
 31
0.0
  0
LINE
  5
421
100
AcDbEntity
  8
0
 62
7
100
AcDbLine
 10
6.776359
 20
25.967703
 30
0.0
 11
6.708609
 21
25.964445
 31
0.0
  0
LINE
  5
422
100
AcDbEntity
  8
0
 62
7
100
AcDbLine
 10
10.264609
 20
24.807334
 30
0.0
 11
10.196541
 21
24.810909
 31
0.0
  0
LINE
  5
423
100
AcDbEntity
  8
0
 62
7
100
AcDbLine
 10
10.196541
 20
24.810909
 30
0.0
 11
10.130168
 21
24.821388
 31
0.0
  0
LINE
  5
424
100
AcDbEntity
  8
0
 62
7
100
AcDbLine
 10
10.130168
 20
24.821388
 30
0.0
 11
10.065862
 21
24.838401
 31
0.0
  0
LINE
  5
425
100
AcDbEntity
  8
0
 62
7
100
AcDbLine
 10
10.065862
 20
24.838401
 30
0.0
 11
10.003995
 21
24.861571
 31
0.0
  0
LINE
  5
426
100
AcDbEntity
  8
0
 62
7
100
AcDbLine
 10
10.003995
 20
24.861571
 30
0.0
 11
9.944939
 21
24.890533
 31
0.0
  0
LINE
  5
427
100
AcDbEntity
  8
0
 62
7
100
AcDbLine
 10
9.944939
 20
24.890533
 30
0.0
 11
9.889066
 21
24.924908
 31
0.0
  0
LINE
  5
428
100
AcDbEntity
  8
0
 62
7
100
AcDbLine
 10
9.889066
 20
24.924908
 30
0.0
 11
9.836749
 21
24.964327
 31
0.0
  0
LINE
  5
429
100
AcDbEntity
  8
0
 62
7
100
AcDbLine
 10
9.836749
 20
24.964327
 30
0.0
 11
9.788359
 21
25.008417
 31
0.0
  0
LINE
  5
42a
100
AcDbEntity
  8
0
 62
7
100
AcDbLine
 10
9.788359
 20
25.008417
 30
0.0
 11
9.744269
 21
25.056807
 31
0.0
  0
LINE
  5
42b
100
AcDbEntity
  8
0
 62
7
100
AcDbLine
 10
9.744269
 20
25.056807
 30
0.0
 11
9.704850
 21
25.109124
 31
0.0
  0
LINE
  5
42c
100
AcDbEntity
  8
0
 62
7
100
AcDbLine
 10
9.704850
 20
25.109124
 30
0.0
 11
9.670475
 21
25.164997
 31
0.0
  0
LINE
  5
42d
100
AcDbEntity
  8
0
 62
7
100
AcDbLine
 10
9.670475
 20
25.164997
 30
0.0
 11
9.641516
 21
25.224052
 31
0.0
  0
LINE
  5
42e
100
AcDbEntity
  8
0
 62
7
100
AcDbLine
 10
9.641516
 20
25.224052
 30
0.0
 11
9.618345
 21
25.285919
 31
0.0
  0
LINE
  5
42f
100
AcDbEntity
  8
0
 62
7
100
AcDbLine
 10
9.618345
 20
25.285919
 30
0.0
 11
9.601333
 21
25.350226
 31
0.0
  0
LINE
  5
430
100
AcDbEntity
  8
0
 62
7
100
AcDbLine
 10
9.601333
 20
25.350226
 30
0.0
 11
9.590854
 21
25.416599
 31
0.0
  0
LINE
  5
431
100
AcDbEntity
  8
0
 62
7
100
AcDbLine
 10
9.590854
 20
25.416599
 30
0.0
 11
9.587276
 21
25.484667
 31
0.0
  0
LINE
  5
432
100
AcDbEntity
  8
0
 62
7
100
AcDbLine
 10
9.587276
 20
25.484667
 30
0.0
 11
9.590852
 21
25.552735
 31
0.0
  0
LINE
  5
433
100
AcDbEntity
  8
0
 62
7
100
AcDbLine
 10
9.590852
 20
25.552735
 30
0.0
 11
9.601331
 21
25.619108
 31
0.0
  0
LINE
  5
434
100
AcDbEntity
  8
0
 62
7
100
AcDbLine
 10
9.601331
 20
25.619108
 30
0.0
 11
9.618343
 21
25.683415
 31
0.0
  0
LINE
  5
435
100
AcDbEntity
  8
0
 62
7
100
AcDbLine
 10
9.618343
 20
25.683415
 30
0.0
 11
9.641513
 21
25.745282
 31
0.0
  0
LINE
  5
436
100
AcDbEntity
  8
0
 62
7
100
AcDbLine
 10
9.641513
 20
25.745282
 30
0.0
 11
9.670473
 21
25.804337
 31
0.0
  0
LINE
  5
437
100
AcDbEntity
  8
0
 62
7
100
AcDbLine
 10
9.670473
 20
25.804337
 30
0.0
 11
9.704848
 21
25.860210
 31
0.0
  0
LINE
  5
438
100
AcDbEntity
  8
0
 62
7
100
AcDbLine
 10
9.704848
 20
25.860210
 30
0.0
 11
9.744267
 21
25.912527
 31
0.0
  0
LINE
  5
439
100
AcDbEntity
  8
0
 62
7
100
AcDbLine
 10
9.744267
 20
25.912527
 30
0.0
 11
9.788357
 21
25.960917
 31
0.0
  0
LINE
  5
43a
100
AcDbEntity
  8
0
 62
7
100
AcDbLine
 10
9.788357
 20
25.960917
 30
0.0
 11
9.836747
 21
26.005007
 31
0.0
  0
LINE
  5
43b
100
AcDbEntity
  8
0
 62
7
100
AcDbLine
 10
9.836747
 20
26.005007
 30
0.0
 11
9.889064
 21
26.044426
 31
0.0
  0
LINE
  5
43c
100
AcDbEntity
  8
0
 62
7
100
AcDbLine
 10
9.889064
 20
26.044426
 30
0.0
 11
9.944937
 21
26.078801
 31
0.0
  0
LINE
  5
43d
100
AcDbEntity
  8
0
 62
7
100
AcDbLine
 10
9.944937
 20
26.078801
 30
0.0
 11
10.003993
 21
26.107761
 31
0.0
  0
LINE
  5
43e
100
AcDbEntity
  8
0
 62
7
100
AcDbLine
 10
10.003993
 20
26.107761
 30
0.0
 11
10.065859
 21
26.130931
 31
0.0
  0
LINE
  5
43f
100
AcDbEntity
  8
0
 62
7
100
AcDbLine
 10
10.065859
 20
26.130931
 30
0.0
 11
10.130166
 21
26.147944
 31
0.0
  0
LINE
  5
440
100
AcDbEntity
  8
0
 62
7
100
AcDbLine
 10
10.130166
 20
26.147944
 30
0.0
 11
10.196539
 21
26.158423
 31
0.0
  0
LINE
  5
441
100
AcDbEntity
  8
0
 62
7
100
AcDbLine
 10
10.196539
 20
26.158423
 30
0.0
 11
10.264609
 21
26.162000
 31
0.0
  0
LINE
  5
442
100
AcDbEntity
  8
0
 62
7
100
AcDbLine
 10
10.264609
 20
26.162000
 30
0.0
 11
10.332678
 21
26.158425
 31
0.0
  0
LINE
  5
443
100
AcDbEntity
  8
0
 62
7
100
AcDbLine
 10
10.332678
 20
26.158425
 30
0.0
 11
10.399051
 21
26.147946
 31
0.0
  0
LINE
  5
444
100
AcDbEntity
  8
0
 62
7
100
AcDbLine
 10
10.399051
 20
26.147946
 30
0.0
 11
10.463357
 21
26.130933
 31
0.0
  0
LINE
  5
445
100
AcDbEntity
  8
0
 62
7
100
AcDbLine
 10
10.463357
 20
26.130933
 30
0.0
 11
10.525224
 21
26.107763
 31
0.0
  0
LINE
  5
446
100
AcDbEntity
  8
0
 62
7
100
AcDbLine
 10
10.525224
 20
26.107763
 30
0.0
 11
10.584280
 21
26.078803
 31
0.0
  0
LINE
  5
447
100
AcDbEntity
  8
0
 62
7
100
AcDbLine
 10
10.584280
 20
26.078803
 30
0.0
 11
10.640152
 21
26.044428
 31
0.0
  0
LINE
  5
448
100
AcDbEntity
  8
0
 62
7
100
AcDbLine
 10
10.640152
 20
26.044428
 30
0.0
 11
10.692470
 21
26.005009
 31
0.0
  0
LINE
  5
449
100
AcDbEntity
  8
0
 62
7
100
AcDbLine
 10
10.692470
 20
26.005009
 30
0.0
 11
10.740859
 21
25.960919
 31
0.0
  0
LINE
  5
44a
100
AcDbEntity
  8
0
 62
7
100
AcDbLine
 10
10.740859
 20
25.960919
 30
0.0
 11
10.784950
 21
25.912529
 31
0.0
  0
LINE
  5
44b
100
AcDbEntity
  8
0
 62
7
100
AcDbLine
 10
10.784950
 20
25.912529
 30
0.0
 11
10.824368
 21
25.860212
 31
0.0
  0
LINE
  5
44c
100
AcDbEntity
  8
0
 62
7
100
AcDbLine
 10
10.824368
 20
25.860212
 30
0.0
 11
10.858744
 21
25.804339
 31
0.0
  0
LINE
  5
44d
100
AcDbEntity
  8
0
 62
7
100
AcDbLine
 10
10.858744
 20
25.804339
 30
0.0
 11
10.887703
 21
25.745284
 31
0.0
  0
LINE
  5
44e
100
AcDbEntity
  8
0
 62
7
100
AcDbLine
 10
10.887703
 20
25.745284
 30
0.0
 11
10.910873
 21
25.683417
 31
0.0
  0
LINE
  5
44f
100
AcDbEntity
  8
0
 62
7
100
AcDbLine
 10
10.910873
 20
25.683417
 30
0.0
 11
10.927886
 21
25.619110
 31
0.0
  0
LINE
  5
450
100
AcDbEntity
  8
0
 62
7
100
AcDbLine
 10
10.927886
 20
25.619110
 30
0.0
 11
10.938365
 21
25.552737
 31
0.0
  0
LINE
  5
451
100
AcDbEntity
  8
0
 62
7
100
AcDbLine
 10
10.938365
 20
25.552737
 30
0.0
 11
10.941943
 21
25.484667
 31
0.0
  0
LINE
  5
452
100
AcDbEntity
  8
0
 62
7
100
AcDbLine
 10
10.941943
 20
25.484667
 30
0.0
 11
10.938367
 21
25.416599
 31
0.0
  0
LINE
  5
453
100
AcDbEntity
  8
0
 62
7
100
AcDbLine
 10
10.938367
 20
25.416599
 30
0.0
 11
10.927888
 21
25.350226
 31
0.0
  0
LINE
  5
454
100
AcDbEntity
  8
0
 62
7
100
AcDbLine
 10
10.927888
 20
25.350226
 30
0.0
 11
10.910876
 21
25.285919
 31
0.0
  0
LINE
  5
455
100
AcDbEntity
  8
0
 62
7
100
AcDbLine
 10
10.910876
 20
25.285919
 30
0.0
 11
10.887705
 21
25.224052
 31
0.0
  0
LINE
  5
456
100
AcDbEntity
  8
0
 62
7
100
AcDbLine
 10
10.887705
 20
25.224052
 30
0.0
 11
10.858746
 21
25.164997
 31
0.0
  0
LINE
  5
457
100
AcDbEntity
  8
0
 62
7
100
AcDbLine
 10
10.858746
 20
25.164997
 30
0.0
 11
10.824371
 21
25.109124
 31
0.0
  0
LINE
  5
458
100
AcDbEntity
  8
0
 62
7
100
AcDbLine
 10
10.824371
 20
25.109124
 30
0.0
 11
10.784952
 21
25.056807
 31
0.0
  0
LINE
  5
459
100
AcDbEntity
  8
0
 62
7
100
AcDbLine
 10
10.784952
 20
25.056807
 30
0.0
 11
10.740862
 21
25.008417
 31
0.0
  0
LINE
  5
45a
100
AcDbEntity
  8
0
 62
7
100
AcDbLine
 10
10.740862
 20
25.008417
 30
0.0
 11
10.692472
 21
24.964327
 31
0.0
  0
LINE
  5
45b
100
AcDbEntity
  8
0
 62
7
100
AcDbLine
 10
10.692472
 20
24.964327
 30
0.0
 11
10.640155
 21
24.924908
 31
0.0
  0
LINE
  5
45c
100
AcDbEntity
  8
0
 62
7
100
AcDbLine
 10
10.640155
 20
24.924908
 30
0.0
 11
10.584282
 21
24.890533
 31
0.0
  0
LINE
  5
45d
100
AcDbEntity
  8
0
 62
7
100
AcDbLine
 10
10.584282
 20
24.890533
 30
0.0
 11
10.525226
 21
24.861573
 31
0.0
  0
LINE
  5
45e
100
AcDbEntity
  8
0
 62
7
100
AcDbLine
 10
10.525226
 20
24.861573
 30
0.0
 11
10.463359
 21
24.838400
 31
0.0
  0
LINE
  5
45f
100
AcDbEntity
  8
0
 62
7
100
AcDbLine
 10
10.463359
 20
24.838400
 30
0.0
 11
10.399053
 21
24.821388
 31
0.0
  0
LINE
  5
460
100
AcDbEntity
  8
0
 62
7
100
AcDbLine
 10
10.399053
 20
24.821388
 30
0.0
 11
10.332680
 21
24.810909
 31
0.0
  0
LINE
  5
461
100
AcDbEntity
  8
0
 62
7
100
AcDbLine
 10
10.332680
 20
24.810909
 30
0.0
 11
10.264609
 21
24.807334
 31
0.0
  0
ENDSEC
  0
SECTION
  2
OBJECTS
  0
DICTIONARY
  5
C
330
0
100
AcDbDictionary
  3
ACAD_GROUP
350
D
  3
ACAD_MLINESTYLE
350
17
  0
DICTIONARY
  5
D
330
C
100
AcDbDictionary
  0
DICTIONARY
  5
1A
330
C
100
AcDbDictionary
  0
DICTIONARY
  5
17
330
C
100
AcDbDictionary
  3
STANDARD
350
18
  0
DICTIONARY
  5
19
330
C
100
AcDbDictionary
  0
ENDSEC
  0
EOF
