<?xml version="1.0" encoding="UTF-8" standalone="no"?>
<svg
   xmlns:dc="http://purl.org/dc/elements/1.1/"
   xmlns:cc="http://creativecommons.org/ns#"
   xmlns:rdf="http://www.w3.org/1999/02/22-rdf-syntax-ns#"
   xmlns:svg="http://www.w3.org/2000/svg"
   xmlns="http://www.w3.org/2000/svg"
   xmlns:sodipodi="http://sodipodi.sourceforge.net/DTD/sodipodi-0.dtd"
   xmlns:inkscape="http://www.inkscape.org/namespaces/inkscape"
   version="1.1"
   x="0px"
   y="0px"
   viewBox="0 0 89.325 64.740229"
   enable-background="new 0 0 100 100"
   xml:space="preserve"
   id="svg3032"
   inkscape:version="0.48.4 r9939"
   width="100%"
   height="100%"
   sodipodi:docname="noun_113880_cc.svg"><metadata
     id="metadata3058"><rdf:RDF><cc:Work
         rdf:about=""><dc:format>image/svg+xml</dc:format><dc:type
           rdf:resource="http://purl.org/dc/dcmitype/StillImage" /><dc:title></dc:title></cc:Work></rdf:RDF></metadata><defs
     id="defs3056" /><sodipodi:namedview
     pagecolor="#ffffff"
     bordercolor="#666666"
     borderopacity="1"
     objecttolerance="10"
     gridtolerance="10"
     guidetolerance="10"
     inkscape:pageopacity="0"
     inkscape:pageshadow="2"
     inkscape:window-width="1012"
     inkscape:window-height="899"
     id="namedview3054"
     showgrid="false"
     fit-margin-top="0"
     fit-margin-left="0"
     fit-margin-right="0"
     fit-margin-bottom="0"
     inkscape:zoom="5.064"
     inkscape:cx="44.662"
     inkscape:cy="23.035"
     inkscape:window-x="1478"
     inkscape:window-y="439"
     inkscape:window-maximized="0"
     inkscape:current-layer="svg3032" /><path
     d="m 9.616,0.49022876 0.210916,-0.0855137 0.214912,-0.0779082 0.218779,-0.0701035 0.222518,-0.0620996 0.226127,-0.0538965 L 10.938859,0.09521313 11.171818,0.05832056 11.408,0.03022876 12.033163,2.4414746e-5 12.64641,0.03281275 l 0.597972,0.09300805 0.579337,0.15045484 0.55734,0.20512867 0.531984,0.25702954 0.503267,0.30615745 0.47119,0.3525125 0.435752,0.3960945 0.396955,0.4369035 0.354796,0.4749397 0.309278,0.5102029 0.260399,0.5426931 0.20816,0.5724104 0.15256,0.5993548 0.0936,0.6235261 -9.3e-4,1.2475586 -0.240132,1.1858477 -0.457352,1.0970195 -0.652586,0.9810744 -0.825836,0.838012 -0.977101,0.667832 -1.106383,0.470535 -1.21368,0.246121 -0.791664,0.02726 -0.770711,-0.0734 L 10.319664,12.072793 9.61125,11.815354 8.9441797,11.474524 8.32525,11.056057 7.7612578,10.565708 7.259,10.009229 6.5992363,10.6682 5.8872656,11.464057 5.1138184,12.230594 4.269625,12.801604 3.345416,13.010879 2.3319219,12.692213 1.219873,11.679399 0,9.8062288 1.4398496,10.48411 2.5756094,10.086338 3.5253457,8.8875433 4.407125,7.1623539 5.3390137,5.1853988 6.4390781,3.2313069 7.8253848,1.5747073 z"
     id="path3034"
     inkscape:connector-curvature="0"
     style="fill:none;stroke:#000000;stroke-opacity:1"
     sodipodi:nodetypes="ccccccccccccccccccccccccccccccccccccccccccccccccccccccccc" /><path
     transform="translate(-5.338,-20.794771)"
     style="fill:none;stroke:#000000;stroke-opacity:1"
     d="m 93.663002,26.945 -0.119644,1.195706 -0.343143,1.113685 -0.542962,1.007806 -0.719099,0.878067 -0.871556,0.724473 -1.000331,0.547018 -1.105426,0.345708 L 87.774002,32.878 86.587163,32.757463 85.481737,32.411755 84.481406,31.864737 83.60985,31.140264 82.890751,30.262197 82.347789,29.254391 82.004646,28.140706 81.885002,26.945 l 0.119644,-1.195707 0.343143,-1.113685 0.542962,-1.007805 0.719099,-0.878068 0.871556,-0.724472 1.000331,-0.547019 1.105426,-0.345707 1.186839,-0.120537 1.186839,0.120537 1.105426,0.345707 1.000331,0.547019 0.871556,0.724472 0.719099,0.878068 0.542962,1.007805 0.343143,1.113685 z"
     id="ellipse3036"
     inkscape:connector-curvature="0"
     sodipodi:nodetypes="ccccccccccccccccccccccccccccccccc" /><path
     transform="translate(-5.338,-20.794771)"
     style="fill:none;stroke:#000000;stroke-opacity:1"
     d="m 57.628,38.166 5.508,-6.871 1.628,3.86 z"
     id="polygon3038" /><path
     transform="translate(-5.338,-20.794771)"
     style="fill:none;stroke:#000000;stroke-opacity:1"
     d="m 77.016,46.519 7.324,-10.985 10.294,-0.283 0.029,31.274 -21.414,1 -0.886,18.01 -5.475,0 -0.846,-24.097 17.56,-3.967 0.902,-10.612 -3.544,4.449 -17.804,0 0,-0.022 -0.054,0.022 -5.211,-12.35 10.122,-4.272 5.253,12.425 z"
     id="polygon3040" /><path
     transform="translate(-5.338,-20.794771)"
     style="fill:none;stroke:#000000;stroke-opacity:1"
     d="m 75.777,69.525 0,16.01 18.886,0 0,-16.849 z"
     id="polygon3042" /><path
     transform="translate(-5.338,-20.794771)"
     style="fill:none;stroke:#000000;stroke-opacity:1"
     d="m 49.029,38.166 -5.508,-6.871 -1.628,3.86 z"
     id="polygon3044" /><path
     transform="translate(-5.338,-20.794771)"
     style="fill:none;stroke:#000000;stroke-opacity:1"
     d="m 29.641,46.519 -7.324,-10.985 -10.294,-0.283 -0.029,31.274 21.414,1 0.886,18.01 5.475,0 0.499,-16.012 1.519,0 -0.896,-8.028 -17.836,-4.024 -0.902,-10.612 3.545,4.449 17.803,0 0,-0.022 0.054,0.022 5.211,-12.35 -10.122,-4.272 -5.253,12.425 z"
     id="polygon3046" /><path
     transform="translate(-5.338,-20.794771)"
     style="fill:none;stroke:#000000;stroke-opacity:1"
     d="m 30.88,69.525 0,16.01 -18.886,0 0,-16.849 z"
     id="polygon3048" /></svg>