<?xml version="1.0" encoding="UTF-8" standalone="no"?>
<!-- Created with Inkscape (http://www.inkscape.org/) -->

<svg
   xmlns:dc="http://purl.org/dc/elements/1.1/"
   xmlns:cc="http://creativecommons.org/ns#"
   xmlns:rdf="http://www.w3.org/1999/02/22-rdf-syntax-ns#"
   xmlns:svg="http://www.w3.org/2000/svg"
   xmlns="http://www.w3.org/2000/svg"
   version="1.1"
   width="100%"
   height="100%"
   viewBox="0 0 89.987311 88.929747"
   id="svg3049"
   xml:space="preserve"><metadata
     id="metadata3061"><rdf:RDF><cc:Work
         rdf:about=""><dc:format>image/svg+xml</dc:format><dc:type
           rdf:resource="http://purl.org/dc/dcmitype/StillImage" /><dc:title></dc:title></cc:Work></rdf:RDF></metadata><defs
     id="defs3059" /><path
     d="M 58.898499,-1.4816283e-6 57.402814,0.03555712 l -1.493039,0.10666617 -1.487566,0.17775929 -1.47927,0.24883794 -1.468147,0.31990214 -1.4542,0.39095184 -1.437427,0.4619872 -1.417829,0.533008 -1.395407,0.6040143 -1.370158,0.6750063 -1.342084,0.7459837 -1.311186,0.8169468 -1.277462,0.8878952 -1.240912,0.9588294 -1.201539,1.029749 -1.159339,1.1006541 -2.130191,2.3594605 -1.846166,2.516606 -1.56214,2.651294 -1.278115,2.763519 -0.994089,2.853286 -0.710064,2.920592 -0.426038,2.965437 -0.142013,2.987823 0.142013,2.987748 0.426038,2.965213 0.710064,2.920218 0.994089,2.852763 1.278115,2.762846 1.56214,2.650471 1.846166,2.515635 2.130191,2.358339 2.35939,2.131312 2.516415,1.847137 2.651008,1.562961 2.76317,1.278786 2.852898,0.994611 2.920194,0.710436 2.965059,0.426261 2.987491,0.142086 2.987491,-0.142088 2.965059,-0.426263 2.920195,-0.710437 2.852898,-0.994612 2.763169,-1.278787 2.651008,-1.56296 2.516415,-1.847134 2.35939,-2.131309 2.130193,-2.358337 1.846167,-2.515633 1.562141,-2.65047 1.278115,-2.762846 0.994089,-2.852763 0.710064,-2.920218 0.426038,-2.965213 0.142012,-2.987748 -0.142014,-2.987824 -0.426038,-2.965438 -0.710065,-2.920592 -0.99409,-2.853287 -1.278115,-2.76352 -1.56214,-2.651294 L 83.02869,11.453209 80.898499,9.0937485 79.740492,7.9930944 78.540534,6.9633454 77.301414,6.004516 76.025923,5.1166208 74.71685,4.299674 73.376985,3.5536903 72.009117,2.878684 70.616037,2.2746697 69.200534,1.7416617 67.765397,1.2796745 66.313417,0.88872266 64.847382,0.56882052 63.370084,0.31998258 61.88431,0.14222329 60.392852,0.03555712 z m 0,8.5624999816283 c 0.719133,0 1.438542,0.034453 2.155543,0.1033775 0.717001,0.068925 1.431594,0.1723221 2.141093,0.3102114 0.709499,0.1378893 1.413905,0.3102706 2.110532,0.5171637 0.696626,0.2068932 1.385474,0.4482981 2.063858,0.7242349 0.678384,0.275936 1.346304,0.586404 2.001074,0.931423 0.654771,0.345019 1.296392,0.72459 1.922178,1.138731 0.625787,0.414142 1.235739,0.862854 1.827171,1.346158 0.591432,0.483303 1.164344,1.001197 1.716051,1.553701 1.104211,1.104211 2.069908,2.291902 2.897213,3.542202 0.827304,1.2503 1.516216,2.56321 2.066858,3.917859 0.550642,1.354649 0.963013,2.751038 1.237236,4.168297 0.274222,1.417259 0.410297,2.855388 0.408344,4.293516 -0.002,1.438129 -0.141931,2.876258 -0.419815,4.293517 -0.277884,1.417258 -0.693672,2.813647 -1.247243,4.168297 -0.553571,1.354649 -1.244925,2.667559 -2.073939,3.917859 -0.829015,1.250301 -1.79569,2.437991 -2.899904,3.542203 -1.104213,1.10421 -2.291904,2.070394 -3.542205,2.898552 -1.250301,0.828157 -2.563211,1.518289 -3.917861,2.070394 -1.35465,0.552106 -2.751039,0.966185 -4.168297,1.242238 -1.417259,0.276053 -2.855388,0.414079 -4.293516,0.41408 -1.438129,0 -2.876257,-0.138026 -4.293515,-0.414078 -1.417259,-0.276053 -2.813647,-0.690132 -4.168296,-1.242237 -1.354649,-0.552105 -2.667559,-1.242237 -3.917858,-2.070395 -1.2503,-0.828158 -2.437991,-1.794343 -3.542202,-2.898554 -1.104211,-1.104211 -2.070396,-2.291902 -2.898554,-3.542202 -0.828158,-1.250301 -1.518289,-2.56321 -2.070394,-3.91786 -0.552105,-1.354649 -0.966183,-2.751038 -1.242235,-4.168297 -0.276052,-1.417259 -0.414078,-2.855388 -0.414077,-4.293516 1e-6,-1.438129 0.138028,-2.876258 0.414081,-4.293517 0.276053,-1.417259 0.690132,-2.813648 1.242237,-4.168297 0.552105,-1.354649 1.242236,-2.667559 2.070393,-3.917859 0.828157,-1.2503 1.79434,-2.437991 2.898549,-3.542202 0.552504,-0.552505 1.125914,-1.070399 1.71762,-1.553703 0.591705,-0.483304 1.201707,-0.932016 1.827394,-1.346158 0.625686,-0.414141 1.267058,-0.793712 1.921505,-1.138731 0.654447,-0.345019 1.321968,-0.655487 1.999953,-0.931423 0.677986,-0.2759366 1.366435,-0.5173413 2.062738,-0.7242342 0.696303,-0.2068929 1.40046,-0.3792741 2.10986,-0.5171631 0.7094,-0.1378891 1.424042,-0.2412862 2.141317,-0.3102109 0.717276,-0.068925 1.437183,-0.1033773 2.157113,-0.1033773 z m -29.4375,38.9062505 -3.371094,3.371094 -3.371094,3.371094 -3.371093,3.371093 -3.371094,3.371094 -3.371094,3.371094 -3.3710936,3.371094 -3.3710938,3.371093 -3.3710938,3.371094 -1.0903589,1.333394 -0.77882776,1.4762 L 0.15576553,78.818495 0,80.437499 l 0.15576555,1.619005 0.46729665,1.571402 0.7788278,1.476199 1.0903588,1.333394 1.3333942,1.090359 1.4761992,0.778828 1.5714024,0.467296 1.6190042,0.155766 1.6190042,-0.155766 1.571402,-0.467296 1.4762,-0.778828 1.333394,-1.090359 3.339844,-3.339844 3.339843,-3.339843 3.339844,-3.339844 3.339844,-3.339844 3.339844,-3.339844 3.339843,-3.339843 3.339844,-3.339844 3.339844,-3.339844 -0.273384,-0.169287 -0.270321,-0.17282 -0.267682,-0.176073 -0.265464,-0.179045 -0.263671,-0.181735 -0.2623,-0.184145 -0.261351,-0.186274 -0.260827,-0.188121 -1.481174,-1.089306 -1.40489,-1.174178 -1.327028,-1.254078 -1.247585,-1.329008 -1.166562,-1.398969 -1.083962,-1.463958 -0.99978,-1.523977 z"
     id="path3051"
     style="fill:none;stroke:#000000;stroke-opacity:1" /></svg>