<svg xmlns="http://www.w3.org/2000/svg" xmlns:xlink="http://www.w3.org/1999/xlink" version="1.1" x="0px" y="0px" viewBox="0 0 90 112.5" enable-background="new 0 0 90 90" xml:space="preserve"><g><path fill="#000000" d="M45,3.75c-22.781,0-41.25,18.469-41.25,41.252C3.75,67.783,22.219,86.25,45,86.25   c22.779,0,41.25-18.471,41.25-41.248C86.25,22.222,67.779,3.75,45,3.75z M45,75.383c-16.777,0-30.383-13.601-30.383-30.381   S28.22,14.617,45,14.617s30.383,13.604,30.383,30.385S61.777,75.383,45,75.383z"/><path fill="#000000" d="M35.268,30.96H51.24v-6.389l18.365,10.98L51.24,46.132v-5.989H36.467c-4.193,0-3.594,3.793-3.594,3.793   v19.365h-8.984V42.339C23.889,31.159,35.268,30.96,35.268,30.96z"/></g><text x="0" y="105" fill="#000000" font-size="5px" font-weight="bold" font-family="'Helvetica Neue', Helvetica, Arial-Unicode, Arial, Sans-serif">Created by Jonathan Li</text><text x="0" y="110" fill="#000000" font-size="5px" font-weight="bold" font-family="'Helvetica Neue', Helvetica, Arial-Unicode, Arial, Sans-serif">from the Noun Project</text></svg>