<?xml version="1.0" encoding="UTF-8" standalone="no"?>
<!-- Created with Inkscape (http://www.inkscape.org/) -->

<svg
   xmlns:dc="http://purl.org/dc/elements/1.1/"
   xmlns:cc="http://creativecommons.org/ns#"
   xmlns:rdf="http://www.w3.org/1999/02/22-rdf-syntax-ns#"
   xmlns:svg="http://www.w3.org/2000/svg"
   xmlns="http://www.w3.org/2000/svg"
   version="1.1"
   width="100%"
   height="100%"
   viewBox="0 0 75.559998 88.356998"
   id="svg5741"
   xml:space="preserve"
   style="overflow:visible">
  <g
             id="g5761"
             style="fill:none;stroke:#000000;stroke-opacity:1"><path
               d="m 37.648,10.777 -1.42958,0.31873 -0.840768,0.822548 -0.315009,1.117689 0.147699,1.204152 0.547355,1.08194 0.883957,0.75105 1.15751,0.211483 1.368008,-0.53676 0.679094,-0.622232 0.388568,-0.760185 0.119163,-0.829036 -0.12912,-0.828786 -0.356281,-0.759432 -0.562322,-0.620978 -0.747239,-0.413421 z m 0,-10.777 -4.044456,0.32941622 -3.865579,1.11733718 -3.589101,1.816864 -3.215022,2.4279967 -2.743343,2.9507353 -2.174063,3.3850796 -1.507183,3.73103 -0.742701,3.988587 -0.1993,1.005936 -0.05751,0.90497 0.09536,0.781872 0.259315,0.636638 0.434343,0.469271 0.620449,0.279769 0.817634,0.06813 1.025896,-0.165636 5.099157,0 5.099156,0 5.099157,0 5.099156,0 5.099157,0 5.099157,0 5.099156,0 5.099157,0 0.003,-4.067823 -0.806913,-3.94977 -1.533993,-3.7272 L 55.039843,8.5830749 52.300173,5.6145347 49.081902,3.1820938 45.467857,1.3902636 41.540862,0.34355553 41.058427,0.26289156 40.574318,0.19302992 40.088776,0.13395794 39.602042,0.08566296 39.114357,0.04813234 38.625961,0.02135341 38.137095,0.00531351 z m 4.328,16.98 -0.314048,0.482271 -0.439632,0.281476 -0.535057,0.127378 -0.600321,0.01998 -0.635425,-0.04072 -0.64037,-0.05472 -0.615154,-0.02203 -0.559778,0.05737 -0.556289,-0.05707 -0.611451,0.02203 -0.636531,0.05453 -0.631527,0.04044 -0.596441,-0.02023 -0.531271,-0.127506 -0.43602,-0.28137 L 33.326,16.98 l 0.0091,-0.909837 -0.002,-0.910938 -0.0076,-0.911497 -0.0078,-0.911518 -0.0026,-0.910997 0.0081,-0.909936 0.02409,-0.908335 0.04552,-0.906192 0.459684,-0.3145237 0.517383,-0.1772673 0.561,-0.072988 0.590533,-0.00169 0.605986,0.036637 0.607354,0.041983 0.594642,0.014352 0.567847,-0.046256 0.544629,0.052878 0.61723,-0.025871 0.648561,-0.053451 0.63862,-0.029862 0.587409,0.044896 0.494926,0.1708234 0.361173,0.3479196 0.186148,0.576185 0,0.839435 0,0.839435 0,0.839435 10e-7,0.839436 0,0.839435 1e-6,0.839435 10e-7,0.839435 z m 8.672,3.232 -1.429681,-0.318484 -0.840767,-0.822453 -0.314941,-1.1177 0.147796,-1.204222 0.547442,-1.082023 0.884001,-0.751099 1.157471,-0.211452 1.367851,0.536917 0.679335,0.612214 0.387166,0.758294 0.116905,0.832635 -0.131446,0.835236 -0.35789,0.766095 -0.562424,0.625215 -0.745051,0.412594 z m 8.996,7.637 -0.261905,-0.795082 -0.462256,-0.514432 -0.617798,-0.29106 -0.728532,-0.124964 -0.794458,-0.01615 -0.815574,0.03539 -0.791881,0.02965 -0.723381,-0.03336 -4.635527,0 -4.635527,0 -4.635527,0 -4.635526,0 -4.635527,0 -4.635527,0 -4.635527,0 -4.635527,0 -0.795519,0.261772 -0.514702,0.462327 -0.291193,0.618025 -0.124989,0.728868 -0.01609,0.794856 0.0355,0.815987 0.02978,0.792265 -0.03324,0.723685 7.92e-4,5.064652 7.99e-4,5.064652 8.03e-4,5.064652 8.06e-4,5.064652 8.06e-4,5.064652 8.03e-4,5.064651 7.99e-4,5.064652 7.92e-4,5.064652 0.432318,0.88652 0.389548,0.965722 0.391788,0.984177 0.439037,0.941885 0.531296,0.838847 0.668563,0.675062 0.850841,0.450532 1.078128,0.165255 1.496185,0 1.496185,0 1.496185,0 1.496186,0 1.496185,0 1.496185,0 1.496185,0 1.496185,0 -0.166876,1.33986 -0.445198,1.510583 -0.5651,1.593716 -0.52658,1.589255 -0.329641,1.497204 0.02572,1.31756 0.539498,1.050325 1.211698,0.695497 1.507749,-0.01667 1.5094,0.004 1.510223,0.01438 1.510219,0.01433 1.509388,0.0039 1.50773,-0.01691 1.505245,-0.04811 1.501933,-0.08969 0.605749,-1.137571 0.10825,-1.313696 -0.242345,-1.426021 -0.446036,-1.474546 -0.502823,-1.459271 -0.412708,-1.380195 -0.175689,-1.237321 0.208234,-1.030645 1.58171,-0.01671 1.58321,0.0039 1.583959,0.01423 1.583958,0.01422 1.583208,0.0039 1.581707,-0.01674 1.579457,-0.0477 1.576456,-0.08897 0.756837,-0.465933 0.604336,-0.597182 0.484846,-0.699354 0.398367,-0.772449 0.344901,-0.816469 0.324444,-0.831411 0.337,-0.817277 0.382566,-0.774066 -2.66e-4,-5.500597 6.6e-5,-5.500934 2.35e-4,-5.501106 2.4e-4,-5.501113 8e-5,-5.500957 -2.42e-4,-5.500637 -7.31e-4,-5.500152 -0.0014,-5.499504 6e-6,0 5e-6,0 6e-6,0 6e-6,0 5e-6,0 6e-6,0 5e-6,0 z m -10.827,13.197 -0.310709,0.500617 -0.4406,0.294211 -0.539441,0.135472 -0.607231,0.0244 -0.64397,-0.039 -0.649657,-0.05473 -0.624295,-0.02279 -0.567882,0.05681 -2.17583,-0.0098 -2.177015,0.0021 -2.177623,0.0081 -2.177651,0.0084 -2.177103,0.0029 -2.175978,-0.0083 -2.174273,-0.0254 -2.171992,-0.04825 -0.465676,-0.579437 -0.146283,-0.544665 0.119374,-0.487892 0.331295,-0.409115 0.489482,-0.308338 0.593932,-0.185556 0.644649,-0.04077 0.641629,0.126011 2.379358,0.0098 2.380535,-0.0021 2.381138,-0.0081 2.381166,-0.0084 2.380622,-0.0029 2.379503,0.0083 2.37781,0.02534 2.375544,0.04813 0.211333,0.115384 0.149944,0.152634 0.09883,0.182185 0.05799,0.204037 0.02743,0.218189 0.0071,0.224642 -0.0029,0.223396 z m 0,-5.311 -0.311074,0.50015 -0.440775,0.293908 -0.539469,0.135299 -0.607154,0.02433 -0.643831,-0.03901 -0.649501,-0.05471 -0.624163,-0.02277 -0.567818,0.0568 -2.17583,-0.0098 -2.177015,0.0021 -2.177621,0.0081 -2.177651,0.0084 -2.177103,0.0029 -2.175977,-0.0083 -2.174274,-0.0254 -2.171994,-0.04825 -0.465627,-0.579212 -0.146246,-0.544583 0.119398,-0.487912 0.331306,-0.409202 0.489476,-0.308449 0.593912,-0.185655 0.64461,-0.04082 0.641573,0.126054 2.379358,0.0098 2.38054,-0.0021 2.381145,-0.0081 2.381174,-0.0084 2.380627,-0.0029 2.379503,0.0083 2.377803,0.0254 2.375526,0.04824 0.211276,0.115584 0.149923,0.152785 0.09883,0.182297 0.05801,0.204123 0.02746,0.21826 0.0072,0.224709 -0.0029,0.22347 z m 0,-5.312 -0.311074,0.50015 -0.440775,0.293908 -0.539469,0.135299 -0.607154,0.02433 -0.643831,-0.03901 -0.649501,-0.05471 -0.624163,-0.02277 -0.567818,0.0568 -2.17583,-0.0098 -2.177015,0.0021 -2.177621,0.0081 -2.177651,0.0084 -2.177103,0.0029 -2.175977,-0.0083 -2.174274,-0.0254 -2.171994,-0.04824 -0.465618,-0.579286 -0.146302,-0.54474 0.119309,-0.488119 0.331215,-0.409422 0.489414,-0.308649 0.593909,-0.185803 0.644696,-0.04088 0.641779,0.126118 2.379358,0.0098 2.38054,-0.0021 2.381145,-0.0081 2.381174,-0.0084 2.380627,-0.0029 2.379503,0.0083 2.377803,0.0254 2.375526,0.04824 0.211385,0.11567 0.149963,0.152898 0.09882,0.182431 0.05797,0.204267 0.0274,0.218407 0.0071,0.22485 -0.0029,0.223599 z M 2.416,76.295 2.9580468,75.666056 3.4674101,75.095942 3.9226213,74.550446 4.3022119,73.995354 4.5847136,73.39645 4.7486578,72.719521 4.7725761,71.930354 4.635,70.994734 l 0,-5.393217 0,-5.393217 0,-5.393217 0,-5.393216 0,-5.393217 0,-5.393217 0,-5.393216 0,-5.393217 0.2625616,-0.795019 0.4627739,-0.514409 0.6182066,-0.291065 0.72886,-0.124989 0.7947338,-0.01618 0.8158281,0.03536 0.792143,0.02964 0.7236784,-0.03335 0.7969056,-0.09365 0.777278,0.0468 0.721437,0.185855 0.629383,0.323509 0.501119,0.459764 0.33664,0.59462 0.135951,0.728077 -0.100952,0.860135 -0.0023,7.132736 -0.0023,7.132736 -0.0023,7.132735 -0.0023,7.132736 -0.0023,7.132736 -0.0023,7.132735 -0.0023,7.132736 -0.0023,7.132736 -0.248154,0.89811 -0.473656,0.598926 -0.649829,0.357658 -0.776669,0.174305 -0.85418,0.04887 -0.8823598,-0.01865 -0.8612094,-0.02826 -0.7907282,0.02005 -0.8746337,-0.01674 -0.8770509,0.0046 -0.8782141,0.01482 -0.8781233,0.0138 -0.8767784,0.0016 L 2.8172345,88.353229 1.9469076,88.296748 1.0816875,88.194438 0.46718171,87.639315 0.14897964,86.997391 0.06396114,86.289014 0.14900608,85.534531 0.34099433,84.754292 0.57680574,83.968643 0.7933202,83.197934 0.92741755,82.462513 1.1134904,81.691574 1.2995632,80.920635 1.485636,80.149696 1.6717088,79.378757 1.8577816,78.607817 2.0438544,77.836878 2.2299272,77.065939 z m 70.727,0 -0.541791,-0.628946 -0.509138,-0.570151 -0.45502,-0.545553 -0.379437,-0.555148 -0.282388,-0.59894 -0.163875,-0.676928 -0.0239,-0.789111 0.137546,-0.935489 0,-5.393217 0,-5.393217 0,-5.393217 0,-5.393216 0,-5.393217 0,-5.393217 0,-5.393216 0,-5.393217 -0.262938,-0.794943 -0.463015,-0.514384 -0.618345,-0.291079 -0.728926,-0.125023 -0.79476,-0.01622 -0.815846,0.03533 -0.792183,0.02963 -0.723772,-0.03332 -0.796994,-0.09364 -0.777335,0.04678 -0.721466,0.185804 -0.629388,0.323455 -0.5011,0.459724 -0.336603,0.594614 -0.135896,0.728124 0.10102,0.860254 0.0023,7.132736 0.0023,7.132736 0.0023,7.132735 0.0023,7.132736 0.0023,7.132736 0.0023,7.132735 0.0023,7.132736 0.0023,7.132736 0.248401,0.89808 0.473842,0.598915 0.649967,0.35766 0.776773,0.174317 0.854262,0.04888 0.882433,-0.01864 0.861286,-0.02826 0.790821,0.02004 0.874632,-0.01669 0.877037,0.0046 0.878194,0.01477 0.878105,0.01375 0.876766,0.0016 0.87418,-0.02177 0.870347,-0.05628 0.865266,-0.101955 0.614538,-0.555003 0.318194,-0.641837 0.08498,-0.708317 -0.0851,-0.754438 L 75.218877,84.755217 74.983002,83.969605 74.766437,83.19894 74.63231,82.463579 74.446146,81.692507 74.259982,80.921434 74.073818,80.150362 73.887654,79.37929 73.701491,78.608217 73.515327,77.837145 73.329164,77.066072 z"
               id="path5763"
               style="fill:none;stroke:#000000;stroke-opacity:1" /></g>
</svg>
