<svg height='100px' width='100px'  fill="#000000" xmlns="http://www.w3.org/2000/svg" xmlns:xlink="http://www.w3.org/1999/xlink" version="1.1" x="0px" y="0px" viewBox="0 0 100 100" enable-background="new 0 0 100 100" xml:space="preserve"><path d="M83.709,40.741H71.672l-9.414-9.416c-4.223-4.221-11.365-3.324-14.363,1.951L31.16,16.542  c-8.585-8.584-21.469,4.303-12.887,12.887l16.732,16.732c-2.286,1.301-4.24,3.74-4.565,7.012  c-8.016,0.797-10.693,10.35-5.536,15.508l17.129,17.131c19.73,19.734,52.971,5.492,52.965-21.939L95,52.032  C95,45.808,89.934,40.741,83.709,40.741z M57.525,36.06l6.627,6.629c-1.348,0.914-2.477,2.121-3.322,3.516l-6.727-6.725  C51.836,37.212,55.256,33.792,57.525,36.06z M23.005,24.696c-2.309-2.309,1.112-5.732,3.422-3.422l23.356,23.35l-3.426,3.424  L23.005,24.696z M46.284,64.282l-8.492-8.49c-2.268-2.268,1.156-5.689,3.422-3.422l8.495,8.494  C51.959,63.114,48.555,66.55,46.284,64.282z M35.58,69.89l-5.943-5.943c-2.269-2.266,1.155-5.689,3.422-3.422l5.944,5.943  C41.271,68.737,37.848,72.157,35.58,69.89z M88.305,63.872c0,21.506-26.053,32.678-41.534,17.215  c-0.001-0.002-0.002-0.006-0.004-0.008l-4.98-4.98c1.603-0.912,3.165-2.424,4.021-4.695c9.197,2.268,14.99-8.918,8.635-15.271  l-3.352-3.354l3.424-3.422l4.678,4.674v13.814c0,1.842,1.486,3.334,3.324,3.346c1.131,2.75,2.789,5.277,4.906,7.393  c2.813,2.813,8.197-1.264,4.734-4.73c-0.811-0.811-1.504-1.719-2.119-2.676c5.686-0.152,10.264-4.701,10.264-10.281l0.002-6.955  c0-4.506-6.693-4.506-6.693,0l-0.002,6.953c0,1.988-1.73,3.605-3.861,3.607l-3.861-0.002V52.032c0-2.535,2.061-4.598,4.598-4.598  h13.227c2.535,0,4.598,2.063,4.598,4.598L88.305,63.872z"></path></svg>