<svg height='100px' width='100px'  fill="#000000" xmlns="http://www.w3.org/2000/svg" xmlns:xlink="http://www.w3.org/1999/xlink" version="1.1" x="0px" y="0px" viewBox="0 0 128 128" enable-background="new 0 0 128 128" xml:space="preserve"><g><path fill="#000000" d="M97,32.1c0-17-14.8-30.8-33-30.8c-18.2,0-33,13.8-33,30.8c0,0.4,0,0.8,0,1.2l33,7.2l33-7.2   C97,32.9,97,32.5,97,32.1z"></path><ellipse fill="#000000" cx="120.9" cy="74.7" rx="6.1" ry="12.9"></ellipse><ellipse fill="#000000" cx="7.1" cy="74.7" rx="6.1" ry="12.9"></ellipse><path fill="#000000" d="M7.1,56.7L7.1,56.7c6.5,0,11.2,7.6,11.2,18s-4.7,18-11.2,18h0v22.2l54.3,11.9V45.2L7.1,33.3V56.7z"></path><path fill="#000000" d="M109.7,74.7c0-10.4,4.7-18,11.2-18V33.3L66.6,45.2v81.5l54.3-11.9V92.6C114.4,92.6,109.7,85.1,109.7,74.7z"></path></g></svg>