<svg height='100px' width='100px'  fill="#000000" xmlns="http://www.w3.org/2000/svg" xmlns:xlink="http://www.w3.org/1999/xlink" version="1.1" x="0px" y="0px" viewBox="0 0 128 128" style="enable-background:new 0 0 128 128;" xml:space="preserve"><g><path d="M34,35c0,8.3,6.7,15,15,15s15-6.7,15-15s-6.7-15-15-15S34,26.7,34,35z M58,35c0,5-4,9-9,9s-9-4-9-9s4-9,9-9S58,30,58,35z"></path><path d="M90,90c0,8.3,6.7,15,15,15s15-6.7,15-15s-6.7-15-15-15S90,81.7,90,90z M114,90c0,5-4,9-9,9s-9-4-9-9s4-9,9-9S114,85,114,90   z"></path><path d="M127,117.7c0-4.9-4-8.7-9-8.7c0,0-0.1,0-0.1,0l-21-0.1L83.8,95.7C79.4,91.4,73.6,89,67.5,89H9.3l14.8-29.6   c2-3.9,6.8-5.5,10.7-3.6c1,0.5,1.8,1.1,2.5,1.9c0,0.1,0.1,0.1,0.1,0.2l27.2,27.2c1.2,1.2,3.1,1.2,4.2,0c1.2-1.2,1.2-3.1,0-4.2   L41.8,53.7c-1.2-1.4-2.6-2.5-4.2-3.3c-6.9-3.5-15.3-0.6-18.8,6.3l-17,33.9c-0.5,0.9-0.4,2,0.1,2.9S3.4,95,4.5,95h63   c4.5,0,8.8,1.8,12,5l14.1,14.1c0.6,0.6,1.3,0.9,2.1,0.9L118,115c0,0,0,0,0,0c1.7,0,3,1.1,3,2.7c0,1.7-1.4,3.3-3,3.3H93.3   c-0.2,0-0.3,0-0.5,0c0,0-0.1,0-0.1,0c-0.3-0.1-0.7-0.2-0.9-0.3c-0.3-0.2-0.6-0.4-0.8-0.7c-0.1-0.1-0.1-0.1-0.2-0.2l-9.9-9.9   c-2.5-2.5-5.7-3.8-9.2-3.8H26.3c-1.7,0-3,1.3-3,3s1.3,3,3,3h45.4c1.9,0,3.6,0.7,5,2l9.8,9.8c0.7,0.8,1.5,1.5,2.4,2   c0.8,0.5,1.8,0.8,2.7,1c0,0,0.1,0,0.1,0c0.6,0.1,1.1,0.2,1.6,0.2c0,0,0,0,0.1,0h24.8C123,127,127,122.7,127,117.7z"></path><path d="M37.6,69.5c-0.6,0.3-1.1,0.8-1.3,1.4l-4,8c-0.7,1.5-0.1,3.3,1.3,4c1.5,0.7,3.3,0.1,4-1.3l2.2-4.4l7.9,7.9   c0.6,0.6,1.4,0.9,2.1,0.9c0.8,0,1.7-0.3,2.3-1c1-1.2,0.9-3.1-0.3-4.2L41.1,70.1C40.2,69.2,38.8,68.9,37.6,69.5z"></path><circle cx="11.3" cy="109" r="3"></circle></g></svg>