  0
SECTION
  2
HEADER
  9
$ACADVER
  1
AC1014
  9
$HANDSEED
  5
FFFF
  9
$MEASUREMENT
 70
     1
  0
ENDSEC
  0
SECTION
  2
TABLES
  0
TABLE
  2
VPORT
  5
8
330
0
100
AcDbSymbolTable
 70
     4
  0
VPORT
  5
2E
330
8
100
AcDbSymbolTableRecord
100
AcDbViewportTableRecord
  2
*ACTIVE
 70
     0
 10
0.0
 20
0.0
 11
1.0
 21
1.0
 12
210.0
 22
148.5
 13
0.0
 23
0.0
 14
10.0
 24
10.0
 15
10.0
 25
10.0
 16
0.0
 26
0.0
 36
1.0
 17
0.0
 27
0.0
 37
0.0
 40
341.0
 41
1.24
 42
50.0
 43
0.0
 44
0.0
 50
0.0
 51
0.0
 71
     0
 72
   100
 73
     1
 74
     3
 75
     0
 76
     0
 77
     0
 78
     0
  0
ENDTAB
  0
TABLE
  2
LTYPE
  5
5
330
0
100
AcDbSymbolTable
 70
     1
  0
LTYPE
  5
14
330
5
100
AcDbSymbolTableRecord
100
AcDbLinetypeTableRecord
  2
BYBLOCK
 70
     0
  3

 72
    65
 73
     0
 40
0.0
  0
LTYPE
  5
15
330
5
100
AcDbSymbolTableRecord
100
AcDbLinetypeTableRecord
  2
BYLAYER
 70
     0
  3

 72
    65
 73
     0
 40
0.0
  0
LTYPE
  5
16
330
5
100
AcDbSymbolTableRecord
100
AcDbLinetypeTableRecord
  2
CONTINUOUS
 70
     0
  3
Solid line
 72
    65
 73
     0
 40
0.0
  0
ENDTAB
  0
TABLE
  2
LAYER
  5
2
100
AcDbSymbolTable
 70
1
  0
LAYER
  5
50
100
AcDbSymbolTableRecord
100
AcDbLayerTableRecord
  2
0
 70
0
  6
CONTINUOUS
  0
ENDTAB
  0
TABLE
  2
STYLE
  5
3
330
0
100
AcDbSymbolTable
 70
     1
  0
STYLE
  5
11
330
3
100
AcDbSymbolTableRecord
100
AcDbTextStyleTableRecord
  2
STANDARD
 70
     0
 40
0.0
 41
1.0
 50
0.0
 71
     0
 42
2.5
  3
txt
  4

  0
ENDTAB
  0
TABLE
  2
VIEW
  5
6
330
0
100
AcDbSymbolTable
 70
     0
  0
ENDTAB
  0
TABLE
  2
UCS
  5
7
330
0
100
AcDbSymbolTable
 70
     0
  0
ENDTAB
  0
TABLE
  2
APPID
  5
9
330
0
100
AcDbSymbolTable
 70
     2
  0
APPID
  5
12
330
9
100
AcDbSymbolTableRecord
100
AcDbRegAppTableRecord
  2
ACAD
 70
     0
  0
ENDTAB
  0
TABLE
  2
DIMSTYLE
  5
A
330
0
100
AcDbSymbolTable
 70
     1
  0
DIMSTYLE
105
27
330
A
100
AcDbSymbolTableRecord
100
AcDbDimStyleTableRecord
  2
ISO-25
 70
     0
  3

  4

  5

  6

  7

 40
1.0
 41
2.5
 42
0.625
 43
3.75
 44
1.25
 45
0.0
 46
0.0
 47
0.0
 48
0.0
140
2.5
141
2.5
142
0.0
143
0.03937007874016
144
1.0
145
0.0
146
1.0
147
0.625
 71
     0
 72
     0
 73
     0
 74
     0
 75
     0
 76
     0
 77
     1
 78
     8
170
     0
171
     3
172
     1
173
     0
174
     0
175
     0
176
     0
177
     0
178
     0
270
     2
271
     2
272
     2
273
     2
274
     3
340
11
275
     0
280
     0
281
     0
282
     0
283
     0
284
     8
285
     0
286
     0
287
     3
288
     0
  0
ENDTAB
  0
TABLE
  2
BLOCK_RECORD
  5
1
330
0
100
AcDbSymbolTable
 70
     1
  0
BLOCK_RECORD
  5
1F
330
1
100
AcDbSymbolTableRecord
100
AcDbBlockTableRecord
  2
*MODEL_SPACE
  0
BLOCK_RECORD
  5
1B
330
1
100
AcDbSymbolTableRecord
100
AcDbBlockTableRecord
  2
*PAPER_SPACE
  0
ENDTAB
  0
ENDSEC
  0
SECTION
  2
BLOCKS
  0
BLOCK
  5
20
330
1F
100
AcDbEntity
  8
0
100
AcDbBlockBegin
  2
*MODEL_SPACE
 70
     0
 10
0.0
 20
0.0
 30
0.0
  3
*MODEL_SPACE
  1

  0
ENDBLK
  5
21
330
1F
100
AcDbEntity
  8
0
100
AcDbBlockEnd
  0
BLOCK
  5
1C
330
1B
100
AcDbEntity
 67
     1
  8
0
100
AcDbBlockBegin
  2
*PAPER_SPACE
  1

  0
ENDBLK
  5
1D
330
1B
100
AcDbEntity
 67
     1
  8
0
100
AcDbBlockEnd
  0
ENDSEC
  0
SECTION
  2
ENTITIES
  0
LINE
  5
100
100
AcDbEntity
  8
0
 62
7
100
AcDbLine
 10
7.253468
 20
20.054993
 30
0.0
 11
7.217061
 21
20.399128
 31
0.0
  0
LINE
  5
101
100
AcDbEntity
  8
0
 62
7
100
AcDbLine
 10
7.217061
 20
20.399128
 30
0.0
 11
7.180655
 21
20.743263
 31
0.0
  0
LINE
  5
102
100
AcDbEntity
  8
0
 62
7
100
AcDbLine
 10
7.180655
 20
20.743263
 30
0.0
 11
7.144248
 21
21.087398
 31
0.0
  0
LINE
  5
103
100
AcDbEntity
  8
0
 62
7
100
AcDbLine
 10
7.144248
 20
21.087398
 30
0.0
 11
7.107841
 21
21.431532
 31
0.0
  0
LINE
  5
104
100
AcDbEntity
  8
0
 62
7
100
AcDbLine
 10
7.107841
 20
21.431532
 30
0.0
 11
7.071435
 21
21.775667
 31
0.0
  0
LINE
  5
105
100
AcDbEntity
  8
0
 62
7
100
AcDbLine
 10
7.071435
 20
21.775667
 30
0.0
 11
7.035028
 21
22.119802
 31
0.0
  0
LINE
  5
106
100
AcDbEntity
  8
0
 62
7
100
AcDbLine
 10
7.035028
 20
22.119802
 30
0.0
 11
6.998621
 21
22.463936
 31
0.0
  0
LINE
  5
107
100
AcDbEntity
  8
0
 62
7
100
AcDbLine
 10
6.998621
 20
22.463936
 30
0.0
 11
6.962215
 21
22.808071
 31
0.0
  0
LINE
  5
108
100
AcDbEntity
  8
0
 62
7
100
AcDbLine
 10
6.962215
 20
22.808071
 30
0.0
 11
6.923633
 21
22.983651
 31
0.0
  0
LINE
  5
109
100
AcDbEntity
  8
0
 62
7
100
AcDbLine
 10
6.923633
 20
22.983651
 30
0.0
 11
6.855332
 21
23.145066
 31
0.0
  0
LINE
  5
10a
100
AcDbEntity
  8
0
 62
7
100
AcDbLine
 10
6.855332
 20
23.145066
 30
0.0
 11
6.760533
 21
23.289476
 31
0.0
  0
LINE
  5
10b
100
AcDbEntity
  8
0
 62
7
100
AcDbLine
 10
6.760533
 20
23.289476
 30
0.0
 11
6.642457
 21
23.414037
 31
0.0
  0
LINE
  5
10c
100
AcDbEntity
  8
0
 62
7
100
AcDbLine
 10
6.642457
 20
23.414037
 30
0.0
 11
6.504326
 21
23.515912
 31
0.0
  0
LINE
  5
10d
100
AcDbEntity
  8
0
 62
7
100
AcDbLine
 10
6.504326
 20
23.515912
 30
0.0
 11
6.349360
 21
23.592256
 31
0.0
  0
LINE
  5
10e
100
AcDbEntity
  8
0
 62
7
100
AcDbLine
 10
6.349360
 20
23.592256
 30
0.0
 11
6.180782
 21
23.640232
 31
0.0
  0
LINE
  5
10f
100
AcDbEntity
  8
0
 62
7
100
AcDbLine
 10
6.180782
 20
23.640232
 30
0.0
 11
6.001812
 21
23.656996
 31
0.0
  0
LINE
  5
110
100
AcDbEntity
  8
0
 62
7
100
AcDbLine
 10
6.001812
 20
23.656996
 30
0.0
 11
5.405512
 21
23.657631
 31
0.0
  0
LINE
  5
111
100
AcDbEntity
  8
0
 62
7
100
AcDbLine
 10
5.405512
 20
23.657631
 30
0.0
 11
4.809212
 21
23.658266
 31
0.0
  0
LINE
  5
112
100
AcDbEntity
  8
0
 62
7
100
AcDbLine
 10
4.809212
 20
23.658266
 30
0.0
 11
4.212912
 21
23.658901
 31
0.0
  0
LINE
  5
113
100
AcDbEntity
  8
0
 62
7
100
AcDbLine
 10
4.212912
 20
23.658901
 30
0.0
 11
3.616611
 21
23.659536
 31
0.0
  0
LINE
  5
114
100
AcDbEntity
  8
0
 62
7
100
AcDbLine
 10
3.616611
 20
23.659536
 30
0.0
 11
3.020311
 21
23.660171
 31
0.0
  0
LINE
  5
115
100
AcDbEntity
  8
0
 62
7
100
AcDbLine
 10
3.020311
 20
23.660171
 30
0.0
 11
2.424011
 21
23.660806
 31
0.0
  0
LINE
  5
116
100
AcDbEntity
  8
0
 62
7
100
AcDbLine
 10
2.424011
 20
23.660806
 30
0.0
 11
1.827710
 21
23.661441
 31
0.0
  0
LINE
  5
117
100
AcDbEntity
  8
0
 62
7
100
AcDbLine
 10
1.827710
 20
23.661441
 30
0.0
 11
1.231410
 21
23.662076
 31
0.0
  0
LINE
  5
118
100
AcDbEntity
  8
0
 62
7
100
AcDbLine
 10
1.231410
 20
23.662076
 30
0.0
 11
1.047776
 21
23.644866
 31
0.0
  0
LINE
  5
119
100
AcDbEntity
  8
0
 62
7
100
AcDbLine
 10
1.047776
 20
23.644866
 30
0.0
 11
0.875281
 21
23.594889
 31
0.0
  0
LINE
  5
11a
100
AcDbEntity
  8
0
 62
7
100
AcDbLine
 10
0.875281
 20
23.594889
 30
0.0
 11
0.717338
 21
23.515252
 31
0.0
  0
LINE
  5
11b
100
AcDbEntity
  8
0
 62
7
100
AcDbLine
 10
0.717338
 20
23.515252
 30
0.0
 11
0.577360
 21
23.409063
 31
0.0
  0
LINE
  5
11c
100
AcDbEntity
  8
0
 62
7
100
AcDbLine
 10
0.577360
 20
23.409063
 30
0.0
 11
0.458761
 21
23.279433
 31
0.0
  0
LINE
  5
11d
100
AcDbEntity
  8
0
 62
7
100
AcDbLine
 10
0.458761
 20
23.279433
 30
0.0
 11
0.364953
 21
23.129469
 31
0.0
  0
LINE
  5
11e
100
AcDbEntity
  8
0
 62
7
100
AcDbLine
 10
0.364953
 20
23.129469
 30
0.0
 11
0.299349
 21
22.962281
 31
0.0
  0
LINE
  5
11f
100
AcDbEntity
  8
0
 62
7
100
AcDbLine
 10
0.299349
 20
22.962281
 30
0.0
 11
0.265363
 21
22.780978
 31
0.0
  0
LINE
  5
120
100
AcDbEntity
  8
0
 62
7
100
AcDbLine
 10
0.265363
 20
22.780978
 30
0.0
 11
0.257299
 21
22.756068
 31
0.0
  0
LINE
  5
121
100
AcDbEntity
  8
0
 62
7
100
AcDbLine
 10
0.257299
 20
22.756068
 30
0.0
 11
0.235664
 21
22.461582
 31
0.0
  0
LINE
  5
122
100
AcDbEntity
  8
0
 62
7
100
AcDbLine
 10
0.235664
 20
22.461582
 30
0.0
 11
0.203664
 21
21.939355
 31
0.0
  0
LINE
  5
123
100
AcDbEntity
  8
0
 62
7
100
AcDbLine
 10
0.203664
 20
21.939355
 30
0.0
 11
0.164504
 21
21.231225
 31
0.0
  0
LINE
  5
124
100
AcDbEntity
  8
0
 62
7
100
AcDbLine
 10
0.164504
 20
21.231225
 30
0.0
 11
0.121389
 21
20.379030
 31
0.0
  0
LINE
  5
125
100
AcDbEntity
  8
0
 62
7
100
AcDbLine
 10
0.121389
 20
20.379030
 30
0.0
 11
0.077523
 21
19.424606
 31
0.0
  0
LINE
  5
126
100
AcDbEntity
  8
0
 62
7
100
AcDbLine
 10
0.077523
 20
19.424606
 30
0.0
 11
0.036110
 21
18.409791
 31
0.0
  0
LINE
  5
127
100
AcDbEntity
  8
0
 62
7
100
AcDbLine
 10
0.036110
 20
18.409791
 30
0.0
 11
0.000357
 21
17.376422
 31
0.0
  0
LINE
  5
128
100
AcDbEntity
  8
0
 62
7
100
AcDbLine
 10
0.000357
 20
17.376422
 30
0.0
 11
0.000058
 21
17.362054
 31
0.0
  0
LINE
  5
129
100
AcDbEntity
  8
0
 62
7
100
AcDbLine
 10
0.000058
 20
17.362054
 30
0.0
 11
0.000019
 21
17.347729
 31
0.0
  0
LINE
  5
12a
100
AcDbEntity
  8
0
 62
7
100
AcDbLine
 10
0.000019
 20
17.347729
 30
0.0
 11
0.000264
 21
17.333437
 31
0.0
  0
LINE
  5
12b
100
AcDbEntity
  8
0
 62
7
100
AcDbLine
 10
0.000264
 20
17.333437
 30
0.0
 11
0.000817
 21
17.319168
 31
0.0
  0
LINE
  5
12c
100
AcDbEntity
  8
0
 62
7
100
AcDbLine
 10
0.000817
 20
17.319168
 30
0.0
 11
0.001700
 21
17.304913
 31
0.0
  0
LINE
  5
12d
100
AcDbEntity
  8
0
 62
7
100
AcDbLine
 10
0.001700
 20
17.304913
 30
0.0
 11
0.002936
 21
17.290661
 31
0.0
  0
LINE
  5
12e
100
AcDbEntity
  8
0
 62
7
100
AcDbLine
 10
0.002936
 20
17.290661
 30
0.0
 11
0.004551
 21
17.276400
 31
0.0
  0
LINE
  5
12f
100
AcDbEntity
  8
0
 62
7
100
AcDbLine
 10
0.004551
 20
17.276400
 30
0.0
 11
0.006566
 21
17.262122
 31
0.0
  0
LINE
  5
130
100
AcDbEntity
  8
0
 62
7
100
AcDbLine
 10
0.006566
 20
17.262122
 30
0.0
 11
0.075460
 21
16.885722
 31
0.0
  0
LINE
  5
131
100
AcDbEntity
  8
0
 62
7
100
AcDbLine
 10
0.075460
 20
16.885722
 30
0.0
 11
0.182170
 21
16.493737
 31
0.0
  0
LINE
  5
132
100
AcDbEntity
  8
0
 62
7
100
AcDbLine
 10
0.182170
 20
16.493737
 30
0.0
 11
0.342788
 21
16.096620
 31
0.0
  0
LINE
  5
133
100
AcDbEntity
  8
0
 62
7
100
AcDbLine
 10
0.342788
 20
16.096620
 30
0.0
 11
0.573409
 21
15.704820
 31
0.0
  0
LINE
  5
134
100
AcDbEntity
  8
0
 62
7
100
AcDbLine
 10
0.573409
 20
15.704820
 30
0.0
 11
0.890125
 21
15.328790
 31
0.0
  0
LINE
  5
135
100
AcDbEntity
  8
0
 62
7
100
AcDbLine
 10
0.890125
 20
15.328790
 30
0.0
 11
1.309030
 21
14.978980
 31
0.0
  0
LINE
  5
136
100
AcDbEntity
  8
0
 62
7
100
AcDbLine
 10
1.309030
 20
14.978980
 30
0.0
 11
1.846217
 21
14.665841
 31
0.0
  0
LINE
  5
137
100
AcDbEntity
  8
0
 62
7
100
AcDbLine
 10
1.846217
 20
14.665841
 30
0.0
 11
2.517779
 21
14.399824
 31
0.0
  0
LINE
  5
138
100
AcDbEntity
  8
0
 62
7
100
AcDbLine
 10
2.517779
 20
14.399824
 30
0.0
 11
2.919368
 21
14.315566
 31
0.0
  0
LINE
  5
139
100
AcDbEntity
  8
0
 62
7
100
AcDbLine
 10
2.919368
 20
14.315566
 30
0.0
 11
3.236052
 21
14.335248
 31
0.0
  0
LINE
  5
13a
100
AcDbEntity
  8
0
 62
7
100
AcDbLine
 10
3.236052
 20
14.335248
 30
0.0
 11
3.470477
 21
14.438936
 31
0.0
  0
LINE
  5
13b
100
AcDbEntity
  8
0
 62
7
100
AcDbLine
 10
3.470477
 20
14.438936
 30
0.0
 11
3.625290
 21
14.606693
 31
0.0
  0
LINE
  5
13c
100
AcDbEntity
  8
0
 62
7
100
AcDbLine
 10
3.625290
 20
14.606693
 30
0.0
 11
3.703134
 21
14.818583
 31
0.0
  0
LINE
  5
13d
100
AcDbEntity
  8
0
 62
7
100
AcDbLine
 10
3.703134
 20
14.818583
 30
0.0
 11
3.706658
 21
15.054668
 31
0.0
  0
LINE
  5
13e
100
AcDbEntity
  8
0
 62
7
100
AcDbLine
 10
3.706658
 20
15.054668
 30
0.0
 11
3.638505
 21
15.295014
 31
0.0
  0
LINE
  5
13f
100
AcDbEntity
  8
0
 62
7
100
AcDbLine
 10
3.638505
 20
15.295014
 30
0.0
 11
3.501323
 21
15.519682
 31
0.0
  0
LINE
  5
140
100
AcDbEntity
  8
0
 62
7
100
AcDbLine
 10
3.501323
 20
15.519682
 30
0.0
 11
3.336174
 21
15.720641
 31
0.0
  0
LINE
  5
141
100
AcDbEntity
  8
0
 62
7
100
AcDbLine
 10
3.336174
 20
15.720641
 30
0.0
 11
3.176442
 21
15.911751
 31
0.0
  0
LINE
  5
142
100
AcDbEntity
  8
0
 62
7
100
AcDbLine
 10
3.176442
 20
15.911751
 30
0.0
 11
3.023099
 21
16.093851
 31
0.0
  0
LINE
  5
143
100
AcDbEntity
  8
0
 62
7
100
AcDbLine
 10
3.023099
 20
16.093851
 30
0.0
 11
2.877118
 21
16.267783
 31
0.0
  0
LINE
  5
144
100
AcDbEntity
  8
0
 62
7
100
AcDbLine
 10
2.877118
 20
16.267783
 30
0.0
 11
2.739472
 21
16.434385
 31
0.0
  0
LINE
  5
145
100
AcDbEntity
  8
0
 62
7
100
AcDbLine
 10
2.739472
 20
16.434385
 30
0.0
 11
2.611133
 21
16.594499
 31
0.0
  0
LINE
  5
146
100
AcDbEntity
  8
0
 62
7
100
AcDbLine
 10
2.611133
 20
16.594499
 30
0.0
 11
2.493072
 21
16.748964
 31
0.0
  0
LINE
  5
147
100
AcDbEntity
  8
0
 62
7
100
AcDbLine
 10
2.493072
 20
16.748964
 30
0.0
 11
2.386263
 21
16.898620
 31
0.0
  0
LINE
  5
148
100
AcDbEntity
  8
0
 62
7
100
AcDbLine
 10
2.386263
 20
16.898620
 30
0.0
 11
2.305445
 21
17.065111
 31
0.0
  0
LINE
  5
149
100
AcDbEntity
  8
0
 62
7
100
AcDbLine
 10
2.305445
 20
17.065111
 30
0.0
 11
2.248724
 21
17.276516
 31
0.0
  0
LINE
  5
14a
100
AcDbEntity
  8
0
 62
7
100
AcDbLine
 10
2.248724
 20
17.276516
 30
0.0
 11
2.212125
 21
17.514114
 31
0.0
  0
LINE
  5
14b
100
AcDbEntity
  8
0
 62
7
100
AcDbLine
 10
2.212125
 20
17.514114
 30
0.0
 11
2.191671
 21
17.759186
 31
0.0
  0
LINE
  5
14c
100
AcDbEntity
  8
0
 62
7
100
AcDbLine
 10
2.191671
 20
17.759186
 30
0.0
 11
2.183389
 21
17.993014
 31
0.0
  0
LINE
  5
14d
100
AcDbEntity
  8
0
 62
7
100
AcDbLine
 10
2.183389
 20
17.993014
 30
0.0
 11
2.183302
 21
18.196877
 31
0.0
  0
LINE
  5
14e
100
AcDbEntity
  8
0
 62
7
100
AcDbLine
 10
2.183302
 20
18.196877
 30
0.0
 11
2.187435
 21
18.352058
 31
0.0
  0
LINE
  5
14f
100
AcDbEntity
  8
0
 62
7
100
AcDbLine
 10
2.187435
 20
18.352058
 30
0.0
 11
2.191812
 21
18.439836
 31
0.0
  0
LINE
  5
150
100
AcDbEntity
  8
0
 62
7
100
AcDbLine
 10
2.191812
 20
18.439836
 30
0.0
 11
2.332977
 21
18.517753
 31
0.0
  0
LINE
  5
151
100
AcDbEntity
  8
0
 62
7
100
AcDbLine
 10
2.332977
 20
18.517753
 30
0.0
 11
2.490915
 21
18.597664
 31
0.0
  0
LINE
  5
152
100
AcDbEntity
  8
0
 62
7
100
AcDbLine
 10
2.490915
 20
18.597664
 30
0.0
 11
2.658776
 21
18.677410
 31
0.0
  0
LINE
  5
153
100
AcDbEntity
  8
0
 62
7
100
AcDbLine
 10
2.658776
 20
18.677410
 30
0.0
 11
2.829705
 21
18.754831
 31
0.0
  0
LINE
  5
154
100
AcDbEntity
  8
0
 62
7
100
AcDbLine
 10
2.829705
 20
18.754831
 30
0.0
 11
2.996851
 21
18.827767
 31
0.0
  0
LINE
  5
155
100
AcDbEntity
  8
0
 62
7
100
AcDbLine
 10
2.996851
 20
18.827767
 30
0.0
 11
3.153361
 21
18.894059
 31
0.0
  0
LINE
  5
156
100
AcDbEntity
  8
0
 62
7
100
AcDbLine
 10
3.153361
 20
18.894059
 30
0.0
 11
3.292382
 21
18.951547
 31
0.0
  0
LINE
  5
157
100
AcDbEntity
  8
0
 62
7
100
AcDbLine
 10
3.292382
 20
18.951547
 30
0.0
 11
3.407061
 21
18.998071
 31
0.0
  0
LINE
  5
158
100
AcDbEntity
  8
0
 62
7
100
AcDbLine
 10
3.407061
 20
18.998071
 30
0.0
 11
3.838689
 21
19.163385
 31
0.0
  0
LINE
  5
159
100
AcDbEntity
  8
0
 62
7
100
AcDbLine
 10
3.838689
 20
19.163385
 30
0.0
 11
4.285954
 21
19.319028
 31
0.0
  0
LINE
  5
15a
100
AcDbEntity
  8
0
 62
7
100
AcDbLine
 10
4.285954
 20
19.319028
 30
0.0
 11
4.748062
 21
19.465094
 31
0.0
  0
LINE
  5
15b
100
AcDbEntity
  8
0
 62
7
100
AcDbLine
 10
4.748062
 20
19.465094
 30
0.0
 11
5.224220
 21
19.601674
 31
0.0
  0
LINE
  5
15c
100
AcDbEntity
  8
0
 62
7
100
AcDbLine
 10
5.224220
 20
19.601674
 30
0.0
 11
5.713633
 21
19.728861
 31
0.0
  0
LINE
  5
15d
100
AcDbEntity
  8
0
 62
7
100
AcDbLine
 10
5.713633
 20
19.728861
 30
0.0
 11
6.215507
 21
19.846749
 31
0.0
  0
LINE
  5
15e
100
AcDbEntity
  8
0
 62
7
100
AcDbLine
 10
6.215507
 20
19.846749
 30
0.0
 11
6.729050
 21
19.955428
 31
0.0
  0
LINE
  5
15f
100
AcDbEntity
  8
0
 62
7
100
AcDbLine
 10
6.729050
 20
19.955428
 30
0.0
 11
7.253468
 21
20.054993
 31
0.0
  0
LINE
  5
160
100
AcDbEntity
  8
0
 62
7
100
AcDbLine
 10
25.148050
 20
15.675187
 30
0.0
 11
25.082274
 21
15.566418
 31
0.0
  0
LINE
  5
161
100
AcDbEntity
  8
0
 62
7
100
AcDbLine
 10
25.082274
 20
15.566418
 30
0.0
 11
25.011150
 21
15.458660
 31
0.0
  0
LINE
  5
162
100
AcDbEntity
  8
0
 62
7
100
AcDbLine
 10
25.011150
 20
15.458660
 30
0.0
 11
24.934437
 21
15.352081
 31
0.0
  0
LINE
  5
163
100
AcDbEntity
  8
0
 62
7
100
AcDbLine
 10
24.934437
 20
15.352081
 30
0.0
 11
24.851893
 21
15.246844
 31
0.0
  0
LINE
  5
164
100
AcDbEntity
  8
0
 62
7
100
AcDbLine
 10
24.851893
 20
15.246844
 30
0.0
 11
24.763277
 21
15.143115
 31
0.0
  0
LINE
  5
165
100
AcDbEntity
  8
0
 62
7
100
AcDbLine
 10
24.763277
 20
15.143115
 30
0.0
 11
24.668347
 21
15.041060
 31
0.0
  0
LINE
  5
166
100
AcDbEntity
  8
0
 62
7
100
AcDbLine
 10
24.668347
 20
15.041060
 30
0.0
 11
24.566863
 21
14.940843
 31
0.0
  0
LINE
  5
167
100
AcDbEntity
  8
0
 62
7
100
AcDbLine
 10
24.566863
 20
14.940843
 30
0.0
 11
24.458581
 21
14.842631
 31
0.0
  0
LINE
  5
168
100
AcDbEntity
  8
0
 62
7
100
AcDbLine
 10
24.458581
 20
14.842631
 30
0.0
 11
24.368829
 21
14.492293
 31
0.0
  0
LINE
  5
169
100
AcDbEntity
  8
0
 62
7
100
AcDbLine
 10
24.368829
 20
14.492293
 30
0.0
 11
24.182414
 21
14.139347
 31
0.0
  0
LINE
  5
16a
100
AcDbEntity
  8
0
 62
7
100
AcDbLine
 10
24.182414
 20
14.139347
 30
0.0
 11
23.903269
 21
13.787266
 31
0.0
  0
LINE
  5
16b
100
AcDbEntity
  8
0
 62
7
100
AcDbLine
 10
23.903269
 20
13.787266
 30
0.0
 11
23.535327
 21
13.439528
 31
0.0
  0
LINE
  5
16c
100
AcDbEntity
  8
0
 62
7
100
AcDbLine
 10
23.535327
 20
13.439528
 30
0.0
 11
23.082519
 21
13.099609
 31
0.0
  0
LINE
  5
16d
100
AcDbEntity
  8
0
 62
7
100
AcDbLine
 10
23.082519
 20
13.099609
 30
0.0
 11
22.548779
 21
12.770983
 31
0.0
  0
LINE
  5
16e
100
AcDbEntity
  8
0
 62
7
100
AcDbLine
 10
22.548779
 20
12.770983
 30
0.0
 11
21.938038
 21
12.457129
 31
0.0
  0
LINE
  5
16f
100
AcDbEntity
  8
0
 62
7
100
AcDbLine
 10
21.938038
 20
12.457129
 30
0.0
 11
21.254230
 21
12.161520
 31
0.0
  0
LINE
  5
170
100
AcDbEntity
  8
0
 62
7
100
AcDbLine
 10
21.254230
 20
12.161520
 30
0.0
 11
20.354024
 21
11.837759
 31
0.0
  0
LINE
  5
171
100
AcDbEntity
  8
0
 62
7
100
AcDbLine
 10
20.354024
 20
11.837759
 30
0.0
 11
19.387586
 21
11.553635
 31
0.0
  0
LINE
  5
172
100
AcDbEntity
  8
0
 62
7
100
AcDbLine
 10
19.387586
 20
11.553635
 30
0.0
 11
18.361577
 21
11.310238
 31
0.0
  0
LINE
  5
173
100
AcDbEntity
  8
0
 62
7
100
AcDbLine
 10
18.361577
 20
11.310238
 30
0.0
 11
17.282658
 21
11.108655
 31
0.0
  0
LINE
  5
174
100
AcDbEntity
  8
0
 62
7
100
AcDbLine
 10
17.282658
 20
11.108655
 30
0.0
 11
16.157490
 21
10.949974
 31
0.0
  0
LINE
  5
175
100
AcDbEntity
  8
0
 62
7
100
AcDbLine
 10
16.157490
 20
10.949974
 30
0.0
 11
14.992733
 21
10.835283
 31
0.0
  0
LINE
  5
176
100
AcDbEntity
  8
0
 62
7
100
AcDbLine
 10
14.992733
 20
10.835283
 30
0.0
 11
13.795049
 21
10.765670
 31
0.0
  0
LINE
  5
177
100
AcDbEntity
  8
0
 62
7
100
AcDbLine
 10
13.795049
 20
10.765670
 30
0.0
 11
12.571099
 21
10.742224
 31
0.0
  0
LINE
  5
178
100
AcDbEntity
  8
0
 62
7
100
AcDbLine
 10
12.571099
 20
10.742224
 30
0.0
 11
11.347161
 21
10.765670
 31
0.0
  0
LINE
  5
179
100
AcDbEntity
  8
0
 62
7
100
AcDbLine
 10
11.347161
 20
10.765670
 30
0.0
 11
10.149509
 21
10.835283
 31
0.0
  0
LINE
  5
17a
100
AcDbEntity
  8
0
 62
7
100
AcDbLine
 10
10.149509
 20
10.835283
 30
0.0
 11
8.984798
 21
10.949974
 31
0.0
  0
LINE
  5
17b
100
AcDbEntity
  8
0
 62
7
100
AcDbLine
 10
8.984798
 20
10.949974
 30
0.0
 11
7.859681
 21
11.108655
 31
0.0
  0
LINE
  5
17c
100
AcDbEntity
  8
0
 62
7
100
AcDbLine
 10
7.859681
 20
11.108655
 30
0.0
 11
6.780814
 21
11.310238
 31
0.0
  0
LINE
  5
17d
100
AcDbEntity
  8
0
 62
7
100
AcDbLine
 10
6.780814
 20
11.310238
 30
0.0
 11
5.754850
 21
11.553635
 31
0.0
  0
LINE
  5
17e
100
AcDbEntity
  8
0
 62
7
100
AcDbLine
 10
5.754850
 20
11.553635
 30
0.0
 11
4.788444
 21
11.837759
 31
0.0
  0
LINE
  5
17f
100
AcDbEntity
  8
0
 62
7
100
AcDbLine
 10
4.788444
 20
11.837759
 30
0.0
 11
3.888250
 21
12.161520
 31
0.0
  0
LINE
  5
180
100
AcDbEntity
  8
0
 62
7
100
AcDbLine
 10
3.888250
 20
12.161520
 30
0.0
 11
3.192590
 21
12.462680
 31
0.0
  0
LINE
  5
181
100
AcDbEntity
  8
0
 62
7
100
AcDbLine
 10
3.192590
 20
12.462680
 30
0.0
 11
2.572702
 21
12.782691
 31
0.0
  0
LINE
  5
182
100
AcDbEntity
  8
0
 62
7
100
AcDbLine
 10
2.572702
 20
12.782691
 30
0.0
 11
2.032765
 21
13.117890
 31
0.0
  0
LINE
  5
183
100
AcDbEntity
  8
0
 62
7
100
AcDbLine
 10
2.032765
 20
13.117890
 30
0.0
 11
1.576956
 21
13.464611
 31
0.0
  0
LINE
  5
184
100
AcDbEntity
  8
0
 62
7
100
AcDbLine
 10
1.576956
 20
13.464611
 30
0.0
 11
1.209451
 21
13.819190
 31
0.0
  0
LINE
  5
185
100
AcDbEntity
  8
0
 62
7
100
AcDbLine
 10
1.209451
 20
13.819190
 30
0.0
 11
0.934429
 21
14.177962
 31
0.0
  0
LINE
  5
186
100
AcDbEntity
  8
0
 62
7
100
AcDbLine
 10
0.934429
 20
14.177962
 30
0.0
 11
0.756065
 21
14.537264
 31
0.0
  0
LINE
  5
187
100
AcDbEntity
  8
0
 62
7
100
AcDbLine
 10
0.756065
 20
14.537264
 30
0.0
 11
0.678537
 21
14.893431
 31
0.0
  0
LINE
  5
188
100
AcDbEntity
  8
0
 62
7
100
AcDbLine
 10
0.678537
 20
14.893431
 30
0.0
 11
0.573906
 21
14.992755
 31
0.0
  0
LINE
  5
189
100
AcDbEntity
  8
0
 62
7
100
AcDbLine
 10
0.573906
 20
14.992755
 30
0.0
 11
0.475959
 21
15.093981
 31
0.0
  0
LINE
  5
18a
100
AcDbEntity
  8
0
 62
7
100
AcDbLine
 10
0.475959
 20
15.093981
 30
0.0
 11
0.384447
 21
15.196946
 31
0.0
  0
LINE
  5
18b
100
AcDbEntity
  8
0
 62
7
100
AcDbLine
 10
0.384447
 20
15.196946
 30
0.0
 11
0.299124
 21
15.301489
 31
0.0
  0
LINE
  5
18c
100
AcDbEntity
  8
0
 62
7
100
AcDbLine
 10
0.299124
 20
15.301489
 30
0.0
 11
0.219741
 21
15.407448
 31
0.0
  0
LINE
  5
18d
100
AcDbEntity
  8
0
 62
7
100
AcDbLine
 10
0.219741
 20
15.407448
 30
0.0
 11
0.146050
 21
15.514660
 31
0.0
  0
LINE
  5
18e
100
AcDbEntity
  8
0
 62
7
100
AcDbLine
 10
0.146050
 20
15.514660
 30
0.0
 11
0.077802
 21
15.622963
 31
0.0
  0
LINE
  5
18f
100
AcDbEntity
  8
0
 62
7
100
AcDbLine
 10
0.077802
 20
15.622963
 30
0.0
 11
0.014750
 21
15.732196
 31
0.0
  0
LINE
  5
190
100
AcDbEntity
  8
0
 62
7
100
AcDbLine
 10
0.014750
 20
15.732196
 30
0.0
 11
0.010165
 21
15.350151
 31
0.0
  0
LINE
  5
191
100
AcDbEntity
  8
0
 62
7
100
AcDbLine
 10
0.010165
 20
15.350151
 30
0.0
 11
0.046011
 21
14.470243
 31
0.0
  0
LINE
  5
192
100
AcDbEntity
  8
0
 62
7
100
AcDbLine
 10
0.046011
 20
14.470243
 30
0.0
 11
0.110015
 21
13.261624
 31
0.0
  0
LINE
  5
193
100
AcDbEntity
  8
0
 62
7
100
AcDbLine
 10
0.110015
 20
13.261624
 30
0.0
 11
0.189904
 21
11.893444
 31
0.0
  0
LINE
  5
194
100
AcDbEntity
  8
0
 62
7
100
AcDbLine
 10
0.189904
 20
11.893444
 30
0.0
 11
0.273405
 21
10.534856
 31
0.0
  0
LINE
  5
195
100
AcDbEntity
  8
0
 62
7
100
AcDbLine
 10
0.273405
 20
10.534856
 30
0.0
 11
0.348244
 21
9.355010
 31
0.0
  0
LINE
  5
196
100
AcDbEntity
  8
0
 62
7
100
AcDbLine
 10
0.348244
 20
9.355010
 30
0.0
 11
0.402148
 21
8.523058
 31
0.0
  0
LINE
  5
197
100
AcDbEntity
  8
0
 62
7
100
AcDbLine
 10
0.402148
 20
8.523058
 30
0.0
 11
0.422843
 21
8.208151
 31
0.0
  0
LINE
  5
198
100
AcDbEntity
  8
0
 62
7
100
AcDbLine
 10
0.422843
 20
8.208151
 30
0.0
 11
0.611191
 21
8.208151
 31
0.0
  0
LINE
  5
199
100
AcDbEntity
  8
0
 62
7
100
AcDbLine
 10
0.611191
 20
8.208151
 30
0.0
 11
0.799540
 21
8.208151
 31
0.0
  0
LINE
  5
19a
100
AcDbEntity
  8
0
 62
7
100
AcDbLine
 10
0.799540
 20
8.208151
 30
0.0
 11
0.987888
 21
8.208151
 31
0.0
  0
LINE
  5
19b
100
AcDbEntity
  8
0
 62
7
100
AcDbLine
 10
0.987888
 20
8.208151
 30
0.0
 11
1.176236
 21
8.208151
 31
0.0
  0
LINE
  5
19c
100
AcDbEntity
  8
0
 62
7
100
AcDbLine
 10
1.176236
 20
8.208151
 30
0.0
 11
1.364584
 21
8.208151
 31
0.0
  0
LINE
  5
19d
100
AcDbEntity
  8
0
 62
7
100
AcDbLine
 10
1.364584
 20
8.208151
 30
0.0
 11
1.552932
 21
8.208151
 31
0.0
  0
LINE
  5
19e
100
AcDbEntity
  8
0
 62
7
100
AcDbLine
 10
1.552932
 20
8.208151
 30
0.0
 11
1.741280
 21
8.208151
 31
0.0
  0
LINE
  5
19f
100
AcDbEntity
  8
0
 62
7
100
AcDbLine
 10
1.741280
 20
8.208151
 30
0.0
 11
1.929628
 21
8.208151
 31
0.0
  0
LINE
  5
1a0
100
AcDbEntity
  8
0
 62
7
100
AcDbLine
 10
1.929628
 20
8.208151
 30
0.0
 11
1.924582
 21
8.714211
 31
0.0
  0
LINE
  5
1a1
100
AcDbEntity
  8
0
 62
7
100
AcDbLine
 10
1.924582
 20
8.714211
 30
0.0
 11
1.919538
 21
9.220271
 31
0.0
  0
LINE
  5
1a2
100
AcDbEntity
  8
0
 62
7
100
AcDbLine
 10
1.919538
 20
9.220271
 30
0.0
 11
1.914494
 21
9.726330
 31
0.0
  0
LINE
  5
1a3
100
AcDbEntity
  8
0
 62
7
100
AcDbLine
 10
1.914494
 20
9.726330
 30
0.0
 11
1.909449
 21
10.232390
 31
0.0
  0
LINE
  5
1a4
100
AcDbEntity
  8
0
 62
7
100
AcDbLine
 10
1.909449
 20
10.232390
 30
0.0
 11
1.904404
 21
10.738450
 31
0.0
  0
LINE
  5
1a5
100
AcDbEntity
  8
0
 62
7
100
AcDbLine
 10
1.904404
 20
10.738450
 30
0.0
 11
1.899360
 21
11.244509
 31
0.0
  0
LINE
  5
1a6
100
AcDbEntity
  8
0
 62
7
100
AcDbLine
 10
1.899360
 20
11.244509
 30
0.0
 11
1.894315
 21
11.750569
 31
0.0
  0
LINE
  5
1a7
100
AcDbEntity
  8
0
 62
7
100
AcDbLine
 10
1.894315
 20
11.750569
 30
0.0
 11
1.889270
 21
12.256629
 31
0.0
  0
LINE
  5
1a8
100
AcDbEntity
  8
0
 62
7
100
AcDbLine
 10
1.889270
 20
12.256629
 30
0.0
 11
2.411393
 21
11.958737
 31
0.0
  0
LINE
  5
1a9
100
AcDbEntity
  8
0
 62
7
100
AcDbLine
 10
2.411393
 20
11.958737
 30
0.0
 11
2.984760
 21
11.677050
 31
0.0
  0
LINE
  5
1aa
100
AcDbEntity
  8
0
 62
7
100
AcDbLine
 10
2.984760
 20
11.677050
 30
0.0
 11
3.606717
 21
11.412615
 31
0.0
  0
LINE
  5
1ab
100
AcDbEntity
  8
0
 62
7
100
AcDbLine
 10
3.606717
 20
11.412615
 30
0.0
 11
4.274612
 21
11.166475
 31
0.0
  0
LINE
  5
1ac
100
AcDbEntity
  8
0
 62
7
100
AcDbLine
 10
4.274612
 20
11.166475
 30
0.0
 11
4.985794
 21
10.939676
 31
0.0
  0
LINE
  5
1ad
100
AcDbEntity
  8
0
 62
7
100
AcDbLine
 10
4.985794
 20
10.939676
 30
0.0
 11
5.737608
 21
10.733264
 31
0.0
  0
LINE
  5
1ae
100
AcDbEntity
  8
0
 62
7
100
AcDbLine
 10
5.737608
 20
10.733264
 30
0.0
 11
6.527404
 21
10.548283
 31
0.0
  0
LINE
  5
1af
100
AcDbEntity
  8
0
 62
7
100
AcDbLine
 10
6.527404
 20
10.548283
 30
0.0
 11
7.352528
 21
10.385778
 31
0.0
  0
LINE
  5
1b0
100
AcDbEntity
  8
0
 62
7
100
AcDbLine
 10
7.352528
 20
10.385778
 30
0.0
 11
7.395778
 21
9.769404
 31
0.0
  0
LINE
  5
1b1
100
AcDbEntity
  8
0
 62
7
100
AcDbLine
 10
7.395778
 20
9.769404
 30
0.0
 11
7.439029
 21
9.153031
 31
0.0
  0
LINE
  5
1b2
100
AcDbEntity
  8
0
 62
7
100
AcDbLine
 10
7.439029
 20
9.153031
 30
0.0
 11
7.482280
 21
8.536658
 31
0.0
  0
LINE
  5
1b3
100
AcDbEntity
  8
0
 62
7
100
AcDbLine
 10
7.482280
 20
8.536658
 30
0.0
 11
7.525530
 21
7.920284
 31
0.0
  0
LINE
  5
1b4
100
AcDbEntity
  8
0
 62
7
100
AcDbLine
 10
7.525530
 20
7.920284
 30
0.0
 11
7.568781
 21
7.303911
 31
0.0
  0
LINE
  5
1b5
100
AcDbEntity
  8
0
 62
7
100
AcDbLine
 10
7.568781
 20
7.303911
 30
0.0
 11
7.612031
 21
6.687538
 31
0.0
  0
LINE
  5
1b6
100
AcDbEntity
  8
0
 62
7
100
AcDbLine
 10
7.612031
 20
6.687538
 30
0.0
 11
7.655282
 21
6.071164
 31
0.0
  0
LINE
  5
1b7
100
AcDbEntity
  8
0
 62
7
100
AcDbLine
 10
7.655282
 20
6.071164
 30
0.0
 11
7.698532
 21
5.454791
 31
0.0
  0
LINE
  5
1b8
100
AcDbEntity
  8
0
 62
7
100
AcDbLine
 10
7.698532
 20
5.454791
 30
0.0
 11
7.884482
 21
5.454791
 31
0.0
  0
LINE
  5
1b9
100
AcDbEntity
  8
0
 62
7
100
AcDbLine
 10
7.884482
 20
5.454791
 30
0.0
 11
8.070431
 21
5.454791
 31
0.0
  0
LINE
  5
1ba
100
AcDbEntity
  8
0
 62
7
100
AcDbLine
 10
8.070431
 20
5.454791
 30
0.0
 11
8.256380
 21
5.454791
 31
0.0
  0
LINE
  5
1bb
100
AcDbEntity
  8
0
 62
7
100
AcDbLine
 10
8.256380
 20
5.454791
 30
0.0
 11
8.442329
 21
5.454791
 31
0.0
  0
LINE
  5
1bc
100
AcDbEntity
  8
0
 62
7
100
AcDbLine
 10
8.442329
 20
5.454791
 30
0.0
 11
8.628278
 21
5.454791
 31
0.0
  0
LINE
  5
1bd
100
AcDbEntity
  8
0
 62
7
100
AcDbLine
 10
8.628278
 20
5.454791
 30
0.0
 11
8.814227
 21
5.454791
 31
0.0
  0
LINE
  5
1be
100
AcDbEntity
  8
0
 62
7
100
AcDbLine
 10
8.814227
 20
5.454791
 30
0.0
 11
9.000177
 21
5.454791
 31
0.0
  0
LINE
  5
1bf
100
AcDbEntity
  8
0
 62
7
100
AcDbLine
 10
9.000177
 20
5.454791
 30
0.0
 11
9.186126
 21
5.454791
 31
0.0
  0
LINE
  5
1c0
100
AcDbEntity
  8
0
 62
7
100
AcDbLine
 10
9.186126
 20
5.454791
 30
0.0
 11
9.233786
 21
6.033382
 31
0.0
  0
LINE
  5
1c1
100
AcDbEntity
  8
0
 62
7
100
AcDbLine
 10
9.233786
 20
6.033382
 30
0.0
 11
9.281446
 21
6.611973
 31
0.0
  0
LINE
  5
1c2
100
AcDbEntity
  8
0
 62
7
100
AcDbLine
 10
9.281446
 20
6.611973
 30
0.0
 11
9.329107
 21
7.190564
 31
0.0
  0
LINE
  5
1c3
100
AcDbEntity
  8
0
 62
7
100
AcDbLine
 10
9.329107
 20
7.190564
 30
0.0
 11
9.376767
 21
7.769154
 31
0.0
  0
LINE
  5
1c4
100
AcDbEntity
  8
0
 62
7
100
AcDbLine
 10
9.376767
 20
7.769154
 30
0.0
 11
9.424427
 21
8.347745
 31
0.0
  0
LINE
  5
1c5
100
AcDbEntity
  8
0
 62
7
100
AcDbLine
 10
9.424427
 20
8.347745
 30
0.0
 11
9.472087
 21
8.926336
 31
0.0
  0
LINE
  5
1c6
100
AcDbEntity
  8
0
 62
7
100
AcDbLine
 10
9.472087
 20
8.926336
 30
0.0
 11
9.519748
 21
9.504927
 31
0.0
  0
LINE
  5
1c7
100
AcDbEntity
  8
0
 62
7
100
AcDbLine
 10
9.519748
 20
9.504927
 30
0.0
 11
9.567408
 21
10.083518
 31
0.0
  0
LINE
  5
1c8
100
AcDbEntity
  8
0
 62
7
100
AcDbLine
 10
9.567408
 20
10.083518
 30
0.0
 11
9.930646
 21
10.050711
 31
0.0
  0
LINE
  5
1c9
100
AcDbEntity
  8
0
 62
7
100
AcDbLine
 10
9.930646
 20
10.050711
 30
0.0
 11
10.297645
 21
10.021989
 31
0.0
  0
LINE
  5
1ca
100
AcDbEntity
  8
0
 62
7
100
AcDbLine
 10
10.297645
 20
10.021989
 30
0.0
 11
10.668275
 21
9.997441
 31
0.0
  0
LINE
  5
1cb
100
AcDbEntity
  8
0
 62
7
100
AcDbLine
 10
10.668275
 20
9.997441
 30
0.0
 11
11.042407
 21
9.977155
 31
0.0
  0
LINE
  5
1cc
100
AcDbEntity
  8
0
 62
7
100
AcDbLine
 10
11.042407
 20
9.977155
 30
0.0
 11
11.419913
 21
9.961224
 31
0.0
  0
LINE
  5
1cd
100
AcDbEntity
  8
0
 62
7
100
AcDbLine
 10
11.419913
 20
9.961224
 30
0.0
 11
11.800663
 21
9.949731
 31
0.0
  0
LINE
  5
1ce
100
AcDbEntity
  8
0
 62
7
100
AcDbLine
 10
11.800663
 20
9.949731
 30
0.0
 11
12.184529
 21
9.942772
 31
0.0
  0
LINE
  5
1cf
100
AcDbEntity
  8
0
 62
7
100
AcDbLine
 10
12.184529
 20
9.942772
 30
0.0
 11
12.571381
 21
9.940429
 31
0.0
  0
LINE
  5
1d0
100
AcDbEntity
  8
0
 62
7
100
AcDbLine
 10
12.571381
 20
9.940429
 30
0.0
 11
12.944477
 21
9.942631
 31
0.0
  0
LINE
  5
1d1
100
AcDbEntity
  8
0
 62
7
100
AcDbLine
 10
12.944477
 20
9.942631
 30
0.0
 11
13.314807
 21
9.949156
 31
0.0
  0
LINE
  5
1d2
100
AcDbEntity
  8
0
 62
7
100
AcDbLine
 10
13.314807
 20
9.949156
 30
0.0
 11
13.682254
 21
9.959920
 31
0.0
  0
LINE
  5
1d3
100
AcDbEntity
  8
0
 62
7
100
AcDbLine
 10
13.682254
 20
9.959920
 30
0.0
 11
14.046698
 21
9.974835
 31
0.0
  0
LINE
  5
1d4
100
AcDbEntity
  8
0
 62
7
100
AcDbLine
 10
14.046698
 20
9.974835
 30
0.0
 11
14.408019
 21
9.993812
 31
0.0
  0
LINE
  5
1d5
100
AcDbEntity
  8
0
 62
7
100
AcDbLine
 10
14.408019
 20
9.993812
 30
0.0
 11
14.766100
 21
10.016759
 31
0.0
  0
LINE
  5
1d6
100
AcDbEntity
  8
0
 62
7
100
AcDbLine
 10
14.766100
 20
10.016759
 30
0.0
 11
15.120820
 21
10.043590
 31
0.0
  0
LINE
  5
1d7
100
AcDbEntity
  8
0
 62
7
100
AcDbLine
 10
15.120820
 20
10.043590
 30
0.0
 11
15.472061
 21
10.074214
 31
0.0
  0
LINE
  5
1d8
100
AcDbEntity
  8
0
 62
7
100
AcDbLine
 10
15.472061
 20
10.074214
 30
0.0
 11
15.512243
 21
9.496823
 31
0.0
  0
LINE
  5
1d9
100
AcDbEntity
  8
0
 62
7
100
AcDbLine
 10
15.512243
 20
9.496823
 30
0.0
 11
15.552424
 21
8.919431
 31
0.0
  0
LINE
  5
1da
100
AcDbEntity
  8
0
 62
7
100
AcDbLine
 10
15.552424
 20
8.919431
 30
0.0
 11
15.592605
 21
8.342040
 31
0.0
  0
LINE
  5
1db
100
AcDbEntity
  8
0
 62
7
100
AcDbLine
 10
15.592605
 20
8.342040
 30
0.0
 11
15.632787
 21
7.764648
 31
0.0
  0
LINE
  5
1dc
100
AcDbEntity
  8
0
 62
7
100
AcDbLine
 10
15.632787
 20
7.764648
 30
0.0
 11
15.672968
 21
7.187257
 31
0.0
  0
LINE
  5
1dd
100
AcDbEntity
  8
0
 62
7
100
AcDbLine
 10
15.672968
 20
7.187257
 30
0.0
 11
15.713150
 21
6.609866
 31
0.0
  0
LINE
  5
1de
100
AcDbEntity
  8
0
 62
7
100
AcDbLine
 10
15.713150
 20
6.609866
 30
0.0
 11
15.753331
 21
6.032474
 31
0.0
  0
LINE
  5
1df
100
AcDbEntity
  8
0
 62
7
100
AcDbLine
 10
15.753331
 20
6.032474
 30
0.0
 11
15.793512
 21
5.455083
 31
0.0
  0
LINE
  5
1e0
100
AcDbEntity
  8
0
 62
7
100
AcDbLine
 10
15.793512
 20
5.455083
 30
0.0
 11
15.979462
 21
5.455083
 31
0.0
  0
LINE
  5
1e1
100
AcDbEntity
  8
0
 62
7
100
AcDbLine
 10
15.979462
 20
5.455083
 30
0.0
 11
16.165411
 21
5.455083
 31
0.0
  0
LINE
  5
1e2
100
AcDbEntity
  8
0
 62
7
100
AcDbLine
 10
16.165411
 20
5.455083
 30
0.0
 11
16.351360
 21
5.455083
 31
0.0
  0
LINE
  5
1e3
100
AcDbEntity
  8
0
 62
7
100
AcDbLine
 10
16.351360
 20
5.455083
 30
0.0
 11
16.537309
 21
5.455083
 31
0.0
  0
LINE
  5
1e4
100
AcDbEntity
  8
0
 62
7
100
AcDbLine
 10
16.537309
 20
5.455083
 30
0.0
 11
16.723258
 21
5.455083
 31
0.0
  0
LINE
  5
1e5
100
AcDbEntity
  8
0
 62
7
100
AcDbLine
 10
16.723258
 20
5.455083
 30
0.0
 11
16.909207
 21
5.455083
 31
0.0
  0
LINE
  5
1e6
100
AcDbEntity
  8
0
 62
7
100
AcDbLine
 10
16.909207
 20
5.455083
 30
0.0
 11
17.095157
 21
5.455083
 31
0.0
  0
LINE
  5
1e7
100
AcDbEntity
  8
0
 62
7
100
AcDbLine
 10
17.095157
 20
5.455083
 30
0.0
 11
17.281106
 21
5.455083
 31
0.0
  0
LINE
  5
1e8
100
AcDbEntity
  8
0
 62
7
100
AcDbLine
 10
17.281106
 20
5.455083
 30
0.0
 11
17.331765
 21
6.069128
 31
0.0
  0
LINE
  5
1e9
100
AcDbEntity
  8
0
 62
7
100
AcDbLine
 10
17.331765
 20
6.069128
 30
0.0
 11
17.382423
 21
6.683173
 31
0.0
  0
LINE
  5
1ea
100
AcDbEntity
  8
0
 62
7
100
AcDbLine
 10
17.382423
 20
6.683173
 30
0.0
 11
17.433082
 21
7.297218
 31
0.0
  0
LINE
  5
1eb
100
AcDbEntity
  8
0
 62
7
100
AcDbLine
 10
17.433082
 20
7.297218
 30
0.0
 11
17.483741
 21
7.911263
 31
0.0
  0
LINE
  5
1ec
100
AcDbEntity
  8
0
 62
7
100
AcDbLine
 10
17.483741
 20
7.911263
 30
0.0
 11
17.534400
 21
8.525308
 31
0.0
  0
LINE
  5
1ed
100
AcDbEntity
  8
0
 62
7
100
AcDbLine
 10
17.534400
 20
8.525308
 30
0.0
 11
17.585059
 21
9.139353
 31
0.0
  0
LINE
  5
1ee
100
AcDbEntity
  8
0
 62
7
100
AcDbLine
 10
17.585059
 20
9.139353
 30
0.0
 11
17.635718
 21
9.753398
 31
0.0
  0
LINE
  5
1ef
100
AcDbEntity
  8
0
 62
7
100
AcDbLine
 10
17.635718
 20
9.753398
 30
0.0
 11
17.686377
 21
10.367443
 31
0.0
  0
LINE
  5
1f0
100
AcDbEntity
  8
0
 62
7
100
AcDbLine
 10
17.686377
 20
10.367443
 30
0.0
 11
18.528468
 21
10.529766
 31
0.0
  0
LINE
  5
1f1
100
AcDbEntity
  8
0
 62
7
100
AcDbLine
 10
18.528468
 20
10.529766
 30
0.0
 11
19.334374
 21
10.715432
 31
0.0
  0
LINE
  5
1f2
100
AcDbEntity
  8
0
 62
7
100
AcDbLine
 10
19.334374
 20
10.715432
 30
0.0
 11
20.101326
 21
10.923336
 31
0.0
  0
LINE
  5
1f3
100
AcDbEntity
  8
0
 62
7
100
AcDbLine
 10
20.101326
 20
10.923336
 30
0.0
 11
20.826558
 21
11.152373
 31
0.0
  0
LINE
  5
1f4
100
AcDbEntity
  8
0
 62
7
100
AcDbLine
 10
20.826558
 20
11.152373
 30
0.0
 11
21.507299
 21
11.401440
 31
0.0
  0
LINE
  5
1f5
100
AcDbEntity
  8
0
 62
7
100
AcDbLine
 10
21.507299
 20
11.401440
 30
0.0
 11
22.140783
 21
11.669431
 31
0.0
  0
LINE
  5
1f6
100
AcDbEntity
  8
0
 62
7
100
AcDbLine
 10
22.140783
 20
11.669431
 30
0.0
 11
22.724240
 21
11.955242
 31
0.0
  0
LINE
  5
1f7
100
AcDbEntity
  8
0
 62
7
100
AcDbLine
 10
22.724240
 20
11.955242
 30
0.0
 11
23.254903
 21
12.257758
 31
0.0
  0
LINE
  5
1f8
100
AcDbEntity
  8
0
 62
7
100
AcDbLine
 10
23.254903
 20
12.257758
 30
0.0
 11
23.250458
 21
11.760200
 31
0.0
  0
LINE
  5
1f9
100
AcDbEntity
  8
0
 62
7
100
AcDbLine
 10
23.250458
 20
11.760200
 30
0.0
 11
23.246013
 21
11.262642
 31
0.0
  0
LINE
  5
1fa
100
AcDbEntity
  8
0
 62
7
100
AcDbLine
 10
23.246013
 20
11.262642
 30
0.0
 11
23.241568
 21
10.765084
 31
0.0
  0
LINE
  5
1fb
100
AcDbEntity
  8
0
 62
7
100
AcDbLine
 10
23.241568
 20
10.765084
 30
0.0
 11
23.237123
 21
10.267527
 31
0.0
  0
LINE
  5
1fc
100
AcDbEntity
  8
0
 62
7
100
AcDbLine
 10
23.237123
 20
10.267527
 30
0.0
 11
23.232678
 21
9.769969
 31
0.0
  0
LINE
  5
1fd
100
AcDbEntity
  8
0
 62
7
100
AcDbLine
 10
23.232678
 20
9.769969
 30
0.0
 11
23.228233
 21
9.272411
 31
0.0
  0
LINE
  5
1fe
100
AcDbEntity
  8
0
 62
7
100
AcDbLine
 10
23.228233
 20
9.272411
 30
0.0
 11
23.223788
 21
8.774853
 31
0.0
  0
LINE
  5
1ff
100
AcDbEntity
  8
0
 62
7
100
AcDbLine
 10
23.223788
 20
8.774853
 30
0.0
 11
23.219343
 21
8.277296
 31
0.0
  0
LINE
  5
200
100
AcDbEntity
  8
0
 62
7
100
AcDbLine
 10
23.219343
 20
8.277296
 30
0.0
 11
23.407692
 21
8.277296
 31
0.0
  0
LINE
  5
201
100
AcDbEntity
  8
0
 62
7
100
AcDbLine
 10
23.407692
 20
8.277296
 30
0.0
 11
23.596040
 21
8.277296
 31
0.0
  0
LINE
  5
202
100
AcDbEntity
  8
0
 62
7
100
AcDbLine
 10
23.596040
 20
8.277296
 30
0.0
 11
23.784388
 21
8.277296
 31
0.0
  0
LINE
  5
203
100
AcDbEntity
  8
0
 62
7
100
AcDbLine
 10
23.784388
 20
8.277296
 30
0.0
 11
23.972736
 21
8.277296
 31
0.0
  0
LINE
  5
204
100
AcDbEntity
  8
0
 62
7
100
AcDbLine
 10
23.972736
 20
8.277296
 30
0.0
 11
24.161084
 21
8.277296
 31
0.0
  0
LINE
  5
205
100
AcDbEntity
  8
0
 62
7
100
AcDbLine
 10
24.161084
 20
8.277296
 30
0.0
 11
24.349432
 21
8.277296
 31
0.0
  0
LINE
  5
206
100
AcDbEntity
  8
0
 62
7
100
AcDbLine
 10
24.349432
 20
8.277296
 30
0.0
 11
24.537780
 21
8.277296
 31
0.0
  0
LINE
  5
207
100
AcDbEntity
  8
0
 62
7
100
AcDbLine
 10
24.537780
 20
8.277296
 30
0.0
 11
24.726128
 21
8.277296
 31
0.0
  0
LINE
  5
208
100
AcDbEntity
  8
0
 62
7
100
AcDbLine
 10
24.726128
 20
8.277296
 30
0.0
 11
24.746908
 21
8.587546
 31
0.0
  0
LINE
  5
209
100
AcDbEntity
  8
0
 62
7
100
AcDbLine
 10
24.746908
 20
8.587546
 30
0.0
 11
24.801141
 21
9.407062
 31
0.0
  0
LINE
  5
20a
100
AcDbEntity
  8
0
 62
7
100
AcDbLine
 10
24.801141
 20
9.407062
 30
0.0
 11
24.876667
 21
10.568996
 31
0.0
  0
LINE
  5
20b
100
AcDbEntity
  8
0
 62
7
100
AcDbLine
 10
24.876667
 20
10.568996
 30
0.0
 11
24.961325
 21
11.906497
 31
0.0
  0
LINE
  5
20c
100
AcDbEntity
  8
0
 62
7
100
AcDbLine
 10
24.961325
 20
11.906497
 30
0.0
 11
25.042952
 21
13.252716
 31
0.0
  0
LINE
  5
20d
100
AcDbEntity
  8
0
 62
7
100
AcDbLine
 10
25.042952
 20
13.252716
 30
0.0
 11
25.109390
 21
14.440804
 31
0.0
  0
LINE
  5
20e
100
AcDbEntity
  8
0
 62
7
100
AcDbLine
 10
25.109390
 20
14.440804
 30
0.0
 11
25.148476
 21
15.303911
 31
0.0
  0
LINE
  5
20f
100
AcDbEntity
  8
0
 62
7
100
AcDbLine
 10
25.148476
 20
15.303911
 30
0.0
 11
25.148050
 21
15.675187
 31
0.0
  0
LINE
  5
210
100
AcDbEntity
  8
0
 62
7
100
AcDbLine
 10
17.942070
 20
20.054993
 30
0.0
 11
18.014883
 21
20.743263
 31
0.0
  0
LINE
  5
211
100
AcDbEntity
  8
0
 62
7
100
AcDbLine
 10
18.014883
 20
20.743263
 30
0.0
 11
18.087697
 21
21.431532
 31
0.0
  0
LINE
  5
212
100
AcDbEntity
  8
0
 62
7
100
AcDbLine
 10
18.087697
 20
21.431532
 30
0.0
 11
18.160510
 21
22.119802
 31
0.0
  0
LINE
  5
213
100
AcDbEntity
  8
0
 62
7
100
AcDbLine
 10
18.160510
 20
22.119802
 30
0.0
 11
18.233323
 21
22.808071
 31
0.0
  0
LINE
  5
214
100
AcDbEntity
  8
0
 62
7
100
AcDbLine
 10
18.233323
 20
22.808071
 30
0.0
 11
18.340206
 21
23.145066
 31
0.0
  0
LINE
  5
215
100
AcDbEntity
  8
0
 62
7
100
AcDbLine
 10
18.340206
 20
23.145066
 30
0.0
 11
18.553081
 21
23.414037
 31
0.0
  0
LINE
  5
216
100
AcDbEntity
  8
0
 62
7
100
AcDbLine
 10
18.553081
 20
23.414037
 30
0.0
 11
18.846178
 21
23.592256
 31
0.0
  0
LINE
  5
217
100
AcDbEntity
  8
0
 62
7
100
AcDbLine
 10
18.846178
 20
23.592256
 30
0.0
 11
19.193726
 21
23.656996
 31
0.0
  0
LINE
  5
218
100
AcDbEntity
  8
0
 62
7
100
AcDbLine
 10
19.193726
 20
23.656996
 30
0.0
 11
20.386256
 21
23.658266
 31
0.0
  0
LINE
  5
219
100
AcDbEntity
  8
0
 62
7
100
AcDbLine
 10
20.386256
 20
23.658266
 30
0.0
 11
21.578786
 21
23.659536
 31
0.0
  0
LINE
  5
21a
100
AcDbEntity
  8
0
 62
7
100
AcDbLine
 10
21.578786
 20
23.659536
 30
0.0
 11
22.771316
 21
23.660806
 31
0.0
  0
LINE
  5
21b
100
AcDbEntity
  8
0
 62
7
100
AcDbLine
 10
22.771316
 20
23.660806
 30
0.0
 11
23.963846
 21
23.662076
 31
0.0
  0
LINE
  5
21c
100
AcDbEntity
  8
0
 62
7
100
AcDbLine
 10
23.963846
 20
23.662076
 30
0.0
 11
24.319975
 21
23.594889
 31
0.0
  0
LINE
  5
21d
100
AcDbEntity
  8
0
 62
7
100
AcDbLine
 10
24.319975
 20
23.594889
 30
0.0
 11
24.617896
 21
23.409063
 31
0.0
  0
LINE
  5
21e
100
AcDbEntity
  8
0
 62
7
100
AcDbLine
 10
24.617896
 20
23.409063
 30
0.0
 11
24.830303
 21
23.129469
 31
0.0
  0
LINE
  5
21f
100
AcDbEntity
  8
0
 62
7
100
AcDbLine
 10
24.830303
 20
23.129469
 30
0.0
 11
24.929892
 21
22.780978
 31
0.0
  0
LINE
  5
220
100
AcDbEntity
  8
0
 62
7
100
AcDbLine
 10
24.929892
 20
22.780978
 30
0.0
 11
24.959592
 21
22.461582
 31
0.0
  0
LINE
  5
221
100
AcDbEntity
  8
0
 62
7
100
AcDbLine
 10
24.959592
 20
22.461582
 30
0.0
 11
25.030752
 21
21.231225
 31
0.0
  0
LINE
  5
222
100
AcDbEntity
  8
0
 62
7
100
AcDbLine
 10
25.030752
 20
21.231225
 30
0.0
 11
25.117733
 21
19.424606
 31
0.0
  0
LINE
  5
223
100
AcDbEntity
  8
0
 62
7
100
AcDbLine
 10
25.117733
 20
19.424606
 30
0.0
 11
25.194899
 21
17.376422
 31
0.0
  0
LINE
  5
224
100
AcDbEntity
  8
0
 62
7
100
AcDbLine
 10
25.194899
 20
17.376422
 30
0.0
 11
25.195238
 21
17.347728
 31
0.0
  0
LINE
  5
225
100
AcDbEntity
  8
0
 62
7
100
AcDbLine
 10
25.195238
 20
17.347728
 30
0.0
 11
25.194447
 21
17.319166
 31
0.0
  0
LINE
  5
226
100
AcDbEntity
  8
0
 62
7
100
AcDbLine
 10
25.194447
 20
17.319166
 30
0.0
 11
25.192331
 21
17.290657
 31
0.0
  0
LINE
  5
227
100
AcDbEntity
  8
0
 62
7
100
AcDbLine
 10
25.192331
 20
17.290657
 30
0.0
 11
25.188690
 21
17.262122
 31
0.0
  0
LINE
  5
228
100
AcDbEntity
  8
0
 62
7
100
AcDbLine
 10
25.188690
 20
17.262122
 30
0.0
 11
25.013086
 21
16.493737
 31
0.0
  0
LINE
  5
229
100
AcDbEntity
  8
0
 62
7
100
AcDbLine
 10
25.013086
 20
16.493737
 30
0.0
 11
24.621847
 21
15.704820
 31
0.0
  0
LINE
  5
22a
100
AcDbEntity
  8
0
 62
7
100
AcDbLine
 10
24.621847
 20
15.704820
 30
0.0
 11
23.886226
 21
14.978980
 31
0.0
  0
LINE
  5
22b
100
AcDbEntity
  8
0
 62
7
100
AcDbLine
 10
23.886226
 20
14.978980
 30
0.0
 11
22.677477
 21
14.399824
 31
0.0
  0
LINE
  5
22c
100
AcDbEntity
  8
0
 62
7
100
AcDbLine
 10
22.677477
 20
14.399824
 30
0.0
 11
21.959204
 21
14.335249
 31
0.0
  0
LINE
  5
22d
100
AcDbEntity
  8
0
 62
7
100
AcDbLine
 10
21.959204
 20
14.335249
 30
0.0
 11
21.569966
 21
14.606693
 31
0.0
  0
LINE
  5
22e
100
AcDbEntity
  8
0
 62
7
100
AcDbLine
 10
21.569966
 20
14.606693
 30
0.0
 11
21.488598
 21
15.054668
 31
0.0
  0
LINE
  5
22f
100
AcDbEntity
  8
0
 62
7
100
AcDbLine
 10
21.488598
 20
15.054668
 30
0.0
 11
21.693932
 21
15.519682
 31
0.0
  0
LINE
  5
230
100
AcDbEntity
  8
0
 62
7
100
AcDbLine
 10
21.693932
 20
15.519682
 30
0.0
 11
22.018814
 21
15.911751
 31
0.0
  0
LINE
  5
231
100
AcDbEntity
  8
0
 62
7
100
AcDbLine
 10
22.018814
 20
15.911751
 30
0.0
 11
22.318137
 21
16.267783
 31
0.0
  0
LINE
  5
232
100
AcDbEntity
  8
0
 62
7
100
AcDbLine
 10
22.318137
 20
16.267783
 30
0.0
 11
22.584123
 21
16.594499
 31
0.0
  0
LINE
  5
233
100
AcDbEntity
  8
0
 62
7
100
AcDbLine
 10
22.584123
 20
16.594499
 30
0.0
 11
22.808992
 21
16.898620
 31
0.0
  0
LINE
  5
234
100
AcDbEntity
  8
0
 62
7
100
AcDbLine
 10
22.808992
 20
16.898620
 30
0.0
 11
22.946532
 21
17.276516
 31
0.0
  0
LINE
  5
235
100
AcDbEntity
  8
0
 62
7
100
AcDbLine
 10
22.946532
 20
17.276516
 30
0.0
 11
23.003585
 21
17.759186
 31
0.0
  0
LINE
  5
236
100
AcDbEntity
  8
0
 62
7
100
AcDbLine
 10
23.003585
 20
17.759186
 30
0.0
 11
23.011954
 21
18.196877
 31
0.0
  0
LINE
  5
237
100
AcDbEntity
  8
0
 62
7
100
AcDbLine
 10
23.011954
 20
18.196877
 30
0.0
 11
23.003443
 21
18.439836
 31
0.0
  0
LINE
  5
238
100
AcDbEntity
  8
0
 62
7
100
AcDbLine
 10
23.003443
 20
18.439836
 30
0.0
 11
22.704341
 21
18.597664
 31
0.0
  0
LINE
  5
239
100
AcDbEntity
  8
0
 62
7
100
AcDbLine
 10
22.704341
 20
18.597664
 30
0.0
 11
22.365551
 21
18.754831
 31
0.0
  0
LINE
  5
23a
100
AcDbEntity
  8
0
 62
7
100
AcDbLine
 10
22.365551
 20
18.754831
 30
0.0
 11
22.041895
 21
18.894059
 31
0.0
  0
LINE
  5
23b
100
AcDbEntity
  8
0
 62
7
100
AcDbLine
 10
22.041895
 20
18.894059
 30
0.0
 11
21.788195
 21
18.998071
 31
0.0
  0
LINE
  5
23c
100
AcDbEntity
  8
0
 62
7
100
AcDbLine
 10
21.788195
 20
18.998071
 30
0.0
 11
20.909465
 21
19.319028
 31
0.0
  0
LINE
  5
23d
100
AcDbEntity
  8
0
 62
7
100
AcDbLine
 10
20.909465
 20
19.319028
 30
0.0
 11
19.971283
 21
19.601674
 31
0.0
  0
LINE
  5
23e
100
AcDbEntity
  8
0
 62
7
100
AcDbLine
 10
19.971283
 20
19.601674
 30
0.0
 11
18.980026
 21
19.846749
 31
0.0
  0
LINE
  5
23f
100
AcDbEntity
  8
0
 62
7
100
AcDbLine
 10
18.980026
 20
19.846749
 30
0.0
 11
17.942070
 21
20.054993
 31
0.0
  0
LINE
  5
240
100
AcDbEntity
  8
0
 62
7
100
AcDbLine
 10
16.553255
 20
26.755796
 30
0.0
 11
16.146740
 21
26.635269
 31
0.0
  0
LINE
  5
241
100
AcDbEntity
  8
0
 62
7
100
AcDbLine
 10
16.146740
 20
26.635269
 30
0.0
 11
15.211217
 21
26.303817
 31
0.0
  0
LINE
  5
242
100
AcDbEntity
  8
0
 62
7
100
AcDbLine
 10
15.211217
 20
26.303817
 30
0.0
 11
14.172719
 21
25.806629
 31
0.0
  0
LINE
  5
243
100
AcDbEntity
  8
0
 62
7
100
AcDbLine
 10
14.172719
 20
25.806629
 30
0.0
 11
13.457277
 21
25.188898
 31
0.0
  0
LINE
  5
244
100
AcDbEntity
  8
0
 62
7
100
AcDbLine
 10
13.457277
 20
25.188898
 30
0.0
 11
13.260206
 21
24.824271
 31
0.0
  0
LINE
  5
245
100
AcDbEntity
  8
0
 62
7
100
AcDbLine
 10
13.260206
 20
24.824271
 30
0.0
 11
13.148385
 21
24.514916
 31
0.0
  0
LINE
  5
246
100
AcDbEntity
  8
0
 62
7
100
AcDbLine
 10
13.148385
 20
24.514916
 30
0.0
 11
13.099216
 21
24.245724
 31
0.0
  0
LINE
  5
247
100
AcDbEntity
  8
0
 62
7
100
AcDbLine
 10
13.099216
 20
24.245724
 30
0.0
 11
13.090106
 21
24.001589
 31
0.0
  0
LINE
  5
248
100
AcDbEntity
  8
0
 62
7
100
AcDbLine
 10
13.090106
 20
24.001589
 30
0.0
 11
13.091376
 21
24.003762
 31
0.0
  0
LINE
  5
249
100
AcDbEntity
  8
0
 62
7
100
AcDbLine
 10
13.091376
 20
24.003762
 30
0.0
 11
13.092646
 21
24.005963
 31
0.0
  0
LINE
  5
24a
100
AcDbEntity
  8
0
 62
7
100
AcDbLine
 10
13.092646
 20
24.005963
 30
0.0
 11
13.093916
 21
24.008136
 31
0.0
  0
LINE
  5
24b
100
AcDbEntity
  8
0
 62
7
100
AcDbLine
 10
13.093916
 20
24.008136
 30
0.0
 11
13.095186
 21
24.010338
 31
0.0
  0
LINE
  5
24c
100
AcDbEntity
  8
0
 62
7
100
AcDbLine
 10
13.095186
 20
24.010338
 30
0.0
 11
13.164039
 21
23.899411
 31
0.0
  0
LINE
  5
24d
100
AcDbEntity
  8
0
 62
7
100
AcDbLine
 10
13.164039
 20
23.899411
 30
0.0
 11
13.271786
 21
23.782479
 31
0.0
  0
LINE
  5
24e
100
AcDbEntity
  8
0
 62
7
100
AcDbLine
 10
13.271786
 20
23.782479
 30
0.0
 11
13.414352
 21
23.665810
 31
0.0
  0
LINE
  5
24f
100
AcDbEntity
  8
0
 62
7
100
AcDbLine
 10
13.414352
 20
23.665810
 30
0.0
 11
13.587663
 21
23.555678
 31
0.0
  0
LINE
  5
250
100
AcDbEntity
  8
0
 62
7
100
AcDbLine
 10
13.587663
 20
23.555678
 30
0.0
 11
13.772206
 21
23.465689
 31
0.0
  0
LINE
  5
251
100
AcDbEntity
  8
0
 62
7
100
AcDbLine
 10
13.772206
 20
23.465689
 30
0.0
 11
13.946192
 21
23.405359
 31
0.0
  0
LINE
  5
252
100
AcDbEntity
  8
0
 62
7
100
AcDbLine
 10
13.946192
 20
23.405359
 30
0.0
 11
14.102133
 21
23.374822
 31
0.0
  0
LINE
  5
253
100
AcDbEntity
  8
0
 62
7
100
AcDbLine
 10
14.102133
 20
23.374822
 30
0.0
 11
14.232541
 21
23.374201
 31
0.0
  0
LINE
  5
254
100
AcDbEntity
  8
0
 62
7
100
AcDbLine
 10
14.232541
 20
23.374201
 30
0.0
 11
14.229719
 21
23.369192
 31
0.0
  0
LINE
  5
255
100
AcDbEntity
  8
0
 62
7
100
AcDbLine
 10
14.229719
 20
23.369192
 30
0.0
 11
14.226897
 21
23.364182
 31
0.0
  0
LINE
  5
256
100
AcDbEntity
  8
0
 62
7
100
AcDbLine
 10
14.226897
 20
23.364182
 30
0.0
 11
14.224075
 21
23.359173
 31
0.0
  0
LINE
  5
257
100
AcDbEntity
  8
0
 62
7
100
AcDbLine
 10
14.224075
 20
23.359173
 30
0.0
 11
14.221252
 21
23.354163
 31
0.0
  0
LINE
  5
258
100
AcDbEntity
  8
0
 62
7
100
AcDbLine
 10
14.221252
 20
23.354163
 30
0.0
 11
14.449896
 21
23.512600
 31
0.0
  0
LINE
  5
259
100
AcDbEntity
  8
0
 62
7
100
AcDbLine
 10
14.449896
 20
23.512600
 30
0.0
 11
14.671820
 21
23.718485
 31
0.0
  0
LINE
  5
25a
100
AcDbEntity
  8
0
 62
7
100
AcDbLine
 10
14.671820
 20
23.718485
 30
0.0
 11
14.864746
 21
24.010880
 31
0.0
  0
LINE
  5
25b
100
AcDbEntity
  8
0
 62
7
100
AcDbLine
 10
14.864746
 20
24.010880
 30
0.0
 11
15.006395
 21
24.428873
 31
0.0
  0
LINE
  5
25c
100
AcDbEntity
  8
0
 62
7
100
AcDbLine
 10
15.006395
 20
24.428873
 30
0.0
 11
15.442640
 21
25.475040
 31
0.0
  0
LINE
  5
25d
100
AcDbEntity
  8
0
 62
7
100
AcDbLine
 10
15.442640
 20
25.475040
 30
0.0
 11
15.952756
 21
26.199077
 31
0.0
  0
LINE
  5
25e
100
AcDbEntity
  8
0
 62
7
100
AcDbLine
 10
15.952756
 20
26.199077
 30
0.0
 11
16.376407
 21
26.619742
 31
0.0
  0
LINE
  5
25f
100
AcDbEntity
  8
0
 62
7
100
AcDbLine
 10
16.376407
 20
26.619742
 30
0.0
 11
16.553255
 21
26.755796
 31
0.0
  0
LINE
  5
260
100
AcDbEntity
  8
0
 62
7
100
AcDbLine
 10
12.884366
 20
20.963749
 30
0.0
 11
13.140765
 21
21.422219
 31
0.0
  0
LINE
  5
261
100
AcDbEntity
  8
0
 62
7
100
AcDbLine
 10
13.140765
 20
21.422219
 30
0.0
 11
13.397163
 21
21.880689
 31
0.0
  0
LINE
  5
262
100
AcDbEntity
  8
0
 62
7
100
AcDbLine
 10
13.397163
 20
21.880689
 30
0.0
 11
13.653562
 21
22.339159
 31
0.0
  0
LINE
  5
263
100
AcDbEntity
  8
0
 62
7
100
AcDbLine
 10
13.653562
 20
22.339159
 30
0.0
 11
13.909961
 21
22.797629
 31
0.0
  0
LINE
  5
264
100
AcDbEntity
  8
0
 62
7
100
AcDbLine
 10
13.909961
 20
22.797629
 30
0.0
 11
13.779553
 21
22.798242
 31
0.0
  0
LINE
  5
265
100
AcDbEntity
  8
0
 62
7
100
AcDbLine
 10
13.779553
 20
22.798242
 30
0.0
 11
13.623612
 21
22.828779
 31
0.0
  0
LINE
  5
266
100
AcDbEntity
  8
0
 62
7
100
AcDbLine
 10
13.623612
 20
22.828779
 30
0.0
 11
13.449626
 21
22.889109
 31
0.0
  0
LINE
  5
267
100
AcDbEntity
  8
0
 62
7
100
AcDbLine
 10
13.449626
 20
22.889109
 30
0.0
 11
13.265083
 21
22.979098
 31
0.0
  0
LINE
  5
268
100
AcDbEntity
  8
0
 62
7
100
AcDbLine
 10
13.265083
 20
22.979098
 30
0.0
 11
13.091733
 21
23.089270
 31
0.0
  0
LINE
  5
269
100
AcDbEntity
  8
0
 62
7
100
AcDbLine
 10
13.091733
 20
23.089270
 30
0.0
 11
12.949100
 21
23.206004
 31
0.0
  0
LINE
  5
26a
100
AcDbEntity
  8
0
 62
7
100
AcDbLine
 10
12.949100
 20
23.206004
 30
0.0
 11
12.841340
 21
23.322950
 31
0.0
  0
LINE
  5
26b
100
AcDbEntity
  8
0
 62
7
100
AcDbLine
 10
12.841340
 20
23.322950
 30
0.0
 11
12.772606
 21
23.433758
 31
0.0
  0
LINE
  5
26c
100
AcDbEntity
  8
0
 62
7
100
AcDbLine
 10
12.772606
 20
23.433758
 30
0.0
 11
12.401554
 21
22.770394
 31
0.0
  0
LINE
  5
26d
100
AcDbEntity
  8
0
 62
7
100
AcDbLine
 10
12.401554
 20
22.770394
 30
0.0
 11
12.030502
 21
22.107031
 31
0.0
  0
LINE
  5
26e
100
AcDbEntity
  8
0
 62
7
100
AcDbLine
 10
12.030502
 20
22.107031
 30
0.0
 11
11.659451
 21
21.443668
 31
0.0
  0
LINE
  5
26f
100
AcDbEntity
  8
0
 62
7
100
AcDbLine
 10
11.659451
 20
21.443668
 30
0.0
 11
11.288399
 21
20.780304
 31
0.0
  0
LINE
  5
270
100
AcDbEntity
  8
0
 62
7
100
AcDbLine
 10
11.288399
 20
20.780304
 30
0.0
 11
11.714735
 21
20.871356
 31
0.0
  0
LINE
  5
271
100
AcDbEntity
  8
0
 62
7
100
AcDbLine
 10
11.714735
 20
20.871356
 30
0.0
 11
12.127763
 21
20.927060
 31
0.0
  0
LINE
  5
272
100
AcDbEntity
  8
0
 62
7
100
AcDbLine
 10
12.127763
 20
20.927060
 30
0.0
 11
12.520101
 21
20.955246
 31
0.0
  0
LINE
  5
273
100
AcDbEntity
  8
0
 62
7
100
AcDbLine
 10
12.520101
 20
20.955246
 30
0.0
 11
12.884366
 21
20.963749
 31
0.0
  0
LINE
  5
274
100
AcDbEntity
  8
0
 62
7
100
AcDbLine
 10
8.465895
 20
15.402560
 30
0.0
 11
8.140422
 21
14.377423
 31
0.0
  0
LINE
  5
275
100
AcDbEntity
  8
0
 62
7
100
AcDbLine
 10
8.140422
 20
14.377423
 30
0.0
 11
8.188752
 21
13.902831
 31
0.0
  0
LINE
  5
276
100
AcDbEntity
  8
0
 62
7
100
AcDbLine
 10
8.188752
 20
13.902831
 30
0.0
 11
8.493447
 21
14.005489
 31
0.0
  0
LINE
  5
277
100
AcDbEntity
  8
0
 62
7
100
AcDbLine
 10
8.493447
 20
14.005489
 30
0.0
 11
8.976999
 21
14.490418
 31
0.0
  0
LINE
  5
278
100
AcDbEntity
  8
0
 62
7
100
AcDbLine
 10
8.976999
 20
14.490418
 30
0.0
 11
8.687051
 21
14.930931
 31
0.0
  0
LINE
  5
279
100
AcDbEntity
  8
0
 62
7
100
AcDbLine
 10
8.687051
 20
14.930931
 30
0.0
 11
8.465895
 21
15.402560
 31
0.0
  0
LINE
  5
27a
100
AcDbEntity
  8
0
 62
7
100
AcDbLine
 10
16.768872
 20
16.781780
 30
0.0
 11
16.652784
 21
16.920787
 31
0.0
  0
LINE
  5
27b
100
AcDbEntity
  8
0
 62
7
100
AcDbLine
 10
16.652784
 20
16.920787
 30
0.0
 11
16.549246
 21
17.025316
 31
0.0
  0
LINE
  5
27c
100
AcDbEntity
  8
0
 62
7
100
AcDbLine
 10
16.549246
 20
17.025316
 30
0.0
 11
16.450703
 21
17.102559
 31
0.0
  0
LINE
  5
27d
100
AcDbEntity
  8
0
 62
7
100
AcDbLine
 10
16.450703
 20
17.102559
 30
0.0
 11
16.349596
 21
17.159711
 31
0.0
  0
LINE
  5
27e
100
AcDbEntity
  8
0
 62
7
100
AcDbLine
 10
16.349596
 20
17.159711
 30
0.0
 11
16.238369
 21
17.203964
 31
0.0
  0
LINE
  5
27f
100
AcDbEntity
  8
0
 62
7
100
AcDbLine
 10
16.238369
 20
17.203964
 30
0.0
 11
16.109465
 21
17.242512
 31
0.0
  0
LINE
  5
280
100
AcDbEntity
  8
0
 62
7
100
AcDbLine
 10
16.109465
 20
17.242512
 30
0.0
 11
15.955326
 21
17.282549
 31
0.0
  0
LINE
  5
281
100
AcDbEntity
  8
0
 62
7
100
AcDbLine
 10
15.955326
 20
17.282549
 30
0.0
 11
15.768395
 21
17.331267
 31
0.0
  0
LINE
  5
282
100
AcDbEntity
  8
0
 62
7
100
AcDbLine
 10
15.768395
 20
17.331267
 30
0.0
 11
15.531180
 21
17.378830
 31
0.0
  0
LINE
  5
283
100
AcDbEntity
  8
0
 62
7
100
AcDbLine
 10
15.531180
 20
17.378830
 30
0.0
 11
15.298371
 21
17.415704
 31
0.0
  0
LINE
  5
284
100
AcDbEntity
  8
0
 62
7
100
AcDbLine
 10
15.298371
 20
17.415704
 30
0.0
 11
15.078288
 21
17.454933
 31
0.0
  0
LINE
  5
285
100
AcDbEntity
  8
0
 62
7
100
AcDbLine
 10
15.078288
 20
17.454933
 30
0.0
 11
14.879253
 21
17.509561
 31
0.0
  0
LINE
  5
286
100
AcDbEntity
  8
0
 62
7
100
AcDbLine
 10
14.879253
 20
17.509561
 30
0.0
 11
14.709587
 21
17.592631
 31
0.0
  0
LINE
  5
287
100
AcDbEntity
  8
0
 62
7
100
AcDbLine
 10
14.709587
 20
17.592631
 30
0.0
 11
14.577611
 21
17.717188
 31
0.0
  0
LINE
  5
288
100
AcDbEntity
  8
0
 62
7
100
AcDbLine
 10
14.577611
 20
17.717188
 30
0.0
 11
14.491646
 21
17.896276
 31
0.0
  0
LINE
  5
289
100
AcDbEntity
  8
0
 62
7
100
AcDbLine
 10
14.491646
 20
17.896276
 30
0.0
 11
14.460012
 21
18.142938
 31
0.0
  0
LINE
  5
28a
100
AcDbEntity
  8
0
 62
7
100
AcDbLine
 10
14.460012
 20
18.142938
 30
0.0
 11
14.508977
 21
18.397521
 31
0.0
  0
LINE
  5
28b
100
AcDbEntity
  8
0
 62
7
100
AcDbLine
 10
14.508977
 20
18.397521
 30
0.0
 11
14.641759
 21
18.598669
 31
0.0
  0
LINE
  5
28c
100
AcDbEntity
  8
0
 62
7
100
AcDbLine
 10
14.641759
 20
18.598669
 30
0.0
 11
14.832425
 21
18.760679
 31
0.0
  0
LINE
  5
28d
100
AcDbEntity
  8
0
 62
7
100
AcDbLine
 10
14.832425
 20
18.760679
 30
0.0
 11
15.055043
 21
18.897847
 31
0.0
  0
LINE
  5
28e
100
AcDbEntity
  8
0
 62
7
100
AcDbLine
 10
15.055043
 20
18.897847
 30
0.0
 11
15.283680
 21
19.024472
 31
0.0
  0
LINE
  5
28f
100
AcDbEntity
  8
0
 62
7
100
AcDbLine
 10
15.283680
 20
19.024472
 30
0.0
 11
15.492403
 21
19.154850
 31
0.0
  0
LINE
  5
290
100
AcDbEntity
  8
0
 62
7
100
AcDbLine
 10
15.492403
 20
19.154850
 30
0.0
 11
15.655281
 21
19.303279
 31
0.0
  0
LINE
  5
291
100
AcDbEntity
  8
0
 62
7
100
AcDbLine
 10
15.655281
 20
19.303279
 30
0.0
 11
15.746381
 21
19.484058
 31
0.0
  0
LINE
  5
292
100
AcDbEntity
  8
0
 62
7
100
AcDbLine
 10
15.746381
 20
19.484058
 30
0.0
 11
15.758886
 21
19.645084
 31
0.0
  0
LINE
  5
293
100
AcDbEntity
  8
0
 62
7
100
AcDbLine
 10
15.758886
 20
19.645084
 30
0.0
 11
15.714971
 21
19.823580
 31
0.0
  0
LINE
  5
294
100
AcDbEntity
  8
0
 62
7
100
AcDbLine
 10
15.714971
 20
19.823580
 30
0.0
 11
15.595365
 21
20.008439
 31
0.0
  0
LINE
  5
295
100
AcDbEntity
  8
0
 62
7
100
AcDbLine
 10
15.595365
 20
20.008439
 30
0.0
 11
15.380798
 21
20.188555
 31
0.0
  0
LINE
  5
296
100
AcDbEntity
  8
0
 62
7
100
AcDbLine
 10
15.380798
 20
20.188555
 30
0.0
 11
15.051996
 21
20.352823
 31
0.0
  0
LINE
  5
297
100
AcDbEntity
  8
0
 62
7
100
AcDbLine
 10
15.051996
 20
20.352823
 30
0.0
 11
14.589689
 21
20.490136
 31
0.0
  0
LINE
  5
298
100
AcDbEntity
  8
0
 62
7
100
AcDbLine
 10
14.589689
 20
20.490136
 30
0.0
 11
13.974605
 21
20.589389
 31
0.0
  0
LINE
  5
299
100
AcDbEntity
  8
0
 62
7
100
AcDbLine
 10
13.974605
 20
20.589389
 30
0.0
 11
13.187472
 21
20.639476
 31
0.0
  0
LINE
  5
29a
100
AcDbEntity
  8
0
 62
7
100
AcDbLine
 10
13.187472
 20
20.639476
 30
0.0
 11
13.091304
 21
20.641282
 31
0.0
  0
LINE
  5
29b
100
AcDbEntity
  8
0
 62
7
100
AcDbLine
 10
13.091304
 20
20.641282
 30
0.0
 11
12.994812
 21
20.642016
 31
0.0
  0
LINE
  5
29c
100
AcDbEntity
  8
0
 62
7
100
AcDbLine
 10
12.994812
 20
20.642016
 30
0.0
 11
12.898041
 21
20.641705
 31
0.0
  0
LINE
  5
29d
100
AcDbEntity
  8
0
 62
7
100
AcDbLine
 10
12.898041
 20
20.641705
 30
0.0
 11
12.801040
 21
20.640350
 31
0.0
  0
LINE
  5
29e
100
AcDbEntity
  8
0
 62
7
100
AcDbLine
 10
12.801040
 20
20.640350
 30
0.0
 11
12.703853
 21
20.637952
 31
0.0
  0
LINE
  5
29f
100
AcDbEntity
  8
0
 62
7
100
AcDbLine
 10
12.703853
 20
20.637952
 30
0.0
 11
12.606527
 21
20.634508
 31
0.0
  0
LINE
  5
2a0
100
AcDbEntity
  8
0
 62
7
100
AcDbLine
 10
12.606527
 20
20.634508
 30
0.0
 11
12.509108
 21
20.630027
 31
0.0
  0
LINE
  5
2a1
100
AcDbEntity
  8
0
 62
7
100
AcDbLine
 10
12.509108
 20
20.630027
 30
0.0
 11
12.411643
 21
20.624509
 31
0.0
  0
LINE
  5
2a2
100
AcDbEntity
  8
0
 62
7
100
AcDbLine
 10
12.411643
 20
20.624509
 30
0.0
 11
12.370116
 21
20.622110
 31
0.0
  0
LINE
  5
2a3
100
AcDbEntity
  8
0
 62
7
100
AcDbLine
 10
12.370116
 20
20.622110
 30
0.0
 11
12.328719
 21
20.619373
 31
0.0
  0
LINE
  5
2a4
100
AcDbEntity
  8
0
 62
7
100
AcDbLine
 10
12.328719
 20
20.619373
 30
0.0
 11
12.287446
 21
20.616260
 31
0.0
  0
LINE
  5
2a5
100
AcDbEntity
  8
0
 62
7
100
AcDbLine
 10
12.287446
 20
20.616260
 30
0.0
 11
12.246297
 21
20.612772
 31
0.0
  0
LINE
  5
2a6
100
AcDbEntity
  8
0
 62
7
100
AcDbLine
 10
12.246297
 20
20.612772
 30
0.0
 11
12.205266
 21
20.608900
 31
0.0
  0
LINE
  5
2a7
100
AcDbEntity
  8
0
 62
7
100
AcDbLine
 10
12.205266
 20
20.608900
 30
0.0
 11
12.164351
 21
20.604635
 31
0.0
  0
LINE
  5
2a8
100
AcDbEntity
  8
0
 62
7
100
AcDbLine
 10
12.164351
 20
20.604635
 30
0.0
 11
12.123548
 21
20.599967
 31
0.0
  0
LINE
  5
2a9
100
AcDbEntity
  8
0
 62
7
100
AcDbLine
 10
12.123548
 20
20.599967
 30
0.0
 11
12.082855
 21
20.594884
 31
0.0
  0
LINE
  5
2aa
100
AcDbEntity
  8
0
 62
7
100
AcDbLine
 10
12.082855
 20
20.594884
 30
0.0
 11
11.761407
 21
20.549656
 31
0.0
  0
LINE
  5
2ab
100
AcDbEntity
  8
0
 62
7
100
AcDbLine
 10
11.761407
 20
20.549656
 30
0.0
 11
11.443366
 21
20.485043
 31
0.0
  0
LINE
  5
2ac
100
AcDbEntity
  8
0
 62
7
100
AcDbLine
 10
11.443366
 20
20.485043
 30
0.0
 11
11.130444
 21
20.398436
 31
0.0
  0
LINE
  5
2ad
100
AcDbEntity
  8
0
 62
7
100
AcDbLine
 10
11.130444
 20
20.398436
 30
0.0
 11
10.824355
 21
20.287227
 31
0.0
  0
LINE
  5
2ae
100
AcDbEntity
  8
0
 62
7
100
AcDbLine
 10
10.824355
 20
20.287227
 30
0.0
 11
10.526812
 21
20.148805
 31
0.0
  0
LINE
  5
2af
100
AcDbEntity
  8
0
 62
7
100
AcDbLine
 10
10.526812
 20
20.148805
 30
0.0
 11
10.239529
 21
19.980562
 31
0.0
  0
LINE
  5
2b0
100
AcDbEntity
  8
0
 62
7
100
AcDbLine
 10
10.239529
 20
19.980562
 30
0.0
 11
9.964218
 21
19.779887
 31
0.0
  0
LINE
  5
2b1
100
AcDbEntity
  8
0
 62
7
100
AcDbLine
 10
9.964218
 20
19.779887
 30
0.0
 11
9.702592
 21
19.544171
 31
0.0
  0
LINE
  5
2b2
100
AcDbEntity
  8
0
 62
7
100
AcDbLine
 10
9.702592
 20
19.544171
 30
0.0
 11
9.498716
 21
19.324870
 31
0.0
  0
LINE
  5
2b3
100
AcDbEntity
  8
0
 62
7
100
AcDbLine
 10
9.498716
 20
19.324870
 30
0.0
 11
9.314431
 21
19.095112
 31
0.0
  0
LINE
  5
2b4
100
AcDbEntity
  8
0
 62
7
100
AcDbLine
 10
9.314431
 20
19.095112
 30
0.0
 11
9.149725
 21
18.856079
 31
0.0
  0
LINE
  5
2b5
100
AcDbEntity
  8
0
 62
7
100
AcDbLine
 10
9.149725
 20
18.856079
 30
0.0
 11
9.004586
 21
18.608957
 31
0.0
  0
LINE
  5
2b6
100
AcDbEntity
  8
0
 62
7
100
AcDbLine
 10
9.004586
 20
18.608957
 30
0.0
 11
8.879000
 21
18.354930
 31
0.0
  0
LINE
  5
2b7
100
AcDbEntity
  8
0
 62
7
100
AcDbLine
 10
8.879000
 20
18.354930
 30
0.0
 11
8.772952
 21
18.095180
 31
0.0
  0
LINE
  5
2b8
100
AcDbEntity
  8
0
 62
7
100
AcDbLine
 10
8.772952
 20
18.095180
 30
0.0
 11
8.686431
 21
17.830894
 31
0.0
  0
LINE
  5
2b9
100
AcDbEntity
  8
0
 62
7
100
AcDbLine
 10
8.686431
 20
17.830894
 30
0.0
 11
8.619423
 21
17.563253
 31
0.0
  0
LINE
  5
2ba
100
AcDbEntity
  8
0
 62
7
100
AcDbLine
 10
8.619423
 20
17.563253
 30
0.0
 11
8.618605
 21
17.559127
 31
0.0
  0
LINE
  5
2bb
100
AcDbEntity
  8
0
 62
7
100
AcDbLine
 10
8.618605
 20
17.559127
 30
0.0
 11
8.617843
 21
17.554998
 31
0.0
  0
LINE
  5
2bc
100
AcDbEntity
  8
0
 62
7
100
AcDbLine
 10
8.617843
 20
17.554998
 30
0.0
 11
8.617137
 21
17.550869
 31
0.0
  0
LINE
  5
2bd
100
AcDbEntity
  8
0
 62
7
100
AcDbLine
 10
8.617137
 20
17.550869
 30
0.0
 11
8.616460
 21
17.546743
 31
0.0
  0
LINE
  5
2be
100
AcDbEntity
  8
0
 62
7
100
AcDbLine
 10
8.616460
 20
17.546743
 30
0.0
 11
8.615783
 21
17.542614
 31
0.0
  0
LINE
  5
2bf
100
AcDbEntity
  8
0
 62
7
100
AcDbLine
 10
8.615783
 20
17.542614
 30
0.0
 11
8.615077
 21
17.538486
 31
0.0
  0
LINE
  5
2c0
100
AcDbEntity
  8
0
 62
7
100
AcDbLine
 10
8.615077
 20
17.538486
 30
0.0
 11
8.614315
 21
17.534357
 31
0.0
  0
LINE
  5
2c1
100
AcDbEntity
  8
0
 62
7
100
AcDbLine
 10
8.614315
 20
17.534357
 30
0.0
 11
8.613497
 21
17.530231
 31
0.0
  0
LINE
  5
2c2
100
AcDbEntity
  8
0
 62
7
100
AcDbLine
 10
8.613497
 20
17.530231
 30
0.0
 11
8.605524
 21
17.490530
 31
0.0
  0
LINE
  5
2c3
100
AcDbEntity
  8
0
 62
7
100
AcDbLine
 10
8.605524
 20
17.490530
 30
0.0
 11
8.597921
 21
17.450803
 31
0.0
  0
LINE
  5
2c4
100
AcDbEntity
  8
0
 62
7
100
AcDbLine
 10
8.597921
 20
17.450803
 30
0.0
 11
8.590716
 21
17.411049
 31
0.0
  0
LINE
  5
2c5
100
AcDbEntity
  8
0
 62
7
100
AcDbLine
 10
8.590716
 20
17.411049
 30
0.0
 11
8.583934
 21
17.371269
 31
0.0
  0
LINE
  5
2c6
100
AcDbEntity
  8
0
 62
7
100
AcDbLine
 10
8.583934
 20
17.371269
 30
0.0
 11
8.577601
 21
17.331462
 31
0.0
  0
LINE
  5
2c7
100
AcDbEntity
  8
0
 62
7
100
AcDbLine
 10
8.577601
 20
17.331462
 30
0.0
 11
8.571745
 21
17.291629
 31
0.0
  0
LINE
  5
2c8
100
AcDbEntity
  8
0
 62
7
100
AcDbLine
 10
8.571745
 20
17.291629
 30
0.0
 11
8.566391
 21
17.251770
 31
0.0
  0
LINE
  5
2c9
100
AcDbEntity
  8
0
 62
7
100
AcDbLine
 10
8.566391
 20
17.251770
 30
0.0
 11
8.561568
 21
17.211887
 31
0.0
  0
LINE
  5
2ca
100
AcDbEntity
  8
0
 62
7
100
AcDbLine
 10
8.561568
 20
17.211887
 30
0.0
 11
8.559621
 21
17.194716
 31
0.0
  0
LINE
  5
2cb
100
AcDbEntity
  8
0
 62
7
100
AcDbLine
 10
8.559621
 20
17.194716
 30
0.0
 11
8.557955
 21
17.177501
 31
0.0
  0
LINE
  5
2cc
100
AcDbEntity
  8
0
 62
7
100
AcDbLine
 10
8.557955
 20
17.177501
 30
0.0
 11
8.556488
 21
17.160246
 31
0.0
  0
LINE
  5
2cd
100
AcDbEntity
  8
0
 62
7
100
AcDbLine
 10
8.556488
 20
17.160246
 30
0.0
 11
8.555190
 21
17.142957
 31
0.0
  0
LINE
  5
2ce
100
AcDbEntity
  8
0
 62
7
100
AcDbLine
 10
8.555190
 20
17.142957
 30
0.0
 11
8.553976
 21
17.125642
 31
0.0
  0
LINE
  5
2cf
100
AcDbEntity
  8
0
 62
7
100
AcDbLine
 10
8.553976
 20
17.125642
 30
0.0
 11
8.552791
 21
17.108305
 31
0.0
  0
LINE
  5
2d0
100
AcDbEntity
  8
0
 62
7
100
AcDbLine
 10
8.552791
 20
17.108305
 30
0.0
 11
8.551577
 21
17.090957
 31
0.0
  0
LINE
  5
2d1
100
AcDbEntity
  8
0
 62
7
100
AcDbLine
 10
8.551577
 20
17.090957
 30
0.0
 11
8.550279
 21
17.073601
 31
0.0
  0
LINE
  5
2d2
100
AcDbEntity
  8
0
 62
7
100
AcDbLine
 10
8.550279
 20
17.073601
 30
0.0
 11
8.547993
 21
17.044391
 31
0.0
  0
LINE
  5
2d3
100
AcDbEntity
  8
0
 62
7
100
AcDbLine
 10
8.547993
 20
17.044391
 30
0.0
 11
8.545820
 21
17.015181
 31
0.0
  0
LINE
  5
2d4
100
AcDbEntity
  8
0
 62
7
100
AcDbLine
 10
8.545820
 20
17.015181
 30
0.0
 11
8.543816
 21
16.985971
 31
0.0
  0
LINE
  5
2d5
100
AcDbEntity
  8
0
 62
7
100
AcDbLine
 10
8.543816
 20
16.985971
 30
0.0
 11
8.542010
 21
16.956761
 31
0.0
  0
LINE
  5
2d6
100
AcDbEntity
  8
0
 62
7
100
AcDbLine
 10
8.542010
 20
16.956761
 30
0.0
 11
8.540429
 21
16.927551
 31
0.0
  0
LINE
  5
2d7
100
AcDbEntity
  8
0
 62
7
100
AcDbLine
 10
8.540429
 20
16.927551
 30
0.0
 11
8.539131
 21
16.898341
 31
0.0
  0
LINE
  5
2d8
100
AcDbEntity
  8
0
 62
7
100
AcDbLine
 10
8.539131
 20
16.898341
 30
0.0
 11
8.538172
 21
16.869131
 31
0.0
  0
LINE
  5
2d9
100
AcDbEntity
  8
0
 62
7
100
AcDbLine
 10
8.538172
 20
16.869131
 30
0.0
 11
8.537551
 21
16.839921
 31
0.0
  0
LINE
  5
2da
100
AcDbEntity
  8
0
 62
7
100
AcDbLine
 10
8.537551
 20
16.839921
 30
0.0
 11
8.537269
 21
16.832642
 31
0.0
  0
LINE
  5
2db
100
AcDbEntity
  8
0
 62
7
100
AcDbLine
 10
8.537269
 20
16.832642
 30
0.0
 11
8.536873
 21
16.825403
 31
0.0
  0
LINE
  5
2dc
100
AcDbEntity
  8
0
 62
7
100
AcDbLine
 10
8.536873
 20
16.825403
 30
0.0
 11
8.536422
 21
16.818189
 31
0.0
  0
LINE
  5
2dd
100
AcDbEntity
  8
0
 62
7
100
AcDbLine
 10
8.536422
 20
16.818189
 30
0.0
 11
8.535942
 21
16.810990
 31
0.0
  0
LINE
  5
2de
100
AcDbEntity
  8
0
 62
7
100
AcDbLine
 10
8.535942
 20
16.810990
 30
0.0
 11
8.535491
 21
16.803791
 31
0.0
  0
LINE
  5
2df
100
AcDbEntity
  8
0
 62
7
100
AcDbLine
 10
8.535491
 20
16.803791
 30
0.0
 11
8.535095
 21
16.796580
 31
0.0
  0
LINE
  5
2e0
100
AcDbEntity
  8
0
 62
7
100
AcDbLine
 10
8.535095
 20
16.796580
 30
0.0
 11
8.534832
 21
16.789341
 31
0.0
  0
LINE
  5
2e1
100
AcDbEntity
  8
0
 62
7
100
AcDbLine
 10
8.534832
 20
16.789341
 30
0.0
 11
8.534734
 21
16.782062
 31
0.0
  0
LINE
  5
2e2
100
AcDbEntity
  8
0
 62
7
100
AcDbLine
 10
8.534734
 20
16.782062
 30
0.0
 11
8.534917
 21
16.770045
 31
0.0
  0
LINE
  5
2e3
100
AcDbEntity
  8
0
 62
7
100
AcDbLine
 10
8.534917
 20
16.770045
 30
0.0
 11
8.535397
 21
16.758113
 31
0.0
  0
LINE
  5
2e4
100
AcDbEntity
  8
0
 62
7
100
AcDbLine
 10
8.535397
 20
16.758113
 30
0.0
 11
8.536103
 21
16.746240
 31
0.0
  0
LINE
  5
2e5
100
AcDbEntity
  8
0
 62
7
100
AcDbLine
 10
8.536103
 20
16.746240
 30
0.0
 11
8.536949
 21
16.734403
 31
0.0
  0
LINE
  5
2e6
100
AcDbEntity
  8
0
 62
7
100
AcDbLine
 10
8.536949
 20
16.734403
 30
0.0
 11
8.537824
 21
16.722578
 31
0.0
  0
LINE
  5
2e7
100
AcDbEntity
  8
0
 62
7
100
AcDbLine
 10
8.537824
 20
16.722578
 30
0.0
 11
8.538643
 21
16.710745
 31
0.0
  0
LINE
  5
2e8
100
AcDbEntity
  8
0
 62
7
100
AcDbLine
 10
8.538643
 20
16.710745
 30
0.0
 11
8.539320
 21
16.698877
 31
0.0
  0
LINE
  5
2e9
100
AcDbEntity
  8
0
 62
7
100
AcDbLine
 10
8.539320
 20
16.698877
 30
0.0
 11
8.539772
 21
16.686953
 31
0.0
  0
LINE
  5
2ea
100
AcDbEntity
  8
0
 62
7
100
AcDbLine
 10
8.539772
 20
16.686953
 30
0.0
 11
8.540590
 21
16.658931
 31
0.0
  0
LINE
  5
2eb
100
AcDbEntity
  8
0
 62
7
100
AcDbLine
 10
8.540590
 20
16.658931
 30
0.0
 11
8.541550
 21
16.630958
 31
0.0
  0
LINE
  5
2ec
100
AcDbEntity
  8
0
 62
7
100
AcDbLine
 10
8.541550
 20
16.630958
 30
0.0
 11
8.542707
 21
16.603023
 31
0.0
  0
LINE
  5
2ed
100
AcDbEntity
  8
0
 62
7
100
AcDbLine
 10
8.542707
 20
16.603023
 30
0.0
 11
8.544061
 21
16.575123
 31
0.0
  0
LINE
  5
2ee
100
AcDbEntity
  8
0
 62
7
100
AcDbLine
 10
8.544061
 20
16.575123
 30
0.0
 11
8.545642
 21
16.547248
 31
0.0
  0
LINE
  5
2ef
100
AcDbEntity
  8
0
 62
7
100
AcDbLine
 10
8.545642
 20
16.547248
 30
0.0
 11
8.547448
 21
16.519392
 31
0.0
  0
LINE
  5
2f0
100
AcDbEntity
  8
0
 62
7
100
AcDbLine
 10
8.547448
 20
16.519392
 30
0.0
 11
8.549536
 21
16.491551
 31
0.0
  0
LINE
  5
2f1
100
AcDbEntity
  8
0
 62
7
100
AcDbLine
 10
8.549536
 20
16.491551
 30
0.0
 11
8.551935
 21
16.463716
 31
0.0
  0
LINE
  5
2f2
100
AcDbEntity
  8
0
 62
7
100
AcDbLine
 10
8.551935
 20
16.463716
 30
0.0
 11
8.553685
 21
16.444056
 31
0.0
  0
LINE
  5
2f3
100
AcDbEntity
  8
0
 62
7
100
AcDbLine
 10
8.553685
 20
16.444056
 30
0.0
 11
8.555576
 21
16.424447
 31
0.0
  0
LINE
  5
2f4
100
AcDbEntity
  8
0
 62
7
100
AcDbLine
 10
8.555576
 20
16.424447
 30
0.0
 11
8.557580
 21
16.404884
 31
0.0
  0
LINE
  5
2f5
100
AcDbEntity
  8
0
 62
7
100
AcDbLine
 10
8.557580
 20
16.404884
 30
0.0
 11
8.559696
 21
16.385362
 31
0.0
  0
LINE
  5
2f6
100
AcDbEntity
  8
0
 62
7
100
AcDbLine
 10
8.559696
 20
16.385362
 30
0.0
 11
8.561926
 21
16.365883
 31
0.0
  0
LINE
  5
2f7
100
AcDbEntity
  8
0
 62
7
100
AcDbLine
 10
8.561926
 20
16.365883
 30
0.0
 11
8.564240
 21
16.346438
 31
0.0
  0
LINE
  5
2f8
100
AcDbEntity
  8
0
 62
7
100
AcDbLine
 10
8.564240
 20
16.346438
 30
0.0
 11
8.566667
 21
16.327027
 31
0.0
  0
LINE
  5
2f9
100
AcDbEntity
  8
0
 62
7
100
AcDbLine
 10
8.566667
 20
16.327027
 30
0.0
 11
8.569179
 21
16.307647
 31
0.0
  0
LINE
  5
2fa
100
AcDbEntity
  8
0
 62
7
100
AcDbLine
 10
8.569179
 20
16.307647
 30
0.0
 11
8.572588
 21
16.281956
 31
0.0
  0
LINE
  5
2fb
100
AcDbEntity
  8
0
 62
7
100
AcDbLine
 10
8.572588
 20
16.281956
 30
0.0
 11
8.576243
 21
16.256313
 31
0.0
  0
LINE
  5
2fc
100
AcDbEntity
  8
0
 62
7
100
AcDbLine
 10
8.576243
 20
16.256313
 30
0.0
 11
8.580124
 21
16.230719
 31
0.0
  0
LINE
  5
2fd
100
AcDbEntity
  8
0
 62
7
100
AcDbLine
 10
8.580124
 20
16.230719
 30
0.0
 11
8.584207
 21
16.205166
 31
0.0
  0
LINE
  5
2fe
100
AcDbEntity
  8
0
 62
7
100
AcDbLine
 10
8.584207
 20
16.205166
 30
0.0
 11
8.588478
 21
16.179653
 31
0.0
  0
LINE
  5
2ff
100
AcDbEntity
  8
0
 62
7
100
AcDbLine
 10
8.588478
 20
16.179653
 30
0.0
 11
8.592914
 21
16.154177
 31
0.0
  0
LINE
  5
300
100
AcDbEntity
  8
0
 62
7
100
AcDbLine
 10
8.592914
 20
16.154177
 30
0.0
 11
8.597495
 21
16.128735
 31
0.0
  0
LINE
  5
301
100
AcDbEntity
  8
0
 62
7
100
AcDbLine
 10
8.597495
 20
16.128735
 30
0.0
 11
8.602202
 21
16.103321
 31
0.0
  0
LINE
  5
302
100
AcDbEntity
  8
0
 62
7
100
AcDbLine
 10
8.602202
 20
16.103321
 30
0.0
 11
8.606452
 21
16.081640
 31
0.0
  0
LINE
  5
303
100
AcDbEntity
  8
0
 62
7
100
AcDbLine
 10
8.606452
 20
16.081640
 30
0.0
 11
8.610748
 21
16.059991
 31
0.0
  0
LINE
  5
304
100
AcDbEntity
  8
0
 62
7
100
AcDbLine
 10
8.610748
 20
16.059991
 30
0.0
 11
8.615111
 21
16.038381
 31
0.0
  0
LINE
  5
305
100
AcDbEntity
  8
0
 62
7
100
AcDbLine
 10
8.615111
 20
16.038381
 30
0.0
 11
8.619559
 21
16.016819
 31
0.0
  0
LINE
  5
306
100
AcDbEntity
  8
0
 62
7
100
AcDbLine
 10
8.619559
 20
16.016819
 30
0.0
 11
8.624114
 21
15.995311
 31
0.0
  0
LINE
  5
307
100
AcDbEntity
  8
0
 62
7
100
AcDbLine
 10
8.624114
 20
15.995311
 30
0.0
 11
8.628793
 21
15.973862
 31
0.0
  0
LINE
  5
308
100
AcDbEntity
  8
0
 62
7
100
AcDbLine
 10
8.628793
 20
15.973862
 30
0.0
 11
8.633619
 21
15.952478
 31
0.0
  0
LINE
  5
309
100
AcDbEntity
  8
0
 62
7
100
AcDbLine
 10
8.633619
 20
15.952478
 30
0.0
 11
8.638609
 21
15.931168
 31
0.0
  0
LINE
  5
30a
100
AcDbEntity
  8
0
 62
7
100
AcDbLine
 10
8.638609
 20
15.931168
 30
0.0
 11
8.643437
 21
15.912050
 31
0.0
  0
LINE
  5
30b
100
AcDbEntity
  8
0
 62
7
100
AcDbLine
 10
8.643437
 20
15.912050
 30
0.0
 11
8.648390
 21
15.892997
 31
0.0
  0
LINE
  5
30c
100
AcDbEntity
  8
0
 62
7
100
AcDbLine
 10
8.648390
 20
15.892997
 30
0.0
 11
8.653462
 21
15.873998
 31
0.0
  0
LINE
  5
30d
100
AcDbEntity
  8
0
 62
7
100
AcDbLine
 10
8.653462
 20
15.873998
 30
0.0
 11
8.658646
 21
15.855038
 31
0.0
  0
LINE
  5
30e
100
AcDbEntity
  8
0
 62
7
100
AcDbLine
 10
8.658646
 20
15.855038
 30
0.0
 11
8.663938
 21
15.836104
 31
0.0
  0
LINE
  5
30f
100
AcDbEntity
  8
0
 62
7
100
AcDbLine
 10
8.663938
 20
15.836104
 30
0.0
 11
8.669329
 21
15.817184
 31
0.0
  0
LINE
  5
310
100
AcDbEntity
  8
0
 62
7
100
AcDbLine
 10
8.669329
 20
15.817184
 30
0.0
 11
8.674812
 21
15.798264
 31
0.0
  0
LINE
  5
311
100
AcDbEntity
  8
0
 62
7
100
AcDbLine
 10
8.674812
 20
15.798264
 30
0.0
 11
8.680380
 21
15.779329
 31
0.0
  0
LINE
  5
312
100
AcDbEntity
  8
0
 62
7
100
AcDbLine
 10
8.680380
 20
15.779329
 30
0.0
 11
8.688918
 21
15.750148
 31
0.0
  0
LINE
  5
313
100
AcDbEntity
  8
0
 62
7
100
AcDbLine
 10
8.688918
 20
15.750148
 30
0.0
 11
8.697607
 21
15.721029
 31
0.0
  0
LINE
  5
314
100
AcDbEntity
  8
0
 62
7
100
AcDbLine
 10
8.697607
 20
15.721029
 30
0.0
 11
8.706466
 21
15.691982
 31
0.0
  0
LINE
  5
315
100
AcDbEntity
  8
0
 62
7
100
AcDbLine
 10
8.706466
 20
15.691982
 30
0.0
 11
8.715517
 21
15.663019
 31
0.0
  0
LINE
  5
316
100
AcDbEntity
  8
0
 62
7
100
AcDbLine
 10
8.715517
 20
15.663019
 30
0.0
 11
8.724780
 21
15.634148
 31
0.0
  0
LINE
  5
317
100
AcDbEntity
  8
0
 62
7
100
AcDbLine
 10
8.724780
 20
15.634148
 30
0.0
 11
8.734274
 21
15.605379
 31
0.0
  0
LINE
  5
318
100
AcDbEntity
  8
0
 62
7
100
AcDbLine
 10
8.734274
 20
15.605379
 30
0.0
 11
8.744019
 21
15.576723
 31
0.0
  0
LINE
  5
319
100
AcDbEntity
  8
0
 62
7
100
AcDbLine
 10
8.744019
 20
15.576723
 30
0.0
 11
8.754038
 21
15.548189
 31
0.0
  0
LINE
  5
31a
100
AcDbEntity
  8
0
 62
7
100
AcDbLine
 10
8.754038
 20
15.548189
 30
0.0
 11
8.755618
 21
15.544286
 31
0.0
  0
LINE
  5
31b
100
AcDbEntity
  8
0
 62
7
100
AcDbLine
 10
8.755618
 20
15.544286
 30
0.0
 11
8.757170
 21
15.540406
 31
0.0
  0
LINE
  5
31c
100
AcDbEntity
  8
0
 62
7
100
AcDbLine
 10
8.757170
 20
15.540406
 30
0.0
 11
8.758694
 21
15.536545
 31
0.0
  0
LINE
  5
31d
100
AcDbEntity
  8
0
 62
7
100
AcDbLine
 10
8.758694
 20
15.536545
 30
0.0
 11
8.760218
 21
15.532701
 31
0.0
  0
LINE
  5
31e
100
AcDbEntity
  8
0
 62
7
100
AcDbLine
 10
8.760218
 20
15.532701
 30
0.0
 11
8.761714
 21
15.528871
 31
0.0
  0
LINE
  5
31f
100
AcDbEntity
  8
0
 62
7
100
AcDbLine
 10
8.761714
 20
15.528871
 30
0.0
 11
8.763210
 21
15.525050
 31
0.0
  0
LINE
  5
320
100
AcDbEntity
  8
0
 62
7
100
AcDbLine
 10
8.763210
 20
15.525050
 30
0.0
 11
8.764706
 21
15.521237
 31
0.0
  0
LINE
  5
321
100
AcDbEntity
  8
0
 62
7
100
AcDbLine
 10
8.764706
 20
15.521237
 30
0.0
 11
8.766201
 21
15.517427
 31
0.0
  0
LINE
  5
322
100
AcDbEntity
  8
0
 62
7
100
AcDbLine
 10
8.766201
 20
15.517427
 30
0.0
 11
9.020106
 21
14.973739
 31
0.0
  0
LINE
  5
323
100
AcDbEntity
  8
0
 62
7
100
AcDbLine
 10
9.020106
 20
14.973739
 30
0.0
 11
9.356465
 21
14.477487
 31
0.0
  0
LINE
  5
324
100
AcDbEntity
  8
0
 62
7
100
AcDbLine
 10
9.356465
 20
14.477487
 30
0.0
 11
9.767165
 21
14.036394
 31
0.0
  0
LINE
  5
325
100
AcDbEntity
  8
0
 62
7
100
AcDbLine
 10
9.767165
 20
14.036394
 30
0.0
 11
10.244093
 21
13.658183
 31
0.0
  0
LINE
  5
326
100
AcDbEntity
  8
0
 62
7
100
AcDbLine
 10
10.244093
 20
13.658183
 30
0.0
 11
10.779137
 21
13.350575
 31
0.0
  0
LINE
  5
327
100
AcDbEntity
  8
0
 62
7
100
AcDbLine
 10
10.779137
 20
13.350575
 30
0.0
 11
11.364185
 21
13.121295
 31
0.0
  0
LINE
  5
328
100
AcDbEntity
  8
0
 62
7
100
AcDbLine
 10
11.364185
 20
13.121295
 30
0.0
 11
11.991122
 21
12.978063
 31
0.0
  0
LINE
  5
329
100
AcDbEntity
  8
0
 62
7
100
AcDbLine
 10
11.991122
 20
12.978063
 30
0.0
 11
12.651815
 21
12.928600
 31
0.0
  0
LINE
  5
32a
100
AcDbEntity
  8
0
 62
7
100
AcDbLine
 10
12.651815
 20
12.928600
 30
0.0
 11
13.535532
 21
13.025292
 31
0.0
  0
LINE
  5
32b
100
AcDbEntity
  8
0
 62
7
100
AcDbLine
 10
13.535532
 20
13.025292
 30
0.0
 11
14.439415
 21
13.294995
 31
0.0
  0
LINE
  5
32c
100
AcDbEntity
  8
0
 62
7
100
AcDbLine
 10
14.439415
 20
13.294995
 30
0.0
 11
15.300652
 21
13.706197
 31
0.0
  0
LINE
  5
32d
100
AcDbEntity
  8
0
 62
7
100
AcDbLine
 10
15.300652
 20
13.706197
 30
0.0
 11
16.056438
 21
14.227387
 31
0.0
  0
LINE
  5
32e
100
AcDbEntity
  8
0
 62
7
100
AcDbLine
 10
16.056438
 20
14.227387
 30
0.0
 11
16.643961
 21
14.827052
 31
0.0
  0
LINE
  5
32f
100
AcDbEntity
  8
0
 62
7
100
AcDbLine
 10
16.643961
 20
14.827052
 30
0.0
 11
17.000414
 21
15.473680
 31
0.0
  0
LINE
  5
330
100
AcDbEntity
  8
0
 62
7
100
AcDbLine
 10
17.000414
 20
15.473680
 30
0.0
 11
17.062987
 21
16.135760
 31
0.0
  0
LINE
  5
331
100
AcDbEntity
  8
0
 62
7
100
AcDbLine
 10
17.062987
 20
16.135760
 30
0.0
 11
16.768872
 21
16.781780
 31
0.0
  0
LINE
  5
332
100
AcDbEntity
  8
0
 62
7
100
AcDbLine
 10
10.270141
 20
15.243387
 30
0.0
 11
9.801264
 21
15.409933
 31
0.0
  0
LINE
  5
333
100
AcDbEntity
  8
0
 62
7
100
AcDbLine
 10
9.801264
 20
15.409933
 30
0.0
 11
9.606919
 21
15.812064
 31
0.0
  0
LINE
  5
334
100
AcDbEntity
  8
0
 62
7
100
AcDbLine
 10
9.606919
 20
15.812064
 30
0.0
 11
9.801264
 21
16.214055
 31
0.0
  0
LINE
  5
335
100
AcDbEntity
  8
0
 62
7
100
AcDbLine
 10
9.801264
 20
16.214055
 30
0.0
 11
10.270141
 21
16.380460
 31
0.0
  0
LINE
  5
336
100
AcDbEntity
  8
0
 62
7
100
AcDbLine
 10
10.270141
 20
16.380460
 30
0.0
 11
10.739265
 21
16.213949
 31
0.0
  0
LINE
  5
337
100
AcDbEntity
  8
0
 62
7
100
AcDbLine
 10
10.739265
 20
16.213949
 30
0.0
 11
10.933646
 21
15.812064
 31
0.0
  0
LINE
  5
338
100
AcDbEntity
  8
0
 62
7
100
AcDbLine
 10
10.933646
 20
15.812064
 30
0.0
 11
10.739371
 21
15.409933
 31
0.0
  0
LINE
  5
339
100
AcDbEntity
  8
0
 62
7
100
AcDbLine
 10
10.739371
 20
15.409933
 30
0.0
 11
10.270141
 21
15.243387
 31
0.0
  0
LINE
  5
33a
100
AcDbEntity
  8
0
 62
7
100
AcDbLine
 10
10.475317
 20
17.643687
 30
0.0
 11
10.006334
 21
17.810233
 31
0.0
  0
LINE
  5
33b
100
AcDbEntity
  8
0
 62
7
100
AcDbLine
 10
10.006334
 20
17.810233
 30
0.0
 11
9.812095
 21
18.212364
 31
0.0
  0
LINE
  5
33c
100
AcDbEntity
  8
0
 62
7
100
AcDbLine
 10
9.812095
 20
18.212364
 30
0.0
 11
10.006334
 21
18.614355
 31
0.0
  0
LINE
  5
33d
100
AcDbEntity
  8
0
 62
7
100
AcDbLine
 10
10.006334
 20
18.614355
 30
0.0
 11
10.475317
 21
18.780760
 31
0.0
  0
LINE
  5
33e
100
AcDbEntity
  8
0
 62
7
100
AcDbLine
 10
10.475317
 20
18.780760
 30
0.0
 11
10.944300
 21
18.614249
 31
0.0
  0
LINE
  5
33f
100
AcDbEntity
  8
0
 62
7
100
AcDbLine
 10
10.944300
 20
18.614249
 30
0.0
 11
11.138539
 21
18.212364
 31
0.0
  0
LINE
  5
340
100
AcDbEntity
  8
0
 62
7
100
AcDbLine
 10
11.138539
 20
18.212364
 30
0.0
 11
10.944300
 21
17.810233
 31
0.0
  0
LINE
  5
341
100
AcDbEntity
  8
0
 62
7
100
AcDbLine
 10
10.944300
 20
17.810233
 30
0.0
 11
10.475317
 21
17.643687
 31
0.0
  0
LINE
  5
342
100
AcDbEntity
  8
0
 62
7
100
AcDbLine
 10
12.599321
 20
13.889002
 30
0.0
 11
12.130338
 21
14.055549
 31
0.0
  0
LINE
  5
343
100
AcDbEntity
  8
0
 62
7
100
AcDbLine
 10
12.130338
 20
14.055549
 30
0.0
 11
11.936099
 21
14.457680
 31
0.0
  0
LINE
  5
344
100
AcDbEntity
  8
0
 62
7
100
AcDbLine
 10
11.936099
 20
14.457680
 30
0.0
 11
12.130338
 21
14.859670
 31
0.0
  0
LINE
  5
345
100
AcDbEntity
  8
0
 62
7
100
AcDbLine
 10
12.130338
 20
14.859670
 30
0.0
 11
12.599321
 21
15.026076
 31
0.0
  0
LINE
  5
346
100
AcDbEntity
  8
0
 62
7
100
AcDbLine
 10
12.599321
 20
15.026076
 30
0.0
 11
13.068445
 21
14.859564
 31
0.0
  0
LINE
  5
347
100
AcDbEntity
  8
0
 62
7
100
AcDbLine
 10
13.068445
 20
14.859564
 30
0.0
 11
13.262826
 21
14.457680
 31
0.0
  0
LINE
  5
348
100
AcDbEntity
  8
0
 62
7
100
AcDbLine
 10
13.262826
 20
14.457680
 30
0.0
 11
13.068445
 21
14.055549
 31
0.0
  0
LINE
  5
349
100
AcDbEntity
  8
0
 62
7
100
AcDbLine
 10
13.068445
 20
14.055549
 30
0.0
 11
12.599321
 21
13.889002
 31
0.0
  0
LINE
  5
34a
100
AcDbEntity
  8
0
 62
7
100
AcDbLine
 10
12.806755
 20
18.964204
 30
0.0
 11
12.337631
 21
19.130716
 31
0.0
  0
LINE
  5
34b
100
AcDbEntity
  8
0
 62
7
100
AcDbLine
 10
12.337631
 20
19.130716
 30
0.0
 11
12.143250
 21
19.532600
 31
0.0
  0
LINE
  5
34c
100
AcDbEntity
  8
0
 62
7
100
AcDbLine
 10
12.143250
 20
19.532600
 30
0.0
 11
12.337631
 21
19.934731
 31
0.0
  0
LINE
  5
34d
100
AcDbEntity
  8
0
 62
7
100
AcDbLine
 10
12.337631
 20
19.934731
 30
0.0
 11
12.806755
 21
20.101278
 31
0.0
  0
LINE
  5
34e
100
AcDbEntity
  8
0
 62
7
100
AcDbLine
 10
12.806755
 20
20.101278
 30
0.0
 11
13.275632
 21
19.934731
 31
0.0
  0
LINE
  5
34f
100
AcDbEntity
  8
0
 62
7
100
AcDbLine
 10
13.275632
 20
19.934731
 30
0.0
 11
13.469977
 21
19.532600
 31
0.0
  0
LINE
  5
350
100
AcDbEntity
  8
0
 62
7
100
AcDbLine
 10
13.469977
 20
19.532600
 30
0.0
 11
13.275632
 21
19.130716
 31
0.0
  0
LINE
  5
351
100
AcDbEntity
  8
0
 62
7
100
AcDbLine
 10
13.275632
 20
19.130716
 30
0.0
 11
12.806755
 21
18.964204
 31
0.0
  0
LINE
  5
352
100
AcDbEntity
  8
0
 62
7
100
AcDbLine
 10
15.198588
 20
15.243387
 30
0.0
 11
14.729464
 21
15.409933
 31
0.0
  0
LINE
  5
353
100
AcDbEntity
  8
0
 62
7
100
AcDbLine
 10
14.729464
 20
15.409933
 30
0.0
 11
14.535083
 21
15.812064
 31
0.0
  0
LINE
  5
354
100
AcDbEntity
  8
0
 62
7
100
AcDbLine
 10
14.535083
 20
15.812064
 30
0.0
 11
14.729464
 21
16.214055
 31
0.0
  0
LINE
  5
355
100
AcDbEntity
  8
0
 62
7
100
AcDbLine
 10
14.729464
 20
16.214055
 30
0.0
 11
15.198588
 21
16.380460
 31
0.0
  0
LINE
  5
356
100
AcDbEntity
  8
0
 62
7
100
AcDbLine
 10
15.198588
 20
16.380460
 30
0.0
 11
15.667465
 21
16.213949
 31
0.0
  0
LINE
  5
357
100
AcDbEntity
  8
0
 62
7
100
AcDbLine
 10
15.667465
 20
16.213949
 30
0.0
 11
15.861810
 21
15.812064
 31
0.0
  0
LINE
  5
358
100
AcDbEntity
  8
0
 62
7
100
AcDbLine
 10
15.861810
 20
15.812064
 30
0.0
 11
15.667465
 21
15.409933
 31
0.0
  0
LINE
  5
359
100
AcDbEntity
  8
0
 62
7
100
AcDbLine
 10
15.667465
 20
15.409933
 30
0.0
 11
15.198588
 21
15.243387
 31
0.0
  0
LINE
  5
35a
100
AcDbEntity
  8
0
 62
7
100
AcDbLine
 10
8.854797
 20
19.792244
 30
0.0
 11
7.114853
 21
19.520923
 31
0.0
  0
LINE
  5
35b
100
AcDbEntity
  8
0
 62
7
100
AcDbLine
 10
7.114853
 20
19.520923
 30
0.0
 11
5.510746
 21
19.155410
 31
0.0
  0
LINE
  5
35c
100
AcDbEntity
  8
0
 62
7
100
AcDbLine
 10
5.510746
 20
19.155410
 30
0.0
 11
4.064754
 21
18.704172
 31
0.0
  0
LINE
  5
35d
100
AcDbEntity
  8
0
 62
7
100
AcDbLine
 10
4.064754
 20
18.704172
 30
0.0
 11
2.799155
 21
18.175676
 31
0.0
  0
LINE
  5
35e
100
AcDbEntity
  8
0
 62
7
100
AcDbLine
 10
2.799155
 20
18.175676
 30
0.0
 11
2.799155
 21
18.015726
 31
0.0
  0
LINE
  5
35f
100
AcDbEntity
  8
0
 62
7
100
AcDbLine
 10
2.799155
 20
18.015726
 30
0.0
 11
2.799155
 21
17.855777
 31
0.0
  0
LINE
  5
360
100
AcDbEntity
  8
0
 62
7
100
AcDbLine
 10
2.799155
 20
17.855777
 30
0.0
 11
2.799155
 21
17.695827
 31
0.0
  0
LINE
  5
361
100
AcDbEntity
  8
0
 62
7
100
AcDbLine
 10
2.799155
 20
17.695827
 30
0.0
 11
2.799155
 21
17.535878
 31
0.0
  0
LINE
  5
362
100
AcDbEntity
  8
0
 62
7
100
AcDbLine
 10
2.799155
 20
17.535878
 30
0.0
 11
3.044829
 21
17.658666
 31
0.0
  0
LINE
  5
363
100
AcDbEntity
  8
0
 62
7
100
AcDbLine
 10
3.044829
 20
17.658666
 30
0.0
 11
3.301722
 21
17.778836
 31
0.0
  0
LINE
  5
364
100
AcDbEntity
  8
0
 62
7
100
AcDbLine
 10
3.301722
 20
17.778836
 30
0.0
 11
3.569727
 21
17.896200
 31
0.0
  0
LINE
  5
365
100
AcDbEntity
  8
0
 62
7
100
AcDbLine
 10
3.569727
 20
17.896200
 30
0.0
 11
3.848739
 21
18.010576
 31
0.0
  0
LINE
  5
366
100
AcDbEntity
  8
0
 62
7
100
AcDbLine
 10
3.848739
 20
18.010576
 30
0.0
 11
4.967402
 21
18.404240
 31
0.0
  0
LINE
  5
367
100
AcDbEntity
  8
0
 62
7
100
AcDbLine
 10
4.967402
 20
18.404240
 30
0.0
 11
6.182823
 21
18.737792
 31
0.0
  0
LINE
  5
368
100
AcDbEntity
  8
0
 62
7
100
AcDbLine
 10
6.182823
 20
18.737792
 30
0.0
 11
7.482646
 21
19.009431
 31
0.0
  0
LINE
  5
369
100
AcDbEntity
  8
0
 62
7
100
AcDbLine
 10
7.482646
 20
19.009431
 30
0.0
 11
8.854515
 21
19.217358
 31
0.0
  0
LINE
  5
36a
100
AcDbEntity
  8
0
 62
7
100
AcDbLine
 10
8.854515
 20
19.217358
 30
0.0
 11
8.854515
 21
19.361079
 31
0.0
  0
LINE
  5
36b
100
AcDbEntity
  8
0
 62
7
100
AcDbLine
 10
8.854515
 20
19.361079
 30
0.0
 11
8.854515
 21
19.504801
 31
0.0
  0
LINE
  5
36c
100
AcDbEntity
  8
0
 62
7
100
AcDbLine
 10
8.854515
 20
19.504801
 30
0.0
 11
8.854515
 21
19.648523
 31
0.0
  0
LINE
  5
36d
100
AcDbEntity
  8
0
 62
7
100
AcDbLine
 10
8.854515
 20
19.648523
 30
0.0
 11
8.854515
 21
19.792244
 31
0.0
  0
LINE
  5
36e
100
AcDbEntity
  8
0
 62
7
100
AcDbLine
 10
8.854515
 20
19.792244
 30
0.0
 11
8.854585
 21
19.792244
 31
0.0
  0
LINE
  5
36f
100
AcDbEntity
  8
0
 62
7
100
AcDbLine
 10
8.854585
 20
19.792244
 30
0.0
 11
8.854656
 21
19.792244
 31
0.0
  0
LINE
  5
370
100
AcDbEntity
  8
0
 62
7
100
AcDbLine
 10
8.854656
 20
19.792244
 30
0.0
 11
8.854726
 21
19.792244
 31
0.0
  0
LINE
  5
371
100
AcDbEntity
  8
0
 62
7
100
AcDbLine
 10
8.854726
 20
19.792244
 30
0.0
 11
8.854797
 21
19.792244
 31
0.0
  0
LINE
  5
372
100
AcDbEntity
  8
0
 62
7
100
AcDbLine
 10
16.431052
 20
19.785471
 30
0.0
 11
16.431052
 21
19.749541
 31
0.0
  0
LINE
  5
373
100
AcDbEntity
  8
0
 62
7
100
AcDbLine
 10
16.431052
 20
19.749541
 30
0.0
 11
16.431052
 21
19.713610
 31
0.0
  0
LINE
  5
374
100
AcDbEntity
  8
0
 62
7
100
AcDbLine
 10
16.431052
 20
19.713610
 30
0.0
 11
16.431052
 21
19.677680
 31
0.0
  0
LINE
  5
375
100
AcDbEntity
  8
0
 62
7
100
AcDbLine
 10
16.431052
 20
19.677680
 30
0.0
 11
16.431052
 21
19.641749
 31
0.0
  0
LINE
  5
376
100
AcDbEntity
  8
0
 62
7
100
AcDbLine
 10
16.431052
 20
19.641749
 30
0.0
 11
16.431052
 21
19.605819
 31
0.0
  0
LINE
  5
377
100
AcDbEntity
  8
0
 62
7
100
AcDbLine
 10
16.431052
 20
19.605819
 30
0.0
 11
16.431052
 21
19.569889
 31
0.0
  0
LINE
  5
378
100
AcDbEntity
  8
0
 62
7
100
AcDbLine
 10
16.431052
 20
19.569889
 30
0.0
 11
16.431052
 21
19.533958
 31
0.0
  0
LINE
  5
379
100
AcDbEntity
  8
0
 62
7
100
AcDbLine
 10
16.431052
 20
19.533958
 30
0.0
 11
16.431052
 21
19.498028
 31
0.0
  0
LINE
  5
37a
100
AcDbEntity
  8
0
 62
7
100
AcDbLine
 10
16.431052
 20
19.498028
 30
0.0
 11
16.431052
 21
19.462098
 31
0.0
  0
LINE
  5
37b
100
AcDbEntity
  8
0
 62
7
100
AcDbLine
 10
16.431052
 20
19.462098
 30
0.0
 11
16.431052
 21
19.426167
 31
0.0
  0
LINE
  5
37c
100
AcDbEntity
  8
0
 62
7
100
AcDbLine
 10
16.431052
 20
19.426167
 30
0.0
 11
16.431052
 21
19.390237
 31
0.0
  0
LINE
  5
37d
100
AcDbEntity
  8
0
 62
7
100
AcDbLine
 10
16.431052
 20
19.390237
 30
0.0
 11
16.431052
 21
19.354306
 31
0.0
  0
LINE
  5
37e
100
AcDbEntity
  8
0
 62
7
100
AcDbLine
 10
16.431052
 20
19.354306
 30
0.0
 11
16.431052
 21
19.318376
 31
0.0
  0
LINE
  5
37f
100
AcDbEntity
  8
0
 62
7
100
AcDbLine
 10
16.431052
 20
19.318376
 30
0.0
 11
16.431052
 21
19.282445
 31
0.0
  0
LINE
  5
380
100
AcDbEntity
  8
0
 62
7
100
AcDbLine
 10
16.431052
 20
19.282445
 30
0.0
 11
16.431052
 21
19.246515
 31
0.0
  0
LINE
  5
381
100
AcDbEntity
  8
0
 62
7
100
AcDbLine
 10
16.431052
 20
19.246515
 30
0.0
 11
16.431052
 21
19.210584
 31
0.0
  0
LINE
  5
382
100
AcDbEntity
  8
0
 62
7
100
AcDbLine
 10
16.431052
 20
19.210584
 30
0.0
 11
16.776256
 21
19.164505
 31
0.0
  0
LINE
  5
383
100
AcDbEntity
  8
0
 62
7
100
AcDbLine
 10
16.776256
 20
19.164505
 30
0.0
 11
17.117582
 21
19.114445
 31
0.0
  0
LINE
  5
384
100
AcDbEntity
  8
0
 62
7
100
AcDbLine
 10
17.117582
 20
19.114445
 30
0.0
 11
17.454842
 21
19.060430
 31
0.0
  0
LINE
  5
385
100
AcDbEntity
  8
0
 62
7
100
AcDbLine
 10
17.454842
 20
19.060430
 30
0.0
 11
17.787849
 21
19.002490
 31
0.0
  0
LINE
  5
386
100
AcDbEntity
  8
0
 62
7
100
AcDbLine
 10
17.787849
 20
19.002490
 30
0.0
 11
18.116416
 21
18.940650
 31
0.0
  0
LINE
  5
387
100
AcDbEntity
  8
0
 62
7
100
AcDbLine
 10
18.116416
 20
18.940650
 30
0.0
 11
18.440356
 21
18.874937
 31
0.0
  0
LINE
  5
388
100
AcDbEntity
  8
0
 62
7
100
AcDbLine
 10
18.440356
 20
18.874937
 30
0.0
 11
18.759481
 21
18.805381
 31
0.0
  0
LINE
  5
389
100
AcDbEntity
  8
0
 62
7
100
AcDbLine
 10
18.759481
 20
18.805381
 30
0.0
 11
19.073605
 21
18.732006
 31
0.0
  0
LINE
  5
38a
100
AcDbEntity
  8
0
 62
7
100
AcDbLine
 10
19.073605
 20
18.732006
 30
0.0
 11
19.382539
 21
18.654842
 31
0.0
  0
LINE
  5
38b
100
AcDbEntity
  8
0
 62
7
100
AcDbLine
 10
19.382539
 20
18.654842
 30
0.0
 11
19.686097
 21
18.573914
 31
0.0
  0
LINE
  5
38c
100
AcDbEntity
  8
0
 62
7
100
AcDbLine
 10
19.686097
 20
18.573914
 30
0.0
 11
19.984091
 21
18.489251
 31
0.0
  0
LINE
  5
38d
100
AcDbEntity
  8
0
 62
7
100
AcDbLine
 10
19.984091
 20
18.489251
 30
0.0
 11
20.276335
 21
18.400880
 31
0.0
  0
LINE
  5
38e
100
AcDbEntity
  8
0
 62
7
100
AcDbLine
 10
20.276335
 20
18.400880
 30
0.0
 11
20.562639
 21
18.308828
 31
0.0
  0
LINE
  5
38f
100
AcDbEntity
  8
0
 62
7
100
AcDbLine
 10
20.562639
 20
18.308828
 30
0.0
 11
20.842819
 21
18.213122
 31
0.0
  0
LINE
  5
390
100
AcDbEntity
  8
0
 62
7
100
AcDbLine
 10
20.842819
 20
18.213122
 30
0.0
 11
21.116686
 21
18.113789
 31
0.0
  0
LINE
  5
391
100
AcDbEntity
  8
0
 62
7
100
AcDbLine
 10
21.116686
 20
18.113789
 30
0.0
 11
21.384052
 21
18.010858
 31
0.0
  0
LINE
  5
392
100
AcDbEntity
  8
0
 62
7
100
AcDbLine
 10
21.384052
 20
18.010858
 30
0.0
 11
21.458714
 21
17.980960
 31
0.0
  0
LINE
  5
393
100
AcDbEntity
  8
0
 62
7
100
AcDbLine
 10
21.458714
 20
17.980960
 30
0.0
 11
21.532625
 21
17.950854
 31
0.0
  0
LINE
  5
394
100
AcDbEntity
  8
0
 62
7
100
AcDbLine
 10
21.532625
 20
17.950854
 30
0.0
 11
21.605781
 21
17.920542
 31
0.0
  0
LINE
  5
395
100
AcDbEntity
  8
0
 62
7
100
AcDbLine
 10
21.605781
 20
17.920542
 30
0.0
 11
21.678181
 21
17.890027
 31
0.0
  0
LINE
  5
396
100
AcDbEntity
  8
0
 62
7
100
AcDbLine
 10
21.678181
 20
17.890027
 30
0.0
 11
21.749819
 21
17.859312
 31
0.0
  0
LINE
  5
397
100
AcDbEntity
  8
0
 62
7
100
AcDbLine
 10
21.749819
 20
17.859312
 30
0.0
 11
21.820694
 21
17.828399
 31
0.0
  0
LINE
  5
398
100
AcDbEntity
  8
0
 62
7
100
AcDbLine
 10
21.820694
 20
17.828399
 30
0.0
 11
21.890802
 21
17.797293
 31
0.0
  0
LINE
  5
399
100
AcDbEntity
  8
0
 62
7
100
AcDbLine
 10
21.890802
 20
17.797293
 30
0.0
 11
21.960138
 21
17.765995
 31
0.0
  0
LINE
  5
39a
100
AcDbEntity
  8
0
 62
7
100
AcDbLine
 10
21.960138
 20
17.765995
 30
0.0
 11
22.028701
 21
17.734508
 31
0.0
  0
LINE
  5
39b
100
AcDbEntity
  8
0
 62
7
100
AcDbLine
 10
22.028701
 20
17.734508
 30
0.0
 11
22.096487
 21
17.702836
 31
0.0
  0
LINE
  5
39c
100
AcDbEntity
  8
0
 62
7
100
AcDbLine
 10
22.096487
 20
17.702836
 30
0.0
 11
22.163492
 21
17.670981
 31
0.0
  0
LINE
  5
39d
100
AcDbEntity
  8
0
 62
7
100
AcDbLine
 10
22.163492
 20
17.670981
 30
0.0
 11
22.229713
 21
17.638946
 31
0.0
  0
LINE
  5
39e
100
AcDbEntity
  8
0
 62
7
100
AcDbLine
 10
22.229713
 20
17.638946
 30
0.0
 11
22.295148
 21
17.606734
 31
0.0
  0
LINE
  5
39f
100
AcDbEntity
  8
0
 62
7
100
AcDbLine
 10
22.295148
 20
17.606734
 30
0.0
 11
22.359792
 21
17.574349
 31
0.0
  0
LINE
  5
3a0
100
AcDbEntity
  8
0
 62
7
100
AcDbLine
 10
22.359792
 20
17.574349
 30
0.0
 11
22.423642
 21
17.541792
 31
0.0
  0
LINE
  5
3a1
100
AcDbEntity
  8
0
 62
7
100
AcDbLine
 10
22.423642
 20
17.541792
 30
0.0
 11
22.486695
 21
17.509067
 31
0.0
  0
LINE
  5
3a2
100
AcDbEntity
  8
0
 62
7
100
AcDbLine
 10
22.486695
 20
17.509067
 30
0.0
 11
22.486695
 21
17.549125
 31
0.0
  0
LINE
  5
3a3
100
AcDbEntity
  8
0
 62
7
100
AcDbLine
 10
22.486695
 20
17.549125
 30
0.0
 11
22.486695
 21
17.589182
 31
0.0
  0
LINE
  5
3a4
100
AcDbEntity
  8
0
 62
7
100
AcDbLine
 10
22.486695
 20
17.589182
 30
0.0
 11
22.486695
 21
17.629241
 31
0.0
  0
LINE
  5
3a5
100
AcDbEntity
  8
0
 62
7
100
AcDbLine
 10
22.486695
 20
17.629241
 30
0.0
 11
22.486695
 21
17.669298
 31
0.0
  0
LINE
  5
3a6
100
AcDbEntity
  8
0
 62
7
100
AcDbLine
 10
22.486695
 20
17.669298
 30
0.0
 11
22.486695
 21
17.709356
 31
0.0
  0
LINE
  5
3a7
100
AcDbEntity
  8
0
 62
7
100
AcDbLine
 10
22.486695
 20
17.709356
 30
0.0
 11
22.486695
 21
17.749414
 31
0.0
  0
LINE
  5
3a8
100
AcDbEntity
  8
0
 62
7
100
AcDbLine
 10
22.486695
 20
17.749414
 30
0.0
 11
22.486695
 21
17.789472
 31
0.0
  0
LINE
  5
3a9
100
AcDbEntity
  8
0
 62
7
100
AcDbLine
 10
22.486695
 20
17.789472
 30
0.0
 11
22.486695
 21
17.829530
 31
0.0
  0
LINE
  5
3aa
100
AcDbEntity
  8
0
 62
7
100
AcDbLine
 10
22.486695
 20
17.829530
 30
0.0
 11
22.486695
 21
17.869588
 31
0.0
  0
LINE
  5
3ab
100
AcDbEntity
  8
0
 62
7
100
AcDbLine
 10
22.486695
 20
17.869588
 30
0.0
 11
22.486695
 21
17.909646
 31
0.0
  0
LINE
  5
3ac
100
AcDbEntity
  8
0
 62
7
100
AcDbLine
 10
22.486695
 20
17.909646
 30
0.0
 11
22.486695
 21
17.949704
 31
0.0
  0
LINE
  5
3ad
100
AcDbEntity
  8
0
 62
7
100
AcDbLine
 10
22.486695
 20
17.949704
 30
0.0
 11
22.486695
 21
17.989762
 31
0.0
  0
LINE
  5
3ae
100
AcDbEntity
  8
0
 62
7
100
AcDbLine
 10
22.486695
 20
17.989762
 30
0.0
 11
22.486695
 21
18.029820
 31
0.0
  0
LINE
  5
3af
100
AcDbEntity
  8
0
 62
7
100
AcDbLine
 10
22.486695
 20
18.029820
 30
0.0
 11
22.486695
 21
18.069878
 31
0.0
  0
LINE
  5
3b0
100
AcDbEntity
  8
0
 62
7
100
AcDbLine
 10
22.486695
 20
18.069878
 30
0.0
 11
22.486695
 21
18.109936
 31
0.0
  0
LINE
  5
3b1
100
AcDbEntity
  8
0
 62
7
100
AcDbLine
 10
22.486695
 20
18.109936
 30
0.0
 11
22.486695
 21
18.149993
 31
0.0
  0
LINE
  5
3b2
100
AcDbEntity
  8
0
 62
7
100
AcDbLine
 10
22.486695
 20
18.149993
 30
0.0
 11
22.189458
 21
18.290167
 31
0.0
  0
LINE
  5
3b3
100
AcDbEntity
  8
0
 62
7
100
AcDbLine
 10
22.189458
 20
18.290167
 30
0.0
 11
21.879746
 21
18.425907
 31
0.0
  0
LINE
  5
3b4
100
AcDbEntity
  8
0
 62
7
100
AcDbLine
 10
21.879746
 20
18.425907
 30
0.0
 11
21.557913
 21
18.557079
 31
0.0
  0
LINE
  5
3b5
100
AcDbEntity
  8
0
 62
7
100
AcDbLine
 10
21.557913
 20
18.557079
 30
0.0
 11
21.224310
 21
18.683548
 31
0.0
  0
LINE
  5
3b6
100
AcDbEntity
  8
0
 62
7
100
AcDbLine
 10
21.224310
 20
18.683548
 30
0.0
 11
20.879289
 21
18.805180
 31
0.0
  0
LINE
  5
3b7
100
AcDbEntity
  8
0
 62
7
100
AcDbLine
 10
20.879289
 20
18.805180
 30
0.0
 11
20.523200
 21
18.921841
 31
0.0
  0
LINE
  5
3b8
100
AcDbEntity
  8
0
 62
7
100
AcDbLine
 10
20.523200
 20
18.921841
 30
0.0
 11
20.156397
 21
19.033396
 31
0.0
  0
LINE
  5
3b9
100
AcDbEntity
  8
0
 62
7
100
AcDbLine
 10
20.156397
 20
19.033396
 30
0.0
 11
19.779231
 21
19.139711
 31
0.0
  0
LINE
  5
3ba
100
AcDbEntity
  8
0
 62
7
100
AcDbLine
 10
19.779231
 20
19.139711
 30
0.0
 11
19.392054
 21
19.240652
 31
0.0
  0
LINE
  5
3bb
100
AcDbEntity
  8
0
 62
7
100
AcDbLine
 10
19.392054
 20
19.240652
 30
0.0
 11
18.995217
 21
19.336085
 31
0.0
  0
LINE
  5
3bc
100
AcDbEntity
  8
0
 62
7
100
AcDbLine
 10
18.995217
 20
19.336085
 30
0.0
 11
18.589073
 21
19.425874
 31
0.0
  0
LINE
  5
3bd
100
AcDbEntity
  8
0
 62
7
100
AcDbLine
 10
18.589073
 20
19.425874
 30
0.0
 11
18.173973
 21
19.509886
 31
0.0
  0
LINE
  5
3be
100
AcDbEntity
  8
0
 62
7
100
AcDbLine
 10
18.173973
 20
19.509886
 30
0.0
 11
17.750269
 21
19.587986
 31
0.0
  0
LINE
  5
3bf
100
AcDbEntity
  8
0
 62
7
100
AcDbLine
 10
17.750269
 20
19.587986
 30
0.0
 11
17.318313
 21
19.660039
 31
0.0
  0
LINE
  5
3c0
100
AcDbEntity
  8
0
 62
7
100
AcDbLine
 10
17.318313
 20
19.660039
 30
0.0
 11
16.878457
 21
19.725913
 31
0.0
  0
LINE
  5
3c1
100
AcDbEntity
  8
0
 62
7
100
AcDbLine
 10
16.878457
 20
19.725913
 30
0.0
 11
16.431052
 21
19.785471
 31
0.0
  0
LINE
  5
3c2
100
AcDbEntity
  8
0
 62
7
100
AcDbLine
 10
5.568884
 20
26.279969
 30
0.0
 11
5.416252
 21
25.523956
 31
0.0
  0
LINE
  5
3c3
100
AcDbEntity
  8
0
 62
7
100
AcDbLine
 10
5.416252
 20
25.523956
 30
0.0
 11
5.000011
 21
24.906588
 31
0.0
  0
LINE
  5
3c4
100
AcDbEntity
  8
0
 62
7
100
AcDbLine
 10
5.000011
 20
24.906588
 30
0.0
 11
4.382643
 21
24.490348
 31
0.0
  0
LINE
  5
3c5
100
AcDbEntity
  8
0
 62
7
100
AcDbLine
 10
4.382643
 20
24.490348
 30
0.0
 11
3.626630
 21
24.337716
 31
0.0
  0
LINE
  5
3c6
100
AcDbEntity
  8
0
 62
7
100
AcDbLine
 10
3.626630
 20
24.337716
 30
0.0
 11
2.870618
 21
24.490348
 31
0.0
  0
LINE
  5
3c7
100
AcDbEntity
  8
0
 62
7
100
AcDbLine
 10
2.870618
 20
24.490348
 30
0.0
 11
2.253250
 21
24.906588
 31
0.0
  0
LINE
  5
3c8
100
AcDbEntity
  8
0
 62
7
100
AcDbLine
 10
2.253250
 20
24.906588
 30
0.0
 11
1.837009
 21
25.523956
 31
0.0
  0
LINE
  5
3c9
100
AcDbEntity
  8
0
 62
7
100
AcDbLine
 10
1.837009
 20
25.523956
 30
0.0
 11
1.684377
 21
26.279969
 31
0.0
  0
LINE
  5
3ca
100
AcDbEntity
  8
0
 62
7
100
AcDbLine
 10
1.684377
 20
26.279969
 30
0.0
 11
1.837009
 21
27.035982
 31
0.0
  0
LINE
  5
3cb
100
AcDbEntity
  8
0
 62
7
100
AcDbLine
 10
1.837009
 20
27.035982
 30
0.0
 11
2.253250
 21
27.653349
 31
0.0
  0
LINE
  5
3cc
100
AcDbEntity
  8
0
 62
7
100
AcDbLine
 10
2.253250
 20
27.653349
 30
0.0
 11
2.870618
 21
28.069590
 31
0.0
  0
LINE
  5
3cd
100
AcDbEntity
  8
0
 62
7
100
AcDbLine
 10
2.870618
 20
28.069590
 30
0.0
 11
3.626630
 21
28.222222
 31
0.0
  0
LINE
  5
3ce
100
AcDbEntity
  8
0
 62
7
100
AcDbLine
 10
3.626630
 20
28.222222
 30
0.0
 11
4.382643
 21
28.069590
 31
0.0
  0
LINE
  5
3cf
100
AcDbEntity
  8
0
 62
7
100
AcDbLine
 10
4.382643
 20
28.069590
 30
0.0
 11
5.000011
 21
27.653349
 31
0.0
  0
LINE
  5
3d0
100
AcDbEntity
  8
0
 62
7
100
AcDbLine
 10
5.000011
 20
27.653349
 30
0.0
 11
5.416252
 21
27.035982
 31
0.0
  0
LINE
  5
3d1
100
AcDbEntity
  8
0
 62
7
100
AcDbLine
 10
5.416252
 20
27.035982
 30
0.0
 11
5.568884
 21
26.279969
 31
0.0
  0
LINE
  5
3d2
100
AcDbEntity
  8
0
 62
7
100
AcDbLine
 10
23.510878
 20
26.279969
 30
0.0
 11
23.358246
 21
25.523956
 31
0.0
  0
LINE
  5
3d3
100
AcDbEntity
  8
0
 62
7
100
AcDbLine
 10
23.358246
 20
25.523956
 30
0.0
 11
22.942005
 21
24.906588
 31
0.0
  0
LINE
  5
3d4
100
AcDbEntity
  8
0
 62
7
100
AcDbLine
 10
22.942005
 20
24.906588
 30
0.0
 11
22.324637
 21
24.490348
 31
0.0
  0
LINE
  5
3d5
100
AcDbEntity
  8
0
 62
7
100
AcDbLine
 10
22.324637
 20
24.490348
 30
0.0
 11
21.568625
 21
24.337716
 31
0.0
  0
LINE
  5
3d6
100
AcDbEntity
  8
0
 62
7
100
AcDbLine
 10
21.568625
 20
24.337716
 30
0.0
 11
20.812612
 21
24.490348
 31
0.0
  0
LINE
  5
3d7
100
AcDbEntity
  8
0
 62
7
100
AcDbLine
 10
20.812612
 20
24.490348
 30
0.0
 11
20.195244
 21
24.906588
 31
0.0
  0
LINE
  5
3d8
100
AcDbEntity
  8
0
 62
7
100
AcDbLine
 10
20.195244
 20
24.906588
 30
0.0
 11
19.779003
 21
25.523956
 31
0.0
  0
LINE
  5
3d9
100
AcDbEntity
  8
0
 62
7
100
AcDbLine
 10
19.779003
 20
25.523956
 30
0.0
 11
19.626371
 21
26.279969
 31
0.0
  0
LINE
  5
3da
100
AcDbEntity
  8
0
 62
7
100
AcDbLine
 10
19.626371
 20
26.279969
 30
0.0
 11
19.779003
 21
27.035982
 31
0.0
  0
LINE
  5
3db
100
AcDbEntity
  8
0
 62
7
100
AcDbLine
 10
19.779003
 20
27.035982
 30
0.0
 11
20.195244
 21
27.653349
 31
0.0
  0
LINE
  5
3dc
100
AcDbEntity
  8
0
 62
7
100
AcDbLine
 10
20.195244
 20
27.653349
 30
0.0
 11
20.812612
 21
28.069590
 31
0.0
  0
LINE
  5
3dd
100
AcDbEntity
  8
0
 62
7
100
AcDbLine
 10
20.812612
 20
28.069590
 30
0.0
 11
21.568625
 21
28.222222
 31
0.0
  0
LINE
  5
3de
100
AcDbEntity
  8
0
 62
7
100
AcDbLine
 10
21.568625
 20
28.222222
 30
0.0
 11
22.324637
 21
28.069590
 31
0.0
  0
LINE
  5
3df
100
AcDbEntity
  8
0
 62
7
100
AcDbLine
 10
22.324637
 20
28.069590
 30
0.0
 11
22.942005
 21
27.653349
 31
0.0
  0
LINE
  5
3e0
100
AcDbEntity
  8
0
 62
7
100
AcDbLine
 10
22.942005
 20
27.653349
 30
0.0
 11
23.358246
 21
27.035982
 31
0.0
  0
LINE
  5
3e1
100
AcDbEntity
  8
0
 62
7
100
AcDbLine
 10
23.358246
 20
27.035982
 30
0.0
 11
23.510878
 21
26.279969
 31
0.0
  0
ENDSEC
  0
SECTION
  2
OBJECTS
  0
DICTIONARY
  5
C
330
0
100
AcDbDictionary
  3
ACAD_GROUP
350
D
  3
ACAD_MLINESTYLE
350
17
  0
DICTIONARY
  5
D
330
C
100
AcDbDictionary
  0
DICTIONARY
  5
1A
330
C
100
AcDbDictionary
  0
DICTIONARY
  5
17
330
C
100
AcDbDictionary
  3
STANDARD
350
18
  0
DICTIONARY
  5
19
330
C
100
AcDbDictionary
  0
ENDSEC
  0
EOF
