  0
SECTION
  2
HEADER
  9
$ACADVER
  1
AC1014
  9
$HANDSEED
  5
FFFF
  9
$MEASUREMENT
 70
     1
  0
ENDSEC
  0
SECTION
  2
TABLES
  0
TABLE
  2
VPORT
  5
8
330
0
100
AcDbSymbolTable
 70
     4
  0
VPORT
  5
2E
330
8
100
AcDbSymbolTableRecord
100
AcDbViewportTableRecord
  2
*ACTIVE
 70
     0
 10
0.0
 20
0.0
 11
1.0
 21
1.0
 12
210.0
 22
148.5
 13
0.0
 23
0.0
 14
10.0
 24
10.0
 15
10.0
 25
10.0
 16
0.0
 26
0.0
 36
1.0
 17
0.0
 27
0.0
 37
0.0
 40
341.0
 41
1.24
 42
50.0
 43
0.0
 44
0.0
 50
0.0
 51
0.0
 71
     0
 72
   100
 73
     1
 74
     3
 75
     0
 76
     0
 77
     0
 78
     0
  0
ENDTAB
  0
TABLE
  2
LTYPE
  5
5
330
0
100
AcDbSymbolTable
 70
     1
  0
LTYPE
  5
14
330
5
100
AcDbSymbolTableRecord
100
AcDbLinetypeTableRecord
  2
BYBLOCK
 70
     0
  3

 72
    65
 73
     0
 40
0.0
  0
LTYPE
  5
15
330
5
100
AcDbSymbolTableRecord
100
AcDbLinetypeTableRecord
  2
BYLAYER
 70
     0
  3

 72
    65
 73
     0
 40
0.0
  0
LTYPE
  5
16
330
5
100
AcDbSymbolTableRecord
100
AcDbLinetypeTableRecord
  2
CONTINUOUS
 70
     0
  3
Solid line
 72
    65
 73
     0
 40
0.0
  0
ENDTAB
  0
TABLE
  2
LAYER
  5
2
100
AcDbSymbolTable
 70
1
  0
LAYER
  5
50
100
AcDbSymbolTableRecord
100
AcDbLayerTableRecord
  2
0
 70
0
  6
CONTINUOUS
  0
ENDTAB
  0
TABLE
  2
STYLE
  5
3
330
0
100
AcDbSymbolTable
 70
     1
  0
STYLE
  5
11
330
3
100
AcDbSymbolTableRecord
100
AcDbTextStyleTableRecord
  2
STANDARD
 70
     0
 40
0.0
 41
1.0
 50
0.0
 71
     0
 42
2.5
  3
txt
  4

  0
ENDTAB
  0
TABLE
  2
VIEW
  5
6
330
0
100
AcDbSymbolTable
 70
     0
  0
ENDTAB
  0
TABLE
  2
UCS
  5
7
330
0
100
AcDbSymbolTable
 70
     0
  0
ENDTAB
  0
TABLE
  2
APPID
  5
9
330
0
100
AcDbSymbolTable
 70
     2
  0
APPID
  5
12
330
9
100
AcDbSymbolTableRecord
100
AcDbRegAppTableRecord
  2
ACAD
 70
     0
  0
ENDTAB
  0
TABLE
  2
DIMSTYLE
  5
A
330
0
100
AcDbSymbolTable
 70
     1
  0
DIMSTYLE
105
27
330
A
100
AcDbSymbolTableRecord
100
AcDbDimStyleTableRecord
  2
ISO-25
 70
     0
  3

  4

  5

  6

  7

 40
1.0
 41
2.5
 42
0.625
 43
3.75
 44
1.25
 45
0.0
 46
0.0
 47
0.0
 48
0.0
140
2.5
141
2.5
142
0.0
143
0.03937007874016
144
1.0
145
0.0
146
1.0
147
0.625
 71
     0
 72
     0
 73
     0
 74
     0
 75
     0
 76
     0
 77
     1
 78
     8
170
     0
171
     3
172
     1
173
     0
174
     0
175
     0
176
     0
177
     0
178
     0
270
     2
271
     2
272
     2
273
     2
274
     3
340
11
275
     0
280
     0
281
     0
282
     0
283
     0
284
     8
285
     0
286
     0
287
     3
288
     0
  0
ENDTAB
  0
TABLE
  2
BLOCK_RECORD
  5
1
330
0
100
AcDbSymbolTable
 70
     1
  0
BLOCK_RECORD
  5
1F
330
1
100
AcDbSymbolTableRecord
100
AcDbBlockTableRecord
  2
*MODEL_SPACE
  0
BLOCK_RECORD
  5
1B
330
1
100
AcDbSymbolTableRecord
100
AcDbBlockTableRecord
  2
*PAPER_SPACE
  0
ENDTAB
  0
ENDSEC
  0
SECTION
  2
BLOCKS
  0
BLOCK
  5
20
330
1F
100
AcDbEntity
  8
0
100
AcDbBlockBegin
  2
*MODEL_SPACE
 70
     0
 10
0.0
 20
0.0
 30
0.0
  3
*MODEL_SPACE
  1

  0
ENDBLK
  5
21
330
1F
100
AcDbEntity
  8
0
100
AcDbBlockEnd
  0
BLOCK
  5
1C
330
1B
100
AcDbEntity
 67
     1
  8
0
100
AcDbBlockBegin
  2
*PAPER_SPACE
  1

  0
ENDBLK
  5
1D
330
1B
100
AcDbEntity
 67
     1
  8
0
100
AcDbBlockEnd
  0
ENDSEC
  0
SECTION
  2
ENTITIES
  0
LINE
  5
100
100
AcDbEntity
  8
0
 62
7
100
AcDbLine
 10
5.390444
 20
20.887990
 30
0.0
 11
5.390444
 21
20.929111
 31
0.0
  0
LINE
  5
101
100
AcDbEntity
  8
0
 62
7
100
AcDbLine
 10
5.390444
 20
20.929111
 30
0.0
 11
5.390444
 21
20.968247
 31
0.0
  0
LINE
  5
102
100
AcDbEntity
  8
0
 62
7
100
AcDbLine
 10
5.390444
 20
20.968247
 30
0.0
 11
5.390444
 21
21.006060
 31
0.0
  0
LINE
  5
103
100
AcDbEntity
  8
0
 62
7
100
AcDbLine
 10
5.390444
 20
21.006060
 30
0.0
 11
5.390444
 21
21.043212
 31
0.0
  0
LINE
  5
104
100
AcDbEntity
  8
0
 62
7
100
AcDbLine
 10
5.390444
 20
21.043212
 30
0.0
 11
5.390444
 21
21.080364
 31
0.0
  0
LINE
  5
105
100
AcDbEntity
  8
0
 62
7
100
AcDbLine
 10
5.390444
 20
21.080364
 30
0.0
 11
5.390444
 21
21.118177
 31
0.0
  0
LINE
  5
106
100
AcDbEntity
  8
0
 62
7
100
AcDbLine
 10
5.390444
 20
21.118177
 30
0.0
 11
5.390444
 21
21.157314
 31
0.0
  0
LINE
  5
107
100
AcDbEntity
  8
0
 62
7
100
AcDbLine
 10
5.390444
 20
21.157314
 30
0.0
 11
5.390444
 21
21.198434
 31
0.0
  0
LINE
  5
108
100
AcDbEntity
  8
0
 62
7
100
AcDbLine
 10
5.390444
 20
21.198434
 30
0.0
 11
5.390499
 21
21.230184
 31
0.0
  0
LINE
  5
109
100
AcDbEntity
  8
0
 62
7
100
AcDbLine
 10
5.390499
 20
21.230184
 30
0.0
 11
5.390895
 21
21.261934
 31
0.0
  0
LINE
  5
10a
100
AcDbEntity
  8
0
 62
7
100
AcDbLine
 10
5.390895
 20
21.261934
 30
0.0
 11
5.391939
 21
21.293684
 31
0.0
  0
LINE
  5
10b
100
AcDbEntity
  8
0
 62
7
100
AcDbLine
 10
5.391939
 20
21.293684
 30
0.0
 11
5.393971
 21
21.325434
 31
0.0
  0
LINE
  5
10c
100
AcDbEntity
  8
0
 62
7
100
AcDbLine
 10
5.393971
 20
21.325434
 30
0.0
 11
5.397332
 21
21.357184
 31
0.0
  0
LINE
  5
10d
100
AcDbEntity
  8
0
 62
7
100
AcDbLine
 10
5.397332
 20
21.357184
 30
0.0
 11
5.402347
 21
21.388934
 31
0.0
  0
LINE
  5
10e
100
AcDbEntity
  8
0
 62
7
100
AcDbLine
 10
5.402347
 20
21.388934
 30
0.0
 11
5.409349
 21
21.420684
 31
0.0
  0
LINE
  5
10f
100
AcDbEntity
  8
0
 62
7
100
AcDbLine
 10
5.409349
 20
21.420684
 30
0.0
 11
5.418667
 21
21.452434
 31
0.0
  0
LINE
  5
110
100
AcDbEntity
  8
0
 62
7
100
AcDbLine
 10
5.418667
 20
21.452434
 30
0.0
 11
4.294463
 21
21.576733
 31
0.0
  0
LINE
  5
111
100
AcDbEntity
  8
0
 62
7
100
AcDbLine
 10
4.294463
 20
21.576733
 30
0.0
 11
3.314788
 21
21.732452
 31
0.0
  0
LINE
  5
112
100
AcDbEntity
  8
0
 62
7
100
AcDbLine
 10
3.314788
 20
21.732452
 30
0.0
 11
2.481296
 21
21.911321
 31
0.0
  0
LINE
  5
113
100
AcDbEntity
  8
0
 62
7
100
AcDbLine
 10
2.481296
 20
21.911321
 30
0.0
 11
1.795639
 21
22.105073
 31
0.0
  0
LINE
  5
114
100
AcDbEntity
  8
0
 62
7
100
AcDbLine
 10
1.795639
 20
22.105073
 30
0.0
 11
1.259472
 21
22.305440
 31
0.0
  0
LINE
  5
115
100
AcDbEntity
  8
0
 62
7
100
AcDbLine
 10
1.259472
 20
22.305440
 30
0.0
 11
0.874448
 21
22.504153
 31
0.0
  0
LINE
  5
116
100
AcDbEntity
  8
0
 62
7
100
AcDbLine
 10
0.874448
 20
22.504153
 30
0.0
 11
0.642221
 21
22.692944
 31
0.0
  0
LINE
  5
117
100
AcDbEntity
  8
0
 62
7
100
AcDbLine
 10
0.642221
 20
22.692944
 30
0.0
 11
0.564444
 21
22.863545
 31
0.0
  0
LINE
  5
118
100
AcDbEntity
  8
0
 62
7
100
AcDbLine
 10
0.564444
 20
22.863545
 30
0.0
 11
0.592171
 21
22.963701
 31
0.0
  0
LINE
  5
119
100
AcDbEntity
  8
0
 62
7
100
AcDbLine
 10
0.592171
 20
22.963701
 30
0.0
 11
0.675128
 21
23.072125
 31
0.0
  0
LINE
  5
11a
100
AcDbEntity
  8
0
 62
7
100
AcDbLine
 10
0.675128
 20
23.072125
 30
0.0
 11
0.812987
 21
23.186502
 31
0.0
  0
LINE
  5
11b
100
AcDbEntity
  8
0
 62
7
100
AcDbLine
 10
0.812987
 20
23.186502
 30
0.0
 11
1.005417
 21
23.304518
 31
0.0
  0
LINE
  5
11c
100
AcDbEntity
  8
0
 62
7
100
AcDbLine
 10
1.005417
 20
23.304518
 30
0.0
 11
1.252085
 21
23.423856
 31
0.0
  0
LINE
  5
11d
100
AcDbEntity
  8
0
 62
7
100
AcDbLine
 10
1.252085
 20
23.423856
 30
0.0
 11
1.552663
 21
23.542202
 31
0.0
  0
LINE
  5
11e
100
AcDbEntity
  8
0
 62
7
100
AcDbLine
 10
1.552663
 20
23.542202
 30
0.0
 11
1.906819
 21
23.657240
 31
0.0
  0
LINE
  5
11f
100
AcDbEntity
  8
0
 62
7
100
AcDbLine
 10
1.906819
 20
23.657240
 30
0.0
 11
2.314222
 21
23.766657
 31
0.0
  0
LINE
  5
120
100
AcDbEntity
  8
0
 62
7
100
AcDbLine
 10
2.314222
 20
23.766657
 30
0.0
 11
2.294378
 21
23.831424
 31
0.0
  0
LINE
  5
121
100
AcDbEntity
  8
0
 62
7
100
AcDbLine
 10
2.294378
 20
23.831424
 30
0.0
 11
2.277181
 21
23.898507
 31
0.0
  0
LINE
  5
122
100
AcDbEntity
  8
0
 62
7
100
AcDbLine
 10
2.277181
 20
23.898507
 30
0.0
 11
2.262628
 21
23.967574
 31
0.0
  0
LINE
  5
123
100
AcDbEntity
  8
0
 62
7
100
AcDbLine
 10
2.262628
 20
23.967574
 30
0.0
 11
2.250722
 21
24.038295
 31
0.0
  0
LINE
  5
124
100
AcDbEntity
  8
0
 62
7
100
AcDbLine
 10
2.250722
 20
24.038295
 30
0.0
 11
2.241462
 21
24.110339
 31
0.0
  0
LINE
  5
125
100
AcDbEntity
  8
0
 62
7
100
AcDbLine
 10
2.241462
 20
24.110339
 30
0.0
 11
2.234847
 21
24.183375
 31
0.0
  0
LINE
  5
126
100
AcDbEntity
  8
0
 62
7
100
AcDbLine
 10
2.234847
 20
24.183375
 30
0.0
 11
2.230878
 21
24.257073
 31
0.0
  0
LINE
  5
127
100
AcDbEntity
  8
0
 62
7
100
AcDbLine
 10
2.230878
 20
24.257073
 30
0.0
 11
2.229556
 21
24.331101
 31
0.0
  0
LINE
  5
128
100
AcDbEntity
  8
0
 62
7
100
AcDbLine
 10
2.229556
 20
24.331101
 30
0.0
 11
1.761023
 21
24.206692
 31
0.0
  0
LINE
  5
129
100
AcDbEntity
  8
0
 62
7
100
AcDbLine
 10
1.761023
 20
24.206692
 30
0.0
 11
1.333500
 21
24.066077
 31
0.0
  0
LINE
  5
12a
100
AcDbEntity
  8
0
 62
7
100
AcDbLine
 10
1.333500
 20
24.066077
 30
0.0
 11
0.953602
 21
23.908925
 31
0.0
  0
LINE
  5
12b
100
AcDbEntity
  8
0
 62
7
100
AcDbLine
 10
0.953602
 20
23.908925
 30
0.0
 11
0.627944
 21
23.734907
 31
0.0
  0
LINE
  5
12c
100
AcDbEntity
  8
0
 62
7
100
AcDbLine
 10
0.627944
 20
23.734907
 30
0.0
 11
0.363141
 21
23.543690
 31
0.0
  0
LINE
  5
12d
100
AcDbEntity
  8
0
 62
7
100
AcDbLine
 10
0.363141
 20
23.543690
 30
0.0
 11
0.165806
 21
23.334945
 31
0.0
  0
LINE
  5
12e
100
AcDbEntity
  8
0
 62
7
100
AcDbLine
 10
0.165806
 20
23.334945
 30
0.0
 11
0.042554
 21
23.108340
 31
0.0
  0
LINE
  5
12f
100
AcDbEntity
  8
0
 62
7
100
AcDbLine
 10
0.042554
 20
23.108340
 30
0.0
 11
0.000000
 21
22.863545
 31
0.0
  0
LINE
  5
130
100
AcDbEntity
  8
0
 62
7
100
AcDbLine
 10
0.000000
 20
22.863545
 30
0.0
 11
0.120496
 21
22.463804
 31
0.0
  0
LINE
  5
131
100
AcDbEntity
  8
0
 62
7
100
AcDbLine
 10
0.120496
 20
22.463804
 30
0.0
 11
0.461257
 21
22.110365
 31
0.0
  0
LINE
  5
132
100
AcDbEntity
  8
0
 62
7
100
AcDbLine
 10
0.461257
 20
22.110365
 30
0.0
 11
0.991195
 21
21.801905
 31
0.0
  0
LINE
  5
133
100
AcDbEntity
  8
0
 62
7
100
AcDbLine
 10
0.991195
 20
21.801905
 30
0.0
 11
1.679222
 21
21.537101
 31
0.0
  0
LINE
  5
134
100
AcDbEntity
  8
0
 62
7
100
AcDbLine
 10
1.679222
 20
21.537101
 30
0.0
 11
2.494249
 21
21.314631
 31
0.0
  0
LINE
  5
135
100
AcDbEntity
  8
0
 62
7
100
AcDbLine
 10
2.494249
 20
21.314631
 30
0.0
 11
3.405187
 21
21.133170
 31
0.0
  0
LINE
  5
136
100
AcDbEntity
  8
0
 62
7
100
AcDbLine
 10
3.405187
 20
21.133170
 30
0.0
 11
4.380949
 21
20.991398
 31
0.0
  0
LINE
  5
137
100
AcDbEntity
  8
0
 62
7
100
AcDbLine
 10
4.380949
 20
20.991398
 30
0.0
 11
5.390444
 21
20.887990
 31
0.0
  0
LINE
  5
138
100
AcDbEntity
  8
0
 62
7
100
AcDbLine
 10
16.340667
 20
22.863545
 30
0.0
 11
16.312114
 21
23.068653
 31
0.0
  0
LINE
  5
139
100
AcDbEntity
  8
0
 62
7
100
AcDbLine
 10
16.312114
 20
23.068653
 30
0.0
 11
16.228660
 21
23.260861
 31
0.0
  0
LINE
  5
13a
100
AcDbEntity
  8
0
 62
7
100
AcDbLine
 10
16.228660
 20
23.260861
 30
0.0
 11
16.093612
 21
23.440502
 31
0.0
  0
LINE
  5
13b
100
AcDbEntity
  8
0
 62
7
100
AcDbLine
 10
16.093612
 20
23.440502
 30
0.0
 11
15.910278
 21
23.607907
 31
0.0
  0
LINE
  5
13c
100
AcDbEntity
  8
0
 62
7
100
AcDbLine
 10
15.910278
 20
23.607907
 30
0.0
 11
15.681965
 21
23.763404
 31
0.0
  0
LINE
  5
13d
100
AcDbEntity
  8
0
 62
7
100
AcDbLine
 10
15.681965
 20
23.763404
 30
0.0
 11
15.411979
 21
23.907327
 31
0.0
  0
LINE
  5
13e
100
AcDbEntity
  8
0
 62
7
100
AcDbLine
 10
15.411979
 20
23.907327
 30
0.0
 11
15.103629
 21
24.040004
 31
0.0
  0
LINE
  5
13f
100
AcDbEntity
  8
0
 62
7
100
AcDbLine
 10
15.103629
 20
24.040004
 30
0.0
 11
14.760222
 21
24.161768
 31
0.0
  0
LINE
  5
140
100
AcDbEntity
  8
0
 62
7
100
AcDbLine
 10
14.760222
 20
24.161768
 30
0.0
 11
14.757626
 21
24.087739
 31
0.0
  0
LINE
  5
141
100
AcDbEntity
  8
0
 62
7
100
AcDbLine
 10
14.757626
 20
24.087739
 30
0.0
 11
14.750074
 21
24.014042
 31
0.0
  0
LINE
  5
142
100
AcDbEntity
  8
0
 62
7
100
AcDbLine
 10
14.750074
 20
24.014042
 30
0.0
 11
14.737893
 21
23.941006
 31
0.0
  0
LINE
  5
143
100
AcDbEntity
  8
0
 62
7
100
AcDbLine
 10
14.737893
 20
23.941006
 30
0.0
 11
14.721411
 21
23.868962
 31
0.0
  0
LINE
  5
144
100
AcDbEntity
  8
0
 62
7
100
AcDbLine
 10
14.721411
 20
23.868962
 30
0.0
 11
14.700961
 21
23.798241
 31
0.0
  0
LINE
  5
145
100
AcDbEntity
  8
0
 62
7
100
AcDbLine
 10
14.700961
 20
23.798241
 30
0.0
 11
14.676874
 21
23.729174
 31
0.0
  0
LINE
  5
146
100
AcDbEntity
  8
0
 62
7
100
AcDbLine
 10
14.676874
 20
23.729174
 30
0.0
 11
14.649478
 21
23.662091
 31
0.0
  0
LINE
  5
147
100
AcDbEntity
  8
0
 62
7
100
AcDbLine
 10
14.649478
 20
23.662091
 30
0.0
 11
14.619111
 21
23.597323
 31
0.0
  0
LINE
  5
148
100
AcDbEntity
  8
0
 62
7
100
AcDbLine
 10
14.619111
 20
23.597323
 30
0.0
 11
14.887608
 21
23.500971
 31
0.0
  0
LINE
  5
149
100
AcDbEntity
  8
0
 62
7
100
AcDbLine
 10
14.887608
 20
23.500971
 30
0.0
 11
15.121378
 21
23.403295
 31
0.0
  0
LINE
  5
14a
100
AcDbEntity
  8
0
 62
7
100
AcDbLine
 10
15.121378
 20
23.403295
 30
0.0
 11
15.320092
 21
23.305620
 31
0.0
  0
LINE
  5
14b
100
AcDbEntity
  8
0
 62
7
100
AcDbLine
 10
15.320092
 20
23.305620
 30
0.0
 11
15.483417
 21
23.209268
 31
0.0
  0
LINE
  5
14c
100
AcDbEntity
  8
0
 62
7
100
AcDbLine
 10
15.483417
 20
23.209268
 30
0.0
 11
15.611023
 21
23.115561
 31
0.0
  0
LINE
  5
14d
100
AcDbEntity
  8
0
 62
7
100
AcDbLine
 10
15.611023
 20
23.115561
 30
0.0
 11
15.702580
 21
23.025823
 31
0.0
  0
LINE
  5
14e
100
AcDbEntity
  8
0
 62
7
100
AcDbLine
 10
15.702580
 20
23.025823
 30
0.0
 11
15.757756
 21
22.941377
 31
0.0
  0
LINE
  5
14f
100
AcDbEntity
  8
0
 62
7
100
AcDbLine
 10
15.757756
 20
22.941377
 30
0.0
 11
15.776222
 21
22.863545
 31
0.0
  0
LINE
  5
150
100
AcDbEntity
  8
0
 62
7
100
AcDbLine
 10
15.776222
 20
22.863545
 30
0.0
 11
15.657656
 21
22.645264
 31
0.0
  0
LINE
  5
151
100
AcDbEntity
  8
0
 62
7
100
AcDbLine
 10
15.657656
 20
22.645264
 30
0.0
 11
15.303941
 21
22.403170
 31
0.0
  0
LINE
  5
152
100
AcDbEntity
  8
0
 62
7
100
AcDbLine
 10
15.303941
 20
22.403170
 30
0.0
 11
14.718054
 21
22.153139
 31
0.0
  0
LINE
  5
153
100
AcDbEntity
  8
0
 62
7
100
AcDbLine
 10
14.718054
 20
22.153139
 30
0.0
 11
13.902972
 21
21.911045
 31
0.0
  0
LINE
  5
154
100
AcDbEntity
  8
0
 62
7
100
AcDbLine
 10
13.902972
 20
21.911045
 30
0.0
 11
12.861672
 21
21.692764
 31
0.0
  0
LINE
  5
155
100
AcDbEntity
  8
0
 62
7
100
AcDbLine
 10
12.861672
 20
21.692764
 30
0.0
 11
11.597129
 21
21.514170
 31
0.0
  0
LINE
  5
156
100
AcDbEntity
  8
0
 62
7
100
AcDbLine
 10
11.597129
 20
21.514170
 30
0.0
 11
10.112320
 21
21.391139
 31
0.0
  0
LINE
  5
157
100
AcDbEntity
  8
0
 62
7
100
AcDbLine
 10
10.112320
 20
21.391139
 30
0.0
 11
8.410222
 21
21.339545
 31
0.0
  0
LINE
  5
158
100
AcDbEntity
  8
0
 62
7
100
AcDbLine
 10
8.410222
 20
21.339545
 30
0.0
 11
8.428855
 21
21.274778
 31
0.0
  0
LINE
  5
159
100
AcDbEntity
  8
0
 62
7
100
AcDbLine
 10
8.428855
 20
21.274778
 30
0.0
 11
8.442856
 21
21.207695
 31
0.0
  0
LINE
  5
15a
100
AcDbEntity
  8
0
 62
7
100
AcDbLine
 10
8.442856
 20
21.207695
 30
0.0
 11
8.452889
 21
21.138627
 31
0.0
  0
LINE
  5
15b
100
AcDbEntity
  8
0
 62
7
100
AcDbLine
 10
8.452889
 20
21.138627
 30
0.0
 11
8.459614
 21
21.067907
 31
0.0
  0
LINE
  5
15c
100
AcDbEntity
  8
0
 62
7
100
AcDbLine
 10
8.459614
 20
21.067907
 30
0.0
 11
8.463692
 21
20.995863
 31
0.0
  0
LINE
  5
15d
100
AcDbEntity
  8
0
 62
7
100
AcDbLine
 10
8.463692
 20
20.995863
 30
0.0
 11
8.465780
 21
20.922827
 31
0.0
  0
LINE
  5
15e
100
AcDbEntity
  8
0
 62
7
100
AcDbLine
 10
8.465780
 20
20.922827
 30
0.0
 11
8.466542
 21
20.849129
 31
0.0
  0
LINE
  5
15f
100
AcDbEntity
  8
0
 62
7
100
AcDbLine
 10
8.466542
 20
20.849129
 30
0.0
 11
8.466667
 21
20.775101
 31
0.0
  0
LINE
  5
160
100
AcDbEntity
  8
0
 62
7
100
AcDbLine
 10
8.466667
 20
20.775101
 30
0.0
 11
9.736832
 21
20.811591
 31
0.0
  0
LINE
  5
161
100
AcDbEntity
  8
0
 62
7
100
AcDbLine
 10
9.736832
 20
20.811591
 30
0.0
 11
11.066198
 21
20.902983
 31
0.0
  0
LINE
  5
162
100
AcDbEntity
  8
0
 62
7
100
AcDbLine
 10
11.066198
 20
20.902983
 30
0.0
 11
12.384319
 21
21.053906
 31
0.0
  0
LINE
  5
163
100
AcDbEntity
  8
0
 62
7
100
AcDbLine
 10
12.384319
 20
21.053906
 30
0.0
 11
13.620750
 21
21.268990
 31
0.0
  0
LINE
  5
164
100
AcDbEntity
  8
0
 62
7
100
AcDbLine
 10
13.620750
 20
21.268990
 30
0.0
 11
14.705046
 21
21.552866
 31
0.0
  0
LINE
  5
165
100
AcDbEntity
  8
0
 62
7
100
AcDbLine
 10
14.705046
 20
21.552866
 30
0.0
 11
15.566760
 21
21.910163
 31
0.0
  0
LINE
  5
166
100
AcDbEntity
  8
0
 62
7
100
AcDbLine
 10
15.566760
 20
21.910163
 30
0.0
 11
16.135449
 21
22.345513
 31
0.0
  0
LINE
  5
167
100
AcDbEntity
  8
0
 62
7
100
AcDbLine
 10
16.135449
 20
22.345513
 30
0.0
 11
16.340667
 21
22.863545
 31
0.0
  0
LINE
  5
168
100
AcDbEntity
  8
0
 62
7
100
AcDbLine
 10
5.475111
 20
20.295323
 30
0.0
 11
4.453985
 21
20.405456
 31
0.0
  0
LINE
  5
169
100
AcDbEntity
  8
0
 62
7
100
AcDbLine
 10
4.453985
 20
20.405456
 30
0.0
 11
3.550267
 21
20.541386
 31
0.0
  0
LINE
  5
16a
100
AcDbEntity
  8
0
 62
7
100
AcDbLine
 10
3.550267
 20
20.541386
 30
0.0
 11
2.764951
 21
20.697159
 31
0.0
  0
LINE
  5
16b
100
AcDbEntity
  8
0
 62
7
100
AcDbLine
 10
2.764951
 20
20.697159
 30
0.0
 11
2.099028
 21
20.866823
 31
0.0
  0
LINE
  5
16c
100
AcDbEntity
  8
0
 62
7
100
AcDbLine
 10
2.099028
 20
20.866823
 30
0.0
 11
1.553490
 21
21.044425
 31
0.0
  0
LINE
  5
16d
100
AcDbEntity
  8
0
 62
7
100
AcDbLine
 10
1.553490
 20
21.044425
 30
0.0
 11
1.129330
 21
21.224011
 31
0.0
  0
LINE
  5
16e
100
AcDbEntity
  8
0
 62
7
100
AcDbLine
 10
1.129330
 20
21.224011
 30
0.0
 11
0.827540
 21
21.399628
 31
0.0
  0
LINE
  5
16f
100
AcDbEntity
  8
0
 62
7
100
AcDbLine
 10
0.827540
 20
21.399628
 30
0.0
 11
0.649111
 21
21.565323
 31
0.0
  0
LINE
  5
170
100
AcDbEntity
  8
0
 62
7
100
AcDbLine
 10
0.649111
 20
21.565323
 30
0.0
 11
0.573815
 21
21.546692
 31
0.0
  0
LINE
  5
171
100
AcDbEntity
  8
0
 62
7
100
AcDbLine
 10
0.573815
 20
21.546692
 30
0.0
 11
0.496535
 21
21.532691
 31
0.0
  0
LINE
  5
172
100
AcDbEntity
  8
0
 62
7
100
AcDbLine
 10
0.496535
 20
21.532691
 30
0.0
 11
0.417931
 21
21.522659
 31
0.0
  0
LINE
  5
173
100
AcDbEntity
  8
0
 62
7
100
AcDbLine
 10
0.417931
 20
21.522659
 30
0.0
 11
0.338667
 21
21.515934
 31
0.0
  0
LINE
  5
174
100
AcDbEntity
  8
0
 62
7
100
AcDbLine
 10
0.338667
 20
21.515934
 30
0.0
 11
0.259402
 21
21.511855
 31
0.0
  0
LINE
  5
175
100
AcDbEntity
  8
0
 62
7
100
AcDbLine
 10
0.259402
 20
21.511855
 30
0.0
 11
0.180799
 21
21.509761
 31
0.0
  0
LINE
  5
176
100
AcDbEntity
  8
0
 62
7
100
AcDbLine
 10
0.180799
 20
21.509761
 30
0.0
 11
0.103518
 21
21.508989
 31
0.0
  0
LINE
  5
177
100
AcDbEntity
  8
0
 62
7
100
AcDbLine
 10
0.103518
 20
21.508989
 30
0.0
 11
0.028222
 21
21.508879
 31
0.0
  0
LINE
  5
178
100
AcDbEntity
  8
0
 62
7
100
AcDbLine
 10
0.028222
 20
21.508879
 30
0.0
 11
0.251079
 21
21.139564
 31
0.0
  0
LINE
  5
179
100
AcDbEntity
  8
0
 62
7
100
AcDbLine
 10
0.251079
 20
21.139564
 30
0.0
 11
0.668073
 21
20.813907
 31
0.0
  0
LINE
  5
17a
100
AcDbEntity
  8
0
 62
7
100
AcDbLine
 10
0.668073
 20
20.813907
 30
0.0
 11
1.251093
 21
20.530582
 31
0.0
  0
LINE
  5
17b
100
AcDbEntity
  8
0
 62
7
100
AcDbLine
 10
1.251093
 20
20.530582
 30
0.0
 11
1.972028
 21
20.288268
 31
0.0
  0
LINE
  5
17c
100
AcDbEntity
  8
0
 62
7
100
AcDbLine
 10
1.972028
 20
20.288268
 30
0.0
 11
2.802764
 21
20.085641
 31
0.0
  0
LINE
  5
17d
100
AcDbEntity
  8
0
 62
7
100
AcDbLine
 10
2.802764
 20
20.085641
 30
0.0
 11
3.715191
 21
19.921379
 31
0.0
  0
LINE
  5
17e
100
AcDbEntity
  8
0
 62
7
100
AcDbLine
 10
3.715191
 20
19.921379
 30
0.0
 11
4.681196
 21
19.794158
 31
0.0
  0
LINE
  5
17f
100
AcDbEntity
  8
0
 62
7
100
AcDbLine
 10
4.681196
 20
19.794158
 30
0.0
 11
5.672667
 21
19.702657
 31
0.0
  0
LINE
  5
180
100
AcDbEntity
  8
0
 62
7
100
AcDbLine
 10
5.672667
 20
19.702657
 30
0.0
 11
5.651554
 21
19.735674
 31
0.0
  0
LINE
  5
181
100
AcDbEntity
  8
0
 62
7
100
AcDbLine
 10
5.651554
 20
19.735674
 30
0.0
 11
5.630774
 21
19.771007
 31
0.0
  0
LINE
  5
182
100
AcDbEntity
  8
0
 62
7
100
AcDbLine
 10
5.630774
 20
19.771007
 30
0.0
 11
5.610654
 21
19.808324
 31
0.0
  0
LINE
  5
183
100
AcDbEntity
  8
0
 62
7
100
AcDbLine
 10
5.610654
 20
19.808324
 30
0.0
 11
5.591528
 21
19.847295
 31
0.0
  0
LINE
  5
184
100
AcDbEntity
  8
0
 62
7
100
AcDbLine
 10
5.591528
 20
19.847295
 30
0.0
 11
5.573722
 21
19.887589
 31
0.0
  0
LINE
  5
185
100
AcDbEntity
  8
0
 62
7
100
AcDbLine
 10
5.573722
 20
19.887589
 30
0.0
 11
5.557571
 21
19.928875
 31
0.0
  0
LINE
  5
186
100
AcDbEntity
  8
0
 62
7
100
AcDbLine
 10
5.557571
 20
19.928875
 30
0.0
 11
5.543403
 21
19.970823
 31
0.0
  0
LINE
  5
187
100
AcDbEntity
  8
0
 62
7
100
AcDbLine
 10
5.543403
 20
19.970823
 30
0.0
 11
5.531556
 21
20.013101
 31
0.0
  0
LINE
  5
188
100
AcDbEntity
  8
0
 62
7
100
AcDbLine
 10
5.531556
 20
20.013101
 30
0.0
 11
5.522185
 21
20.054167
 31
0.0
  0
LINE
  5
189
100
AcDbEntity
  8
0
 62
7
100
AcDbLine
 10
5.522185
 20
20.054167
 30
0.0
 11
5.514799
 21
20.092917
 31
0.0
  0
LINE
  5
18a
100
AcDbEntity
  8
0
 62
7
100
AcDbLine
 10
5.514799
 20
20.092917
 30
0.0
 11
5.508735
 21
20.129683
 31
0.0
  0
LINE
  5
18b
100
AcDbEntity
  8
0
 62
7
100
AcDbLine
 10
5.508735
 20
20.129683
 30
0.0
 11
5.503333
 21
20.164795
 31
0.0
  0
LINE
  5
18c
100
AcDbEntity
  8
0
 62
7
100
AcDbLine
 10
5.503333
 20
20.164795
 30
0.0
 11
5.497932
 21
20.198585
 31
0.0
  0
LINE
  5
18d
100
AcDbEntity
  8
0
 62
7
100
AcDbLine
 10
5.497932
 20
20.198585
 30
0.0
 11
5.491869
 21
20.231382
 31
0.0
  0
LINE
  5
18e
100
AcDbEntity
  8
0
 62
7
100
AcDbLine
 10
5.491869
 20
20.231382
 30
0.0
 11
5.484484
 21
20.263518
 31
0.0
  0
LINE
  5
18f
100
AcDbEntity
  8
0
 62
7
100
AcDbLine
 10
5.484484
 20
20.263518
 30
0.0
 11
5.475111
 21
20.295323
 31
0.0
  0
LINE
  5
190
100
AcDbEntity
  8
0
 62
7
100
AcDbLine
 10
16.651111
 20
21.819323
 30
0.0
 11
16.578240
 21
21.808740
 31
0.0
  0
LINE
  5
191
100
AcDbEntity
  8
0
 62
7
100
AcDbLine
 10
16.578240
 20
21.808740
 30
0.0
 11
16.507354
 21
21.798157
 31
0.0
  0
LINE
  5
192
100
AcDbEntity
  8
0
 62
7
100
AcDbLine
 10
16.507354
 20
21.798157
 30
0.0
 11
16.437791
 21
21.787573
 31
0.0
  0
LINE
  5
193
100
AcDbEntity
  8
0
 62
7
100
AcDbLine
 10
16.437791
 20
21.787573
 30
0.0
 11
16.368889
 21
21.776990
 31
0.0
  0
LINE
  5
194
100
AcDbEntity
  8
0
 62
7
100
AcDbLine
 10
16.368889
 20
21.776990
 30
0.0
 11
16.299987
 21
21.766407
 31
0.0
  0
LINE
  5
195
100
AcDbEntity
  8
0
 62
7
100
AcDbLine
 10
16.299987
 20
21.766407
 30
0.0
 11
16.230424
 21
21.755823
 31
0.0
  0
LINE
  5
196
100
AcDbEntity
  8
0
 62
7
100
AcDbLine
 10
16.230424
 20
21.755823
 30
0.0
 11
16.159537
 21
21.745240
 31
0.0
  0
LINE
  5
197
100
AcDbEntity
  8
0
 62
7
100
AcDbLine
 10
16.159537
 20
21.745240
 30
0.0
 11
16.086667
 21
21.734657
 31
0.0
  0
LINE
  5
198
100
AcDbEntity
  8
0
 62
7
100
AcDbLine
 10
16.086667
 20
21.734657
 30
0.0
 11
15.957407
 21
21.515163
 31
0.0
  0
LINE
  5
199
100
AcDbEntity
  8
0
 62
7
100
AcDbLine
 10
15.957407
 20
21.515163
 30
0.0
 11
15.592337
 21
21.269872
 31
0.0
  0
LINE
  5
19a
100
AcDbEntity
  8
0
 62
7
100
AcDbLine
 10
15.592337
 20
21.269872
 30
0.0
 11
14.993772
 21
21.015321
 31
0.0
  0
LINE
  5
19b
100
AcDbEntity
  8
0
 62
7
100
AcDbLine
 10
14.993772
 20
21.015321
 30
0.0
 11
14.164028
 21
20.768045
 31
0.0
  0
LINE
  5
19c
100
AcDbEntity
  8
0
 62
7
100
AcDbLine
 10
14.164028
 20
20.768045
 30
0.0
 11
13.105419
 21
20.544583
 31
0.0
  0
LINE
  5
19d
100
AcDbEntity
  8
0
 62
7
100
AcDbLine
 10
13.105419
 20
20.544583
 30
0.0
 11
11.820260
 21
20.361469
 31
0.0
  0
LINE
  5
19e
100
AcDbEntity
  8
0
 62
7
100
AcDbLine
 10
11.820260
 20
20.361469
 30
0.0
 11
10.310868
 21
20.235241
 31
0.0
  0
LINE
  5
19f
100
AcDbEntity
  8
0
 62
7
100
AcDbLine
 10
10.310868
 20
20.235241
 30
0.0
 11
8.579556
 21
20.182434
 31
0.0
  0
LINE
  5
1a0
100
AcDbEntity
  8
0
 62
7
100
AcDbLine
 10
8.579556
 20
20.182434
 30
0.0
 11
8.598188
 21
20.108351
 31
0.0
  0
LINE
  5
1a1
100
AcDbEntity
  8
0
 62
7
100
AcDbLine
 10
8.598188
 20
20.108351
 30
0.0
 11
8.612189
 21
20.034268
 31
0.0
  0
LINE
  5
1a2
100
AcDbEntity
  8
0
 62
7
100
AcDbLine
 10
8.612189
 20
20.034268
 30
0.0
 11
8.622222
 21
19.960184
 31
0.0
  0
LINE
  5
1a3
100
AcDbEntity
  8
0
 62
7
100
AcDbLine
 10
8.622222
 20
19.960184
 30
0.0
 11
8.628947
 21
19.886101
 31
0.0
  0
LINE
  5
1a4
100
AcDbEntity
  8
0
 62
7
100
AcDbLine
 10
8.628947
 20
19.886101
 30
0.0
 11
8.633025
 21
19.812018
 31
0.0
  0
LINE
  5
1a5
100
AcDbEntity
  8
0
 62
7
100
AcDbLine
 10
8.633025
 20
19.812018
 30
0.0
 11
8.635114
 21
19.737934
 31
0.0
  0
LINE
  5
1a6
100
AcDbEntity
  8
0
 62
7
100
AcDbLine
 10
8.635114
 20
19.737934
 30
0.0
 11
8.635876
 21
19.663851
 31
0.0
  0
LINE
  5
1a7
100
AcDbEntity
  8
0
 62
7
100
AcDbLine
 10
8.635876
 20
19.663851
 30
0.0
 11
8.636000
 21
19.589768
 31
0.0
  0
LINE
  5
1a8
100
AcDbEntity
  8
0
 62
7
100
AcDbLine
 10
8.636000
 20
19.589768
 30
0.0
 11
9.928434
 21
19.635629
 31
0.0
  0
LINE
  5
1a9
100
AcDbEntity
  8
0
 62
7
100
AcDbLine
 10
9.928434
 20
19.635629
 30
0.0
 11
11.281393
 21
19.734407
 31
0.0
  0
LINE
  5
1aa
100
AcDbEntity
  8
0
 62
7
100
AcDbLine
 10
11.281393
 20
19.734407
 30
0.0
 11
12.623105
 21
19.891393
 31
0.0
  0
LINE
  5
1ab
100
AcDbEntity
  8
0
 62
7
100
AcDbLine
 10
12.623105
 20
19.891393
 30
0.0
 11
13.881806
 21
20.111879
 31
0.0
  0
LINE
  5
1ac
100
AcDbEntity
  8
0
 62
7
100
AcDbLine
 10
13.881806
 20
20.111879
 30
0.0
 11
14.985724
 21
20.401157
 31
0.0
  0
LINE
  5
1ad
100
AcDbEntity
  8
0
 62
7
100
AcDbLine
 10
14.985724
 20
20.401157
 30
0.0
 11
15.863094
 21
20.764518
 31
0.0
  0
LINE
  5
1ae
100
AcDbEntity
  8
0
 62
7
100
AcDbLine
 10
15.863094
 20
20.764518
 30
0.0
 11
16.442145
 21
21.207254
 31
0.0
  0
LINE
  5
1af
100
AcDbEntity
  8
0
 62
7
100
AcDbLine
 10
16.442145
 20
21.207254
 30
0.0
 11
16.651111
 21
21.734657
 31
0.0
  0
LINE
  5
1b0
100
AcDbEntity
  8
0
 62
7
100
AcDbLine
 10
16.651111
 20
21.734657
 30
0.0
 11
16.651111
 21
21.745240
 31
0.0
  0
LINE
  5
1b1
100
AcDbEntity
  8
0
 62
7
100
AcDbLine
 10
16.651111
 20
21.745240
 30
0.0
 11
16.651111
 21
21.755823
 31
0.0
  0
LINE
  5
1b2
100
AcDbEntity
  8
0
 62
7
100
AcDbLine
 10
16.651111
 20
21.755823
 30
0.0
 11
16.651111
 21
21.766407
 31
0.0
  0
LINE
  5
1b3
100
AcDbEntity
  8
0
 62
7
100
AcDbLine
 10
16.651111
 20
21.766407
 30
0.0
 11
16.651111
 21
21.776990
 31
0.0
  0
LINE
  5
1b4
100
AcDbEntity
  8
0
 62
7
100
AcDbLine
 10
16.651111
 20
21.776990
 30
0.0
 11
16.651111
 21
21.787573
 31
0.0
  0
LINE
  5
1b5
100
AcDbEntity
  8
0
 62
7
100
AcDbLine
 10
16.651111
 20
21.787573
 30
0.0
 11
16.651111
 21
21.798157
 31
0.0
  0
LINE
  5
1b6
100
AcDbEntity
  8
0
 62
7
100
AcDbLine
 10
16.651111
 20
21.798157
 30
0.0
 11
16.651111
 21
21.808740
 31
0.0
  0
LINE
  5
1b7
100
AcDbEntity
  8
0
 62
7
100
AcDbLine
 10
16.651111
 20
21.808740
 30
0.0
 11
16.651111
 21
21.819323
 31
0.0
  0
LINE
  5
1b8
100
AcDbEntity
  8
0
 62
7
100
AcDbLine
 10
14.054667
 20
24.105323
 30
0.0
 11
14.081125
 21
24.159342
 31
0.0
  0
LINE
  5
1b9
100
AcDbEntity
  8
0
 62
7
100
AcDbLine
 10
14.081125
 20
24.159342
 30
0.0
 11
14.097000
 21
24.214684
 31
0.0
  0
LINE
  5
1ba
100
AcDbEntity
  8
0
 62
7
100
AcDbLine
 10
14.097000
 20
24.214684
 30
0.0
 11
14.102292
 21
24.270026
 31
0.0
  0
LINE
  5
1bb
100
AcDbEntity
  8
0
 62
7
100
AcDbLine
 10
14.102292
 20
24.270026
 30
0.0
 11
14.097000
 21
24.324045
 31
0.0
  0
LINE
  5
1bc
100
AcDbEntity
  8
0
 62
7
100
AcDbLine
 10
14.097000
 20
24.324045
 30
0.0
 11
14.081125
 21
24.375419
 31
0.0
  0
LINE
  5
1bd
100
AcDbEntity
  8
0
 62
7
100
AcDbLine
 10
14.081125
 20
24.375419
 30
0.0
 11
14.054667
 21
24.422823
 31
0.0
  0
LINE
  5
1be
100
AcDbEntity
  8
0
 62
7
100
AcDbLine
 10
14.054667
 20
24.422823
 30
0.0
 11
14.017625
 21
24.464936
 31
0.0
  0
LINE
  5
1bf
100
AcDbEntity
  8
0
 62
7
100
AcDbLine
 10
14.017625
 20
24.464936
 30
0.0
 11
13.970000
 21
24.500434
 31
0.0
  0
LINE
  5
1c0
100
AcDbEntity
  8
0
 62
7
100
AcDbLine
 10
13.970000
 20
24.500434
 30
0.0
 11
13.924084
 21
24.526946
 31
0.0
  0
LINE
  5
1c1
100
AcDbEntity
  8
0
 62
7
100
AcDbLine
 10
13.924084
 20
24.526946
 30
0.0
 11
13.872545
 21
24.543208
 31
0.0
  0
LINE
  5
1c2
100
AcDbEntity
  8
0
 62
7
100
AcDbLine
 10
13.872545
 20
24.543208
 30
0.0
 11
13.817699
 21
24.549547
 31
0.0
  0
LINE
  5
1c3
100
AcDbEntity
  8
0
 62
7
100
AcDbLine
 10
13.817699
 20
24.549547
 30
0.0
 11
13.761861
 21
24.546295
 31
0.0
  0
LINE
  5
1c4
100
AcDbEntity
  8
0
 62
7
100
AcDbLine
 10
13.761861
 20
24.546295
 30
0.0
 11
13.707346
 21
24.533782
 31
0.0
  0
LINE
  5
1c5
100
AcDbEntity
  8
0
 62
7
100
AcDbLine
 10
13.707346
 20
24.533782
 30
0.0
 11
13.656469
 21
24.512338
 31
0.0
  0
LINE
  5
1c6
100
AcDbEntity
  8
0
 62
7
100
AcDbLine
 10
13.656469
 20
24.512338
 30
0.0
 11
13.611545
 21
24.482297
 31
0.0
  0
LINE
  5
1c7
100
AcDbEntity
  8
0
 62
7
100
AcDbLine
 10
13.611545
 20
24.482297
 30
0.0
 11
13.574889
 21
24.443990
 31
0.0
  0
LINE
  5
1c8
100
AcDbEntity
  8
0
 62
7
100
AcDbLine
 10
13.574889
 20
24.443990
 30
0.0
 11
13.584095
 21
24.475740
 31
0.0
  0
LINE
  5
1c9
100
AcDbEntity
  8
0
 62
7
100
AcDbLine
 10
13.584095
 20
24.475740
 30
0.0
 11
13.590324
 21
24.507490
 31
0.0
  0
LINE
  5
1ca
100
AcDbEntity
  8
0
 62
7
100
AcDbLine
 10
13.590324
 20
24.507490
 30
0.0
 11
13.593245
 21
24.539240
 31
0.0
  0
LINE
  5
1cb
100
AcDbEntity
  8
0
 62
7
100
AcDbLine
 10
13.593245
 20
24.539240
 30
0.0
 11
13.592528
 21
24.570990
 31
0.0
  0
LINE
  5
1cc
100
AcDbEntity
  8
0
 62
7
100
AcDbLine
 10
13.592528
 20
24.570990
 30
0.0
 11
13.587842
 21
24.602740
 31
0.0
  0
LINE
  5
1cd
100
AcDbEntity
  8
0
 62
7
100
AcDbLine
 10
13.587842
 20
24.602740
 30
0.0
 11
13.578858
 21
24.634490
 31
0.0
  0
LINE
  5
1ce
100
AcDbEntity
  8
0
 62
7
100
AcDbLine
 10
13.578858
 20
24.634490
 30
0.0
 11
13.565243
 21
24.666240
 31
0.0
  0
LINE
  5
1cf
100
AcDbEntity
  8
0
 62
7
100
AcDbLine
 10
13.565243
 20
24.666240
 30
0.0
 11
13.546667
 21
24.697990
 31
0.0
  0
LINE
  5
1d0
100
AcDbEntity
  8
0
 62
7
100
AcDbLine
 10
13.546667
 20
24.697990
 30
0.0
 11
13.511168
 21
24.745615
 31
0.0
  0
LINE
  5
1d1
100
AcDbEntity
  8
0
 62
7
100
AcDbLine
 10
13.511168
 20
24.745615
 30
0.0
 11
13.469056
 21
24.782657
 31
0.0
  0
LINE
  5
1d2
100
AcDbEntity
  8
0
 62
7
100
AcDbLine
 10
13.469056
 20
24.782657
 30
0.0
 11
13.421651
 21
24.809115
 31
0.0
  0
LINE
  5
1d3
100
AcDbEntity
  8
0
 62
7
100
AcDbLine
 10
13.421651
 20
24.809115
 30
0.0
 11
13.370278
 21
24.824990
 31
0.0
  0
LINE
  5
1d4
100
AcDbEntity
  8
0
 62
7
100
AcDbLine
 10
13.370278
 20
24.824990
 30
0.0
 11
13.316259
 21
24.830282
 31
0.0
  0
LINE
  5
1d5
100
AcDbEntity
  8
0
 62
7
100
AcDbLine
 10
13.316259
 20
24.830282
 30
0.0
 11
13.260917
 21
24.824990
 31
0.0
  0
LINE
  5
1d6
100
AcDbEntity
  8
0
 62
7
100
AcDbLine
 10
13.260917
 20
24.824990
 30
0.0
 11
13.205575
 21
24.809115
 31
0.0
  0
LINE
  5
1d7
100
AcDbEntity
  8
0
 62
7
100
AcDbLine
 10
13.205575
 20
24.809115
 30
0.0
 11
13.151556
 21
24.782657
 31
0.0
  0
LINE
  5
1d8
100
AcDbEntity
  8
0
 62
7
100
AcDbLine
 10
13.151556
 20
24.782657
 30
0.0
 11
12.644878
 21
24.464440
 31
0.0
  0
LINE
  5
1d9
100
AcDbEntity
  8
0
 62
7
100
AcDbLine
 10
12.644878
 20
24.464440
 30
0.0
 11
12.087931
 21
24.173674
 31
0.0
  0
LINE
  5
1da
100
AcDbEntity
  8
0
 62
7
100
AcDbLine
 10
12.087931
 20
24.173674
 30
0.0
 11
11.496587
 21
23.921934
 31
0.0
  0
LINE
  5
1db
100
AcDbEntity
  8
0
 62
7
100
AcDbLine
 10
11.496587
 20
23.921934
 30
0.0
 11
10.886722
 21
23.720795
 31
0.0
  0
LINE
  5
1dc
100
AcDbEntity
  8
0
 62
7
100
AcDbLine
 10
10.886722
 20
23.720795
 30
0.0
 11
10.274212
 21
23.581834
 31
0.0
  0
LINE
  5
1dd
100
AcDbEntity
  8
0
 62
7
100
AcDbLine
 10
10.274212
 20
23.581834
 30
0.0
 11
9.674931
 21
23.516625
 31
0.0
  0
LINE
  5
1de
100
AcDbEntity
  8
0
 62
7
100
AcDbLine
 10
9.674931
 20
23.516625
 30
0.0
 11
9.104754
 21
23.536745
 31
0.0
  0
LINE
  5
1df
100
AcDbEntity
  8
0
 62
7
100
AcDbLine
 10
9.104754
 20
23.536745
 30
0.0
 11
8.579556
 21
23.653768
 31
0.0
  0
LINE
  5
1e0
100
AcDbEntity
  8
0
 62
7
100
AcDbLine
 10
8.579556
 20
23.653768
 30
0.0
 11
8.525592
 21
23.668486
 31
0.0
  0
LINE
  5
1e1
100
AcDbEntity
  8
0
 62
7
100
AcDbLine
 10
8.525592
 20
23.668486
 30
0.0
 11
8.470636
 21
23.670969
 31
0.0
  0
LINE
  5
1e2
100
AcDbEntity
  8
0
 62
7
100
AcDbLine
 10
8.470636
 20
23.670969
 30
0.0
 11
8.416341
 21
23.662206
 31
0.0
  0
LINE
  5
1e3
100
AcDbEntity
  8
0
 62
7
100
AcDbLine
 10
8.416341
 20
23.662206
 30
0.0
 11
8.364361
 21
23.643190
 31
0.0
  0
LINE
  5
1e4
100
AcDbEntity
  8
0
 62
7
100
AcDbLine
 10
8.364361
 20
23.643190
 30
0.0
 11
8.316350
 21
23.614913
 31
0.0
  0
LINE
  5
1e5
100
AcDbEntity
  8
0
 62
7
100
AcDbLine
 10
8.316350
 20
23.614913
 30
0.0
 11
8.273962
 21
23.578367
 31
0.0
  0
LINE
  5
1e6
100
AcDbEntity
  8
0
 62
7
100
AcDbLine
 10
8.273962
 20
23.578367
 30
0.0
 11
8.238849
 21
23.534545
 31
0.0
  0
LINE
  5
1e7
100
AcDbEntity
  8
0
 62
7
100
AcDbLine
 10
8.238849
 20
23.534545
 30
0.0
 11
8.212667
 21
23.484434
 31
0.0
  0
LINE
  5
1e8
100
AcDbEntity
  8
0
 62
7
100
AcDbLine
 10
8.212667
 20
23.484434
 30
0.0
 11
8.197949
 21
23.430470
 31
0.0
  0
LINE
  5
1e9
100
AcDbEntity
  8
0
 62
7
100
AcDbLine
 10
8.197949
 20
23.430470
 30
0.0
 11
8.195465
 21
23.375514
 31
0.0
  0
LINE
  5
1ea
100
AcDbEntity
  8
0
 62
7
100
AcDbLine
 10
8.195465
 20
23.375514
 30
0.0
 11
8.204228
 21
23.321220
 31
0.0
  0
LINE
  5
1eb
100
AcDbEntity
  8
0
 62
7
100
AcDbLine
 10
8.204228
 20
23.321220
 30
0.0
 11
8.223244
 21
23.269240
 31
0.0
  0
LINE
  5
1ec
100
AcDbEntity
  8
0
 62
7
100
AcDbLine
 10
8.223244
 20
23.269240
 30
0.0
 11
8.251522
 21
23.221229
 31
0.0
  0
LINE
  5
1ed
100
AcDbEntity
  8
0
 62
7
100
AcDbLine
 10
8.251522
 20
23.221229
 30
0.0
 11
8.288067
 21
23.178841
 31
0.0
  0
LINE
  5
1ee
100
AcDbEntity
  8
0
 62
7
100
AcDbLine
 10
8.288067
 20
23.178841
 30
0.0
 11
8.331889
 21
23.143728
 31
0.0
  0
LINE
  5
1ef
100
AcDbEntity
  8
0
 62
7
100
AcDbLine
 10
8.331889
 20
23.143728
 30
0.0
 11
8.382000
 21
23.117545
 31
0.0
  0
LINE
  5
1f0
100
AcDbEntity
  8
0
 62
7
100
AcDbLine
 10
8.382000
 20
23.117545
 30
0.0
 11
8.511535
 21
23.077858
 31
0.0
  0
LINE
  5
1f1
100
AcDbEntity
  8
0
 62
7
100
AcDbLine
 10
8.511535
 20
23.077858
 30
0.0
 11
8.645701
 21
23.043462
 31
0.0
  0
LINE
  5
1f2
100
AcDbEntity
  8
0
 62
7
100
AcDbLine
 10
8.645701
 20
23.043462
 30
0.0
 11
8.783836
 21
23.014358
 31
0.0
  0
LINE
  5
1f3
100
AcDbEntity
  8
0
 62
7
100
AcDbLine
 10
8.783836
 20
23.014358
 30
0.0
 11
8.925278
 21
22.990544
 31
0.0
  0
LINE
  5
1f4
100
AcDbEntity
  8
0
 62
7
100
AcDbLine
 10
8.925278
 20
22.990544
 30
0.0
 11
9.069365
 21
22.972022
 31
0.0
  0
LINE
  5
1f5
100
AcDbEntity
  8
0
 62
7
100
AcDbLine
 10
9.069365
 20
22.972022
 30
0.0
 11
9.215438
 21
22.958794
 31
0.0
  0
LINE
  5
1f6
100
AcDbEntity
  8
0
 62
7
100
AcDbLine
 10
9.215438
 20
22.958794
 30
0.0
 11
9.362833
 21
22.950858
 31
0.0
  0
LINE
  5
1f7
100
AcDbEntity
  8
0
 62
7
100
AcDbLine
 10
9.362833
 20
22.950858
 30
0.0
 11
9.510889
 21
22.948212
 31
0.0
  0
LINE
  5
1f8
100
AcDbEntity
  8
0
 62
7
100
AcDbLine
 10
9.510889
 20
22.948212
 30
0.0
 11
10.016353
 21
22.976324
 31
0.0
  0
LINE
  5
1f9
100
AcDbEntity
  8
0
 62
7
100
AcDbLine
 10
10.016353
 20
22.976324
 30
0.0
 11
10.533062
 21
23.056691
 31
0.0
  0
LINE
  5
1fa
100
AcDbEntity
  8
0
 62
7
100
AcDbLine
 10
10.533062
 20
23.056691
 30
0.0
 11
11.053740
 21
23.183361
 31
0.0
  0
LINE
  5
1fb
100
AcDbEntity
  8
0
 62
7
100
AcDbLine
 10
11.053740
 20
23.183361
 30
0.0
 11
11.571111
 21
23.350379
 31
0.0
  0
LINE
  5
1fc
100
AcDbEntity
  8
0
 62
7
100
AcDbLine
 10
11.571111
 20
23.350379
 30
0.0
 11
12.077898
 21
23.551793
 31
0.0
  0
LINE
  5
1fd
100
AcDbEntity
  8
0
 62
7
100
AcDbLine
 10
12.077898
 20
23.551793
 30
0.0
 11
12.566826
 21
23.781650
 31
0.0
  0
LINE
  5
1fe
100
AcDbEntity
  8
0
 62
7
100
AcDbLine
 10
12.566826
 20
23.781650
 30
0.0
 11
13.030619
 21
24.033996
 31
0.0
  0
LINE
  5
1ff
100
AcDbEntity
  8
0
 62
7
100
AcDbLine
 10
13.030619
 20
24.033996
 30
0.0
 11
13.462000
 21
24.302879
 31
0.0
  0
LINE
  5
200
100
AcDbEntity
  8
0
 62
7
100
AcDbLine
 10
13.462000
 20
24.302879
 30
0.0
 11
13.020035
 21
23.861355
 31
0.0
  0
LINE
  5
201
100
AcDbEntity
  8
0
 62
7
100
AcDbLine
 10
13.020035
 20
23.861355
 30
0.0
 11
12.471576
 21
23.506483
 31
0.0
  0
LINE
  5
202
100
AcDbEntity
  8
0
 62
7
100
AcDbLine
 10
12.471576
 20
23.506483
 30
0.0
 11
11.839773
 21
23.232309
 31
0.0
  0
LINE
  5
203
100
AcDbEntity
  8
0
 62
7
100
AcDbLine
 10
11.839773
 20
23.232309
 30
0.0
 11
11.147778
 21
23.032879
 31
0.0
  0
LINE
  5
204
100
AcDbEntity
  8
0
 62
7
100
AcDbLine
 10
11.147778
 20
23.032879
 30
0.0
 11
10.418740
 21
22.902241
 31
0.0
  0
LINE
  5
205
100
AcDbEntity
  8
0
 62
7
100
AcDbLine
 10
10.418740
 20
22.902241
 30
0.0
 11
9.675812
 21
22.834441
 31
0.0
  0
LINE
  5
206
100
AcDbEntity
  8
0
 62
7
100
AcDbLine
 10
9.675812
 20
22.834441
 30
0.0
 11
8.942145
 21
22.823527
 31
0.0
  0
LINE
  5
207
100
AcDbEntity
  8
0
 62
7
100
AcDbLine
 10
8.942145
 20
22.823527
 30
0.0
 11
8.240889
 21
22.863545
 31
0.0
  0
LINE
  5
208
100
AcDbEntity
  8
0
 62
7
100
AcDbLine
 10
8.240889
 20
22.863545
 30
0.0
 11
8.180090
 21
22.858420
 31
0.0
  0
LINE
  5
209
100
AcDbEntity
  8
0
 62
7
100
AcDbLine
 10
8.180090
 20
22.858420
 30
0.0
 11
8.124913
 21
22.843702
 31
0.0
  0
LINE
  5
20a
100
AcDbEntity
  8
0
 62
7
100
AcDbLine
 10
8.124913
 20
22.843702
 30
0.0
 11
8.075690
 21
22.820385
 31
0.0
  0
LINE
  5
20b
100
AcDbEntity
  8
0
 62
7
100
AcDbLine
 10
8.075690
 20
22.820385
 30
0.0
 11
8.032750
 21
22.789462
 31
0.0
  0
LINE
  5
20c
100
AcDbEntity
  8
0
 62
7
100
AcDbLine
 10
8.032750
 20
22.789462
 30
0.0
 11
7.996425
 21
22.751924
 31
0.0
  0
LINE
  5
20d
100
AcDbEntity
  8
0
 62
7
100
AcDbLine
 10
7.996425
 20
22.751924
 30
0.0
 11
7.967045
 21
22.708764
 31
0.0
  0
LINE
  5
20e
100
AcDbEntity
  8
0
 62
7
100
AcDbLine
 10
7.967045
 20
22.708764
 30
0.0
 11
7.944942
 21
22.660974
 31
0.0
  0
LINE
  5
20f
100
AcDbEntity
  8
0
 62
7
100
AcDbLine
 10
7.944942
 20
22.660974
 30
0.0
 11
7.930444
 21
22.609545
 31
0.0
  0
LINE
  5
210
100
AcDbEntity
  8
0
 62
7
100
AcDbLine
 10
7.930444
 20
22.609545
 30
0.0
 11
7.927467
 21
22.556849
 31
0.0
  0
LINE
  5
211
100
AcDbEntity
  8
0
 62
7
100
AcDbLine
 10
7.927467
 20
22.556849
 30
0.0
 11
7.938381
 21
22.505476
 31
0.0
  0
LINE
  5
212
100
AcDbEntity
  8
0
 62
7
100
AcDbLine
 10
7.938381
 20
22.505476
 30
0.0
 11
7.961201
 21
22.456749
 31
0.0
  0
LINE
  5
213
100
AcDbEntity
  8
0
 62
7
100
AcDbLine
 10
7.961201
 20
22.456749
 30
0.0
 11
7.993944
 21
22.411990
 31
0.0
  0
LINE
  5
214
100
AcDbEntity
  8
0
 62
7
100
AcDbLine
 10
7.993944
 20
22.411990
 30
0.0
 11
8.034624
 21
22.372523
 31
0.0
  0
LINE
  5
215
100
AcDbEntity
  8
0
 62
7
100
AcDbLine
 10
8.034624
 20
22.372523
 30
0.0
 11
8.081257
 21
22.339670
 31
0.0
  0
LINE
  5
216
100
AcDbEntity
  8
0
 62
7
100
AcDbLine
 10
8.081257
 20
22.339670
 30
0.0
 11
8.131859
 21
22.314756
 31
0.0
  0
LINE
  5
217
100
AcDbEntity
  8
0
 62
7
100
AcDbLine
 10
8.131859
 20
22.314756
 30
0.0
 11
8.184444
 21
22.299101
 31
0.0
  0
LINE
  5
218
100
AcDbEntity
  8
0
 62
7
100
AcDbLine
 10
8.184444
 20
22.299101
 30
0.0
 11
8.290278
 21
22.289785
 31
0.0
  0
LINE
  5
219
100
AcDbEntity
  8
0
 62
7
100
AcDbLine
 10
8.290278
 20
22.289785
 30
0.0
 11
8.396111
 21
22.282786
 31
0.0
  0
LINE
  5
21a
100
AcDbEntity
  8
0
 62
7
100
AcDbLine
 10
8.396111
 20
22.282786
 30
0.0
 11
8.501944
 21
22.277771
 31
0.0
  0
LINE
  5
21b
100
AcDbEntity
  8
0
 62
7
100
AcDbLine
 10
8.501944
 20
22.277771
 30
0.0
 11
8.607778
 21
22.274409
 31
0.0
  0
LINE
  5
21c
100
AcDbEntity
  8
0
 62
7
100
AcDbLine
 10
8.607778
 20
22.274409
 30
0.0
 11
8.713611
 21
22.272377
 31
0.0
  0
LINE
  5
21d
100
AcDbEntity
  8
0
 62
7
100
AcDbLine
 10
8.713611
 20
22.272377
 30
0.0
 11
8.819444
 21
22.271333
 31
0.0
  0
LINE
  5
21e
100
AcDbEntity
  8
0
 62
7
100
AcDbLine
 10
8.819444
 20
22.271333
 30
0.0
 11
8.925278
 21
22.270938
 31
0.0
  0
LINE
  5
21f
100
AcDbEntity
  8
0
 62
7
100
AcDbLine
 10
8.925278
 20
22.270938
 30
0.0
 11
9.031111
 21
22.270879
 31
0.0
  0
LINE
  5
220
100
AcDbEntity
  8
0
 62
7
100
AcDbLine
 10
9.031111
 20
22.270879
 30
0.0
 11
9.759763
 21
22.284880
 31
0.0
  0
LINE
  5
221
100
AcDbEntity
  8
0
 62
7
100
AcDbLine
 10
9.759763
 20
22.284880
 30
0.0
 11
10.494698
 21
22.351136
 31
0.0
  0
LINE
  5
222
100
AcDbEntity
  8
0
 62
7
100
AcDbLine
 10
10.494698
 20
22.351136
 30
0.0
 11
11.218388
 21
22.474277
 31
0.0
  0
LINE
  5
223
100
AcDbEntity
  8
0
 62
7
100
AcDbLine
 10
11.218388
 20
22.474277
 30
0.0
 11
11.913306
 21
22.658935
 31
0.0
  0
LINE
  5
224
100
AcDbEntity
  8
0
 62
7
100
AcDbLine
 10
11.913306
 20
22.658935
 30
0.0
 11
12.561921
 21
22.909738
 31
0.0
  0
LINE
  5
225
100
AcDbEntity
  8
0
 62
7
100
AcDbLine
 10
12.561921
 20
22.909738
 30
0.0
 11
13.146705
 21
23.231317
 31
0.0
  0
LINE
  5
226
100
AcDbEntity
  8
0
 62
7
100
AcDbLine
 10
13.146705
 20
23.231317
 30
0.0
 11
13.650130
 21
23.628302
 31
0.0
  0
LINE
  5
227
100
AcDbEntity
  8
0
 62
7
100
AcDbLine
 10
13.650130
 20
23.628302
 30
0.0
 11
14.054667
 21
24.105323
 31
0.0
  0
LINE
  5
228
100
AcDbEntity
  8
0
 62
7
100
AcDbLine
 10
8.438444
 20
24.472212
 30
0.0
 11
8.377645
 21
24.468244
 31
0.0
  0
LINE
  5
229
100
AcDbEntity
  8
0
 62
7
100
AcDbLine
 10
8.377645
 20
24.468244
 30
0.0
 11
8.322469
 21
24.456337
 31
0.0
  0
LINE
  5
22a
100
AcDbEntity
  8
0
 62
7
100
AcDbLine
 10
8.322469
 20
24.456337
 30
0.0
 11
8.273245
 21
24.436494
 31
0.0
  0
LINE
  5
22b
100
AcDbEntity
  8
0
 62
7
100
AcDbLine
 10
8.273245
 20
24.436494
 30
0.0
 11
8.230306
 21
24.408712
 31
0.0
  0
LINE
  5
22c
100
AcDbEntity
  8
0
 62
7
100
AcDbLine
 10
8.230306
 20
24.408712
 30
0.0
 11
8.193980
 21
24.372993
 31
0.0
  0
LINE
  5
22d
100
AcDbEntity
  8
0
 62
7
100
AcDbLine
 10
8.193980
 20
24.372993
 30
0.0
 11
8.164601
 21
24.329337
 31
0.0
  0
LINE
  5
22e
100
AcDbEntity
  8
0
 62
7
100
AcDbLine
 10
8.164601
 20
24.329337
 30
0.0
 11
8.142497
 21
24.277743
 31
0.0
  0
LINE
  5
22f
100
AcDbEntity
  8
0
 62
7
100
AcDbLine
 10
8.142497
 20
24.277743
 30
0.0
 11
8.128000
 21
24.218212
 31
0.0
  0
LINE
  5
230
100
AcDbEntity
  8
0
 62
7
100
AcDbLine
 10
8.128000
 20
24.218212
 30
0.0
 11
8.123865
 21
24.157413
 31
0.0
  0
LINE
  5
231
100
AcDbEntity
  8
0
 62
7
100
AcDbLine
 10
8.123865
 20
24.157413
 30
0.0
 11
8.131968
 21
24.102237
 31
0.0
  0
LINE
  5
232
100
AcDbEntity
  8
0
 62
7
100
AcDbLine
 10
8.131968
 20
24.102237
 30
0.0
 11
8.151314
 21
24.053013
 31
0.0
  0
LINE
  5
233
100
AcDbEntity
  8
0
 62
7
100
AcDbLine
 10
8.151314
 20
24.053013
 30
0.0
 11
8.180915
 21
24.010073
 31
0.0
  0
LINE
  5
234
100
AcDbEntity
  8
0
 62
7
100
AcDbLine
 10
8.180915
 20
24.010073
 30
0.0
 11
8.219775
 21
23.973748
 31
0.0
  0
LINE
  5
235
100
AcDbEntity
  8
0
 62
7
100
AcDbLine
 10
8.219775
 20
23.973748
 30
0.0
 11
8.266904
 21
23.944368
 31
0.0
  0
LINE
  5
236
100
AcDbEntity
  8
0
 62
7
100
AcDbLine
 10
8.266904
 20
23.944368
 30
0.0
 11
8.321309
 21
23.922265
 31
0.0
  0
LINE
  5
237
100
AcDbEntity
  8
0
 62
7
100
AcDbLine
 10
8.321309
 20
23.922265
 30
0.0
 11
8.382000
 21
23.907768
 31
0.0
  0
LINE
  5
238
100
AcDbEntity
  8
0
 62
7
100
AcDbLine
 10
8.382000
 20
23.907768
 30
0.0
 11
8.551388
 21
23.887925
 31
0.0
  0
LINE
  5
239
100
AcDbEntity
  8
0
 62
7
100
AcDbLine
 10
8.551388
 20
23.887925
 30
0.0
 11
8.721107
 21
23.870726
 31
0.0
  0
LINE
  5
23a
100
AcDbEntity
  8
0
 62
7
100
AcDbLine
 10
8.721107
 20
23.870726
 30
0.0
 11
8.891488
 21
23.856175
 31
0.0
  0
LINE
  5
23b
100
AcDbEntity
  8
0
 62
7
100
AcDbLine
 10
8.891488
 20
23.856175
 30
0.0
 11
9.062861
 21
23.844268
 31
0.0
  0
LINE
  5
23c
100
AcDbEntity
  8
0
 62
7
100
AcDbLine
 10
9.062861
 20
23.844268
 30
0.0
 11
9.235557
 21
23.835008
 31
0.0
  0
LINE
  5
23d
100
AcDbEntity
  8
0
 62
7
100
AcDbLine
 10
9.235557
 20
23.835008
 30
0.0
 11
9.409906
 21
23.828393
 31
0.0
  0
LINE
  5
23e
100
AcDbEntity
  8
0
 62
7
100
AcDbLine
 10
9.409906
 20
23.828393
 30
0.0
 11
9.586240
 21
23.824425
 31
0.0
  0
LINE
  5
23f
100
AcDbEntity
  8
0
 62
7
100
AcDbLine
 10
9.586240
 20
23.824425
 30
0.0
 11
9.764889
 21
23.823101
 31
0.0
  0
LINE
  5
240
100
AcDbEntity
  8
0
 62
7
100
AcDbLine
 10
9.764889
 20
23.823101
 30
0.0
 11
10.199302
 21
23.833078
 31
0.0
  0
LINE
  5
241
100
AcDbEntity
  8
0
 62
7
100
AcDbLine
 10
10.199302
 20
23.833078
 30
0.0
 11
10.631399
 21
23.865875
 31
0.0
  0
LINE
  5
242
100
AcDbEntity
  8
0
 62
7
100
AcDbLine
 10
10.631399
 20
23.865875
 30
0.0
 11
11.056221
 21
23.925792
 31
0.0
  0
LINE
  5
243
100
AcDbEntity
  8
0
 62
7
100
AcDbLine
 10
11.056221
 20
23.925792
 30
0.0
 11
11.468806
 21
24.017128
 31
0.0
  0
LINE
  5
244
100
AcDbEntity
  8
0
 62
7
100
AcDbLine
 10
11.468806
 20
24.017128
 30
0.0
 11
11.864192
 21
24.144183
 31
0.0
  0
LINE
  5
245
100
AcDbEntity
  8
0
 62
7
100
AcDbLine
 10
11.864192
 20
24.144183
 30
0.0
 11
12.237420
 21
24.311257
 31
0.0
  0
LINE
  5
246
100
AcDbEntity
  8
0
 62
7
100
AcDbLine
 10
12.237420
 20
24.311257
 30
0.0
 11
12.583528
 21
24.522648
 31
0.0
  0
LINE
  5
247
100
AcDbEntity
  8
0
 62
7
100
AcDbLine
 10
12.583528
 20
24.522648
 30
0.0
 11
12.897556
 21
24.782657
 31
0.0
  0
LINE
  5
248
100
AcDbEntity
  8
0
 62
7
100
AcDbLine
 10
12.897556
 20
24.782657
 30
0.0
 11
12.934597
 21
24.827415
 31
0.0
  0
LINE
  5
249
100
AcDbEntity
  8
0
 62
7
100
AcDbLine
 10
12.934597
 20
24.827415
 30
0.0
 11
12.961056
 21
24.876143
 31
0.0
  0
LINE
  5
24a
100
AcDbEntity
  8
0
 62
7
100
AcDbLine
 10
12.961056
 20
24.876143
 30
0.0
 11
12.976931
 21
24.927516
 31
0.0
  0
LINE
  5
24b
100
AcDbEntity
  8
0
 62
7
100
AcDbLine
 10
12.976931
 20
24.927516
 30
0.0
 11
12.982222
 21
24.980212
 31
0.0
  0
LINE
  5
24c
100
AcDbEntity
  8
0
 62
7
100
AcDbLine
 10
12.982222
 20
24.980212
 30
0.0
 11
12.976931
 21
25.032908
 31
0.0
  0
LINE
  5
24d
100
AcDbEntity
  8
0
 62
7
100
AcDbLine
 10
12.976931
 20
25.032908
 30
0.0
 11
12.961056
 21
25.084282
 31
0.0
  0
LINE
  5
24e
100
AcDbEntity
  8
0
 62
7
100
AcDbLine
 10
12.961056
 20
25.084282
 30
0.0
 11
12.934597
 21
25.133009
 31
0.0
  0
LINE
  5
24f
100
AcDbEntity
  8
0
 62
7
100
AcDbLine
 10
12.934597
 20
25.133009
 30
0.0
 11
12.897556
 21
25.177768
 31
0.0
  0
LINE
  5
250
100
AcDbEntity
  8
0
 62
7
100
AcDbLine
 10
12.897556
 20
25.177768
 30
0.0
 11
12.852797
 21
25.214809
 31
0.0
  0
LINE
  5
251
100
AcDbEntity
  8
0
 62
7
100
AcDbLine
 10
12.852797
 20
25.214809
 30
0.0
 11
12.804069
 21
25.241268
 31
0.0
  0
LINE
  5
252
100
AcDbEntity
  8
0
 62
7
100
AcDbLine
 10
12.804069
 20
25.241268
 30
0.0
 11
12.752696
 21
25.257143
 31
0.0
  0
LINE
  5
253
100
AcDbEntity
  8
0
 62
7
100
AcDbLine
 10
12.752696
 20
25.257143
 30
0.0
 11
12.700000
 21
25.262434
 31
0.0
  0
LINE
  5
254
100
AcDbEntity
  8
0
 62
7
100
AcDbLine
 10
12.700000
 20
25.262434
 30
0.0
 11
12.647304
 21
25.257143
 31
0.0
  0
LINE
  5
255
100
AcDbEntity
  8
0
 62
7
100
AcDbLine
 10
12.647304
 20
25.257143
 30
0.0
 11
12.595931
 21
25.241268
 31
0.0
  0
LINE
  5
256
100
AcDbEntity
  8
0
 62
7
100
AcDbLine
 10
12.595931
 20
25.241268
 30
0.0
 11
12.547203
 21
25.214809
 31
0.0
  0
LINE
  5
257
100
AcDbEntity
  8
0
 62
7
100
AcDbLine
 10
12.547203
 20
25.214809
 30
0.0
 11
12.502444
 21
25.177768
 31
0.0
  0
LINE
  5
258
100
AcDbEntity
  8
0
 62
7
100
AcDbLine
 10
12.502444
 20
25.177768
 30
0.0
 11
12.117145
 21
24.882371
 31
0.0
  0
LINE
  5
259
100
AcDbEntity
  8
0
 62
7
100
AcDbLine
 10
12.117145
 20
24.882371
 30
0.0
 11
11.669007
 21
24.666681
 31
0.0
  0
LINE
  5
25a
100
AcDbEntity
  8
0
 62
7
100
AcDbLine
 10
11.669007
 20
24.666681
 30
0.0
 11
11.171921
 21
24.520443
 31
0.0
  0
LINE
  5
25b
100
AcDbEntity
  8
0
 62
7
100
AcDbLine
 10
11.171921
 20
24.520443
 30
0.0
 11
10.639778
 21
24.433407
 31
0.0
  0
LINE
  5
25c
100
AcDbEntity
  8
0
 62
7
100
AcDbLine
 10
10.639778
 20
24.433407
 30
0.0
 11
10.086468
 21
24.395318
 31
0.0
  0
LINE
  5
25d
100
AcDbEntity
  8
0
 62
7
100
AcDbLine
 10
10.086468
 20
24.395318
 30
0.0
 11
9.525882
 21
24.395910
 31
0.0
  0
LINE
  5
25e
100
AcDbEntity
  8
0
 62
7
100
AcDbLine
 10
9.525882
 20
24.395910
 30
0.0
 11
8.971910
 21
24.424959
 31
0.0
  0
LINE
  5
25f
100
AcDbEntity
  8
0
 62
7
100
AcDbLine
 10
8.971910
 20
24.424959
 30
0.0
 11
8.438444
 21
24.472212
 31
0.0
  0
LINE
  5
260
100
AcDbEntity
  8
0
 62
7
100
AcDbLine
 10
8.664222
 20
25.234212
 30
0.0
 11
8.610313
 21
25.239560
 31
0.0
  0
LINE
  5
261
100
AcDbEntity
  8
0
 62
7
100
AcDbLine
 10
8.610313
 20
25.239560
 30
0.0
 11
8.555743
 21
25.234655
 31
0.0
  0
LINE
  5
262
100
AcDbEntity
  8
0
 62
7
100
AcDbLine
 10
8.555743
 20
25.234655
 30
0.0
 11
8.502496
 21
25.219827
 31
0.0
  0
LINE
  5
263
100
AcDbEntity
  8
0
 62
7
100
AcDbLine
 10
8.502496
 20
25.219827
 30
0.0
 11
8.452556
 21
25.195407
 31
0.0
  0
LINE
  5
264
100
AcDbEntity
  8
0
 62
7
100
AcDbLine
 10
8.452556
 20
25.195407
 30
0.0
 11
8.407907
 21
25.161727
 31
0.0
  0
LINE
  5
265
100
AcDbEntity
  8
0
 62
7
100
AcDbLine
 10
8.407907
 20
25.161727
 30
0.0
 11
8.370535
 21
25.119118
 31
0.0
  0
LINE
  5
266
100
AcDbEntity
  8
0
 62
7
100
AcDbLine
 10
8.370535
 20
25.119118
 30
0.0
 11
8.342423
 21
25.067910
 31
0.0
  0
LINE
  5
267
100
AcDbEntity
  8
0
 62
7
100
AcDbLine
 10
8.342423
 20
25.067910
 30
0.0
 11
8.325556
 21
25.008434
 31
0.0
  0
LINE
  5
268
100
AcDbEntity
  8
0
 62
7
100
AcDbLine
 10
8.325556
 20
25.008434
 30
0.0
 11
8.320210
 21
24.954525
 31
0.0
  0
LINE
  5
269
100
AcDbEntity
  8
0
 62
7
100
AcDbLine
 10
8.320210
 20
24.954525
 30
0.0
 11
8.325115
 21
24.899955
 31
0.0
  0
LINE
  5
26a
100
AcDbEntity
  8
0
 62
7
100
AcDbLine
 10
8.325115
 20
24.899955
 30
0.0
 11
8.339943
 21
24.846708
 31
0.0
  0
LINE
  5
26b
100
AcDbEntity
  8
0
 62
7
100
AcDbLine
 10
8.339943
 20
24.846708
 30
0.0
 11
8.364361
 21
24.796768
 31
0.0
  0
LINE
  5
26c
100
AcDbEntity
  8
0
 62
7
100
AcDbLine
 10
8.364361
 20
24.796768
 30
0.0
 11
8.398040
 21
24.752119
 31
0.0
  0
LINE
  5
26d
100
AcDbEntity
  8
0
 62
7
100
AcDbLine
 10
8.398040
 20
24.752119
 30
0.0
 11
8.440649
 21
24.714747
 31
0.0
  0
LINE
  5
26e
100
AcDbEntity
  8
0
 62
7
100
AcDbLine
 10
8.440649
 20
24.714747
 30
0.0
 11
8.491857
 21
24.686635
 31
0.0
  0
LINE
  5
26f
100
AcDbEntity
  8
0
 62
7
100
AcDbLine
 10
8.491857
 20
24.686635
 30
0.0
 11
8.551333
 21
24.669768
 31
0.0
  0
LINE
  5
270
100
AcDbEntity
  8
0
 62
7
100
AcDbLine
 10
8.551333
 20
24.669768
 30
0.0
 11
8.679711
 21
24.640608
 31
0.0
  0
LINE
  5
271
100
AcDbEntity
  8
0
 62
7
100
AcDbLine
 10
8.679711
 20
24.640608
 30
0.0
 11
8.811066
 21
24.616411
 31
0.0
  0
LINE
  5
272
100
AcDbEntity
  8
0
 62
7
100
AcDbLine
 10
8.811066
 20
24.616411
 30
0.0
 11
8.945728
 21
24.596844
 31
0.0
  0
LINE
  5
273
100
AcDbEntity
  8
0
 62
7
100
AcDbLine
 10
8.945728
 20
24.596844
 30
0.0
 11
9.084028
 21
24.581576
 31
0.0
  0
LINE
  5
274
100
AcDbEntity
  8
0
 62
7
100
AcDbLine
 10
9.084028
 20
24.581576
 30
0.0
 11
9.226297
 21
24.570276
 31
0.0
  0
LINE
  5
275
100
AcDbEntity
  8
0
 62
7
100
AcDbLine
 10
9.226297
 20
24.570276
 30
0.0
 11
9.372864
 21
24.562614
 31
0.0
  0
LINE
  5
276
100
AcDbEntity
  8
0
 62
7
100
AcDbLine
 10
9.372864
 20
24.562614
 30
0.0
 11
9.524063
 21
24.558259
 31
0.0
  0
LINE
  5
277
100
AcDbEntity
  8
0
 62
7
100
AcDbLine
 10
9.524063
 20
24.558259
 30
0.0
 11
9.680222
 21
24.556879
 31
0.0
  0
LINE
  5
278
100
AcDbEntity
  8
0
 62
7
100
AcDbLine
 10
9.680222
 20
24.556879
 30
0.0
 11
10.002297
 21
24.566470
 31
0.0
  0
LINE
  5
279
100
AcDbEntity
  8
0
 62
7
100
AcDbLine
 10
10.002297
 20
24.566470
 30
0.0
 11
10.330656
 21
24.596566
 31
0.0
  0
LINE
  5
27a
100
AcDbEntity
  8
0
 62
7
100
AcDbLine
 10
10.330656
 20
24.596566
 30
0.0
 11
10.660999
 21
24.649152
 31
0.0
  0
LINE
  5
27b
100
AcDbEntity
  8
0
 62
7
100
AcDbLine
 10
10.660999
 20
24.649152
 30
0.0
 11
10.989028
 21
24.726212
 31
0.0
  0
LINE
  5
27c
100
AcDbEntity
  8
0
 62
7
100
AcDbLine
 10
10.989028
 20
24.726212
 30
0.0
 11
11.310441
 21
24.829730
 31
0.0
  0
LINE
  5
27d
100
AcDbEntity
  8
0
 62
7
100
AcDbLine
 10
11.310441
 20
24.829730
 30
0.0
 11
11.620941
 21
24.961691
 31
0.0
  0
LINE
  5
27e
100
AcDbEntity
  8
0
 62
7
100
AcDbLine
 10
11.620941
 20
24.961691
 30
0.0
 11
11.916227
 21
25.124079
 31
0.0
  0
LINE
  5
27f
100
AcDbEntity
  8
0
 62
7
100
AcDbLine
 10
11.916227
 20
25.124079
 30
0.0
 11
12.192000
 21
25.318879
 31
0.0
  0
LINE
  5
280
100
AcDbEntity
  8
0
 62
7
100
AcDbLine
 10
12.192000
 20
25.318879
 30
0.0
 11
12.230309
 21
25.355535
 31
0.0
  0
LINE
  5
281
100
AcDbEntity
  8
0
 62
7
100
AcDbLine
 10
12.230309
 20
25.355535
 30
0.0
 11
12.260351
 21
25.400459
 31
0.0
  0
LINE
  5
282
100
AcDbEntity
  8
0
 62
7
100
AcDbLine
 10
12.260351
 20
25.400459
 30
0.0
 11
12.281793
 21
25.451336
 31
0.0
  0
LINE
  5
283
100
AcDbEntity
  8
0
 62
7
100
AcDbLine
 10
12.281793
 20
25.451336
 30
0.0
 11
12.294306
 21
25.505851
 31
0.0
  0
LINE
  5
284
100
AcDbEntity
  8
0
 62
7
100
AcDbLine
 10
12.294306
 20
25.505851
 30
0.0
 11
12.297558
 21
25.561689
 31
0.0
  0
LINE
  5
285
100
AcDbEntity
  8
0
 62
7
100
AcDbLine
 10
12.297558
 20
25.561689
 30
0.0
 11
12.291219
 21
25.616535
 31
0.0
  0
LINE
  5
286
100
AcDbEntity
  8
0
 62
7
100
AcDbLine
 10
12.291219
 20
25.616535
 30
0.0
 11
12.274958
 21
25.668074
 31
0.0
  0
LINE
  5
287
100
AcDbEntity
  8
0
 62
7
100
AcDbLine
 10
12.274958
 20
25.668074
 30
0.0
 11
12.248444
 21
25.713990
 31
0.0
  0
LINE
  5
288
100
AcDbEntity
  8
0
 62
7
100
AcDbLine
 10
12.248444
 20
25.713990
 30
0.0
 11
12.211789
 21
25.752299
 31
0.0
  0
LINE
  5
289
100
AcDbEntity
  8
0
 62
7
100
AcDbLine
 10
12.211789
 20
25.752299
 30
0.0
 11
12.166865
 21
25.782341
 31
0.0
  0
LINE
  5
28a
100
AcDbEntity
  8
0
 62
7
100
AcDbLine
 10
12.166865
 20
25.782341
 30
0.0
 11
12.115987
 21
25.803783
 31
0.0
  0
LINE
  5
28b
100
AcDbEntity
  8
0
 62
7
100
AcDbLine
 10
12.115987
 20
25.803783
 30
0.0
 11
12.061472
 21
25.816295
 31
0.0
  0
LINE
  5
28c
100
AcDbEntity
  8
0
 62
7
100
AcDbLine
 10
12.061472
 20
25.816295
 30
0.0
 11
12.005634
 21
25.819548
 31
0.0
  0
LINE
  5
28d
100
AcDbEntity
  8
0
 62
7
100
AcDbLine
 10
12.005634
 20
25.819548
 30
0.0
 11
11.950788
 21
25.813209
 31
0.0
  0
LINE
  5
28e
100
AcDbEntity
  8
0
 62
7
100
AcDbLine
 10
11.950788
 20
25.813209
 30
0.0
 11
11.899249
 21
25.796948
 31
0.0
  0
LINE
  5
28f
100
AcDbEntity
  8
0
 62
7
100
AcDbLine
 10
11.899249
 20
25.796948
 30
0.0
 11
11.853333
 21
25.770434
 31
0.0
  0
LINE
  5
290
100
AcDbEntity
  8
0
 62
7
100
AcDbLine
 10
11.853333
 20
25.770434
 30
0.0
 11
11.504469
 21
25.543664
 31
0.0
  0
LINE
  5
291
100
AcDbEntity
  8
0
 62
7
100
AcDbLine
 10
11.504469
 20
25.543664
 30
0.0
 11
11.120879
 21
25.369150
 31
0.0
  0
LINE
  5
292
100
AcDbEntity
  8
0
 62
7
100
AcDbLine
 10
11.120879
 20
25.369150
 30
0.0
 11
10.712814
 21
25.243583
 31
0.0
  0
LINE
  5
293
100
AcDbEntity
  8
0
 62
7
100
AcDbLine
 10
10.712814
 20
25.243583
 30
0.0
 11
10.290528
 21
25.163657
 31
0.0
  0
LINE
  5
294
100
AcDbEntity
  8
0
 62
7
100
AcDbLine
 10
10.290528
 20
25.163657
 30
0.0
 11
9.864273
 21
25.126064
 31
0.0
  0
LINE
  5
295
100
AcDbEntity
  8
0
 62
7
100
AcDbLine
 10
9.864273
 20
25.126064
 30
0.0
 11
9.444302
 21
25.127497
 31
0.0
  0
LINE
  5
296
100
AcDbEntity
  8
0
 62
7
100
AcDbLine
 10
9.444302
 20
25.127497
 30
0.0
 11
9.040868
 21
25.164649
 31
0.0
  0
LINE
  5
297
100
AcDbEntity
  8
0
 62
7
100
AcDbLine
 10
9.040868
 20
25.164649
 30
0.0
 11
8.664222
 21
25.234212
 31
0.0
  0
LINE
  5
298
100
AcDbEntity
  8
0
 62
7
100
AcDbLine
 10
8.071556
 20
26.334879
 30
0.0
 11
8.296562
 21
26.340281
 31
0.0
  0
LINE
  5
299
100
AcDbEntity
  8
0
 62
7
100
AcDbLine
 10
8.296562
 20
26.340281
 30
0.0
 11
8.522229
 21
26.314594
 31
0.0
  0
LINE
  5
29a
100
AcDbEntity
  8
0
 62
7
100
AcDbLine
 10
8.522229
 20
26.314594
 30
0.0
 11
8.741282
 21
26.258480
 31
0.0
  0
LINE
  5
29b
100
AcDbEntity
  8
0
 62
7
100
AcDbLine
 10
8.741282
 20
26.258480
 30
0.0
 11
8.946444
 21
26.172601
 31
0.0
  0
LINE
  5
29c
100
AcDbEntity
  8
0
 62
7
100
AcDbLine
 10
8.946444
 20
26.172601
 30
0.0
 11
9.130440
 21
26.057617
 31
0.0
  0
LINE
  5
29d
100
AcDbEntity
  8
0
 62
7
100
AcDbLine
 10
9.130440
 20
26.057617
 30
0.0
 11
9.285993
 21
25.914191
 31
0.0
  0
LINE
  5
29e
100
AcDbEntity
  8
0
 62
7
100
AcDbLine
 10
9.285993
 20
25.914191
 30
0.0
 11
9.405827
 21
25.742984
 31
0.0
  0
LINE
  5
29f
100
AcDbEntity
  8
0
 62
7
100
AcDbLine
 10
9.405827
 20
25.742984
 30
0.0
 11
9.482667
 21
25.544657
 31
0.0
  0
LINE
  5
2a0
100
AcDbEntity
  8
0
 62
7
100
AcDbLine
 10
9.482667
 20
25.544657
 30
0.0
 11
9.497108
 21
25.494441
 31
0.0
  0
LINE
  5
2a1
100
AcDbEntity
  8
0
 62
7
100
AcDbLine
 10
9.497108
 20
25.494441
 30
0.0
 11
9.518825
 21
25.449848
 31
0.0
  0
LINE
  5
2a2
100
AcDbEntity
  8
0
 62
7
100
AcDbLine
 10
9.518825
 20
25.449848
 30
0.0
 11
9.547158
 21
25.411207
 31
0.0
  0
LINE
  5
2a3
100
AcDbEntity
  8
0
 62
7
100
AcDbLine
 10
9.547158
 20
25.411207
 30
0.0
 11
9.581444
 21
25.378851
 31
0.0
  0
LINE
  5
2a4
100
AcDbEntity
  8
0
 62
7
100
AcDbLine
 10
9.581444
 20
25.378851
 30
0.0
 11
9.621022
 21
25.353110
 31
0.0
  0
LINE
  5
2a5
100
AcDbEntity
  8
0
 62
7
100
AcDbLine
 10
9.621022
 20
25.353110
 30
0.0
 11
9.665229
 21
25.334314
 31
0.0
  0
LINE
  5
2a6
100
AcDbEntity
  8
0
 62
7
100
AcDbLine
 10
9.665229
 20
25.334314
 30
0.0
 11
9.713405
 21
25.322793
 31
0.0
  0
LINE
  5
2a7
100
AcDbEntity
  8
0
 62
7
100
AcDbLine
 10
9.713405
 20
25.322793
 30
0.0
 11
9.764889
 21
25.318879
 31
0.0
  0
LINE
  5
2a8
100
AcDbEntity
  8
0
 62
7
100
AcDbLine
 10
9.764889
 20
25.318879
 30
0.0
 11
9.775472
 21
25.318879
 31
0.0
  0
LINE
  5
2a9
100
AcDbEntity
  8
0
 62
7
100
AcDbLine
 10
9.775472
 20
25.318879
 30
0.0
 11
9.786056
 21
25.318879
 31
0.0
  0
LINE
  5
2aa
100
AcDbEntity
  8
0
 62
7
100
AcDbLine
 10
9.786056
 20
25.318879
 30
0.0
 11
9.796639
 21
25.318879
 31
0.0
  0
LINE
  5
2ab
100
AcDbEntity
  8
0
 62
7
100
AcDbLine
 10
9.796639
 20
25.318879
 30
0.0
 11
9.807222
 21
25.318879
 31
0.0
  0
LINE
  5
2ac
100
AcDbEntity
  8
0
 62
7
100
AcDbLine
 10
9.807222
 20
25.318879
 30
0.0
 11
9.817806
 21
25.318879
 31
0.0
  0
LINE
  5
2ad
100
AcDbEntity
  8
0
 62
7
100
AcDbLine
 10
9.817806
 20
25.318879
 30
0.0
 11
9.828389
 21
25.318879
 31
0.0
  0
LINE
  5
2ae
100
AcDbEntity
  8
0
 62
7
100
AcDbLine
 10
9.828389
 20
25.318879
 30
0.0
 11
9.838972
 21
25.318879
 31
0.0
  0
LINE
  5
2af
100
AcDbEntity
  8
0
 62
7
100
AcDbLine
 10
9.838972
 20
25.318879
 30
0.0
 11
9.849556
 21
25.318879
 31
0.0
  0
LINE
  5
2b0
100
AcDbEntity
  8
0
 62
7
100
AcDbLine
 10
9.849556
 20
25.318879
 30
0.0
 11
9.900874
 21
25.335747
 31
0.0
  0
LINE
  5
2b1
100
AcDbEntity
  8
0
 62
7
100
AcDbLine
 10
9.900874
 20
25.335747
 30
0.0
 11
9.947893
 21
25.363859
 31
0.0
  0
LINE
  5
2b2
100
AcDbEntity
  8
0
 62
7
100
AcDbLine
 10
9.947893
 20
25.363859
 30
0.0
 11
9.988958
 21
25.401232
 31
0.0
  0
LINE
  5
2b3
100
AcDbEntity
  8
0
 62
7
100
AcDbLine
 10
9.988958
 20
25.401232
 30
0.0
 11
10.022417
 21
25.445879
 31
0.0
  0
LINE
  5
2b4
100
AcDbEntity
  8
0
 62
7
100
AcDbLine
 10
10.022417
 20
25.445879
 30
0.0
 11
10.046615
 21
25.495819
 31
0.0
  0
LINE
  5
2b5
100
AcDbEntity
  8
0
 62
7
100
AcDbLine
 10
10.046615
 20
25.495819
 30
0.0
 11
10.059899
 21
25.549066
 31
0.0
  0
LINE
  5
2b6
100
AcDbEntity
  8
0
 62
7
100
AcDbLine
 10
10.059899
 20
25.549066
 30
0.0
 11
10.060616
 21
25.603637
 31
0.0
  0
LINE
  5
2b7
100
AcDbEntity
  8
0
 62
7
100
AcDbLine
 10
10.060616
 20
25.603637
 30
0.0
 11
10.047111
 21
25.657545
 31
0.0
  0
LINE
  5
2b8
100
AcDbEntity
  8
0
 62
7
100
AcDbLine
 10
10.047111
 20
25.657545
 30
0.0
 11
9.928600
 21
25.955091
 31
0.0
  0
LINE
  5
2b9
100
AcDbEntity
  8
0
 62
7
100
AcDbLine
 10
9.928600
 20
25.955091
 30
0.0
 11
9.749896
 21
26.212288
 31
0.0
  0
LINE
  5
2ba
100
AcDbEntity
  8
0
 62
7
100
AcDbLine
 10
9.749896
 20
26.212288
 30
0.0
 11
9.522244
 21
26.428475
 31
0.0
  0
LINE
  5
2bb
100
AcDbEntity
  8
0
 62
7
100
AcDbLine
 10
9.522244
 20
26.428475
 30
0.0
 11
9.256889
 21
26.602990
 31
0.0
  0
LINE
  5
2bc
100
AcDbEntity
  8
0
 62
7
100
AcDbLine
 10
9.256889
 20
26.602990
 30
0.0
 11
8.965076
 21
26.735171
 31
0.0
  0
LINE
  5
2bd
100
AcDbEntity
  8
0
 62
7
100
AcDbLine
 10
8.965076
 20
26.735171
 30
0.0
 11
8.658049
 21
26.824358
 31
0.0
  0
LINE
  5
2be
100
AcDbEntity
  8
0
 62
7
100
AcDbLine
 10
8.658049
 20
26.824358
 30
0.0
 11
8.347053
 21
26.869888
 31
0.0
  0
LINE
  5
2bf
100
AcDbEntity
  8
0
 62
7
100
AcDbLine
 10
8.347053
 20
26.869888
 30
0.0
 11
8.043333
 21
26.871101
 31
0.0
  0
LINE
  5
2c0
100
AcDbEntity
  8
0
 62
7
100
AcDbLine
 10
8.043333
 20
26.871101
 30
0.0
 11
7.748764
 21
26.830476
 31
0.0
  0
LINE
  5
2c1
100
AcDbEntity
  8
0
 62
7
100
AcDbLine
 10
7.748764
 20
26.830476
 30
0.0
 11
7.480653
 21
26.752479
 31
0.0
  0
LINE
  5
2c2
100
AcDbEntity
  8
0
 62
7
100
AcDbLine
 10
7.480653
 20
26.752479
 30
0.0
 11
7.241646
 21
26.639425
 31
0.0
  0
LINE
  5
2c3
100
AcDbEntity
  8
0
 62
7
100
AcDbLine
 10
7.241646
 20
26.639425
 30
0.0
 11
7.034389
 21
26.493629
 31
0.0
  0
LINE
  5
2c4
100
AcDbEntity
  8
0
 62
7
100
AcDbLine
 10
7.034389
 20
26.493629
 30
0.0
 11
6.861528
 21
26.317405
 31
0.0
  0
LINE
  5
2c5
100
AcDbEntity
  8
0
 62
7
100
AcDbLine
 10
6.861528
 20
26.317405
 30
0.0
 11
6.725708
 21
26.113070
 31
0.0
  0
LINE
  5
2c6
100
AcDbEntity
  8
0
 62
7
100
AcDbLine
 10
6.725708
 20
26.113070
 30
0.0
 11
6.629576
 21
25.882937
 31
0.0
  0
LINE
  5
2c7
100
AcDbEntity
  8
0
 62
7
100
AcDbLine
 10
6.629576
 20
25.882937
 30
0.0
 11
6.575778
 21
25.629323
 31
0.0
  0
LINE
  5
2c8
100
AcDbEntity
  8
0
 62
7
100
AcDbLine
 10
6.575778
 20
25.629323
 30
0.0
 11
6.575833
 21
25.609369
 31
0.0
  0
LINE
  5
2c9
100
AcDbEntity
  8
0
 62
7
100
AcDbLine
 10
6.575833
 20
25.609369
 30
0.0
 11
6.576228
 21
25.591400
 31
0.0
  0
LINE
  5
2ca
100
AcDbEntity
  8
0
 62
7
100
AcDbLine
 10
6.576228
 20
25.591400
 30
0.0
 11
6.577272
 21
25.574753
 31
0.0
  0
LINE
  5
2cb
100
AcDbEntity
  8
0
 62
7
100
AcDbLine
 10
6.577272
 20
25.574753
 30
0.0
 11
6.579304
 21
25.558768
 31
0.0
  0
LINE
  5
2cc
100
AcDbEntity
  8
0
 62
7
100
AcDbLine
 10
6.579304
 20
25.558768
 30
0.0
 11
6.582665
 21
25.542782
 31
0.0
  0
LINE
  5
2cd
100
AcDbEntity
  8
0
 62
7
100
AcDbLine
 10
6.582665
 20
25.542782
 30
0.0
 11
6.587681
 21
25.526136
 31
0.0
  0
LINE
  5
2ce
100
AcDbEntity
  8
0
 62
7
100
AcDbLine
 10
6.587681
 20
25.526136
 30
0.0
 11
6.594680
 21
25.508166
 31
0.0
  0
LINE
  5
2cf
100
AcDbEntity
  8
0
 62
7
100
AcDbLine
 10
6.594680
 20
25.508166
 30
0.0
 11
6.604000
 21
25.488212
 31
0.0
  0
LINE
  5
2d0
100
AcDbEntity
  8
0
 62
7
100
AcDbLine
 10
6.604000
 20
25.488212
 30
0.0
 11
6.286776
 21
25.380009
 31
0.0
  0
LINE
  5
2d1
100
AcDbEntity
  8
0
 62
7
100
AcDbLine
 10
6.286776
 20
25.380009
 30
0.0
 11
5.992372
 21
25.247000
 31
0.0
  0
LINE
  5
2d2
100
AcDbEntity
  8
0
 62
7
100
AcDbLine
 10
5.992372
 20
25.247000
 30
0.0
 11
5.722441
 21
25.090841
 31
0.0
  0
LINE
  5
2d3
100
AcDbEntity
  8
0
 62
7
100
AcDbLine
 10
5.722441
 20
25.090841
 30
0.0
 11
5.478639
 21
24.913184
 31
0.0
  0
LINE
  5
2d4
100
AcDbEntity
  8
0
 62
7
100
AcDbLine
 10
5.478639
 20
24.913184
 30
0.0
 11
5.262618
 21
24.715684
 31
0.0
  0
LINE
  5
2d5
100
AcDbEntity
  8
0
 62
7
100
AcDbLine
 10
5.262618
 20
24.715684
 30
0.0
 11
5.076031
 21
24.499993
 31
0.0
  0
LINE
  5
2d6
100
AcDbEntity
  8
0
 62
7
100
AcDbLine
 10
5.076031
 20
24.499993
 30
0.0
 11
4.920533
 21
24.267766
 31
0.0
  0
LINE
  5
2d7
100
AcDbEntity
  8
0
 62
7
100
AcDbLine
 10
4.920533
 20
24.267766
 30
0.0
 11
4.797778
 21
24.020657
 31
0.0
  0
LINE
  5
2d8
100
AcDbEntity
  8
0
 62
7
100
AcDbLine
 10
4.797778
 20
24.020657
 30
0.0
 11
4.718403
 21
23.793501
 31
0.0
  0
LINE
  5
2d9
100
AcDbEntity
  8
0
 62
7
100
AcDbLine
 10
4.718403
 20
23.793501
 30
0.0
 11
4.670778
 21
23.558077
 31
0.0
  0
LINE
  5
2da
100
AcDbEntity
  8
0
 62
7
100
AcDbLine
 10
4.670778
 20
23.558077
 30
0.0
 11
4.654903
 21
23.316699
 31
0.0
  0
LINE
  5
2db
100
AcDbEntity
  8
0
 62
7
100
AcDbLine
 10
4.654903
 20
23.316699
 30
0.0
 11
4.670778
 21
23.071684
 31
0.0
  0
LINE
  5
2dc
100
AcDbEntity
  8
0
 62
7
100
AcDbLine
 10
4.670778
 20
23.071684
 30
0.0
 11
4.718403
 21
22.825346
 31
0.0
  0
LINE
  5
2dd
100
AcDbEntity
  8
0
 62
7
100
AcDbLine
 10
4.718403
 20
22.825346
 30
0.0
 11
4.797778
 21
22.580000
 31
0.0
  0
LINE
  5
2de
100
AcDbEntity
  8
0
 62
7
100
AcDbLine
 10
4.797778
 20
22.580000
 30
0.0
 11
4.908903
 21
22.337962
 31
0.0
  0
LINE
  5
2df
100
AcDbEntity
  8
0
 62
7
100
AcDbLine
 10
4.908903
 20
22.337962
 30
0.0
 11
5.051778
 21
22.101545
 31
0.0
  0
LINE
  5
2e0
100
AcDbEntity
  8
0
 62
7
100
AcDbLine
 10
5.051778
 20
22.101545
 30
0.0
 11
5.074212
 21
22.071174
 31
0.0
  0
LINE
  5
2e1
100
AcDbEntity
  8
0
 62
7
100
AcDbLine
 10
5.074212
 20
22.071174
 30
0.0
 11
5.098963
 21
22.043778
 31
0.0
  0
LINE
  5
2e2
100
AcDbEntity
  8
0
 62
7
100
AcDbLine
 10
5.098963
 20
22.043778
 30
0.0
 11
5.125697
 21
22.019691
 31
0.0
  0
LINE
  5
2e3
100
AcDbEntity
  8
0
 62
7
100
AcDbLine
 10
5.125697
 20
22.019691
 30
0.0
 11
5.154085
 21
21.999241
 31
0.0
  0
LINE
  5
2e4
100
AcDbEntity
  8
0
 62
7
100
AcDbLine
 10
5.154085
 20
21.999241
 30
0.0
 11
5.183795
 21
21.982759
 31
0.0
  0
LINE
  5
2e5
100
AcDbEntity
  8
0
 62
7
100
AcDbLine
 10
5.183795
 20
21.982759
 30
0.0
 11
5.214498
 21
21.970578
 31
0.0
  0
LINE
  5
2e6
100
AcDbEntity
  8
0
 62
7
100
AcDbLine
 10
5.214498
 20
21.970578
 30
0.0
 11
5.245862
 21
21.963026
 31
0.0
  0
LINE
  5
2e7
100
AcDbEntity
  8
0
 62
7
100
AcDbLine
 10
5.245862
 20
21.963026
 30
0.0
 11
5.277556
 21
21.960434
 31
0.0
  0
LINE
  5
2e8
100
AcDbEntity
  8
0
 62
7
100
AcDbLine
 10
5.277556
 20
21.960434
 30
0.0
 11
5.298669
 21
21.960545
 31
0.0
  0
LINE
  5
2e9
100
AcDbEntity
  8
0
 62
7
100
AcDbLine
 10
5.298669
 20
21.960545
 30
0.0
 11
5.319449
 21
21.961307
 31
0.0
  0
LINE
  5
2ea
100
AcDbEntity
  8
0
 62
7
100
AcDbLine
 10
5.319449
 20
21.961307
 30
0.0
 11
5.339568
 21
21.963395
 31
0.0
  0
LINE
  5
2eb
100
AcDbEntity
  8
0
 62
7
100
AcDbLine
 10
5.339568
 20
21.963395
 30
0.0
 11
5.358694
 21
21.967473
 31
0.0
  0
LINE
  5
2ec
100
AcDbEntity
  8
0
 62
7
100
AcDbLine
 10
5.358694
 20
21.967473
 30
0.0
 11
5.376500
 21
21.974199
 31
0.0
  0
LINE
  5
2ed
100
AcDbEntity
  8
0
 62
7
100
AcDbLine
 10
5.376500
 20
21.974199
 30
0.0
 11
5.392651
 21
21.984232
 31
0.0
  0
LINE
  5
2ee
100
AcDbEntity
  8
0
 62
7
100
AcDbLine
 10
5.392651
 20
21.984232
 30
0.0
 11
5.406819
 21
21.998233
 31
0.0
  0
LINE
  5
2ef
100
AcDbEntity
  8
0
 62
7
100
AcDbLine
 10
5.406819
 20
21.998233
 30
0.0
 11
5.418667
 21
22.016879
 31
0.0
  0
LINE
  5
2f0
100
AcDbEntity
  8
0
 62
7
100
AcDbLine
 10
5.418667
 20
22.016879
 30
0.0
 11
5.466292
 21
22.052377
 31
0.0
  0
LINE
  5
2f1
100
AcDbEntity
  8
0
 62
7
100
AcDbLine
 10
5.466292
 20
22.052377
 30
0.0
 11
5.503333
 21
22.094490
 31
0.0
  0
LINE
  5
2f2
100
AcDbEntity
  8
0
 62
7
100
AcDbLine
 10
5.503333
 20
22.094490
 30
0.0
 11
5.529792
 21
22.141894
 31
0.0
  0
LINE
  5
2f3
100
AcDbEntity
  8
0
 62
7
100
AcDbLine
 10
5.529792
 20
22.141894
 30
0.0
 11
5.545667
 21
22.193268
 31
0.0
  0
LINE
  5
2f4
100
AcDbEntity
  8
0
 62
7
100
AcDbLine
 10
5.545667
 20
22.193268
 30
0.0
 11
5.550958
 21
22.247287
 31
0.0
  0
LINE
  5
2f5
100
AcDbEntity
  8
0
 62
7
100
AcDbLine
 10
5.550958
 20
22.247287
 30
0.0
 11
5.545667
 21
22.302629
 31
0.0
  0
LINE
  5
2f6
100
AcDbEntity
  8
0
 62
7
100
AcDbLine
 10
5.545667
 20
22.302629
 30
0.0
 11
5.529792
 21
22.357971
 31
0.0
  0
LINE
  5
2f7
100
AcDbEntity
  8
0
 62
7
100
AcDbLine
 10
5.529792
 20
22.357971
 30
0.0
 11
5.503333
 21
22.411990
 31
0.0
  0
LINE
  5
2f8
100
AcDbEntity
  8
0
 62
7
100
AcDbLine
 10
5.503333
 20
22.411990
 30
0.0
 11
5.398768
 21
22.591796
 31
0.0
  0
LINE
  5
2f9
100
AcDbEntity
  8
0
 62
7
100
AcDbLine
 10
5.398768
 20
22.591796
 30
0.0
 11
5.317684
 21
22.770941
 31
0.0
  0
LINE
  5
2fa
100
AcDbEntity
  8
0
 62
7
100
AcDbLine
 10
5.317684
 20
22.770941
 30
0.0
 11
5.259751
 21
22.948763
 31
0.0
  0
LINE
  5
2fb
100
AcDbEntity
  8
0
 62
7
100
AcDbLine
 10
5.259751
 20
22.948763
 30
0.0
 11
5.224639
 21
23.124601
 31
0.0
  0
LINE
  5
2fc
100
AcDbEntity
  8
0
 62
7
100
AcDbLine
 10
5.224639
 20
23.124601
 30
0.0
 11
5.212016
 21
23.297793
 31
0.0
  0
LINE
  5
2fd
100
AcDbEntity
  8
0
 62
7
100
AcDbLine
 10
5.212016
 20
23.297793
 30
0.0
 11
5.221552
 21
23.467677
 31
0.0
  0
LINE
  5
2fe
100
AcDbEntity
  8
0
 62
7
100
AcDbLine
 10
5.221552
 20
23.467677
 30
0.0
 11
5.252916
 21
23.633593
 31
0.0
  0
LINE
  5
2ff
100
AcDbEntity
  8
0
 62
7
100
AcDbLine
 10
5.252916
 20
23.633593
 30
0.0
 11
5.305778
 21
23.794879
 31
0.0
  0
LINE
  5
300
100
AcDbEntity
  8
0
 62
7
100
AcDbLine
 10
5.305778
 20
23.794879
 30
0.0
 11
5.406044
 21
23.999766
 31
0.0
  0
LINE
  5
301
100
AcDbEntity
  8
0
 62
7
100
AcDbLine
 10
5.406044
 20
23.999766
 30
0.0
 11
5.536406
 21
24.190431
 31
0.0
  0
LINE
  5
302
100
AcDbEntity
  8
0
 62
7
100
AcDbLine
 10
5.536406
 20
24.190431
 30
0.0
 11
5.695211
 21
24.365883
 31
0.0
  0
LINE
  5
303
100
AcDbEntity
  8
0
 62
7
100
AcDbLine
 10
5.695211
 20
24.365883
 30
0.0
 11
5.880806
 21
24.525129
 31
0.0
  0
LINE
  5
304
100
AcDbEntity
  8
0
 62
7
100
AcDbLine
 10
5.880806
 20
24.525129
 30
0.0
 11
6.091535
 21
24.667177
 31
0.0
  0
LINE
  5
305
100
AcDbEntity
  8
0
 62
7
100
AcDbLine
 10
6.091535
 20
24.667177
 30
0.0
 11
6.325746
 21
24.791035
 31
0.0
  0
LINE
  5
306
100
AcDbEntity
  8
0
 62
7
100
AcDbLine
 10
6.325746
 20
24.791035
 30
0.0
 11
6.581786
 21
24.895711
 31
0.0
  0
LINE
  5
307
100
AcDbEntity
  8
0
 62
7
100
AcDbLine
 10
6.581786
 20
24.895711
 30
0.0
 11
6.858000
 21
24.980212
 31
0.0
  0
LINE
  5
308
100
AcDbEntity
  8
0
 62
7
100
AcDbLine
 10
6.858000
 20
24.980212
 30
0.0
 11
6.909318
 21
24.997081
 31
0.0
  0
LINE
  5
309
100
AcDbEntity
  8
0
 62
7
100
AcDbLine
 10
6.909318
 20
24.997081
 30
0.0
 11
6.956337
 21
25.025193
 31
0.0
  0
LINE
  5
30a
100
AcDbEntity
  8
0
 62
7
100
AcDbLine
 10
6.956337
 20
25.025193
 30
0.0
 11
6.997402
 21
25.062565
 31
0.0
  0
LINE
  5
30b
100
AcDbEntity
  8
0
 62
7
100
AcDbLine
 10
6.997402
 20
25.062565
 30
0.0
 11
7.030861
 21
25.107212
 31
0.0
  0
LINE
  5
30c
100
AcDbEntity
  8
0
 62
7
100
AcDbLine
 10
7.030861
 20
25.107212
 30
0.0
 11
7.055059
 21
25.157152
 31
0.0
  0
LINE
  5
30d
100
AcDbEntity
  8
0
 62
7
100
AcDbLine
 10
7.055059
 20
25.157152
 30
0.0
 11
7.068343
 21
25.210400
 31
0.0
  0
LINE
  5
30e
100
AcDbEntity
  8
0
 62
7
100
AcDbLine
 10
7.068343
 20
25.210400
 30
0.0
 11
7.069049
 21
25.264970
 31
0.0
  0
LINE
  5
30f
100
AcDbEntity
  8
0
 62
7
100
AcDbLine
 10
7.069049
 20
25.264970
 30
0.0
 11
7.055556
 21
25.318879
 31
0.0
  0
LINE
  5
310
100
AcDbEntity
  8
0
 62
7
100
AcDbLine
 10
7.055556
 20
25.318879
 30
0.0
 11
7.054342
 21
25.329406
 31
0.0
  0
LINE
  5
311
100
AcDbEntity
  8
0
 62
7
100
AcDbLine
 10
7.054342
 20
25.329406
 30
0.0
 11
7.051144
 21
25.339602
 31
0.0
  0
LINE
  5
312
100
AcDbEntity
  8
0
 62
7
100
AcDbLine
 10
7.051144
 20
25.339602
 30
0.0
 11
7.046623
 21
25.349139
 31
0.0
  0
LINE
  5
313
100
AcDbEntity
  8
0
 62
7
100
AcDbLine
 10
7.046623
 20
25.349139
 30
0.0
 11
7.041442
 21
25.357682
 31
0.0
  0
LINE
  5
314
100
AcDbEntity
  8
0
 62
7
100
AcDbLine
 10
7.041442
 20
25.357682
 30
0.0
 11
7.036260
 21
25.364904
 31
0.0
  0
LINE
  5
315
100
AcDbEntity
  8
0
 62
7
100
AcDbLine
 10
7.036260
 20
25.364904
 30
0.0
 11
7.031739
 21
25.370472
 31
0.0
  0
LINE
  5
316
100
AcDbEntity
  8
0
 62
7
100
AcDbLine
 10
7.031739
 20
25.370472
 30
0.0
 11
7.028541
 21
25.374056
 31
0.0
  0
LINE
  5
317
100
AcDbEntity
  8
0
 62
7
100
AcDbLine
 10
7.028541
 20
25.374056
 30
0.0
 11
7.027333
 21
25.375323
 31
0.0
  0
LINE
  5
318
100
AcDbEntity
  8
0
 62
7
100
AcDbLine
 10
7.027333
 20
25.375323
 30
0.0
 11
7.047177
 21
25.396490
 31
0.0
  0
LINE
  5
319
100
AcDbEntity
  8
0
 62
7
100
AcDbLine
 10
7.047177
 20
25.396490
 30
0.0
 11
7.064375
 21
25.417657
 31
0.0
  0
LINE
  5
31a
100
AcDbEntity
  8
0
 62
7
100
AcDbLine
 10
7.064375
 20
25.417657
 30
0.0
 11
7.078927
 21
25.438823
 31
0.0
  0
LINE
  5
31b
100
AcDbEntity
  8
0
 62
7
100
AcDbLine
 10
7.078927
 20
25.438823
 30
0.0
 11
7.090833
 21
25.459990
 31
0.0
  0
LINE
  5
31c
100
AcDbEntity
  8
0
 62
7
100
AcDbLine
 10
7.090833
 20
25.459990
 30
0.0
 11
7.100094
 21
25.481157
 31
0.0
  0
LINE
  5
31d
100
AcDbEntity
  8
0
 62
7
100
AcDbLine
 10
7.100094
 20
25.481157
 30
0.0
 11
7.106708
 21
25.502323
 31
0.0
  0
LINE
  5
31e
100
AcDbEntity
  8
0
 62
7
100
AcDbLine
 10
7.106708
 20
25.502323
 30
0.0
 11
7.110677
 21
25.523490
 31
0.0
  0
LINE
  5
31f
100
AcDbEntity
  8
0
 62
7
100
AcDbLine
 10
7.110677
 20
25.523490
 30
0.0
 11
7.112000
 21
25.544657
 31
0.0
  0
LINE
  5
320
100
AcDbEntity
  8
0
 62
7
100
AcDbLine
 10
7.112000
 20
25.544657
 30
0.0
 11
7.177540
 21
25.771923
 31
0.0
  0
LINE
  5
321
100
AcDbEntity
  8
0
 62
7
100
AcDbLine
 10
7.177540
 20
25.771923
 30
0.0
 11
7.281774
 21
25.949910
 31
0.0
  0
LINE
  5
322
100
AcDbEntity
  8
0
 62
7
100
AcDbLine
 10
7.281774
 20
25.949910
 30
0.0
 11
7.413129
 21
26.084903
 31
0.0
  0
LINE
  5
323
100
AcDbEntity
  8
0
 62
7
100
AcDbLine
 10
7.413129
 20
26.084903
 30
0.0
 11
7.560028
 21
26.183184
 31
0.0
  0
LINE
  5
324
100
AcDbEntity
  8
0
 62
7
100
AcDbLine
 10
7.560028
 20
26.183184
 30
0.0
 11
7.710895
 21
26.251039
 31
0.0
  0
LINE
  5
325
100
AcDbEntity
  8
0
 62
7
100
AcDbLine
 10
7.710895
 20
26.251039
 30
0.0
 11
7.854156
 21
26.294750
 31
0.0
  0
LINE
  5
326
100
AcDbEntity
  8
0
 62
7
100
AcDbLine
 10
7.854156
 20
26.294750
 30
0.0
 11
7.978235
 21
26.320602
 31
0.0
  0
LINE
  5
327
100
AcDbEntity
  8
0
 62
7
100
AcDbLine
 10
7.978235
 20
26.320602
 30
0.0
 11
8.071556
 21
26.334879
 31
0.0
  0
LINE
  5
328
100
AcDbEntity
  8
0
 62
7
100
AcDbLine
 10
5.136444
 20
25.967990
 30
0.0
 11
5.190298
 21
25.963801
 31
0.0
  0
LINE
  5
329
100
AcDbEntity
  8
0
 62
7
100
AcDbLine
 10
5.190298
 20
25.963801
 30
0.0
 11
5.244482
 21
25.971518
 31
0.0
  0
LINE
  5
32a
100
AcDbEntity
  8
0
 62
7
100
AcDbLine
 10
5.244482
 20
25.971518
 30
0.0
 11
5.296683
 21
25.989818
 31
0.0
  0
LINE
  5
32b
100
AcDbEntity
  8
0
 62
7
100
AcDbLine
 10
5.296683
 20
25.989818
 30
0.0
 11
5.344583
 21
26.017379
 31
0.0
  0
LINE
  5
32c
100
AcDbEntity
  8
0
 62
7
100
AcDbLine
 10
5.344583
 20
26.017379
 30
0.0
 11
5.385869
 21
26.052877
 31
0.0
  0
LINE
  5
32d
100
AcDbEntity
  8
0
 62
7
100
AcDbLine
 10
5.385869
 20
26.052877
 30
0.0
 11
5.418226
 21
26.094990
 31
0.0
  0
LINE
  5
32e
100
AcDbEntity
  8
0
 62
7
100
AcDbLine
 10
5.418226
 20
26.094990
 30
0.0
 11
5.439337
 21
26.142394
 31
0.0
  0
LINE
  5
32f
100
AcDbEntity
  8
0
 62
7
100
AcDbLine
 10
5.439337
 20
26.142394
 30
0.0
 11
5.446889
 21
26.193768
 31
0.0
  0
LINE
  5
330
100
AcDbEntity
  8
0
 62
7
100
AcDbLine
 10
5.446889
 20
26.193768
 30
0.0
 11
5.513035
 21
26.433436
 31
0.0
  0
LINE
  5
331
100
AcDbEntity
  8
0
 62
7
100
AcDbLine
 10
5.513035
 20
26.433436
 30
0.0
 11
5.621514
 21
26.645323
 31
0.0
  0
LINE
  5
332
100
AcDbEntity
  8
0
 62
7
100
AcDbLine
 10
5.621514
 20
26.645323
 30
0.0
 11
5.764389
 21
26.830752
 31
0.0
  0
LINE
  5
333
100
AcDbEntity
  8
0
 62
7
100
AcDbLine
 10
5.764389
 20
26.830752
 30
0.0
 11
5.933722
 21
26.991045
 31
0.0
  0
LINE
  5
334
100
AcDbEntity
  8
0
 62
7
100
AcDbLine
 10
5.933722
 20
26.991045
 30
0.0
 11
6.121576
 21
27.127526
 31
0.0
  0
LINE
  5
335
100
AcDbEntity
  8
0
 62
7
100
AcDbLine
 10
6.121576
 20
27.127526
 30
0.0
 11
6.320014
 21
27.241518
 31
0.0
  0
LINE
  5
336
100
AcDbEntity
  8
0
 62
7
100
AcDbLine
 10
6.320014
 20
27.241518
 30
0.0
 11
6.521097
 21
27.334342
 31
0.0
  0
LINE
  5
337
100
AcDbEntity
  8
0
 62
7
100
AcDbLine
 10
6.521097
 20
27.334342
 30
0.0
 11
6.716889
 21
27.407323
 31
0.0
  0
LINE
  5
338
100
AcDbEntity
  8
0
 62
7
100
AcDbLine
 10
6.716889
 20
27.407323
 30
0.0
 11
6.857008
 21
27.456381
 31
0.0
  0
LINE
  5
339
100
AcDbEntity
  8
0
 62
7
100
AcDbLine
 10
6.857008
 20
27.456381
 30
0.0
 11
7.001757
 21
27.498163
 31
0.0
  0
LINE
  5
33a
100
AcDbEntity
  8
0
 62
7
100
AcDbLine
 10
7.001757
 20
27.498163
 30
0.0
 11
7.150475
 21
27.533331
 31
0.0
  0
LINE
  5
33b
100
AcDbEntity
  8
0
 62
7
100
AcDbLine
 10
7.150475
 20
27.533331
 30
0.0
 11
7.302500
 21
27.562545
 31
0.0
  0
LINE
  5
33c
100
AcDbEntity
  8
0
 62
7
100
AcDbLine
 10
7.302500
 20
27.562545
 30
0.0
 11
7.457171
 21
27.586468
 31
0.0
  0
LINE
  5
33d
100
AcDbEntity
  8
0
 62
7
100
AcDbLine
 10
7.457171
 20
27.586468
 30
0.0
 11
7.613826
 21
27.605761
 31
0.0
  0
LINE
  5
33e
100
AcDbEntity
  8
0
 62
7
100
AcDbLine
 10
7.613826
 20
27.605761
 30
0.0
 11
7.771805
 21
27.621085
 31
0.0
  0
LINE
  5
33f
100
AcDbEntity
  8
0
 62
7
100
AcDbLine
 10
7.771805
 20
27.621085
 30
0.0
 11
7.930444
 21
27.633101
 31
0.0
  0
LINE
  5
340
100
AcDbEntity
  8
0
 62
7
100
AcDbLine
 10
7.930444
 20
27.633101
 30
0.0
 11
7.546027
 21
27.585917
 31
0.0
  0
LINE
  5
341
100
AcDbEntity
  8
0
 62
7
100
AcDbLine
 10
7.546027
 20
27.585917
 30
0.0
 11
7.178146
 21
27.488462
 31
0.0
  0
LINE
  5
342
100
AcDbEntity
  8
0
 62
7
100
AcDbLine
 10
7.178146
 20
27.488462
 30
0.0
 11
6.830109
 21
27.343382
 31
0.0
  0
LINE
  5
343
100
AcDbEntity
  8
0
 62
7
100
AcDbLine
 10
6.830109
 20
27.343382
 30
0.0
 11
6.505222
 21
27.153323
 31
0.0
  0
LINE
  5
344
100
AcDbEntity
  8
0
 62
7
100
AcDbLine
 10
6.505222
 20
27.153323
 30
0.0
 11
6.206794
 21
26.920931
 31
0.0
  0
LINE
  5
345
100
AcDbEntity
  8
0
 62
7
100
AcDbLine
 10
6.206794
 20
26.920931
 30
0.0
 11
5.938132
 21
26.648851
 31
0.0
  0
LINE
  5
346
100
AcDbEntity
  8
0
 62
7
100
AcDbLine
 10
5.938132
 20
26.648851
 30
0.0
 11
5.702542
 21
26.339729
 31
0.0
  0
LINE
  5
347
100
AcDbEntity
  8
0
 62
7
100
AcDbLine
 10
5.702542
 20
26.339729
 30
0.0
 11
5.503333
 21
25.996212
 31
0.0
  0
LINE
  5
348
100
AcDbEntity
  8
0
 62
7
100
AcDbLine
 10
5.503333
 20
25.996212
 30
0.0
 11
5.494018
 21
25.975045
 31
0.0
  0
LINE
  5
349
100
AcDbEntity
  8
0
 62
7
100
AcDbLine
 10
5.494018
 20
25.975045
 30
0.0
 11
5.487017
 21
25.953879
 31
0.0
  0
LINE
  5
34a
100
AcDbEntity
  8
0
 62
7
100
AcDbLine
 10
5.487017
 20
25.953879
 30
0.0
 11
5.482001
 21
25.932712
 31
0.0
  0
LINE
  5
34b
100
AcDbEntity
  8
0
 62
7
100
AcDbLine
 10
5.482001
 20
25.932712
 30
0.0
 11
5.478639
 21
25.911545
 31
0.0
  0
LINE
  5
34c
100
AcDbEntity
  8
0
 62
7
100
AcDbLine
 10
5.478639
 20
25.911545
 30
0.0
 11
5.476607
 21
25.890379
 31
0.0
  0
LINE
  5
34d
100
AcDbEntity
  8
0
 62
7
100
AcDbLine
 10
5.476607
 20
25.890379
 30
0.0
 11
5.475563
 21
25.869212
 31
0.0
  0
LINE
  5
34e
100
AcDbEntity
  8
0
 62
7
100
AcDbLine
 10
5.475563
 20
25.869212
 30
0.0
 11
5.475168
 21
25.848045
 31
0.0
  0
LINE
  5
34f
100
AcDbEntity
  8
0
 62
7
100
AcDbLine
 10
5.475168
 20
25.848045
 30
0.0
 11
5.475111
 21
25.826879
 31
0.0
  0
LINE
  5
350
100
AcDbEntity
  8
0
 62
7
100
AcDbLine
 10
5.475111
 20
25.826879
 30
0.0
 11
5.442148
 21
25.846667
 31
0.0
  0
LINE
  5
351
100
AcDbEntity
  8
0
 62
7
100
AcDbLine
 10
5.442148
 20
25.846667
 30
0.0
 11
5.407201
 21
25.863479
 31
0.0
  0
LINE
  5
352
100
AcDbEntity
  8
0
 62
7
100
AcDbLine
 10
5.407201
 20
25.863479
 30
0.0
 11
5.370931
 21
25.876984
 31
0.0
  0
LINE
  5
353
100
AcDbEntity
  8
0
 62
7
100
AcDbLine
 10
5.370931
 20
25.876984
 30
0.0
 11
5.334000
 21
25.886851
 31
0.0
  0
LINE
  5
354
100
AcDbEntity
  8
0
 62
7
100
AcDbLine
 10
5.334000
 20
25.886851
 30
0.0
 11
5.297069
 21
25.892749
 31
0.0
  0
LINE
  5
355
100
AcDbEntity
  8
0
 62
7
100
AcDbLine
 10
5.297069
 20
25.892749
 30
0.0
 11
5.260799
 21
25.894348
 31
0.0
  0
LINE
  5
356
100
AcDbEntity
  8
0
 62
7
100
AcDbLine
 10
5.260799
 20
25.894348
 30
0.0
 11
5.225852
 21
25.891316
 31
0.0
  0
LINE
  5
357
100
AcDbEntity
  8
0
 62
7
100
AcDbLine
 10
5.225852
 20
25.891316
 30
0.0
 11
5.192889
 21
25.883323
 31
0.0
  0
LINE
  5
358
100
AcDbEntity
  8
0
 62
7
100
AcDbLine
 10
5.192889
 20
25.883323
 30
0.0
 11
4.936629
 21
25.755607
 31
0.0
  0
LINE
  5
359
100
AcDbEntity
  8
0
 62
7
100
AcDbLine
 10
4.936629
 20
25.755607
 30
0.0
 11
4.698559
 21
25.586549
 31
0.0
  0
LINE
  5
35a
100
AcDbEntity
  8
0
 62
7
100
AcDbLine
 10
4.698559
 20
25.586549
 30
0.0
 11
4.480994
 21
25.379788
 31
0.0
  0
LINE
  5
35b
100
AcDbEntity
  8
0
 62
7
100
AcDbLine
 10
4.480994
 20
25.379788
 30
0.0
 11
4.286250
 21
25.138962
 31
0.0
  0
LINE
  5
35c
100
AcDbEntity
  8
0
 62
7
100
AcDbLine
 10
4.286250
 20
25.138962
 30
0.0
 11
4.116641
 21
24.867709
 31
0.0
  0
LINE
  5
35d
100
AcDbEntity
  8
0
 62
7
100
AcDbLine
 10
4.116641
 20
24.867709
 30
0.0
 11
3.974482
 21
24.569667
 31
0.0
  0
LINE
  5
35e
100
AcDbEntity
  8
0
 62
7
100
AcDbLine
 10
3.974482
 20
24.569667
 30
0.0
 11
3.862090
 21
24.248474
 31
0.0
  0
LINE
  5
35f
100
AcDbEntity
  8
0
 62
7
100
AcDbLine
 10
3.862090
 20
24.248474
 30
0.0
 11
3.781778
 21
23.907768
 31
0.0
  0
LINE
  5
360
100
AcDbEntity
  8
0
 62
7
100
AcDbLine
 10
3.781778
 20
23.907768
 30
0.0
 11
3.743358
 21
23.626317
 31
0.0
  0
LINE
  5
361
100
AcDbEntity
  8
0
 62
7
100
AcDbLine
 10
3.743358
 20
23.626317
 30
0.0
 11
3.733712
 21
23.354788
 31
0.0
  0
LINE
  5
362
100
AcDbEntity
  8
0
 62
7
100
AcDbLine
 10
3.733712
 20
23.354788
 30
0.0
 11
3.752508
 21
23.095166
 31
0.0
  0
LINE
  5
363
100
AcDbEntity
  8
0
 62
7
100
AcDbLine
 10
3.752508
 20
23.095166
 30
0.0
 11
3.799416
 21
22.849434
 31
0.0
  0
LINE
  5
364
100
AcDbEntity
  8
0
 62
7
100
AcDbLine
 10
3.799416
 20
22.849434
 30
0.0
 11
3.874106
 21
22.619578
 31
0.0
  0
LINE
  5
365
100
AcDbEntity
  8
0
 62
7
100
AcDbLine
 10
3.874106
 20
22.619578
 30
0.0
 11
3.976246
 21
22.407580
 31
0.0
  0
LINE
  5
366
100
AcDbEntity
  8
0
 62
7
100
AcDbLine
 10
3.976246
 20
22.407580
 30
0.0
 11
4.105506
 21
22.215427
 31
0.0
  0
LINE
  5
367
100
AcDbEntity
  8
0
 62
7
100
AcDbLine
 10
4.105506
 20
22.215427
 30
0.0
 11
4.261556
 21
22.045101
 31
0.0
  0
LINE
  5
368
100
AcDbEntity
  8
0
 62
7
100
AcDbLine
 10
4.261556
 20
22.045101
 30
0.0
 11
4.282779
 21
22.025258
 31
0.0
  0
LINE
  5
369
100
AcDbEntity
  8
0
 62
7
100
AcDbLine
 10
4.282779
 20
22.025258
 30
0.0
 11
4.304332
 21
22.008059
 31
0.0
  0
LINE
  5
36a
100
AcDbEntity
  8
0
 62
7
100
AcDbLine
 10
4.304332
 20
22.008059
 30
0.0
 11
4.326546
 21
21.993508
 31
0.0
  0
LINE
  5
36b
100
AcDbEntity
  8
0
 62
7
100
AcDbLine
 10
4.326546
 20
21.993508
 30
0.0
 11
4.349753
 21
21.981601
 31
0.0
  0
LINE
  5
36c
100
AcDbEntity
  8
0
 62
7
100
AcDbLine
 10
4.349753
 20
21.981601
 30
0.0
 11
4.374281
 21
21.972341
 31
0.0
  0
LINE
  5
36d
100
AcDbEntity
  8
0
 62
7
100
AcDbLine
 10
4.374281
 20
21.972341
 30
0.0
 11
4.400463
 21
21.965726
 31
0.0
  0
LINE
  5
36e
100
AcDbEntity
  8
0
 62
7
100
AcDbLine
 10
4.400463
 20
21.965726
 30
0.0
 11
4.428631
 21
21.961758
 31
0.0
  0
LINE
  5
36f
100
AcDbEntity
  8
0
 62
7
100
AcDbLine
 10
4.428631
 20
21.961758
 30
0.0
 11
4.459111
 21
21.960434
 31
0.0
  0
LINE
  5
370
100
AcDbEntity
  8
0
 62
7
100
AcDbLine
 10
4.459111
 20
21.960434
 30
0.0
 11
4.489593
 21
21.961761
 31
0.0
  0
LINE
  5
371
100
AcDbEntity
  8
0
 62
7
100
AcDbLine
 10
4.489593
 20
21.961761
 30
0.0
 11
4.517759
 21
21.965729
 31
0.0
  0
LINE
  5
372
100
AcDbEntity
  8
0
 62
7
100
AcDbLine
 10
4.517759
 20
21.965729
 30
0.0
 11
4.543941
 21
21.972344
 31
0.0
  0
LINE
  5
373
100
AcDbEntity
  8
0
 62
7
100
AcDbLine
 10
4.543941
 20
21.972344
 30
0.0
 11
4.568469
 21
21.981604
 31
0.0
  0
LINE
  5
374
100
AcDbEntity
  8
0
 62
7
100
AcDbLine
 10
4.568469
 20
21.981604
 30
0.0
 11
4.591676
 21
21.993511
 31
0.0
  0
LINE
  5
375
100
AcDbEntity
  8
0
 62
7
100
AcDbLine
 10
4.591676
 20
21.993511
 30
0.0
 11
4.613890
 21
22.008062
 31
0.0
  0
LINE
  5
376
100
AcDbEntity
  8
0
 62
7
100
AcDbLine
 10
4.613890
 20
22.008062
 30
0.0
 11
4.635443
 21
22.025261
 31
0.0
  0
LINE
  5
377
100
AcDbEntity
  8
0
 62
7
100
AcDbLine
 10
4.635443
 20
22.025261
 30
0.0
 11
4.656667
 21
22.045101
 31
0.0
  0
LINE
  5
378
100
AcDbEntity
  8
0
 62
7
100
AcDbLine
 10
4.656667
 20
22.045101
 30
0.0
 11
4.692496
 21
22.089860
 31
0.0
  0
LINE
  5
379
100
AcDbEntity
  8
0
 62
7
100
AcDbLine
 10
4.692496
 20
22.089860
 30
0.0
 11
4.715757
 21
22.138587
 31
0.0
  0
LINE
  5
37a
100
AcDbEntity
  8
0
 62
7
100
AcDbLine
 10
4.715757
 20
22.138587
 30
0.0
 11
4.727112
 21
22.189960
 31
0.0
  0
LINE
  5
37b
100
AcDbEntity
  8
0
 62
7
100
AcDbLine
 10
4.727112
 20
22.189960
 30
0.0
 11
4.727222
 21
22.242657
 31
0.0
  0
LINE
  5
37c
100
AcDbEntity
  8
0
 62
7
100
AcDbLine
 10
4.727222
 20
22.242657
 30
0.0
 11
4.716749
 21
22.295353
 31
0.0
  0
LINE
  5
37d
100
AcDbEntity
  8
0
 62
7
100
AcDbLine
 10
4.716749
 20
22.295353
 30
0.0
 11
4.696354
 21
22.346726
 31
0.0
  0
LINE
  5
37e
100
AcDbEntity
  8
0
 62
7
100
AcDbLine
 10
4.696354
 20
22.346726
 30
0.0
 11
4.666699
 21
22.395453
 31
0.0
  0
LINE
  5
37f
100
AcDbEntity
  8
0
 62
7
100
AcDbLine
 10
4.666699
 20
22.395453
 30
0.0
 11
4.628444
 21
22.440212
 31
0.0
  0
LINE
  5
380
100
AcDbEntity
  8
0
 62
7
100
AcDbLine
 10
4.628444
 20
22.440212
 30
0.0
 11
4.530604
 21
22.555141
 31
0.0
  0
LINE
  5
381
100
AcDbEntity
  8
0
 62
7
100
AcDbLine
 10
4.530604
 20
22.555141
 30
0.0
 11
4.448969
 21
22.687598
 31
0.0
  0
LINE
  5
382
100
AcDbEntity
  8
0
 62
7
100
AcDbLine
 10
4.448969
 20
22.687598
 30
0.0
 11
4.383870
 21
22.836591
 31
0.0
  0
LINE
  5
383
100
AcDbEntity
  8
0
 62
7
100
AcDbLine
 10
4.383870
 20
22.836591
 30
0.0
 11
4.335639
 21
23.001129
 31
0.0
  0
LINE
  5
384
100
AcDbEntity
  8
0
 62
7
100
AcDbLine
 10
4.335639
 20
23.001129
 30
0.0
 11
4.304605
 21
23.180219
 31
0.0
  0
LINE
  5
385
100
AcDbEntity
  8
0
 62
7
100
AcDbLine
 10
4.304605
 20
23.180219
 30
0.0
 11
4.291101
 21
23.372868
 31
0.0
  0
LINE
  5
386
100
AcDbEntity
  8
0
 62
7
100
AcDbLine
 10
4.291101
 20
23.372868
 30
0.0
 11
4.295455
 21
23.578086
 31
0.0
  0
LINE
  5
387
100
AcDbEntity
  8
0
 62
7
100
AcDbLine
 10
4.295455
 20
23.578086
 30
0.0
 11
4.318000
 21
23.794879
 31
0.0
  0
LINE
  5
388
100
AcDbEntity
  8
0
 62
7
100
AcDbLine
 10
4.318000
 20
23.794879
 30
0.0
 11
4.383760
 21
24.064148
 31
0.0
  0
LINE
  5
389
100
AcDbEntity
  8
0
 62
7
100
AcDbLine
 10
4.383760
 20
24.064148
 30
0.0
 11
4.473663
 21
24.319195
 31
0.0
  0
LINE
  5
38a
100
AcDbEntity
  8
0
 62
7
100
AcDbLine
 10
4.473663
 20
24.319195
 30
0.0
 11
4.585395
 21
24.556383
 31
0.0
  0
LINE
  5
38b
100
AcDbEntity
  8
0
 62
7
100
AcDbLine
 10
4.585395
 20
24.556383
 30
0.0
 11
4.716639
 21
24.772073
 31
0.0
  0
LINE
  5
38c
100
AcDbEntity
  8
0
 62
7
100
AcDbLine
 10
4.716639
 20
24.772073
 30
0.0
 11
4.865081
 21
24.962628
 31
0.0
  0
LINE
  5
38d
100
AcDbEntity
  8
0
 62
7
100
AcDbLine
 10
4.865081
 20
24.962628
 30
0.0
 11
5.028406
 21
25.124410
 31
0.0
  0
LINE
  5
38e
100
AcDbEntity
  8
0
 62
7
100
AcDbLine
 10
5.028406
 20
25.124410
 30
0.0
 11
5.204299
 21
25.253780
 31
0.0
  0
LINE
  5
38f
100
AcDbEntity
  8
0
 62
7
100
AcDbLine
 10
5.204299
 20
25.253780
 30
0.0
 11
5.390444
 21
25.347101
 31
0.0
  0
LINE
  5
390
100
AcDbEntity
  8
0
 62
7
100
AcDbLine
 10
5.390444
 20
25.347101
 30
0.0
 11
5.439392
 21
25.372016
 31
0.0
  0
LINE
  5
391
100
AcDbEntity
  8
0
 62
7
100
AcDbLine
 10
5.439392
 20
25.372016
 30
0.0
 11
5.480403
 21
25.403545
 31
0.0
  0
LINE
  5
392
100
AcDbEntity
  8
0
 62
7
100
AcDbLine
 10
5.480403
 20
25.403545
 30
0.0
 11
5.513476
 21
25.440367
 31
0.0
  0
LINE
  5
393
100
AcDbEntity
  8
0
 62
7
100
AcDbLine
 10
5.513476
 20
25.440367
 30
0.0
 11
5.538611
 21
25.481157
 31
0.0
  0
LINE
  5
394
100
AcDbEntity
  8
0
 62
7
100
AcDbLine
 10
5.538611
 20
25.481157
 30
0.0
 11
5.555809
 21
25.524592
 31
0.0
  0
LINE
  5
395
100
AcDbEntity
  8
0
 62
7
100
AcDbLine
 10
5.555809
 20
25.524592
 30
0.0
 11
5.565069
 21
25.569351
 31
0.0
  0
LINE
  5
396
100
AcDbEntity
  8
0
 62
7
100
AcDbLine
 10
5.565069
 20
25.569351
 30
0.0
 11
5.566392
 21
25.614110
 31
0.0
  0
LINE
  5
397
100
AcDbEntity
  8
0
 62
7
100
AcDbLine
 10
5.566392
 20
25.614110
 30
0.0
 11
5.559778
 21
25.657545
 31
0.0
  0
LINE
  5
398
100
AcDbEntity
  8
0
 62
7
100
AcDbLine
 10
5.559778
 20
25.657545
 30
0.0
 11
5.569148
 21
25.648175
 31
0.0
  0
LINE
  5
399
100
AcDbEntity
  8
0
 62
7
100
AcDbLine
 10
5.569148
 20
25.648175
 30
0.0
 11
5.576533
 21
25.640788
 31
0.0
  0
LINE
  5
39a
100
AcDbEntity
  8
0
 62
7
100
AcDbLine
 10
5.576533
 20
25.640788
 30
0.0
 11
5.582595
 21
25.634725
 31
0.0
  0
LINE
  5
39b
100
AcDbEntity
  8
0
 62
7
100
AcDbLine
 10
5.582595
 20
25.634725
 30
0.0
 11
5.588000
 21
25.629323
 31
0.0
  0
LINE
  5
39c
100
AcDbEntity
  8
0
 62
7
100
AcDbLine
 10
5.588000
 20
25.629323
 30
0.0
 11
5.593402
 21
25.623921
 31
0.0
  0
LINE
  5
39d
100
AcDbEntity
  8
0
 62
7
100
AcDbLine
 10
5.593402
 20
25.623921
 30
0.0
 11
5.599464
 21
25.617858
 31
0.0
  0
LINE
  5
39e
100
AcDbEntity
  8
0
 62
7
100
AcDbLine
 10
5.599464
 20
25.617858
 30
0.0
 11
5.606850
 21
25.610472
 31
0.0
  0
LINE
  5
39f
100
AcDbEntity
  8
0
 62
7
100
AcDbLine
 10
5.606850
 20
25.610472
 30
0.0
 11
5.616222
 21
25.601101
 31
0.0
  0
LINE
  5
3a0
100
AcDbEntity
  8
0
 62
7
100
AcDbLine
 10
5.616222
 20
25.601101
 30
0.0
 11
5.628019
 21
25.591785
 31
0.0
  0
LINE
  5
3a1
100
AcDbEntity
  8
0
 62
7
100
AcDbLine
 10
5.628019
 20
25.591785
 30
0.0
 11
5.641800
 21
25.584785
 31
0.0
  0
LINE
  5
3a2
100
AcDbEntity
  8
0
 62
7
100
AcDbLine
 10
5.641800
 20
25.584785
 30
0.0
 11
5.656905
 21
25.579769
 31
0.0
  0
LINE
  5
3a3
100
AcDbEntity
  8
0
 62
7
100
AcDbLine
 10
5.656905
 20
25.579769
 30
0.0
 11
5.672667
 21
25.576407
 31
0.0
  0
LINE
  5
3a4
100
AcDbEntity
  8
0
 62
7
100
AcDbLine
 10
5.672667
 20
25.576407
 30
0.0
 11
5.688432
 21
25.574366
 31
0.0
  0
LINE
  5
3a5
100
AcDbEntity
  8
0
 62
7
100
AcDbLine
 10
5.688432
 20
25.574366
 30
0.0
 11
5.703536
 21
25.573319
 31
0.0
  0
LINE
  5
3a6
100
AcDbEntity
  8
0
 62
7
100
AcDbLine
 10
5.703536
 20
25.573319
 30
0.0
 11
5.717317
 21
25.572932
 31
0.0
  0
LINE
  5
3a7
100
AcDbEntity
  8
0
 62
7
100
AcDbLine
 10
5.717317
 20
25.572932
 30
0.0
 11
5.729111
 21
25.572879
 31
0.0
  0
LINE
  5
3a8
100
AcDbEntity
  8
0
 62
7
100
AcDbLine
 10
5.729111
 20
25.572879
 30
0.0
 11
5.770121
 21
25.575525
 31
0.0
  0
LINE
  5
3a9
100
AcDbEntity
  8
0
 62
7
100
AcDbLine
 10
5.770121
 20
25.575525
 30
0.0
 11
5.808486
 21
25.583462
 31
0.0
  0
LINE
  5
3aa
100
AcDbEntity
  8
0
 62
7
100
AcDbLine
 10
5.808486
 20
25.583462
 30
0.0
 11
5.844205
 21
25.596691
 31
0.0
  0
LINE
  5
3ab
100
AcDbEntity
  8
0
 62
7
100
AcDbLine
 10
5.844205
 20
25.596691
 30
0.0
 11
5.877278
 21
25.615212
 31
0.0
  0
LINE
  5
3ac
100
AcDbEntity
  8
0
 62
7
100
AcDbLine
 10
5.877278
 20
25.615212
 30
0.0
 11
5.907705
 21
25.639025
 31
0.0
  0
LINE
  5
3ad
100
AcDbEntity
  8
0
 62
7
100
AcDbLine
 10
5.907705
 20
25.639025
 30
0.0
 11
5.935486
 21
25.668129
 31
0.0
  0
LINE
  5
3ae
100
AcDbEntity
  8
0
 62
7
100
AcDbLine
 10
5.935486
 20
25.668129
 30
0.0
 11
5.960621
 21
25.702525
 31
0.0
  0
LINE
  5
3af
100
AcDbEntity
  8
0
 62
7
100
AcDbLine
 10
5.960621
 20
25.702525
 30
0.0
 11
5.983111
 21
25.742212
 31
0.0
  0
LINE
  5
3b0
100
AcDbEntity
  8
0
 62
7
100
AcDbLine
 10
5.983111
 20
25.742212
 30
0.0
 11
6.145499
 21
26.023773
 31
0.0
  0
LINE
  5
3b1
100
AcDbEntity
  8
0
 62
7
100
AcDbLine
 10
6.145499
 20
26.023773
 30
0.0
 11
6.335007
 21
26.274907
 31
0.0
  0
LINE
  5
3b2
100
AcDbEntity
  8
0
 62
7
100
AcDbLine
 10
6.335007
 20
26.274907
 30
0.0
 11
6.549650
 21
26.494290
 31
0.0
  0
LINE
  5
3b3
100
AcDbEntity
  8
0
 62
7
100
AcDbLine
 10
6.549650
 20
26.494290
 30
0.0
 11
6.787444
 21
26.680601
 31
0.0
  0
LINE
  5
3b4
100
AcDbEntity
  8
0
 62
7
100
AcDbLine
 10
6.787444
 20
26.680601
 30
0.0
 11
7.046405
 21
26.832516
 31
0.0
  0
LINE
  5
3b5
100
AcDbEntity
  8
0
 62
7
100
AcDbLine
 10
7.046405
 20
26.832516
 30
0.0
 11
7.324549
 21
26.948712
 31
0.0
  0
LINE
  5
3b6
100
AcDbEntity
  8
0
 62
7
100
AcDbLine
 10
7.324549
 20
26.948712
 30
0.0
 11
7.619890
 21
27.027867
 31
0.0
  0
LINE
  5
3b7
100
AcDbEntity
  8
0
 62
7
100
AcDbLine
 10
7.619890
 20
27.027867
 30
0.0
 11
7.930444
 21
27.068657
 31
0.0
  0
LINE
  5
3b8
100
AcDbEntity
  8
0
 62
7
100
AcDbLine
 10
7.930444
 20
27.068657
 30
0.0
 11
8.285868
 21
27.065019
 31
0.0
  0
LINE
  5
3b9
100
AcDbEntity
  8
0
 62
7
100
AcDbLine
 10
8.285868
 20
27.065019
 30
0.0
 11
8.630708
 21
27.013094
 31
0.0
  0
LINE
  5
3ba
100
AcDbEntity
  8
0
 62
7
100
AcDbLine
 10
8.630708
 20
27.013094
 30
0.0
 11
8.962319
 21
26.914867
 31
0.0
  0
LINE
  5
3bb
100
AcDbEntity
  8
0
 62
7
100
AcDbLine
 10
8.962319
 20
26.914867
 30
0.0
 11
9.278056
 21
26.772323
 31
0.0
  0
LINE
  5
3bc
100
AcDbEntity
  8
0
 62
7
100
AcDbLine
 10
9.278056
 20
26.772323
 30
0.0
 11
9.575271
 21
26.587446
 31
0.0
  0
LINE
  5
3bd
100
AcDbEntity
  8
0
 62
7
100
AcDbLine
 10
9.575271
 20
26.587446
 30
0.0
 11
9.851319
 21
26.362219
 31
0.0
  0
LINE
  5
3be
100
AcDbEntity
  8
0
 62
7
100
AcDbLine
 10
9.851319
 20
26.362219
 30
0.0
 11
10.103556
 21
26.098628
 31
0.0
  0
LINE
  5
3bf
100
AcDbEntity
  8
0
 62
7
100
AcDbLine
 10
10.103556
 20
26.098628
 30
0.0
 11
10.329333
 21
25.798657
 31
0.0
  0
LINE
  5
3c0
100
AcDbEntity
  8
0
 62
7
100
AcDbLine
 10
10.329333
 20
25.798657
 30
0.0
 11
10.364832
 21
25.751032
 31
0.0
  0
LINE
  5
3c1
100
AcDbEntity
  8
0
 62
7
100
AcDbLine
 10
10.364832
 20
25.751032
 30
0.0
 11
10.406944
 21
25.713990
 31
0.0
  0
LINE
  5
3c2
100
AcDbEntity
  8
0
 62
7
100
AcDbLine
 10
10.406944
 20
25.713990
 30
0.0
 11
10.454349
 21
25.687532
 31
0.0
  0
LINE
  5
3c3
100
AcDbEntity
  8
0
 62
7
100
AcDbLine
 10
10.454349
 20
25.687532
 30
0.0
 11
10.505722
 21
25.671657
 31
0.0
  0
LINE
  5
3c4
100
AcDbEntity
  8
0
 62
7
100
AcDbLine
 10
10.505722
 20
25.671657
 30
0.0
 11
10.559741
 21
25.666365
 31
0.0
  0
LINE
  5
3c5
100
AcDbEntity
  8
0
 62
7
100
AcDbLine
 10
10.559741
 20
25.666365
 30
0.0
 11
10.615083
 21
25.671657
 31
0.0
  0
LINE
  5
3c6
100
AcDbEntity
  8
0
 62
7
100
AcDbLine
 10
10.615083
 20
25.671657
 30
0.0
 11
10.670425
 21
25.687532
 31
0.0
  0
LINE
  5
3c7
100
AcDbEntity
  8
0
 62
7
100
AcDbLine
 10
10.670425
 20
25.687532
 30
0.0
 11
10.724444
 21
25.713990
 31
0.0
  0
LINE
  5
3c8
100
AcDbEntity
  8
0
 62
7
100
AcDbLine
 10
10.724444
 20
25.713990
 30
0.0
 11
10.772069
 21
25.749488
 31
0.0
  0
LINE
  5
3c9
100
AcDbEntity
  8
0
 62
7
100
AcDbLine
 10
10.772069
 20
25.749488
 30
0.0
 11
10.809111
 21
25.791601
 31
0.0
  0
LINE
  5
3ca
100
AcDbEntity
  8
0
 62
7
100
AcDbLine
 10
10.809111
 20
25.791601
 30
0.0
 11
10.835569
 21
25.839006
 31
0.0
  0
LINE
  5
3cb
100
AcDbEntity
  8
0
 62
7
100
AcDbLine
 10
10.835569
 20
25.839006
 30
0.0
 11
10.851444
 21
25.890379
 31
0.0
  0
LINE
  5
3cc
100
AcDbEntity
  8
0
 62
7
100
AcDbLine
 10
10.851444
 20
25.890379
 30
0.0
 11
10.856736
 21
25.944398
 31
0.0
  0
LINE
  5
3cd
100
AcDbEntity
  8
0
 62
7
100
AcDbLine
 10
10.856736
 20
25.944398
 30
0.0
 11
10.851444
 21
25.999740
 31
0.0
  0
LINE
  5
3ce
100
AcDbEntity
  8
0
 62
7
100
AcDbLine
 10
10.851444
 20
25.999740
 30
0.0
 11
10.835569
 21
26.055082
 31
0.0
  0
LINE
  5
3cf
100
AcDbEntity
  8
0
 62
7
100
AcDbLine
 10
10.835569
 20
26.055082
 30
0.0
 11
10.809111
 21
26.109101
 31
0.0
  0
LINE
  5
3d0
100
AcDbEntity
  8
0
 62
7
100
AcDbLine
 10
10.809111
 20
26.109101
 30
0.0
 11
10.536039
 21
26.468604
 31
0.0
  0
LINE
  5
3d1
100
AcDbEntity
  8
0
 62
7
100
AcDbLine
 10
10.536039
 20
26.468604
 30
0.0
 11
10.227910
 21
26.783788
 31
0.0
  0
LINE
  5
3d2
100
AcDbEntity
  8
0
 62
7
100
AcDbLine
 10
10.227910
 20
26.783788
 30
0.0
 11
9.889353
 21
27.052671
 31
0.0
  0
LINE
  5
3d3
100
AcDbEntity
  8
0
 62
7
100
AcDbLine
 10
9.889353
 20
27.052671
 30
0.0
 11
9.525000
 21
27.273268
 31
0.0
  0
LINE
  5
3d4
100
AcDbEntity
  8
0
 62
7
100
AcDbLine
 10
9.525000
 20
27.273268
 30
0.0
 11
9.139480
 21
27.443593
 31
0.0
  0
LINE
  5
3d5
100
AcDbEntity
  8
0
 62
7
100
AcDbLine
 10
9.139480
 20
27.443593
 30
0.0
 11
8.737424
 21
27.561663
 31
0.0
  0
LINE
  5
3d6
100
AcDbEntity
  8
0
 62
7
100
AcDbLine
 10
8.737424
 20
27.561663
 30
0.0
 11
8.323461
 21
27.625494
 31
0.0
  0
LINE
  5
3d7
100
AcDbEntity
  8
0
 62
7
100
AcDbLine
 10
8.323461
 20
27.625494
 30
0.0
 11
7.902222
 21
27.633101
 31
0.0
  0
LINE
  5
3d8
100
AcDbEntity
  8
0
 62
7
100
AcDbLine
 10
7.902222
 20
27.633101
 30
0.0
 11
8.315083
 21
27.639826
 31
0.0
  0
LINE
  5
3d9
100
AcDbEntity
  8
0
 62
7
100
AcDbLine
 10
8.315083
 20
27.639826
 30
0.0
 11
8.723313
 21
27.618108
 31
0.0
  0
LINE
  5
3da
100
AcDbEntity
  8
0
 62
7
100
AcDbLine
 10
8.723313
 20
27.618108
 30
0.0
 11
9.119636
 21
27.568609
 31
0.0
  0
LINE
  5
3db
100
AcDbEntity
  8
0
 62
7
100
AcDbLine
 10
9.119636
 20
27.568609
 30
0.0
 11
9.496778
 21
27.491990
 31
0.0
  0
LINE
  5
3dc
100
AcDbEntity
  8
0
 62
7
100
AcDbLine
 10
9.496778
 20
27.491990
 30
0.0
 11
9.847461
 21
27.388913
 31
0.0
  0
LINE
  5
3dd
100
AcDbEntity
  8
0
 62
7
100
AcDbLine
 10
9.847461
 20
27.388913
 30
0.0
 11
10.164410
 21
27.260038
 31
0.0
  0
LINE
  5
3de
100
AcDbEntity
  8
0
 62
7
100
AcDbLine
 10
10.164410
 20
27.260038
 30
0.0
 11
10.440348
 21
27.106029
 31
0.0
  0
LINE
  5
3df
100
AcDbEntity
  8
0
 62
7
100
AcDbLine
 10
10.440348
 20
27.106029
 30
0.0
 11
10.668000
 21
26.927545
 31
0.0
  0
LINE
  5
3e0
100
AcDbEntity
  8
0
 62
7
100
AcDbLine
 10
10.668000
 20
26.927545
 30
0.0
 11
10.765785
 21
26.820334
 31
0.0
  0
LINE
  5
3e1
100
AcDbEntity
  8
0
 62
7
100
AcDbLine
 10
10.765785
 20
26.820334
 30
0.0
 11
10.847035
 21
26.710146
 31
0.0
  0
LINE
  5
3e2
100
AcDbEntity
  8
0
 62
7
100
AcDbLine
 10
10.847035
 20
26.710146
 30
0.0
 11
10.911086
 21
26.596651
 31
0.0
  0
LINE
  5
3e3
100
AcDbEntity
  8
0
 62
7
100
AcDbLine
 10
10.911086
 20
26.596651
 30
0.0
 11
10.957278
 21
26.479518
 31
0.0
  0
LINE
  5
3e4
100
AcDbEntity
  8
0
 62
7
100
AcDbLine
 10
10.957278
 20
26.479518
 30
0.0
 11
10.984950
 21
26.358416
 31
0.0
  0
LINE
  5
3e5
100
AcDbEntity
  8
0
 62
7
100
AcDbLine
 10
10.984950
 20
26.358416
 30
0.0
 11
10.993439
 21
26.233014
 31
0.0
  0
LINE
  5
3e6
100
AcDbEntity
  8
0
 62
7
100
AcDbLine
 10
10.993439
 20
26.233014
 30
0.0
 11
10.982085
 21
26.102982
 31
0.0
  0
LINE
  5
3e7
100
AcDbEntity
  8
0
 62
7
100
AcDbLine
 10
10.982085
 20
26.102982
 30
0.0
 11
10.950222
 21
25.967990
 31
0.0
  0
LINE
  5
3e8
100
AcDbEntity
  8
0
 62
7
100
AcDbLine
 10
10.950222
 20
25.967990
 30
0.0
 11
10.944820
 21
25.914081
 31
0.0
  0
LINE
  5
3e9
100
AcDbEntity
  8
0
 62
7
100
AcDbLine
 10
10.944820
 20
25.914081
 30
0.0
 11
10.949340
 21
25.859511
 31
0.0
  0
LINE
  5
3ea
100
AcDbEntity
  8
0
 62
7
100
AcDbLine
 10
10.949340
 20
25.859511
 30
0.0
 11
10.963121
 21
25.806263
 31
0.0
  0
LINE
  5
3eb
100
AcDbEntity
  8
0
 62
7
100
AcDbLine
 10
10.963121
 20
25.806263
 30
0.0
 11
10.985500
 21
25.756323
 31
0.0
  0
LINE
  5
3ec
100
AcDbEntity
  8
0
 62
7
100
AcDbLine
 10
10.985500
 20
25.756323
 30
0.0
 11
11.015817
 21
25.711675
 31
0.0
  0
LINE
  5
3ed
100
AcDbEntity
  8
0
 62
7
100
AcDbLine
 10
11.015817
 20
25.711675
 30
0.0
 11
11.053410
 21
25.674302
 31
0.0
  0
LINE
  5
3ee
100
AcDbEntity
  8
0
 62
7
100
AcDbLine
 10
11.053410
 20
25.674302
 30
0.0
 11
11.097617
 21
25.646190
 31
0.0
  0
LINE
  5
3ef
100
AcDbEntity
  8
0
 62
7
100
AcDbLine
 10
11.097617
 20
25.646190
 30
0.0
 11
11.147778
 21
25.629323
 31
0.0
  0
LINE
  5
3f0
100
AcDbEntity
  8
0
 62
7
100
AcDbLine
 10
11.147778
 20
25.629323
 30
0.0
 11
11.158361
 21
25.629323
 31
0.0
  0
LINE
  5
3f1
100
AcDbEntity
  8
0
 62
7
100
AcDbLine
 10
11.158361
 20
25.629323
 30
0.0
 11
11.168944
 21
25.629323
 31
0.0
  0
LINE
  5
3f2
100
AcDbEntity
  8
0
 62
7
100
AcDbLine
 10
11.168944
 20
25.629323
 30
0.0
 11
11.179528
 21
25.629323
 31
0.0
  0
LINE
  5
3f3
100
AcDbEntity
  8
0
 62
7
100
AcDbLine
 10
11.179528
 20
25.629323
 30
0.0
 11
11.190111
 21
25.629323
 31
0.0
  0
LINE
  5
3f4
100
AcDbEntity
  8
0
 62
7
100
AcDbLine
 10
11.190111
 20
25.629323
 30
0.0
 11
11.200694
 21
25.629323
 31
0.0
  0
LINE
  5
3f5
100
AcDbEntity
  8
0
 62
7
100
AcDbLine
 10
11.200694
 20
25.629323
 30
0.0
 11
11.211278
 21
25.629323
 31
0.0
  0
LINE
  5
3f6
100
AcDbEntity
  8
0
 62
7
100
AcDbLine
 10
11.211278
 20
25.629323
 30
0.0
 11
11.221861
 21
25.629323
 31
0.0
  0
LINE
  5
3f7
100
AcDbEntity
  8
0
 62
7
100
AcDbLine
 10
11.221861
 20
25.629323
 30
0.0
 11
11.232444
 21
25.629323
 31
0.0
  0
LINE
  5
3f8
100
AcDbEntity
  8
0
 62
7
100
AcDbLine
 10
11.232444
 20
25.629323
 30
0.0
 11
11.274667
 21
25.633182
 31
0.0
  0
LINE
  5
3f9
100
AcDbEntity
  8
0
 62
7
100
AcDbLine
 10
11.274667
 20
25.633182
 30
0.0
 11
11.316229
 21
25.644316
 31
0.0
  0
LINE
  5
3fa
100
AcDbEntity
  8
0
 62
7
100
AcDbLine
 10
11.316229
 20
25.644316
 30
0.0
 11
11.356468
 21
25.662066
 31
0.0
  0
LINE
  5
3fb
100
AcDbEntity
  8
0
 62
7
100
AcDbLine
 10
11.356468
 20
25.662066
 30
0.0
 11
11.394722
 21
25.685768
 31
0.0
  0
LINE
  5
3fc
100
AcDbEntity
  8
0
 62
7
100
AcDbLine
 10
11.394722
 20
25.685768
 30
0.0
 11
11.430331
 21
25.714762
 31
0.0
  0
LINE
  5
3fd
100
AcDbEntity
  8
0
 62
7
100
AcDbLine
 10
11.430331
 20
25.714762
 30
0.0
 11
11.462632
 21
25.748386
 31
0.0
  0
LINE
  5
3fe
100
AcDbEntity
  8
0
 62
7
100
AcDbLine
 10
11.462632
 20
25.748386
 30
0.0
 11
11.490965
 21
25.785979
 31
0.0
  0
LINE
  5
3ff
100
AcDbEntity
  8
0
 62
7
100
AcDbLine
 10
11.490965
 20
25.785979
 30
0.0
 11
11.514667
 21
25.826879
 31
0.0
  0
LINE
  5
400
100
AcDbEntity
  8
0
 62
7
100
AcDbLine
 10
11.514667
 20
25.826879
 30
0.0
 11
11.554299
 21
26.037002
 31
0.0
  0
LINE
  5
401
100
AcDbEntity
  8
0
 62
7
100
AcDbLine
 10
11.554299
 20
26.037002
 30
0.0
 11
11.567142
 21
26.243157
 31
0.0
  0
LINE
  5
402
100
AcDbEntity
  8
0
 62
7
100
AcDbLine
 10
11.567142
 20
26.243157
 30
0.0
 11
11.552866
 21
26.444019
 31
0.0
  0
LINE
  5
403
100
AcDbEntity
  8
0
 62
7
100
AcDbLine
 10
11.552866
 20
26.444019
 30
0.0
 11
11.511139
 21
26.638268
 31
0.0
  0
LINE
  5
404
100
AcDbEntity
  8
0
 62
7
100
AcDbLine
 10
11.511139
 20
26.638268
 30
0.0
 11
11.441631
 21
26.824578
 31
0.0
  0
LINE
  5
405
100
AcDbEntity
  8
0
 62
7
100
AcDbLine
 10
11.441631
 20
26.824578
 30
0.0
 11
11.344010
 21
27.001629
 31
0.0
  0
LINE
  5
406
100
AcDbEntity
  8
0
 62
7
100
AcDbLine
 10
11.344010
 20
27.001629
 30
0.0
 11
11.217948
 21
27.168096
 31
0.0
  0
LINE
  5
407
100
AcDbEntity
  8
0
 62
7
100
AcDbLine
 10
11.217948
 20
27.168096
 30
0.0
 11
11.063111
 21
27.322657
 31
0.0
  0
LINE
  5
408
100
AcDbEntity
  8
0
 62
7
100
AcDbLine
 10
11.063111
 20
27.322657
 30
0.0
 11
10.681560
 21
27.630621
 31
0.0
  0
LINE
  5
409
100
AcDbEntity
  8
0
 62
7
100
AcDbLine
 10
10.681560
 20
27.630621
 30
0.0
 11
10.206743
 21
27.876077
 31
0.0
  0
LINE
  5
40a
100
AcDbEntity
  8
0
 62
7
100
AcDbLine
 10
10.206743
 20
27.876077
 30
0.0
 11
9.659166
 21
28.057371
 31
0.0
  0
LINE
  5
40b
100
AcDbEntity
  8
0
 62
7
100
AcDbLine
 10
9.659166
 20
28.057371
 30
0.0
 11
9.059333
 21
28.172851
 31
0.0
  0
LINE
  5
40c
100
AcDbEntity
  8
0
 62
7
100
AcDbLine
 10
9.059333
 20
28.172851
 30
0.0
 11
8.427751
 21
28.220862
 31
0.0
  0
LINE
  5
40d
100
AcDbEntity
  8
0
 62
7
100
AcDbLine
 10
8.427751
 20
28.220862
 30
0.0
 11
7.784924
 21
28.199750
 31
0.0
  0
LINE
  5
40e
100
AcDbEntity
  8
0
 62
7
100
AcDbLine
 10
7.784924
 20
28.199750
 30
0.0
 11
7.151357
 21
28.107863
 31
0.0
  0
LINE
  5
40f
100
AcDbEntity
  8
0
 62
7
100
AcDbLine
 10
7.151357
 20
28.107863
 30
0.0
 11
6.547556
 21
27.943545
 31
0.0
  0
LINE
  5
410
100
AcDbEntity
  8
0
 62
7
100
AcDbLine
 10
6.547556
 20
27.943545
 30
0.0
 11
6.206298
 21
27.806017
 31
0.0
  0
LINE
  5
411
100
AcDbEntity
  8
0
 62
7
100
AcDbLine
 10
6.206298
 20
27.806017
 30
0.0
 11
5.902413
 21
27.647653
 31
0.0
  0
LINE
  5
412
100
AcDbEntity
  8
0
 62
7
100
AcDbLine
 10
5.902413
 20
27.647653
 30
0.0
 11
5.636231
 21
27.468784
 31
0.0
  0
LINE
  5
413
100
AcDbEntity
  8
0
 62
7
100
AcDbLine
 10
5.636231
 20
27.468784
 30
0.0
 11
5.408083
 21
27.269740
 31
0.0
  0
LINE
  5
414
100
AcDbEntity
  8
0
 62
7
100
AcDbLine
 10
5.408083
 20
27.269740
 30
0.0
 11
5.218300
 21
27.050852
 31
0.0
  0
LINE
  5
415
100
AcDbEntity
  8
0
 62
7
100
AcDbLine
 10
5.218300
 20
27.050852
 30
0.0
 11
5.067212
 21
26.812452
 31
0.0
  0
LINE
  5
416
100
AcDbEntity
  8
0
 62
7
100
AcDbLine
 10
5.067212
 20
26.812452
 30
0.0
 11
4.955150
 21
26.554869
 31
0.0
  0
LINE
  5
417
100
AcDbEntity
  8
0
 62
7
100
AcDbLine
 10
4.955150
 20
26.554869
 30
0.0
 11
4.882444
 21
26.278434
 31
0.0
  0
LINE
  5
418
100
AcDbEntity
  8
0
 62
7
100
AcDbLine
 10
4.882444
 20
26.278434
 30
0.0
 11
4.878310
 21
26.225738
 31
0.0
  0
LINE
  5
419
100
AcDbEntity
  8
0
 62
7
100
AcDbLine
 10
4.878310
 20
26.225738
 30
0.0
 11
4.886413
 21
26.174365
 31
0.0
  0
LINE
  5
41a
100
AcDbEntity
  8
0
 62
7
100
AcDbLine
 10
4.886413
 20
26.174365
 30
0.0
 11
4.905761
 21
26.125637
 31
0.0
  0
LINE
  5
41b
100
AcDbEntity
  8
0
 62
7
100
AcDbLine
 10
4.905761
 20
26.125637
 30
0.0
 11
4.935361
 21
26.080879
 31
0.0
  0
LINE
  5
41c
100
AcDbEntity
  8
0
 62
7
100
AcDbLine
 10
4.935361
 20
26.080879
 30
0.0
 11
4.974222
 21
26.041412
 31
0.0
  0
LINE
  5
41d
100
AcDbEntity
  8
0
 62
7
100
AcDbLine
 10
4.974222
 20
26.041412
 30
0.0
 11
5.021351
 21
26.008559
 31
0.0
  0
LINE
  5
41e
100
AcDbEntity
  8
0
 62
7
100
AcDbLine
 10
5.021351
 20
26.008559
 30
0.0
 11
5.075756
 21
25.983644
 31
0.0
  0
LINE
  5
41f
100
AcDbEntity
  8
0
 62
7
100
AcDbLine
 10
5.075756
 20
25.983644
 30
0.0
 11
5.136444
 21
25.967990
 31
0.0
  0
LINE
  5
420
100
AcDbEntity
  8
0
 62
7
100
AcDbLine
 10
7.563556
 20
18.799545
 30
0.0
 11
7.384741
 21
19.163513
 31
0.0
  0
LINE
  5
421
100
AcDbEntity
  8
0
 62
7
100
AcDbLine
 10
7.384741
 20
19.163513
 30
0.0
 11
7.233708
 21
19.499368
 31
0.0
  0
LINE
  5
422
100
AcDbEntity
  8
0
 62
7
100
AcDbLine
 10
7.233708
 20
19.499368
 30
0.0
 11
7.117071
 21
19.816042
 31
0.0
  0
LINE
  5
423
100
AcDbEntity
  8
0
 62
7
100
AcDbLine
 10
7.117071
 20
19.816042
 30
0.0
 11
7.041444
 21
20.122462
 31
0.0
  0
LINE
  5
424
100
AcDbEntity
  8
0
 62
7
100
AcDbLine
 10
7.041444
 20
20.122462
 30
0.0
 11
7.013443
 21
20.427560
 31
0.0
  0
LINE
  5
425
100
AcDbEntity
  8
0
 62
7
100
AcDbLine
 10
7.013443
 20
20.427560
 30
0.0
 11
7.039681
 21
20.740264
 31
0.0
  0
LINE
  5
426
100
AcDbEntity
  8
0
 62
7
100
AcDbLine
 10
7.039681
 20
20.740264
 30
0.0
 11
7.126773
 21
21.069505
 31
0.0
  0
LINE
  5
427
100
AcDbEntity
  8
0
 62
7
100
AcDbLine
 10
7.126773
 20
21.069505
 30
0.0
 11
7.281333
 21
21.424212
 31
0.0
  0
LINE
  5
428
100
AcDbEntity
  8
0
 62
7
100
AcDbLine
 10
7.281333
 20
21.424212
 30
0.0
 11
7.293184
 21
21.455962
 31
0.0
  0
LINE
  5
429
100
AcDbEntity
  8
0
 62
7
100
AcDbLine
 10
7.293184
 20
21.455962
 30
0.0
 11
7.307349
 21
21.487712
 31
0.0
  0
LINE
  5
42a
100
AcDbEntity
  8
0
 62
7
100
AcDbLine
 10
7.307349
 20
21.487712
 30
0.0
 11
7.323500
 21
21.519462
 31
0.0
  0
LINE
  5
42b
100
AcDbEntity
  8
0
 62
7
100
AcDbLine
 10
7.323500
 20
21.519462
 30
0.0
 11
7.341306
 21
21.551212
 31
0.0
  0
LINE
  5
42c
100
AcDbEntity
  8
0
 62
7
100
AcDbLine
 10
7.341306
 20
21.551212
 30
0.0
 11
7.360432
 21
21.582962
 31
0.0
  0
LINE
  5
42d
100
AcDbEntity
  8
0
 62
7
100
AcDbLine
 10
7.360432
 20
21.582962
 30
0.0
 11
7.380551
 21
21.614712
 31
0.0
  0
LINE
  5
42e
100
AcDbEntity
  8
0
 62
7
100
AcDbLine
 10
7.380551
 20
21.614712
 30
0.0
 11
7.401331
 21
21.646462
 31
0.0
  0
LINE
  5
42f
100
AcDbEntity
  8
0
 62
7
100
AcDbLine
 10
7.401331
 20
21.646462
 30
0.0
 11
7.422444
 21
21.678212
 31
0.0
  0
LINE
  5
430
100
AcDbEntity
  8
0
 62
7
100
AcDbLine
 10
7.422444
 20
21.678212
 30
0.0
 11
7.564327
 21
21.952773
 31
0.0
  0
LINE
  5
431
100
AcDbEntity
  8
0
 62
7
100
AcDbLine
 10
7.564327
 20
21.952773
 30
0.0
 11
7.705549
 21
22.244862
 31
0.0
  0
LINE
  5
432
100
AcDbEntity
  8
0
 62
7
100
AcDbLine
 10
7.705549
 20
22.244862
 30
0.0
 11
7.832218
 21
22.550841
 31
0.0
  0
LINE
  5
433
100
AcDbEntity
  8
0
 62
7
100
AcDbLine
 10
7.832218
 20
22.550841
 30
0.0
 11
7.930444
 21
22.867073
 31
0.0
  0
LINE
  5
434
100
AcDbEntity
  8
0
 62
7
100
AcDbLine
 10
7.930444
 20
22.867073
 30
0.0
 11
7.986338
 21
23.189920
 31
0.0
  0
LINE
  5
435
100
AcDbEntity
  8
0
 62
7
100
AcDbLine
 10
7.986338
 20
23.189920
 30
0.0
 11
7.986007
 21
23.515743
 31
0.0
  0
LINE
  5
436
100
AcDbEntity
  8
0
 62
7
100
AcDbLine
 10
7.986007
 20
23.515743
 30
0.0
 11
7.915562
 21
23.840905
 31
0.0
  0
LINE
  5
437
100
AcDbEntity
  8
0
 62
7
100
AcDbLine
 10
7.915562
 20
23.840905
 30
0.0
 11
7.761111
 21
24.161768
 31
0.0
  0
LINE
  5
438
100
AcDbEntity
  8
0
 62
7
100
AcDbLine
 10
7.761111
 20
24.161768
 30
0.0
 11
7.664814
 21
24.294555
 31
0.0
  0
LINE
  5
439
100
AcDbEntity
  8
0
 62
7
100
AcDbLine
 10
7.664814
 20
24.294555
 30
0.0
 11
7.567524
 21
24.398570
 31
0.0
  0
LINE
  5
43a
100
AcDbEntity
  8
0
 62
7
100
AcDbLine
 10
7.567524
 20
24.398570
 30
0.0
 11
7.470896
 21
24.476787
 31
0.0
  0
LINE
  5
43b
100
AcDbEntity
  8
0
 62
7
100
AcDbLine
 10
7.470896
 20
24.476787
 30
0.0
 11
7.376583
 21
24.532184
 31
0.0
  0
LINE
  5
43c
100
AcDbEntity
  8
0
 62
7
100
AcDbLine
 10
7.376583
 20
24.532184
 30
0.0
 11
7.286239
 21
24.567738
 31
0.0
  0
LINE
  5
43d
100
AcDbEntity
  8
0
 62
7
100
AcDbLine
 10
7.286239
 20
24.567738
 30
0.0
 11
7.201517
 21
24.586424
 31
0.0
  0
LINE
  5
43e
100
AcDbEntity
  8
0
 62
7
100
AcDbLine
 10
7.201517
 20
24.586424
 30
0.0
 11
7.124071
 21
24.591220
 31
0.0
  0
LINE
  5
43f
100
AcDbEntity
  8
0
 62
7
100
AcDbLine
 10
7.124071
 20
24.591220
 30
0.0
 11
7.055556
 21
24.585101
 31
0.0
  0
LINE
  5
440
100
AcDbEntity
  8
0
 62
7
100
AcDbLine
 10
7.055556
 20
24.585101
 30
0.0
 11
6.800563
 21
24.501812
 31
0.0
  0
LINE
  5
441
100
AcDbEntity
  8
0
 62
7
100
AcDbLine
 10
6.800563
 20
24.501812
 30
0.0
 11
6.566076
 21
24.331542
 31
0.0
  0
LINE
  5
442
100
AcDbEntity
  8
0
 62
7
100
AcDbLine
 10
6.566076
 20
24.331542
 30
0.0
 11
6.354079
 21
24.098433
 31
0.0
  0
LINE
  5
443
100
AcDbEntity
  8
0
 62
7
100
AcDbLine
 10
6.354079
 20
24.098433
 30
0.0
 11
6.166556
 21
23.826629
 31
0.0
  0
LINE
  5
444
100
AcDbEntity
  8
0
 62
7
100
AcDbLine
 10
6.166556
 20
23.826629
 30
0.0
 11
6.005490
 21
23.540273
 31
0.0
  0
LINE
  5
445
100
AcDbEntity
  8
0
 62
7
100
AcDbLine
 10
6.005490
 20
23.540273
 30
0.0
 11
5.872868
 21
23.263507
 31
0.0
  0
LINE
  5
446
100
AcDbEntity
  8
0
 62
7
100
AcDbLine
 10
5.872868
 20
23.263507
 30
0.0
 11
5.770673
 21
23.020477
 31
0.0
  0
LINE
  5
447
100
AcDbEntity
  8
0
 62
7
100
AcDbLine
 10
5.770673
 20
23.020477
 30
0.0
 11
5.700889
 21
22.835323
 31
0.0
  0
LINE
  5
448
100
AcDbEntity
  8
0
 62
7
100
AcDbLine
 10
5.700889
 20
22.835323
 30
0.0
 11
5.686171
 21
22.781359
 31
0.0
  0
LINE
  5
449
100
AcDbEntity
  8
0
 62
7
100
AcDbLine
 10
5.686171
 20
22.781359
 30
0.0
 11
5.683687
 21
22.726403
 31
0.0
  0
LINE
  5
44a
100
AcDbEntity
  8
0
 62
7
100
AcDbLine
 10
5.683687
 20
22.726403
 30
0.0
 11
5.692453
 21
22.672108
 31
0.0
  0
LINE
  5
44b
100
AcDbEntity
  8
0
 62
7
100
AcDbLine
 10
5.692453
 20
22.672108
 30
0.0
 11
5.711469
 21
22.620129
 31
0.0
  0
LINE
  5
44c
100
AcDbEntity
  8
0
 62
7
100
AcDbLine
 10
5.711469
 20
22.620129
 30
0.0
 11
5.739747
 21
22.572118
 31
0.0
  0
LINE
  5
44d
100
AcDbEntity
  8
0
 62
7
100
AcDbLine
 10
5.739747
 20
22.572118
 30
0.0
 11
5.776292
 21
22.529730
 31
0.0
  0
LINE
  5
44e
100
AcDbEntity
  8
0
 62
7
100
AcDbLine
 10
5.776292
 20
22.529730
 30
0.0
 11
5.820114
 21
22.494617
 31
0.0
  0
LINE
  5
44f
100
AcDbEntity
  8
0
 62
7
100
AcDbLine
 10
5.820114
 20
22.494617
 30
0.0
 11
5.870222
 21
22.468434
 31
0.0
  0
LINE
  5
450
100
AcDbEntity
  8
0
 62
7
100
AcDbLine
 10
5.870222
 20
22.468434
 30
0.0
 11
5.924186
 21
22.453716
 31
0.0
  0
LINE
  5
451
100
AcDbEntity
  8
0
 62
7
100
AcDbLine
 10
5.924186
 20
22.453716
 30
0.0
 11
5.979142
 21
22.451233
 31
0.0
  0
LINE
  5
452
100
AcDbEntity
  8
0
 62
7
100
AcDbLine
 10
5.979142
 20
22.451233
 30
0.0
 11
6.033437
 21
22.459996
 31
0.0
  0
LINE
  5
453
100
AcDbEntity
  8
0
 62
7
100
AcDbLine
 10
6.033437
 20
22.459996
 30
0.0
 11
6.085417
 21
22.479012
 31
0.0
  0
LINE
  5
454
100
AcDbEntity
  8
0
 62
7
100
AcDbLine
 10
6.085417
 20
22.479012
 30
0.0
 11
6.133427
 21
22.507289
 31
0.0
  0
LINE
  5
455
100
AcDbEntity
  8
0
 62
7
100
AcDbLine
 10
6.133427
 20
22.507289
 30
0.0
 11
6.175816
 21
22.543835
 31
0.0
  0
LINE
  5
456
100
AcDbEntity
  8
0
 62
7
100
AcDbLine
 10
6.175816
 20
22.543835
 30
0.0
 11
6.210929
 21
22.587657
 31
0.0
  0
LINE
  5
457
100
AcDbEntity
  8
0
 62
7
100
AcDbLine
 10
6.210929
 20
22.587657
 30
0.0
 11
6.237111
 21
22.637768
 31
0.0
  0
LINE
  5
458
100
AcDbEntity
  8
0
 62
7
100
AcDbLine
 10
6.237111
 20
22.637768
 30
0.0
 11
6.339582
 21
22.898603
 31
0.0
  0
LINE
  5
459
100
AcDbEntity
  8
0
 62
7
100
AcDbLine
 10
6.339582
 20
22.898603
 30
0.0
 11
6.453628
 21
23.147532
 31
0.0
  0
LINE
  5
45a
100
AcDbEntity
  8
0
 62
7
100
AcDbLine
 10
6.453628
 20
23.147532
 30
0.0
 11
6.574951
 21
23.377939
 31
0.0
  0
LINE
  5
45b
100
AcDbEntity
  8
0
 62
7
100
AcDbLine
 10
6.574951
 20
23.377939
 30
0.0
 11
6.699250
 21
23.583212
 31
0.0
  0
LINE
  5
45c
100
AcDbEntity
  8
0
 62
7
100
AcDbLine
 10
6.699250
 20
23.583212
 30
0.0
 11
6.822226
 21
23.756735
 31
0.0
  0
LINE
  5
45d
100
AcDbEntity
  8
0
 62
7
100
AcDbLine
 10
6.822226
 20
23.756735
 30
0.0
 11
6.939580
 21
23.891893
 31
0.0
  0
LINE
  5
45e
100
AcDbEntity
  8
0
 62
7
100
AcDbLine
 10
6.939580
 20
23.891893
 30
0.0
 11
7.047012
 21
23.982071
 31
0.0
  0
LINE
  5
45f
100
AcDbEntity
  8
0
 62
7
100
AcDbLine
 10
7.047012
 20
23.982071
 30
0.0
 11
7.140222
 21
24.020657
 31
0.0
  0
LINE
  5
460
100
AcDbEntity
  8
0
 62
7
100
AcDbLine
 10
7.140222
 20
24.020657
 30
0.0
 11
7.153286
 21
24.018004
 31
0.0
  0
LINE
  5
461
100
AcDbEntity
  8
0
 62
7
100
AcDbLine
 10
7.153286
 20
24.018004
 30
0.0
 11
7.170649
 21
24.010068
 31
0.0
  0
LINE
  5
462
100
AcDbEntity
  8
0
 62
7
100
AcDbLine
 10
7.170649
 20
24.010068
 30
0.0
 11
7.191319
 21
23.996840
 31
0.0
  0
LINE
  5
463
100
AcDbEntity
  8
0
 62
7
100
AcDbLine
 10
7.191319
 20
23.996840
 30
0.0
 11
7.214303
 21
23.978318
 31
0.0
  0
LINE
  5
464
100
AcDbEntity
  8
0
 62
7
100
AcDbLine
 10
7.214303
 20
23.978318
 30
0.0
 11
7.238611
 21
23.954506
 31
0.0
  0
LINE
  5
465
100
AcDbEntity
  8
0
 62
7
100
AcDbLine
 10
7.238611
 20
23.954506
 30
0.0
 11
7.263249
 21
23.925402
 31
0.0
  0
LINE
  5
466
100
AcDbEntity
  8
0
 62
7
100
AcDbLine
 10
7.263249
 20
23.925402
 30
0.0
 11
7.287226
 21
23.891006
 31
0.0
  0
LINE
  5
467
100
AcDbEntity
  8
0
 62
7
100
AcDbLine
 10
7.287226
 20
23.891006
 30
0.0
 11
7.309556
 21
23.851323
 31
0.0
  0
LINE
  5
468
100
AcDbEntity
  8
0
 62
7
100
AcDbLine
 10
7.309556
 20
23.851323
 30
0.0
 11
7.403758
 21
23.632270
 31
0.0
  0
LINE
  5
469
100
AcDbEntity
  8
0
 62
7
100
AcDbLine
 10
7.403758
 20
23.632270
 30
0.0
 11
7.438761
 21
23.400650
 31
0.0
  0
LINE
  5
46a
100
AcDbEntity
  8
0
 62
7
100
AcDbLine
 10
7.438761
 20
23.400650
 30
0.0
 11
7.424153
 21
23.159768
 31
0.0
  0
LINE
  5
46b
100
AcDbEntity
  8
0
 62
7
100
AcDbLine
 10
7.424153
 20
23.159768
 30
0.0
 11
7.369528
 21
22.912934
 31
0.0
  0
LINE
  5
46c
100
AcDbEntity
  8
0
 62
7
100
AcDbLine
 10
7.369528
 20
22.912934
 30
0.0
 11
7.284475
 21
22.663454
 31
0.0
  0
LINE
  5
46d
100
AcDbEntity
  8
0
 62
7
100
AcDbLine
 10
7.284475
 20
22.663454
 30
0.0
 11
7.178587
 21
22.414636
 31
0.0
  0
LINE
  5
46e
100
AcDbEntity
  8
0
 62
7
100
AcDbLine
 10
7.178587
 20
22.414636
 30
0.0
 11
7.061453
 21
22.169786
 31
0.0
  0
LINE
  5
46f
100
AcDbEntity
  8
0
 62
7
100
AcDbLine
 10
7.061453
 20
22.169786
 30
0.0
 11
6.942667
 21
21.932212
 31
0.0
  0
LINE
  5
470
100
AcDbEntity
  8
0
 62
7
100
AcDbLine
 10
6.942667
 20
21.932212
 30
0.0
 11
6.922714
 21
21.900462
 31
0.0
  0
LINE
  5
471
100
AcDbEntity
  8
0
 62
7
100
AcDbLine
 10
6.922714
 20
21.900462
 30
0.0
 11
6.904744
 21
21.868712
 31
0.0
  0
LINE
  5
472
100
AcDbEntity
  8
0
 62
7
100
AcDbLine
 10
6.904744
 20
21.868712
 30
0.0
 11
6.888099
 21
21.836962
 31
0.0
  0
LINE
  5
473
100
AcDbEntity
  8
0
 62
7
100
AcDbLine
 10
6.888099
 20
21.836962
 30
0.0
 11
6.872114
 21
21.805212
 31
0.0
  0
LINE
  5
474
100
AcDbEntity
  8
0
 62
7
100
AcDbLine
 10
6.872114
 20
21.805212
 30
0.0
 11
6.856129
 21
21.773462
 31
0.0
  0
LINE
  5
475
100
AcDbEntity
  8
0
 62
7
100
AcDbLine
 10
6.856129
 20
21.773462
 30
0.0
 11
6.839483
 21
21.741712
 31
0.0
  0
LINE
  5
476
100
AcDbEntity
  8
0
 62
7
100
AcDbLine
 10
6.839483
 20
21.741712
 30
0.0
 11
6.821514
 21
21.709962
 31
0.0
  0
LINE
  5
477
100
AcDbEntity
  8
0
 62
7
100
AcDbLine
 10
6.821514
 20
21.709962
 30
0.0
 11
6.801556
 21
21.678212
 31
0.0
  0
LINE
  5
478
100
AcDbEntity
  8
0
 62
7
100
AcDbLine
 10
6.801556
 20
21.678212
 30
0.0
 11
6.614583
 21
21.229909
 31
0.0
  0
LINE
  5
479
100
AcDbEntity
  8
0
 62
7
100
AcDbLine
 10
6.614583
 20
21.229909
 30
0.0
 11
6.512278
 21
20.811702
 31
0.0
  0
LINE
  5
47a
100
AcDbEntity
  8
0
 62
7
100
AcDbLine
 10
6.512278
 20
20.811702
 30
0.0
 11
6.484056
 21
20.416646
 31
0.0
  0
LINE
  5
47b
100
AcDbEntity
  8
0
 62
7
100
AcDbLine
 10
6.484056
 20
20.416646
 30
0.0
 11
6.519333
 21
20.037795
 31
0.0
  0
LINE
  5
47c
100
AcDbEntity
  8
0
 62
7
100
AcDbLine
 10
6.519333
 20
20.037795
 30
0.0
 11
6.607528
 21
19.668206
 31
0.0
  0
LINE
  5
47d
100
AcDbEntity
  8
0
 62
7
100
AcDbLine
 10
6.607528
 20
19.668206
 30
0.0
 11
6.738056
 21
19.300931
 31
0.0
  0
LINE
  5
47e
100
AcDbEntity
  8
0
 62
7
100
AcDbLine
 10
6.738056
 20
19.300931
 30
0.0
 11
6.900333
 21
18.929026
 31
0.0
  0
LINE
  5
47f
100
AcDbEntity
  8
0
 62
7
100
AcDbLine
 10
6.900333
 20
18.929026
 30
0.0
 11
7.083778
 21
18.545545
 31
0.0
  0
LINE
  5
480
100
AcDbEntity
  8
0
 62
7
100
AcDbLine
 10
7.083778
 20
18.545545
 30
0.0
 11
7.087306
 21
18.534962
 31
0.0
  0
LINE
  5
481
100
AcDbEntity
  8
0
 62
7
100
AcDbLine
 10
7.087306
 20
18.534962
 30
0.0
 11
7.090833
 21
18.524379
 31
0.0
  0
LINE
  5
482
100
AcDbEntity
  8
0
 62
7
100
AcDbLine
 10
7.090833
 20
18.524379
 30
0.0
 11
7.094361
 21
18.513795
 31
0.0
  0
LINE
  5
483
100
AcDbEntity
  8
0
 62
7
100
AcDbLine
 10
7.094361
 20
18.513795
 30
0.0
 11
7.097889
 21
18.503212
 31
0.0
  0
LINE
  5
484
100
AcDbEntity
  8
0
 62
7
100
AcDbLine
 10
7.097889
 20
18.503212
 30
0.0
 11
7.101417
 21
18.492629
 31
0.0
  0
LINE
  5
485
100
AcDbEntity
  8
0
 62
7
100
AcDbLine
 10
7.101417
 20
18.492629
 30
0.0
 11
7.104944
 21
18.482045
 31
0.0
  0
LINE
  5
486
100
AcDbEntity
  8
0
 62
7
100
AcDbLine
 10
7.104944
 20
18.482045
 30
0.0
 11
7.108472
 21
18.471462
 31
0.0
  0
LINE
  5
487
100
AcDbEntity
  8
0
 62
7
100
AcDbLine
 10
7.108472
 20
18.471462
 30
0.0
 11
7.112000
 21
18.460879
 31
0.0
  0
LINE
  5
488
100
AcDbEntity
  8
0
 62
7
100
AcDbLine
 10
7.112000
 20
18.460879
 30
0.0
 11
7.134490
 21
18.421191
 31
0.0
  0
LINE
  5
489
100
AcDbEntity
  8
0
 62
7
100
AcDbLine
 10
7.134490
 20
18.421191
 30
0.0
 11
7.159625
 21
18.386795
 31
0.0
  0
LINE
  5
48a
100
AcDbEntity
  8
0
 62
7
100
AcDbLine
 10
7.159625
 20
18.386795
 30
0.0
 11
7.187407
 21
18.357691
 31
0.0
  0
LINE
  5
48b
100
AcDbEntity
  8
0
 62
7
100
AcDbLine
 10
7.187407
 20
18.357691
 30
0.0
 11
7.217834
 21
18.333880
 31
0.0
  0
LINE
  5
48c
100
AcDbEntity
  8
0
 62
7
100
AcDbLine
 10
7.217834
 20
18.333880
 30
0.0
 11
7.250907
 21
18.315358
 31
0.0
  0
LINE
  5
48d
100
AcDbEntity
  8
0
 62
7
100
AcDbLine
 10
7.250907
 20
18.315358
 30
0.0
 11
7.286626
 21
18.302130
 31
0.0
  0
LINE
  5
48e
100
AcDbEntity
  8
0
 62
7
100
AcDbLine
 10
7.286626
 20
18.302130
 30
0.0
 11
7.324990
 21
18.294194
 31
0.0
  0
LINE
  5
48f
100
AcDbEntity
  8
0
 62
7
100
AcDbLine
 10
7.324990
 20
18.294194
 30
0.0
 11
7.366000
 21
18.291545
 31
0.0
  0
LINE
  5
490
100
AcDbEntity
  8
0
 62
7
100
AcDbLine
 10
7.366000
 20
18.291545
 30
0.0
 11
7.377797
 21
18.291600
 31
0.0
  0
LINE
  5
491
100
AcDbEntity
  8
0
 62
7
100
AcDbLine
 10
7.377797
 20
18.291600
 30
0.0
 11
7.391578
 21
18.291996
 31
0.0
  0
LINE
  5
492
100
AcDbEntity
  8
0
 62
7
100
AcDbLine
 10
7.391578
 20
18.291996
 30
0.0
 11
7.406682
 21
18.293040
 31
0.0
  0
LINE
  5
493
100
AcDbEntity
  8
0
 62
7
100
AcDbLine
 10
7.406682
 20
18.293040
 30
0.0
 11
7.422447
 21
18.295072
 31
0.0
  0
LINE
  5
494
100
AcDbEntity
  8
0
 62
7
100
AcDbLine
 10
7.422447
 20
18.295072
 30
0.0
 11
7.438212
 21
18.298433
 31
0.0
  0
LINE
  5
495
100
AcDbEntity
  8
0
 62
7
100
AcDbLine
 10
7.438212
 20
18.298433
 30
0.0
 11
7.453317
 21
18.303448
 31
0.0
  0
LINE
  5
496
100
AcDbEntity
  8
0
 62
7
100
AcDbLine
 10
7.453317
 20
18.303448
 30
0.0
 11
7.467098
 21
18.310447
 31
0.0
  0
LINE
  5
497
100
AcDbEntity
  8
0
 62
7
100
AcDbLine
 10
7.467098
 20
18.310447
 30
0.0
 11
7.478889
 21
18.319768
 31
0.0
  0
LINE
  5
498
100
AcDbEntity
  8
0
 62
7
100
AcDbLine
 10
7.478889
 20
18.319768
 30
0.0
 11
7.527782
 21
18.345949
 31
0.0
  0
LINE
  5
499
100
AcDbEntity
  8
0
 62
7
100
AcDbLine
 10
7.527782
 20
18.345949
 30
0.0
 11
7.568406
 21
18.381062
 31
0.0
  0
LINE
  5
49a
100
AcDbEntity
  8
0
 62
7
100
AcDbLine
 10
7.568406
 20
18.381062
 30
0.0
 11
7.600432
 21
18.423450
 31
0.0
  0
LINE
  5
49b
100
AcDbEntity
  8
0
 62
7
100
AcDbLine
 10
7.600432
 20
18.423450
 30
0.0
 11
7.623529
 21
18.471461
 31
0.0
  0
LINE
  5
49c
100
AcDbEntity
  8
0
 62
7
100
AcDbLine
 10
7.623529
 20
18.471461
 30
0.0
 11
7.637363
 21
18.523441
 31
0.0
  0
LINE
  5
49d
100
AcDbEntity
  8
0
 62
7
100
AcDbLine
 10
7.637363
 20
18.523441
 30
0.0
 11
7.641608
 21
18.577736
 31
0.0
  0
LINE
  5
49e
100
AcDbEntity
  8
0
 62
7
100
AcDbLine
 10
7.641608
 20
18.577736
 30
0.0
 11
7.635930
 21
18.632692
 31
0.0
  0
LINE
  5
49f
100
AcDbEntity
  8
0
 62
7
100
AcDbLine
 10
7.635930
 20
18.632692
 30
0.0
 11
7.620000
 21
18.686657
 31
0.0
  0
LINE
  5
4a0
100
AcDbEntity
  8
0
 62
7
100
AcDbLine
 10
7.620000
 20
18.686657
 30
0.0
 11
7.612944
 21
18.700768
 31
0.0
  0
LINE
  5
4a1
100
AcDbEntity
  8
0
 62
7
100
AcDbLine
 10
7.612944
 20
18.700768
 30
0.0
 11
7.605889
 21
18.714879
 31
0.0
  0
LINE
  5
4a2
100
AcDbEntity
  8
0
 62
7
100
AcDbLine
 10
7.605889
 20
18.714879
 30
0.0
 11
7.598833
 21
18.728990
 31
0.0
  0
LINE
  5
4a3
100
AcDbEntity
  8
0
 62
7
100
AcDbLine
 10
7.598833
 20
18.728990
 30
0.0
 11
7.591778
 21
18.743101
 31
0.0
  0
LINE
  5
4a4
100
AcDbEntity
  8
0
 62
7
100
AcDbLine
 10
7.591778
 20
18.743101
 30
0.0
 11
7.584722
 21
18.757212
 31
0.0
  0
LINE
  5
4a5
100
AcDbEntity
  8
0
 62
7
100
AcDbLine
 10
7.584722
 20
18.757212
 30
0.0
 11
7.577667
 21
18.771323
 31
0.0
  0
LINE
  5
4a6
100
AcDbEntity
  8
0
 62
7
100
AcDbLine
 10
7.577667
 20
18.771323
 30
0.0
 11
7.570611
 21
18.785434
 31
0.0
  0
LINE
  5
4a7
100
AcDbEntity
  8
0
 62
7
100
AcDbLine
 10
7.570611
 20
18.785434
 30
0.0
 11
7.563556
 21
18.799545
 31
0.0
  0
LINE
  5
4a8
100
AcDbEntity
  8
0
 62
7
100
AcDbLine
 10
4.318000
 20
26.221990
 30
0.0
 11
3.986224
 21
26.096313
 31
0.0
  0
LINE
  5
4a9
100
AcDbEntity
  8
0
 62
7
100
AcDbLine
 10
3.986224
 20
26.096313
 30
0.0
 11
3.690497
 21
25.899198
 31
0.0
  0
LINE
  5
4aa
100
AcDbEntity
  8
0
 62
7
100
AcDbLine
 10
3.690497
 20
25.899198
 30
0.0
 11
3.432473
 21
25.646521
 31
0.0
  0
LINE
  5
4ab
100
AcDbEntity
  8
0
 62
7
100
AcDbLine
 10
3.432473
 20
25.646521
 30
0.0
 11
3.213806
 21
25.354157
 31
0.0
  0
LINE
  5
4ac
100
AcDbEntity
  8
0
 62
7
100
AcDbLine
 10
3.213806
 20
25.354157
 30
0.0
 11
3.036149
 21
25.037979
 31
0.0
  0
LINE
  5
4ad
100
AcDbEntity
  8
0
 62
7
100
AcDbLine
 10
3.036149
 20
25.037979
 30
0.0
 11
2.901156
 21
24.713865
 31
0.0
  0
LINE
  5
4ae
100
AcDbEntity
  8
0
 62
7
100
AcDbLine
 10
2.901156
 20
24.713865
 30
0.0
 11
2.810481
 21
24.397688
 31
0.0
  0
LINE
  5
4af
100
AcDbEntity
  8
0
 62
7
100
AcDbLine
 10
2.810481
 20
24.397688
 30
0.0
 11
2.765778
 21
24.105323
 31
0.0
  0
LINE
  5
4b0
100
AcDbEntity
  8
0
 62
7
100
AcDbLine
 10
2.765778
 20
24.105323
 30
0.0
 11
2.756628
 21
23.809706
 31
0.0
  0
LINE
  5
4b1
100
AcDbEntity
  8
0
 62
7
100
AcDbLine
 10
2.756628
 20
23.809706
 30
0.0
 11
2.771951
 21
23.534264
 31
0.0
  0
LINE
  5
4b2
100
AcDbEntity
  8
0
 62
7
100
AcDbLine
 10
2.771951
 20
23.534264
 30
0.0
 11
2.812411
 21
23.275358
 31
0.0
  0
LINE
  5
4b3
100
AcDbEntity
  8
0
 62
7
100
AcDbLine
 10
2.812411
 20
23.275358
 30
0.0
 11
2.878667
 21
23.029351
 31
0.0
  0
LINE
  5
4b4
100
AcDbEntity
  8
0
 62
7
100
AcDbLine
 10
2.878667
 20
23.029351
 30
0.0
 11
2.971381
 21
22.792604
 31
0.0
  0
LINE
  5
4b5
100
AcDbEntity
  8
0
 62
7
100
AcDbLine
 10
2.971381
 20
22.792604
 30
0.0
 11
3.091215
 21
22.561480
 31
0.0
  0
LINE
  5
4b6
100
AcDbEntity
  8
0
 62
7
100
AcDbLine
 10
3.091215
 20
22.561480
 30
0.0
 11
3.238831
 21
22.332339
 31
0.0
  0
LINE
  5
4b7
100
AcDbEntity
  8
0
 62
7
100
AcDbLine
 10
3.238831
 20
22.332339
 30
0.0
 11
3.414889
 21
22.101545
 31
0.0
  0
LINE
  5
4b8
100
AcDbEntity
  8
0
 62
7
100
AcDbLine
 10
3.414889
 20
22.101545
 30
0.0
 11
3.437323
 21
22.081702
 31
0.0
  0
LINE
  5
4b9
100
AcDbEntity
  8
0
 62
7
100
AcDbLine
 10
3.437323
 20
22.081702
 30
0.0
 11
3.462074
 21
22.064504
 31
0.0
  0
LINE
  5
4ba
100
AcDbEntity
  8
0
 62
7
100
AcDbLine
 10
3.462074
 20
22.064504
 30
0.0
 11
3.488809
 21
22.049952
 31
0.0
  0
LINE
  5
4bb
100
AcDbEntity
  8
0
 62
7
100
AcDbLine
 10
3.488809
 20
22.049952
 30
0.0
 11
3.517196
 21
22.038045
 31
0.0
  0
LINE
  5
4bc
100
AcDbEntity
  8
0
 62
7
100
AcDbLine
 10
3.517196
 20
22.038045
 30
0.0
 11
3.546907
 21
22.028786
 31
0.0
  0
LINE
  5
4bd
100
AcDbEntity
  8
0
 62
7
100
AcDbLine
 10
3.546907
 20
22.028786
 30
0.0
 11
3.577609
 21
22.022170
 31
0.0
  0
LINE
  5
4be
100
AcDbEntity
  8
0
 62
7
100
AcDbLine
 10
3.577609
 20
22.022170
 30
0.0
 11
3.608973
 21
22.018202
 31
0.0
  0
LINE
  5
4bf
100
AcDbEntity
  8
0
 62
7
100
AcDbLine
 10
3.608973
 20
22.018202
 30
0.0
 11
3.640667
 21
22.016879
 31
0.0
  0
LINE
  5
4c0
100
AcDbEntity
  8
0
 62
7
100
AcDbLine
 10
3.640667
 20
22.016879
 30
0.0
 11
3.663047
 21
22.018149
 31
0.0
  0
LINE
  5
4c1
100
AcDbEntity
  8
0
 62
7
100
AcDbLine
 10
3.663047
 20
22.018149
 30
0.0
 11
3.687411
 21
22.021733
 31
0.0
  0
LINE
  5
4c2
100
AcDbEntity
  8
0
 62
7
100
AcDbLine
 10
3.687411
 20
22.021733
 30
0.0
 11
3.713099
 21
22.027301
 31
0.0
  0
LINE
  5
4c3
100
AcDbEntity
  8
0
 62
7
100
AcDbLine
 10
3.713099
 20
22.027301
 30
0.0
 11
3.739447
 21
22.034523
 31
0.0
  0
LINE
  5
4c4
100
AcDbEntity
  8
0
 62
7
100
AcDbLine
 10
3.739447
 20
22.034523
 30
0.0
 11
3.765796
 21
22.043066
 31
0.0
  0
LINE
  5
4c5
100
AcDbEntity
  8
0
 62
7
100
AcDbLine
 10
3.765796
 20
22.043066
 30
0.0
 11
3.791483
 21
22.052602
 31
0.0
  0
LINE
  5
4c6
100
AcDbEntity
  8
0
 62
7
100
AcDbLine
 10
3.791483
 20
22.052602
 30
0.0
 11
3.815848
 21
22.062799
 31
0.0
  0
LINE
  5
4c7
100
AcDbEntity
  8
0
 62
7
100
AcDbLine
 10
3.815848
 20
22.062799
 30
0.0
 11
3.838222
 21
22.073323
 31
0.0
  0
LINE
  5
4c8
100
AcDbEntity
  8
0
 62
7
100
AcDbLine
 10
3.838222
 20
22.073323
 30
0.0
 11
3.876477
 21
22.118082
 31
0.0
  0
LINE
  5
4c9
100
AcDbEntity
  8
0
 62
7
100
AcDbLine
 10
3.876477
 20
22.118082
 30
0.0
 11
3.906132
 21
22.166809
 31
0.0
  0
LINE
  5
4ca
100
AcDbEntity
  8
0
 62
7
100
AcDbLine
 10
3.906132
 20
22.166809
 30
0.0
 11
3.926527
 21
22.218183
 31
0.0
  0
LINE
  5
4cb
100
AcDbEntity
  8
0
 62
7
100
AcDbLine
 10
3.926527
 20
22.218183
 30
0.0
 11
3.937000
 21
22.270879
 31
0.0
  0
LINE
  5
4cc
100
AcDbEntity
  8
0
 62
7
100
AcDbLine
 10
3.937000
 20
22.270879
 30
0.0
 11
3.936890
 21
22.323575
 31
0.0
  0
LINE
  5
4cd
100
AcDbEntity
  8
0
 62
7
100
AcDbLine
 10
3.936890
 20
22.323575
 30
0.0
 11
3.925535
 21
22.374948
 31
0.0
  0
LINE
  5
4ce
100
AcDbEntity
  8
0
 62
7
100
AcDbLine
 10
3.925535
 20
22.374948
 30
0.0
 11
3.902273
 21
22.423676
 31
0.0
  0
LINE
  5
4cf
100
AcDbEntity
  8
0
 62
7
100
AcDbLine
 10
3.902273
 20
22.423676
 30
0.0
 11
3.866444
 21
22.468434
 31
0.0
  0
LINE
  5
4d0
100
AcDbEntity
  8
0
 62
7
100
AcDbLine
 10
3.866444
 20
22.468434
 30
0.0
 11
3.720703
 21
22.655572
 31
0.0
  0
LINE
  5
4d1
100
AcDbEntity
  8
0
 62
7
100
AcDbLine
 10
3.720703
 20
22.655572
 30
0.0
 11
3.600097
 21
22.838410
 31
0.0
  0
LINE
  5
4d2
100
AcDbEntity
  8
0
 62
7
100
AcDbLine
 10
3.600097
 20
22.838410
 30
0.0
 11
3.503304
 21
23.020587
 31
0.0
  0
LINE
  5
4d3
100
AcDbEntity
  8
0
 62
7
100
AcDbLine
 10
3.503304
 20
23.020587
 30
0.0
 11
3.429000
 21
23.205740
 31
0.0
  0
LINE
  5
4d4
100
AcDbEntity
  8
0
 62
7
100
AcDbLine
 10
3.429000
 20
23.205740
 30
0.0
 11
3.375863
 21
23.397508
 31
0.0
  0
LINE
  5
4d5
100
AcDbEntity
  8
0
 62
7
100
AcDbLine
 10
3.375863
 20
23.397508
 30
0.0
 11
3.342569
 21
23.599528
 31
0.0
  0
LINE
  5
4d6
100
AcDbEntity
  8
0
 62
7
100
AcDbLine
 10
3.342569
 20
23.599528
 30
0.0
 11
3.327797
 21
23.815439
 31
0.0
  0
LINE
  5
4d7
100
AcDbEntity
  8
0
 62
7
100
AcDbLine
 10
3.327797
 20
23.815439
 30
0.0
 11
3.330222
 21
24.048879
 31
0.0
  0
LINE
  5
4d8
100
AcDbEntity
  8
0
 62
7
100
AcDbLine
 10
3.330222
 20
24.048879
 30
0.0
 11
3.369469
 21
24.273113
 31
0.0
  0
LINE
  5
4d9
100
AcDbEntity
  8
0
 62
7
100
AcDbLine
 10
3.369469
 20
24.273113
 30
0.0
 11
3.443111
 21
24.514545
 31
0.0
  0
LINE
  5
4da
100
AcDbEntity
  8
0
 62
7
100
AcDbLine
 10
3.443111
 20
24.514545
 30
0.0
 11
3.548504
 21
24.761269
 31
0.0
  0
LINE
  5
4db
100
AcDbEntity
  8
0
 62
7
100
AcDbLine
 10
3.548504
 20
24.761269
 30
0.0
 11
3.683000
 21
25.001379
 31
0.0
  0
LINE
  5
4dc
100
AcDbEntity
  8
0
 62
7
100
AcDbLine
 10
3.683000
 20
25.001379
 30
0.0
 11
3.843955
 21
25.222967
 31
0.0
  0
LINE
  5
4dd
100
AcDbEntity
  8
0
 62
7
100
AcDbLine
 10
3.843955
 20
25.222967
 30
0.0
 11
4.028722
 21
25.414129
 31
0.0
  0
LINE
  5
4de
100
AcDbEntity
  8
0
 62
7
100
AcDbLine
 10
4.028722
 20
25.414129
 30
0.0
 11
4.234656
 21
25.562957
 31
0.0
  0
LINE
  5
4df
100
AcDbEntity
  8
0
 62
7
100
AcDbLine
 10
4.234656
 20
25.562957
 30
0.0
 11
4.459111
 21
25.657545
 31
0.0
  0
LINE
  5
4e0
100
AcDbEntity
  8
0
 62
7
100
AcDbLine
 10
4.459111
 20
25.657545
 30
0.0
 11
4.510429
 21
25.674413
 31
0.0
  0
LINE
  5
4e1
100
AcDbEntity
  8
0
 62
7
100
AcDbLine
 10
4.510429
 20
25.674413
 30
0.0
 11
4.557448
 21
25.702525
 31
0.0
  0
LINE
  5
4e2
100
AcDbEntity
  8
0
 62
7
100
AcDbLine
 10
4.557448
 20
25.702525
 30
0.0
 11
4.598513
 21
25.739897
 31
0.0
  0
LINE
  5
4e3
100
AcDbEntity
  8
0
 62
7
100
AcDbLine
 10
4.598513
 20
25.739897
 30
0.0
 11
4.631972
 21
25.784545
 31
0.0
  0
LINE
  5
4e4
100
AcDbEntity
  8
0
 62
7
100
AcDbLine
 10
4.631972
 20
25.784545
 30
0.0
 11
4.656171
 21
25.834486
 31
0.0
  0
LINE
  5
4e5
100
AcDbEntity
  8
0
 62
7
100
AcDbLine
 10
4.656171
 20
25.834486
 30
0.0
 11
4.669455
 21
25.887733
 31
0.0
  0
LINE
  5
4e6
100
AcDbEntity
  8
0
 62
7
100
AcDbLine
 10
4.669455
 20
25.887733
 30
0.0
 11
4.670172
 21
25.942303
 31
0.0
  0
LINE
  5
4e7
100
AcDbEntity
  8
0
 62
7
100
AcDbLine
 10
4.670172
 20
25.942303
 30
0.0
 11
4.656667
 21
25.996212
 31
0.0
  0
LINE
  5
4e8
100
AcDbEntity
  8
0
 62
7
100
AcDbLine
 10
4.656667
 20
25.996212
 30
0.0
 11
4.639799
 21
26.055688
 31
0.0
  0
LINE
  5
4e9
100
AcDbEntity
  8
0
 62
7
100
AcDbLine
 10
4.639799
 20
26.055688
 30
0.0
 11
4.611687
 21
26.106896
 31
0.0
  0
LINE
  5
4ea
100
AcDbEntity
  8
0
 62
7
100
AcDbLine
 10
4.611687
 20
26.106896
 30
0.0
 11
4.574315
 21
26.149505
 31
0.0
  0
LINE
  5
4eb
100
AcDbEntity
  8
0
 62
7
100
AcDbLine
 10
4.574315
 20
26.149505
 30
0.0
 11
4.529667
 21
26.183184
 31
0.0
  0
LINE
  5
4ec
100
AcDbEntity
  8
0
 62
7
100
AcDbLine
 10
4.529667
 20
26.183184
 30
0.0
 11
4.479727
 21
26.207603
 31
0.0
  0
LINE
  5
4ed
100
AcDbEntity
  8
0
 62
7
100
AcDbLine
 10
4.479727
 20
26.207603
 30
0.0
 11
4.426479
 21
26.222431
 31
0.0
  0
LINE
  5
4ee
100
AcDbEntity
  8
0
 62
7
100
AcDbLine
 10
4.426479
 20
26.222431
 30
0.0
 11
4.371909
 21
26.227337
 31
0.0
  0
LINE
  5
4ef
100
AcDbEntity
  8
0
 62
7
100
AcDbLine
 10
4.371909
 20
26.227337
 30
0.0
 11
4.318000
 21
26.221990
 31
0.0
  0
LINE
  5
4f0
100
AcDbEntity
  8
0
 62
7
100
AcDbLine
 10
8.551333
 20
25.375323
 30
0.0
 11
8.604030
 21
25.380448
 31
0.0
  0
LINE
  5
4f1
100
AcDbEntity
  8
0
 62
7
100
AcDbLine
 10
8.604030
 20
25.380448
 30
0.0
 11
8.655403
 21
25.395166
 31
0.0
  0
LINE
  5
4f2
100
AcDbEntity
  8
0
 62
7
100
AcDbLine
 10
8.655403
 20
25.395166
 30
0.0
 11
8.704130
 21
25.418483
 31
0.0
  0
LINE
  5
4f3
100
AcDbEntity
  8
0
 62
7
100
AcDbLine
 10
8.704130
 20
25.418483
 30
0.0
 11
8.748889
 21
25.449407
 31
0.0
  0
LINE
  5
4f4
100
AcDbEntity
  8
0
 62
7
100
AcDbLine
 10
8.748889
 20
25.449407
 30
0.0
 11
8.788356
 21
25.486944
 31
0.0
  0
LINE
  5
4f5
100
AcDbEntity
  8
0
 62
7
100
AcDbLine
 10
8.788356
 20
25.486944
 30
0.0
 11
8.821208
 21
25.530104
 31
0.0
  0
LINE
  5
4f6
100
AcDbEntity
  8
0
 62
7
100
AcDbLine
 10
8.821208
 20
25.530104
 30
0.0
 11
8.846123
 21
25.577895
 31
0.0
  0
LINE
  5
4f7
100
AcDbEntity
  8
0
 62
7
100
AcDbLine
 10
8.846123
 20
25.577895
 30
0.0
 11
8.861778
 21
25.629323
 31
0.0
  0
LINE
  5
4f8
100
AcDbEntity
  8
0
 62
7
100
AcDbLine
 10
8.861778
 20
25.629323
 30
0.0
 11
8.856651
 21
25.690122
 31
0.0
  0
LINE
  5
4f9
100
AcDbEntity
  8
0
 62
7
100
AcDbLine
 10
8.856651
 20
25.690122
 30
0.0
 11
8.841934
 21
25.745299
 31
0.0
  0
LINE
  5
4fa
100
AcDbEntity
  8
0
 62
7
100
AcDbLine
 10
8.841934
 20
25.745299
 30
0.0
 11
8.818618
 21
25.794522
 31
0.0
  0
LINE
  5
4fb
100
AcDbEntity
  8
0
 62
7
100
AcDbLine
 10
8.818618
 20
25.794522
 30
0.0
 11
8.787694
 21
25.837462
 31
0.0
  0
LINE
  5
4fc
100
AcDbEntity
  8
0
 62
7
100
AcDbLine
 10
8.787694
 20
25.837462
 30
0.0
 11
8.750157
 21
25.873787
 31
0.0
  0
LINE
  5
4fd
100
AcDbEntity
  8
0
 62
7
100
AcDbLine
 10
8.750157
 20
25.873787
 30
0.0
 11
8.706996
 21
25.903167
 31
0.0
  0
LINE
  5
4fe
100
AcDbEntity
  8
0
 62
7
100
AcDbLine
 10
8.706996
 20
25.903167
 30
0.0
 11
8.659206
 21
25.925271
 31
0.0
  0
LINE
  5
4ff
100
AcDbEntity
  8
0
 62
7
100
AcDbLine
 10
8.659206
 20
25.925271
 30
0.0
 11
8.607778
 21
25.939768
 31
0.0
  0
LINE
  5
500
100
AcDbEntity
  8
0
 62
7
100
AcDbLine
 10
8.607778
 20
25.939768
 30
0.0
 11
8.528292
 21
25.940319
 31
0.0
  0
LINE
  5
501
100
AcDbEntity
  8
0
 62
7
100
AcDbLine
 10
8.528292
 20
25.940319
 30
0.0
 11
8.421687
 21
25.938886
 31
0.0
  0
LINE
  5
502
100
AcDbEntity
  8
0
 62
7
100
AcDbLine
 10
8.421687
 20
25.938886
 30
0.0
 11
8.295239
 21
25.930838
 31
0.0
  0
LINE
  5
503
100
AcDbEntity
  8
0
 62
7
100
AcDbLine
 10
8.295239
 20
25.930838
 30
0.0
 11
8.156222
 21
25.911545
 31
0.0
  0
LINE
  5
504
100
AcDbEntity
  8
0
 62
7
100
AcDbLine
 10
8.156222
 20
25.911545
 30
0.0
 11
8.011914
 21
25.876378
 31
0.0
  0
LINE
  5
505
100
AcDbEntity
  8
0
 62
7
100
AcDbLine
 10
8.011914
 20
25.876378
 30
0.0
 11
7.869590
 21
25.820705
 31
0.0
  0
LINE
  5
506
100
AcDbEntity
  8
0
 62
7
100
AcDbLine
 10
7.869590
 20
25.820705
 30
0.0
 11
7.736527
 21
25.739897
 31
0.0
  0
LINE
  5
507
100
AcDbEntity
  8
0
 62
7
100
AcDbLine
 10
7.736527
 20
25.739897
 30
0.0
 11
7.620000
 21
25.629323
 31
0.0
  0
LINE
  5
508
100
AcDbEntity
  8
0
 62
7
100
AcDbLine
 10
7.620000
 20
25.629323
 30
0.0
 11
7.579210
 21
25.582966
 31
0.0
  0
LINE
  5
509
100
AcDbEntity
  8
0
 62
7
100
AcDbLine
 10
7.579210
 20
25.582966
 30
0.0
 11
7.542389
 21
25.528341
 31
0.0
  0
LINE
  5
50a
100
AcDbEntity
  8
0
 62
7
100
AcDbLine
 10
7.542389
 20
25.528341
 30
0.0
 11
7.510859
 21
25.465116
 31
0.0
  0
LINE
  5
50b
100
AcDbEntity
  8
0
 62
7
100
AcDbLine
 10
7.510859
 20
25.465116
 30
0.0
 11
7.485944
 21
25.392962
 31
0.0
  0
LINE
  5
50c
100
AcDbEntity
  8
0
 62
7
100
AcDbLine
 10
7.485944
 20
25.392962
 30
0.0
 11
7.468966
 21
25.311547
 31
0.0
  0
LINE
  5
50d
100
AcDbEntity
  8
0
 62
7
100
AcDbLine
 10
7.468966
 20
25.311547
 30
0.0
 11
7.461250
 21
25.220542
 31
0.0
  0
LINE
  5
50e
100
AcDbEntity
  8
0
 62
7
100
AcDbLine
 10
7.461250
 20
25.220542
 30
0.0
 11
7.464117
 21
25.119614
 31
0.0
  0
LINE
  5
50f
100
AcDbEntity
  8
0
 62
7
100
AcDbLine
 10
7.464117
 20
25.119614
 30
0.0
 11
7.478889
 21
25.008434
 31
0.0
  0
LINE
  5
510
100
AcDbEntity
  8
0
 62
7
100
AcDbLine
 10
7.478889
 20
25.008434
 30
0.0
 11
7.493330
 21
24.958219
 31
0.0
  0
LINE
  5
511
100
AcDbEntity
  8
0
 62
7
100
AcDbLine
 10
7.493330
 20
24.958219
 30
0.0
 11
7.515047
 21
24.913625
 31
0.0
  0
LINE
  5
512
100
AcDbEntity
  8
0
 62
7
100
AcDbLine
 10
7.515047
 20
24.913625
 30
0.0
 11
7.543380
 21
24.874985
 31
0.0
  0
LINE
  5
513
100
AcDbEntity
  8
0
 62
7
100
AcDbLine
 10
7.543380
 20
24.874985
 30
0.0
 11
7.577665
 21
24.842629
 31
0.0
  0
LINE
  5
514
100
AcDbEntity
  8
0
 62
7
100
AcDbLine
 10
7.577665
 20
24.842629
 30
0.0
 11
7.617242
 21
24.816887
 31
0.0
  0
LINE
  5
515
100
AcDbEntity
  8
0
 62
7
100
AcDbLine
 10
7.617242
 20
24.816887
 30
0.0
 11
7.661450
 21
24.798091
 31
0.0
  0
LINE
  5
516
100
AcDbEntity
  8
0
 62
7
100
AcDbLine
 10
7.661450
 20
24.798091
 30
0.0
 11
7.709626
 21
24.786571
 31
0.0
  0
LINE
  5
517
100
AcDbEntity
  8
0
 62
7
100
AcDbLine
 10
7.709626
 20
24.786571
 30
0.0
 11
7.761111
 21
24.782657
 31
0.0
  0
LINE
  5
518
100
AcDbEntity
  8
0
 62
7
100
AcDbLine
 10
7.761111
 20
24.782657
 30
0.0
 11
7.770481
 21
24.782657
 31
0.0
  0
LINE
  5
519
100
AcDbEntity
  8
0
 62
7
100
AcDbLine
 10
7.770481
 20
24.782657
 30
0.0
 11
7.777867
 21
24.782657
 31
0.0
  0
LINE
  5
51a
100
AcDbEntity
  8
0
 62
7
100
AcDbLine
 10
7.777867
 20
24.782657
 30
0.0
 11
7.783929
 21
24.782657
 31
0.0
  0
LINE
  5
51b
100
AcDbEntity
  8
0
 62
7
100
AcDbLine
 10
7.783929
 20
24.782657
 30
0.0
 11
7.789331
 21
24.782657
 31
0.0
  0
LINE
  5
51c
100
AcDbEntity
  8
0
 62
7
100
AcDbLine
 10
7.789331
 20
24.782657
 30
0.0
 11
7.794732
 21
24.782657
 31
0.0
  0
LINE
  5
51d
100
AcDbEntity
  8
0
 62
7
100
AcDbLine
 10
7.794732
 20
24.782657
 30
0.0
 11
7.800794
 21
24.782657
 31
0.0
  0
LINE
  5
51e
100
AcDbEntity
  8
0
 62
7
100
AcDbLine
 10
7.800794
 20
24.782657
 30
0.0
 11
7.808180
 21
24.782657
 31
0.0
  0
LINE
  5
51f
100
AcDbEntity
  8
0
 62
7
100
AcDbLine
 10
7.808180
 20
24.782657
 30
0.0
 11
7.817550
 21
24.782657
 31
0.0
  0
LINE
  5
520
100
AcDbEntity
  8
0
 62
7
100
AcDbLine
 10
7.817550
 20
24.782657
 30
0.0
 11
7.868923
 21
24.798365
 31
0.0
  0
LINE
  5
521
100
AcDbEntity
  8
0
 62
7
100
AcDbLine
 10
7.868923
 20
24.798365
 30
0.0
 11
7.916333
 21
24.823667
 31
0.0
  0
LINE
  5
522
100
AcDbEntity
  8
0
 62
7
100
AcDbLine
 10
7.916333
 20
24.823667
 30
0.0
 11
7.958446
 21
24.857567
 31
0.0
  0
LINE
  5
523
100
AcDbEntity
  8
0
 62
7
100
AcDbLine
 10
7.958446
 20
24.857567
 30
0.0
 11
7.993944
 21
24.899073
 31
0.0
  0
LINE
  5
524
100
AcDbEntity
  8
0
 62
7
100
AcDbLine
 10
7.993944
 20
24.899073
 30
0.0
 11
8.021505
 21
24.947194
 31
0.0
  0
LINE
  5
525
100
AcDbEntity
  8
0
 62
7
100
AcDbLine
 10
8.021505
 20
24.947194
 30
0.0
 11
8.039806
 21
25.000938
 31
0.0
  0
LINE
  5
526
100
AcDbEntity
  8
0
 62
7
100
AcDbLine
 10
8.039806
 20
25.000938
 30
0.0
 11
8.047523
 21
25.059311
 31
0.0
  0
LINE
  5
527
100
AcDbEntity
  8
0
 62
7
100
AcDbLine
 10
8.047523
 20
25.059311
 30
0.0
 11
8.043333
 21
25.121323
 31
0.0
  0
LINE
  5
528
100
AcDbEntity
  8
0
 62
7
100
AcDbLine
 10
8.043333
 20
25.121323
 30
0.0
 11
8.035231
 21
25.150482
 31
0.0
  0
LINE
  5
529
100
AcDbEntity
  8
0
 62
7
100
AcDbLine
 10
8.035231
 20
25.150482
 30
0.0
 11
8.031426
 21
25.174680
 31
0.0
  0
LINE
  5
52a
100
AcDbEntity
  8
0
 62
7
100
AcDbLine
 10
8.031426
 20
25.174680
 30
0.0
 11
8.030918
 21
25.194249
 31
0.0
  0
LINE
  5
52b
100
AcDbEntity
  8
0
 62
7
100
AcDbLine
 10
8.030918
 20
25.194249
 30
0.0
 11
8.032725
 21
25.209518
 31
0.0
  0
LINE
  5
52c
100
AcDbEntity
  8
0
 62
7
100
AcDbLine
 10
8.032725
 20
25.209518
 30
0.0
 11
8.035866
 21
25.220818
 31
0.0
  0
LINE
  5
52d
100
AcDbEntity
  8
0
 62
7
100
AcDbLine
 10
8.035866
 20
25.220818
 30
0.0
 11
8.039337
 21
25.228480
 31
0.0
  0
LINE
  5
52e
100
AcDbEntity
  8
0
 62
7
100
AcDbLine
 10
8.039337
 20
25.228480
 30
0.0
 11
8.042159
 21
25.232835
 31
0.0
  0
LINE
  5
52f
100
AcDbEntity
  8
0
 62
7
100
AcDbLine
 10
8.042159
 20
25.232835
 30
0.0
 11
8.043333
 21
25.234212
 31
0.0
  0
LINE
  5
530
100
AcDbEntity
  8
0
 62
7
100
AcDbLine
 10
8.043333
 20
25.234212
 30
0.0
 11
8.072107
 21
25.272687
 31
0.0
  0
LINE
  5
531
100
AcDbEntity
  8
0
 62
7
100
AcDbLine
 10
8.072107
 20
25.272687
 30
0.0
 11
8.114771
 21
25.303886
 31
0.0
  0
LINE
  5
532
100
AcDbEntity
  8
0
 62
7
100
AcDbLine
 10
8.114771
 20
25.303886
 30
0.0
 11
8.169341
 21
25.328470
 31
0.0
  0
LINE
  5
533
100
AcDbEntity
  8
0
 62
7
100
AcDbLine
 10
8.169341
 20
25.328470
 30
0.0
 11
8.233833
 21
25.347101
 31
0.0
  0
LINE
  5
534
100
AcDbEntity
  8
0
 62
7
100
AcDbLine
 10
8.233833
 20
25.347101
 30
0.0
 11
8.306263
 21
25.360442
 31
0.0
  0
LINE
  5
535
100
AcDbEntity
  8
0
 62
7
100
AcDbLine
 10
8.306263
 20
25.360442
 30
0.0
 11
8.384646
 21
25.369151
 31
0.0
  0
LINE
  5
536
100
AcDbEntity
  8
0
 62
7
100
AcDbLine
 10
8.384646
 20
25.369151
 30
0.0
 11
8.466997
 21
25.373892
 31
0.0
  0
LINE
  5
537
100
AcDbEntity
  8
0
 62
7
100
AcDbLine
 10
8.466997
 20
25.373892
 30
0.0
 11
8.551333
 21
25.375323
 31
0.0
  0
LINE
  5
538
100
AcDbEntity
  8
0
 62
7
100
AcDbLine
 10
2.370667
 20
24.641545
 30
0.0
 11
2.381250
 21
24.641600
 31
0.0
  0
LINE
  5
539
100
AcDbEntity
  8
0
 62
7
100
AcDbLine
 10
2.381250
 20
24.641600
 30
0.0
 11
2.391833
 21
24.641996
 31
0.0
  0
LINE
  5
53a
100
AcDbEntity
  8
0
 62
7
100
AcDbLine
 10
2.391833
 20
24.641996
 30
0.0
 11
2.402417
 21
24.643040
 31
0.0
  0
LINE
  5
53b
100
AcDbEntity
  8
0
 62
7
100
AcDbLine
 10
2.402417
 20
24.643040
 30
0.0
 11
2.413000
 21
24.645072
 31
0.0
  0
LINE
  5
53c
100
AcDbEntity
  8
0
 62
7
100
AcDbLine
 10
2.413000
 20
24.645072
 30
0.0
 11
2.423583
 21
24.648433
 31
0.0
  0
LINE
  5
53d
100
AcDbEntity
  8
0
 62
7
100
AcDbLine
 10
2.423583
 20
24.648433
 30
0.0
 11
2.434167
 21
24.653448
 31
0.0
  0
LINE
  5
53e
100
AcDbEntity
  8
0
 62
7
100
AcDbLine
 10
2.434167
 20
24.653448
 30
0.0
 11
2.444750
 21
24.660447
 31
0.0
  0
LINE
  5
53f
100
AcDbEntity
  8
0
 62
7
100
AcDbLine
 10
2.444750
 20
24.660447
 30
0.0
 11
2.455333
 21
24.669768
 31
0.0
  0
LINE
  5
540
100
AcDbEntity
  8
0
 62
7
100
AcDbLine
 10
2.455333
 20
24.669768
 30
0.0
 11
2.505439
 21
24.694793
 31
0.0
  0
LINE
  5
541
100
AcDbEntity
  8
0
 62
7
100
AcDbLine
 10
2.505439
 20
24.694793
 30
0.0
 11
2.549260
 21
24.727094
 31
0.0
  0
LINE
  5
542
100
AcDbEntity
  8
0
 62
7
100
AcDbLine
 10
2.549260
 20
24.727094
 30
0.0
 11
2.585806
 21
24.766010
 31
0.0
  0
LINE
  5
543
100
AcDbEntity
  8
0
 62
7
100
AcDbLine
 10
2.585806
 20
24.766010
 30
0.0
 11
2.614083
 21
24.810879
 31
0.0
  0
LINE
  5
544
100
AcDbEntity
  8
0
 62
7
100
AcDbLine
 10
2.614083
 20
24.810879
 30
0.0
 11
2.633100
 21
24.861039
 31
0.0
  0
LINE
  5
545
100
AcDbEntity
  8
0
 62
7
100
AcDbLine
 10
2.633100
 20
24.861039
 30
0.0
 11
2.641865
 21
24.915830
 31
0.0
  0
LINE
  5
546
100
AcDbEntity
  8
0
 62
7
100
AcDbLine
 10
2.641865
 20
24.915830
 30
0.0
 11
2.639384
 21
24.974590
 31
0.0
  0
LINE
  5
547
100
AcDbEntity
  8
0
 62
7
100
AcDbLine
 10
2.639384
 20
24.974590
 30
0.0
 11
2.624667
 21
25.036657
 31
0.0
  0
LINE
  5
548
100
AcDbEntity
  8
0
 62
7
100
AcDbLine
 10
2.624667
 20
25.036657
 30
0.0
 11
2.571033
 21
25.255820
 31
0.0
  0
LINE
  5
549
100
AcDbEntity
  8
0
 62
7
100
AcDbLine
 10
2.571033
 20
25.255820
 30
0.0
 11
2.555434
 21
25.467045
 31
0.0
  0
LINE
  5
54a
100
AcDbEntity
  8
0
 62
7
100
AcDbLine
 10
2.555434
 20
25.467045
 30
0.0
 11
2.573569
 21
25.667688
 31
0.0
  0
LINE
  5
54b
100
AcDbEntity
  8
0
 62
7
100
AcDbLine
 10
2.573569
 20
25.667688
 30
0.0
 11
2.621139
 21
25.855101
 31
0.0
  0
LINE
  5
54c
100
AcDbEntity
  8
0
 62
7
100
AcDbLine
 10
2.621139
 20
25.855101
 30
0.0
 11
2.693844
 21
26.026639
 31
0.0
  0
LINE
  5
54d
100
AcDbEntity
  8
0
 62
7
100
AcDbLine
 10
2.693844
 20
26.026639
 30
0.0
 11
2.787385
 21
26.179657
 31
0.0
  0
LINE
  5
54e
100
AcDbEntity
  8
0
 62
7
100
AcDbLine
 10
2.787385
 20
26.179657
 30
0.0
 11
2.897463
 21
26.311507
 31
0.0
  0
LINE
  5
54f
100
AcDbEntity
  8
0
 62
7
100
AcDbLine
 10
2.897463
 20
26.311507
 30
0.0
 11
3.019778
 21
26.419545
 31
0.0
  0
LINE
  5
550
100
AcDbEntity
  8
0
 62
7
100
AcDbLine
 10
3.019778
 20
26.419545
 30
0.0
 11
3.159842
 21
26.501566
 31
0.0
  0
LINE
  5
551
100
AcDbEntity
  8
0
 62
7
100
AcDbLine
 10
3.159842
 20
26.501566
 30
0.0
 11
3.304205
 21
26.557129
 31
0.0
  0
LINE
  5
552
100
AcDbEntity
  8
0
 62
7
100
AcDbLine
 10
3.304205
 20
26.557129
 30
0.0
 11
3.451876
 21
26.586233
 31
0.0
  0
LINE
  5
553
100
AcDbEntity
  8
0
 62
7
100
AcDbLine
 10
3.451876
 20
26.586233
 30
0.0
 11
3.601861
 21
26.588879
 31
0.0
  0
LINE
  5
554
100
AcDbEntity
  8
0
 62
7
100
AcDbLine
 10
3.601861
 20
26.588879
 30
0.0
 11
3.753170
 21
26.565066
 31
0.0
  0
LINE
  5
555
100
AcDbEntity
  8
0
 62
7
100
AcDbLine
 10
3.753170
 20
26.565066
 30
0.0
 11
3.904809
 21
26.514795
 31
0.0
  0
LINE
  5
556
100
AcDbEntity
  8
0
 62
7
100
AcDbLine
 10
3.904809
 20
26.514795
 30
0.0
 11
4.055787
 21
26.438066
 31
0.0
  0
LINE
  5
557
100
AcDbEntity
  8
0
 62
7
100
AcDbLine
 10
4.055787
 20
26.438066
 30
0.0
 11
4.205111
 21
26.334879
 31
0.0
  0
LINE
  5
558
100
AcDbEntity
  8
0
 62
7
100
AcDbLine
 10
4.205111
 20
26.334879
 30
0.0
 11
4.259130
 21
26.299050
 31
0.0
  0
LINE
  5
559
100
AcDbEntity
  8
0
 62
7
100
AcDbLine
 10
4.259130
 20
26.299050
 30
0.0
 11
4.314472
 21
26.275788
 31
0.0
  0
LINE
  5
55a
100
AcDbEntity
  8
0
 62
7
100
AcDbLine
 10
4.314472
 20
26.275788
 30
0.0
 11
4.369814
 21
26.264433
 31
0.0
  0
LINE
  5
55b
100
AcDbEntity
  8
0
 62
7
100
AcDbLine
 10
4.369814
 20
26.264433
 30
0.0
 11
4.423833
 21
26.264323
 31
0.0
  0
LINE
  5
55c
100
AcDbEntity
  8
0
 62
7
100
AcDbLine
 10
4.423833
 20
26.264323
 30
0.0
 11
4.475207
 21
26.274796
 31
0.0
  0
LINE
  5
55d
100
AcDbEntity
  8
0
 62
7
100
AcDbLine
 10
4.475207
 20
26.274796
 30
0.0
 11
4.522611
 21
26.295191
 31
0.0
  0
LINE
  5
55e
100
AcDbEntity
  8
0
 62
7
100
AcDbLine
 10
4.522611
 20
26.295191
 30
0.0
 11
4.564724
 21
26.324847
 31
0.0
  0
LINE
  5
55f
100
AcDbEntity
  8
0
 62
7
100
AcDbLine
 10
4.564724
 20
26.324847
 30
0.0
 11
4.600222
 21
26.363101
 31
0.0
  0
LINE
  5
560
100
AcDbEntity
  8
0
 62
7
100
AcDbLine
 10
4.600222
 20
26.363101
 30
0.0
 11
4.626736
 21
26.409017
 31
0.0
  0
LINE
  5
561
100
AcDbEntity
  8
0
 62
7
100
AcDbLine
 10
4.626736
 20
26.409017
 30
0.0
 11
4.642997
 21
26.460556
 31
0.0
  0
LINE
  5
562
100
AcDbEntity
  8
0
 62
7
100
AcDbLine
 10
4.642997
 20
26.460556
 30
0.0
 11
4.649335
 21
26.515402
 31
0.0
  0
LINE
  5
563
100
AcDbEntity
  8
0
 62
7
100
AcDbLine
 10
4.649335
 20
26.515402
 30
0.0
 11
4.646083
 21
26.571240
 31
0.0
  0
LINE
  5
564
100
AcDbEntity
  8
0
 62
7
100
AcDbLine
 10
4.646083
 20
26.571240
 30
0.0
 11
4.633571
 21
26.625755
 31
0.0
  0
LINE
  5
565
100
AcDbEntity
  8
0
 62
7
100
AcDbLine
 10
4.633571
 20
26.625755
 30
0.0
 11
4.612129
 21
26.676632
 31
0.0
  0
LINE
  5
566
100
AcDbEntity
  8
0
 62
7
100
AcDbLine
 10
4.612129
 20
26.676632
 30
0.0
 11
4.582087
 21
26.721556
 31
0.0
  0
LINE
  5
567
100
AcDbEntity
  8
0
 62
7
100
AcDbLine
 10
4.582087
 20
26.721556
 30
0.0
 11
4.543778
 21
26.758212
 31
0.0
  0
LINE
  5
568
100
AcDbEntity
  8
0
 62
7
100
AcDbLine
 10
4.543778
 20
26.758212
 30
0.0
 11
4.316732
 21
26.907702
 31
0.0
  0
LINE
  5
569
100
AcDbEntity
  8
0
 62
7
100
AcDbLine
 10
4.316732
 20
26.907702
 30
0.0
 11
4.082080
 21
27.017504
 31
0.0
  0
LINE
  5
56a
100
AcDbEntity
  8
0
 62
7
100
AcDbLine
 10
4.082080
 20
27.017504
 30
0.0
 11
3.842797
 21
27.087618
 31
0.0
  0
LINE
  5
56b
100
AcDbEntity
  8
0
 62
7
100
AcDbLine
 10
3.842797
 20
27.087618
 30
0.0
 11
3.601861
 21
27.118045
 31
0.0
  0
LINE
  5
56c
100
AcDbEntity
  8
0
 62
7
100
AcDbLine
 10
3.601861
 20
27.118045
 30
0.0
 11
3.362248
 21
27.108785
 31
0.0
  0
LINE
  5
56d
100
AcDbEntity
  8
0
 62
7
100
AcDbLine
 10
3.362248
 20
27.108785
 30
0.0
 11
3.126934
 21
27.059837
 31
0.0
  0
LINE
  5
56e
100
AcDbEntity
  8
0
 62
7
100
AcDbLine
 10
3.126934
 20
27.059837
 30
0.0
 11
2.898896
 21
26.971202
 31
0.0
  0
LINE
  5
56f
100
AcDbEntity
  8
0
 62
7
100
AcDbLine
 10
2.898896
 20
26.971202
 30
0.0
 11
2.681111
 21
26.842879
 31
0.0
  0
LINE
  5
570
100
AcDbEntity
  8
0
 62
7
100
AcDbLine
 10
2.681111
 20
26.842879
 30
0.0
 11
2.475067
 21
26.665332
 31
0.0
  0
LINE
  5
571
100
AcDbEntity
  8
0
 62
7
100
AcDbLine
 10
2.475067
 20
26.665332
 30
0.0
 11
2.302757
 21
26.454382
 31
0.0
  0
LINE
  5
572
100
AcDbEntity
  8
0
 62
7
100
AcDbLine
 10
2.302757
 20
26.454382
 30
0.0
 11
2.166166
 21
26.216312
 31
0.0
  0
LINE
  5
573
100
AcDbEntity
  8
0
 62
7
100
AcDbLine
 10
2.166166
 20
26.216312
 30
0.0
 11
2.067278
 21
25.957407
 31
0.0
  0
LINE
  5
574
100
AcDbEntity
  8
0
 62
7
100
AcDbLine
 10
2.067278
 20
25.957407
 30
0.0
 11
2.008077
 21
25.683949
 31
0.0
  0
LINE
  5
575
100
AcDbEntity
  8
0
 62
7
100
AcDbLine
 10
2.008077
 20
25.683949
 30
0.0
 11
1.990549
 21
25.402223
 31
0.0
  0
LINE
  5
576
100
AcDbEntity
  8
0
 62
7
100
AcDbLine
 10
1.990549
 20
25.402223
 30
0.0
 11
2.016676
 21
25.118512
 31
0.0
  0
LINE
  5
577
100
AcDbEntity
  8
0
 62
7
100
AcDbLine
 10
2.016676
 20
25.118512
 30
0.0
 11
2.088444
 21
24.839101
 31
0.0
  0
LINE
  5
578
100
AcDbEntity
  8
0
 62
7
100
AcDbLine
 10
2.088444
 20
24.839101
 30
0.0
 11
2.102886
 21
24.798201
 31
0.0
  0
LINE
  5
579
100
AcDbEntity
  8
0
 62
7
100
AcDbLine
 10
2.102886
 20
24.798201
 30
0.0
 11
2.124604
 21
24.760608
 31
0.0
  0
LINE
  5
57a
100
AcDbEntity
  8
0
 62
7
100
AcDbLine
 10
2.124604
 20
24.760608
 30
0.0
 11
2.152937
 21
24.726984
 31
0.0
  0
LINE
  5
57b
100
AcDbEntity
  8
0
 62
7
100
AcDbLine
 10
2.152937
 20
24.726984
 30
0.0
 11
2.187222
 21
24.697990
 31
0.0
  0
LINE
  5
57c
100
AcDbEntity
  8
0
 62
7
100
AcDbLine
 10
2.187222
 20
24.697990
 30
0.0
 11
2.226799
 21
24.674289
 31
0.0
  0
LINE
  5
57d
100
AcDbEntity
  8
0
 62
7
100
AcDbLine
 10
2.226799
 20
24.674289
 30
0.0
 11
2.271007
 21
24.656540
 31
0.0
  0
LINE
  5
57e
100
AcDbEntity
  8
0
 62
7
100
AcDbLine
 10
2.271007
 20
24.656540
 30
0.0
 11
2.319183
 21
24.645406
 31
0.0
  0
LINE
  5
57f
100
AcDbEntity
  8
0
 62
7
100
AcDbLine
 10
2.319183
 20
24.645406
 30
0.0
 11
2.370667
 21
24.641545
 31
0.0
  0
ENDSEC
  0
SECTION
  2
OBJECTS
  0
DICTIONARY
  5
C
330
0
100
AcDbDictionary
  3
ACAD_GROUP
350
D
  3
ACAD_MLINESTYLE
350
17
  0
DICTIONARY
  5
D
330
C
100
AcDbDictionary
  0
DICTIONARY
  5
1A
330
C
100
AcDbDictionary
  0
DICTIONARY
  5
17
330
C
100
AcDbDictionary
  3
STANDARD
350
18
  0
DICTIONARY
  5
19
330
C
100
AcDbDictionary
  0
ENDSEC
  0
EOF
