  0
SECTION
  2
HEADER
  9
$ACADVER
  1
AC1014
  9
$HANDSEED
  5
FFFF
  9
$MEASUREMENT
 70
     1
  0
ENDSEC
  0
SECTION
  2
TABLES
  0
TABLE
  2
VPORT
  5
8
330
0
100
AcDbSymbolTable
 70
     4
  0
VPORT
  5
2E
330
8
100
AcDbSymbolTableRecord
100
AcDbViewportTableRecord
  2
*ACTIVE
 70
     0
 10
0.0
 20
0.0
 11
1.0
 21
1.0
 12
210.0
 22
148.5
 13
0.0
 23
0.0
 14
10.0
 24
10.0
 15
10.0
 25
10.0
 16
0.0
 26
0.0
 36
1.0
 17
0.0
 27
0.0
 37
0.0
 40
341.0
 41
1.24
 42
50.0
 43
0.0
 44
0.0
 50
0.0
 51
0.0
 71
     0
 72
   100
 73
     1
 74
     3
 75
     0
 76
     0
 77
     0
 78
     0
  0
ENDTAB
  0
TABLE
  2
LTYPE
  5
5
330
0
100
AcDbSymbolTable
 70
     1
  0
LTYPE
  5
14
330
5
100
AcDbSymbolTableRecord
100
AcDbLinetypeTableRecord
  2
BYBLOCK
 70
     0
  3

 72
    65
 73
     0
 40
0.0
  0
LTYPE
  5
15
330
5
100
AcDbSymbolTableRecord
100
AcDbLinetypeTableRecord
  2
BYLAYER
 70
     0
  3

 72
    65
 73
     0
 40
0.0
  0
LTYPE
  5
16
330
5
100
AcDbSymbolTableRecord
100
AcDbLinetypeTableRecord
  2
CONTINUOUS
 70
     0
  3
Solid line
 72
    65
 73
     0
 40
0.0
  0
ENDTAB
  0
TABLE
  2
LAYER
  5
2
100
AcDbSymbolTable
 70
1
  0
LAYER
  5
50
100
AcDbSymbolTableRecord
100
AcDbLayerTableRecord
  2
0
 70
0
  6
CONTINUOUS
  0
ENDTAB
  0
TABLE
  2
STYLE
  5
3
330
0
100
AcDbSymbolTable
 70
     1
  0
STYLE
  5
11
330
3
100
AcDbSymbolTableRecord
100
AcDbTextStyleTableRecord
  2
STANDARD
 70
     0
 40
0.0
 41
1.0
 50
0.0
 71
     0
 42
2.5
  3
txt
  4

  0
ENDTAB
  0
TABLE
  2
VIEW
  5
6
330
0
100
AcDbSymbolTable
 70
     0
  0
ENDTAB
  0
TABLE
  2
UCS
  5
7
330
0
100
AcDbSymbolTable
 70
     0
  0
ENDTAB
  0
TABLE
  2
APPID
  5
9
330
0
100
AcDbSymbolTable
 70
     2
  0
APPID
  5
12
330
9
100
AcDbSymbolTableRecord
100
AcDbRegAppTableRecord
  2
ACAD
 70
     0
  0
ENDTAB
  0
TABLE
  2
DIMSTYLE
  5
A
330
0
100
AcDbSymbolTable
 70
     1
  0
DIMSTYLE
105
27
330
A
100
AcDbSymbolTableRecord
100
AcDbDimStyleTableRecord
  2
ISO-25
 70
     0
  3

  4

  5

  6

  7

 40
1.0
 41
2.5
 42
0.625
 43
3.75
 44
1.25
 45
0.0
 46
0.0
 47
0.0
 48
0.0
140
2.5
141
2.5
142
0.0
143
0.03937007874016
144
1.0
145
0.0
146
1.0
147
0.625
 71
     0
 72
     0
 73
     0
 74
     0
 75
     0
 76
     0
 77
     1
 78
     8
170
     0
171
     3
172
     1
173
     0
174
     0
175
     0
176
     0
177
     0
178
     0
270
     2
271
     2
272
     2
273
     2
274
     3
340
11
275
     0
280
     0
281
     0
282
     0
283
     0
284
     8
285
     0
286
     0
287
     3
288
     0
  0
ENDTAB
  0
TABLE
  2
BLOCK_RECORD
  5
1
330
0
100
AcDbSymbolTable
 70
     1
  0
BLOCK_RECORD
  5
1F
330
1
100
AcDbSymbolTableRecord
100
AcDbBlockTableRecord
  2
*MODEL_SPACE
  0
BLOCK_RECORD
  5
1B
330
1
100
AcDbSymbolTableRecord
100
AcDbBlockTableRecord
  2
*PAPER_SPACE
  0
ENDTAB
  0
ENDSEC
  0
SECTION
  2
BLOCKS
  0
BLOCK
  5
20
330
1F
100
AcDbEntity
  8
0
100
AcDbBlockBegin
  2
*MODEL_SPACE
 70
     0
 10
0.0
 20
0.0
 30
0.0
  3
*MODEL_SPACE
  1

  0
ENDBLK
  5
21
330
1F
100
AcDbEntity
  8
0
100
AcDbBlockEnd
  0
BLOCK
  5
1C
330
1B
100
AcDbEntity
 67
     1
  8
0
100
AcDbBlockBegin
  2
*PAPER_SPACE
  1

  0
ENDBLK
  5
1D
330
1B
100
AcDbEntity
 67
     1
  8
0
100
AcDbBlockEnd
  0
ENDSEC
  0
SECTION
  2
ENTITIES
  0
LINE
  5
100
100
AcDbEntity
  8
0
 62
7
100
AcDbLine
 10
16.622465
 20
28.222223
 30
0.0
 11
16.200350
 21
28.212187
 31
0.0
  0
LINE
  5
101
100
AcDbEntity
  8
0
 62
7
100
AcDbLine
 10
16.200350
 20
28.212187
 30
0.0
 11
15.778981
 21
28.182084
 31
0.0
  0
LINE
  5
102
100
AcDbEntity
  8
0
 62
7
100
AcDbLine
 10
15.778981
 20
28.182084
 30
0.0
 11
15.359157
 21
28.131916
 31
0.0
  0
LINE
  5
103
100
AcDbEntity
  8
0
 62
7
100
AcDbLine
 10
15.359157
 20
28.131916
 30
0.0
 11
14.941674
 21
28.061688
 31
0.0
  0
LINE
  5
104
100
AcDbEntity
  8
0
 62
7
100
AcDbLine
 10
14.941674
 20
28.061688
 30
0.0
 11
14.527330
 21
27.971405
 31
0.0
  0
LINE
  5
105
100
AcDbEntity
  8
0
 62
7
100
AcDbLine
 10
14.527330
 20
27.971405
 30
0.0
 11
14.116923
 21
27.861070
 31
0.0
  0
LINE
  5
106
100
AcDbEntity
  8
0
 62
7
100
AcDbLine
 10
14.116923
 20
27.861070
 30
0.0
 11
13.711249
 21
27.730687
 31
0.0
  0
LINE
  5
107
100
AcDbEntity
  8
0
 62
7
100
AcDbLine
 10
13.711249
 20
27.730687
 30
0.0
 11
13.311106
 21
27.580260
 31
0.0
  0
LINE
  5
108
100
AcDbEntity
  8
0
 62
7
100
AcDbLine
 10
13.311106
 20
27.580260
 30
0.0
 11
12.917291
 21
27.409794
 31
0.0
  0
LINE
  5
109
100
AcDbEntity
  8
0
 62
7
100
AcDbLine
 10
12.917291
 20
27.409794
 30
0.0
 11
12.530602
 21
27.219292
 31
0.0
  0
LINE
  5
10a
100
AcDbEntity
  8
0
 62
7
100
AcDbLine
 10
12.530602
 20
27.219292
 30
0.0
 11
12.151836
 21
27.008759
 31
0.0
  0
LINE
  5
10b
100
AcDbEntity
  8
0
 62
7
100
AcDbLine
 10
12.151836
 20
27.008759
 30
0.0
 11
11.781790
 21
26.778198
 31
0.0
  0
LINE
  5
10c
100
AcDbEntity
  8
0
 62
7
100
AcDbLine
 10
11.781790
 20
26.778198
 30
0.0
 11
11.421262
 21
26.527614
 31
0.0
  0
LINE
  5
10d
100
AcDbEntity
  8
0
 62
7
100
AcDbLine
 10
11.421262
 20
26.527614
 30
0.0
 11
11.071049
 21
26.257011
 31
0.0
  0
LINE
  5
10e
100
AcDbEntity
  8
0
 62
7
100
AcDbLine
 10
11.071049
 20
26.257011
 30
0.0
 11
10.731948
 21
25.966393
 31
0.0
  0
LINE
  5
10f
100
AcDbEntity
  8
0
 62
7
100
AcDbLine
 10
10.731948
 20
25.966393
 30
0.0
 11
10.404757
 21
25.655764
 31
0.0
  0
LINE
  5
110
100
AcDbEntity
  8
0
 62
7
100
AcDbLine
 10
10.404757
 20
25.655764
 30
0.0
 11
9.803570
 21
24.989872
 31
0.0
  0
LINE
  5
111
100
AcDbEntity
  8
0
 62
7
100
AcDbLine
 10
9.803570
 20
24.989872
 30
0.0
 11
9.282541
 21
24.279630
 31
0.0
  0
LINE
  5
112
100
AcDbEntity
  8
0
 62
7
100
AcDbLine
 10
9.282541
 20
24.279630
 30
0.0
 11
8.841670
 21
23.531376
 31
0.0
  0
LINE
  5
113
100
AcDbEntity
  8
0
 62
7
100
AcDbLine
 10
8.841670
 20
23.531376
 30
0.0
 11
8.480958
 21
22.751449
 31
0.0
  0
LINE
  5
114
100
AcDbEntity
  8
0
 62
7
100
AcDbLine
 10
8.480958
 20
22.751449
 30
0.0
 11
8.200404
 21
21.946189
 31
0.0
  0
LINE
  5
115
100
AcDbEntity
  8
0
 62
7
100
AcDbLine
 10
8.200404
 20
21.946189
 30
0.0
 11
8.000008
 21
21.121933
 31
0.0
  0
LINE
  5
116
100
AcDbEntity
  8
0
 62
7
100
AcDbLine
 10
8.000008
 20
21.121933
 30
0.0
 11
7.879770
 21
20.285021
 31
0.0
  0
LINE
  5
117
100
AcDbEntity
  8
0
 62
7
100
AcDbLine
 10
7.879770
 20
20.285021
 30
0.0
 11
7.839691
 21
19.441790
 31
0.0
  0
LINE
  5
118
100
AcDbEntity
  8
0
 62
7
100
AcDbLine
 10
7.839691
 20
19.441790
 30
0.0
 11
7.879770
 21
18.598582
 31
0.0
  0
LINE
  5
119
100
AcDbEntity
  8
0
 62
7
100
AcDbLine
 10
7.879770
 20
18.598582
 30
0.0
 11
8.000008
 21
17.761733
 31
0.0
  0
LINE
  5
11a
100
AcDbEntity
  8
0
 62
7
100
AcDbLine
 10
8.000008
 20
17.761733
 30
0.0
 11
8.200404
 21
16.937582
 31
0.0
  0
LINE
  5
11b
100
AcDbEntity
  8
0
 62
7
100
AcDbLine
 10
8.200404
 20
16.937582
 30
0.0
 11
8.480958
 21
16.132469
 31
0.0
  0
LINE
  5
11c
100
AcDbEntity
  8
0
 62
7
100
AcDbLine
 10
8.480958
 20
16.132469
 30
0.0
 11
8.841670
 21
15.352733
 31
0.0
  0
LINE
  5
11d
100
AcDbEntity
  8
0
 62
7
100
AcDbLine
 10
8.841670
 20
15.352733
 30
0.0
 11
9.282541
 21
14.604711
 31
0.0
  0
LINE
  5
11e
100
AcDbEntity
  8
0
 62
7
100
AcDbLine
 10
9.282541
 20
14.604711
 30
0.0
 11
9.803570
 21
13.894743
 31
0.0
  0
LINE
  5
11f
100
AcDbEntity
  8
0
 62
7
100
AcDbLine
 10
9.803570
 20
13.894743
 30
0.0
 11
10.404757
 21
13.229167
 31
0.0
  0
LINE
  5
120
100
AcDbEntity
  8
0
 62
7
100
AcDbLine
 10
10.404757
 20
13.229167
 30
0.0
 11
11.070629
 21
12.627663
 31
0.0
  0
LINE
  5
121
100
AcDbEntity
  8
0
 62
7
100
AcDbLine
 10
11.070629
 20
12.627663
 30
0.0
 11
11.780817
 21
12.106360
 31
0.0
  0
LINE
  5
122
100
AcDbEntity
  8
0
 62
7
100
AcDbLine
 10
11.780817
 20
12.106360
 30
0.0
 11
12.528991
 21
11.665258
 31
0.0
  0
LINE
  5
123
100
AcDbEntity
  8
0
 62
7
100
AcDbLine
 10
12.528991
 20
11.665258
 30
0.0
 11
13.308819
 21
11.304356
 31
0.0
  0
LINE
  5
124
100
AcDbEntity
  8
0
 62
7
100
AcDbLine
 10
13.308819
 20
11.304356
 30
0.0
 11
14.113970
 21
11.023655
 31
0.0
  0
LINE
  5
125
100
AcDbEntity
  8
0
 62
7
100
AcDbLine
 10
14.113970
 20
11.023655
 30
0.0
 11
14.938114
 21
10.823154
 31
0.0
  0
LINE
  5
126
100
AcDbEntity
  8
0
 62
7
100
AcDbLine
 10
14.938114
 20
10.823154
 30
0.0
 11
15.774919
 21
10.702854
 31
0.0
  0
LINE
  5
127
100
AcDbEntity
  8
0
 62
7
100
AcDbLine
 10
15.774919
 20
10.702854
 30
0.0
 11
16.618056
 21
10.662754
 31
0.0
  0
LINE
  5
128
100
AcDbEntity
  8
0
 62
7
100
AcDbLine
 10
16.618056
 20
10.662754
 30
0.0
 11
17.461192
 21
10.702854
 31
0.0
  0
LINE
  5
129
100
AcDbEntity
  8
0
 62
7
100
AcDbLine
 10
17.461192
 20
10.702854
 30
0.0
 11
18.297997
 21
10.823155
 31
0.0
  0
LINE
  5
12a
100
AcDbEntity
  8
0
 62
7
100
AcDbLine
 10
18.297997
 20
10.823155
 30
0.0
 11
19.122141
 21
11.023656
 31
0.0
  0
LINE
  5
12b
100
AcDbEntity
  8
0
 62
7
100
AcDbLine
 10
19.122141
 20
11.023656
 30
0.0
 11
19.927293
 21
11.304358
 31
0.0
  0
LINE
  5
12c
100
AcDbEntity
  8
0
 62
7
100
AcDbLine
 10
19.927293
 20
11.304358
 30
0.0
 11
20.707120
 21
11.665260
 31
0.0
  0
LINE
  5
12d
100
AcDbEntity
  8
0
 62
7
100
AcDbLine
 10
20.707120
 20
11.665260
 30
0.0
 11
21.455294
 21
12.106362
 31
0.0
  0
LINE
  5
12e
100
AcDbEntity
  8
0
 62
7
100
AcDbLine
 10
21.455294
 20
12.106362
 30
0.0
 11
22.165482
 21
12.627664
 31
0.0
  0
LINE
  5
12f
100
AcDbEntity
  8
0
 62
7
100
AcDbLine
 10
22.165482
 20
12.627664
 30
0.0
 11
22.831354
 21
13.229167
 31
0.0
  0
LINE
  5
130
100
AcDbEntity
  8
0
 62
7
100
AcDbLine
 10
22.831354
 20
13.229167
 30
0.0
 11
23.432542
 21
13.894742
 31
0.0
  0
LINE
  5
131
100
AcDbEntity
  8
0
 62
7
100
AcDbLine
 10
23.432542
 20
13.894742
 30
0.0
 11
23.953571
 21
14.604710
 31
0.0
  0
LINE
  5
132
100
AcDbEntity
  8
0
 62
7
100
AcDbLine
 10
23.953571
 20
14.604710
 30
0.0
 11
24.394442
 21
15.352731
 31
0.0
  0
LINE
  5
133
100
AcDbEntity
  8
0
 62
7
100
AcDbLine
 10
24.394442
 20
15.352731
 30
0.0
 11
24.755155
 21
16.132468
 31
0.0
  0
LINE
  5
134
100
AcDbEntity
  8
0
 62
7
100
AcDbLine
 10
24.755155
 20
16.132468
 30
0.0
 11
25.035709
 21
16.937581
 31
0.0
  0
LINE
  5
135
100
AcDbEntity
  8
0
 62
7
100
AcDbLine
 10
25.035709
 20
16.937581
 30
0.0
 11
25.236105
 21
17.761731
 31
0.0
  0
LINE
  5
136
100
AcDbEntity
  8
0
 62
7
100
AcDbLine
 10
25.236105
 20
17.761731
 30
0.0
 11
25.356342
 21
18.598580
 31
0.0
  0
LINE
  5
137
100
AcDbEntity
  8
0
 62
7
100
AcDbLine
 10
25.356342
 20
18.598580
 30
0.0
 11
25.396421
 21
19.441789
 31
0.0
  0
LINE
  5
138
100
AcDbEntity
  8
0
 62
7
100
AcDbLine
 10
25.396421
 20
19.441789
 30
0.0
 11
25.356341
 21
20.285019
 31
0.0
  0
LINE
  5
139
100
AcDbEntity
  8
0
 62
7
100
AcDbLine
 10
25.356341
 20
20.285019
 30
0.0
 11
25.236104
 21
21.121932
 31
0.0
  0
LINE
  5
13a
100
AcDbEntity
  8
0
 62
7
100
AcDbLine
 10
25.236104
 20
21.121932
 30
0.0
 11
25.035708
 21
21.946188
 31
0.0
  0
LINE
  5
13b
100
AcDbEntity
  8
0
 62
7
100
AcDbLine
 10
25.035708
 20
21.946188
 30
0.0
 11
24.755154
 21
22.751449
 31
0.0
  0
LINE
  5
13c
100
AcDbEntity
  8
0
 62
7
100
AcDbLine
 10
24.755154
 20
22.751449
 30
0.0
 11
24.394441
 21
23.531376
 31
0.0
  0
LINE
  5
13d
100
AcDbEntity
  8
0
 62
7
100
AcDbLine
 10
24.394441
 20
23.531376
 30
0.0
 11
23.953570
 21
24.279630
 31
0.0
  0
LINE
  5
13e
100
AcDbEntity
  8
0
 62
7
100
AcDbLine
 10
23.953570
 20
24.279630
 30
0.0
 11
23.432541
 21
24.989872
 31
0.0
  0
LINE
  5
13f
100
AcDbEntity
  8
0
 62
7
100
AcDbLine
 10
23.432541
 20
24.989872
 30
0.0
 11
22.831354
 21
25.655764
 31
0.0
  0
LINE
  5
140
100
AcDbEntity
  8
0
 62
7
100
AcDbLine
 10
22.831354
 20
25.655764
 30
0.0
 11
22.504539
 21
25.966393
 31
0.0
  0
LINE
  5
141
100
AcDbEntity
  8
0
 62
7
100
AcDbLine
 10
22.504539
 20
25.966393
 30
0.0
 11
22.165884
 21
26.257011
 31
0.0
  0
LINE
  5
142
100
AcDbEntity
  8
0
 62
7
100
AcDbLine
 10
22.165884
 20
26.257011
 30
0.0
 11
21.816177
 21
26.527614
 31
0.0
  0
LINE
  5
143
100
AcDbEntity
  8
0
 62
7
100
AcDbLine
 10
21.816177
 20
26.527614
 30
0.0
 11
21.456205
 21
26.778198
 31
0.0
  0
LINE
  5
144
100
AcDbEntity
  8
0
 62
7
100
AcDbLine
 10
21.456205
 20
26.778198
 30
0.0
 11
21.086755
 21
27.008759
 31
0.0
  0
LINE
  5
145
100
AcDbEntity
  8
0
 62
7
100
AcDbLine
 10
21.086755
 20
27.008759
 30
0.0
 11
20.708616
 21
27.219292
 31
0.0
  0
LINE
  5
146
100
AcDbEntity
  8
0
 62
7
100
AcDbLine
 10
20.708616
 20
27.219292
 30
0.0
 11
20.322573
 21
27.409794
 31
0.0
  0
LINE
  5
147
100
AcDbEntity
  8
0
 62
7
100
AcDbLine
 10
20.322573
 20
27.409794
 30
0.0
 11
19.929415
 21
27.580260
 31
0.0
  0
LINE
  5
148
100
AcDbEntity
  8
0
 62
7
100
AcDbLine
 10
19.929415
 20
27.580260
 30
0.0
 11
19.529928
 21
27.730687
 31
0.0
  0
LINE
  5
149
100
AcDbEntity
  8
0
 62
7
100
AcDbLine
 10
19.529928
 20
27.730687
 30
0.0
 11
19.124901
 21
27.861070
 31
0.0
  0
LINE
  5
14a
100
AcDbEntity
  8
0
 62
7
100
AcDbLine
 10
19.124901
 20
27.861070
 30
0.0
 11
18.715120
 21
27.971405
 31
0.0
  0
LINE
  5
14b
100
AcDbEntity
  8
0
 62
7
100
AcDbLine
 10
18.715120
 20
27.971405
 30
0.0
 11
18.301372
 21
28.061688
 31
0.0
  0
LINE
  5
14c
100
AcDbEntity
  8
0
 62
7
100
AcDbLine
 10
18.301372
 20
28.061688
 30
0.0
 11
17.884446
 21
28.131916
 31
0.0
  0
LINE
  5
14d
100
AcDbEntity
  8
0
 62
7
100
AcDbLine
 10
17.884446
 20
28.131916
 30
0.0
 11
17.465127
 21
28.182084
 31
0.0
  0
LINE
  5
14e
100
AcDbEntity
  8
0
 62
7
100
AcDbLine
 10
17.465127
 20
28.182084
 30
0.0
 11
17.044205
 21
28.212187
 31
0.0
  0
LINE
  5
14f
100
AcDbEntity
  8
0
 62
7
100
AcDbLine
 10
17.044205
 20
28.212187
 30
0.0
 11
16.622465
 21
28.222223
 31
0.0
  0
SPLINE
  5
150
100
AcDbEntity
  8
0
 62
7
100
AcDbSpline
 70
8
 71
3
 72
8
 73
4
 74
0
 40
0
 40
0
 40
0
 40
0
 40
1
 40
1
 40
1
 40
1
 10
16.622465
 20
25.805695
 30
0.0
 10
16.825421
 20
25.805695
 30
0.0
 10
17.028454
 20
25.795971
 30
0.0
 10
17.230807
 20
25.776519
 30
0.0
  0
SPLINE
  5
151
100
AcDbEntity
  8
0
 62
7
100
AcDbSpline
 70
8
 71
3
 72
8
 73
4
 74
0
 40
0
 40
0
 40
0
 40
0
 40
1
 40
1
 40
1
 40
1
 10
17.230807
 20
25.776519
 30
0.0
 10
17.433161
 20
25.757067
 30
0.0
 10
17.634835
 20
25.727886
 30
0.0
 10
17.835071
 20
25.688971
 30
0.0
  0
SPLINE
  5
152
100
AcDbEntity
  8
0
 62
7
100
AcDbSpline
 70
8
 71
3
 72
8
 73
4
 74
0
 40
0
 40
0
 40
0
 40
0
 40
1
 40
1
 40
1
 40
1
 10
17.835071
 20
25.688971
 30
0.0
 10
18.035308
 20
25.650055
 30
0.0
 10
18.234107
 20
25.601406
 30
0.0
 10
18.430710
 20
25.543016
 30
0.0
  0
SPLINE
  5
153
100
AcDbEntity
  8
0
 62
7
100
AcDbSpline
 70
8
 71
3
 72
8
 73
4
 74
0
 40
0
 40
0
 40
0
 40
0
 40
1
 40
1
 40
1
 40
1
 10
18.430710
 20
25.543016
 30
0.0
 10
18.627314
 20
25.484626
 30
0.0
 10
18.821722
 20
25.416496
 30
0.0
 10
19.013177
 20
25.338621
 30
0.0
  0
SPLINE
  5
154
100
AcDbEntity
  8
0
 62
7
100
AcDbSpline
 70
8
 71
3
 72
8
 73
4
 74
0
 40
0
 40
0
 40
0
 40
0
 40
1
 40
1
 40
1
 40
1
 10
19.013177
 20
25.338621
 30
0.0
 10
19.204632
 20
25.260745
 30
0.0
 10
19.393134
 20
25.173124
 30
0.0
 10
19.577925
 20
25.075752
 30
0.0
  0
SPLINE
  5
155
100
AcDbEntity
  8
0
 62
7
100
AcDbSpline
 70
8
 71
3
 72
8
 73
4
 74
0
 40
0
 40
0
 40
0
 40
0
 40
1
 40
1
 40
1
 40
1
 10
19.577925
 20
25.075752
 30
0.0
 10
19.762716
 20
24.978380
 30
0.0
 10
19.943795
 20
24.871257
 30
0.0
 10
20.120406
 20
24.754377
 30
0.0
  0
SPLINE
  5
156
100
AcDbEntity
  8
0
 62
7
100
AcDbSpline
 70
8
 71
3
 72
8
 73
4
 74
0
 40
0
 40
0
 40
0
 40
0
 40
1
 40
1
 40
1
 40
1
 10
20.120406
 20
24.754377
 30
0.0
 10
20.297017
 20
24.637497
 30
0.0
 10
20.469159
 20
24.510861
 30
0.0
 10
20.636074
 20
24.374461
 30
0.0
  0
SPLINE
  5
157
100
AcDbEntity
  8
0
 62
7
100
AcDbSpline
 70
8
 71
3
 72
8
 73
4
 74
0
 40
0
 40
0
 40
0
 40
0
 40
1
 40
1
 40
1
 40
1
 10
20.636074
 20
24.374461
 30
0.0
 10
20.802989
 20
24.238063
 30
0.0
 10
20.964678
 20
24.091901
 30
0.0
 10
21.120382
 20
23.935973
 30
0.0
  0
SPLINE
  5
158
100
AcDbEntity
  8
0
 62
7
100
AcDbSpline
 70
8
 71
3
 72
8
 73
4
 74
0
 40
0
 40
0
 40
0
 40
0
 40
1
 40
1
 40
1
 40
1
 10
21.120382
 20
23.935973
 30
0.0
 10
21.432015
 20
23.624340
 30
0.0
 10
21.704556
 20
23.289147
 30
0.0
 10
21.938040
 20
22.936284
 30
0.0
  0
SPLINE
  5
159
100
AcDbEntity
  8
0
 62
7
100
AcDbSpline
 70
8
 71
3
 72
8
 73
4
 74
0
 40
0
 40
0
 40
0
 40
0
 40
1
 40
1
 40
1
 40
1
 10
21.938040
 20
22.936284
 30
0.0
 10
22.171523
 20
22.583422
 30
0.0
 10
22.365950
 20
22.212890
 30
0.0
 10
22.521353
 20
21.830578
 30
0.0
  0
SPLINE
  5
15a
100
AcDbEntity
  8
0
 62
7
100
AcDbSpline
 70
8
 71
3
 72
8
 73
4
 74
0
 40
0
 40
0
 40
0
 40
0
 40
1
 40
1
 40
1
 40
1
 10
22.521353
 20
21.830578
 30
0.0
 10
22.676756
 20
21.448265
 30
0.0
 10
22.793137
 20
21.054173
 30
0.0
 10
22.870529
 20
20.654191
 30
0.0
  0
SPLINE
  5
15b
100
AcDbEntity
  8
0
 62
7
100
AcDbSpline
 70
8
 71
3
 72
8
 73
4
 74
0
 40
0
 40
0
 40
0
 40
0
 40
1
 40
1
 40
1
 40
1
 10
22.870529
 20
20.654191
 30
0.0
 10
22.947920
 20
20.254209
 30
0.0
 10
22.986324
 20
19.848338
 30
0.0
 10
22.985772
 20
19.442466
 30
0.0
  0
SPLINE
  5
15c
100
AcDbEntity
  8
0
 62
7
100
AcDbSpline
 70
8
 71
3
 72
8
 73
4
 74
0
 40
0
 40
0
 40
0
 40
0
 40
1
 40
1
 40
1
 40
1
 10
22.985772
 20
19.442466
 30
0.0
 10
22.985208
 20
19.036594
 30
0.0
 10
22.945716
 20
18.630722
 30
0.0
 10
22.867291
 20
18.230740
 30
0.0
  0
SPLINE
  5
15d
100
AcDbEntity
  8
0
 62
7
100
AcDbSpline
 70
8
 71
3
 72
8
 73
4
 74
0
 40
0
 40
0
 40
0
 40
0
 40
1
 40
1
 40
1
 40
1
 10
22.867291
 20
18.230740
 30
0.0
 10
22.788866
 20
17.830758
 30
0.0
 10
22.671522
 20
17.436666
 30
0.0
 10
22.515292
 20
17.054354
 30
0.0
  0
SPLINE
  5
15e
100
AcDbEntity
  8
0
 62
7
100
AcDbSpline
 70
8
 71
3
 72
8
 73
4
 74
0
 40
0
 40
0
 40
0
 40
0
 40
1
 40
1
 40
1
 40
1
 10
22.515292
 20
17.054354
 30
0.0
 10
22.359061
 20
16.672042
 30
0.0
 10
22.163946
 20
16.301509
 30
0.0
 10
21.929980
 20
15.948647
 30
0.0
  0
SPLINE
  5
15f
100
AcDbEntity
  8
0
 62
7
100
AcDbSpline
 70
8
 71
3
 72
8
 73
4
 74
0
 40
0
 40
0
 40
0
 40
0
 40
1
 40
1
 40
1
 40
1
 10
21.929980
 20
15.948647
 30
0.0
 10
21.696013
 20
15.595784
 30
0.0
 10
21.423196
 20
15.260592
 30
0.0
 10
21.111562
 20
14.948959
 30
0.0
  0
SPLINE
  5
160
100
AcDbEntity
  8
0
 62
7
100
AcDbSpline
 70
8
 71
3
 72
8
 73
4
 74
0
 40
0
 40
0
 40
0
 40
0
 40
1
 40
1
 40
1
 40
1
 10
21.111562
 20
14.948959
 30
0.0
 10
20.799929
 20
14.637326
 30
0.0
 10
20.464736
 20
14.364647
 30
0.0
 10
20.111874
 20
14.130923
 30
0.0
  0
SPLINE
  5
161
100
AcDbEntity
  8
0
 62
7
100
AcDbSpline
 70
8
 71
3
 72
8
 73
4
 74
0
 40
0
 40
0
 40
0
 40
0
 40
1
 40
1
 40
1
 40
1
 10
20.111874
 20
14.130923
 30
0.0
 10
19.759011
 20
13.897199
 30
0.0
 10
19.388478
 20
13.702428
 30
0.0
 10
19.006166
 20
13.546612
 30
0.0
  0
SPLINE
  5
162
100
AcDbEntity
  8
0
 62
7
100
AcDbSpline
 70
8
 71
3
 72
8
 73
4
 74
0
 40
0
 40
0
 40
0
 40
0
 40
1
 40
1
 40
1
 40
1
 10
19.006166
 20
13.546612
 30
0.0
 10
18.623854
 20
13.390795
 30
0.0
 10
18.229762
 20
13.273933
 30
0.0
 10
17.829780
 20
13.196024
 30
0.0
  0
SPLINE
  5
163
100
AcDbEntity
  8
0
 62
7
100
AcDbSpline
 70
8
 71
3
 72
8
 73
4
 74
0
 40
0
 40
0
 40
0
 40
0
 40
1
 40
1
 40
1
 40
1
 10
17.829780
 20
13.196024
 30
0.0
 10
17.429798
 20
13.118116
 30
0.0
 10
17.023926
 20
13.079162
 30
0.0
 10
16.618054
 20
13.079162
 30
0.0
  0
SPLINE
  5
164
100
AcDbEntity
  8
0
 62
7
100
AcDbSpline
 70
8
 71
3
 72
8
 73
4
 74
0
 40
0
 40
0
 40
0
 40
0
 40
1
 40
1
 40
1
 40
1
 10
16.618054
 20
13.079162
 30
0.0
 10
16.212182
 20
13.079162
 30
0.0
 10
15.806311
 20
13.118116
 30
0.0
 10
15.406329
 20
13.196024
 30
0.0
  0
SPLINE
  5
165
100
AcDbEntity
  8
0
 62
7
100
AcDbSpline
 70
8
 71
3
 72
8
 73
4
 74
0
 40
0
 40
0
 40
0
 40
0
 40
1
 40
1
 40
1
 40
1
 10
15.406329
 20
13.196024
 30
0.0
 10
15.006347
 20
13.273932
 30
0.0
 10
14.612255
 20
13.390794
 30
0.0
 10
14.229943
 20
13.546611
 30
0.0
  0
SPLINE
  5
166
100
AcDbEntity
  8
0
 62
7
100
AcDbSpline
 70
8
 71
3
 72
8
 73
4
 74
0
 40
0
 40
0
 40
0
 40
0
 40
1
 40
1
 40
1
 40
1
 10
14.229943
 20
13.546611
 30
0.0
 10
13.847631
 20
13.702427
 30
0.0
 10
13.477099
 20
13.897198
 30
0.0
 10
13.124237
 20
14.130922
 30
0.0
  0
SPLINE
  5
167
100
AcDbEntity
  8
0
 62
7
100
AcDbSpline
 70
8
 71
3
 72
8
 73
4
 74
0
 40
0
 40
0
 40
0
 40
0
 40
1
 40
1
 40
1
 40
1
 10
13.124237
 20
14.130922
 30
0.0
 10
12.771374
 20
14.364647
 30
0.0
 10
12.436181
 20
14.637326
 30
0.0
 10
12.124549
 20
14.948959
 30
0.0
  0
SPLINE
  5
168
100
AcDbEntity
  8
0
 62
7
100
AcDbSpline
 70
8
 71
3
 72
8
 73
4
 74
0
 40
0
 40
0
 40
0
 40
0
 40
1
 40
1
 40
1
 40
1
 10
12.124549
 20
14.948959
 30
0.0
 10
11.812916
 20
15.260591
 30
0.0
 10
11.540237
 20
15.595784
 30
0.0
 10
11.306512
 20
15.948647
 30
0.0
  0
SPLINE
  5
169
100
AcDbEntity
  8
0
 62
7
100
AcDbSpline
 70
8
 71
3
 72
8
 73
4
 74
0
 40
0
 40
0
 40
0
 40
0
 40
1
 40
1
 40
1
 40
1
 10
11.306512
 20
15.948647
 30
0.0
 10
11.072788
 20
16.301509
 30
0.0
 10
10.878017
 20
16.672042
 30
0.0
 10
10.722201
 20
17.054354
 30
0.0
  0
SPLINE
  5
16a
100
AcDbEntity
  8
0
 62
7
100
AcDbSpline
 70
8
 71
3
 72
8
 73
4
 74
0
 40
0
 40
0
 40
0
 40
0
 40
1
 40
1
 40
1
 40
1
 10
10.722201
 20
17.054354
 30
0.0
 10
10.566385
 20
17.436666
 30
0.0
 10
10.449523
 20
17.830758
 30
0.0
 10
10.371615
 20
18.230740
 30
0.0
  0
SPLINE
  5
16b
100
AcDbEntity
  8
0
 62
7
100
AcDbSpline
 70
8
 71
3
 72
8
 73
4
 74
0
 40
0
 40
0
 40
0
 40
0
 40
1
 40
1
 40
1
 40
1
 10
10.371615
 20
18.230740
 30
0.0
 10
10.293707
 20
18.630722
 30
0.0
 10
10.254753
 20
19.036594
 30
0.0
 10
10.254753
 20
19.442466
 30
0.0
  0
SPLINE
  5
16c
100
AcDbEntity
  8
0
 62
7
100
AcDbSpline
 70
8
 71
3
 72
8
 73
4
 74
0
 40
0
 40
0
 40
0
 40
0
 40
1
 40
1
 40
1
 40
1
 10
10.254753
 20
19.442466
 30
0.0
 10
10.254753
 20
19.848338
 30
0.0
 10
10.293708
 20
20.254209
 30
0.0
 10
10.371616
 20
20.654191
 30
0.0
  0
SPLINE
  5
16d
100
AcDbEntity
  8
0
 62
7
100
AcDbSpline
 70
8
 71
3
 72
8
 73
4
 74
0
 40
0
 40
0
 40
0
 40
0
 40
1
 40
1
 40
1
 40
1
 10
10.371616
 20
20.654191
 30
0.0
 10
10.449524
 20
21.054173
 30
0.0
 10
10.566386
 20
21.448265
 30
0.0
 10
10.722203
 20
21.830578
 30
0.0
  0
SPLINE
  5
16e
100
AcDbEntity
  8
0
 62
7
100
AcDbSpline
 70
8
 71
3
 72
8
 73
4
 74
0
 40
0
 40
0
 40
0
 40
0
 40
1
 40
1
 40
1
 40
1
 10
10.722203
 20
21.830578
 30
0.0
 10
10.878019
 20
22.212890
 30
0.0
 10
11.072789
 20
22.583422
 30
0.0
 10
11.306514
 20
22.936284
 30
0.0
  0
SPLINE
  5
16f
100
AcDbEntity
  8
0
 62
7
100
AcDbSpline
 70
8
 71
3
 72
8
 73
4
 74
0
 40
0
 40
0
 40
0
 40
0
 40
1
 40
1
 40
1
 40
1
 10
11.306514
 20
22.936284
 30
0.0
 10
11.540238
 20
23.289147
 30
0.0
 10
11.812916
 20
23.624340
 30
0.0
 10
12.124549
 20
23.935973
 30
0.0
  0
SPLINE
  5
170
100
AcDbEntity
  8
0
 62
7
100
AcDbSpline
 70
8
 71
3
 72
8
 73
4
 74
0
 40
0
 40
0
 40
0
 40
0
 40
1
 40
1
 40
1
 40
1
 10
12.124549
 20
23.935973
 30
0.0
 10
12.280478
 20
24.091902
 30
0.0
 10
12.442307
 20
24.238063
 30
0.0
 10
12.609299
 20
24.374462
 30
0.0
  0
SPLINE
  5
171
100
AcDbEntity
  8
0
 62
7
100
AcDbSpline
 70
8
 71
3
 72
8
 73
4
 74
0
 40
0
 40
0
 40
0
 40
0
 40
1
 40
1
 40
1
 40
1
 10
12.609299
 20
24.374462
 30
0.0
 10
12.776291
 20
24.510861
 30
0.0
 10
12.948448
 20
24.637498
 30
0.0
 10
13.125030
 20
24.754378
 30
0.0
  0
SPLINE
  5
172
100
AcDbEntity
  8
0
 62
7
100
AcDbSpline
 70
8
 71
3
 72
8
 73
4
 74
0
 40
0
 40
0
 40
0
 40
0
 40
1
 40
1
 40
1
 40
1
 10
13.125030
 20
24.754378
 30
0.0
 10
13.301613
 20
24.871258
 30
0.0
 10
13.482622
 20
24.978381
 30
0.0
 10
13.667322
 20
25.075753
 30
0.0
  0
SPLINE
  5
173
100
AcDbEntity
  8
0
 62
7
100
AcDbSpline
 70
8
 71
3
 72
8
 73
4
 74
0
 40
0
 40
0
 40
0
 40
0
 40
1
 40
1
 40
1
 40
1
 10
13.667322
 20
25.075753
 30
0.0
 10
13.852021
 20
25.173125
 30
0.0
 10
14.040410
 20
25.260746
 30
0.0
 10
14.231753
 20
25.338621
 30
0.0
  0
SPLINE
  5
174
100
AcDbEntity
  8
0
 62
7
100
AcDbSpline
 70
8
 71
3
 72
8
 73
4
 74
0
 40
0
 40
0
 40
0
 40
0
 40
1
 40
1
 40
1
 40
1
 10
14.231753
 20
25.338621
 30
0.0
 10
14.423096
 20
25.416497
 30
0.0
 10
14.617391
 20
25.484626
 30
0.0
 10
14.813903
 20
25.543016
 30
0.0
  0
SPLINE
  5
175
100
AcDbEntity
  8
0
 62
7
100
AcDbSpline
 70
8
 71
3
 72
8
 73
4
 74
0
 40
0
 40
0
 40
0
 40
0
 40
1
 40
1
 40
1
 40
1
 10
14.813903
 20
25.543016
 30
0.0
 10
15.010416
 20
25.601406
 30
0.0
 10
15.209144
 20
25.650056
 30
0.0
 10
15.409353
 20
25.688971
 30
0.0
  0
SPLINE
  5
176
100
AcDbEntity
  8
0
 62
7
100
AcDbSpline
 70
8
 71
3
 72
8
 73
4
 74
0
 40
0
 40
0
 40
0
 40
0
 40
1
 40
1
 40
1
 40
1
 10
15.409353
 20
25.688971
 30
0.0
 10
15.609561
 20
25.727886
 30
0.0
 10
15.811249
 20
25.757067
 30
0.0
 10
16.013680
 20
25.776519
 30
0.0
  0
SPLINE
  5
177
100
AcDbEntity
  8
0
 62
7
100
AcDbSpline
 70
8
 71
3
 72
8
 73
4
 74
0
 40
0
 40
0
 40
0
 40
0
 40
1
 40
1
 40
1
 40
1
 10
16.013680
 20
25.776519
 30
0.0
 10
16.216111
 20
25.795972
 30
0.0
 10
16.419285
 20
25.805695
 30
0.0
 10
16.622465
 20
25.805695
 30
0.0
  0
LINE
  5
178
100
AcDbEntity
  8
0
 62
7
100
AcDbLine
 10
16.622465
 20
25.805695
 30
0.0
 11
16.622465
 21
25.805695
 31
0.0
  0
LINE
  5
179
100
AcDbEntity
  8
0
 62
7
100
AcDbLine
 10
8.314549
 20
14.825486
 30
0.0
 11
7.363151
 21
13.874089
 31
0.0
  0
LINE
  5
17a
100
AcDbEntity
  8
0
 62
7
100
AcDbLine
 10
7.363151
 20
13.874089
 30
0.0
 11
6.411753
 21
12.922691
 31
0.0
  0
LINE
  5
17b
100
AcDbEntity
  8
0
 62
7
100
AcDbLine
 10
6.411753
 20
12.922691
 30
0.0
 11
5.460356
 21
11.971294
 31
0.0
  0
LINE
  5
17c
100
AcDbEntity
  8
0
 62
7
100
AcDbLine
 10
5.460356
 20
11.971294
 30
0.0
 11
4.508958
 21
11.019896
 31
0.0
  0
LINE
  5
17d
100
AcDbEntity
  8
0
 62
7
100
AcDbLine
 10
4.508958
 20
11.019896
 30
0.0
 11
3.557561
 21
10.068498
 31
0.0
  0
LINE
  5
17e
100
AcDbEntity
  8
0
 62
7
100
AcDbLine
 10
3.557561
 20
10.068498
 30
0.0
 11
2.606163
 21
9.117101
 31
0.0
  0
LINE
  5
17f
100
AcDbEntity
  8
0
 62
7
100
AcDbLine
 10
2.606163
 20
9.117101
 30
0.0
 11
1.654766
 21
8.165703
 31
0.0
  0
LINE
  5
180
100
AcDbEntity
  8
0
 62
7
100
AcDbLine
 10
1.654766
 20
8.165703
 30
0.0
 11
0.703368
 21
7.214306
 31
0.0
  0
LINE
  5
181
100
AcDbEntity
  8
0
 62
7
100
AcDbLine
 10
0.703368
 20
7.214306
 30
0.0
 11
0.395644
 21
6.837992
 31
0.0
  0
LINE
  5
182
100
AcDbEntity
  8
0
 62
7
100
AcDbLine
 10
0.395644
 20
6.837992
 30
0.0
 11
0.175842
 21
6.421376
 31
0.0
  0
LINE
  5
183
100
AcDbEntity
  8
0
 62
7
100
AcDbLine
 10
0.175842
 20
6.421376
 30
0.0
 11
0.043960
 21
5.977891
 31
0.0
  0
LINE
  5
184
100
AcDbEntity
  8
0
 62
7
100
AcDbLine
 10
0.043960
 20
5.977891
 30
0.0
 11
0.000000
 21
5.520973
 31
0.0
  0
LINE
  5
185
100
AcDbEntity
  8
0
 62
7
100
AcDbLine
 10
0.000000
 20
5.520973
 30
0.0
 11
0.043960
 21
5.064053
 31
0.0
  0
LINE
  5
186
100
AcDbEntity
  8
0
 62
7
100
AcDbLine
 10
0.043960
 20
5.064053
 30
0.0
 11
0.175842
 21
4.620569
 31
0.0
  0
LINE
  5
187
100
AcDbEntity
  8
0
 62
7
100
AcDbLine
 10
0.175842
 20
4.620569
 30
0.0
 11
0.395645
 21
4.203953
 31
0.0
  0
LINE
  5
188
100
AcDbEntity
  8
0
 62
7
100
AcDbLine
 10
0.395645
 20
4.203953
 30
0.0
 11
0.703368
 21
3.827639
 31
0.0
  0
LINE
  5
189
100
AcDbEntity
  8
0
 62
7
100
AcDbLine
 10
0.703368
 20
3.827639
 30
0.0
 11
1.079681
 21
3.519916
 31
0.0
  0
LINE
  5
18a
100
AcDbEntity
  8
0
 62
7
100
AcDbLine
 10
1.079681
 20
3.519916
 30
0.0
 11
1.496298
 21
3.300113
 31
0.0
  0
LINE
  5
18b
100
AcDbEntity
  8
0
 62
7
100
AcDbLine
 10
1.496298
 20
3.300113
 30
0.0
 11
1.939782
 21
3.168232
 31
0.0
  0
LINE
  5
18c
100
AcDbEntity
  8
0
 62
7
100
AcDbLine
 10
1.939782
 20
3.168232
 30
0.0
 11
2.396701
 21
3.124271
 31
0.0
  0
LINE
  5
18d
100
AcDbEntity
  8
0
 62
7
100
AcDbLine
 10
2.396701
 20
3.124271
 30
0.0
 11
2.853620
 21
3.168232
 31
0.0
  0
LINE
  5
18e
100
AcDbEntity
  8
0
 62
7
100
AcDbLine
 10
2.853620
 20
3.168232
 30
0.0
 11
3.297105
 21
3.300113
 31
0.0
  0
LINE
  5
18f
100
AcDbEntity
  8
0
 62
7
100
AcDbLine
 10
3.297105
 20
3.300113
 30
0.0
 11
3.713721
 21
3.519916
 31
0.0
  0
LINE
  5
190
100
AcDbEntity
  8
0
 62
7
100
AcDbLine
 10
3.713721
 20
3.519916
 30
0.0
 11
4.090035
 21
3.827639
 31
0.0
  0
LINE
  5
191
100
AcDbEntity
  8
0
 62
7
100
AcDbLine
 10
4.090035
 20
3.827639
 30
0.0
 11
5.032613
 21
4.770217
 31
0.0
  0
LINE
  5
192
100
AcDbEntity
  8
0
 62
7
100
AcDbLine
 10
5.032613
 20
4.770217
 30
0.0
 11
5.975191
 21
5.712795
 31
0.0
  0
LINE
  5
193
100
AcDbEntity
  8
0
 62
7
100
AcDbLine
 10
5.975191
 20
5.712795
 30
0.0
 11
6.917769
 21
6.655373
 31
0.0
  0
LINE
  5
194
100
AcDbEntity
  8
0
 62
7
100
AcDbLine
 10
6.917769
 20
6.655373
 30
0.0
 11
7.860347
 21
7.597952
 31
0.0
  0
LINE
  5
195
100
AcDbEntity
  8
0
 62
7
100
AcDbLine
 10
7.860347
 20
7.597952
 30
0.0
 11
8.802925
 21
8.540530
 31
0.0
  0
LINE
  5
196
100
AcDbEntity
  8
0
 62
7
100
AcDbLine
 10
8.802925
 20
8.540530
 30
0.0
 11
9.745503
 21
9.483108
 31
0.0
  0
LINE
  5
197
100
AcDbEntity
  8
0
 62
7
100
AcDbLine
 10
9.745503
 20
9.483108
 30
0.0
 11
10.688082
 21
10.425686
 31
0.0
  0
LINE
  5
198
100
AcDbEntity
  8
0
 62
7
100
AcDbLine
 10
10.688082
 20
10.425686
 30
0.0
 11
11.630660
 21
11.368264
 31
0.0
  0
LINE
  5
199
100
AcDbEntity
  8
0
 62
7
100
AcDbLine
 10
11.630660
 20
11.368264
 30
0.0
 11
11.553505
 21
11.416041
 31
0.0
  0
LINE
  5
19a
100
AcDbEntity
  8
0
 62
7
100
AcDbLine
 10
11.553505
 20
11.416041
 30
0.0
 11
11.477214
 21
11.464814
 31
0.0
  0
LINE
  5
19b
100
AcDbEntity
  8
0
 62
7
100
AcDbLine
 10
11.477214
 20
11.464814
 30
0.0
 11
11.401668
 21
11.514506
 31
0.0
  0
LINE
  5
19c
100
AcDbEntity
  8
0
 62
7
100
AcDbLine
 10
11.401668
 20
11.514506
 30
0.0
 11
11.326748
 21
11.565037
 31
0.0
  0
LINE
  5
19d
100
AcDbEntity
  8
0
 62
7
100
AcDbLine
 10
11.326748
 20
11.565037
 30
0.0
 11
11.252335
 21
11.616326
 31
0.0
  0
LINE
  5
19e
100
AcDbEntity
  8
0
 62
7
100
AcDbLine
 10
11.252335
 20
11.616326
 30
0.0
 11
11.178308
 21
11.668296
 31
0.0
  0
LINE
  5
19f
100
AcDbEntity
  8
0
 62
7
100
AcDbLine
 10
11.178308
 20
11.668296
 30
0.0
 11
11.104549
 21
11.720867
 31
0.0
  0
LINE
  5
1a0
100
AcDbEntity
  8
0
 62
7
100
AcDbLine
 10
11.104549
 20
11.720867
 30
0.0
 11
11.030937
 21
11.773959
 31
0.0
  0
LINE
  5
1a1
100
AcDbEntity
  8
0
 62
7
100
AcDbLine
 10
11.030937
 20
11.773959
 30
0.0
 11
10.612917
 21
12.081385
 31
0.0
  0
LINE
  5
1a2
100
AcDbEntity
  8
0
 62
7
100
AcDbLine
 10
10.612917
 20
12.081385
 30
0.0
 11
10.216426
 21
12.412764
 31
0.0
  0
LINE
  5
1a3
100
AcDbEntity
  8
0
 62
7
100
AcDbLine
 10
10.216426
 20
12.412764
 30
0.0
 11
9.841909
 21
12.766693
 31
0.0
  0
LINE
  5
1a4
100
AcDbEntity
  8
0
 62
7
100
AcDbLine
 10
9.841909
 20
12.766693
 30
0.0
 11
9.489813
 21
13.141768
 31
0.0
  0
LINE
  5
1a5
100
AcDbEntity
  8
0
 62
7
100
AcDbLine
 10
9.489813
 20
13.141768
 30
0.0
 11
9.160583
 21
13.536589
 31
0.0
  0
LINE
  5
1a6
100
AcDbEntity
  8
0
 62
7
100
AcDbLine
 10
9.160583
 20
13.536589
 30
0.0
 11
8.854665
 21
13.949750
 31
0.0
  0
LINE
  5
1a7
100
AcDbEntity
  8
0
 62
7
100
AcDbLine
 10
8.854665
 20
13.949750
 30
0.0
 11
8.572505
 21
14.379850
 31
0.0
  0
LINE
  5
1a8
100
AcDbEntity
  8
0
 62
7
100
AcDbLine
 10
8.572505
 20
14.379850
 30
0.0
 11
8.314549
 21
14.825486
 31
0.0
  0
ENDSEC
  0
SECTION
  2
OBJECTS
  0
DICTIONARY
  5
C
330
0
100
AcDbDictionary
  3
ACAD_GROUP
350
D
  3
ACAD_MLINESTYLE
350
17
  0
DICTIONARY
  5
D
330
C
100
AcDbDictionary
  0
DICTIONARY
  5
1A
330
C
100
AcDbDictionary
  0
DICTIONARY
  5
17
330
C
100
AcDbDictionary
  3
STANDARD
350
18
  0
DICTIONARY
  5
19
330
C
100
AcDbDictionary
  0
ENDSEC
  0
EOF
