<?xml version="1.0" encoding="UTF-8" standalone="no"?>
<svg
   xmlns:dc="http://purl.org/dc/elements/1.1/"
   xmlns:cc="http://creativecommons.org/ns#"
   xmlns:rdf="http://www.w3.org/1999/02/22-rdf-syntax-ns#"
   xmlns:svg="http://www.w3.org/2000/svg"
   xmlns="http://www.w3.org/2000/svg"
   xmlns:sodipodi="http://sodipodi.sourceforge.net/DTD/sodipodi-0.dtd"
   xmlns:inkscape="http://www.inkscape.org/namespaces/inkscape"
   version="1.1"
   x="0px"
   y="0px"
   viewBox="0 0 85.725 90"
   enable-background="new 0 0 100 100"
   xml:space="preserve"
   id="svg4551"
   inkscape:version="0.48.4 r9939"
   width="100%"
   height="100%"
   sodipodi:docname="noun_thought_bubble_75855_cc.svg"><metadata
     id="metadata4571"><rdf:RDF><cc:Work
         rdf:about=""><dc:format>image/svg+xml</dc:format><dc:type
           rdf:resource="http://purl.org/dc/dcmitype/StillImage" /><dc:title></dc:title></cc:Work></rdf:RDF></metadata><defs
     id="defs4569" /><sodipodi:namedview
     pagecolor="#ffffff"
     bordercolor="#666666"
     borderopacity="1"
     objecttolerance="10"
     gridtolerance="10"
     guidetolerance="10"
     inkscape:pageopacity="0"
     inkscape:pageshadow="2"
     inkscape:window-width="780"
     inkscape:window-height="659"
     id="namedview4567"
     showgrid="false"
     fit-margin-top="0"
     fit-margin-left="0"
     fit-margin-right="0"
     fit-margin-bottom="0"
     inkscape:zoom="3.3623403"
     inkscape:cx="62.711709"
     inkscape:cy="45.850784"
     inkscape:window-x="1537"
     inkscape:window-y="612"
     inkscape:window-maximized="0"
     inkscape:current-layer="svg4551" /><g
     id="g4553"
     transform="translate(-7.138,-5)"
     style="stroke:#000000;stroke-opacity:1"><g
       id="g4555"
       style="stroke:#000000;stroke-opacity:1"><path
         d="M 12.202,86.914 10.630078,87.232078 9.345125,88.098875 8.4781094,89.383234 8.16,90.954 8.47825,92.527813 9.3455,93.814 10.6305,94.681688 12.202,95 13.773922,94.681688 15.058875,93.814 15.925891,92.527813 16.244,90.954 15.926031,89.383234 15.05925,88.098875 13.774344,87.232078 z"
         id="path4557"
         inkscape:connector-curvature="0"
         style="fill:none;stroke:#000000;stroke-opacity:1"
         sodipodi:nodetypes="ccccccccccccccccc" /><path
         d="m 20.352,72.905 -2.339516,0.473734 -1.912859,1.291141 -1.290922,1.913453 L 14.335,78.924 l 0.473563,2.340516 1.290687,1.913109 1.912812,1.290797 L 20.352,84.942 22.693406,84.468563 24.6075,83.178 25.899094,81.264938 26.373,78.924 25.899094,76.583328 24.6075,74.669875 22.693406,73.378734 z"
         id="path4559"
         inkscape:connector-curvature="0"
         style="fill:none;stroke:#000000;stroke-opacity:1"
         sodipodi:nodetypes="ccccccccccccccccc" /><path
         d="m 82.177,48.927 -0.0865,0.03937 -0.0865,0.03937 -0.0865,0.03937 -0.0865,0.03937 -0.0865,0.03937 -0.0865,0.03937 -0.0865,0.03937 -0.0865,0.03937 0.042,0.08538 0.042,0.08537 0.042,0.08537 0.042,0.08537 0.042,0.08537 0.042,0.08537 0.042,0.08537 0.042,0.08537 0.238244,0.517375 0.206897,0.525063 0.17542,0.532281 0.143814,0.539031 0.11208,0.545313 0.08022,0.551125 0.04822,0.556468 0.0161,0.561344 -0.199307,1.970939 -0.571459,1.837077 -0.90392,1.663474 -1.196689,1.450135 -1.449768,1.197057 -1.663154,0.90424 -1.836849,0.571685 L 73.05,64.047 72.455,64.029486 71.867313,63.977016 71.287406,63.889693 70.71575,63.767625 70.152813,63.610916 69.599063,63.419672 69.054969,63.193998 68.521,62.934 68.427,62.8845 68.333,62.835 68.239,62.7855 68.145,62.736 68.051,62.6865 67.957,62.637 67.863,62.5875 67.769,62.538 l -0.03563,0.1 -0.03562,0.1 -0.03562,0.1 -0.03563,0.1 -0.03562,0.1 -0.03562,0.1 -0.03562,0.1 -0.03563,0.1 -1.002625,2.241922 -1.315375,2.024516 -1.5925,1.781984 -1.834,1.514328 -2.039875,1.221547 L 57.4895,73.025938 55.14475,73.586547 52.701,73.779 50.718131,73.654521 48.793047,73.287922 46.944533,72.689455 45.191375,71.869375 43.552357,70.837936 42.046266,69.605391 40.691885,68.181994 39.508,66.578 39.446,66.48175 39.384,66.3855 39.322,66.28925 39.26,66.193 39.198,66.09675 39.136,66.0005 39.074,65.90425 39.012,65.808 l -0.08075,0.081 -0.08075,0.081 -0.08075,0.081 -0.08075,0.081 -0.08075,0.081 -0.08075,0.081 -0.08075,0.081 -0.08075,0.081 -0.72127,0.656998 -0.773511,0.576736 -0.820434,0.494213 -0.862035,0.409428 -0.898316,0.322381 -0.929278,0.233072 L 32.406238,69.29033 31.431,69.338 29.460146,69.138648 27.623297,68.567063 25.960143,67.662945 24.510375,66.466 23.313686,65.01593 22.409766,63.352438 21.838307,61.515227 21.639,59.544 l 5.8e-4,-0.05854 0.0016,-0.05859 0.0025,-0.05859 0.0032,-0.05854 0.0037,-0.05844 0.004,-0.05831 0.0042,-0.05812 L 21.663,59.077 21.67,58.976875 21.677,58.87675 21.684,58.776625 21.691,58.6765 21.698,58.576375 21.705,58.47625 21.712,58.376125 21.719,58.276 21.638375,58.26075 21.55775,58.2455 21.477125,58.23025 21.3965,58.215 21.315875,58.19975 21.23525,58.1845 21.154625,58.16925 21.074,58.154 18.466053,57.41918 16.081922,56.265438 13.959799,54.738852 12.137875,52.8855 10.654342,50.751461 9.5473906,48.382813 8.8552129,45.825633 8.616,43.126 8.7818906,40.877203 9.2668125,38.71175 10.051641,36.658797 11.11725,34.7475 12.444516,33.007016 14.014313,31.4665 15.807516,30.155109 17.805,29.102 17.87537,29.07125 17.94575,29.0405 18.01612,29.00975 18.0865,28.979 18.15687,28.94825 18.22725,28.9175 18.29762,28.88675 18.368,28.856 18.3505,28.78125 18.333,28.7065 18.3155,28.63175 18.298,28.557 18.2805,28.48225 18.263,28.4075 18.2455,28.33275 18.228,28.258 l -0.103402,-0.470041 -0.08969,-0.4686 -0.07596,-0.466748 -0.0622,-0.464486 -0.04842,-0.461814 -0.03461,-0.458733 -0.02079,-0.45524 L 17.786,24.561 18.112162,21.335527 19.047359,18.329406 20.526658,15.607582 22.485125,13.235 24.857826,11.276605 27.579828,9.7973438 30.586197,8.8621602 33.812,8.536 l 1.612209,0.079637 1.578025,0.2364571 1.535065,0.3895976 1.483326,0.5390586 1.422811,0.6848397 1.353517,0.826941 1.275447,0.965364 1.1886,1.100105 0.081,0.08287 0.081,0.08287 0.081,0.08287 0.081,0.08288 0.081,0.08287 0.081,0.08287 0.081,0.08287 0.081,0.08288 0.0625,-0.09775 L 46.034,13.8255 46.0965,13.72775 46.159,13.63 46.2215,13.53225 46.284,13.4345 46.3465,13.33675 46.409,13.239 47.510164,11.731791 48.771687,10.394328 50.175992,9.2362324 51.7055,8.267125 53.342633,7.496627 55.069813,6.9343594 56.869461,6.5899434 58.724,6.473 l 2.590184,0.2297148 2.45141,0.6646915 2.268551,1.0629882 2.041605,1.4246055 1.770574,1.749543 1.455457,2.037801 1.096254,2.289379 0.692965,2.504277 0.0155,0.08462 0.0155,0.08463 0.0155,0.08462 0.0155,0.08462 0.0155,0.08462 0.0155,0.08463 0.0155,0.08462 0.0155,0.08462 0.08562,-0.0096 0.08563,-0.0096 0.08562,-0.0096 0.08563,-0.0096 0.08562,-0.0096 0.08563,-0.0096 0.08562,-0.0096 0.08563,-0.0096 0.239641,-0.0256 0.233922,-0.02207 0.228578,-0.01858 0.223609,-0.01512 0.219016,-0.0117 0.214797,-0.0083 0.210953,-0.005 0.207484,-0.0016 3.162354,0.319717 2.947349,0.916705 2.668654,1.450025 2.326268,1.919678 1.920189,2.325662 1.45042,2.667979 0.916959,2.946627 L 91.39,34.636 91.223283,36.907016 90.736703,39.099 89.94949,41.182234 88.880875,43.127 87.550088,44.903578 85.976359,46.48225 84.17892,47.833297 z"
         id="path4561"
         inkscape:connector-curvature="0"
         style="fill:none;stroke:#000000;stroke-opacity:1"
         sodipodi:nodetypes="ccccccccccccccccccccccccccccccccccccccccccccccccccccccccccccccccccccccccccccccccccccccccccccccccccccccccccccccccccccccccccccccccccccccccccccccccccccccccccccccccccccccccccccccccccccccccccccccccccccccccccccccccccccccccccccccccccccccccccccccccccccccccccccccccc" /></g></g></svg>