  0
SECTION
  2
HEADER
  9
$ACADVER
  1
AC1014
  9
$HANDSEED
  5
FFFF
  9
$MEASUREMENT
 70
     1
  0
ENDSEC
  0
SECTION
  2
TABLES
  0
TABLE
  2
VPORT
  5
8
330
0
100
AcDbSymbolTable
 70
     4
  0
VPORT
  5
2E
330
8
100
AcDbSymbolTableRecord
100
AcDbViewportTableRecord
  2
*ACTIVE
 70
     0
 10
0.0
 20
0.0
 11
1.0
 21
1.0
 12
210.0
 22
148.5
 13
0.0
 23
0.0
 14
10.0
 24
10.0
 15
10.0
 25
10.0
 16
0.0
 26
0.0
 36
1.0
 17
0.0
 27
0.0
 37
0.0
 40
341.0
 41
1.24
 42
50.0
 43
0.0
 44
0.0
 50
0.0
 51
0.0
 71
     0
 72
   100
 73
     1
 74
     3
 75
     0
 76
     0
 77
     0
 78
     0
  0
ENDTAB
  0
TABLE
  2
LTYPE
  5
5
330
0
100
AcDbSymbolTable
 70
     1
  0
LTYPE
  5
14
330
5
100
AcDbSymbolTableRecord
100
AcDbLinetypeTableRecord
  2
BYBLOCK
 70
     0
  3

 72
    65
 73
     0
 40
0.0
  0
LTYPE
  5
15
330
5
100
AcDbSymbolTableRecord
100
AcDbLinetypeTableRecord
  2
BYLAYER
 70
     0
  3

 72
    65
 73
     0
 40
0.0
  0
LTYPE
  5
16
330
5
100
AcDbSymbolTableRecord
100
AcDbLinetypeTableRecord
  2
CONTINUOUS
 70
     0
  3
Solid line
 72
    65
 73
     0
 40
0.0
  0
ENDTAB
  0
TABLE
  2
LAYER
  5
2
100
AcDbSymbolTable
 70
1
  0
LAYER
  5
50
100
AcDbSymbolTableRecord
100
AcDbLayerTableRecord
  2
0
 70
0
  6
CONTINUOUS
  0
ENDTAB
  0
TABLE
  2
STYLE
  5
3
330
0
100
AcDbSymbolTable
 70
     1
  0
STYLE
  5
11
330
3
100
AcDbSymbolTableRecord
100
AcDbTextStyleTableRecord
  2
STANDARD
 70
     0
 40
0.0
 41
1.0
 50
0.0
 71
     0
 42
2.5
  3
txt
  4

  0
ENDTAB
  0
TABLE
  2
VIEW
  5
6
330
0
100
AcDbSymbolTable
 70
     0
  0
ENDTAB
  0
TABLE
  2
UCS
  5
7
330
0
100
AcDbSymbolTable
 70
     0
  0
ENDTAB
  0
TABLE
  2
APPID
  5
9
330
0
100
AcDbSymbolTable
 70
     2
  0
APPID
  5
12
330
9
100
AcDbSymbolTableRecord
100
AcDbRegAppTableRecord
  2
ACAD
 70
     0
  0
ENDTAB
  0
TABLE
  2
DIMSTYLE
  5
A
330
0
100
AcDbSymbolTable
 70
     1
  0
DIMSTYLE
105
27
330
A
100
AcDbSymbolTableRecord
100
AcDbDimStyleTableRecord
  2
ISO-25
 70
     0
  3

  4

  5

  6

  7

 40
1.0
 41
2.5
 42
0.625
 43
3.75
 44
1.25
 45
0.0
 46
0.0
 47
0.0
 48
0.0
140
2.5
141
2.5
142
0.0
143
0.03937007874016
144
1.0
145
0.0
146
1.0
147
0.625
 71
     0
 72
     0
 73
     0
 74
     0
 75
     0
 76
     0
 77
     1
 78
     8
170
     0
171
     3
172
     1
173
     0
174
     0
175
     0
176
     0
177
     0
178
     0
270
     2
271
     2
272
     2
273
     2
274
     3
340
11
275
     0
280
     0
281
     0
282
     0
283
     0
284
     8
285
     0
286
     0
287
     3
288
     0
  0
ENDTAB
  0
TABLE
  2
BLOCK_RECORD
  5
1
330
0
100
AcDbSymbolTable
 70
     1
  0
BLOCK_RECORD
  5
1F
330
1
100
AcDbSymbolTableRecord
100
AcDbBlockTableRecord
  2
*MODEL_SPACE
  0
BLOCK_RECORD
  5
1B
330
1
100
AcDbSymbolTableRecord
100
AcDbBlockTableRecord
  2
*PAPER_SPACE
  0
ENDTAB
  0
ENDSEC
  0
SECTION
  2
BLOCKS
  0
BLOCK
  5
20
330
1F
100
AcDbEntity
  8
0
100
AcDbBlockBegin
  2
*MODEL_SPACE
 70
     0
 10
0.0
 20
0.0
 30
0.0
  3
*MODEL_SPACE
  1

  0
ENDBLK
  5
21
330
1F
100
AcDbEntity
  8
0
100
AcDbBlockEnd
  0
BLOCK
  5
1C
330
1B
100
AcDbEntity
 67
     1
  8
0
100
AcDbBlockBegin
  2
*PAPER_SPACE
  1

  0
ENDBLK
  5
1D
330
1B
100
AcDbEntity
 67
     1
  8
0
100
AcDbBlockEnd
  0
ENDSEC
  0
SECTION
  2
ENTITIES
  0
LINE
  5
100
100
AcDbEntity
  8
0
 62
7
100
AcDbLine
 10
11.641667
 20
28.222222
 30
0.0
 11
11.416576
 21
28.220089
 31
0.0
  0
LINE
  5
101
100
AcDbEntity
  8
0
 62
7
100
AcDbLine
 10
11.416576
 20
28.220089
 30
0.0
 11
11.192522
 21
28.213717
 31
0.0
  0
LINE
  5
102
100
AcDbEntity
  8
0
 62
7
100
AcDbLine
 10
11.192522
 20
28.213717
 30
0.0
 11
10.969543
 21
28.203142
 31
0.0
  0
LINE
  5
103
100
AcDbEntity
  8
0
 62
7
100
AcDbLine
 10
10.969543
 20
28.203142
 30
0.0
 11
10.747679
 21
28.188404
 31
0.0
  0
LINE
  5
104
100
AcDbEntity
  8
0
 62
7
100
AcDbLine
 10
10.747679
 20
28.188404
 30
0.0
 11
10.526967
 21
28.169541
 31
0.0
  0
LINE
  5
105
100
AcDbEntity
  8
0
 62
7
100
AcDbLine
 10
10.526967
 20
28.169541
 30
0.0
 11
10.307446
 21
28.146592
 31
0.0
  0
LINE
  5
106
100
AcDbEntity
  8
0
 62
7
100
AcDbLine
 10
10.307446
 20
28.146592
 30
0.0
 11
10.089154
 21
28.119594
 31
0.0
  0
LINE
  5
107
100
AcDbEntity
  8
0
 62
7
100
AcDbLine
 10
10.089154
 20
28.119594
 30
0.0
 11
9.872129
 21
28.088586
 31
0.0
  0
LINE
  5
108
100
AcDbEntity
  8
0
 62
7
100
AcDbLine
 10
9.872129
 20
28.088586
 30
0.0
 11
9.656410
 21
28.053607
 31
0.0
  0
LINE
  5
109
100
AcDbEntity
  8
0
 62
7
100
AcDbLine
 10
9.656410
 20
28.053607
 30
0.0
 11
9.442035
 21
28.014694
 31
0.0
  0
LINE
  5
10a
100
AcDbEntity
  8
0
 62
7
100
AcDbLine
 10
9.442035
 20
28.014694
 30
0.0
 11
9.229043
 21
27.971887
 31
0.0
  0
LINE
  5
10b
100
AcDbEntity
  8
0
 62
7
100
AcDbLine
 10
9.229043
 20
27.971887
 30
0.0
 11
9.017471
 21
27.925223
 31
0.0
  0
LINE
  5
10c
100
AcDbEntity
  8
0
 62
7
100
AcDbLine
 10
9.017471
 20
27.925223
 30
0.0
 11
8.807359
 21
27.874741
 31
0.0
  0
LINE
  5
10d
100
AcDbEntity
  8
0
 62
7
100
AcDbLine
 10
8.807359
 20
27.874741
 30
0.0
 11
8.598744
 21
27.820479
 31
0.0
  0
LINE
  5
10e
100
AcDbEntity
  8
0
 62
7
100
AcDbLine
 10
8.598744
 20
27.820479
 30
0.0
 11
8.391664
 21
27.762475
 31
0.0
  0
LINE
  5
10f
100
AcDbEntity
  8
0
 62
7
100
AcDbLine
 10
8.391664
 20
27.762475
 30
0.0
 11
8.186160
 21
27.700769
 31
0.0
  0
LINE
  5
110
100
AcDbEntity
  8
0
 62
7
100
AcDbLine
 10
8.186160
 20
27.700769
 30
0.0
 11
7.982267
 21
27.635398
 31
0.0
  0
LINE
  5
111
100
AcDbEntity
  8
0
 62
7
100
AcDbLine
 10
7.982267
 20
27.635398
 30
0.0
 11
7.780026
 21
27.566400
 31
0.0
  0
LINE
  5
112
100
AcDbEntity
  8
0
 62
7
100
AcDbLine
 10
7.780026
 20
27.566400
 30
0.0
 11
7.579475
 21
27.493814
 31
0.0
  0
LINE
  5
113
100
AcDbEntity
  8
0
 62
7
100
AcDbLine
 10
7.579475
 20
27.493814
 30
0.0
 11
7.380650
 21
27.417679
 31
0.0
  0
LINE
  5
114
100
AcDbEntity
  8
0
 62
7
100
AcDbLine
 10
7.380650
 20
27.417679
 30
0.0
 11
7.183592
 21
27.338032
 31
0.0
  0
LINE
  5
115
100
AcDbEntity
  8
0
 62
7
100
AcDbLine
 10
7.183592
 20
27.338032
 30
0.0
 11
6.988339
 21
27.254912
 31
0.0
  0
LINE
  5
116
100
AcDbEntity
  8
0
 62
7
100
AcDbLine
 10
6.988339
 20
27.254912
 30
0.0
 11
6.794928
 21
27.168358
 31
0.0
  0
LINE
  5
117
100
AcDbEntity
  8
0
 62
7
100
AcDbLine
 10
6.794928
 20
27.168358
 30
0.0
 11
6.603398
 21
27.078407
 31
0.0
  0
LINE
  5
118
100
AcDbEntity
  8
0
 62
7
100
AcDbLine
 10
6.603398
 20
27.078407
 30
0.0
 11
6.413788
 21
26.985098
 31
0.0
  0
LINE
  5
119
100
AcDbEntity
  8
0
 62
7
100
AcDbLine
 10
6.413788
 20
26.985098
 30
0.0
 11
6.226135
 21
26.888470
 31
0.0
  0
LINE
  5
11a
100
AcDbEntity
  8
0
 62
7
100
AcDbLine
 10
6.226135
 20
26.888470
 30
0.0
 11
6.040479
 21
26.788561
 31
0.0
  0
LINE
  5
11b
100
AcDbEntity
  8
0
 62
7
100
AcDbLine
 10
6.040479
 20
26.788561
 30
0.0
 11
5.856857
 21
26.685408
 31
0.0
  0
LINE
  5
11c
100
AcDbEntity
  8
0
 62
7
100
AcDbLine
 10
5.856857
 20
26.685408
 30
0.0
 11
5.675308
 21
26.579051
 31
0.0
  0
LINE
  5
11d
100
AcDbEntity
  8
0
 62
7
100
AcDbLine
 10
5.675308
 20
26.579051
 30
0.0
 11
5.495871
 21
26.469528
 31
0.0
  0
LINE
  5
11e
100
AcDbEntity
  8
0
 62
7
100
AcDbLine
 10
5.495871
 20
26.469528
 30
0.0
 11
5.318583
 21
26.356877
 31
0.0
  0
LINE
  5
11f
100
AcDbEntity
  8
0
 62
7
100
AcDbLine
 10
5.318583
 20
26.356877
 30
0.0
 11
5.143483
 21
26.241137
 31
0.0
  0
LINE
  5
120
100
AcDbEntity
  8
0
 62
7
100
AcDbLine
 10
5.143483
 20
26.241137
 30
0.0
 11
4.855744
 21
26.040849
 31
0.0
  0
LINE
  5
121
100
AcDbEntity
  8
0
 62
7
100
AcDbLine
 10
4.855744
 20
26.040849
 30
0.0
 11
4.574407
 21
25.832212
 31
0.0
  0
LINE
  5
122
100
AcDbEntity
  8
0
 62
7
100
AcDbLine
 10
4.574407
 20
25.832212
 30
0.0
 11
4.299651
 21
25.615406
 31
0.0
  0
LINE
  5
123
100
AcDbEntity
  8
0
 62
7
100
AcDbLine
 10
4.299651
 20
25.615406
 30
0.0
 11
4.031655
 21
25.390611
 31
0.0
  0
LINE
  5
124
100
AcDbEntity
  8
0
 62
7
100
AcDbLine
 10
4.031655
 20
25.390611
 30
0.0
 11
3.770598
 21
25.158004
 31
0.0
  0
LINE
  5
125
100
AcDbEntity
  8
0
 62
7
100
AcDbLine
 10
3.770598
 20
25.158004
 30
0.0
 11
3.516659
 21
24.917766
 31
0.0
  0
LINE
  5
126
100
AcDbEntity
  8
0
 62
7
100
AcDbLine
 10
3.516659
 20
24.917766
 30
0.0
 11
3.270019
 21
24.670076
 31
0.0
  0
LINE
  5
127
100
AcDbEntity
  8
0
 62
7
100
AcDbLine
 10
3.270019
 20
24.670076
 30
0.0
 11
3.030855
 21
24.415113
 31
0.0
  0
LINE
  5
128
100
AcDbEntity
  8
0
 62
7
100
AcDbLine
 10
3.030855
 20
24.415113
 30
0.0
 11
2.799347
 21
24.153056
 31
0.0
  0
LINE
  5
129
100
AcDbEntity
  8
0
 62
7
100
AcDbLine
 10
2.799347
 20
24.153056
 30
0.0
 11
2.575675
 21
23.884084
 31
0.0
  0
LINE
  5
12a
100
AcDbEntity
  8
0
 62
7
100
AcDbLine
 10
2.575675
 20
23.884084
 30
0.0
 11
2.360018
 21
23.608377
 31
0.0
  0
LINE
  5
12b
100
AcDbEntity
  8
0
 62
7
100
AcDbLine
 10
2.360018
 20
23.608377
 30
0.0
 11
2.152554
 21
23.326113
 31
0.0
  0
LINE
  5
12c
100
AcDbEntity
  8
0
 62
7
100
AcDbLine
 10
2.152554
 20
23.326113
 30
0.0
 11
1.953464
 21
23.037473
 31
0.0
  0
LINE
  5
12d
100
AcDbEntity
  8
0
 62
7
100
AcDbLine
 10
1.953464
 20
23.037473
 30
0.0
 11
1.762925
 21
22.742634
 31
0.0
  0
LINE
  5
12e
100
AcDbEntity
  8
0
 62
7
100
AcDbLine
 10
1.762925
 20
22.742634
 30
0.0
 11
1.581119
 21
22.441777
 31
0.0
  0
LINE
  5
12f
100
AcDbEntity
  8
0
 62
7
100
AcDbLine
 10
1.581119
 20
22.441777
 30
0.0
 11
1.408223
 21
22.135080
 31
0.0
  0
LINE
  5
130
100
AcDbEntity
  8
0
 62
7
100
AcDbLine
 10
1.408223
 20
22.135080
 30
0.0
 11
1.244417
 21
21.822723
 31
0.0
  0
LINE
  5
131
100
AcDbEntity
  8
0
 62
7
100
AcDbLine
 10
1.244417
 20
21.822723
 30
0.0
 11
1.089880
 21
21.504885
 31
0.0
  0
LINE
  5
132
100
AcDbEntity
  8
0
 62
7
100
AcDbLine
 10
1.089880
 20
21.504885
 30
0.0
 11
0.944792
 21
21.181745
 31
0.0
  0
LINE
  5
133
100
AcDbEntity
  8
0
 62
7
100
AcDbLine
 10
0.944792
 20
21.181745
 30
0.0
 11
0.809331
 21
20.853482
 31
0.0
  0
LINE
  5
134
100
AcDbEntity
  8
0
 62
7
100
AcDbLine
 10
0.809331
 20
20.853482
 30
0.0
 11
0.683677
 21
20.520276
 31
0.0
  0
LINE
  5
135
100
AcDbEntity
  8
0
 62
7
100
AcDbLine
 10
0.683677
 20
20.520276
 30
0.0
 11
0.568010
 21
20.182306
 31
0.0
  0
LINE
  5
136
100
AcDbEntity
  8
0
 62
7
100
AcDbLine
 10
0.568010
 20
20.182306
 30
0.0
 11
0.462507
 21
19.839751
 31
0.0
  0
LINE
  5
137
100
AcDbEntity
  8
0
 62
7
100
AcDbLine
 10
0.462507
 20
19.839751
 30
0.0
 11
0.367350
 21
19.492789
 31
0.0
  0
LINE
  5
138
100
AcDbEntity
  8
0
 62
7
100
AcDbLine
 10
0.367350
 20
19.492789
 30
0.0
 11
0.282716
 21
19.141601
 31
0.0
  0
LINE
  5
139
100
AcDbEntity
  8
0
 62
7
100
AcDbLine
 10
0.282716
 20
19.141601
 30
0.0
 11
0.208785
 21
18.786366
 31
0.0
  0
LINE
  5
13a
100
AcDbEntity
  8
0
 62
7
100
AcDbLine
 10
0.208785
 20
18.786366
 30
0.0
 11
0.145736
 21
18.427262
 31
0.0
  0
LINE
  5
13b
100
AcDbEntity
  8
0
 62
7
100
AcDbLine
 10
0.145736
 20
18.427262
 30
0.0
 11
0.093749
 21
18.064469
 31
0.0
  0
LINE
  5
13c
100
AcDbEntity
  8
0
 62
7
100
AcDbLine
 10
0.093749
 20
18.064469
 30
0.0
 11
0.053003
 21
17.698166
 31
0.0
  0
LINE
  5
13d
100
AcDbEntity
  8
0
 62
7
100
AcDbLine
 10
0.053003
 20
17.698166
 30
0.0
 11
0.023676
 21
17.328533
 31
0.0
  0
LINE
  5
13e
100
AcDbEntity
  8
0
 62
7
100
AcDbLine
 10
0.023676
 20
17.328533
 30
0.0
 11
0.005949
 21
16.955748
 31
0.0
  0
LINE
  5
13f
100
AcDbEntity
  8
0
 62
7
100
AcDbLine
 10
0.005949
 20
16.955748
 30
0.0
 11
0.000000
 21
16.579991
 31
0.0
  0
LINE
  5
140
100
AcDbEntity
  8
0
 62
7
100
AcDbLine
 10
0.000000
 20
16.579991
 30
0.0
 11
0.015149
 21
15.980933
 31
0.0
  0
LINE
  5
141
100
AcDbEntity
  8
0
 62
7
100
AcDbLine
 10
0.015149
 20
15.980933
 30
0.0
 11
0.060107
 21
15.389739
 31
0.0
  0
LINE
  5
142
100
AcDbEntity
  8
0
 62
7
100
AcDbLine
 10
0.060107
 20
15.389739
 30
0.0
 11
0.134143
 21
14.807143
 31
0.0
  0
LINE
  5
143
100
AcDbEntity
  8
0
 62
7
100
AcDbLine
 10
0.134143
 20
14.807143
 30
0.0
 11
0.236526
 21
14.233874
 31
0.0
  0
LINE
  5
144
100
AcDbEntity
  8
0
 62
7
100
AcDbLine
 10
0.236526
 20
14.233874
 30
0.0
 11
0.366523
 21
13.670664
 31
0.0
  0
LINE
  5
145
100
AcDbEntity
  8
0
 62
7
100
AcDbLine
 10
0.366523
 20
13.670664
 30
0.0
 11
0.523404
 21
13.118246
 31
0.0
  0
LINE
  5
146
100
AcDbEntity
  8
0
 62
7
100
AcDbLine
 10
0.523404
 20
13.118246
 30
0.0
 11
0.706437
 21
12.577349
 31
0.0
  0
LINE
  5
147
100
AcDbEntity
  8
0
 62
7
100
AcDbLine
 10
0.706437
 20
12.577349
 30
0.0
 11
0.914889
 21
12.048706
 31
0.0
  0
LINE
  5
148
100
AcDbEntity
  8
0
 62
7
100
AcDbLine
 10
0.914889
 20
12.048706
 30
0.0
 11
1.148031
 21
11.533048
 31
0.0
  0
LINE
  5
149
100
AcDbEntity
  8
0
 62
7
100
AcDbLine
 10
1.148031
 20
11.533048
 30
0.0
 11
1.405129
 21
11.031106
 31
0.0
  0
LINE
  5
14a
100
AcDbEntity
  8
0
 62
7
100
AcDbLine
 10
1.405129
 20
11.031106
 30
0.0
 11
1.685452
 21
10.543611
 31
0.0
  0
LINE
  5
14b
100
AcDbEntity
  8
0
 62
7
100
AcDbLine
 10
1.685452
 20
10.543611
 30
0.0
 11
1.988269
 21
10.071296
 31
0.0
  0
LINE
  5
14c
100
AcDbEntity
  8
0
 62
7
100
AcDbLine
 10
1.988269
 20
10.071296
 30
0.0
 11
2.312849
 21
9.614891
 31
0.0
  0
LINE
  5
14d
100
AcDbEntity
  8
0
 62
7
100
AcDbLine
 10
2.312849
 20
9.614891
 30
0.0
 11
2.658459
 21
9.175127
 31
0.0
  0
LINE
  5
14e
100
AcDbEntity
  8
0
 62
7
100
AcDbLine
 10
2.658459
 20
9.175127
 30
0.0
 11
3.024368
 21
8.752737
 31
0.0
  0
LINE
  5
14f
100
AcDbEntity
  8
0
 62
7
100
AcDbLine
 10
3.024368
 20
8.752737
 30
0.0
 11
3.409844
 21
8.348451
 31
0.0
  0
LINE
  5
150
100
AcDbEntity
  8
0
 62
7
100
AcDbLine
 10
3.409844
 20
8.348451
 30
0.0
 11
3.814157
 21
7.963001
 31
0.0
  0
LINE
  5
151
100
AcDbEntity
  8
0
 62
7
100
AcDbLine
 10
3.814157
 20
7.963001
 30
0.0
 11
4.236573
 21
7.597118
 31
0.0
  0
LINE
  5
152
100
AcDbEntity
  8
0
 62
7
100
AcDbLine
 10
4.236573
 20
7.597118
 30
0.0
 11
4.676362
 21
7.251534
 31
0.0
  0
LINE
  5
153
100
AcDbEntity
  8
0
 62
7
100
AcDbLine
 10
4.676362
 20
7.251534
 30
0.0
 11
5.132793
 21
6.926980
 31
0.0
  0
LINE
  5
154
100
AcDbEntity
  8
0
 62
7
100
AcDbLine
 10
5.132793
 20
6.926980
 30
0.0
 11
5.605133
 21
6.624187
 31
0.0
  0
LINE
  5
155
100
AcDbEntity
  8
0
 62
7
100
AcDbLine
 10
5.605133
 20
6.624187
 30
0.0
 11
6.092650
 21
6.343887
 31
0.0
  0
LINE
  5
156
100
AcDbEntity
  8
0
 62
7
100
AcDbLine
 10
6.092650
 20
6.343887
 30
0.0
 11
6.594614
 21
6.086811
 31
0.0
  0
LINE
  5
157
100
AcDbEntity
  8
0
 62
7
100
AcDbLine
 10
6.594614
 20
6.086811
 30
0.0
 11
7.110293
 21
5.853690
 31
0.0
  0
LINE
  5
158
100
AcDbEntity
  8
0
 62
7
100
AcDbLine
 10
7.110293
 20
5.853690
 30
0.0
 11
7.638955
 21
5.645256
 31
0.0
  0
LINE
  5
159
100
AcDbEntity
  8
0
 62
7
100
AcDbLine
 10
7.638955
 20
5.645256
 30
0.0
 11
8.179869
 21
5.462241
 31
0.0
  0
LINE
  5
15a
100
AcDbEntity
  8
0
 62
7
100
AcDbLine
 10
8.179869
 20
5.462241
 30
0.0
 11
8.732303
 21
5.305375
 31
0.0
  0
LINE
  5
15b
100
AcDbEntity
  8
0
 62
7
100
AcDbLine
 10
8.732303
 20
5.305375
 30
0.0
 11
9.295525
 21
5.175391
 31
0.0
  0
LINE
  5
15c
100
AcDbEntity
  8
0
 62
7
100
AcDbLine
 10
9.295525
 20
5.175391
 30
0.0
 11
9.868804
 21
5.073018
 31
0.0
  0
LINE
  5
15d
100
AcDbEntity
  8
0
 62
7
100
AcDbLine
 10
9.868804
 20
5.073018
 30
0.0
 11
10.451409
 21
4.998990
 31
0.0
  0
LINE
  5
15e
100
AcDbEntity
  8
0
 62
7
100
AcDbLine
 10
10.451409
 20
4.998990
 30
0.0
 11
11.042607
 21
4.954036
 31
0.0
  0
LINE
  5
15f
100
AcDbEntity
  8
0
 62
7
100
AcDbLine
 10
11.042607
 20
4.954036
 30
0.0
 11
11.641667
 21
4.938889
 31
0.0
  0
LINE
  5
160
100
AcDbEntity
  8
0
 62
7
100
AcDbLine
 10
11.641667
 20
4.938889
 30
0.0
 11
12.240677
 21
4.954039
 31
0.0
  0
LINE
  5
161
100
AcDbEntity
  8
0
 62
7
100
AcDbLine
 10
12.240677
 20
4.954039
 30
0.0
 11
12.831832
 21
4.999001
 31
0.0
  0
LINE
  5
162
100
AcDbEntity
  8
0
 62
7
100
AcDbLine
 10
12.831832
 20
4.999001
 30
0.0
 11
13.414399
 21
5.073045
 31
0.0
  0
LINE
  5
163
100
AcDbEntity
  8
0
 62
7
100
AcDbLine
 10
13.414399
 20
5.073045
 30
0.0
 11
13.987646
 21
5.175436
 31
0.0
  0
LINE
  5
164
100
AcDbEntity
  8
0
 62
7
100
AcDbLine
 10
13.987646
 20
5.175436
 30
0.0
 11
14.550842
 21
5.305444
 31
0.0
  0
LINE
  5
165
100
AcDbEntity
  8
0
 62
7
100
AcDbLine
 10
14.550842
 20
5.305444
 30
0.0
 11
15.103255
 21
5.462337
 31
0.0
  0
LINE
  5
166
100
AcDbEntity
  8
0
 62
7
100
AcDbLine
 10
15.103255
 20
5.462337
 30
0.0
 11
15.644152
 21
5.645383
 31
0.0
  0
LINE
  5
167
100
AcDbEntity
  8
0
 62
7
100
AcDbLine
 10
15.644152
 20
5.645383
 30
0.0
 11
16.172802
 21
5.853848
 31
0.0
  0
LINE
  5
168
100
AcDbEntity
  8
0
 62
7
100
AcDbLine
 10
16.172802
 20
5.853848
 30
0.0
 11
16.688473
 21
6.087003
 31
0.0
  0
LINE
  5
169
100
AcDbEntity
  8
0
 62
7
100
AcDbLine
 10
16.688473
 20
6.087003
 30
0.0
 11
17.190433
 21
6.344113
 31
0.0
  0
LINE
  5
16a
100
AcDbEntity
  8
0
 62
7
100
AcDbLine
 10
17.190433
 20
6.344113
 30
0.0
 11
17.677950
 21
6.624449
 31
0.0
  0
LINE
  5
16b
100
AcDbEntity
  8
0
 62
7
100
AcDbLine
 10
17.677950
 20
6.624449
 30
0.0
 11
18.150293
 21
6.927277
 31
0.0
  0
LINE
  5
16c
100
AcDbEntity
  8
0
 62
7
100
AcDbLine
 10
18.150293
 20
6.927277
 30
0.0
 11
18.606729
 21
7.251865
 31
0.0
  0
LINE
  5
16d
100
AcDbEntity
  8
0
 62
7
100
AcDbLine
 10
18.606729
 20
7.251865
 30
0.0
 11
19.046526
 21
7.597482
 31
0.0
  0
LINE
  5
16e
100
AcDbEntity
  8
0
 62
7
100
AcDbLine
 10
19.046526
 20
7.597482
 30
0.0
 11
19.468953
 21
7.963396
 31
0.0
  0
LINE
  5
16f
100
AcDbEntity
  8
0
 62
7
100
AcDbLine
 10
19.468953
 20
7.963396
 30
0.0
 11
19.873278
 21
8.348874
 31
0.0
  0
LINE
  5
170
100
AcDbEntity
  8
0
 62
7
100
AcDbLine
 10
19.873278
 20
8.348874
 30
0.0
 11
20.258768
 21
8.753184
 31
0.0
  0
LINE
  5
171
100
AcDbEntity
  8
0
 62
7
100
AcDbLine
 10
20.258768
 20
8.753184
 30
0.0
 11
20.624692
 21
9.175595
 31
0.0
  0
LINE
  5
172
100
AcDbEntity
  8
0
 62
7
100
AcDbLine
 10
20.624692
 20
9.175595
 30
0.0
 11
20.970319
 21
9.615375
 31
0.0
  0
LINE
  5
173
100
AcDbEntity
  8
0
 62
7
100
AcDbLine
 10
20.970319
 20
9.615375
 30
0.0
 11
21.294915
 21
10.071791
 31
0.0
  0
LINE
  5
174
100
AcDbEntity
  8
0
 62
7
100
AcDbLine
 10
21.294915
 20
10.071791
 30
0.0
 11
21.597750
 21
10.544112
 31
0.0
  0
LINE
  5
175
100
AcDbEntity
  8
0
 62
7
100
AcDbLine
 10
21.597750
 20
10.544112
 30
0.0
 11
21.878091
 21
11.031605
 31
0.0
  0
LINE
  5
176
100
AcDbEntity
  8
0
 62
7
100
AcDbLine
 10
21.878091
 20
11.031605
 30
0.0
 11
22.135206
 21
11.533539
 31
0.0
  0
LINE
  5
177
100
AcDbEntity
  8
0
 62
7
100
AcDbLine
 10
22.135206
 20
11.533539
 30
0.0
 11
22.368364
 21
12.049182
 31
0.0
  0
LINE
  5
178
100
AcDbEntity
  8
0
 62
7
100
AcDbLine
 10
22.368364
 20
12.049182
 30
0.0
 11
22.576833
 21
12.577801
 31
0.0
  0
LINE
  5
179
100
AcDbEntity
  8
0
 62
7
100
AcDbLine
 10
22.576833
 20
12.577801
 30
0.0
 11
22.759881
 21
13.118665
 31
0.0
  0
LINE
  5
17a
100
AcDbEntity
  8
0
 62
7
100
AcDbLine
 10
22.759881
 20
13.118665
 30
0.0
 11
22.916775
 21
13.671041
 31
0.0
  0
LINE
  5
17b
100
AcDbEntity
  8
0
 62
7
100
AcDbLine
 10
22.916775
 20
13.671041
 30
0.0
 11
23.046784
 21
14.234198
 31
0.0
  0
LINE
  5
17c
100
AcDbEntity
  8
0
 62
7
100
AcDbLine
 10
23.046784
 20
14.234198
 30
0.0
 11
23.149177
 21
14.807403
 31
0.0
  0
LINE
  5
17d
100
AcDbEntity
  8
0
 62
7
100
AcDbLine
 10
23.149177
 20
14.807403
 30
0.0
 11
23.223220
 21
15.389925
 31
0.0
  0
LINE
  5
17e
100
AcDbEntity
  8
0
 62
7
100
AcDbLine
 10
23.223220
 20
15.389925
 30
0.0
 11
23.268183
 21
15.981031
 31
0.0
  0
LINE
  5
17f
100
AcDbEntity
  8
0
 62
7
100
AcDbLine
 10
23.268183
 20
15.981031
 30
0.0
 11
23.283333
 21
16.579991
 31
0.0
  0
LINE
  5
180
100
AcDbEntity
  8
0
 62
7
100
AcDbLine
 10
23.283333
 20
16.579991
 30
0.0
 11
23.268184
 21
17.179028
 31
0.0
  0
LINE
  5
181
100
AcDbEntity
  8
0
 62
7
100
AcDbLine
 10
23.268184
 20
17.179028
 30
0.0
 11
23.223221
 21
17.770209
 31
0.0
  0
LINE
  5
182
100
AcDbEntity
  8
0
 62
7
100
AcDbLine
 10
23.223221
 20
17.770209
 30
0.0
 11
23.149177
 21
18.352802
 31
0.0
  0
LINE
  5
183
100
AcDbEntity
  8
0
 62
7
100
AcDbLine
 10
23.149177
 20
18.352802
 30
0.0
 11
23.046785
 21
18.926076
 31
0.0
  0
LINE
  5
184
100
AcDbEntity
  8
0
 62
7
100
AcDbLine
 10
23.046785
 20
18.926076
 30
0.0
 11
22.916775
 21
19.489298
 31
0.0
  0
LINE
  5
185
100
AcDbEntity
  8
0
 62
7
100
AcDbLine
 10
22.916775
 20
19.489298
 30
0.0
 11
22.759881
 21
20.041736
 31
0.0
  0
LINE
  5
186
100
AcDbEntity
  8
0
 62
7
100
AcDbLine
 10
22.759881
 20
20.041736
 30
0.0
 11
22.576834
 21
20.582658
 31
0.0
  0
LINE
  5
187
100
AcDbEntity
  8
0
 62
7
100
AcDbLine
 10
22.576834
 20
20.582658
 30
0.0
 11
22.368365
 21
21.111333
 31
0.0
  0
LINE
  5
188
100
AcDbEntity
  8
0
 62
7
100
AcDbLine
 10
22.368365
 20
21.111333
 30
0.0
 11
22.135207
 21
21.627029
 31
0.0
  0
LINE
  5
189
100
AcDbEntity
  8
0
 62
7
100
AcDbLine
 10
22.135207
 20
21.627029
 30
0.0
 11
21.878092
 21
22.129013
 31
0.0
  0
LINE
  5
18a
100
AcDbEntity
  8
0
 62
7
100
AcDbLine
 10
21.878092
 20
22.129013
 30
0.0
 11
21.597750
 21
22.616554
 31
0.0
  0
LINE
  5
18b
100
AcDbEntity
  8
0
 62
7
100
AcDbLine
 10
21.597750
 20
22.616554
 30
0.0
 11
21.294916
 21
23.088920
 31
0.0
  0
LINE
  5
18c
100
AcDbEntity
  8
0
 62
7
100
AcDbLine
 10
21.294916
 20
23.088920
 30
0.0
 11
20.970319
 21
23.545378
 31
0.0
  0
LINE
  5
18d
100
AcDbEntity
  8
0
 62
7
100
AcDbLine
 10
20.970319
 20
23.545378
 30
0.0
 11
20.624692
 21
23.985197
 31
0.0
  0
LINE
  5
18e
100
AcDbEntity
  8
0
 62
7
100
AcDbLine
 10
20.624692
 20
23.985197
 30
0.0
 11
20.258768
 21
24.407645
 31
0.0
  0
LINE
  5
18f
100
AcDbEntity
  8
0
 62
7
100
AcDbLine
 10
20.258768
 20
24.407645
 30
0.0
 11
19.873277
 21
24.811990
 31
0.0
  0
LINE
  5
190
100
AcDbEntity
  8
0
 62
7
100
AcDbLine
 10
19.873277
 20
24.811990
 30
0.0
 11
19.468953
 21
25.197500
 31
0.0
  0
LINE
  5
191
100
AcDbEntity
  8
0
 62
7
100
AcDbLine
 10
19.468953
 20
25.197500
 30
0.0
 11
19.046526
 21
25.563443
 31
0.0
  0
LINE
  5
192
100
AcDbEntity
  8
0
 62
7
100
AcDbLine
 10
19.046526
 20
25.563443
 30
0.0
 11
18.606729
 21
25.909087
 31
0.0
  0
LINE
  5
193
100
AcDbEntity
  8
0
 62
7
100
AcDbLine
 10
18.606729
 20
25.909087
 30
0.0
 11
18.150293
 21
26.233700
 31
0.0
  0
LINE
  5
194
100
AcDbEntity
  8
0
 62
7
100
AcDbLine
 10
18.150293
 20
26.233700
 30
0.0
 11
17.677950
 21
26.536550
 31
0.0
  0
LINE
  5
195
100
AcDbEntity
  8
0
 62
7
100
AcDbLine
 10
17.677950
 20
26.536550
 30
0.0
 11
17.190433
 21
26.816906
 31
0.0
  0
LINE
  5
196
100
AcDbEntity
  8
0
 62
7
100
AcDbLine
 10
17.190433
 20
26.816906
 30
0.0
 11
16.688473
 21
27.074035
 31
0.0
  0
LINE
  5
197
100
AcDbEntity
  8
0
 62
7
100
AcDbLine
 10
16.688473
 20
27.074035
 30
0.0
 11
16.172802
 21
27.307205
 31
0.0
  0
LINE
  5
198
100
AcDbEntity
  8
0
 62
7
100
AcDbLine
 10
16.172802
 20
27.307205
 30
0.0
 11
15.644152
 21
27.515685
 31
0.0
  0
LINE
  5
199
100
AcDbEntity
  8
0
 62
7
100
AcDbLine
 10
15.644152
 20
27.515685
 30
0.0
 11
15.103255
 21
27.698742
 31
0.0
  0
LINE
  5
19a
100
AcDbEntity
  8
0
 62
7
100
AcDbLine
 10
15.103255
 20
27.698742
 30
0.0
 11
14.550842
 21
27.855644
 31
0.0
  0
LINE
  5
19b
100
AcDbEntity
  8
0
 62
7
100
AcDbLine
 10
14.550842
 20
27.855644
 30
0.0
 11
13.987646
 21
27.985660
 31
0.0
  0
LINE
  5
19c
100
AcDbEntity
  8
0
 62
7
100
AcDbLine
 10
13.987646
 20
27.985660
 30
0.0
 11
13.414399
 21
28.088058
 31
0.0
  0
LINE
  5
19d
100
AcDbEntity
  8
0
 62
7
100
AcDbLine
 10
13.414399
 20
28.088058
 30
0.0
 11
12.831832
 21
28.162106
 31
0.0
  0
LINE
  5
19e
100
AcDbEntity
  8
0
 62
7
100
AcDbLine
 10
12.831832
 20
28.162106
 30
0.0
 11
12.240677
 21
28.207071
 31
0.0
  0
LINE
  5
19f
100
AcDbEntity
  8
0
 62
7
100
AcDbLine
 10
12.240677
 20
28.207071
 30
0.0
 11
11.641667
 21
28.222222
 31
0.0
  0
LINE
  5
1a0
100
AcDbEntity
  8
0
 62
7
100
AcDbLine
 10
11.641667
 20
8.005798
 30
0.0
 11
11.420388
 21
8.008592
 31
0.0
  0
LINE
  5
1a1
100
AcDbEntity
  8
0
 62
7
100
AcDbLine
 10
11.420388
 20
8.008592
 30
0.0
 11
11.200487
 21
8.016948
 31
0.0
  0
LINE
  5
1a2
100
AcDbEntity
  8
0
 62
7
100
AcDbLine
 10
11.200487
 20
8.016948
 30
0.0
 11
10.982032
 21
8.030791
 31
0.0
  0
LINE
  5
1a3
100
AcDbEntity
  8
0
 62
7
100
AcDbLine
 10
10.982032
 20
8.030791
 30
0.0
 11
10.765090
 21
8.050056
 31
0.0
  0
LINE
  5
1a4
100
AcDbEntity
  8
0
 62
7
100
AcDbLine
 10
10.765090
 20
8.050056
 30
0.0
 11
10.549729
 21
8.074674
 31
0.0
  0
LINE
  5
1a5
100
AcDbEntity
  8
0
 62
7
100
AcDbLine
 10
10.549729
 20
8.074674
 30
0.0
 11
10.336016
 21
8.104579
 31
0.0
  0
LINE
  5
1a6
100
AcDbEntity
  8
0
 62
7
100
AcDbLine
 10
10.336016
 20
8.104579
 30
0.0
 11
10.124018
 21
8.139702
 31
0.0
  0
LINE
  5
1a7
100
AcDbEntity
  8
0
 62
7
100
AcDbLine
 10
10.124018
 20
8.139702
 30
0.0
 11
9.913802
 21
8.179977
 31
0.0
  0
LINE
  5
1a8
100
AcDbEntity
  8
0
 62
7
100
AcDbLine
 10
9.913802
 20
8.179977
 30
0.0
 11
9.705437
 21
8.225336
 31
0.0
  0
LINE
  5
1a9
100
AcDbEntity
  8
0
 62
7
100
AcDbLine
 10
9.705437
 20
8.225336
 30
0.0
 11
9.498990
 21
8.275712
 31
0.0
  0
LINE
  5
1aa
100
AcDbEntity
  8
0
 62
7
100
AcDbLine
 10
9.498990
 20
8.275712
 30
0.0
 11
9.294527
 21
8.331037
 31
0.0
  0
LINE
  5
1ab
100
AcDbEntity
  8
0
 62
7
100
AcDbLine
 10
9.294527
 20
8.331037
 30
0.0
 11
9.092117
 21
8.391245
 31
0.0
  0
LINE
  5
1ac
100
AcDbEntity
  8
0
 62
7
100
AcDbLine
 10
9.092117
 20
8.391245
 30
0.0
 11
8.891827
 21
8.456268
 31
0.0
  0
LINE
  5
1ad
100
AcDbEntity
  8
0
 62
7
100
AcDbLine
 10
8.891827
 20
8.456268
 30
0.0
 11
8.693724
 21
8.526039
 31
0.0
  0
LINE
  5
1ae
100
AcDbEntity
  8
0
 62
7
100
AcDbLine
 10
8.693724
 20
8.526039
 30
0.0
 11
8.497876
 21
8.600489
 31
0.0
  0
LINE
  5
1af
100
AcDbEntity
  8
0
 62
7
100
AcDbLine
 10
8.497876
 20
8.600489
 30
0.0
 11
8.304349
 21
8.679553
 31
0.0
  0
LINE
  5
1b0
100
AcDbEntity
  8
0
 62
7
100
AcDbLine
 10
8.304349
 20
8.679553
 30
0.0
 11
8.113212
 21
8.763163
 31
0.0
  0
LINE
  5
1b1
100
AcDbEntity
  8
0
 62
7
100
AcDbLine
 10
8.113212
 20
8.763163
 30
0.0
 11
7.924532
 21
8.851257
 31
0.0
  0
LINE
  5
1b2
100
AcDbEntity
  8
0
 62
7
100
AcDbLine
 10
7.924532
 20
8.851257
 30
0.0
 11
7.738376
 21
8.943755
 31
0.0
  0
LINE
  5
1b3
100
AcDbEntity
  8
0
 62
7
100
AcDbLine
 10
7.738376
 20
8.943755
 30
0.0
 11
7.554811
 21
9.040598
 31
0.0
  0
LINE
  5
1b4
100
AcDbEntity
  8
0
 62
7
100
AcDbLine
 10
7.554811
 20
9.040598
 30
0.0
 11
7.373906
 21
9.141717
 31
0.0
  0
LINE
  5
1b5
100
AcDbEntity
  8
0
 62
7
100
AcDbLine
 10
7.373906
 20
9.141717
 30
0.0
 11
7.195727
 21
9.247044
 31
0.0
  0
LINE
  5
1b6
100
AcDbEntity
  8
0
 62
7
100
AcDbLine
 10
7.195727
 20
9.247044
 30
0.0
 11
7.020342
 21
9.356514
 31
0.0
  0
LINE
  5
1b7
100
AcDbEntity
  8
0
 62
7
100
AcDbLine
 10
7.020342
 20
9.356514
 30
0.0
 11
6.847819
 21
9.470058
 31
0.0
  0
LINE
  5
1b8
100
AcDbEntity
  8
0
 62
7
100
AcDbLine
 10
6.847819
 20
9.470058
 30
0.0
 11
6.678223
 21
9.587609
 31
0.0
  0
LINE
  5
1b9
100
AcDbEntity
  8
0
 62
7
100
AcDbLine
 10
6.678223
 20
9.587609
 30
0.0
 11
6.511624
 21
9.709100
 31
0.0
  0
LINE
  5
1ba
100
AcDbEntity
  8
0
 62
7
100
AcDbLine
 10
6.511624
 20
9.709100
 30
0.0
 11
6.348089
 21
9.834464
 31
0.0
  0
LINE
  5
1bb
100
AcDbEntity
  8
0
 62
7
100
AcDbLine
 10
6.348089
 20
9.834464
 30
0.0
 11
6.187684
 21
9.963632
 31
0.0
  0
LINE
  5
1bc
100
AcDbEntity
  8
0
 62
7
100
AcDbLine
 10
6.187684
 20
9.963632
 30
0.0
 11
6.030478
 21
10.096538
 31
0.0
  0
LINE
  5
1bd
100
AcDbEntity
  8
0
 62
7
100
AcDbLine
 10
6.030478
 20
10.096538
 30
0.0
 11
5.876537
 21
10.233115
 31
0.0
  0
LINE
  5
1be
100
AcDbEntity
  8
0
 62
7
100
AcDbLine
 10
5.876537
 20
10.233115
 30
0.0
 11
5.725929
 21
10.373295
 31
0.0
  0
LINE
  5
1bf
100
AcDbEntity
  8
0
 62
7
100
AcDbLine
 10
5.725929
 20
10.373295
 30
0.0
 11
5.578722
 21
10.517011
 31
0.0
  0
LINE
  5
1c0
100
AcDbEntity
  8
0
 62
7
100
AcDbLine
 10
5.578722
 20
10.517011
 30
0.0
 11
5.434983
 21
10.664195
 31
0.0
  0
LINE
  5
1c1
100
AcDbEntity
  8
0
 62
7
100
AcDbLine
 10
5.434983
 20
10.664195
 30
0.0
 11
5.294779
 21
10.814781
 31
0.0
  0
LINE
  5
1c2
100
AcDbEntity
  8
0
 62
7
100
AcDbLine
 10
5.294779
 20
10.814781
 30
0.0
 11
5.158178
 21
10.968700
 31
0.0
  0
LINE
  5
1c3
100
AcDbEntity
  8
0
 62
7
100
AcDbLine
 10
5.158178
 20
10.968700
 30
0.0
 11
5.025246
 21
11.125886
 31
0.0
  0
LINE
  5
1c4
100
AcDbEntity
  8
0
 62
7
100
AcDbLine
 10
5.025246
 20
11.125886
 30
0.0
 11
4.896053
 21
11.286272
 31
0.0
  0
LINE
  5
1c5
100
AcDbEntity
  8
0
 62
7
100
AcDbLine
 10
4.896053
 20
11.286272
 30
0.0
 11
4.770664
 21
11.449789
 31
0.0
  0
LINE
  5
1c6
100
AcDbEntity
  8
0
 62
7
100
AcDbLine
 10
4.770664
 20
11.449789
 30
0.0
 11
4.649148
 21
11.616371
 31
0.0
  0
LINE
  5
1c7
100
AcDbEntity
  8
0
 62
7
100
AcDbLine
 10
4.649148
 20
11.616371
 30
0.0
 11
4.531571
 21
11.785949
 31
0.0
  0
LINE
  5
1c8
100
AcDbEntity
  8
0
 62
7
100
AcDbLine
 10
4.531571
 20
11.785949
 30
0.0
 11
4.418002
 21
11.958458
 31
0.0
  0
LINE
  5
1c9
100
AcDbEntity
  8
0
 62
7
100
AcDbLine
 10
4.418002
 20
11.958458
 30
0.0
 11
4.308507
 21
12.133830
 31
0.0
  0
LINE
  5
1ca
100
AcDbEntity
  8
0
 62
7
100
AcDbLine
 10
4.308507
 20
12.133830
 30
0.0
 11
4.203154
 21
12.311997
 31
0.0
  0
LINE
  5
1cb
100
AcDbEntity
  8
0
 62
7
100
AcDbLine
 10
4.203154
 20
12.311997
 30
0.0
 11
4.102010
 21
12.492892
 31
0.0
  0
LINE
  5
1cc
100
AcDbEntity
  8
0
 62
7
100
AcDbLine
 10
4.102010
 20
12.492892
 30
0.0
 11
4.005143
 21
12.676447
 31
0.0
  0
LINE
  5
1cd
100
AcDbEntity
  8
0
 62
7
100
AcDbLine
 10
4.005143
 20
12.676447
 30
0.0
 11
3.912621
 21
12.862596
 31
0.0
  0
LINE
  5
1ce
100
AcDbEntity
  8
0
 62
7
100
AcDbLine
 10
3.912621
 20
12.862596
 30
0.0
 11
3.824510
 21
13.051271
 31
0.0
  0
LINE
  5
1cf
100
AcDbEntity
  8
0
 62
7
100
AcDbLine
 10
3.824510
 20
13.051271
 30
0.0
 11
3.740878
 21
13.242405
 31
0.0
  0
LINE
  5
1d0
100
AcDbEntity
  8
0
 62
7
100
AcDbLine
 10
3.740878
 20
13.242405
 30
0.0
 11
3.661792
 21
13.435930
 31
0.0
  0
LINE
  5
1d1
100
AcDbEntity
  8
0
 62
7
100
AcDbLine
 10
3.661792
 20
13.435930
 30
0.0
 11
3.587320
 21
13.631779
 31
0.0
  0
LINE
  5
1d2
100
AcDbEntity
  8
0
 62
7
100
AcDbLine
 10
3.587320
 20
13.631779
 30
0.0
 11
3.517529
 21
13.829885
 31
0.0
  0
LINE
  5
1d3
100
AcDbEntity
  8
0
 62
7
100
AcDbLine
 10
3.517529
 20
13.829885
 30
0.0
 11
3.452487
 21
14.030180
 31
0.0
  0
LINE
  5
1d4
100
AcDbEntity
  8
0
 62
7
100
AcDbLine
 10
3.452487
 20
14.030180
 30
0.0
 11
3.392261
 21
14.232597
 31
0.0
  0
LINE
  5
1d5
100
AcDbEntity
  8
0
 62
7
100
AcDbLine
 10
3.392261
 20
14.232597
 30
0.0
 11
3.336919
 21
14.437069
 31
0.0
  0
LINE
  5
1d6
100
AcDbEntity
  8
0
 62
7
100
AcDbLine
 10
3.336919
 20
14.437069
 30
0.0
 11
3.286527
 21
14.643528
 31
0.0
  0
LINE
  5
1d7
100
AcDbEntity
  8
0
 62
7
100
AcDbLine
 10
3.286527
 20
14.643528
 30
0.0
 11
3.241153
 21
14.851908
 31
0.0
  0
LINE
  5
1d8
100
AcDbEntity
  8
0
 62
7
100
AcDbLine
 10
3.241153
 20
14.851908
 30
0.0
 11
3.200865
 21
15.062140
 31
0.0
  0
LINE
  5
1d9
100
AcDbEntity
  8
0
 62
7
100
AcDbLine
 10
3.200865
 20
15.062140
 30
0.0
 11
3.165730
 21
15.274158
 31
0.0
  0
LINE
  5
1da
100
AcDbEntity
  8
0
 62
7
100
AcDbLine
 10
3.165730
 20
15.274158
 30
0.0
 11
3.135816
 21
15.487894
 31
0.0
  0
LINE
  5
1db
100
AcDbEntity
  8
0
 62
7
100
AcDbLine
 10
3.135816
 20
15.487894
 30
0.0
 11
3.111189
 21
15.703281
 31
0.0
  0
LINE
  5
1dc
100
AcDbEntity
  8
0
 62
7
100
AcDbLine
 10
3.111189
 20
15.703281
 30
0.0
 11
3.091916
 21
15.920252
 31
0.0
  0
LINE
  5
1dd
100
AcDbEntity
  8
0
 62
7
100
AcDbLine
 10
3.091916
 20
15.920252
 30
0.0
 11
3.078067
 21
16.138739
 31
0.0
  0
LINE
  5
1de
100
AcDbEntity
  8
0
 62
7
100
AcDbLine
 10
3.078067
 20
16.138739
 30
0.0
 11
3.069708
 21
16.358674
 31
0.0
  0
LINE
  5
1df
100
AcDbEntity
  8
0
 62
7
100
AcDbLine
 10
3.069708
 20
16.358674
 30
0.0
 11
3.066914
 21
16.579991
 31
0.0
  0
LINE
  5
1e0
100
AcDbEntity
  8
0
 62
7
100
AcDbLine
 10
3.066914
 20
16.579991
 30
0.0
 11
3.069708
 21
16.801309
 31
0.0
  0
LINE
  5
1e1
100
AcDbEntity
  8
0
 62
7
100
AcDbLine
 10
3.069708
 20
16.801309
 30
0.0
 11
3.078065
 21
17.021247
 31
0.0
  0
LINE
  5
1e2
100
AcDbEntity
  8
0
 62
7
100
AcDbLine
 10
3.078065
 20
17.021247
 30
0.0
 11
3.091910
 21
17.239737
 31
0.0
  0
LINE
  5
1e3
100
AcDbEntity
  8
0
 62
7
100
AcDbLine
 10
3.091910
 20
17.239737
 30
0.0
 11
3.111178
 21
17.456714
 31
0.0
  0
LINE
  5
1e4
100
AcDbEntity
  8
0
 62
7
100
AcDbLine
 10
3.111178
 20
17.456714
 30
0.0
 11
3.135799
 21
17.672107
 31
0.0
  0
LINE
  5
1e5
100
AcDbEntity
  8
0
 62
7
100
AcDbLine
 10
3.135799
 20
17.672107
 30
0.0
 11
3.165707
 21
17.885852
 31
0.0
  0
LINE
  5
1e6
100
AcDbEntity
  8
0
 62
7
100
AcDbLine
 10
3.165707
 20
17.885852
 30
0.0
 11
3.200835
 21
18.097879
 31
0.0
  0
LINE
  5
1e7
100
AcDbEntity
  8
0
 62
7
100
AcDbLine
 10
3.200835
 20
18.097879
 30
0.0
 11
3.241116
 21
18.308123
 31
0.0
  0
LINE
  5
1e8
100
AcDbEntity
  8
0
 62
7
100
AcDbLine
 10
3.241116
 20
18.308123
 30
0.0
 11
3.286481
 21
18.516514
 31
0.0
  0
LINE
  5
1e9
100
AcDbEntity
  8
0
 62
7
100
AcDbLine
 10
3.286481
 20
18.516514
 30
0.0
 11
3.336863
 21
18.722987
 31
0.0
  0
LINE
  5
1ea
100
AcDbEntity
  8
0
 62
7
100
AcDbLine
 10
3.336863
 20
18.722987
 30
0.0
 11
3.392197
 21
18.927474
 31
0.0
  0
LINE
  5
1eb
100
AcDbEntity
  8
0
 62
7
100
AcDbLine
 10
3.392197
 20
18.927474
 30
0.0
 11
3.452412
 21
19.129907
 31
0.0
  0
LINE
  5
1ec
100
AcDbEntity
  8
0
 62
7
100
AcDbLine
 10
3.452412
 20
19.129907
 30
0.0
 11
3.517443
 21
19.330219
 31
0.0
  0
LINE
  5
1ed
100
AcDbEntity
  8
0
 62
7
100
AcDbLine
 10
3.517443
 20
19.330219
 30
0.0
 11
3.587223
 21
19.528342
 31
0.0
  0
LINE
  5
1ee
100
AcDbEntity
  8
0
 62
7
100
AcDbLine
 10
3.587223
 20
19.528342
 30
0.0
 11
3.661683
 21
19.724210
 31
0.0
  0
LINE
  5
1ef
100
AcDbEntity
  8
0
 62
7
100
AcDbLine
 10
3.661683
 20
19.724210
 30
0.0
 11
3.740756
 21
19.917754
 31
0.0
  0
LINE
  5
1f0
100
AcDbEntity
  8
0
 62
7
100
AcDbLine
 10
3.740756
 20
19.917754
 30
0.0
 11
3.824376
 21
20.108908
 31
0.0
  0
LINE
  5
1f1
100
AcDbEntity
  8
0
 62
7
100
AcDbLine
 10
3.824376
 20
20.108908
 30
0.0
 11
3.912474
 21
20.297604
 31
0.0
  0
LINE
  5
1f2
100
AcDbEntity
  8
0
 62
7
100
AcDbLine
 10
3.912474
 20
20.297604
 30
0.0
 11
4.004983
 21
20.483774
 31
0.0
  0
LINE
  5
1f3
100
AcDbEntity
  8
0
 62
7
100
AcDbLine
 10
4.004983
 20
20.483774
 30
0.0
 11
4.101837
 21
20.667352
 31
0.0
  0
LINE
  5
1f4
100
AcDbEntity
  8
0
 62
7
100
AcDbLine
 10
4.101837
 20
20.667352
 30
0.0
 11
4.202968
 21
20.848270
 31
0.0
  0
LINE
  5
1f5
100
AcDbEntity
  8
0
 62
7
100
AcDbLine
 10
4.202968
 20
20.848270
 30
0.0
 11
4.308307
 21
21.026461
 31
0.0
  0
LINE
  5
1f6
100
AcDbEntity
  8
0
 62
7
100
AcDbLine
 10
4.308307
 20
21.026461
 30
0.0
 11
4.417789
 21
21.201856
 31
0.0
  0
LINE
  5
1f7
100
AcDbEntity
  8
0
 62
7
100
AcDbLine
 10
4.417789
 20
21.201856
 30
0.0
 11
4.531345
 21
21.374390
 31
0.0
  0
LINE
  5
1f8
100
AcDbEntity
  8
0
 62
7
100
AcDbLine
 10
4.531345
 20
21.374390
 30
0.0
 11
4.648909
 21
21.543994
 31
0.0
  0
LINE
  5
1f9
100
AcDbEntity
  8
0
 62
7
100
AcDbLine
 10
4.648909
 20
21.543994
 30
0.0
 11
4.770413
 21
21.710601
 31
0.0
  0
LINE
  5
1fa
100
AcDbEntity
  8
0
 62
7
100
AcDbLine
 10
4.770413
 20
21.710601
 30
0.0
 11
4.895789
 21
21.874144
 31
0.0
  0
LINE
  5
1fb
100
AcDbEntity
  8
0
 62
7
100
AcDbLine
 10
4.895789
 20
21.874144
 30
0.0
 11
5.024970
 21
22.034555
 31
0.0
  0
LINE
  5
1fc
100
AcDbEntity
  8
0
 62
7
100
AcDbLine
 10
5.024970
 20
22.034555
 30
0.0
 11
5.157890
 21
22.191767
 31
0.0
  0
LINE
  5
1fd
100
AcDbEntity
  8
0
 62
7
100
AcDbLine
 10
5.157890
 20
22.191767
 30
0.0
 11
5.294480
 21
22.345713
 31
0.0
  0
LINE
  5
1fe
100
AcDbEntity
  8
0
 62
7
100
AcDbLine
 10
5.294480
 20
22.345713
 30
0.0
 11
5.434673
 21
22.496325
 31
0.0
  0
LINE
  5
1ff
100
AcDbEntity
  8
0
 62
7
100
AcDbLine
 10
5.434673
 20
22.496325
 30
0.0
 11
5.578404
 21
22.643536
 31
0.0
  0
LINE
  5
200
100
AcDbEntity
  8
0
 62
7
100
AcDbLine
 10
5.578404
 20
22.643536
 30
0.0
 11
5.725602
 21
22.787278
 31
0.0
  0
LINE
  5
201
100
AcDbEntity
  8
0
 62
7
100
AcDbLine
 10
5.725602
 20
22.787278
 30
0.0
 11
5.876201
 21
22.927484
 31
0.0
  0
LINE
  5
202
100
AcDbEntity
  8
0
 62
7
100
AcDbLine
 10
5.876201
 20
22.927484
 30
0.0
 11
6.030133
 21
23.064087
 31
0.0
  0
LINE
  5
203
100
AcDbEntity
  8
0
 62
7
100
AcDbLine
 10
6.030133
 20
23.064087
 30
0.0
 11
6.187332
 21
23.197020
 31
0.0
  0
LINE
  5
204
100
AcDbEntity
  8
0
 62
7
100
AcDbLine
 10
6.187332
 20
23.197020
 30
0.0
 11
6.347731
 21
23.326214
 31
0.0
  0
LINE
  5
205
100
AcDbEntity
  8
0
 62
7
100
AcDbLine
 10
6.347731
 20
23.326214
 30
0.0
 11
6.511261
 21
23.451603
 31
0.0
  0
LINE
  5
206
100
AcDbEntity
  8
0
 62
7
100
AcDbLine
 10
6.511261
 20
23.451603
 30
0.0
 11
6.677855
 21
23.573120
 31
0.0
  0
LINE
  5
207
100
AcDbEntity
  8
0
 62
7
100
AcDbLine
 10
6.677855
 20
23.573120
 30
0.0
 11
6.847446
 21
23.690696
 31
0.0
  0
LINE
  5
208
100
AcDbEntity
  8
0
 62
7
100
AcDbLine
 10
6.847446
 20
23.690696
 30
0.0
 11
7.019968
 21
23.804264
 31
0.0
  0
LINE
  5
209
100
AcDbEntity
  8
0
 62
7
100
AcDbLine
 10
7.019968
 20
23.804264
 30
0.0
 11
7.195351
 21
23.913758
 31
0.0
  0
LINE
  5
20a
100
AcDbEntity
  8
0
 62
7
100
AcDbLine
 10
7.195351
 20
23.913758
 30
0.0
 11
7.373530
 21
24.019110
 31
0.0
  0
LINE
  5
20b
100
AcDbEntity
  8
0
 62
7
100
AcDbLine
 10
7.373530
 20
24.019110
 30
0.0
 11
7.554436
 21
24.120251
 31
0.0
  0
LINE
  5
20c
100
AcDbEntity
  8
0
 62
7
100
AcDbLine
 10
7.554436
 20
24.120251
 30
0.0
 11
7.738003
 21
24.217117
 31
0.0
  0
LINE
  5
20d
100
AcDbEntity
  8
0
 62
7
100
AcDbLine
 10
7.738003
 20
24.217117
 30
0.0
 11
7.924163
 21
24.309637
 31
0.0
  0
LINE
  5
20e
100
AcDbEntity
  8
0
 62
7
100
AcDbLine
 10
7.924163
 20
24.309637
 30
0.0
 11
8.112848
 21
24.397746
 31
0.0
  0
LINE
  5
20f
100
AcDbEntity
  8
0
 62
7
100
AcDbLine
 10
8.112848
 20
24.397746
 30
0.0
 11
8.303992
 21
24.481375
 31
0.0
  0
LINE
  5
210
100
AcDbEntity
  8
0
 62
7
100
AcDbLine
 10
8.303992
 20
24.481375
 30
0.0
 11
8.497527
 21
24.560459
 31
0.0
  0
LINE
  5
211
100
AcDbEntity
  8
0
 62
7
100
AcDbLine
 10
8.497527
 20
24.560459
 30
0.0
 11
8.693385
 21
24.634928
 31
0.0
  0
LINE
  5
212
100
AcDbEntity
  8
0
 62
7
100
AcDbLine
 10
8.693385
 20
24.634928
 30
0.0
 11
8.891499
 21
24.704716
 31
0.0
  0
LINE
  5
213
100
AcDbEntity
  8
0
 62
7
100
AcDbLine
 10
8.891499
 20
24.704716
 30
0.0
 11
9.091803
 21
24.769755
 31
0.0
  0
LINE
  5
214
100
AcDbEntity
  8
0
 62
7
100
AcDbLine
 10
9.091803
 20
24.769755
 30
0.0
 11
9.294228
 21
24.829979
 31
0.0
  0
LINE
  5
215
100
AcDbEntity
  8
0
 62
7
100
AcDbLine
 10
9.294228
 20
24.829979
 30
0.0
 11
9.498707
 21
24.885319
 31
0.0
  0
LINE
  5
216
100
AcDbEntity
  8
0
 62
7
100
AcDbLine
 10
9.498707
 20
24.885319
 30
0.0
 11
9.705174
 21
24.935708
 31
0.0
  0
LINE
  5
217
100
AcDbEntity
  8
0
 62
7
100
AcDbLine
 10
9.705174
 20
24.935708
 30
0.0
 11
9.913559
 21
24.981080
 31
0.0
  0
LINE
  5
218
100
AcDbEntity
  8
0
 62
7
100
AcDbLine
 10
9.913559
 20
24.981080
 30
0.0
 11
10.123797
 21
25.021366
 31
0.0
  0
LINE
  5
219
100
AcDbEntity
  8
0
 62
7
100
AcDbLine
 10
10.123797
 20
25.021366
 30
0.0
 11
10.335820
 21
25.056498
 31
0.0
  0
LINE
  5
21a
100
AcDbEntity
  8
0
 62
7
100
AcDbLine
 10
10.335820
 20
25.056498
 30
0.0
 11
10.549560
 21
25.086411
 31
0.0
  0
LINE
  5
21b
100
AcDbEntity
  8
0
 62
7
100
AcDbLine
 10
10.549560
 20
25.086411
 30
0.0
 11
10.764951
 21
25.111035
 31
0.0
  0
LINE
  5
21c
100
AcDbEntity
  8
0
 62
7
100
AcDbLine
 10
10.764951
 20
25.111035
 30
0.0
 11
10.981924
 21
25.130305
 31
0.0
  0
LINE
  5
21d
100
AcDbEntity
  8
0
 62
7
100
AcDbLine
 10
10.981924
 20
25.130305
 30
0.0
 11
11.200413
 21
25.144154
 31
0.0
  0
LINE
  5
21e
100
AcDbEntity
  8
0
 62
7
100
AcDbLine
 10
11.200413
 20
25.144154
 30
0.0
 11
11.420349
 21
25.152510
 31
0.0
  0
LINE
  5
21f
100
AcDbEntity
  8
0
 62
7
100
AcDbLine
 10
11.420349
 20
25.152510
 30
0.0
 11
11.641667
 21
25.155304
 31
0.0
  0
LINE
  5
220
100
AcDbEntity
  8
0
 62
7
100
AcDbLine
 10
11.641667
 20
25.155304
 30
0.0
 11
11.862984
 21
25.152510
 31
0.0
  0
LINE
  5
221
100
AcDbEntity
  8
0
 62
7
100
AcDbLine
 10
11.862984
 20
25.152510
 30
0.0
 11
12.082921
 21
25.144154
 31
0.0
  0
LINE
  5
222
100
AcDbEntity
  8
0
 62
7
100
AcDbLine
 10
12.082921
 20
25.144154
 30
0.0
 11
12.301410
 21
25.130308
 31
0.0
  0
LINE
  5
223
100
AcDbEntity
  8
0
 62
7
100
AcDbLine
 10
12.301410
 20
25.130308
 30
0.0
 11
12.518383
 21
25.111041
 31
0.0
  0
LINE
  5
224
100
AcDbEntity
  8
0
 62
7
100
AcDbLine
 10
12.518383
 20
25.111041
 30
0.0
 11
12.733773
 21
25.086417
 31
0.0
  0
LINE
  5
225
100
AcDbEntity
  8
0
 62
7
100
AcDbLine
 10
12.733773
 20
25.086417
 30
0.0
 11
12.947513
 21
25.056506
 31
0.0
  0
LINE
  5
226
100
AcDbEntity
  8
0
 62
7
100
AcDbLine
 10
12.947513
 20
25.056506
 30
0.0
 11
13.159536
 21
25.021375
 31
0.0
  0
LINE
  5
227
100
AcDbEntity
  8
0
 62
7
100
AcDbLine
 10
13.159536
 20
25.021375
 30
0.0
 11
13.369774
 21
24.981092
 31
0.0
  0
LINE
  5
228
100
AcDbEntity
  8
0
 62
7
100
AcDbLine
 10
13.369774
 20
24.981092
 30
0.0
 11
13.578160
 21
24.935724
 31
0.0
  0
LINE
  5
229
100
AcDbEntity
  8
0
 62
7
100
AcDbLine
 10
13.578160
 20
24.935724
 30
0.0
 11
13.784626
 21
24.885337
 31
0.0
  0
LINE
  5
22a
100
AcDbEntity
  8
0
 62
7
100
AcDbLine
 10
13.784626
 20
24.885337
 30
0.0
 11
13.989105
 21
24.830001
 31
0.0
  0
LINE
  5
22b
100
AcDbEntity
  8
0
 62
7
100
AcDbLine
 10
13.989105
 20
24.830001
 30
0.0
 11
14.191530
 21
24.769781
 31
0.0
  0
LINE
  5
22c
100
AcDbEntity
  8
0
 62
7
100
AcDbLine
 10
14.191530
 20
24.769781
 30
0.0
 11
14.391834
 21
24.704745
 31
0.0
  0
LINE
  5
22d
100
AcDbEntity
  8
0
 62
7
100
AcDbLine
 10
14.391834
 20
24.704745
 30
0.0
 11
14.589948
 21
24.634960
 31
0.0
  0
LINE
  5
22e
100
AcDbEntity
  8
0
 62
7
100
AcDbLine
 10
14.589948
 20
24.634960
 30
0.0
 11
14.785807
 21
24.560495
 31
0.0
  0
LINE
  5
22f
100
AcDbEntity
  8
0
 62
7
100
AcDbLine
 10
14.785807
 20
24.560495
 30
0.0
 11
14.979341
 21
24.481416
 31
0.0
  0
LINE
  5
230
100
AcDbEntity
  8
0
 62
7
100
AcDbLine
 10
14.979341
 20
24.481416
 30
0.0
 11
15.170485
 21
24.397791
 31
0.0
  0
LINE
  5
231
100
AcDbEntity
  8
0
 62
7
100
AcDbLine
 10
15.170485
 20
24.397791
 30
0.0
 11
15.359171
 21
24.309686
 31
0.0
  0
LINE
  5
232
100
AcDbEntity
  8
0
 62
7
100
AcDbLine
 10
15.359171
 20
24.309686
 30
0.0
 11
15.545330
 21
24.217170
 31
0.0
  0
LINE
  5
233
100
AcDbEntity
  8
0
 62
7
100
AcDbLine
 10
15.545330
 20
24.217170
 30
0.0
 11
15.728897
 21
24.120309
 31
0.0
  0
LINE
  5
234
100
AcDbEntity
  8
0
 62
7
100
AcDbLine
 10
15.728897
 20
24.120309
 30
0.0
 11
15.909803
 21
24.019172
 31
0.0
  0
LINE
  5
235
100
AcDbEntity
  8
0
 62
7
100
AcDbLine
 10
15.909803
 20
24.019172
 30
0.0
 11
16.087982
 21
23.913825
 31
0.0
  0
LINE
  5
236
100
AcDbEntity
  8
0
 62
7
100
AcDbLine
 10
16.087982
 20
23.913825
 30
0.0
 11
16.263366
 21
23.804335
 31
0.0
  0
LINE
  5
237
100
AcDbEntity
  8
0
 62
7
100
AcDbLine
 10
16.263366
 20
23.804335
 30
0.0
 11
16.435887
 21
23.690771
 31
0.0
  0
LINE
  5
238
100
AcDbEntity
  8
0
 62
7
100
AcDbLine
 10
16.435887
 20
23.690771
 30
0.0
 11
16.605478
 21
23.573199
 31
0.0
  0
LINE
  5
239
100
AcDbEntity
  8
0
 62
7
100
AcDbLine
 10
16.605478
 20
23.573199
 30
0.0
 11
16.772073
 21
23.451687
 31
0.0
  0
LINE
  5
23a
100
AcDbEntity
  8
0
 62
7
100
AcDbLine
 10
16.772073
 20
23.451687
 30
0.0
 11
16.935603
 21
23.326302
 31
0.0
  0
LINE
  5
23b
100
AcDbEntity
  8
0
 62
7
100
AcDbLine
 10
16.935603
 20
23.326302
 30
0.0
 11
17.096001
 21
23.197112
 31
0.0
  0
LINE
  5
23c
100
AcDbEntity
  8
0
 62
7
100
AcDbLine
 10
17.096001
 20
23.197112
 30
0.0
 11
17.253200
 21
23.064183
 31
0.0
  0
LINE
  5
23d
100
AcDbEntity
  8
0
 62
7
100
AcDbLine
 10
17.253200
 20
23.064183
 30
0.0
 11
17.407133
 21
22.927584
 31
0.0
  0
LINE
  5
23e
100
AcDbEntity
  8
0
 62
7
100
AcDbLine
 10
17.407133
 20
22.927584
 30
0.0
 11
17.557731
 21
22.787381
 31
0.0
  0
LINE
  5
23f
100
AcDbEntity
  8
0
 62
7
100
AcDbLine
 10
17.557731
 20
22.787381
 30
0.0
 11
17.704929
 21
22.643642
 31
0.0
  0
LINE
  5
240
100
AcDbEntity
  8
0
 62
7
100
AcDbLine
 10
17.704929
 20
22.643642
 30
0.0
 11
17.848658
 21
22.496435
 31
0.0
  0
LINE
  5
241
100
AcDbEntity
  8
0
 62
7
100
AcDbLine
 10
17.848658
 20
22.496435
 30
0.0
 11
17.988851
 21
22.345826
 31
0.0
  0
LINE
  5
242
100
AcDbEntity
  8
0
 62
7
100
AcDbLine
 10
17.988851
 20
22.345826
 30
0.0
 11
18.125441
 21
22.191883
 31
0.0
  0
LINE
  5
243
100
AcDbEntity
  8
0
 62
7
100
AcDbLine
 10
18.125441
 20
22.191883
 30
0.0
 11
18.258360
 21
22.034673
 31
0.0
  0
LINE
  5
244
100
AcDbEntity
  8
0
 62
7
100
AcDbLine
 10
18.258360
 20
22.034673
 30
0.0
 11
18.387542
 21
21.874264
 31
0.0
  0
LINE
  5
245
100
AcDbEntity
  8
0
 62
7
100
AcDbLine
 10
18.387542
 20
21.874264
 30
0.0
 11
18.512918
 21
21.710723
 31
0.0
  0
LINE
  5
246
100
AcDbEntity
  8
0
 62
7
100
AcDbLine
 10
18.512918
 20
21.710723
 30
0.0
 11
18.634422
 21
21.544118
 31
0.0
  0
LINE
  5
247
100
AcDbEntity
  8
0
 62
7
100
AcDbLine
 10
18.634422
 20
21.544118
 30
0.0
 11
18.751985
 21
21.374515
 31
0.0
  0
LINE
  5
248
100
AcDbEntity
  8
0
 62
7
100
AcDbLine
 10
18.751985
 20
21.374515
 30
0.0
 11
18.865542
 21
21.201982
 31
0.0
  0
LINE
  5
249
100
AcDbEntity
  8
0
 62
7
100
AcDbLine
 10
18.865542
 20
21.201982
 30
0.0
 11
18.975023
 21
21.026587
 31
0.0
  0
LINE
  5
24a
100
AcDbEntity
  8
0
 62
7
100
AcDbLine
 10
18.975023
 20
21.026587
 30
0.0
 11
19.080363
 21
20.848396
 31
0.0
  0
LINE
  5
24b
100
AcDbEntity
  8
0
 62
7
100
AcDbLine
 10
19.080363
 20
20.848396
 30
0.0
 11
19.181494
 21
20.667478
 31
0.0
  0
LINE
  5
24c
100
AcDbEntity
  8
0
 62
7
100
AcDbLine
 10
19.181494
 20
20.667478
 30
0.0
 11
19.278347
 21
20.483899
 31
0.0
  0
LINE
  5
24d
100
AcDbEntity
  8
0
 62
7
100
AcDbLine
 10
19.278347
 20
20.483899
 30
0.0
 11
19.370857
 21
20.297728
 31
0.0
  0
LINE
  5
24e
100
AcDbEntity
  8
0
 62
7
100
AcDbLine
 10
19.370857
 20
20.297728
 30
0.0
 11
19.458955
 21
20.109030
 31
0.0
  0
LINE
  5
24f
100
AcDbEntity
  8
0
 62
7
100
AcDbLine
 10
19.458955
 20
20.109030
 30
0.0
 11
19.542575
 21
19.917874
 31
0.0
  0
LINE
  5
250
100
AcDbEntity
  8
0
 62
7
100
AcDbLine
 10
19.542575
 20
19.917874
 30
0.0
 11
19.621648
 21
19.724327
 31
0.0
  0
LINE
  5
251
100
AcDbEntity
  8
0
 62
7
100
AcDbLine
 10
19.621648
 20
19.724327
 30
0.0
 11
19.696108
 21
19.528456
 31
0.0
  0
LINE
  5
252
100
AcDbEntity
  8
0
 62
7
100
AcDbLine
 10
19.696108
 20
19.528456
 30
0.0
 11
19.765887
 21
19.330329
 31
0.0
  0
LINE
  5
253
100
AcDbEntity
  8
0
 62
7
100
AcDbLine
 10
19.765887
 20
19.330329
 30
0.0
 11
19.830919
 21
19.130013
 31
0.0
  0
LINE
  5
254
100
AcDbEntity
  8
0
 62
7
100
AcDbLine
 10
19.830919
 20
19.130013
 30
0.0
 11
19.891134
 21
18.927575
 31
0.0
  0
LINE
  5
255
100
AcDbEntity
  8
0
 62
7
100
AcDbLine
 10
19.891134
 20
18.927575
 30
0.0
 11
19.946467
 21
18.723082
 31
0.0
  0
LINE
  5
256
100
AcDbEntity
  8
0
 62
7
100
AcDbLine
 10
19.946467
 20
18.723082
 30
0.0
 11
19.996850
 21
18.516603
 31
0.0
  0
LINE
  5
257
100
AcDbEntity
  8
0
 62
7
100
AcDbLine
 10
19.996850
 20
18.516603
 30
0.0
 11
20.042215
 21
18.308205
 31
0.0
  0
LINE
  5
258
100
AcDbEntity
  8
0
 62
7
100
AcDbLine
 10
20.042215
 20
18.308205
 30
0.0
 11
20.082495
 21
18.097954
 31
0.0
  0
LINE
  5
259
100
AcDbEntity
  8
0
 62
7
100
AcDbLine
 10
20.082495
 20
18.097954
 30
0.0
 11
20.117624
 21
17.885918
 31
0.0
  0
LINE
  5
25a
100
AcDbEntity
  8
0
 62
7
100
AcDbLine
 10
20.117624
 20
17.885918
 30
0.0
 11
20.147532
 21
17.672164
 31
0.0
  0
LINE
  5
25b
100
AcDbEntity
  8
0
 62
7
100
AcDbLine
 10
20.147532
 20
17.672164
 30
0.0
 11
20.172153
 21
17.456761
 31
0.0
  0
LINE
  5
25c
100
AcDbEntity
  8
0
 62
7
100
AcDbLine
 10
20.172153
 20
17.456761
 30
0.0
 11
20.191420
 21
17.239774
 31
0.0
  0
LINE
  5
25d
100
AcDbEntity
  8
0
 62
7
100
AcDbLine
 10
20.191420
 20
17.239774
 30
0.0
 11
20.205266
 21
17.021273
 31
0.0
  0
LINE
  5
25e
100
AcDbEntity
  8
0
 62
7
100
AcDbLine
 10
20.205266
 20
17.021273
 30
0.0
 11
20.213623
 21
16.801323
 31
0.0
  0
LINE
  5
25f
100
AcDbEntity
  8
0
 62
7
100
AcDbLine
 10
20.213623
 20
16.801323
 30
0.0
 11
20.216417
 21
16.579992
 31
0.0
  0
LINE
  5
260
100
AcDbEntity
  8
0
 62
7
100
AcDbLine
 10
20.216417
 20
16.579992
 30
0.0
 11
20.213623
 21
16.358662
 31
0.0
  0
LINE
  5
261
100
AcDbEntity
  8
0
 62
7
100
AcDbLine
 10
20.213623
 20
16.358662
 30
0.0
 11
20.205263
 21
16.138715
 31
0.0
  0
LINE
  5
262
100
AcDbEntity
  8
0
 62
7
100
AcDbLine
 10
20.205263
 20
16.138715
 30
0.0
 11
20.191415
 21
15.920217
 31
0.0
  0
LINE
  5
263
100
AcDbEntity
  8
0
 62
7
100
AcDbLine
 10
20.191415
 20
15.920217
 30
0.0
 11
20.172142
 21
15.703236
 31
0.0
  0
LINE
  5
264
100
AcDbEntity
  8
0
 62
7
100
AcDbLine
 10
20.172142
 20
15.703236
 30
0.0
 11
20.147515
 21
15.487839
 31
0.0
  0
LINE
  5
265
100
AcDbEntity
  8
0
 62
7
100
AcDbLine
 10
20.147515
 20
15.487839
 30
0.0
 11
20.117601
 21
15.274094
 31
0.0
  0
LINE
  5
266
100
AcDbEntity
  8
0
 62
7
100
AcDbLine
 10
20.117601
 20
15.274094
 30
0.0
 11
20.082466
 21
15.062068
 31
0.0
  0
LINE
  5
267
100
AcDbEntity
  8
0
 62
7
100
AcDbLine
 10
20.082466
 20
15.062068
 30
0.0
 11
20.042178
 21
14.851828
 31
0.0
  0
LINE
  5
268
100
AcDbEntity
  8
0
 62
7
100
AcDbLine
 10
20.042178
 20
14.851828
 30
0.0
 11
19.996804
 21
14.643441
 31
0.0
  0
LINE
  5
269
100
AcDbEntity
  8
0
 62
7
100
AcDbLine
 10
19.996804
 20
14.643441
 30
0.0
 11
19.946412
 21
14.436976
 31
0.0
  0
LINE
  5
26a
100
AcDbEntity
  8
0
 62
7
100
AcDbLine
 10
19.946412
 20
14.436976
 30
0.0
 11
19.891070
 21
14.232498
 31
0.0
  0
LINE
  5
26b
100
AcDbEntity
  8
0
 62
7
100
AcDbLine
 10
19.891070
 20
14.232498
 30
0.0
 11
19.830844
 21
14.030076
 31
0.0
  0
LINE
  5
26c
100
AcDbEntity
  8
0
 62
7
100
AcDbLine
 10
19.830844
 20
14.030076
 30
0.0
 11
19.765801
 21
13.829776
 31
0.0
  0
LINE
  5
26d
100
AcDbEntity
  8
0
 62
7
100
AcDbLine
 10
19.765801
 20
13.829776
 30
0.0
 11
19.696011
 21
13.631666
 31
0.0
  0
LINE
  5
26e
100
AcDbEntity
  8
0
 62
7
100
AcDbLine
 10
19.696011
 20
13.631666
 30
0.0
 11
19.621539
 21
13.435814
 31
0.0
  0
LINE
  5
26f
100
AcDbEntity
  8
0
 62
7
100
AcDbLine
 10
19.621539
 20
13.435814
 30
0.0
 11
19.542453
 21
13.242286
 31
0.0
  0
LINE
  5
270
100
AcDbEntity
  8
0
 62
7
100
AcDbLine
 10
19.542453
 20
13.242286
 30
0.0
 11
19.458821
 21
13.051150
 31
0.0
  0
LINE
  5
271
100
AcDbEntity
  8
0
 62
7
100
AcDbLine
 10
19.458821
 20
13.051150
 30
0.0
 11
19.370710
 21
12.862474
 31
0.0
  0
LINE
  5
272
100
AcDbEntity
  8
0
 62
7
100
AcDbLine
 10
19.370710
 20
12.862474
 30
0.0
 11
19.278187
 21
12.676324
 31
0.0
  0
LINE
  5
273
100
AcDbEntity
  8
0
 62
7
100
AcDbLine
 10
19.278187
 20
12.676324
 30
0.0
 11
19.181321
 21
12.492768
 31
0.0
  0
LINE
  5
274
100
AcDbEntity
  8
0
 62
7
100
AcDbLine
 10
19.181321
 20
12.492768
 30
0.0
 11
19.080177
 21
12.311872
 31
0.0
  0
LINE
  5
275
100
AcDbEntity
  8
0
 62
7
100
AcDbLine
 10
19.080177
 20
12.311872
 30
0.0
 11
18.974824
 21
12.133706
 31
0.0
  0
LINE
  5
276
100
AcDbEntity
  8
0
 62
7
100
AcDbLine
 10
18.974824
 20
12.133706
 30
0.0
 11
18.865329
 21
11.958334
 31
0.0
  0
LINE
  5
277
100
AcDbEntity
  8
0
 62
7
100
AcDbLine
 10
18.865329
 20
11.958334
 30
0.0
 11
18.751760
 21
11.785826
 31
0.0
  0
LINE
  5
278
100
AcDbEntity
  8
0
 62
7
100
AcDbLine
 10
18.751760
 20
11.785826
 30
0.0
 11
18.634183
 21
11.616249
 31
0.0
  0
LINE
  5
279
100
AcDbEntity
  8
0
 62
7
100
AcDbLine
 10
18.634183
 20
11.616249
 30
0.0
 11
18.512667
 21
11.449668
 31
0.0
  0
LINE
  5
27a
100
AcDbEntity
  8
0
 62
7
100
AcDbLine
 10
18.512667
 20
11.449668
 30
0.0
 11
18.387278
 21
11.286153
 31
0.0
  0
LINE
  5
27b
100
AcDbEntity
  8
0
 62
7
100
AcDbLine
 10
18.387278
 20
11.286153
 30
0.0
 11
18.258084
 21
11.125770
 31
0.0
  0
LINE
  5
27c
100
AcDbEntity
  8
0
 62
7
100
AcDbLine
 10
18.258084
 20
11.125770
 30
0.0
 11
18.125153
 21
10.968586
 31
0.0
  0
LINE
  5
27d
100
AcDbEntity
  8
0
 62
7
100
AcDbLine
 10
18.125153
 20
10.968586
 30
0.0
 11
17.988552
 21
10.814670
 31
0.0
  0
LINE
  5
27e
100
AcDbEntity
  8
0
 62
7
100
AcDbLine
 10
17.988552
 20
10.814670
 30
0.0
 11
17.848348
 21
10.664087
 31
0.0
  0
LINE
  5
27f
100
AcDbEntity
  8
0
 62
7
100
AcDbLine
 10
17.848348
 20
10.664087
 30
0.0
 11
17.704609
 21
10.516906
 31
0.0
  0
LINE
  5
280
100
AcDbEntity
  8
0
 62
7
100
AcDbLine
 10
17.704609
 20
10.516906
 30
0.0
 11
17.557402
 21
10.373194
 31
0.0
  0
LINE
  5
281
100
AcDbEntity
  8
0
 62
7
100
AcDbLine
 10
17.557402
 20
10.373194
 30
0.0
 11
17.406794
 21
10.233017
 31
0.0
  0
LINE
  5
282
100
AcDbEntity
  8
0
 62
7
100
AcDbLine
 10
17.406794
 20
10.233017
 30
0.0
 11
17.252853
 21
10.096444
 31
0.0
  0
LINE
  5
283
100
AcDbEntity
  8
0
 62
7
100
AcDbLine
 10
17.252853
 20
10.096444
 30
0.0
 11
17.095647
 21
9.963542
 31
0.0
  0
LINE
  5
284
100
AcDbEntity
  8
0
 62
7
100
AcDbLine
 10
17.095647
 20
9.963542
 30
0.0
 11
16.935242
 21
9.834377
 31
0.0
  0
LINE
  5
285
100
AcDbEntity
  8
0
 62
7
100
AcDbLine
 10
16.935242
 20
9.834377
 30
0.0
 11
16.771706
 21
9.709018
 31
0.0
  0
LINE
  5
286
100
AcDbEntity
  8
0
 62
7
100
AcDbLine
 10
16.771706
 20
9.709018
 30
0.0
 11
16.605107
 21
9.587531
 31
0.0
  0
LINE
  5
287
100
AcDbEntity
  8
0
 62
7
100
AcDbLine
 10
16.605107
 20
9.587531
 30
0.0
 11
16.435512
 21
9.469985
 31
0.0
  0
LINE
  5
288
100
AcDbEntity
  8
0
 62
7
100
AcDbLine
 10
16.435512
 20
9.469985
 30
0.0
 11
16.262988
 21
9.356445
 31
0.0
  0
LINE
  5
289
100
AcDbEntity
  8
0
 62
7
100
AcDbLine
 10
16.262988
 20
9.356445
 30
0.0
 11
16.087603
 21
9.246980
 31
0.0
  0
LINE
  5
28a
100
AcDbEntity
  8
0
 62
7
100
AcDbLine
 10
16.087603
 20
9.246980
 30
0.0
 11
15.909425
 21
9.141656
 31
0.0
  0
LINE
  5
28b
100
AcDbEntity
  8
0
 62
7
100
AcDbLine
 10
15.909425
 20
9.141656
 30
0.0
 11
15.728519
 21
9.040542
 31
0.0
  0
LINE
  5
28c
100
AcDbEntity
  8
0
 62
7
100
AcDbLine
 10
15.728519
 20
9.040542
 30
0.0
 11
15.544955
 21
8.943704
 31
0.0
  0
LINE
  5
28d
100
AcDbEntity
  8
0
 62
7
100
AcDbLine
 10
15.544955
 20
8.943704
 30
0.0
 11
15.358799
 21
8.851209
 31
0.0
  0
LINE
  5
28e
100
AcDbEntity
  8
0
 62
7
100
AcDbLine
 10
15.358799
 20
8.851209
 30
0.0
 11
15.170119
 21
8.763126
 31
0.0
  0
LINE
  5
28f
100
AcDbEntity
  8
0
 62
7
100
AcDbLine
 10
15.170119
 20
8.763126
 30
0.0
 11
14.978982
 21
8.679520
 31
0.0
  0
LINE
  5
290
100
AcDbEntity
  8
0
 62
7
100
AcDbLine
 10
14.978982
 20
8.679520
 30
0.0
 11
14.785455
 21
8.600461
 31
0.0
  0
LINE
  5
291
100
AcDbEntity
  8
0
 62
7
100
AcDbLine
 10
14.785455
 20
8.600461
 30
0.0
 11
14.589607
 21
8.526014
 31
0.0
  0
LINE
  5
292
100
AcDbEntity
  8
0
 62
7
100
AcDbLine
 10
14.589607
 20
8.526014
 30
0.0
 11
14.391504
 21
8.456247
 31
0.0
  0
LINE
  5
293
100
AcDbEntity
  8
0
 62
7
100
AcDbLine
 10
14.391504
 20
8.456247
 30
0.0
 11
14.191213
 21
8.391228
 31
0.0
  0
LINE
  5
294
100
AcDbEntity
  8
0
 62
7
100
AcDbLine
 10
14.191213
 20
8.391228
 30
0.0
 11
13.988803
 21
8.331024
 31
0.0
  0
LINE
  5
295
100
AcDbEntity
  8
0
 62
7
100
AcDbLine
 10
13.988803
 20
8.331024
 30
0.0
 11
13.784341
 21
8.275701
 31
0.0
  0
LINE
  5
296
100
AcDbEntity
  8
0
 62
7
100
AcDbLine
 10
13.784341
 20
8.275701
 30
0.0
 11
13.577893
 21
8.225329
 31
0.0
  0
LINE
  5
297
100
AcDbEntity
  8
0
 62
7
100
AcDbLine
 10
13.577893
 20
8.225329
 30
0.0
 11
13.369528
 21
8.179972
 31
0.0
  0
LINE
  5
298
100
AcDbEntity
  8
0
 62
7
100
AcDbLine
 10
13.369528
 20
8.179972
 30
0.0
 11
13.159313
 21
8.139700
 31
0.0
  0
LINE
  5
299
100
AcDbEntity
  8
0
 62
7
100
AcDbLine
 10
13.159313
 20
8.139700
 30
0.0
 11
12.947315
 21
8.104579
 31
0.0
  0
LINE
  5
29a
100
AcDbEntity
  8
0
 62
7
100
AcDbLine
 10
12.947315
 20
8.104579
 30
0.0
 11
12.733602
 21
8.074676
 31
0.0
  0
LINE
  5
29b
100
AcDbEntity
  8
0
 62
7
100
AcDbLine
 10
12.733602
 20
8.074676
 30
0.0
 11
12.518241
 21
8.050061
 31
0.0
  0
LINE
  5
29c
100
AcDbEntity
  8
0
 62
7
100
AcDbLine
 10
12.518241
 20
8.050061
 30
0.0
 11
12.301299
 21
8.030796
 31
0.0
  0
LINE
  5
29d
100
AcDbEntity
  8
0
 62
7
100
AcDbLine
 10
12.301299
 20
8.030796
 30
0.0
 11
12.082844
 21
8.016953
 31
0.0
  0
LINE
  5
29e
100
AcDbEntity
  8
0
 62
7
100
AcDbLine
 10
12.082844
 20
8.016953
 30
0.0
 11
11.862943
 21
8.008597
 31
0.0
  0
LINE
  5
29f
100
AcDbEntity
  8
0
 62
7
100
AcDbLine
 10
11.862943
 20
8.008597
 30
0.0
 11
11.641664
 21
8.005803
 31
0.0
  0
LINE
  5
2a0
100
AcDbEntity
  8
0
 62
7
100
AcDbLine
 10
11.641664
 20
8.005803
 30
0.0
 11
11.641667
 21
8.005798
 31
0.0
  0
LINE
  5
2a1
100
AcDbEntity
  8
0
 62
7
100
AcDbLine
 10
8.895080
 20
20.542956
 30
0.0
 11
9.176808
 21
20.542956
 31
0.0
  0
LINE
  5
2a2
100
AcDbEntity
  8
0
 62
7
100
AcDbLine
 10
9.176808
 20
20.542956
 30
0.0
 11
9.458537
 21
20.542956
 31
0.0
  0
LINE
  5
2a3
100
AcDbEntity
  8
0
 62
7
100
AcDbLine
 10
9.458537
 20
20.542956
 30
0.0
 11
9.740265
 21
20.542956
 31
0.0
  0
LINE
  5
2a4
100
AcDbEntity
  8
0
 62
7
100
AcDbLine
 10
9.740265
 20
20.542956
 30
0.0
 11
10.021993
 21
20.542956
 31
0.0
  0
LINE
  5
2a5
100
AcDbEntity
  8
0
 62
7
100
AcDbLine
 10
10.021993
 20
20.542956
 30
0.0
 11
10.303722
 21
20.542956
 31
0.0
  0
LINE
  5
2a6
100
AcDbEntity
  8
0
 62
7
100
AcDbLine
 10
10.303722
 20
20.542956
 30
0.0
 11
10.585450
 21
20.542956
 31
0.0
  0
LINE
  5
2a7
100
AcDbEntity
  8
0
 62
7
100
AcDbLine
 10
10.585450
 20
20.542956
 30
0.0
 11
10.867178
 21
20.542956
 31
0.0
  0
LINE
  5
2a8
100
AcDbEntity
  8
0
 62
7
100
AcDbLine
 10
10.867178
 20
20.542956
 30
0.0
 11
11.148907
 21
20.542956
 31
0.0
  0
LINE
  5
2a9
100
AcDbEntity
  8
0
 62
7
100
AcDbLine
 10
11.148907
 20
20.542956
 30
0.0
 11
11.430635
 21
20.542956
 31
0.0
  0
LINE
  5
2aa
100
AcDbEntity
  8
0
 62
7
100
AcDbLine
 10
11.430635
 20
20.542956
 30
0.0
 11
11.712363
 21
20.542956
 31
0.0
  0
LINE
  5
2ab
100
AcDbEntity
  8
0
 62
7
100
AcDbLine
 10
11.712363
 20
20.542956
 30
0.0
 11
11.994092
 21
20.542956
 31
0.0
  0
LINE
  5
2ac
100
AcDbEntity
  8
0
 62
7
100
AcDbLine
 10
11.994092
 20
20.542956
 30
0.0
 11
12.275820
 21
20.542956
 31
0.0
  0
LINE
  5
2ad
100
AcDbEntity
  8
0
 62
7
100
AcDbLine
 10
12.275820
 20
20.542956
 30
0.0
 11
12.557548
 21
20.542956
 31
0.0
  0
LINE
  5
2ae
100
AcDbEntity
  8
0
 62
7
100
AcDbLine
 10
12.557548
 20
20.542956
 30
0.0
 11
12.839277
 21
20.542956
 31
0.0
  0
LINE
  5
2af
100
AcDbEntity
  8
0
 62
7
100
AcDbLine
 10
12.839277
 20
20.542956
 30
0.0
 11
13.121005
 21
20.542956
 31
0.0
  0
LINE
  5
2b0
100
AcDbEntity
  8
0
 62
7
100
AcDbLine
 10
13.121005
 20
20.542956
 30
0.0
 11
13.402733
 21
20.542956
 31
0.0
  0
LINE
  5
2b1
100
AcDbEntity
  8
0
 62
7
100
AcDbLine
 10
13.402733
 20
20.542956
 30
0.0
 11
13.402733
 21
20.655651
 31
0.0
  0
LINE
  5
2b2
100
AcDbEntity
  8
0
 62
7
100
AcDbLine
 10
13.402733
 20
20.655651
 30
0.0
 11
13.402733
 21
20.768345
 31
0.0
  0
LINE
  5
2b3
100
AcDbEntity
  8
0
 62
7
100
AcDbLine
 10
13.402733
 20
20.768345
 30
0.0
 11
13.402733
 21
20.881040
 31
0.0
  0
LINE
  5
2b4
100
AcDbEntity
  8
0
 62
7
100
AcDbLine
 10
13.402733
 20
20.881040
 30
0.0
 11
13.402733
 21
20.993735
 31
0.0
  0
LINE
  5
2b5
100
AcDbEntity
  8
0
 62
7
100
AcDbLine
 10
13.402733
 20
20.993735
 30
0.0
 11
13.402733
 21
21.106430
 31
0.0
  0
LINE
  5
2b6
100
AcDbEntity
  8
0
 62
7
100
AcDbLine
 10
13.402733
 20
21.106430
 30
0.0
 11
13.402733
 21
21.219125
 31
0.0
  0
LINE
  5
2b7
100
AcDbEntity
  8
0
 62
7
100
AcDbLine
 10
13.402733
 20
21.219125
 30
0.0
 11
13.402733
 21
21.331819
 31
0.0
  0
LINE
  5
2b8
100
AcDbEntity
  8
0
 62
7
100
AcDbLine
 10
13.402733
 20
21.331819
 30
0.0
 11
13.402733
 21
21.444514
 31
0.0
  0
LINE
  5
2b9
100
AcDbEntity
  8
0
 62
7
100
AcDbLine
 10
13.402733
 20
21.444514
 30
0.0
 11
13.402733
 21
21.557209
 31
0.0
  0
LINE
  5
2ba
100
AcDbEntity
  8
0
 62
7
100
AcDbLine
 10
13.402733
 20
21.557209
 30
0.0
 11
13.402733
 21
21.669904
 31
0.0
  0
LINE
  5
2bb
100
AcDbEntity
  8
0
 62
7
100
AcDbLine
 10
13.402733
 20
21.669904
 30
0.0
 11
13.402733
 21
21.782599
 31
0.0
  0
LINE
  5
2bc
100
AcDbEntity
  8
0
 62
7
100
AcDbLine
 10
13.402733
 20
21.782599
 30
0.0
 11
13.402733
 21
21.895294
 31
0.0
  0
LINE
  5
2bd
100
AcDbEntity
  8
0
 62
7
100
AcDbLine
 10
13.402733
 20
21.895294
 30
0.0
 11
13.402733
 21
22.007989
 31
0.0
  0
LINE
  5
2be
100
AcDbEntity
  8
0
 62
7
100
AcDbLine
 10
13.402733
 20
22.007989
 30
0.0
 11
13.402733
 21
22.120684
 31
0.0
  0
LINE
  5
2bf
100
AcDbEntity
  8
0
 62
7
100
AcDbLine
 10
13.402733
 20
22.120684
 30
0.0
 11
13.402733
 21
22.233379
 31
0.0
  0
LINE
  5
2c0
100
AcDbEntity
  8
0
 62
7
100
AcDbLine
 10
13.402733
 20
22.233379
 30
0.0
 11
13.402733
 21
22.346073
 31
0.0
  0
LINE
  5
2c1
100
AcDbEntity
  8
0
 62
7
100
AcDbLine
 10
13.402733
 20
22.346073
 30
0.0
 11
13.726671
 21
22.152398
 31
0.0
  0
LINE
  5
2c2
100
AcDbEntity
  8
0
 62
7
100
AcDbLine
 10
13.726671
 20
22.152398
 30
0.0
 11
14.050610
 21
21.958723
 31
0.0
  0
LINE
  5
2c3
100
AcDbEntity
  8
0
 62
7
100
AcDbLine
 10
14.050610
 20
21.958723
 30
0.0
 11
14.374548
 21
21.765048
 31
0.0
  0
LINE
  5
2c4
100
AcDbEntity
  8
0
 62
7
100
AcDbLine
 10
14.374548
 20
21.765048
 30
0.0
 11
14.698486
 21
21.571373
 31
0.0
  0
LINE
  5
2c5
100
AcDbEntity
  8
0
 62
7
100
AcDbLine
 10
14.698486
 20
21.571373
 30
0.0
 11
15.022424
 21
21.377698
 31
0.0
  0
LINE
  5
2c6
100
AcDbEntity
  8
0
 62
7
100
AcDbLine
 10
15.022424
 20
21.377698
 30
0.0
 11
15.346362
 21
21.184023
 31
0.0
  0
LINE
  5
2c7
100
AcDbEntity
  8
0
 62
7
100
AcDbLine
 10
15.346362
 20
21.184023
 30
0.0
 11
15.670301
 21
20.990348
 31
0.0
  0
LINE
  5
2c8
100
AcDbEntity
  8
0
 62
7
100
AcDbLine
 10
15.670301
 20
20.990348
 30
0.0
 11
15.994239
 21
20.796673
 31
0.0
  0
LINE
  5
2c9
100
AcDbEntity
  8
0
 62
7
100
AcDbLine
 10
15.994239
 20
20.796673
 30
0.0
 11
16.318177
 21
20.602998
 31
0.0
  0
LINE
  5
2ca
100
AcDbEntity
  8
0
 62
7
100
AcDbLine
 10
16.318177
 20
20.602998
 30
0.0
 11
16.642115
 21
20.409323
 31
0.0
  0
LINE
  5
2cb
100
AcDbEntity
  8
0
 62
7
100
AcDbLine
 10
16.642115
 20
20.409323
 30
0.0
 11
16.966053
 21
20.215648
 31
0.0
  0
LINE
  5
2cc
100
AcDbEntity
  8
0
 62
7
100
AcDbLine
 10
16.966053
 20
20.215648
 30
0.0
 11
17.289992
 21
20.021973
 31
0.0
  0
LINE
  5
2cd
100
AcDbEntity
  8
0
 62
7
100
AcDbLine
 10
17.289992
 20
20.021973
 30
0.0
 11
17.613930
 21
19.828298
 31
0.0
  0
LINE
  5
2ce
100
AcDbEntity
  8
0
 62
7
100
AcDbLine
 10
17.613930
 20
19.828298
 30
0.0
 11
17.937868
 21
19.634623
 31
0.0
  0
LINE
  5
2cf
100
AcDbEntity
  8
0
 62
7
100
AcDbLine
 10
17.937868
 20
19.634623
 30
0.0
 11
18.261806
 21
19.440948
 31
0.0
  0
LINE
  5
2d0
100
AcDbEntity
  8
0
 62
7
100
AcDbLine
 10
18.261806
 20
19.440948
 30
0.0
 11
18.585744
 21
19.247273
 31
0.0
  0
LINE
  5
2d1
100
AcDbEntity
  8
0
 62
7
100
AcDbLine
 10
18.585744
 20
19.247273
 30
0.0
 11
18.261806
 21
19.060636
 31
0.0
  0
LINE
  5
2d2
100
AcDbEntity
  8
0
 62
7
100
AcDbLine
 10
18.261806
 20
19.060636
 30
0.0
 11
17.937868
 21
18.873999
 31
0.0
  0
LINE
  5
2d3
100
AcDbEntity
  8
0
 62
7
100
AcDbLine
 10
17.937868
 20
18.873999
 30
0.0
 11
17.613930
 21
18.687362
 31
0.0
  0
LINE
  5
2d4
100
AcDbEntity
  8
0
 62
7
100
AcDbLine
 10
17.613930
 20
18.687362
 30
0.0
 11
17.289992
 21
18.500725
 31
0.0
  0
LINE
  5
2d5
100
AcDbEntity
  8
0
 62
7
100
AcDbLine
 10
17.289992
 20
18.500725
 30
0.0
 11
16.966053
 21
18.314088
 31
0.0
  0
LINE
  5
2d6
100
AcDbEntity
  8
0
 62
7
100
AcDbLine
 10
16.966053
 20
18.314088
 30
0.0
 11
16.642115
 21
18.127451
 31
0.0
  0
LINE
  5
2d7
100
AcDbEntity
  8
0
 62
7
100
AcDbLine
 10
16.642115
 20
18.127451
 30
0.0
 11
16.318177
 21
17.940814
 31
0.0
  0
LINE
  5
2d8
100
AcDbEntity
  8
0
 62
7
100
AcDbLine
 10
16.318177
 20
17.940814
 30
0.0
 11
15.994239
 21
17.754177
 31
0.0
  0
LINE
  5
2d9
100
AcDbEntity
  8
0
 62
7
100
AcDbLine
 10
15.994239
 20
17.754177
 30
0.0
 11
15.670301
 21
17.567540
 31
0.0
  0
LINE
  5
2da
100
AcDbEntity
  8
0
 62
7
100
AcDbLine
 10
15.670301
 20
17.567540
 30
0.0
 11
15.346362
 21
17.380902
 31
0.0
  0
LINE
  5
2db
100
AcDbEntity
  8
0
 62
7
100
AcDbLine
 10
15.346362
 20
17.380902
 30
0.0
 11
15.022424
 21
17.194266
 31
0.0
  0
LINE
  5
2dc
100
AcDbEntity
  8
0
 62
7
100
AcDbLine
 10
15.022424
 20
17.194266
 30
0.0
 11
14.698486
 21
17.007628
 31
0.0
  0
LINE
  5
2dd
100
AcDbEntity
  8
0
 62
7
100
AcDbLine
 10
14.698486
 20
17.007628
 30
0.0
 11
14.374548
 21
16.820991
 31
0.0
  0
LINE
  5
2de
100
AcDbEntity
  8
0
 62
7
100
AcDbLine
 10
14.374548
 20
16.820991
 30
0.0
 11
14.050610
 21
16.634354
 31
0.0
  0
LINE
  5
2df
100
AcDbEntity
  8
0
 62
7
100
AcDbLine
 10
14.050610
 20
16.634354
 30
0.0
 11
13.726671
 21
16.447717
 31
0.0
  0
LINE
  5
2e0
100
AcDbEntity
  8
0
 62
7
100
AcDbLine
 10
13.726671
 20
16.447717
 30
0.0
 11
13.402733
 21
16.261080
 31
0.0
  0
LINE
  5
2e1
100
AcDbEntity
  8
0
 62
7
100
AcDbLine
 10
13.402733
 20
16.261080
 30
0.0
 11
13.402733
 21
16.366719
 31
0.0
  0
LINE
  5
2e2
100
AcDbEntity
  8
0
 62
7
100
AcDbLine
 10
13.402733
 20
16.366719
 30
0.0
 11
13.402733
 21
16.472359
 31
0.0
  0
LINE
  5
2e3
100
AcDbEntity
  8
0
 62
7
100
AcDbLine
 10
13.402733
 20
16.472359
 30
0.0
 11
13.402733
 21
16.577998
 31
0.0
  0
LINE
  5
2e4
100
AcDbEntity
  8
0
 62
7
100
AcDbLine
 10
13.402733
 20
16.577998
 30
0.0
 11
13.402733
 21
16.683637
 31
0.0
  0
LINE
  5
2e5
100
AcDbEntity
  8
0
 62
7
100
AcDbLine
 10
13.402733
 20
16.683637
 30
0.0
 11
13.402733
 21
16.789277
 31
0.0
  0
LINE
  5
2e6
100
AcDbEntity
  8
0
 62
7
100
AcDbLine
 10
13.402733
 20
16.789277
 30
0.0
 11
13.402733
 21
16.894916
 31
0.0
  0
LINE
  5
2e7
100
AcDbEntity
  8
0
 62
7
100
AcDbLine
 10
13.402733
 20
16.894916
 30
0.0
 11
13.402733
 21
17.000555
 31
0.0
  0
LINE
  5
2e8
100
AcDbEntity
  8
0
 62
7
100
AcDbLine
 10
13.402733
 20
17.000555
 30
0.0
 11
13.402733
 21
17.106194
 31
0.0
  0
LINE
  5
2e9
100
AcDbEntity
  8
0
 62
7
100
AcDbLine
 10
13.402733
 20
17.106194
 30
0.0
 11
13.402733
 21
17.211834
 31
0.0
  0
LINE
  5
2ea
100
AcDbEntity
  8
0
 62
7
100
AcDbLine
 10
13.402733
 20
17.211834
 30
0.0
 11
13.402733
 21
17.317473
 31
0.0
  0
LINE
  5
2eb
100
AcDbEntity
  8
0
 62
7
100
AcDbLine
 10
13.402733
 20
17.317473
 30
0.0
 11
13.402733
 21
17.423113
 31
0.0
  0
LINE
  5
2ec
100
AcDbEntity
  8
0
 62
7
100
AcDbLine
 10
13.402733
 20
17.423113
 30
0.0
 11
13.402733
 21
17.528752
 31
0.0
  0
LINE
  5
2ed
100
AcDbEntity
  8
0
 62
7
100
AcDbLine
 10
13.402733
 20
17.528752
 30
0.0
 11
13.402733
 21
17.634391
 31
0.0
  0
LINE
  5
2ee
100
AcDbEntity
  8
0
 62
7
100
AcDbLine
 10
13.402733
 20
17.634391
 30
0.0
 11
13.402733
 21
17.740030
 31
0.0
  0
LINE
  5
2ef
100
AcDbEntity
  8
0
 62
7
100
AcDbLine
 10
13.402733
 20
17.740030
 30
0.0
 11
13.402733
 21
17.845669
 31
0.0
  0
LINE
  5
2f0
100
AcDbEntity
  8
0
 62
7
100
AcDbLine
 10
13.402733
 20
17.845669
 30
0.0
 11
13.402733
 21
17.951309
 31
0.0
  0
LINE
  5
2f1
100
AcDbEntity
  8
0
 62
7
100
AcDbLine
 10
13.402733
 20
17.951309
 30
0.0
 11
13.142154
 21
17.951309
 31
0.0
  0
LINE
  5
2f2
100
AcDbEntity
  8
0
 62
7
100
AcDbLine
 10
13.142154
 20
17.951309
 30
0.0
 11
12.881575
 21
17.951309
 31
0.0
  0
LINE
  5
2f3
100
AcDbEntity
  8
0
 62
7
100
AcDbLine
 10
12.881575
 20
17.951309
 30
0.0
 11
12.620996
 21
17.951309
 31
0.0
  0
LINE
  5
2f4
100
AcDbEntity
  8
0
 62
7
100
AcDbLine
 10
12.620996
 20
17.951309
 30
0.0
 11
12.360416
 21
17.951309
 31
0.0
  0
LINE
  5
2f5
100
AcDbEntity
  8
0
 62
7
100
AcDbLine
 10
12.360416
 20
17.951309
 30
0.0
 11
12.099837
 21
17.951309
 31
0.0
  0
LINE
  5
2f6
100
AcDbEntity
  8
0
 62
7
100
AcDbLine
 10
12.099837
 20
17.951309
 30
0.0
 11
11.839257
 21
17.951309
 31
0.0
  0
LINE
  5
2f7
100
AcDbEntity
  8
0
 62
7
100
AcDbLine
 10
11.839257
 20
17.951309
 30
0.0
 11
11.578678
 21
17.951309
 31
0.0
  0
LINE
  5
2f8
100
AcDbEntity
  8
0
 62
7
100
AcDbLine
 10
11.578678
 20
17.951309
 30
0.0
 11
11.318099
 21
17.951309
 31
0.0
  0
LINE
  5
2f9
100
AcDbEntity
  8
0
 62
7
100
AcDbLine
 10
11.318099
 20
17.951309
 30
0.0
 11
11.057519
 21
17.951309
 31
0.0
  0
LINE
  5
2fa
100
AcDbEntity
  8
0
 62
7
100
AcDbLine
 10
11.057519
 20
17.951309
 30
0.0
 11
10.796940
 21
17.951309
 31
0.0
  0
LINE
  5
2fb
100
AcDbEntity
  8
0
 62
7
100
AcDbLine
 10
10.796940
 20
17.951309
 30
0.0
 11
10.536361
 21
17.951309
 31
0.0
  0
LINE
  5
2fc
100
AcDbEntity
  8
0
 62
7
100
AcDbLine
 10
10.536361
 20
17.951309
 30
0.0
 11
10.275782
 21
17.951309
 31
0.0
  0
LINE
  5
2fd
100
AcDbEntity
  8
0
 62
7
100
AcDbLine
 10
10.275782
 20
17.951309
 30
0.0
 11
10.015202
 21
17.951309
 31
0.0
  0
LINE
  5
2fe
100
AcDbEntity
  8
0
 62
7
100
AcDbLine
 10
10.015202
 20
17.951309
 30
0.0
 11
9.754623
 21
17.951309
 31
0.0
  0
LINE
  5
2ff
100
AcDbEntity
  8
0
 62
7
100
AcDbLine
 10
9.754623
 20
17.951309
 30
0.0
 11
9.494044
 21
17.951309
 31
0.0
  0
LINE
  5
300
100
AcDbEntity
  8
0
 62
7
100
AcDbLine
 10
9.494044
 20
17.951309
 30
0.0
 11
9.233464
 21
17.951309
 31
0.0
  0
LINE
  5
301
100
AcDbEntity
  8
0
 62
7
100
AcDbLine
 10
9.233464
 20
17.951309
 30
0.0
 11
9.027062
 21
17.939286
 31
0.0
  0
LINE
  5
302
100
AcDbEntity
  8
0
 62
7
100
AcDbLine
 10
9.027062
 20
17.939286
 30
0.0
 11
8.850128
 21
17.905311
 31
0.0
  0
LINE
  5
303
100
AcDbEntity
  8
0
 62
7
100
AcDbLine
 10
8.850128
 20
17.905311
 30
0.0
 11
8.700433
 21
17.852520
 31
0.0
  0
LINE
  5
304
100
AcDbEntity
  8
0
 62
7
100
AcDbLine
 10
8.700433
 20
17.852520
 30
0.0
 11
8.575750
 21
17.784047
 31
0.0
  0
LINE
  5
305
100
AcDbEntity
  8
0
 62
7
100
AcDbLine
 10
8.575750
 20
17.784047
 30
0.0
 11
8.473849
 21
17.703030
 31
0.0
  0
LINE
  5
306
100
AcDbEntity
  8
0
 62
7
100
AcDbLine
 10
8.473849
 20
17.703030
 30
0.0
 11
8.392501
 21
17.612605
 31
0.0
  0
LINE
  5
307
100
AcDbEntity
  8
0
 62
7
100
AcDbLine
 10
8.392501
 20
17.612605
 30
0.0
 11
8.329478
 21
17.515907
 31
0.0
  0
LINE
  5
308
100
AcDbEntity
  8
0
 62
7
100
AcDbLine
 10
8.329478
 20
17.515907
 30
0.0
 11
8.282552
 21
17.416074
 31
0.0
  0
LINE
  5
309
100
AcDbEntity
  8
0
 62
7
100
AcDbLine
 10
8.282552
 20
17.416074
 30
0.0
 11
8.249493
 21
17.316240
 31
0.0
  0
LINE
  5
30a
100
AcDbEntity
  8
0
 62
7
100
AcDbLine
 10
8.249493
 20
17.316240
 30
0.0
 11
8.228072
 21
17.219542
 31
0.0
  0
LINE
  5
30b
100
AcDbEntity
  8
0
 62
7
100
AcDbLine
 10
8.228072
 20
17.219542
 30
0.0
 11
8.216061
 21
17.129117
 31
0.0
  0
LINE
  5
30c
100
AcDbEntity
  8
0
 62
7
100
AcDbLine
 10
8.216061
 20
17.129117
 30
0.0
 11
8.211232
 21
17.048100
 31
0.0
  0
LINE
  5
30d
100
AcDbEntity
  8
0
 62
7
100
AcDbLine
 10
8.211232
 20
17.048100
 30
0.0
 11
8.211356
 21
16.979628
 31
0.0
  0
LINE
  5
30e
100
AcDbEntity
  8
0
 62
7
100
AcDbLine
 10
8.211356
 20
16.979628
 30
0.0
 11
8.214204
 21
16.926836
 31
0.0
  0
LINE
  5
30f
100
AcDbEntity
  8
0
 62
7
100
AcDbLine
 10
8.214204
 20
16.926836
 30
0.0
 11
8.217548
 21
16.892861
 31
0.0
  0
LINE
  5
310
100
AcDbEntity
  8
0
 62
7
100
AcDbLine
 10
8.217548
 20
16.892861
 30
0.0
 11
8.219157
 21
16.880838
 31
0.0
  0
LINE
  5
311
100
AcDbEntity
  8
0
 62
7
100
AcDbLine
 10
8.219157
 20
16.880838
 30
0.0
 11
8.219157
 21
16.539261
 31
0.0
  0
LINE
  5
312
100
AcDbEntity
  8
0
 62
7
100
AcDbLine
 10
8.219157
 20
16.539261
 30
0.0
 11
8.219157
 21
16.197684
 31
0.0
  0
LINE
  5
313
100
AcDbEntity
  8
0
 62
7
100
AcDbLine
 10
8.219157
 20
16.197684
 30
0.0
 11
8.219157
 21
15.856107
 31
0.0
  0
LINE
  5
314
100
AcDbEntity
  8
0
 62
7
100
AcDbLine
 10
8.219157
 20
15.856107
 30
0.0
 11
8.219157
 21
15.514530
 31
0.0
  0
LINE
  5
315
100
AcDbEntity
  8
0
 62
7
100
AcDbLine
 10
8.219157
 20
15.514530
 30
0.0
 11
8.219157
 21
15.172953
 31
0.0
  0
LINE
  5
316
100
AcDbEntity
  8
0
 62
7
100
AcDbLine
 10
8.219157
 20
15.172953
 30
0.0
 11
8.219157
 21
14.831376
 31
0.0
  0
LINE
  5
317
100
AcDbEntity
  8
0
 62
7
100
AcDbLine
 10
8.219157
 20
14.831376
 30
0.0
 11
8.219157
 21
14.489799
 31
0.0
  0
LINE
  5
318
100
AcDbEntity
  8
0
 62
7
100
AcDbLine
 10
8.219157
 20
14.489799
 30
0.0
 11
8.219157
 21
14.148222
 31
0.0
  0
LINE
  5
319
100
AcDbEntity
  8
0
 62
7
100
AcDbLine
 10
8.219157
 20
14.148222
 30
0.0
 11
8.219157
 21
13.806645
 31
0.0
  0
LINE
  5
31a
100
AcDbEntity
  8
0
 62
7
100
AcDbLine
 10
8.219157
 20
13.806645
 30
0.0
 11
8.219157
 21
13.465067
 31
0.0
  0
LINE
  5
31b
100
AcDbEntity
  8
0
 62
7
100
AcDbLine
 10
8.219157
 20
13.465067
 30
0.0
 11
8.219157
 21
13.123491
 31
0.0
  0
LINE
  5
31c
100
AcDbEntity
  8
0
 62
7
100
AcDbLine
 10
8.219157
 20
13.123491
 30
0.0
 11
8.219157
 21
12.781913
 31
0.0
  0
LINE
  5
31d
100
AcDbEntity
  8
0
 62
7
100
AcDbLine
 10
8.219157
 20
12.781913
 30
0.0
 11
8.219157
 21
12.440336
 31
0.0
  0
LINE
  5
31e
100
AcDbEntity
  8
0
 62
7
100
AcDbLine
 10
8.219157
 20
12.440336
 30
0.0
 11
8.219157
 21
12.098759
 31
0.0
  0
LINE
  5
31f
100
AcDbEntity
  8
0
 62
7
100
AcDbLine
 10
8.219157
 20
12.098759
 30
0.0
 11
8.219157
 21
11.757182
 31
0.0
  0
LINE
  5
320
100
AcDbEntity
  8
0
 62
7
100
AcDbLine
 10
8.219157
 20
11.757182
 30
0.0
 11
8.219157
 21
11.415605
 31
0.0
  0
LINE
  5
321
100
AcDbEntity
  8
0
 62
7
100
AcDbLine
 10
8.219157
 20
11.415605
 30
0.0
 11
8.060689
 21
11.415605
 31
0.0
  0
LINE
  5
322
100
AcDbEntity
  8
0
 62
7
100
AcDbLine
 10
8.060689
 20
11.415605
 30
0.0
 11
7.902221
 21
11.415605
 31
0.0
  0
LINE
  5
323
100
AcDbEntity
  8
0
 62
7
100
AcDbLine
 10
7.902221
 20
11.415605
 30
0.0
 11
7.743753
 21
11.415605
 31
0.0
  0
LINE
  5
324
100
AcDbEntity
  8
0
 62
7
100
AcDbLine
 10
7.743753
 20
11.415605
 30
0.0
 11
7.585286
 21
11.415605
 31
0.0
  0
LINE
  5
325
100
AcDbEntity
  8
0
 62
7
100
AcDbLine
 10
7.585286
 20
11.415605
 30
0.0
 11
7.426818
 21
11.415605
 31
0.0
  0
LINE
  5
326
100
AcDbEntity
  8
0
 62
7
100
AcDbLine
 10
7.426818
 20
11.415605
 30
0.0
 11
7.268350
 21
11.415605
 31
0.0
  0
LINE
  5
327
100
AcDbEntity
  8
0
 62
7
100
AcDbLine
 10
7.268350
 20
11.415605
 30
0.0
 11
7.109882
 21
11.415605
 31
0.0
  0
LINE
  5
328
100
AcDbEntity
  8
0
 62
7
100
AcDbLine
 10
7.109882
 20
11.415605
 30
0.0
 11
6.951414
 21
11.415605
 31
0.0
  0
LINE
  5
329
100
AcDbEntity
  8
0
 62
7
100
AcDbLine
 10
6.951414
 20
11.415605
 30
0.0
 11
6.792947
 21
11.415605
 31
0.0
  0
LINE
  5
32a
100
AcDbEntity
  8
0
 62
7
100
AcDbLine
 10
6.792947
 20
11.415605
 30
0.0
 11
6.634479
 21
11.415605
 31
0.0
  0
LINE
  5
32b
100
AcDbEntity
  8
0
 62
7
100
AcDbLine
 10
6.634479
 20
11.415605
 30
0.0
 11
6.476011
 21
11.415605
 31
0.0
  0
LINE
  5
32c
100
AcDbEntity
  8
0
 62
7
100
AcDbLine
 10
6.476011
 20
11.415605
 30
0.0
 11
6.317543
 21
11.415605
 31
0.0
  0
LINE
  5
32d
100
AcDbEntity
  8
0
 62
7
100
AcDbLine
 10
6.317543
 20
11.415605
 30
0.0
 11
6.159076
 21
11.415605
 31
0.0
  0
LINE
  5
32e
100
AcDbEntity
  8
0
 62
7
100
AcDbLine
 10
6.159076
 20
11.415605
 30
0.0
 11
6.000608
 21
11.415605
 31
0.0
  0
LINE
  5
32f
100
AcDbEntity
  8
0
 62
7
100
AcDbLine
 10
6.000608
 20
11.415605
 30
0.0
 11
5.842140
 21
11.415605
 31
0.0
  0
LINE
  5
330
100
AcDbEntity
  8
0
 62
7
100
AcDbLine
 10
5.842140
 20
11.415605
 30
0.0
 11
5.683672
 21
11.415605
 31
0.0
  0
LINE
  5
331
100
AcDbEntity
  8
0
 62
7
100
AcDbLine
 10
5.683672
 20
11.415605
 30
0.0
 11
5.683672
 21
11.785351
 31
0.0
  0
LINE
  5
332
100
AcDbEntity
  8
0
 62
7
100
AcDbLine
 10
5.683672
 20
11.785351
 30
0.0
 11
5.683672
 21
12.155098
 31
0.0
  0
LINE
  5
333
100
AcDbEntity
  8
0
 62
7
100
AcDbLine
 10
5.683672
 20
12.155098
 30
0.0
 11
5.683672
 21
12.524844
 31
0.0
  0
LINE
  5
334
100
AcDbEntity
  8
0
 62
7
100
AcDbLine
 10
5.683672
 20
12.524844
 30
0.0
 11
5.683672
 21
12.894591
 31
0.0
  0
LINE
  5
335
100
AcDbEntity
  8
0
 62
7
100
AcDbLine
 10
5.683672
 20
12.894591
 30
0.0
 11
5.683672
 21
13.264337
 31
0.0
  0
LINE
  5
336
100
AcDbEntity
  8
0
 62
7
100
AcDbLine
 10
5.683672
 20
13.264337
 30
0.0
 11
5.683672
 21
13.634083
 31
0.0
  0
LINE
  5
337
100
AcDbEntity
  8
0
 62
7
100
AcDbLine
 10
5.683672
 20
13.634083
 30
0.0
 11
5.683672
 21
14.003830
 31
0.0
  0
LINE
  5
338
100
AcDbEntity
  8
0
 62
7
100
AcDbLine
 10
5.683672
 20
14.003830
 30
0.0
 11
5.683672
 21
14.373576
 31
0.0
  0
LINE
  5
339
100
AcDbEntity
  8
0
 62
7
100
AcDbLine
 10
5.683672
 20
14.373576
 30
0.0
 11
5.683672
 21
14.743322
 31
0.0
  0
LINE
  5
33a
100
AcDbEntity
  8
0
 62
7
100
AcDbLine
 10
5.683672
 20
14.743322
 30
0.0
 11
5.683672
 21
15.113069
 31
0.0
  0
LINE
  5
33b
100
AcDbEntity
  8
0
 62
7
100
AcDbLine
 10
5.683672
 20
15.113069
 30
0.0
 11
5.683672
 21
15.482815
 31
0.0
  0
LINE
  5
33c
100
AcDbEntity
  8
0
 62
7
100
AcDbLine
 10
5.683672
 20
15.482815
 30
0.0
 11
5.683672
 21
15.852562
 31
0.0
  0
LINE
  5
33d
100
AcDbEntity
  8
0
 62
7
100
AcDbLine
 10
5.683672
 20
15.852562
 30
0.0
 11
5.683672
 21
16.222308
 31
0.0
  0
LINE
  5
33e
100
AcDbEntity
  8
0
 62
7
100
AcDbLine
 10
5.683672
 20
16.222308
 30
0.0
 11
5.683672
 21
16.592054
 31
0.0
  0
LINE
  5
33f
100
AcDbEntity
  8
0
 62
7
100
AcDbLine
 10
5.683672
 20
16.592054
 30
0.0
 11
5.683672
 21
16.961801
 31
0.0
  0
LINE
  5
340
100
AcDbEntity
  8
0
 62
7
100
AcDbLine
 10
5.683672
 20
16.961801
 30
0.0
 11
5.683672
 21
17.331547
 31
0.0
  0
LINE
  5
341
100
AcDbEntity
  8
0
 62
7
100
AcDbLine
 10
5.683672
 20
17.331547
 30
0.0
 11
5.719738
 21
17.887581
 31
0.0
  0
LINE
  5
342
100
AcDbEntity
  8
0
 62
7
100
AcDbLine
 10
5.719738
 20
17.887581
 30
0.0
 11
5.821662
 21
18.375438
 31
0.0
  0
LINE
  5
343
100
AcDbEntity
  8
0
 62
7
100
AcDbLine
 10
5.821662
 20
18.375438
 30
0.0
 11
5.980037
 21
18.799574
 31
0.0
  0
LINE
  5
344
100
AcDbEntity
  8
0
 62
7
100
AcDbLine
 10
5.980037
 20
18.799574
 30
0.0
 11
6.185455
 21
19.164448
 31
0.0
  0
LINE
  5
345
100
AcDbEntity
  8
0
 62
7
100
AcDbLine
 10
6.185455
 20
19.164448
 30
0.0
 11
6.428505
 21
19.474517
 31
0.0
  0
LINE
  5
346
100
AcDbEntity
  8
0
 62
7
100
AcDbLine
 10
6.428505
 20
19.474517
 30
0.0
 11
6.699781
 21
19.734238
 31
0.0
  0
LINE
  5
347
100
AcDbEntity
  8
0
 62
7
100
AcDbLine
 10
6.699781
 20
19.734238
 30
0.0
 11
6.989874
 21
19.948069
 31
0.0
  0
LINE
  5
348
100
AcDbEntity
  8
0
 62
7
100
AcDbLine
 10
6.989874
 20
19.948069
 30
0.0
 11
7.289376
 21
20.120467
 31
0.0
  0
LINE
  5
349
100
AcDbEntity
  8
0
 62
7
100
AcDbLine
 10
7.289376
 20
20.120467
 30
0.0
 11
7.588877
 21
20.255890
 31
0.0
  0
LINE
  5
34a
100
AcDbEntity
  8
0
 62
7
100
AcDbLine
 10
7.588877
 20
20.255890
 30
0.0
 11
7.878970
 21
20.358794
 31
0.0
  0
LINE
  5
34b
100
AcDbEntity
  8
0
 62
7
100
AcDbLine
 10
7.878970
 20
20.358794
 30
0.0
 11
8.150246
 21
20.433638
 31
0.0
  0
LINE
  5
34c
100
AcDbEntity
  8
0
 62
7
100
AcDbLine
 10
8.150246
 20
20.433638
 30
0.0
 11
8.393297
 21
20.484878
 31
0.0
  0
LINE
  5
34d
100
AcDbEntity
  8
0
 62
7
100
AcDbLine
 10
8.393297
 20
20.484878
 30
0.0
 11
8.598714
 21
20.516972
 31
0.0
  0
LINE
  5
34e
100
AcDbEntity
  8
0
 62
7
100
AcDbLine
 10
8.598714
 20
20.516972
 30
0.0
 11
8.757089
 21
20.534377
 31
0.0
  0
LINE
  5
34f
100
AcDbEntity
  8
0
 62
7
100
AcDbLine
 10
8.757089
 20
20.534377
 30
0.0
 11
8.859013
 21
20.541551
 31
0.0
  0
LINE
  5
350
100
AcDbEntity
  8
0
 62
7
100
AcDbLine
 10
8.859013
 20
20.541551
 30
0.0
 11
8.895079
 21
20.542962
 31
0.0
  0
LINE
  5
351
100
AcDbEntity
  8
0
 62
7
100
AcDbLine
 10
8.895079
 20
20.542962
 30
0.0
 11
8.895080
 21
20.542956
 31
0.0
  0
ENDSEC
  0
SECTION
  2
OBJECTS
  0
DICTIONARY
  5
C
330
0
100
AcDbDictionary
  3
ACAD_GROUP
350
D
  3
ACAD_MLINESTYLE
350
17
  0
DICTIONARY
  5
D
330
C
100
AcDbDictionary
  0
DICTIONARY
  5
1A
330
C
100
AcDbDictionary
  0
DICTIONARY
  5
17
330
C
100
AcDbDictionary
  3
STANDARD
350
18
  0
DICTIONARY
  5
19
330
C
100
AcDbDictionary
  0
ENDSEC
  0
EOF
