  0
SECTION
  2
HEADER
  9
$ACADVER
  1
AC1014
  9
$HANDSEED
  5
FFFF
  9
$MEASUREMENT
 70
     1
  0
ENDSEC
  0
SECTION
  2
TABLES
  0
TABLE
  2
VPORT
  5
8
330
0
100
AcDbSymbolTable
 70
     4
  0
VPORT
  5
2E
330
8
100
AcDbSymbolTableRecord
100
AcDbViewportTableRecord
  2
*ACTIVE
 70
     0
 10
0.0
 20
0.0
 11
1.0
 21
1.0
 12
210.0
 22
148.5
 13
0.0
 23
0.0
 14
10.0
 24
10.0
 15
10.0
 25
10.0
 16
0.0
 26
0.0
 36
1.0
 17
0.0
 27
0.0
 37
0.0
 40
341.0
 41
1.24
 42
50.0
 43
0.0
 44
0.0
 50
0.0
 51
0.0
 71
     0
 72
   100
 73
     1
 74
     3
 75
     0
 76
     0
 77
     0
 78
     0
  0
ENDTAB
  0
TABLE
  2
LTYPE
  5
5
330
0
100
AcDbSymbolTable
 70
     1
  0
LTYPE
  5
14
330
5
100
AcDbSymbolTableRecord
100
AcDbLinetypeTableRecord
  2
BYBLOCK
 70
     0
  3

 72
    65
 73
     0
 40
0.0
  0
LTYPE
  5
15
330
5
100
AcDbSymbolTableRecord
100
AcDbLinetypeTableRecord
  2
BYLAYER
 70
     0
  3

 72
    65
 73
     0
 40
0.0
  0
LTYPE
  5
16
330
5
100
AcDbSymbolTableRecord
100
AcDbLinetypeTableRecord
  2
CONTINUOUS
 70
     0
  3
Solid line
 72
    65
 73
     0
 40
0.0
  0
ENDTAB
  0
TABLE
  2
LAYER
  5
2
100
AcDbSymbolTable
 70
1
  0
LAYER
  5
50
100
AcDbSymbolTableRecord
100
AcDbLayerTableRecord
  2
0
 70
0
  6
CONTINUOUS
  0
ENDTAB
  0
TABLE
  2
STYLE
  5
3
330
0
100
AcDbSymbolTable
 70
     1
  0
STYLE
  5
11
330
3
100
AcDbSymbolTableRecord
100
AcDbTextStyleTableRecord
  2
STANDARD
 70
     0
 40
0.0
 41
1.0
 50
0.0
 71
     0
 42
2.5
  3
txt
  4

  0
ENDTAB
  0
TABLE
  2
VIEW
  5
6
330
0
100
AcDbSymbolTable
 70
     0
  0
ENDTAB
  0
TABLE
  2
UCS
  5
7
330
0
100
AcDbSymbolTable
 70
     0
  0
ENDTAB
  0
TABLE
  2
APPID
  5
9
330
0
100
AcDbSymbolTable
 70
     2
  0
APPID
  5
12
330
9
100
AcDbSymbolTableRecord
100
AcDbRegAppTableRecord
  2
ACAD
 70
     0
  0
ENDTAB
  0
TABLE
  2
DIMSTYLE
  5
A
330
0
100
AcDbSymbolTable
 70
     1
  0
DIMSTYLE
105
27
330
A
100
AcDbSymbolTableRecord
100
AcDbDimStyleTableRecord
  2
ISO-25
 70
     0
  3

  4

  5

  6

  7

 40
1.0
 41
2.5
 42
0.625
 43
3.75
 44
1.25
 45
0.0
 46
0.0
 47
0.0
 48
0.0
140
2.5
141
2.5
142
0.0
143
0.03937007874016
144
1.0
145
0.0
146
1.0
147
0.625
 71
     0
 72
     0
 73
     0
 74
     0
 75
     0
 76
     0
 77
     1
 78
     8
170
     0
171
     3
172
     1
173
     0
174
     0
175
     0
176
     0
177
     0
178
     0
270
     2
271
     2
272
     2
273
     2
274
     3
340
11
275
     0
280
     0
281
     0
282
     0
283
     0
284
     8
285
     0
286
     0
287
     3
288
     0
  0
ENDTAB
  0
TABLE
  2
BLOCK_RECORD
  5
1
330
0
100
AcDbSymbolTable
 70
     1
  0
BLOCK_RECORD
  5
1F
330
1
100
AcDbSymbolTableRecord
100
AcDbBlockTableRecord
  2
*MODEL_SPACE
  0
BLOCK_RECORD
  5
1B
330
1
100
AcDbSymbolTableRecord
100
AcDbBlockTableRecord
  2
*PAPER_SPACE
  0
ENDTAB
  0
ENDSEC
  0
SECTION
  2
BLOCKS
  0
BLOCK
  5
20
330
1F
100
AcDbEntity
  8
0
100
AcDbBlockBegin
  2
*MODEL_SPACE
 70
     0
 10
0.0
 20
0.0
 30
0.0
  3
*MODEL_SPACE
  1

  0
ENDBLK
  5
21
330
1F
100
AcDbEntity
  8
0
100
AcDbBlockEnd
  0
BLOCK
  5
1C
330
1B
100
AcDbEntity
 67
     1
  8
0
100
AcDbBlockBegin
  2
*PAPER_SPACE
  1

  0
ENDBLK
  5
1D
330
1B
100
AcDbEntity
 67
     1
  8
0
100
AcDbBlockEnd
  0
ENDSEC
  0
SECTION
  2
ENTITIES
  0
LINE
  5
100
100
AcDbEntity
  8
0
 62
7
100
AcDbLine
 10
25.395983
 20
6.895536
 30
0.0
 11
25.354720
 21
6.461039
 31
0.0
  0
LINE
  5
101
100
AcDbEntity
  8
0
 62
7
100
AcDbLine
 10
25.354720
 20
6.461039
 30
0.0
 11
25.236377
 21
6.056352
 31
0.0
  0
LINE
  5
102
100
AcDbEntity
  8
0
 62
7
100
AcDbLine
 10
25.236377
 20
6.056352
 30
0.0
 11
25.049124
 21
5.690142
 31
0.0
  0
LINE
  5
103
100
AcDbEntity
  8
0
 62
7
100
AcDbLine
 10
25.049124
 20
5.690142
 30
0.0
 11
24.801129
 21
5.371077
 31
0.0
  0
LINE
  5
104
100
AcDbEntity
  8
0
 62
7
100
AcDbLine
 10
24.801129
 20
5.371077
 30
0.0
 11
24.500561
 21
5.107826
 31
0.0
  0
LINE
  5
105
100
AcDbEntity
  8
0
 62
7
100
AcDbLine
 10
24.500561
 20
5.107826
 30
0.0
 11
24.155589
 21
4.909057
 31
0.0
  0
LINE
  5
106
100
AcDbEntity
  8
0
 62
7
100
AcDbLine
 10
24.155589
 20
4.909057
 30
0.0
 11
23.774383
 21
4.783439
 31
0.0
  0
LINE
  5
107
100
AcDbEntity
  8
0
 62
7
100
AcDbLine
 10
23.774383
 20
4.783439
 30
0.0
 11
23.365111
 21
4.739640
 31
0.0
  0
LINE
  5
108
100
AcDbEntity
  8
0
 62
7
100
AcDbLine
 10
23.365111
 20
4.739640
 30
0.0
 11
20.752792
 21
4.739640
 31
0.0
  0
LINE
  5
109
100
AcDbEntity
  8
0
 62
7
100
AcDbLine
 10
20.752792
 20
4.739640
 30
0.0
 11
18.140473
 21
4.739640
 31
0.0
  0
LINE
  5
10a
100
AcDbEntity
  8
0
 62
7
100
AcDbLine
 10
18.140473
 20
4.739640
 30
0.0
 11
15.528153
 21
4.739640
 31
0.0
  0
LINE
  5
10b
100
AcDbEntity
  8
0
 62
7
100
AcDbLine
 10
15.528153
 20
4.739640
 30
0.0
 11
12.915834
 21
4.739640
 31
0.0
  0
LINE
  5
10c
100
AcDbEntity
  8
0
 62
7
100
AcDbLine
 10
12.915834
 20
4.739640
 30
0.0
 11
10.303514
 21
4.739640
 31
0.0
  0
LINE
  5
10d
100
AcDbEntity
  8
0
 62
7
100
AcDbLine
 10
10.303514
 20
4.739640
 30
0.0
 11
7.691195
 21
4.739640
 31
0.0
  0
LINE
  5
10e
100
AcDbEntity
  8
0
 62
7
100
AcDbLine
 10
7.691195
 20
4.739640
 30
0.0
 11
5.078875
 21
4.739640
 31
0.0
  0
LINE
  5
10f
100
AcDbEntity
  8
0
 62
7
100
AcDbLine
 10
5.078875
 20
4.739640
 30
0.0
 11
2.466556
 21
4.739640
 31
0.0
  0
LINE
  5
110
100
AcDbEntity
  8
0
 62
7
100
AcDbLine
 10
2.466556
 20
4.739640
 30
0.0
 11
2.057284
 21
4.783439
 31
0.0
  0
LINE
  5
111
100
AcDbEntity
  8
0
 62
7
100
AcDbLine
 10
2.057284
 20
4.783439
 30
0.0
 11
1.676078
 21
4.909057
 31
0.0
  0
LINE
  5
112
100
AcDbEntity
  8
0
 62
7
100
AcDbLine
 10
1.676078
 20
4.909057
 30
0.0
 11
1.331106
 21
5.107826
 31
0.0
  0
LINE
  5
113
100
AcDbEntity
  8
0
 62
7
100
AcDbLine
 10
1.331106
 20
5.107826
 30
0.0
 11
1.030539
 21
5.371077
 31
0.0
  0
LINE
  5
114
100
AcDbEntity
  8
0
 62
7
100
AcDbLine
 10
1.030539
 20
5.371077
 30
0.0
 11
0.782544
 21
5.690142
 31
0.0
  0
LINE
  5
115
100
AcDbEntity
  8
0
 62
7
100
AcDbLine
 10
0.782544
 20
5.690142
 30
0.0
 11
0.595290
 21
6.056352
 31
0.0
  0
LINE
  5
116
100
AcDbEntity
  8
0
 62
7
100
AcDbLine
 10
0.595290
 20
6.056352
 30
0.0
 11
0.476948
 21
6.461039
 31
0.0
  0
LINE
  5
117
100
AcDbEntity
  8
0
 62
7
100
AcDbLine
 10
0.476948
 20
6.461039
 30
0.0
 11
0.435685
 21
6.895536
 31
0.0
  0
LINE
  5
118
100
AcDbEntity
  8
0
 62
7
100
AcDbLine
 10
0.435685
 20
6.895536
 30
0.0
 11
0.435685
 21
6.927215
 31
0.0
  0
LINE
  5
119
100
AcDbEntity
  8
0
 62
7
100
AcDbLine
 10
0.435685
 20
6.927215
 30
0.0
 11
0.435685
 21
6.958894
 31
0.0
  0
LINE
  5
11a
100
AcDbEntity
  8
0
 62
7
100
AcDbLine
 10
0.435685
 20
6.958894
 30
0.0
 11
0.435685
 21
6.990574
 31
0.0
  0
LINE
  5
11b
100
AcDbEntity
  8
0
 62
7
100
AcDbLine
 10
0.435685
 20
6.990574
 30
0.0
 11
0.435685
 21
7.022253
 31
0.0
  0
LINE
  5
11c
100
AcDbEntity
  8
0
 62
7
100
AcDbLine
 10
0.435685
 20
7.022253
 30
0.0
 11
0.435685
 21
7.053933
 31
0.0
  0
LINE
  5
11d
100
AcDbEntity
  8
0
 62
7
100
AcDbLine
 10
0.435685
 20
7.053933
 30
0.0
 11
0.435685
 21
7.085612
 31
0.0
  0
LINE
  5
11e
100
AcDbEntity
  8
0
 62
7
100
AcDbLine
 10
0.435685
 20
7.085612
 30
0.0
 11
0.435685
 21
7.117292
 31
0.0
  0
LINE
  5
11f
100
AcDbEntity
  8
0
 62
7
100
AcDbLine
 10
0.435685
 20
7.117292
 30
0.0
 11
0.435685
 21
7.148971
 31
0.0
  0
LINE
  5
120
100
AcDbEntity
  8
0
 62
7
100
AcDbLine
 10
0.435685
 20
7.148971
 30
0.0
 11
0.431894
 21
7.583350
 31
0.0
  0
LINE
  5
121
100
AcDbEntity
  8
0
 62
7
100
AcDbLine
 10
0.431894
 20
7.583350
 30
0.0
 11
0.429966
 21
7.987903
 31
0.0
  0
LINE
  5
122
100
AcDbEntity
  8
0
 62
7
100
AcDbLine
 10
0.429966
 20
7.987903
 30
0.0
 11
0.444065
 21
8.353973
 31
0.0
  0
LINE
  5
123
100
AcDbEntity
  8
0
 62
7
100
AcDbLine
 10
0.444065
 20
8.353973
 30
0.0
 11
0.488356
 21
8.672901
 31
0.0
  0
LINE
  5
124
100
AcDbEntity
  8
0
 62
7
100
AcDbLine
 10
0.488356
 20
8.672901
 30
0.0
 11
0.577004
 21
8.936028
 31
0.0
  0
LINE
  5
125
100
AcDbEntity
  8
0
 62
7
100
AcDbLine
 10
0.577004
 20
8.936028
 30
0.0
 11
0.724174
 21
9.134695
 31
0.0
  0
LINE
  5
126
100
AcDbEntity
  8
0
 62
7
100
AcDbLine
 10
0.724174
 20
9.134695
 30
0.0
 11
0.944033
 21
9.260246
 31
0.0
  0
LINE
  5
127
100
AcDbEntity
  8
0
 62
7
100
AcDbLine
 10
0.944033
 20
9.260246
 30
0.0
 11
1.250744
 21
9.304020
 31
0.0
  0
LINE
  5
128
100
AcDbEntity
  8
0
 62
7
100
AcDbLine
 10
1.250744
 20
9.304020
 30
0.0
 11
4.167016
 21
9.304020
 31
0.0
  0
LINE
  5
129
100
AcDbEntity
  8
0
 62
7
100
AcDbLine
 10
4.167016
 20
9.304020
 30
0.0
 11
7.083289
 21
9.304020
 31
0.0
  0
LINE
  5
12a
100
AcDbEntity
  8
0
 62
7
100
AcDbLine
 10
7.083289
 20
9.304020
 30
0.0
 11
9.999562
 21
9.304020
 31
0.0
  0
LINE
  5
12b
100
AcDbEntity
  8
0
 62
7
100
AcDbLine
 10
9.999562
 20
9.304020
 30
0.0
 11
12.915835
 21
9.304020
 31
0.0
  0
LINE
  5
12c
100
AcDbEntity
  8
0
 62
7
100
AcDbLine
 10
12.915835
 20
9.304020
 30
0.0
 11
15.832107
 21
9.304020
 31
0.0
  0
LINE
  5
12d
100
AcDbEntity
  8
0
 62
7
100
AcDbLine
 10
15.832107
 20
9.304020
 30
0.0
 11
18.748380
 21
9.304020
 31
0.0
  0
LINE
  5
12e
100
AcDbEntity
  8
0
 62
7
100
AcDbLine
 10
18.748380
 20
9.304020
 30
0.0
 11
21.664653
 21
9.304020
 31
0.0
  0
LINE
  5
12f
100
AcDbEntity
  8
0
 62
7
100
AcDbLine
 10
21.664653
 20
9.304020
 30
0.0
 11
24.580926
 21
9.304020
 31
0.0
  0
LINE
  5
130
100
AcDbEntity
  8
0
 62
7
100
AcDbLine
 10
24.580926
 20
9.304020
 30
0.0
 11
24.906367
 21
9.260246
 31
0.0
  0
LINE
  5
131
100
AcDbEntity
  8
0
 62
7
100
AcDbLine
 10
24.906367
 20
9.260246
 30
0.0
 11
25.135043
 21
9.134695
 31
0.0
  0
LINE
  5
132
100
AcDbEntity
  8
0
 62
7
100
AcDbLine
 10
25.135043
 20
9.134695
 30
0.0
 11
25.283405
 21
8.936028
 31
0.0
  0
LINE
  5
133
100
AcDbEntity
  8
0
 62
7
100
AcDbLine
 10
25.283405
 20
8.936028
 30
0.0
 11
25.367902
 21
8.672901
 31
0.0
  0
LINE
  5
134
100
AcDbEntity
  8
0
 62
7
100
AcDbLine
 10
25.367902
 20
8.672901
 30
0.0
 11
25.404987
 21
8.353973
 31
0.0
  0
LINE
  5
135
100
AcDbEntity
  8
0
 62
7
100
AcDbLine
 10
25.404987
 20
8.353973
 30
0.0
 11
25.411108
 21
7.987903
 31
0.0
  0
LINE
  5
136
100
AcDbEntity
  8
0
 62
7
100
AcDbLine
 10
25.411108
 20
7.987903
 30
0.0
 11
25.402718
 21
7.583350
 31
0.0
  0
LINE
  5
137
100
AcDbEntity
  8
0
 62
7
100
AcDbLine
 10
25.402718
 20
7.583350
 30
0.0
 11
25.396266
 21
7.148971
 31
0.0
  0
LINE
  5
138
100
AcDbEntity
  8
0
 62
7
100
AcDbLine
 10
25.396266
 20
7.148971
 30
0.0
 11
25.396266
 21
7.117292
 31
0.0
  0
LINE
  5
139
100
AcDbEntity
  8
0
 62
7
100
AcDbLine
 10
25.396266
 20
7.117292
 30
0.0
 11
25.396266
 21
7.085612
 31
0.0
  0
LINE
  5
13a
100
AcDbEntity
  8
0
 62
7
100
AcDbLine
 10
25.396266
 20
7.085612
 30
0.0
 11
25.396266
 21
7.053933
 31
0.0
  0
LINE
  5
13b
100
AcDbEntity
  8
0
 62
7
100
AcDbLine
 10
25.396266
 20
7.053933
 30
0.0
 11
25.396266
 21
7.022253
 31
0.0
  0
LINE
  5
13c
100
AcDbEntity
  8
0
 62
7
100
AcDbLine
 10
25.396266
 20
7.022253
 30
0.0
 11
25.396266
 21
6.990574
 31
0.0
  0
LINE
  5
13d
100
AcDbEntity
  8
0
 62
7
100
AcDbLine
 10
25.396266
 20
6.990574
 30
0.0
 11
25.396266
 21
6.958894
 31
0.0
  0
LINE
  5
13e
100
AcDbEntity
  8
0
 62
7
100
AcDbLine
 10
25.396266
 20
6.958894
 30
0.0
 11
25.396266
 21
6.927215
 31
0.0
  0
LINE
  5
13f
100
AcDbEntity
  8
0
 62
7
100
AcDbLine
 10
25.396266
 20
6.927215
 30
0.0
 11
25.396266
 21
6.895536
 31
0.0
  0
LINE
  5
140
100
AcDbEntity
  8
0
 62
7
100
AcDbLine
 10
25.396266
 20
6.895536
 30
0.0
 11
25.396231
 21
6.895536
 31
0.0
  0
LINE
  5
141
100
AcDbEntity
  8
0
 62
7
100
AcDbLine
 10
25.396231
 20
6.895536
 30
0.0
 11
25.396196
 21
6.895536
 31
0.0
  0
LINE
  5
142
100
AcDbEntity
  8
0
 62
7
100
AcDbLine
 10
25.396196
 20
6.895536
 30
0.0
 11
25.396161
 21
6.895536
 31
0.0
  0
LINE
  5
143
100
AcDbEntity
  8
0
 62
7
100
AcDbLine
 10
25.396161
 20
6.895536
 30
0.0
 11
25.396125
 21
6.895536
 31
0.0
  0
LINE
  5
144
100
AcDbEntity
  8
0
 62
7
100
AcDbLine
 10
25.396125
 20
6.895536
 30
0.0
 11
25.396090
 21
6.895536
 31
0.0
  0
LINE
  5
145
100
AcDbEntity
  8
0
 62
7
100
AcDbLine
 10
25.396090
 20
6.895536
 30
0.0
 11
25.396055
 21
6.895536
 31
0.0
  0
LINE
  5
146
100
AcDbEntity
  8
0
 62
7
100
AcDbLine
 10
25.396055
 20
6.895536
 30
0.0
 11
25.396019
 21
6.895536
 31
0.0
  0
LINE
  5
147
100
AcDbEntity
  8
0
 62
7
100
AcDbLine
 10
25.396019
 20
6.895536
 30
0.0
 11
25.395983
 21
6.895536
 31
0.0
  0
LINE
  5
148
100
AcDbEntity
  8
0
 62
7
100
AcDbLine
 10
24.349785
 20
15.540567
 30
0.0
 11
23.872399
 21
15.137081
 31
0.0
  0
LINE
  5
149
100
AcDbEntity
  8
0
 62
7
100
AcDbLine
 10
23.872399
 20
15.137081
 30
0.0
 11
23.283743
 21
14.663186
 31
0.0
  0
LINE
  5
14a
100
AcDbEntity
  8
0
 62
7
100
AcDbLine
 10
23.283743
 20
14.663186
 30
0.0
 11
22.628598
 21
14.170262
 31
0.0
  0
LINE
  5
14b
100
AcDbEntity
  8
0
 62
7
100
AcDbLine
 10
22.628598
 20
14.170262
 30
0.0
 11
21.951743
 21
13.709685
 31
0.0
  0
LINE
  5
14c
100
AcDbEntity
  8
0
 62
7
100
AcDbLine
 10
21.951743
 20
13.709685
 30
0.0
 11
21.297959
 21
13.332836
 31
0.0
  0
LINE
  5
14d
100
AcDbEntity
  8
0
 62
7
100
AcDbLine
 10
21.297959
 20
13.332836
 30
0.0
 11
20.712029
 21
13.091094
 31
0.0
  0
LINE
  5
14e
100
AcDbEntity
  8
0
 62
7
100
AcDbLine
 10
20.712029
 20
13.091094
 30
0.0
 11
20.238731
 21
13.035836
 31
0.0
  0
LINE
  5
14f
100
AcDbEntity
  8
0
 62
7
100
AcDbLine
 10
20.238731
 20
13.035836
 30
0.0
 11
19.922847
 21
13.218442
 31
0.0
  0
LINE
  5
150
100
AcDbEntity
  8
0
 62
7
100
AcDbLine
 10
19.922847
 20
13.218442
 30
0.0
 11
19.555025
 21
13.538047
 31
0.0
  0
LINE
  5
151
100
AcDbEntity
  8
0
 62
7
100
AcDbLine
 10
19.555025
 20
13.538047
 30
0.0
 11
18.921994
 21
13.877797
 31
0.0
  0
LINE
  5
152
100
AcDbEntity
  8
0
 62
7
100
AcDbLine
 10
18.921994
 20
13.877797
 30
0.0
 11
18.091234
 21
14.226033
 31
0.0
  0
LINE
  5
153
100
AcDbEntity
  8
0
 62
7
100
AcDbLine
 10
18.091234
 20
14.226033
 30
0.0
 11
17.130223
 21
14.571098
 31
0.0
  0
LINE
  5
154
100
AcDbEntity
  8
0
 62
7
100
AcDbLine
 10
17.130223
 20
14.571098
 30
0.0
 11
16.106439
 21
14.901333
 31
0.0
  0
LINE
  5
155
100
AcDbEntity
  8
0
 62
7
100
AcDbLine
 10
16.106439
 20
14.901333
 30
0.0
 11
15.087362
 21
15.205080
 31
0.0
  0
LINE
  5
156
100
AcDbEntity
  8
0
 62
7
100
AcDbLine
 10
15.087362
 20
15.205080
 30
0.0
 11
14.140469
 21
15.470680
 31
0.0
  0
LINE
  5
157
100
AcDbEntity
  8
0
 62
7
100
AcDbLine
 10
14.140469
 20
15.470680
 30
0.0
 11
13.333240
 21
15.686476
 31
0.0
  0
LINE
  5
158
100
AcDbEntity
  8
0
 62
7
100
AcDbLine
 10
13.333240
 20
15.686476
 30
0.0
 11
11.870200
 21
15.686476
 31
0.0
  0
LINE
  5
159
100
AcDbEntity
  8
0
 62
7
100
AcDbLine
 10
11.870200
 20
15.686476
 30
0.0
 11
10.407160
 21
15.686476
 31
0.0
  0
LINE
  5
15a
100
AcDbEntity
  8
0
 62
7
100
AcDbLine
 10
10.407160
 20
15.686476
 30
0.0
 11
8.944120
 21
15.686476
 31
0.0
  0
LINE
  5
15b
100
AcDbEntity
  8
0
 62
7
100
AcDbLine
 10
8.944120
 20
15.686476
 30
0.0
 11
7.481080
 21
15.686476
 31
0.0
  0
LINE
  5
15c
100
AcDbEntity
  8
0
 62
7
100
AcDbLine
 10
7.481080
 20
15.686476
 30
0.0
 11
6.018040
 21
15.686476
 31
0.0
  0
LINE
  5
15d
100
AcDbEntity
  8
0
 62
7
100
AcDbLine
 10
6.018040
 20
15.686476
 30
0.0
 11
4.555000
 21
15.686476
 31
0.0
  0
LINE
  5
15e
100
AcDbEntity
  8
0
 62
7
100
AcDbLine
 10
4.555000
 20
15.686476
 30
0.0
 11
3.091960
 21
15.686476
 31
0.0
  0
LINE
  5
15f
100
AcDbEntity
  8
0
 62
7
100
AcDbLine
 10
3.091960
 20
15.686476
 30
0.0
 11
1.628920
 21
15.686476
 31
0.0
  0
LINE
  5
160
100
AcDbEntity
  8
0
 62
7
100
AcDbLine
 10
1.628920
 20
15.686476
 30
0.0
 11
1.313252
 21
15.659326
 31
0.0
  0
LINE
  5
161
100
AcDbEntity
  8
0
 62
7
100
AcDbLine
 10
1.313252
 20
15.659326
 30
0.0
 11
1.019210
 21
15.581458
 31
0.0
  0
LINE
  5
162
100
AcDbEntity
  8
0
 62
7
100
AcDbLine
 10
1.019210
 20
15.581458
 30
0.0
 11
0.753102
 21
15.458248
 31
0.0
  0
LINE
  5
163
100
AcDbEntity
  8
0
 62
7
100
AcDbLine
 10
0.753102
 20
15.458248
 30
0.0
 11
0.521233
 21
15.295069
 31
0.0
  0
LINE
  5
164
100
AcDbEntity
  8
0
 62
7
100
AcDbLine
 10
0.521233
 20
15.295069
 30
0.0
 11
0.329913
 21
15.097296
 31
0.0
  0
LINE
  5
165
100
AcDbEntity
  8
0
 62
7
100
AcDbLine
 10
0.329913
 20
15.097296
 30
0.0
 11
0.185446
 21
14.870302
 31
0.0
  0
LINE
  5
166
100
AcDbEntity
  8
0
 62
7
100
AcDbLine
 10
0.185446
 20
14.870302
 30
0.0
 11
0.094141
 21
14.619464
 31
0.0
  0
LINE
  5
167
100
AcDbEntity
  8
0
 62
7
100
AcDbLine
 10
0.094141
 20
14.619464
 30
0.0
 11
0.062305
 21
14.350154
 31
0.0
  0
LINE
  5
168
100
AcDbEntity
  8
0
 62
7
100
AcDbLine
 10
0.062305
 20
14.350154
 30
0.0
 11
0.062305
 21
14.099893
 31
0.0
  0
LINE
  5
169
100
AcDbEntity
  8
0
 62
7
100
AcDbLine
 10
0.062305
 20
14.099893
 30
0.0
 11
0.062305
 21
13.849633
 31
0.0
  0
LINE
  5
16a
100
AcDbEntity
  8
0
 62
7
100
AcDbLine
 10
0.062305
 20
13.849633
 30
0.0
 11
0.062305
 21
13.599372
 31
0.0
  0
LINE
  5
16b
100
AcDbEntity
  8
0
 62
7
100
AcDbLine
 10
0.062305
 20
13.599372
 30
0.0
 11
0.062305
 21
13.349111
 31
0.0
  0
LINE
  5
16c
100
AcDbEntity
  8
0
 62
7
100
AcDbLine
 10
0.062305
 20
13.349111
 30
0.0
 11
0.062305
 21
13.098851
 31
0.0
  0
LINE
  5
16d
100
AcDbEntity
  8
0
 62
7
100
AcDbLine
 10
0.062305
 20
13.098851
 30
0.0
 11
0.062305
 21
12.848590
 31
0.0
  0
LINE
  5
16e
100
AcDbEntity
  8
0
 62
7
100
AcDbLine
 10
0.062305
 20
12.848590
 30
0.0
 11
0.062305
 21
12.598330
 31
0.0
  0
LINE
  5
16f
100
AcDbEntity
  8
0
 62
7
100
AcDbLine
 10
0.062305
 20
12.598330
 30
0.0
 11
0.062305
 21
12.348069
 31
0.0
  0
LINE
  5
170
100
AcDbEntity
  8
0
 62
7
100
AcDbLine
 10
0.062305
 20
12.348069
 30
0.0
 11
0.094141
 21
12.078666
 31
0.0
  0
LINE
  5
171
100
AcDbEntity
  8
0
 62
7
100
AcDbLine
 10
0.094141
 20
12.078666
 30
0.0
 11
0.185446
 21
11.827757
 31
0.0
  0
LINE
  5
172
100
AcDbEntity
  8
0
 62
7
100
AcDbLine
 10
0.185446
 20
11.827757
 30
0.0
 11
0.329913
 21
11.600714
 31
0.0
  0
LINE
  5
173
100
AcDbEntity
  8
0
 62
7
100
AcDbLine
 10
0.329913
 20
11.600714
 30
0.0
 11
0.521233
 21
11.402907
 31
0.0
  0
LINE
  5
174
100
AcDbEntity
  8
0
 62
7
100
AcDbLine
 10
0.521233
 20
11.402907
 30
0.0
 11
0.753102
 21
11.239707
 31
0.0
  0
LINE
  5
175
100
AcDbEntity
  8
0
 62
7
100
AcDbLine
 10
0.753102
 20
11.239707
 30
0.0
 11
1.019210
 21
11.116487
 31
0.0
  0
LINE
  5
176
100
AcDbEntity
  8
0
 62
7
100
AcDbLine
 10
1.019210
 20
11.116487
 30
0.0
 11
1.313252
 21
11.038615
 31
0.0
  0
LINE
  5
177
100
AcDbEntity
  8
0
 62
7
100
AcDbLine
 10
1.313252
 20
11.038615
 30
0.0
 11
1.628920
 21
11.011466
 31
0.0
  0
LINE
  5
178
100
AcDbEntity
  8
0
 62
7
100
AcDbLine
 10
1.628920
 20
11.011466
 30
0.0
 11
4.380305
 21
11.011466
 31
0.0
  0
LINE
  5
179
100
AcDbEntity
  8
0
 62
7
100
AcDbLine
 10
4.380305
 20
11.011466
 30
0.0
 11
7.131689
 21
11.011466
 31
0.0
  0
LINE
  5
17a
100
AcDbEntity
  8
0
 62
7
100
AcDbLine
 10
7.131689
 20
11.011466
 30
0.0
 11
9.883074
 21
11.011466
 31
0.0
  0
LINE
  5
17b
100
AcDbEntity
  8
0
 62
7
100
AcDbLine
 10
9.883074
 20
11.011466
 30
0.0
 11
12.634458
 21
11.011466
 31
0.0
  0
LINE
  5
17c
100
AcDbEntity
  8
0
 62
7
100
AcDbLine
 10
12.634458
 20
11.011466
 30
0.0
 11
15.385843
 21
11.011466
 31
0.0
  0
LINE
  5
17d
100
AcDbEntity
  8
0
 62
7
100
AcDbLine
 10
15.385843
 20
11.011466
 30
0.0
 11
18.137227
 21
11.011466
 31
0.0
  0
LINE
  5
17e
100
AcDbEntity
  8
0
 62
7
100
AcDbLine
 10
18.137227
 20
11.011466
 30
0.0
 11
20.888611
 21
11.011466
 31
0.0
  0
LINE
  5
17f
100
AcDbEntity
  8
0
 62
7
100
AcDbLine
 10
20.888611
 20
11.011466
 30
0.0
 11
23.639996
 21
11.011466
 31
0.0
  0
LINE
  5
180
100
AcDbEntity
  8
0
 62
7
100
AcDbLine
 10
23.639996
 20
11.011466
 30
0.0
 11
23.955838
 21
11.038615
 31
0.0
  0
LINE
  5
181
100
AcDbEntity
  8
0
 62
7
100
AcDbLine
 10
23.955838
 20
11.038615
 30
0.0
 11
24.249988
 21
11.116475
 31
0.0
  0
LINE
  5
182
100
AcDbEntity
  8
0
 62
7
100
AcDbLine
 10
24.249988
 20
11.116475
 30
0.0
 11
24.516152
 21
11.239665
 31
0.0
  0
LINE
  5
183
100
AcDbEntity
  8
0
 62
7
100
AcDbLine
 10
24.516152
 20
11.239665
 30
0.0
 11
24.748036
 21
11.402803
 31
0.0
  0
LINE
  5
184
100
AcDbEntity
  8
0
 62
7
100
AcDbLine
 10
24.748036
 20
11.402803
 30
0.0
 11
24.939345
 21
11.600509
 31
0.0
  0
LINE
  5
185
100
AcDbEntity
  8
0
 62
7
100
AcDbLine
 10
24.939345
 20
11.600509
 30
0.0
 11
25.083787
 21
11.827402
 31
0.0
  0
LINE
  5
186
100
AcDbEntity
  8
0
 62
7
100
AcDbLine
 10
25.083787
 20
11.827402
 30
0.0
 11
25.175068
 21
12.078100
 31
0.0
  0
LINE
  5
187
100
AcDbEntity
  8
0
 62
7
100
AcDbLine
 10
25.175068
 20
12.078100
 30
0.0
 11
25.206894
 21
12.347224
 31
0.0
  0
LINE
  5
188
100
AcDbEntity
  8
0
 62
7
100
AcDbLine
 10
25.206894
 20
12.347224
 30
0.0
 11
25.206894
 21
12.597591
 31
0.0
  0
LINE
  5
189
100
AcDbEntity
  8
0
 62
7
100
AcDbLine
 10
25.206894
 20
12.597591
 30
0.0
 11
25.206894
 21
12.847957
 31
0.0
  0
LINE
  5
18a
100
AcDbEntity
  8
0
 62
7
100
AcDbLine
 10
25.206894
 20
12.847957
 30
0.0
 11
25.206894
 21
13.098323
 31
0.0
  0
LINE
  5
18b
100
AcDbEntity
  8
0
 62
7
100
AcDbLine
 10
25.206894
 20
13.098323
 30
0.0
 11
25.206894
 21
13.348690
 31
0.0
  0
LINE
  5
18c
100
AcDbEntity
  8
0
 62
7
100
AcDbLine
 10
25.206894
 20
13.348690
 30
0.0
 11
25.206894
 21
13.599056
 31
0.0
  0
LINE
  5
18d
100
AcDbEntity
  8
0
 62
7
100
AcDbLine
 10
25.206894
 20
13.599056
 30
0.0
 11
25.206894
 21
13.849423
 31
0.0
  0
LINE
  5
18e
100
AcDbEntity
  8
0
 62
7
100
AcDbLine
 10
25.206894
 20
13.849423
 30
0.0
 11
25.206894
 21
14.099789
 31
0.0
  0
LINE
  5
18f
100
AcDbEntity
  8
0
 62
7
100
AcDbLine
 10
25.206894
 20
14.099789
 30
0.0
 11
25.206894
 21
14.350155
 31
0.0
  0
LINE
  5
190
100
AcDbEntity
  8
0
 62
7
100
AcDbLine
 10
25.206894
 20
14.350155
 30
0.0
 11
25.190911
 21
14.541578
 31
0.0
  0
LINE
  5
191
100
AcDbEntity
  8
0
 62
7
100
AcDbLine
 10
25.190911
 20
14.541578
 30
0.0
 11
25.144447
 21
14.724514
 31
0.0
  0
LINE
  5
192
100
AcDbEntity
  8
0
 62
7
100
AcDbLine
 10
25.144447
 20
14.724514
 30
0.0
 11
25.069718
 21
14.897119
 31
0.0
  0
LINE
  5
193
100
AcDbEntity
  8
0
 62
7
100
AcDbLine
 10
25.069718
 20
14.897119
 30
0.0
 11
24.968945
 21
15.057543
 31
0.0
  0
LINE
  5
194
100
AcDbEntity
  8
0
 62
7
100
AcDbLine
 10
24.968945
 20
15.057543
 30
0.0
 11
24.844346
 21
15.203947
 31
0.0
  0
LINE
  5
195
100
AcDbEntity
  8
0
 62
7
100
AcDbLine
 10
24.844346
 20
15.203947
 30
0.0
 11
24.698140
 21
15.334483
 31
0.0
  0
LINE
  5
196
100
AcDbEntity
  8
0
 62
7
100
AcDbLine
 10
24.698140
 20
15.334483
 30
0.0
 11
24.532546
 21
15.447304
 31
0.0
  0
LINE
  5
197
100
AcDbEntity
  8
0
 62
7
100
AcDbLine
 10
24.532546
 20
15.447304
 30
0.0
 11
24.349785
 21
15.540567
 31
0.0
  0
LINE
  5
198
100
AcDbEntity
  8
0
 62
7
100
AcDbLine
 10
23.294274
 20
24.498300
 30
0.0
 11
22.430260
 21
25.367799
 31
0.0
  0
LINE
  5
199
100
AcDbEntity
  8
0
 62
7
100
AcDbLine
 10
22.430260
 20
25.367799
 30
0.0
 11
21.430095
 21
26.122674
 31
0.0
  0
LINE
  5
19a
100
AcDbEntity
  8
0
 62
7
100
AcDbLine
 10
21.430095
 20
26.122674
 30
0.0
 11
20.294945
 21
26.762521
 31
0.0
  0
LINE
  5
19b
100
AcDbEntity
  8
0
 62
7
100
AcDbLine
 10
20.294945
 20
26.762521
 30
0.0
 11
19.025980
 21
27.286938
 31
0.0
  0
LINE
  5
19c
100
AcDbEntity
  8
0
 62
7
100
AcDbLine
 10
19.025980
 20
27.286938
 30
0.0
 11
17.624366
 21
27.695519
 31
0.0
  0
LINE
  5
19d
100
AcDbEntity
  8
0
 62
7
100
AcDbLine
 10
17.624366
 20
27.695519
 30
0.0
 11
16.091270
 21
27.987863
 31
0.0
  0
LINE
  5
19e
100
AcDbEntity
  8
0
 62
7
100
AcDbLine
 10
16.091270
 20
27.987863
 30
0.0
 11
14.427861
 21
28.163565
 31
0.0
  0
LINE
  5
19f
100
AcDbEntity
  8
0
 62
7
100
AcDbLine
 10
14.427861
 20
28.163565
 30
0.0
 11
12.635305
 21
28.222222
 31
0.0
  0
LINE
  5
1a0
100
AcDbEntity
  8
0
 62
7
100
AcDbLine
 10
12.635305
 20
28.222222
 30
0.0
 11
10.840340
 21
28.163710
 31
0.0
  0
LINE
  5
1a1
100
AcDbEntity
  8
0
 62
7
100
AcDbLine
 10
10.840340
 20
28.163710
 30
0.0
 11
9.175199
 21
27.988436
 31
0.0
  0
LINE
  5
1a2
100
AcDbEntity
  8
0
 62
7
100
AcDbLine
 10
9.175199
 20
27.988436
 30
0.0
 11
7.641040
 21
27.696800
 31
0.0
  0
LINE
  5
1a3
100
AcDbEntity
  8
0
 62
7
100
AcDbLine
 10
7.641040
 20
27.696800
 30
0.0
 11
6.239020
 21
27.289196
 31
0.0
  0
LINE
  5
1a4
100
AcDbEntity
  8
0
 62
7
100
AcDbLine
 10
6.239020
 20
27.289196
 30
0.0
 11
4.970298
 21
26.766022
 31
0.0
  0
LINE
  5
1a5
100
AcDbEntity
  8
0
 62
7
100
AcDbLine
 10
4.970298
 20
26.766022
 30
0.0
 11
3.836031
 21
26.127675
 31
0.0
  0
LINE
  5
1a6
100
AcDbEntity
  8
0
 62
7
100
AcDbLine
 10
3.836031
 20
26.127675
 30
0.0
 11
2.837375
 21
25.374551
 31
0.0
  0
LINE
  5
1a7
100
AcDbEntity
  8
0
 62
7
100
AcDbLine
 10
2.837375
 20
25.374551
 30
0.0
 11
1.975489
 21
24.507049
 31
0.0
  0
LINE
  5
1a8
100
AcDbEntity
  8
0
 62
7
100
AcDbLine
 10
1.975489
 20
24.507049
 30
0.0
 11
1.196635
 21
23.432694
 31
0.0
  0
LINE
  5
1a9
100
AcDbEntity
  8
0
 62
7
100
AcDbLine
 10
1.196635
 20
23.432694
 30
0.0
 11
0.650191
 21
22.352331
 31
0.0
  0
LINE
  5
1aa
100
AcDbEntity
  8
0
 62
7
100
AcDbLine
 10
0.650191
 20
22.352331
 30
0.0
 11
0.296867
 21
21.309769
 31
0.0
  0
LINE
  5
1ab
100
AcDbEntity
  8
0
 62
7
100
AcDbLine
 10
0.296867
 20
21.309769
 30
0.0
 11
0.097371
 21
20.348822
 31
0.0
  0
LINE
  5
1ac
100
AcDbEntity
  8
0
 62
7
100
AcDbLine
 10
0.097371
 20
20.348822
 30
0.0
 11
0.012413
 21
19.513300
 31
0.0
  0
LINE
  5
1ad
100
AcDbEntity
  8
0
 62
7
100
AcDbLine
 10
0.012413
 20
19.513300
 30
0.0
 11
0.002703
 21
18.847016
 31
0.0
  0
LINE
  5
1ae
100
AcDbEntity
  8
0
 62
7
100
AcDbLine
 10
0.002703
 20
18.847016
 30
0.0
 11
0.028950
 21
18.393781
 31
0.0
  0
LINE
  5
1af
100
AcDbEntity
  8
0
 62
7
100
AcDbLine
 10
0.028950
 20
18.393781
 30
0.0
 11
0.051863
 21
18.197407
 31
0.0
  0
LINE
  5
1b0
100
AcDbEntity
  8
0
 62
7
100
AcDbLine
 10
0.051863
 20
18.197407
 30
0.0
 11
0.097930
 21
18.010618
 31
0.0
  0
LINE
  5
1b1
100
AcDbEntity
  8
0
 62
7
100
AcDbLine
 10
0.097930
 20
18.010618
 30
0.0
 11
0.174338
 21
17.838799
 31
0.0
  0
LINE
  5
1b2
100
AcDbEntity
  8
0
 62
7
100
AcDbLine
 10
0.174338
 20
17.838799
 30
0.0
 11
0.277615
 21
17.685011
 31
0.0
  0
LINE
  5
1b3
100
AcDbEntity
  8
0
 62
7
100
AcDbLine
 10
0.277615
 20
17.685011
 30
0.0
 11
0.404288
 21
17.552317
 31
0.0
  0
LINE
  5
1b4
100
AcDbEntity
  8
0
 62
7
100
AcDbLine
 10
0.404288
 20
17.552317
 30
0.0
 11
0.550883
 21
17.443780
 31
0.0
  0
LINE
  5
1b5
100
AcDbEntity
  8
0
 62
7
100
AcDbLine
 10
0.550883
 20
17.443780
 30
0.0
 11
0.713929
 21
17.362461
 31
0.0
  0
LINE
  5
1b6
100
AcDbEntity
  8
0
 62
7
100
AcDbLine
 10
0.713929
 20
17.362461
 30
0.0
 11
0.889953
 21
17.311424
 31
0.0
  0
LINE
  5
1b7
100
AcDbEntity
  8
0
 62
7
100
AcDbLine
 10
0.889953
 20
17.311424
 30
0.0
 11
1.075483
 21
17.293731
 31
0.0
  0
LINE
  5
1b8
100
AcDbEntity
  8
0
 62
7
100
AcDbLine
 10
1.075483
 20
17.293731
 30
0.0
 11
3.965121
 21
17.293731
 31
0.0
  0
LINE
  5
1b9
100
AcDbEntity
  8
0
 62
7
100
AcDbLine
 10
3.965121
 20
17.293731
 30
0.0
 11
6.854759
 21
17.293731
 31
0.0
  0
LINE
  5
1ba
100
AcDbEntity
  8
0
 62
7
100
AcDbLine
 10
6.854759
 20
17.293731
 30
0.0
 11
9.744397
 21
17.293731
 31
0.0
  0
LINE
  5
1bb
100
AcDbEntity
  8
0
 62
7
100
AcDbLine
 10
9.744397
 20
17.293731
 30
0.0
 11
12.634035
 21
17.293731
 31
0.0
  0
LINE
  5
1bc
100
AcDbEntity
  8
0
 62
7
100
AcDbLine
 10
12.634035
 20
17.293731
 30
0.0
 11
15.523673
 21
17.293731
 31
0.0
  0
LINE
  5
1bd
100
AcDbEntity
  8
0
 62
7
100
AcDbLine
 10
15.523673
 20
17.293731
 30
0.0
 11
18.413311
 21
17.293731
 31
0.0
  0
LINE
  5
1be
100
AcDbEntity
  8
0
 62
7
100
AcDbLine
 10
18.413311
 20
17.293731
 30
0.0
 11
21.302949
 21
17.293731
 31
0.0
  0
LINE
  5
1bf
100
AcDbEntity
  8
0
 62
7
100
AcDbLine
 10
21.302949
 20
17.293731
 30
0.0
 11
24.192587
 21
17.293731
 31
0.0
  0
LINE
  5
1c0
100
AcDbEntity
  8
0
 62
7
100
AcDbLine
 10
24.192587
 20
17.293731
 30
0.0
 11
24.377876
 21
17.311429
 31
0.0
  0
LINE
  5
1c1
100
AcDbEntity
  8
0
 62
7
100
AcDbLine
 10
24.377876
 20
17.311429
 30
0.0
 11
24.553809
 21
17.362501
 31
0.0
  0
LINE
  5
1c2
100
AcDbEntity
  8
0
 62
7
100
AcDbLine
 10
24.553809
 20
17.362501
 30
0.0
 11
24.716903
 21
17.443914
 31
0.0
  0
LINE
  5
1c3
100
AcDbEntity
  8
0
 62
7
100
AcDbLine
 10
24.716903
 20
17.443914
 30
0.0
 11
24.863676
 21
17.552635
 31
0.0
  0
LINE
  5
1c4
100
AcDbEntity
  8
0
 62
7
100
AcDbLine
 10
24.863676
 20
17.552635
 30
0.0
 11
24.990645
 21
17.685632
 31
0.0
  0
LINE
  5
1c5
100
AcDbEntity
  8
0
 62
7
100
AcDbLine
 10
24.990645
 20
17.685632
 30
0.0
 11
25.094327
 21
17.839871
 31
0.0
  0
LINE
  5
1c6
100
AcDbEntity
  8
0
 62
7
100
AcDbLine
 10
25.094327
 20
17.839871
 30
0.0
 11
25.171239
 21
18.012321
 31
0.0
  0
LINE
  5
1c7
100
AcDbEntity
  8
0
 62
7
100
AcDbLine
 10
25.171239
 20
18.012321
 30
0.0
 11
25.217900
 21
18.199947
 31
0.0
  0
LINE
  5
1c8
100
AcDbEntity
  8
0
 62
7
100
AcDbLine
 10
25.217900
 20
18.199947
 30
0.0
 11
25.240478
 21
18.395662
 31
0.0
  0
LINE
  5
1c9
100
AcDbEntity
  8
0
 62
7
100
AcDbLine
 10
25.240478
 20
18.395662
 30
0.0
 11
25.266228
 21
18.847832
 31
0.0
  0
LINE
  5
1ca
100
AcDbEntity
  8
0
 62
7
100
AcDbLine
 10
25.266228
 20
18.847832
 30
0.0
 11
25.255986
 21
19.512740
 31
0.0
  0
LINE
  5
1cb
100
AcDbEntity
  8
0
 62
7
100
AcDbLine
 10
25.255986
 20
19.512740
 30
0.0
 11
25.170593
 21
20.346670
 31
0.0
  0
LINE
  5
1cc
100
AcDbEntity
  8
0
 62
7
100
AcDbLine
 10
25.170593
 20
20.346670
 30
0.0
 11
24.970887
 21
21.305907
 31
0.0
  0
LINE
  5
1cd
100
AcDbEntity
  8
0
 62
7
100
AcDbLine
 10
24.970887
 20
21.305907
 30
0.0
 11
24.617706
 21
22.346735
 31
0.0
  0
LINE
  5
1ce
100
AcDbEntity
  8
0
 62
7
100
AcDbLine
 10
24.617706
 20
22.346735
 30
0.0
 11
24.071889
 21
23.425438
 31
0.0
  0
LINE
  5
1cf
100
AcDbEntity
  8
0
 62
7
100
AcDbLine
 10
24.071889
 20
23.425438
 30
0.0
 11
23.294274
 21
24.498300
 31
0.0
  0
LINE
  5
1d0
100
AcDbEntity
  8
0
 62
7
100
AcDbLine
 10
6.234505
 20
22.868184
 30
0.0
 11
6.103086
 21
22.612602
 31
0.0
  0
LINE
  5
1d1
100
AcDbEntity
  8
0
 62
7
100
AcDbLine
 10
6.103086
 20
22.612602
 30
0.0
 11
5.956533
 21
22.385571
 31
0.0
  0
LINE
  5
1d2
100
AcDbEntity
  8
0
 62
7
100
AcDbLine
 10
5.956533
 20
22.385571
 30
0.0
 11
5.799689
 21
22.191170
 31
0.0
  0
LINE
  5
1d3
100
AcDbEntity
  8
0
 62
7
100
AcDbLine
 10
5.799689
 20
22.191170
 30
0.0
 11
5.637393
 21
22.033477
 31
0.0
  0
LINE
  5
1d4
100
AcDbEntity
  8
0
 62
7
100
AcDbLine
 10
5.637393
 20
22.033477
 30
0.0
 11
5.474489
 21
21.916569
 31
0.0
  0
LINE
  5
1d5
100
AcDbEntity
  8
0
 62
7
100
AcDbLine
 10
5.474489
 20
21.916569
 30
0.0
 11
5.315818
 21
21.844525
 31
0.0
  0
LINE
  5
1d6
100
AcDbEntity
  8
0
 62
7
100
AcDbLine
 10
5.315818
 20
21.844525
 30
0.0
 11
5.166223
 21
21.821422
 31
0.0
  0
LINE
  5
1d7
100
AcDbEntity
  8
0
 62
7
100
AcDbLine
 10
5.166223
 20
21.821422
 30
0.0
 11
5.030545
 21
21.851338
 31
0.0
  0
LINE
  5
1d8
100
AcDbEntity
  8
0
 62
7
100
AcDbLine
 10
5.030545
 20
21.851338
 30
0.0
 11
4.918946
 21
21.933847
 31
0.0
  0
LINE
  5
1d9
100
AcDbEntity
  8
0
 62
7
100
AcDbLine
 10
4.918946
 20
21.933847
 30
0.0
 11
4.838215
 21
22.061778
 31
0.0
  0
LINE
  5
1da
100
AcDbEntity
  8
0
 62
7
100
AcDbLine
 10
4.838215
 20
22.061778
 30
0.0
 11
4.788446
 21
22.228776
 31
0.0
  0
LINE
  5
1db
100
AcDbEntity
  8
0
 62
7
100
AcDbLine
 10
4.788446
 20
22.228776
 30
0.0
 11
4.769736
 21
22.428482
 31
0.0
  0
LINE
  5
1dc
100
AcDbEntity
  8
0
 62
7
100
AcDbLine
 10
4.769736
 20
22.428482
 30
0.0
 11
4.782182
 21
22.654541
 31
0.0
  0
LINE
  5
1dd
100
AcDbEntity
  8
0
 62
7
100
AcDbLine
 10
4.782182
 20
22.654541
 30
0.0
 11
4.825878
 21
22.900596
 31
0.0
  0
LINE
  5
1de
100
AcDbEntity
  8
0
 62
7
100
AcDbLine
 10
4.825878
 20
22.900596
 30
0.0
 11
4.900919
 21
23.160290
 31
0.0
  0
LINE
  5
1df
100
AcDbEntity
  8
0
 62
7
100
AcDbLine
 10
4.900919
 20
23.160290
 30
0.0
 11
5.007404
 21
23.427267
 31
0.0
  0
LINE
  5
1e0
100
AcDbEntity
  8
0
 62
7
100
AcDbLine
 10
5.007404
 20
23.427267
 30
0.0
 11
5.138798
 21
23.682861
 31
0.0
  0
LINE
  5
1e1
100
AcDbEntity
  8
0
 62
7
100
AcDbLine
 10
5.138798
 20
23.682861
 30
0.0
 11
5.285291
 21
23.909924
 31
0.0
  0
LINE
  5
1e2
100
AcDbEntity
  8
0
 62
7
100
AcDbLine
 10
5.285291
 20
23.909924
 30
0.0
 11
5.442056
 21
24.104370
 31
0.0
  0
LINE
  5
1e3
100
AcDbEntity
  8
0
 62
7
100
AcDbLine
 10
5.442056
 20
24.104370
 30
0.0
 11
5.604268
 21
24.262115
 31
0.0
  0
LINE
  5
1e4
100
AcDbEntity
  8
0
 62
7
100
AcDbLine
 10
5.604268
 20
24.262115
 30
0.0
 11
5.767102
 21
24.379075
 31
0.0
  0
LINE
  5
1e5
100
AcDbEntity
  8
0
 62
7
100
AcDbLine
 10
5.767102
 20
24.379075
 30
0.0
 11
5.925733
 21
24.451164
 31
0.0
  0
LINE
  5
1e6
100
AcDbEntity
  8
0
 62
7
100
AcDbLine
 10
5.925733
 20
24.451164
 30
0.0
 11
6.075334
 21
24.474298
 31
0.0
  0
LINE
  5
1e7
100
AcDbEntity
  8
0
 62
7
100
AcDbLine
 10
6.075334
 20
24.474298
 30
0.0
 11
6.211080
 21
24.444396
 31
0.0
  0
LINE
  5
1e8
100
AcDbEntity
  8
0
 62
7
100
AcDbLine
 10
6.211080
 20
24.444396
 30
0.0
 11
6.322772
 21
24.361643
 31
0.0
  0
LINE
  5
1e9
100
AcDbEntity
  8
0
 62
7
100
AcDbLine
 10
6.322772
 20
24.361643
 30
0.0
 11
6.403573
 21
24.233593
 31
0.0
  0
LINE
  5
1ea
100
AcDbEntity
  8
0
 62
7
100
AcDbLine
 10
6.403573
 20
24.233593
 30
0.0
 11
6.453392
 21
24.066571
 31
0.0
  0
LINE
  5
1eb
100
AcDbEntity
  8
0
 62
7
100
AcDbLine
 10
6.453392
 20
24.066571
 30
0.0
 11
6.472135
 21
23.866898
 31
0.0
  0
LINE
  5
1ec
100
AcDbEntity
  8
0
 62
7
100
AcDbLine
 10
6.472135
 20
23.866898
 30
0.0
 11
6.459711
 21
23.640900
 31
0.0
  0
LINE
  5
1ed
100
AcDbEntity
  8
0
 62
7
100
AcDbLine
 10
6.459711
 20
23.640900
 30
0.0
 11
6.416026
 21
23.394899
 31
0.0
  0
LINE
  5
1ee
100
AcDbEntity
  8
0
 62
7
100
AcDbLine
 10
6.416026
 20
23.394899
 30
0.0
 11
6.340988
 21
23.135220
 31
0.0
  0
LINE
  5
1ef
100
AcDbEntity
  8
0
 62
7
100
AcDbLine
 10
6.340988
 20
23.135220
 30
0.0
 11
6.234505
 21
22.868184
 31
0.0
  0
LINE
  5
1f0
100
AcDbEntity
  8
0
 62
7
100
AcDbLine
 10
9.688905
 20
20.912102
 30
0.0
 11
9.574651
 21
20.615860
 31
0.0
  0
LINE
  5
1f1
100
AcDbEntity
  8
0
 62
7
100
AcDbLine
 10
9.574651
 20
20.615860
 30
0.0
 11
9.440033
 21
20.349219
 31
0.0
  0
LINE
  5
1f2
100
AcDbEntity
  8
0
 62
7
100
AcDbLine
 10
9.440033
 20
20.349219
 30
0.0
 11
9.289931
 21
20.117251
 31
0.0
  0
LINE
  5
1f3
100
AcDbEntity
  8
0
 62
7
100
AcDbLine
 10
9.289931
 20
20.117251
 30
0.0
 11
9.129223
 21
19.925030
 31
0.0
  0
LINE
  5
1f4
100
AcDbEntity
  8
0
 62
7
100
AcDbLine
 10
9.129223
 20
19.925030
 30
0.0
 11
8.962786
 21
19.777630
 31
0.0
  0
LINE
  5
1f5
100
AcDbEntity
  8
0
 62
7
100
AcDbLine
 10
8.962786
 20
19.777630
 30
0.0
 11
8.795500
 21
19.680123
 31
0.0
  0
LINE
  5
1f6
100
AcDbEntity
  8
0
 62
7
100
AcDbLine
 10
8.795500
 20
19.680123
 30
0.0
 11
8.632241
 21
19.637583
 31
0.0
  0
LINE
  5
1f7
100
AcDbEntity
  8
0
 62
7
100
AcDbLine
 10
8.632241
 20
19.637583
 30
0.0
 11
8.477889
 21
19.655084
 31
0.0
  0
LINE
  5
1f8
100
AcDbEntity
  8
0
 62
7
100
AcDbLine
 10
8.477889
 20
19.655084
 30
0.0
 11
8.343667
 21
19.733233
 31
0.0
  0
LINE
  5
1f9
100
AcDbEntity
  8
0
 62
7
100
AcDbLine
 10
8.343667
 20
19.733233
 30
0.0
 11
8.238133
 21
19.864824
 31
0.0
  0
LINE
  5
1fa
100
AcDbEntity
  8
0
 62
7
100
AcDbLine
 10
8.238133
 20
19.864824
 30
0.0
 11
8.162165
 21
20.042896
 31
0.0
  0
LINE
  5
1fb
100
AcDbEntity
  8
0
 62
7
100
AcDbLine
 10
8.162165
 20
20.042896
 30
0.0
 11
8.116645
 21
20.260486
 31
0.0
  0
LINE
  5
1fc
100
AcDbEntity
  8
0
 62
7
100
AcDbLine
 10
8.116645
 20
20.260486
 30
0.0
 11
8.102452
 21
20.510634
 31
0.0
  0
LINE
  5
1fd
100
AcDbEntity
  8
0
 62
7
100
AcDbLine
 10
8.102452
 20
20.510634
 30
0.0
 11
8.120463
 21
20.786377
 31
0.0
  0
LINE
  5
1fe
100
AcDbEntity
  8
0
 62
7
100
AcDbLine
 10
8.120463
 20
20.786377
 30
0.0
 11
8.171562
 21
21.080753
 31
0.0
  0
LINE
  5
1ff
100
AcDbEntity
  8
0
 62
7
100
AcDbLine
 10
8.171562
 20
21.080753
 30
0.0
 11
8.256627
 21
21.386800
 31
0.0
  0
LINE
  5
200
100
AcDbEntity
  8
0
 62
7
100
AcDbLine
 10
8.256627
 20
21.386800
 30
0.0
 11
8.371042
 21
21.683054
 31
0.0
  0
LINE
  5
201
100
AcDbEntity
  8
0
 62
7
100
AcDbLine
 10
8.371042
 20
21.683054
 30
0.0
 11
8.505732
 21
21.949728
 31
0.0
  0
LINE
  5
202
100
AcDbEntity
  8
0
 62
7
100
AcDbLine
 10
8.505732
 20
21.949728
 30
0.0
 11
8.655833
 21
22.181741
 31
0.0
  0
LINE
  5
203
100
AcDbEntity
  8
0
 62
7
100
AcDbLine
 10
8.655833
 20
22.181741
 30
0.0
 11
8.816485
 21
22.374013
 31
0.0
  0
LINE
  5
204
100
AcDbEntity
  8
0
 62
7
100
AcDbLine
 10
8.816485
 20
22.374013
 30
0.0
 11
8.982825
 21
22.521466
 31
0.0
  0
LINE
  5
205
100
AcDbEntity
  8
0
 62
7
100
AcDbLine
 10
8.982825
 20
22.521466
 30
0.0
 11
9.149992
 21
22.619018
 31
0.0
  0
LINE
  5
206
100
AcDbEntity
  8
0
 62
7
100
AcDbLine
 10
9.149992
 20
22.619018
 30
0.0
 11
9.313125
 21
22.661589
 31
0.0
  0
LINE
  5
207
100
AcDbEntity
  8
0
 62
7
100
AcDbLine
 10
9.313125
 20
22.661589
 30
0.0
 11
9.467360
 21
22.644100
 31
0.0
  0
LINE
  5
208
100
AcDbEntity
  8
0
 62
7
100
AcDbLine
 10
9.467360
 20
22.644100
 30
0.0
 11
9.601687
 21
22.565777
 31
0.0
  0
LINE
  5
209
100
AcDbEntity
  8
0
 62
7
100
AcDbLine
 10
9.601687
 20
22.565777
 30
0.0
 11
9.707320
 21
22.434078
 31
0.0
  0
LINE
  5
20a
100
AcDbEntity
  8
0
 62
7
100
AcDbLine
 10
9.707320
 20
22.434078
 30
0.0
 11
9.783372
 21
22.255951
 31
0.0
  0
LINE
  5
20b
100
AcDbEntity
  8
0
 62
7
100
AcDbLine
 10
9.783372
 20
22.255951
 30
0.0
 11
9.828957
 21
22.038345
 31
0.0
  0
LINE
  5
20c
100
AcDbEntity
  8
0
 62
7
100
AcDbLine
 10
9.828957
 20
22.038345
 30
0.0
 11
9.843190
 21
21.788208
 31
0.0
  0
LINE
  5
20d
100
AcDbEntity
  8
0
 62
7
100
AcDbLine
 10
9.843190
 20
21.788208
 30
0.0
 11
9.825181
 21
21.512490
 31
0.0
  0
LINE
  5
20e
100
AcDbEntity
  8
0
 62
7
100
AcDbLine
 10
9.825181
 20
21.512490
 30
0.0
 11
9.774048
 21
21.218138
 31
0.0
  0
LINE
  5
20f
100
AcDbEntity
  8
0
 62
7
100
AcDbLine
 10
9.774048
 20
21.218138
 30
0.0
 11
9.688905
 21
20.912102
 31
0.0
  0
LINE
  5
210
100
AcDbEntity
  8
0
 62
7
100
AcDbLine
 10
12.803227
 20
22.419169
 30
0.0
 11
12.652336
 21
22.446934
 31
0.0
  0
LINE
  5
211
100
AcDbEntity
  8
0
 62
7
100
AcDbLine
 10
12.652336
 20
22.446934
 30
0.0
 11
12.511767
 21
22.526571
 31
0.0
  0
LINE
  5
212
100
AcDbEntity
  8
0
 62
7
100
AcDbLine
 10
12.511767
 20
22.526571
 30
0.0
 11
12.384539
 21
22.652591
 31
0.0
  0
LINE
  5
213
100
AcDbEntity
  8
0
 62
7
100
AcDbLine
 10
12.384539
 20
22.652591
 30
0.0
 11
12.273672
 21
22.819501
 31
0.0
  0
LINE
  5
214
100
AcDbEntity
  8
0
 62
7
100
AcDbLine
 10
12.273672
 20
22.819501
 30
0.0
 11
12.182187
 21
23.021813
 31
0.0
  0
LINE
  5
215
100
AcDbEntity
  8
0
 62
7
100
AcDbLine
 10
12.182187
 20
23.021813
 30
0.0
 11
12.113101
 21
23.254035
 31
0.0
  0
LINE
  5
216
100
AcDbEntity
  8
0
 62
7
100
AcDbLine
 10
12.113101
 20
23.254035
 30
0.0
 11
12.069435
 21
23.510679
 31
0.0
  0
LINE
  5
217
100
AcDbEntity
  8
0
 62
7
100
AcDbLine
 10
12.069435
 20
23.510679
 30
0.0
 11
12.054209
 21
23.786253
 31
0.0
  0
LINE
  5
218
100
AcDbEntity
  8
0
 62
7
100
AcDbLine
 10
12.054209
 20
23.786253
 30
0.0
 11
12.069424
 21
24.061840
 31
0.0
  0
LINE
  5
219
100
AcDbEntity
  8
0
 62
7
100
AcDbLine
 10
12.069424
 20
24.061840
 30
0.0
 11
12.113061
 21
24.318516
 31
0.0
  0
LINE
  5
21a
100
AcDbEntity
  8
0
 62
7
100
AcDbLine
 10
12.113061
 20
24.318516
 30
0.0
 11
12.182112
 21
24.550783
 31
0.0
  0
LINE
  5
21b
100
AcDbEntity
  8
0
 62
7
100
AcDbLine
 10
12.182112
 20
24.550783
 30
0.0
 11
12.273566
 21
24.753147
 31
0.0
  0
LINE
  5
21c
100
AcDbEntity
  8
0
 62
7
100
AcDbLine
 10
12.273566
 20
24.753147
 30
0.0
 11
12.384415
 21
24.920109
 31
0.0
  0
LINE
  5
21d
100
AcDbEntity
  8
0
 62
7
100
AcDbLine
 10
12.384415
 20
24.920109
 30
0.0
 11
12.511647
 21
25.046173
 31
0.0
  0
LINE
  5
21e
100
AcDbEntity
  8
0
 62
7
100
AcDbLine
 10
12.511647
 20
25.046173
 30
0.0
 11
12.652255
 21
25.125842
 31
0.0
  0
LINE
  5
21f
100
AcDbEntity
  8
0
 62
7
100
AcDbLine
 10
12.652255
 20
25.125842
 30
0.0
 11
12.803227
 21
25.153620
 31
0.0
  0
LINE
  5
220
100
AcDbEntity
  8
0
 62
7
100
AcDbLine
 10
12.803227
 20
25.153620
 30
0.0
 11
12.954584
 21
25.125855
 31
0.0
  0
LINE
  5
221
100
AcDbEntity
  8
0
 62
7
100
AcDbLine
 10
12.954584
 20
25.125855
 30
0.0
 11
13.095503
 21
25.046214
 31
0.0
  0
LINE
  5
222
100
AcDbEntity
  8
0
 62
7
100
AcDbLine
 10
13.095503
 20
25.046214
 30
0.0
 11
13.222982
 21
24.920184
 31
0.0
  0
LINE
  5
223
100
AcDbEntity
  8
0
 62
7
100
AcDbLine
 10
13.222982
 20
24.920184
 30
0.0
 11
13.334016
 21
24.753254
 31
0.0
  0
LINE
  5
224
100
AcDbEntity
  8
0
 62
7
100
AcDbLine
 10
13.334016
 20
24.753254
 30
0.0
 11
13.425604
 21
24.550909
 31
0.0
  0
LINE
  5
225
100
AcDbEntity
  8
0
 62
7
100
AcDbLine
 10
13.425604
 20
24.550909
 30
0.0
 11
13.494742
 21
24.318636
 31
0.0
  0
LINE
  5
226
100
AcDbEntity
  8
0
 62
7
100
AcDbLine
 10
13.494742
 20
24.318636
 30
0.0
 11
13.538427
 21
24.061922
 31
0.0
  0
LINE
  5
227
100
AcDbEntity
  8
0
 62
7
100
AcDbLine
 10
13.538427
 20
24.061922
 30
0.0
 11
13.553656
 21
23.786255
 31
0.0
  0
LINE
  5
228
100
AcDbEntity
  8
0
 62
7
100
AcDbLine
 10
13.553656
 20
23.786255
 30
0.0
 11
13.538416
 21
23.510680
 31
0.0
  0
LINE
  5
229
100
AcDbEntity
  8
0
 62
7
100
AcDbLine
 10
13.538416
 20
23.510680
 30
0.0
 11
13.494703
 21
23.254037
 31
0.0
  0
LINE
  5
22a
100
AcDbEntity
  8
0
 62
7
100
AcDbLine
 10
13.494703
 20
23.254037
 30
0.0
 11
13.425530
 21
23.021814
 31
0.0
  0
LINE
  5
22b
100
AcDbEntity
  8
0
 62
7
100
AcDbLine
 10
13.425530
 20
23.021814
 30
0.0
 11
13.333911
 21
22.819503
 31
0.0
  0
LINE
  5
22c
100
AcDbEntity
  8
0
 62
7
100
AcDbLine
 10
13.333911
 20
22.819503
 30
0.0
 11
13.222858
 21
22.652592
 31
0.0
  0
LINE
  5
22d
100
AcDbEntity
  8
0
 62
7
100
AcDbLine
 10
13.222858
 20
22.652592
 30
0.0
 11
13.095385
 21
22.526574
 31
0.0
  0
LINE
  5
22e
100
AcDbEntity
  8
0
 62
7
100
AcDbLine
 10
13.095385
 20
22.526574
 30
0.0
 11
12.954504
 21
22.446936
 31
0.0
  0
LINE
  5
22f
100
AcDbEntity
  8
0
 62
7
100
AcDbLine
 10
12.954504
 20
22.446936
 30
0.0
 11
12.803227
 21
22.419169
 31
0.0
  0
LINE
  5
230
100
AcDbEntity
  8
0
 62
7
100
AcDbLine
 10
16.494694
 20
19.654802
 30
0.0
 11
16.341385
 21
19.661753
 31
0.0
  0
LINE
  5
231
100
AcDbEntity
  8
0
 62
7
100
AcDbLine
 10
16.341385
 20
19.661753
 30
0.0
 11
16.189294
 21
19.726972
 31
0.0
  0
LINE
  5
232
100
AcDbEntity
  8
0
 62
7
100
AcDbLine
 10
16.189294
 20
19.726972
 30
0.0
 11
16.042336
 21
19.844935
 31
0.0
  0
LINE
  5
233
100
AcDbEntity
  8
0
 62
7
100
AcDbLine
 10
16.042336
 20
19.844935
 30
0.0
 11
15.904426
 21
20.010120
 31
0.0
  0
LINE
  5
234
100
AcDbEntity
  8
0
 62
7
100
AcDbLine
 10
15.904426
 20
20.010120
 30
0.0
 11
15.779481
 21
20.217003
 31
0.0
  0
LINE
  5
235
100
AcDbEntity
  8
0
 62
7
100
AcDbLine
 10
15.779481
 20
20.217003
 30
0.0
 11
15.671416
 21
20.460062
 31
0.0
  0
LINE
  5
236
100
AcDbEntity
  8
0
 62
7
100
AcDbLine
 10
15.671416
 20
20.460062
 30
0.0
 11
15.584148
 21
20.733772
 31
0.0
  0
LINE
  5
237
100
AcDbEntity
  8
0
 62
7
100
AcDbLine
 10
15.584148
 20
20.733772
 30
0.0
 11
15.521591
 21
21.032611
 31
0.0
  0
LINE
  5
238
100
AcDbEntity
  8
0
 62
7
100
AcDbLine
 10
15.521591
 20
21.032611
 30
0.0
 11
15.488896
 21
21.336386
 31
0.0
  0
LINE
  5
239
100
AcDbEntity
  8
0
 62
7
100
AcDbLine
 10
15.488896
 20
21.336386
 30
0.0
 11
15.487465
 21
21.623849
 31
0.0
  0
LINE
  5
23a
100
AcDbEntity
  8
0
 62
7
100
AcDbLine
 10
15.487465
 20
21.623849
 30
0.0
 11
15.515276
 21
21.888532
 31
0.0
  0
LINE
  5
23b
100
AcDbEntity
  8
0
 62
7
100
AcDbLine
 10
15.515276
 20
21.888532
 30
0.0
 11
15.570310
 21
22.123964
 31
0.0
  0
LINE
  5
23c
100
AcDbEntity
  8
0
 62
7
100
AcDbLine
 10
15.570310
 20
22.123964
 30
0.0
 11
15.650546
 21
22.323678
 31
0.0
  0
LINE
  5
23d
100
AcDbEntity
  8
0
 62
7
100
AcDbLine
 10
15.650546
 20
22.323678
 30
0.0
 11
15.753962
 21
22.481205
 31
0.0
  0
LINE
  5
23e
100
AcDbEntity
  8
0
 62
7
100
AcDbLine
 10
15.753962
 20
22.481205
 30
0.0
 11
15.878538
 21
22.590074
 31
0.0
  0
LINE
  5
23f
100
AcDbEntity
  8
0
 62
7
100
AcDbLine
 10
15.878538
 20
22.590074
 30
0.0
 11
16.022254
 21
22.643818
 31
0.0
  0
LINE
  5
240
100
AcDbEntity
  8
0
 62
7
100
AcDbLine
 10
16.022254
 20
22.643818
 30
0.0
 11
16.175365
 21
22.637028
 31
0.0
  0
LINE
  5
241
100
AcDbEntity
  8
0
 62
7
100
AcDbLine
 10
16.175365
 20
22.637028
 30
0.0
 11
16.327292
 21
22.571885
 31
0.0
  0
LINE
  5
242
100
AcDbEntity
  8
0
 62
7
100
AcDbLine
 10
16.327292
 20
22.571885
 30
0.0
 11
16.474126
 21
22.453932
 31
0.0
  0
LINE
  5
243
100
AcDbEntity
  8
0
 62
7
100
AcDbLine
 10
16.474126
 20
22.453932
 30
0.0
 11
16.611957
 21
22.288710
 31
0.0
  0
LINE
  5
244
100
AcDbEntity
  8
0
 62
7
100
AcDbLine
 10
16.611957
 20
22.288710
 30
0.0
 11
16.736877
 21
22.081764
 31
0.0
  0
LINE
  5
245
100
AcDbEntity
  8
0
 62
7
100
AcDbLine
 10
16.736877
 20
22.081764
 30
0.0
 11
16.844976
 21
21.838636
 31
0.0
  0
LINE
  5
246
100
AcDbEntity
  8
0
 62
7
100
AcDbLine
 10
16.844976
 20
21.838636
 30
0.0
 11
16.932344
 21
21.564870
 31
0.0
  0
LINE
  5
247
100
AcDbEntity
  8
0
 62
7
100
AcDbLine
 10
16.932344
 20
21.564870
 30
0.0
 11
16.995074
 21
21.266007
 31
0.0
  0
LINE
  5
248
100
AcDbEntity
  8
0
 62
7
100
AcDbLine
 10
16.995074
 20
21.266007
 30
0.0
 11
17.027700
 21
20.962325
 31
0.0
  0
LINE
  5
249
100
AcDbEntity
  8
0
 62
7
100
AcDbLine
 10
17.027700
 20
20.962325
 30
0.0
 11
17.029139
 21
20.674928
 31
0.0
  0
LINE
  5
24a
100
AcDbEntity
  8
0
 62
7
100
AcDbLine
 10
17.029139
 20
20.674928
 30
0.0
 11
17.001369
 21
20.410285
 31
0.0
  0
LINE
  5
24b
100
AcDbEntity
  8
0
 62
7
100
AcDbLine
 10
17.001369
 20
20.410285
 30
0.0
 11
16.946405
 21
20.174866
 31
0.0
  0
LINE
  5
24c
100
AcDbEntity
  8
0
 62
7
100
AcDbLine
 10
16.946405
 20
20.174866
 30
0.0
 11
16.866253
 21
19.975139
 31
0.0
  0
LINE
  5
24d
100
AcDbEntity
  8
0
 62
7
100
AcDbLine
 10
16.866253
 20
19.975139
 30
0.0
 11
16.762916
 21
19.817572
 31
0.0
  0
LINE
  5
24e
100
AcDbEntity
  8
0
 62
7
100
AcDbLine
 10
16.762916
 20
19.817572
 30
0.0
 11
16.638400
 21
19.708637
 31
0.0
  0
LINE
  5
24f
100
AcDbEntity
  8
0
 62
7
100
AcDbLine
 10
16.638400
 20
19.708637
 30
0.0
 11
16.494694
 21
19.654802
 31
0.0
  0
LINE
  5
250
100
AcDbEntity
  8
0
 62
7
100
AcDbLine
 10
20.801687
 20
21.609473
 30
0.0
 11
20.666680
 21
21.576646
 31
0.0
  0
LINE
  5
251
100
AcDbEntity
  8
0
 62
7
100
AcDbLine
 10
20.666680
 20
21.576646
 30
0.0
 11
20.514425
 21
21.599371
 31
0.0
  0
LINE
  5
252
100
AcDbEntity
  8
0
 62
7
100
AcDbLine
 10
20.514425
 20
21.599371
 30
0.0
 11
20.350058
 21
21.673405
 31
0.0
  0
LINE
  5
253
100
AcDbEntity
  8
0
 62
7
100
AcDbLine
 10
20.350058
 20
21.673405
 30
0.0
 11
20.178717
 21
21.794505
 31
0.0
  0
LINE
  5
254
100
AcDbEntity
  8
0
 62
7
100
AcDbLine
 10
20.178717
 20
21.794505
 30
0.0
 11
20.005536
 21
21.958428
 31
0.0
  0
LINE
  5
255
100
AcDbEntity
  8
0
 62
7
100
AcDbLine
 10
20.005536
 20
21.958428
 30
0.0
 11
19.835654
 21
22.160931
 31
0.0
  0
LINE
  5
256
100
AcDbEntity
  8
0
 62
7
100
AcDbLine
 10
19.835654
 20
22.160931
 30
0.0
 11
19.674204
 21
22.397770
 31
0.0
  0
LINE
  5
257
100
AcDbEntity
  8
0
 62
7
100
AcDbLine
 10
19.674204
 20
22.397770
 30
0.0
 11
19.526325
 21
22.664702
 31
0.0
  0
LINE
  5
258
100
AcDbEntity
  8
0
 62
7
100
AcDbLine
 10
19.526325
 20
22.664702
 30
0.0
 11
19.402863
 21
22.944081
 31
0.0
  0
LINE
  5
259
100
AcDbEntity
  8
0
 62
7
100
AcDbLine
 10
19.402863
 20
22.944081
 30
0.0
 11
19.311638
 21
23.216028
 31
0.0
  0
LINE
  5
25a
100
AcDbEntity
  8
0
 62
7
100
AcDbLine
 10
19.311638
 20
23.216028
 30
0.0
 11
19.252923
 21
23.473906
 31
0.0
  0
LINE
  5
25b
100
AcDbEntity
  8
0
 62
7
100
AcDbLine
 10
19.252923
 20
23.473906
 30
0.0
 11
19.226992
 21
23.711076
 31
0.0
  0
LINE
  5
25c
100
AcDbEntity
  8
0
 62
7
100
AcDbLine
 10
19.226992
 20
23.711076
 30
0.0
 11
19.234121
 21
23.920903
 31
0.0
  0
LINE
  5
25d
100
AcDbEntity
  8
0
 62
7
100
AcDbLine
 10
19.234121
 20
23.920903
 30
0.0
 11
19.274585
 21
24.096746
 31
0.0
  0
LINE
  5
25e
100
AcDbEntity
  8
0
 62
7
100
AcDbLine
 10
19.274585
 20
24.096746
 30
0.0
 11
19.348658
 21
24.231970
 31
0.0
  0
LINE
  5
25f
100
AcDbEntity
  8
0
 62
7
100
AcDbLine
 10
19.348658
 20
24.231970
 30
0.0
 11
19.456616
 21
24.319936
 31
0.0
  0
LINE
  5
260
100
AcDbEntity
  8
0
 62
7
100
AcDbLine
 10
19.456616
 20
24.319936
 30
0.0
 11
19.591786
 21
24.352761
 31
0.0
  0
LINE
  5
261
100
AcDbEntity
  8
0
 62
7
100
AcDbLine
 10
19.591786
 20
24.352761
 30
0.0
 11
19.744121
 21
24.330026
 31
0.0
  0
LINE
  5
262
100
AcDbEntity
  8
0
 62
7
100
AcDbLine
 10
19.744121
 20
24.330026
 30
0.0
 11
19.908508
 21
24.255960
 31
0.0
  0
LINE
  5
263
100
AcDbEntity
  8
0
 62
7
100
AcDbLine
 10
19.908508
 20
24.255960
 30
0.0
 11
20.079833
 21
24.134798
 31
0.0
  0
LINE
  5
264
100
AcDbEntity
  8
0
 62
7
100
AcDbLine
 10
20.079833
 20
24.134798
 30
0.0
 11
20.252984
 21
23.970774
 31
0.0
  0
LINE
  5
265
100
AcDbEntity
  8
0
 62
7
100
AcDbLine
 10
20.252984
 20
23.970774
 30
0.0
 11
20.422848
 21
23.768121
 31
0.0
  0
LINE
  5
266
100
AcDbEntity
  8
0
 62
7
100
AcDbLine
 10
20.422848
 20
23.768121
 30
0.0
 11
20.584311
 21
23.531072
 31
0.0
  0
LINE
  5
267
100
AcDbEntity
  8
0
 62
7
100
AcDbLine
 10
20.584311
 20
23.531072
 30
0.0
 11
20.732260
 21
23.263861
 31
0.0
  0
LINE
  5
268
100
AcDbEntity
  8
0
 62
7
100
AcDbLine
 10
20.732260
 20
23.263861
 30
0.0
 11
20.855641
 21
22.984588
 31
0.0
  0
LINE
  5
269
100
AcDbEntity
  8
0
 62
7
100
AcDbLine
 10
20.855641
 20
22.984588
 30
0.0
 11
20.946824
 21
22.712747
 31
0.0
  0
LINE
  5
26a
100
AcDbEntity
  8
0
 62
7
100
AcDbLine
 10
20.946824
 20
22.712747
 30
0.0
 11
21.005524
 21
22.454975
 31
0.0
  0
LINE
  5
26b
100
AcDbEntity
  8
0
 62
7
100
AcDbLine
 10
21.005524
 20
22.454975
 30
0.0
 11
21.031451
 21
22.217910
 31
0.0
  0
LINE
  5
26c
100
AcDbEntity
  8
0
 62
7
100
AcDbLine
 10
21.031451
 20
22.217910
 30
0.0
 11
21.024320
 21
22.008189
 31
0.0
  0
LINE
  5
26d
100
AcDbEntity
  8
0
 62
7
100
AcDbLine
 10
21.024320
 20
22.008189
 30
0.0
 11
20.983840
 21
21.832451
 31
0.0
  0
LINE
  5
26e
100
AcDbEntity
  8
0
 62
7
100
AcDbLine
 10
20.983840
 20
21.832451
 30
0.0
 11
20.909725
 21
21.697334
 31
0.0
  0
LINE
  5
26f
100
AcDbEntity
  8
0
 62
7
100
AcDbLine
 10
20.909725
 20
21.697334
 30
0.0
 11
20.801687
 21
21.609473
 31
0.0
  0
ENDSEC
  0
SECTION
  2
OBJECTS
  0
DICTIONARY
  5
C
330
0
100
AcDbDictionary
  3
ACAD_GROUP
350
D
  3
ACAD_MLINESTYLE
350
17
  0
DICTIONARY
  5
D
330
C
100
AcDbDictionary
  0
DICTIONARY
  5
1A
330
C
100
AcDbDictionary
  0
DICTIONARY
  5
17
330
C
100
AcDbDictionary
  3
STANDARD
350
18
  0
DICTIONARY
  5
19
330
C
100
AcDbDictionary
  0
ENDSEC
  0
EOF
