  0
SECTION
  2
HEADER
  9
$ACADVER
  1
AC1014
  9
$HANDSEED
  5
FFFF
  9
$MEASUREMENT
 70
     1
  0
ENDSEC
  0
SECTION
  2
TABLES
  0
TABLE
  2
VPORT
  5
8
330
0
100
AcDbSymbolTable
 70
     4
  0
VPORT
  5
2E
330
8
100
AcDbSymbolTableRecord
100
AcDbViewportTableRecord
  2
*ACTIVE
 70
     0
 10
0.0
 20
0.0
 11
1.0
 21
1.0
 12
210.0
 22
148.5
 13
0.0
 23
0.0
 14
10.0
 24
10.0
 15
10.0
 25
10.0
 16
0.0
 26
0.0
 36
1.0
 17
0.0
 27
0.0
 37
0.0
 40
341.0
 41
1.24
 42
50.0
 43
0.0
 44
0.0
 50
0.0
 51
0.0
 71
     0
 72
   100
 73
     1
 74
     3
 75
     0
 76
     0
 77
     0
 78
     0
  0
ENDTAB
  0
TABLE
  2
LTYPE
  5
5
330
0
100
AcDbSymbolTable
 70
     1
  0
LTYPE
  5
14
330
5
100
AcDbSymbolTableRecord
100
AcDbLinetypeTableRecord
  2
BYBLOCK
 70
     0
  3

 72
    65
 73
     0
 40
0.0
  0
LTYPE
  5
15
330
5
100
AcDbSymbolTableRecord
100
AcDbLinetypeTableRecord
  2
BYLAYER
 70
     0
  3

 72
    65
 73
     0
 40
0.0
  0
LTYPE
  5
16
330
5
100
AcDbSymbolTableRecord
100
AcDbLinetypeTableRecord
  2
CONTINUOUS
 70
     0
  3
Solid line
 72
    65
 73
     0
 40
0.0
  0
ENDTAB
  0
TABLE
  2
LAYER
  5
2
100
AcDbSymbolTable
 70
1
  0
LAYER
  5
50
100
AcDbSymbolTableRecord
100
AcDbLayerTableRecord
  2
0
 70
0
  6
CONTINUOUS
  0
ENDTAB
  0
TABLE
  2
STYLE
  5
3
330
0
100
AcDbSymbolTable
 70
     1
  0
STYLE
  5
11
330
3
100
AcDbSymbolTableRecord
100
AcDbTextStyleTableRecord
  2
STANDARD
 70
     0
 40
0.0
 41
1.0
 50
0.0
 71
     0
 42
2.5
  3
txt
  4

  0
ENDTAB
  0
TABLE
  2
VIEW
  5
6
330
0
100
AcDbSymbolTable
 70
     0
  0
ENDTAB
  0
TABLE
  2
UCS
  5
7
330
0
100
AcDbSymbolTable
 70
     0
  0
ENDTAB
  0
TABLE
  2
APPID
  5
9
330
0
100
AcDbSymbolTable
 70
     2
  0
APPID
  5
12
330
9
100
AcDbSymbolTableRecord
100
AcDbRegAppTableRecord
  2
ACAD
 70
     0
  0
ENDTAB
  0
TABLE
  2
DIMSTYLE
  5
A
330
0
100
AcDbSymbolTable
 70
     1
  0
DIMSTYLE
105
27
330
A
100
AcDbSymbolTableRecord
100
AcDbDimStyleTableRecord
  2
ISO-25
 70
     0
  3

  4

  5

  6

  7

 40
1.0
 41
2.5
 42
0.625
 43
3.75
 44
1.25
 45
0.0
 46
0.0
 47
0.0
 48
0.0
140
2.5
141
2.5
142
0.0
143
0.03937007874016
144
1.0
145
0.0
146
1.0
147
0.625
 71
     0
 72
     0
 73
     0
 74
     0
 75
     0
 76
     0
 77
     1
 78
     8
170
     0
171
     3
172
     1
173
     0
174
     0
175
     0
176
     0
177
     0
178
     0
270
     2
271
     2
272
     2
273
     2
274
     3
340
11
275
     0
280
     0
281
     0
282
     0
283
     0
284
     8
285
     0
286
     0
287
     3
288
     0
  0
ENDTAB
  0
TABLE
  2
BLOCK_RECORD
  5
1
330
0
100
AcDbSymbolTable
 70
     1
  0
BLOCK_RECORD
  5
1F
330
1
100
AcDbSymbolTableRecord
100
AcDbBlockTableRecord
  2
*MODEL_SPACE
  0
BLOCK_RECORD
  5
1B
330
1
100
AcDbSymbolTableRecord
100
AcDbBlockTableRecord
  2
*PAPER_SPACE
  0
ENDTAB
  0
ENDSEC
  0
SECTION
  2
BLOCKS
  0
BLOCK
  5
20
330
1F
100
AcDbEntity
  8
0
100
AcDbBlockBegin
  2
*MODEL_SPACE
 70
     0
 10
0.0
 20
0.0
 30
0.0
  3
*MODEL_SPACE
  1

  0
ENDBLK
  5
21
330
1F
100
AcDbEntity
  8
0
100
AcDbBlockEnd
  0
BLOCK
  5
1C
330
1B
100
AcDbEntity
 67
     1
  8
0
100
AcDbBlockBegin
  2
*PAPER_SPACE
  1

  0
ENDBLK
  5
1D
330
1B
100
AcDbEntity
 67
     1
  8
0
100
AcDbBlockEnd
  0
ENDSEC
  0
SECTION
  2
ENTITIES
  0
LINE
  5
100
100
AcDbEntity
  8
0
 62
7
100
AcDbLine
 10
14.107897
 20
19.050000
 30
0.0
 11
14.076147
 21
19.050000
 31
0.0
  0
LINE
  5
101
100
AcDbEntity
  8
0
 62
7
100
AcDbLine
 10
14.076147
 20
19.050000
 30
0.0
 11
14.044397
 21
19.050000
 31
0.0
  0
LINE
  5
102
100
AcDbEntity
  8
0
 62
7
100
AcDbLine
 10
14.044397
 20
19.050000
 30
0.0
 11
14.012647
 21
19.050000
 31
0.0
  0
LINE
  5
103
100
AcDbEntity
  8
0
 62
7
100
AcDbLine
 10
14.012647
 20
19.050000
 30
0.0
 11
13.980897
 21
19.050000
 31
0.0
  0
LINE
  5
104
100
AcDbEntity
  8
0
 62
7
100
AcDbLine
 10
13.980897
 20
19.050000
 30
0.0
 11
13.949147
 21
19.050000
 31
0.0
  0
LINE
  5
105
100
AcDbEntity
  8
0
 62
7
100
AcDbLine
 10
13.949147
 20
19.050000
 30
0.0
 11
13.917397
 21
19.050000
 31
0.0
  0
LINE
  5
106
100
AcDbEntity
  8
0
 62
7
100
AcDbLine
 10
13.917397
 20
19.050000
 30
0.0
 11
13.885647
 21
19.050000
 31
0.0
  0
LINE
  5
107
100
AcDbEntity
  8
0
 62
7
100
AcDbLine
 10
13.885647
 20
19.050000
 30
0.0
 11
13.853897
 21
19.050000
 31
0.0
  0
LINE
  5
108
100
AcDbEntity
  8
0
 62
7
100
AcDbLine
 10
13.853897
 20
19.050000
 30
0.0
 11
13.035728
 21
19.089412
 31
0.0
  0
LINE
  5
109
100
AcDbEntity
  8
0
 62
7
100
AcDbLine
 10
13.035728
 20
19.089412
 30
0.0
 11
12.235088
 21
19.206545
 31
0.0
  0
LINE
  5
10a
100
AcDbEntity
  8
0
 62
7
100
AcDbLine
 10
12.235088
 20
19.206545
 30
0.0
 11
11.456276
 21
19.399746
 31
0.0
  0
LINE
  5
10b
100
AcDbEntity
  8
0
 62
7
100
AcDbLine
 10
11.456276
 20
19.399746
 30
0.0
 11
10.703592
 21
19.667361
 31
0.0
  0
LINE
  5
10c
100
AcDbEntity
  8
0
 62
7
100
AcDbLine
 10
10.703592
 20
19.667361
 30
0.0
 11
9.981334
 21
20.007737
 31
0.0
  0
LINE
  5
10d
100
AcDbEntity
  8
0
 62
7
100
AcDbLine
 10
9.981334
 20
20.007737
 30
0.0
 11
9.293804
 21
20.419219
 31
0.0
  0
LINE
  5
10e
100
AcDbEntity
  8
0
 62
7
100
AcDbLine
 10
9.293804
 20
20.419219
 30
0.0
 11
8.645299
 21
20.900154
 31
0.0
  0
LINE
  5
10f
100
AcDbEntity
  8
0
 62
7
100
AcDbLine
 10
8.645299
 20
20.900154
 30
0.0
 11
8.040119
 21
21.448889
 31
0.0
  0
LINE
  5
110
100
AcDbEntity
  8
0
 62
7
100
AcDbLine
 10
8.040119
 20
21.448889
 30
0.0
 11
7.847966
 21
21.608962
 31
0.0
  0
LINE
  5
111
100
AcDbEntity
  8
0
 62
7
100
AcDbLine
 10
7.847966
 20
21.608962
 30
0.0
 11
7.635307
 21
21.729347
 31
0.0
  0
LINE
  5
112
100
AcDbEntity
  8
0
 62
7
100
AcDbLine
 10
7.635307
 20
21.729347
 30
0.0
 11
7.408096
 21
21.810045
 31
0.0
  0
LINE
  5
113
100
AcDbEntity
  8
0
 62
7
100
AcDbLine
 10
7.408096
 20
21.810045
 30
0.0
 11
7.172286
 21
21.851056
 31
0.0
  0
LINE
  5
114
100
AcDbEntity
  8
0
 62
7
100
AcDbLine
 10
7.172286
 20
21.851056
 30
0.0
 11
6.933830
 21
21.852378
 31
0.0
  0
LINE
  5
115
100
AcDbEntity
  8
0
 62
7
100
AcDbLine
 10
6.933830
 20
21.852378
 30
0.0
 11
6.698682
 21
21.814014
 31
0.0
  0
LINE
  5
116
100
AcDbEntity
  8
0
 62
7
100
AcDbLine
 10
6.698682
 20
21.814014
 30
0.0
 11
6.472794
 21
21.735962
 31
0.0
  0
LINE
  5
117
100
AcDbEntity
  8
0
 62
7
100
AcDbLine
 10
6.472794
 20
21.735962
 30
0.0
 11
6.262119
 21
21.618222
 31
0.0
  0
LINE
  5
118
100
AcDbEntity
  8
0
 62
7
100
AcDbLine
 10
6.262119
 20
21.618222
 30
0.0
 11
5.349693
 21
21.029910
 31
0.0
  0
LINE
  5
119
100
AcDbEntity
  8
0
 62
7
100
AcDbLine
 10
5.349693
 20
21.029910
 30
0.0
 11
4.476623
 21
20.388351
 31
0.0
  0
LINE
  5
11a
100
AcDbEntity
  8
0
 62
7
100
AcDbLine
 10
4.476623
 20
20.388351
 30
0.0
 11
3.645225
 21
19.695859
 31
0.0
  0
LINE
  5
11b
100
AcDbEntity
  8
0
 62
7
100
AcDbLine
 10
3.645225
 20
19.695859
 30
0.0
 11
2.857814
 21
18.954750
 31
0.0
  0
LINE
  5
11c
100
AcDbEntity
  8
0
 62
7
100
AcDbLine
 10
2.857814
 20
18.954750
 30
0.0
 11
2.116705
 21
18.167339
 31
0.0
  0
LINE
  5
11d
100
AcDbEntity
  8
0
 62
7
100
AcDbLine
 10
2.116705
 20
18.167339
 30
0.0
 11
1.424213
 21
17.335941
 31
0.0
  0
LINE
  5
11e
100
AcDbEntity
  8
0
 62
7
100
AcDbLine
 10
1.424213
 20
17.335941
 30
0.0
 11
0.782654
 21
16.462871
 31
0.0
  0
LINE
  5
11f
100
AcDbEntity
  8
0
 62
7
100
AcDbLine
 10
0.782654
 20
16.462871
 30
0.0
 11
0.194342
 21
15.550444
 31
0.0
  0
LINE
  5
120
100
AcDbEntity
  8
0
 62
7
100
AcDbLine
 10
0.194342
 20
15.550444
 30
0.0
 11
0.081618
 21
15.310666
 31
0.0
  0
LINE
  5
121
100
AcDbEntity
  8
0
 62
7
100
AcDbLine
 10
0.081618
 20
15.310666
 30
0.0
 11
0.017512
 21
15.060965
 31
0.0
  0
LINE
  5
122
100
AcDbEntity
  8
0
 62
7
100
AcDbLine
 10
0.017512
 20
15.060965
 30
0.0
 11
0.000369
 21
14.807296
 31
0.0
  0
LINE
  5
123
100
AcDbEntity
  8
0
 62
7
100
AcDbLine
 10
0.000369
 20
14.807296
 30
0.0
 11
0.028535
 21
14.555611
 31
0.0
  0
LINE
  5
124
100
AcDbEntity
  8
0
 62
7
100
AcDbLine
 10
0.028535
 20
14.555611
 30
0.0
 11
0.100359
 21
14.311864
 31
0.0
  0
LINE
  5
125
100
AcDbEntity
  8
0
 62
7
100
AcDbLine
 10
0.100359
 20
14.311864
 30
0.0
 11
0.214184
 21
14.082007
 31
0.0
  0
LINE
  5
126
100
AcDbEntity
  8
0
 62
7
100
AcDbLine
 10
0.214184
 20
14.082007
 30
0.0
 11
0.368360
 21
13.871994
 31
0.0
  0
LINE
  5
127
100
AcDbEntity
  8
0
 62
7
100
AcDbLine
 10
0.368360
 20
13.871994
 30
0.0
 11
0.561230
 21
13.687778
 31
0.0
  0
LINE
  5
128
100
AcDbEntity
  8
0
 62
7
100
AcDbLine
 10
0.561230
 20
13.687778
 30
0.0
 11
0.818758
 21
13.529965
 31
0.0
  0
LINE
  5
129
100
AcDbEntity
  8
0
 62
7
100
AcDbLine
 10
0.818758
 20
13.529965
 30
0.0
 11
1.097453
 21
13.435983
 31
0.0
  0
LINE
  5
12a
100
AcDbEntity
  8
0
 62
7
100
AcDbLine
 10
1.097453
 20
13.435983
 30
0.0
 11
1.386730
 21
13.403516
 31
0.0
  0
LINE
  5
12b
100
AcDbEntity
  8
0
 62
7
100
AcDbLine
 10
1.386730
 20
13.403516
 30
0.0
 11
1.676008
 21
13.430251
 31
0.0
  0
LINE
  5
12c
100
AcDbEntity
  8
0
 62
7
100
AcDbLine
 10
1.676008
 20
13.430251
 30
0.0
 11
1.954703
 21
13.513870
 31
0.0
  0
LINE
  5
12d
100
AcDbEntity
  8
0
 62
7
100
AcDbLine
 10
1.954703
 20
13.513870
 30
0.0
 11
2.212230
 21
13.652060
 31
0.0
  0
LINE
  5
12e
100
AcDbEntity
  8
0
 62
7
100
AcDbLine
 10
2.212230
 20
13.652060
 30
0.0
 11
2.438008
 21
13.842505
 31
0.0
  0
LINE
  5
12f
100
AcDbEntity
  8
0
 62
7
100
AcDbLine
 10
2.438008
 20
13.842505
 30
0.0
 11
2.621453
 21
14.082889
 31
0.0
  0
LINE
  5
130
100
AcDbEntity
  8
0
 62
7
100
AcDbLine
 10
2.621453
 20
14.082889
 30
0.0
 11
2.937575
 21
14.584219
 31
0.0
  0
LINE
  5
131
100
AcDbEntity
  8
0
 62
7
100
AcDbLine
 10
2.937575
 20
14.584219
 30
0.0
 11
3.271887
 21
15.071989
 31
0.0
  0
LINE
  5
132
100
AcDbEntity
  8
0
 62
7
100
AcDbLine
 10
3.271887
 20
15.071989
 30
0.0
 11
3.624058
 21
15.545869
 31
0.0
  0
LINE
  5
133
100
AcDbEntity
  8
0
 62
7
100
AcDbLine
 10
3.624058
 20
15.545869
 30
0.0
 11
3.993758
 21
16.005528
 31
0.0
  0
LINE
  5
134
100
AcDbEntity
  8
0
 62
7
100
AcDbLine
 10
3.993758
 20
16.005528
 30
0.0
 11
4.380656
 21
16.450634
 31
0.0
  0
LINE
  5
135
100
AcDbEntity
  8
0
 62
7
100
AcDbLine
 10
4.380656
 20
16.450634
 30
0.0
 11
4.784421
 21
16.880857
 31
0.0
  0
LINE
  5
136
100
AcDbEntity
  8
0
 62
7
100
AcDbLine
 10
4.784421
 20
16.880857
 30
0.0
 11
5.204723
 21
17.295868
 31
0.0
  0
LINE
  5
137
100
AcDbEntity
  8
0
 62
7
100
AcDbLine
 10
5.204723
 20
17.295868
 30
0.0
 11
5.641230
 21
17.695333
 31
0.0
  0
LINE
  5
138
100
AcDbEntity
  8
0
 62
7
100
AcDbLine
 10
5.641230
 20
17.695333
 30
0.0
 11
5.641230
 21
17.272000
 31
0.0
  0
LINE
  5
139
100
AcDbEntity
  8
0
 62
7
100
AcDbLine
 10
5.641230
 20
17.272000
 30
0.0
 11
5.641230
 21
16.848667
 31
0.0
  0
LINE
  5
13a
100
AcDbEntity
  8
0
 62
7
100
AcDbLine
 10
5.641230
 20
16.848667
 30
0.0
 11
5.641230
 21
16.425333
 31
0.0
  0
LINE
  5
13b
100
AcDbEntity
  8
0
 62
7
100
AcDbLine
 10
5.641230
 20
16.425333
 30
0.0
 11
5.641230
 21
16.002000
 31
0.0
  0
LINE
  5
13c
100
AcDbEntity
  8
0
 62
7
100
AcDbLine
 10
5.641230
 20
16.002000
 30
0.0
 11
5.641230
 21
15.578667
 31
0.0
  0
LINE
  5
13d
100
AcDbEntity
  8
0
 62
7
100
AcDbLine
 10
5.641230
 20
15.578667
 30
0.0
 11
5.641230
 21
15.155333
 31
0.0
  0
LINE
  5
13e
100
AcDbEntity
  8
0
 62
7
100
AcDbLine
 10
5.641230
 20
15.155333
 30
0.0
 11
5.641230
 21
14.732000
 31
0.0
  0
LINE
  5
13f
100
AcDbEntity
  8
0
 62
7
100
AcDbLine
 10
5.641230
 20
14.732000
 30
0.0
 11
5.641230
 21
14.308667
 31
0.0
  0
LINE
  5
140
100
AcDbEntity
  8
0
 62
7
100
AcDbLine
 10
5.641230
 20
14.308667
 30
0.0
 11
5.285421
 21
13.149902
 31
0.0
  0
LINE
  5
141
100
AcDbEntity
  8
0
 62
7
100
AcDbLine
 10
5.285421
 20
13.149902
 30
0.0
 11
4.895546
 21
12.002382
 31
0.0
  0
LINE
  5
142
100
AcDbEntity
  8
0
 62
7
100
AcDbLine
 10
4.895546
 20
12.002382
 30
0.0
 11
4.471938
 21
10.866768
 31
0.0
  0
LINE
  5
143
100
AcDbEntity
  8
0
 62
7
100
AcDbLine
 10
4.471938
 20
10.866768
 30
0.0
 11
4.014925
 21
9.743722
 31
0.0
  0
LINE
  5
144
100
AcDbEntity
  8
0
 62
7
100
AcDbLine
 10
4.014925
 20
9.743722
 30
0.0
 11
3.524840
 21
8.633905
 31
0.0
  0
LINE
  5
145
100
AcDbEntity
  8
0
 62
7
100
AcDbLine
 10
3.524840
 20
8.633905
 30
0.0
 11
3.002012
 21
7.537979
 31
0.0
  0
LINE
  5
146
100
AcDbEntity
  8
0
 62
7
100
AcDbLine
 10
3.002012
 20
7.537979
 30
0.0
 11
2.446773
 21
6.456605
 31
0.0
  0
LINE
  5
147
100
AcDbEntity
  8
0
 62
7
100
AcDbLine
 10
2.446773
 20
6.456605
 30
0.0
 11
1.859453
 21
5.390444
 31
0.0
  0
LINE
  5
148
100
AcDbEntity
  8
0
 62
7
100
AcDbLine
 10
1.859453
 20
5.390444
 30
0.0
 11
1.824175
 21
5.330472
 31
0.0
  0
LINE
  5
149
100
AcDbEntity
  8
0
 62
7
100
AcDbLine
 10
1.824175
 20
5.330472
 30
0.0
 11
1.788897
 21
5.270500
 31
0.0
  0
LINE
  5
14a
100
AcDbEntity
  8
0
 62
7
100
AcDbLine
 10
1.788897
 20
5.270500
 30
0.0
 11
1.753619
 21
5.210528
 31
0.0
  0
LINE
  5
14b
100
AcDbEntity
  8
0
 62
7
100
AcDbLine
 10
1.753619
 20
5.210528
 30
0.0
 11
1.718342
 21
5.150556
 31
0.0
  0
LINE
  5
14c
100
AcDbEntity
  8
0
 62
7
100
AcDbLine
 10
1.718342
 20
5.150556
 30
0.0
 11
1.683064
 21
5.090583
 31
0.0
  0
LINE
  5
14d
100
AcDbEntity
  8
0
 62
7
100
AcDbLine
 10
1.683064
 20
5.090583
 30
0.0
 11
1.647786
 21
5.030611
 31
0.0
  0
LINE
  5
14e
100
AcDbEntity
  8
0
 62
7
100
AcDbLine
 10
1.647786
 20
5.030611
 30
0.0
 11
1.612508
 21
4.970639
 31
0.0
  0
LINE
  5
14f
100
AcDbEntity
  8
0
 62
7
100
AcDbLine
 10
1.612508
 20
4.970639
 30
0.0
 11
1.577230
 21
4.910667
 31
0.0
  0
LINE
  5
150
100
AcDbEntity
  8
0
 62
7
100
AcDbLine
 10
1.577230
 20
4.910667
 30
0.0
 11
1.459050
 21
4.648784
 31
0.0
  0
LINE
  5
151
100
AcDbEntity
  8
0
 62
7
100
AcDbLine
 10
1.459050
 20
4.648784
 30
0.0
 11
1.399078
 21
4.376649
 31
0.0
  0
LINE
  5
152
100
AcDbEntity
  8
0
 62
7
100
AcDbLine
 10
1.399078
 20
4.376649
 30
0.0
 11
1.394667
 21
4.102530
 31
0.0
  0
LINE
  5
153
100
AcDbEntity
  8
0
 62
7
100
AcDbLine
 10
1.394667
 20
4.102530
 30
0.0
 11
1.443174
 21
3.834694
 31
0.0
  0
LINE
  5
154
100
AcDbEntity
  8
0
 62
7
100
AcDbLine
 10
1.443174
 20
3.834694
 30
0.0
 11
1.541951
 21
3.581411
 31
0.0
  0
LINE
  5
155
100
AcDbEntity
  8
0
 62
7
100
AcDbLine
 10
1.541951
 20
3.581411
 30
0.0
 11
1.688354
 21
3.350948
 31
0.0
  0
LINE
  5
156
100
AcDbEntity
  8
0
 62
7
100
AcDbLine
 10
1.688354
 20
3.350948
 30
0.0
 11
1.879736
 21
3.151573
 31
0.0
  0
LINE
  5
157
100
AcDbEntity
  8
0
 62
7
100
AcDbLine
 10
1.879736
 20
3.151573
 30
0.0
 11
2.113453
 21
2.991556
 31
0.0
  0
LINE
  5
158
100
AcDbEntity
  8
0
 62
7
100
AcDbLine
 10
2.113453
 20
2.991556
 30
0.0
 11
2.198174
 21
2.950655
 31
0.0
  0
LINE
  5
159
100
AcDbEntity
  8
0
 62
7
100
AcDbLine
 10
2.198174
 20
2.950655
 30
0.0
 11
2.283227
 21
2.913063
 31
0.0
  0
LINE
  5
15a
100
AcDbEntity
  8
0
 62
7
100
AcDbLine
 10
2.283227
 20
2.913063
 30
0.0
 11
2.368941
 21
2.879438
 31
0.0
  0
LINE
  5
15b
100
AcDbEntity
  8
0
 62
7
100
AcDbLine
 10
2.368941
 20
2.879438
 30
0.0
 11
2.455647
 21
2.850444
 31
0.0
  0
LINE
  5
15c
100
AcDbEntity
  8
0
 62
7
100
AcDbLine
 10
2.455647
 20
2.850444
 30
0.0
 11
2.543676
 21
2.826743
 31
0.0
  0
LINE
  5
15d
100
AcDbEntity
  8
0
 62
7
100
AcDbLine
 10
2.543676
 20
2.826743
 30
0.0
 11
2.633359
 21
2.808994
 31
0.0
  0
LINE
  5
15e
100
AcDbEntity
  8
0
 62
7
100
AcDbLine
 10
2.633359
 20
2.808994
 30
0.0
 11
2.725026
 21
2.797861
 31
0.0
  0
LINE
  5
15f
100
AcDbEntity
  8
0
 62
7
100
AcDbLine
 10
2.725026
 20
2.797861
 30
0.0
 11
2.819008
 21
2.794000
 31
0.0
  0
LINE
  5
160
100
AcDbEntity
  8
0
 62
7
100
AcDbLine
 10
2.819008
 20
2.794000
 30
0.0
 11
2.998484
 21
2.805796
 31
0.0
  0
LINE
  5
161
100
AcDbEntity
  8
0
 62
7
100
AcDbLine
 10
2.998484
 20
2.805796
 30
0.0
 11
3.175314
 21
2.840743
 31
0.0
  0
LINE
  5
162
100
AcDbEntity
  8
0
 62
7
100
AcDbLine
 10
3.175314
 20
2.840743
 30
0.0
 11
3.346852
 21
2.898180
 31
0.0
  0
LINE
  5
163
100
AcDbEntity
  8
0
 62
7
100
AcDbLine
 10
3.346852
 20
2.898180
 30
0.0
 11
3.510453
 21
2.977444
 31
0.0
  0
LINE
  5
164
100
AcDbEntity
  8
0
 62
7
100
AcDbLine
 10
3.510453
 20
2.977444
 30
0.0
 11
3.663470
 21
3.077876
 31
0.0
  0
LINE
  5
165
100
AcDbEntity
  8
0
 62
7
100
AcDbLine
 10
3.663470
 20
3.077876
 30
0.0
 11
3.803258
 21
3.198812
 31
0.0
  0
LINE
  5
166
100
AcDbEntity
  8
0
 62
7
100
AcDbLine
 10
3.803258
 20
3.198812
 30
0.0
 11
3.927171
 21
3.339593
 31
0.0
  0
LINE
  5
167
100
AcDbEntity
  8
0
 62
7
100
AcDbLine
 10
3.927171
 20
3.339593
 30
0.0
 11
4.032564
 21
3.499556
 31
0.0
  0
LINE
  5
168
100
AcDbEntity
  8
0
 62
7
100
AcDbLine
 10
4.032564
 20
3.499556
 30
0.0
 11
4.067842
 21
3.559528
 31
0.0
  0
LINE
  5
169
100
AcDbEntity
  8
0
 62
7
100
AcDbLine
 10
4.067842
 20
3.559528
 30
0.0
 11
4.103119
 21
3.619500
 31
0.0
  0
LINE
  5
16a
100
AcDbEntity
  8
0
 62
7
100
AcDbLine
 10
4.103119
 20
3.619500
 30
0.0
 11
4.138397
 21
3.679472
 31
0.0
  0
LINE
  5
16b
100
AcDbEntity
  8
0
 62
7
100
AcDbLine
 10
4.138397
 20
3.679472
 30
0.0
 11
4.173675
 21
3.739444
 31
0.0
  0
LINE
  5
16c
100
AcDbEntity
  8
0
 62
7
100
AcDbLine
 10
4.173675
 20
3.739444
 30
0.0
 11
4.208953
 21
3.799417
 31
0.0
  0
LINE
  5
16d
100
AcDbEntity
  8
0
 62
7
100
AcDbLine
 10
4.208953
 20
3.799417
 30
0.0
 11
4.244230
 21
3.859389
 31
0.0
  0
LINE
  5
16e
100
AcDbEntity
  8
0
 62
7
100
AcDbLine
 10
4.244230
 20
3.859389
 30
0.0
 11
4.279508
 21
3.919361
 31
0.0
  0
LINE
  5
16f
100
AcDbEntity
  8
0
 62
7
100
AcDbLine
 10
4.279508
 20
3.919361
 30
0.0
 11
4.314786
 21
3.979333
 31
0.0
  0
LINE
  5
170
100
AcDbEntity
  8
0
 62
7
100
AcDbLine
 10
4.314786
 20
3.979333
 30
0.0
 11
4.801619
 21
4.861664
 31
0.0
  0
LINE
  5
171
100
AcDbEntity
  8
0
 62
7
100
AcDbLine
 10
4.801619
 20
4.861664
 30
0.0
 11
5.267286
 21
5.751601
 31
0.0
  0
LINE
  5
172
100
AcDbEntity
  8
0
 62
7
100
AcDbLine
 10
5.267286
 20
5.751601
 30
0.0
 11
5.711786
 21
6.648814
 31
0.0
  0
LINE
  5
173
100
AcDbEntity
  8
0
 62
7
100
AcDbLine
 10
5.711786
 20
6.648814
 30
0.0
 11
6.135119
 21
7.552972
 31
0.0
  0
LINE
  5
174
100
AcDbEntity
  8
0
 62
7
100
AcDbLine
 10
6.135119
 20
7.552972
 30
0.0
 11
6.537286
 21
8.463745
 31
0.0
  0
LINE
  5
175
100
AcDbEntity
  8
0
 62
7
100
AcDbLine
 10
6.537286
 20
8.463745
 30
0.0
 11
6.918286
 21
9.380802
 31
0.0
  0
LINE
  5
176
100
AcDbEntity
  8
0
 62
7
100
AcDbLine
 10
6.918286
 20
9.380802
 30
0.0
 11
7.278119
 21
10.303812
 31
0.0
  0
LINE
  5
177
100
AcDbEntity
  8
0
 62
7
100
AcDbLine
 10
7.278119
 20
10.303812
 30
0.0
 11
7.616786
 21
11.232444
 31
0.0
  0
LINE
  5
178
100
AcDbEntity
  8
0
 62
7
100
AcDbLine
 10
7.616786
 20
11.232444
 30
0.0
 11
8.231777
 21
10.393826
 31
0.0
  0
LINE
  5
179
100
AcDbEntity
  8
0
 62
7
100
AcDbLine
 10
8.231777
 20
10.393826
 30
0.0
 11
8.806088
 21
9.529410
 31
0.0
  0
LINE
  5
17a
100
AcDbEntity
  8
0
 62
7
100
AcDbLine
 10
8.806088
 20
9.529410
 30
0.0
 11
9.338727
 21
8.639859
 31
0.0
  0
LINE
  5
17b
100
AcDbEntity
  8
0
 62
7
100
AcDbLine
 10
9.338727
 20
8.639859
 30
0.0
 11
9.828703
 21
7.725833
 31
0.0
  0
LINE
  5
17c
100
AcDbEntity
  8
0
 62
7
100
AcDbLine
 10
9.828703
 20
7.725833
 30
0.0
 11
10.275022
 21
6.787996
 31
0.0
  0
LINE
  5
17d
100
AcDbEntity
  8
0
 62
7
100
AcDbLine
 10
10.275022
 20
6.787996
 30
0.0
 11
10.676692
 21
5.827007
 31
0.0
  0
LINE
  5
17e
100
AcDbEntity
  8
0
 62
7
100
AcDbLine
 10
10.676692
 20
5.827007
 30
0.0
 11
11.032722
 21
4.843529
 31
0.0
  0
LINE
  5
17f
100
AcDbEntity
  8
0
 62
7
100
AcDbLine
 10
11.032722
 20
4.843529
 30
0.0
 11
11.342119
 21
3.838222
 31
0.0
  0
LINE
  5
180
100
AcDbEntity
  8
0
 62
7
100
AcDbLine
 10
11.342119
 20
3.838222
 30
0.0
 11
11.443929
 21
3.577056
 31
0.0
  0
LINE
  5
181
100
AcDbEntity
  8
0
 62
7
100
AcDbLine
 10
11.443929
 20
3.577056
 30
0.0
 11
11.595679
 21
3.346979
 31
0.0
  0
LINE
  5
182
100
AcDbEntity
  8
0
 62
7
100
AcDbLine
 10
11.595679
 20
3.346979
 30
0.0
 11
11.789100
 21
3.152621
 31
0.0
  0
LINE
  5
183
100
AcDbEntity
  8
0
 62
7
100
AcDbLine
 10
11.789100
 20
3.152621
 30
0.0
 11
12.015925
 21
2.998611
 31
0.0
  0
LINE
  5
184
100
AcDbEntity
  8
0
 62
7
100
AcDbLine
 10
12.015925
 20
2.998611
 30
0.0
 11
12.267885
 21
2.889581
 31
0.0
  0
LINE
  5
185
100
AcDbEntity
  8
0
 62
7
100
AcDbLine
 10
12.267885
 20
2.889581
 30
0.0
 11
12.536713
 21
2.830160
 31
0.0
  0
LINE
  5
186
100
AcDbEntity
  8
0
 62
7
100
AcDbLine
 10
12.536713
 20
2.830160
 30
0.0
 11
12.814140
 21
2.824978
 31
0.0
  0
LINE
  5
187
100
AcDbEntity
  8
0
 62
7
100
AcDbLine
 10
12.814140
 20
2.824978
 30
0.0
 11
13.091897
 21
2.878667
 31
0.0
  0
LINE
  5
188
100
AcDbEntity
  8
0
 62
7
100
AcDbLine
 10
13.091897
 20
2.878667
 30
0.0
 11
13.353063
 21
2.980476
 31
0.0
  0
LINE
  5
189
100
AcDbEntity
  8
0
 62
7
100
AcDbLine
 10
13.353063
 20
2.980476
 30
0.0
 11
13.583140
 21
3.132226
 31
0.0
  0
LINE
  5
18a
100
AcDbEntity
  8
0
 62
7
100
AcDbLine
 10
13.583140
 20
3.132226
 30
0.0
 11
13.777499
 21
3.325647
 31
0.0
  0
LINE
  5
18b
100
AcDbEntity
  8
0
 62
7
100
AcDbLine
 10
13.777499
 20
3.325647
 30
0.0
 11
13.931508
 21
3.552472
 31
0.0
  0
LINE
  5
18c
100
AcDbEntity
  8
0
 62
7
100
AcDbLine
 10
13.931508
 20
3.552472
 30
0.0
 11
14.040539
 21
3.804433
 31
0.0
  0
LINE
  5
18d
100
AcDbEntity
  8
0
 62
7
100
AcDbLine
 10
14.040539
 20
3.804433
 30
0.0
 11
14.099960
 21
4.073260
 31
0.0
  0
LINE
  5
18e
100
AcDbEntity
  8
0
 62
7
100
AcDbLine
 10
14.099960
 20
4.073260
 30
0.0
 11
14.105141
 21
4.350687
 31
0.0
  0
LINE
  5
18f
100
AcDbEntity
  8
0
 62
7
100
AcDbLine
 10
14.105141
 20
4.350687
 30
0.0
 11
14.051453
 21
4.628444
 31
0.0
  0
LINE
  5
190
100
AcDbEntity
  8
0
 62
7
100
AcDbLine
 10
14.051453
 20
4.628444
 30
0.0
 11
13.607614
 21
6.022027
 31
0.0
  0
LINE
  5
191
100
AcDbEntity
  8
0
 62
7
100
AcDbLine
 10
13.607614
 20
6.022027
 30
0.0
 11
13.083078
 21
7.368646
 31
0.0
  0
LINE
  5
192
100
AcDbEntity
  8
0
 62
7
100
AcDbLine
 10
13.083078
 20
7.368646
 30
0.0
 11
12.481812
 21
8.671609
 31
0.0
  0
LINE
  5
193
100
AcDbEntity
  8
0
 62
7
100
AcDbLine
 10
12.481812
 20
8.671609
 30
0.0
 11
11.807786
 21
9.934222
 31
0.0
  0
LINE
  5
194
100
AcDbEntity
  8
0
 62
7
100
AcDbLine
 10
11.807786
 20
9.934222
 30
0.0
 11
11.064968
 21
11.159794
 31
0.0
  0
LINE
  5
195
100
AcDbEntity
  8
0
 62
7
100
AcDbLine
 10
11.064968
 20
11.159794
 30
0.0
 11
10.257328
 21
12.351632
 31
0.0
  0
LINE
  5
196
100
AcDbEntity
  8
0
 62
7
100
AcDbLine
 10
10.257328
 20
12.351632
 30
0.0
 11
9.388833
 21
13.513042
 31
0.0
  0
LINE
  5
197
100
AcDbEntity
  8
0
 62
7
100
AcDbLine
 10
9.388833
 20
13.513042
 30
0.0
 11
8.463453
 21
14.647333
 31
0.0
  0
LINE
  5
198
100
AcDbEntity
  8
0
 62
7
100
AcDbLine
 10
8.463453
 20
14.647333
 30
0.0
 11
8.463453
 21
15.021278
 31
0.0
  0
LINE
  5
199
100
AcDbEntity
  8
0
 62
7
100
AcDbLine
 10
8.463453
 20
15.021278
 30
0.0
 11
8.463453
 21
15.395222
 31
0.0
  0
LINE
  5
19a
100
AcDbEntity
  8
0
 62
7
100
AcDbLine
 10
8.463453
 20
15.395222
 30
0.0
 11
8.463453
 21
15.769167
 31
0.0
  0
LINE
  5
19b
100
AcDbEntity
  8
0
 62
7
100
AcDbLine
 10
8.463453
 20
15.769167
 30
0.0
 11
8.463453
 21
16.143111
 31
0.0
  0
LINE
  5
19c
100
AcDbEntity
  8
0
 62
7
100
AcDbLine
 10
8.463453
 20
16.143111
 30
0.0
 11
8.463453
 21
16.517056
 31
0.0
  0
LINE
  5
19d
100
AcDbEntity
  8
0
 62
7
100
AcDbLine
 10
8.463453
 20
16.517056
 30
0.0
 11
8.463453
 21
16.891000
 31
0.0
  0
LINE
  5
19e
100
AcDbEntity
  8
0
 62
7
100
AcDbLine
 10
8.463453
 20
16.891000
 30
0.0
 11
8.463453
 21
17.264944
 31
0.0
  0
LINE
  5
19f
100
AcDbEntity
  8
0
 62
7
100
AcDbLine
 10
8.463453
 20
17.264944
 30
0.0
 11
8.463453
 21
17.638889
 31
0.0
  0
LINE
  5
1a0
100
AcDbEntity
  8
0
 62
7
100
AcDbLine
 10
8.463453
 20
17.638889
 30
0.0
 11
9.086326
 21
17.310861
 31
0.0
  0
LINE
  5
1a1
100
AcDbEntity
  8
0
 62
7
100
AcDbLine
 10
9.086326
 20
17.310861
 30
0.0
 11
9.726397
 21
17.025496
 31
0.0
  0
LINE
  5
1a2
100
AcDbEntity
  8
0
 62
7
100
AcDbLine
 10
9.726397
 20
17.025496
 30
0.0
 11
10.382343
 21
16.783127
 31
0.0
  0
LINE
  5
1a3
100
AcDbEntity
  8
0
 62
7
100
AcDbLine
 10
10.382343
 20
16.783127
 30
0.0
 11
11.052842
 21
16.584083
 31
0.0
  0
LINE
  5
1a4
100
AcDbEntity
  8
0
 62
7
100
AcDbLine
 10
11.052842
 20
16.584083
 30
0.0
 11
11.736569
 21
16.428696
 31
0.0
  0
LINE
  5
1a5
100
AcDbEntity
  8
0
 62
7
100
AcDbLine
 10
11.736569
 20
16.428696
 30
0.0
 11
12.432203
 21
16.317295
 31
0.0
  0
LINE
  5
1a6
100
AcDbEntity
  8
0
 62
7
100
AcDbLine
 10
12.432203
 20
16.317295
 30
0.0
 11
13.138420
 21
16.250212
 31
0.0
  0
LINE
  5
1a7
100
AcDbEntity
  8
0
 62
7
100
AcDbLine
 10
13.138420
 20
16.250212
 30
0.0
 11
13.853897
 21
16.227778
 31
0.0
  0
LINE
  5
1a8
100
AcDbEntity
  8
0
 62
7
100
AcDbLine
 10
13.853897
 20
16.227778
 30
0.0
 11
14.126749
 21
16.242660
 31
0.0
  0
LINE
  5
1a9
100
AcDbEntity
  8
0
 62
7
100
AcDbLine
 10
14.126749
 20
16.242660
 30
0.0
 11
14.391001
 21
16.288632
 31
0.0
  0
LINE
  5
1aa
100
AcDbEntity
  8
0
 62
7
100
AcDbLine
 10
14.391001
 20
16.288632
 30
0.0
 11
14.640702
 21
16.367676
 31
0.0
  0
LINE
  5
1ab
100
AcDbEntity
  8
0
 62
7
100
AcDbLine
 10
14.640702
 20
16.367676
 30
0.0
 11
14.869897
 21
16.481778
 31
0.0
  0
LINE
  5
1ac
100
AcDbEntity
  8
0
 62
7
100
AcDbLine
 10
14.869897
 20
16.481778
 30
0.0
 11
15.072634
 21
16.632921
 31
0.0
  0
LINE
  5
1ad
100
AcDbEntity
  8
0
 62
7
100
AcDbLine
 10
15.072634
 20
16.632921
 30
0.0
 11
15.242960
 21
16.823090
 31
0.0
  0
LINE
  5
1ae
100
AcDbEntity
  8
0
 62
7
100
AcDbLine
 10
15.242960
 20
16.823090
 30
0.0
 11
15.374921
 21
17.054270
 31
0.0
  0
LINE
  5
1af
100
AcDbEntity
  8
0
 62
7
100
AcDbLine
 10
15.374921
 20
17.054270
 30
0.0
 11
15.462564
 21
17.328444
 31
0.0
  0
LINE
  5
1b0
100
AcDbEntity
  8
0
 62
7
100
AcDbLine
 10
15.462564
 20
17.328444
 30
0.0
 11
15.505063
 21
17.653606
 31
0.0
  0
LINE
  5
1b1
100
AcDbEntity
  8
0
 62
7
100
AcDbLine
 10
15.505063
 20
17.653606
 30
0.0
 11
15.469178
 21
17.966531
 31
0.0
  0
LINE
  5
1b2
100
AcDbEntity
  8
0
 62
7
100
AcDbLine
 10
15.469178
 20
17.966531
 30
0.0
 11
15.363841
 21
18.257628
 31
0.0
  0
LINE
  5
1b3
100
AcDbEntity
  8
0
 62
7
100
AcDbLine
 10
15.363841
 20
18.257628
 30
0.0
 11
15.197980
 21
18.517306
 31
0.0
  0
LINE
  5
1b4
100
AcDbEntity
  8
0
 62
7
100
AcDbLine
 10
15.197980
 20
18.517306
 30
0.0
 11
14.980526
 21
18.735973
 31
0.0
  0
LINE
  5
1b5
100
AcDbEntity
  8
0
 62
7
100
AcDbLine
 10
14.980526
 20
18.735973
 30
0.0
 11
14.720407
 21
18.904038
 31
0.0
  0
LINE
  5
1b6
100
AcDbEntity
  8
0
 62
7
100
AcDbLine
 10
14.720407
 20
18.904038
 30
0.0
 11
14.426555
 21
19.011911
 31
0.0
  0
LINE
  5
1b7
100
AcDbEntity
  8
0
 62
7
100
AcDbLine
 10
14.426555
 20
19.011911
 30
0.0
 11
14.107897
 21
19.050000
 31
0.0
  0
LINE
  5
1b8
100
AcDbEntity
  8
0
 62
7
100
AcDbLine
 10
9.874564
 20
25.400000
 30
0.0
 11
9.652779
 21
24.301464
 31
0.0
  0
LINE
  5
1b9
100
AcDbEntity
  8
0
 62
7
100
AcDbLine
 10
9.652779
 20
24.301464
 30
0.0
 11
9.047954
 21
23.404387
 31
0.0
  0
LINE
  5
1ba
100
AcDbEntity
  8
0
 62
7
100
AcDbLine
 10
9.047954
 20
23.404387
 30
0.0
 11
8.150878
 21
22.799562
 31
0.0
  0
LINE
  5
1bb
100
AcDbEntity
  8
0
 62
7
100
AcDbLine
 10
8.150878
 20
22.799562
 30
0.0
 11
7.052342
 21
22.577778
 31
0.0
  0
LINE
  5
1bc
100
AcDbEntity
  8
0
 62
7
100
AcDbLine
 10
7.052342
 20
22.577778
 30
0.0
 11
5.953805
 21
22.799562
 31
0.0
  0
LINE
  5
1bd
100
AcDbEntity
  8
0
 62
7
100
AcDbLine
 10
5.953805
 20
22.799562
 30
0.0
 11
5.056729
 21
23.404387
 31
0.0
  0
LINE
  5
1be
100
AcDbEntity
  8
0
 62
7
100
AcDbLine
 10
5.056729
 20
23.404387
 30
0.0
 11
4.451904
 21
24.301464
 31
0.0
  0
LINE
  5
1bf
100
AcDbEntity
  8
0
 62
7
100
AcDbLine
 10
4.451904
 20
24.301464
 30
0.0
 11
4.230119
 21
25.400000
 31
0.0
  0
LINE
  5
1c0
100
AcDbEntity
  8
0
 62
7
100
AcDbLine
 10
4.230119
 20
25.400000
 30
0.0
 11
4.451904
 21
26.498536
 31
0.0
  0
LINE
  5
1c1
100
AcDbEntity
  8
0
 62
7
100
AcDbLine
 10
4.451904
 20
26.498536
 30
0.0
 11
5.056729
 21
27.395612
 31
0.0
  0
LINE
  5
1c2
100
AcDbEntity
  8
0
 62
7
100
AcDbLine
 10
5.056729
 20
27.395612
 30
0.0
 11
5.953805
 21
28.000438
 31
0.0
  0
LINE
  5
1c3
100
AcDbEntity
  8
0
 62
7
100
AcDbLine
 10
5.953805
 20
28.000438
 30
0.0
 11
7.052342
 21
28.222222
 31
0.0
  0
LINE
  5
1c4
100
AcDbEntity
  8
0
 62
7
100
AcDbLine
 10
7.052342
 20
28.222222
 30
0.0
 11
8.150878
 21
28.000438
 31
0.0
  0
LINE
  5
1c5
100
AcDbEntity
  8
0
 62
7
100
AcDbLine
 10
8.150878
 20
28.000438
 30
0.0
 11
9.047954
 21
27.395612
 31
0.0
  0
LINE
  5
1c6
100
AcDbEntity
  8
0
 62
7
100
AcDbLine
 10
9.047954
 20
27.395612
 30
0.0
 11
9.652779
 21
26.498536
 31
0.0
  0
LINE
  5
1c7
100
AcDbEntity
  8
0
 62
7
100
AcDbLine
 10
9.652779
 20
26.498536
 30
0.0
 11
9.874564
 21
25.400000
 31
0.0
  0
ENDSEC
  0
SECTION
  2
OBJECTS
  0
DICTIONARY
  5
C
330
0
100
AcDbDictionary
  3
ACAD_GROUP
350
D
  3
ACAD_MLINESTYLE
350
17
  0
DICTIONARY
  5
D
330
C
100
AcDbDictionary
  0
DICTIONARY
  5
1A
330
C
100
AcDbDictionary
  0
DICTIONARY
  5
17
330
C
100
AcDbDictionary
  3
STANDARD
350
18
  0
DICTIONARY
  5
19
330
C
100
AcDbDictionary
  0
ENDSEC
  0
EOF
